%TF.GenerationSoftware,KiCad,Pcbnew,5.1.10*%
%TF.CreationDate,2021-08-02T16:12:48-04:00*%
%TF.ProjectId,mist-eeg,6d697374-2d65-4656-972e-6b696361645f,1C*%
%TF.SameCoordinates,Original*%
%TF.FileFunction,Paste,Bot*%
%TF.FilePolarity,Positive*%
%FSLAX46Y46*%
G04 Gerber Fmt 4.6, Leading zero omitted, Abs format (unit mm)*
G04 Created by KiCad (PCBNEW 5.1.10) date 2021-08-02 16:12:48*
%MOMM*%
%LPD*%
G01*
G04 APERTURE LIST*
%ADD10C,0.100000*%
%ADD11R,0.240000X0.599999*%
%ADD12R,0.850001X0.700001*%
%ADD13R,1.450000X0.349999*%
%ADD14R,1.799999X0.349999*%
%ADD15R,0.599999X0.240000*%
%ADD16R,1.700000X1.000000*%
%ADD17R,2.700000X1.700000*%
%ADD18R,0.250000X0.700000*%
%ADD19R,0.700000X0.250000*%
%ADD20R,3.400000X0.980000*%
%ADD21R,2.500000X1.800000*%
G04 APERTURE END LIST*
D10*
%TO.C,U5*%
G36*
X209077700Y-83255500D02*
G01*
X209077700Y-83405500D01*
X209078660Y-83415254D01*
X209081505Y-83424634D01*
X209086127Y-83433277D01*
X209092345Y-83440854D01*
X209099922Y-83447072D01*
X209108566Y-83451692D01*
X209117946Y-83454537D01*
X209127700Y-83455500D01*
X209777701Y-83455500D01*
X209787454Y-83454537D01*
X209796835Y-83451692D01*
X209805478Y-83447072D01*
X209813055Y-83440854D01*
X209819273Y-83433277D01*
X209823896Y-83424634D01*
X209826741Y-83415254D01*
X209827701Y-83405500D01*
X209827701Y-83255500D01*
X209826741Y-83245744D01*
X209823896Y-83236364D01*
X209819273Y-83227720D01*
X209813055Y-83220143D01*
X209805478Y-83213926D01*
X209796835Y-83209305D01*
X209787454Y-83206460D01*
X209777701Y-83205500D01*
X209127700Y-83205500D01*
X209117946Y-83206460D01*
X209108566Y-83209305D01*
X209099922Y-83213926D01*
X209092345Y-83220143D01*
X209086127Y-83227720D01*
X209081505Y-83236364D01*
X209078660Y-83245744D01*
X209077700Y-83255500D01*
G37*
X209077700Y-83255500D02*
X209077700Y-83405500D01*
X209078660Y-83415254D01*
X209081505Y-83424634D01*
X209086127Y-83433277D01*
X209092345Y-83440854D01*
X209099922Y-83447072D01*
X209108566Y-83451692D01*
X209117946Y-83454537D01*
X209127700Y-83455500D01*
X209777701Y-83455500D01*
X209787454Y-83454537D01*
X209796835Y-83451692D01*
X209805478Y-83447072D01*
X209813055Y-83440854D01*
X209819273Y-83433277D01*
X209823896Y-83424634D01*
X209826741Y-83415254D01*
X209827701Y-83405500D01*
X209827701Y-83255500D01*
X209826741Y-83245744D01*
X209823896Y-83236364D01*
X209819273Y-83227720D01*
X209813055Y-83220143D01*
X209805478Y-83213926D01*
X209796835Y-83209305D01*
X209787454Y-83206460D01*
X209777701Y-83205500D01*
X209127700Y-83205500D01*
X209117946Y-83206460D01*
X209108566Y-83209305D01*
X209099922Y-83213926D01*
X209092345Y-83220143D01*
X209086127Y-83227720D01*
X209081505Y-83236364D01*
X209078660Y-83245744D01*
X209077700Y-83255500D01*
G36*
X209777701Y-83205500D02*
G01*
X209627701Y-83205500D01*
X209617948Y-83206460D01*
X209608567Y-83209305D01*
X209599924Y-83213928D01*
X209592347Y-83220146D01*
X209586129Y-83227723D01*
X209581509Y-83236366D01*
X209578664Y-83245747D01*
X209577701Y-83255500D01*
X209577701Y-83755499D01*
X209578664Y-83765253D01*
X209581509Y-83774633D01*
X209586129Y-83783277D01*
X209592347Y-83790854D01*
X209599924Y-83797071D01*
X209608567Y-83801694D01*
X209617948Y-83804539D01*
X209627701Y-83805499D01*
X209777701Y-83805499D01*
X209787457Y-83804539D01*
X209796837Y-83801694D01*
X209805481Y-83797071D01*
X209813058Y-83790854D01*
X209819276Y-83783277D01*
X209823896Y-83774633D01*
X209826741Y-83765253D01*
X209827701Y-83755499D01*
X209827701Y-83255500D01*
X209826741Y-83245747D01*
X209823896Y-83236366D01*
X209819276Y-83227723D01*
X209813058Y-83220146D01*
X209805481Y-83213928D01*
X209796837Y-83209305D01*
X209787457Y-83206460D01*
X209777701Y-83205500D01*
G37*
X209777701Y-83205500D02*
X209627701Y-83205500D01*
X209617948Y-83206460D01*
X209608567Y-83209305D01*
X209599924Y-83213928D01*
X209592347Y-83220146D01*
X209586129Y-83227723D01*
X209581509Y-83236366D01*
X209578664Y-83245747D01*
X209577701Y-83255500D01*
X209577701Y-83755499D01*
X209578664Y-83765253D01*
X209581509Y-83774633D01*
X209586129Y-83783277D01*
X209592347Y-83790854D01*
X209599924Y-83797071D01*
X209608567Y-83801694D01*
X209617948Y-83804539D01*
X209627701Y-83805499D01*
X209777701Y-83805499D01*
X209787457Y-83804539D01*
X209796837Y-83801694D01*
X209805481Y-83797071D01*
X209813058Y-83790854D01*
X209819276Y-83783277D01*
X209823896Y-83774633D01*
X209826741Y-83765253D01*
X209827701Y-83755499D01*
X209827701Y-83255500D01*
X209826741Y-83245747D01*
X209823896Y-83236366D01*
X209819276Y-83227723D01*
X209813058Y-83220146D01*
X209805481Y-83213928D01*
X209796837Y-83209305D01*
X209787457Y-83206460D01*
X209777701Y-83205500D01*
G36*
X209277699Y-83205500D02*
G01*
X209127700Y-83205500D01*
X209117943Y-83206460D01*
X209108563Y-83209305D01*
X209099920Y-83213928D01*
X209092343Y-83220146D01*
X209086125Y-83227723D01*
X209081505Y-83236366D01*
X209078660Y-83245747D01*
X209077700Y-83255500D01*
X209077700Y-83755499D01*
X209078660Y-83765253D01*
X209081505Y-83774633D01*
X209086125Y-83783277D01*
X209092343Y-83790854D01*
X209099920Y-83797071D01*
X209108563Y-83801694D01*
X209117943Y-83804539D01*
X209127700Y-83805499D01*
X209277699Y-83805499D01*
X209287453Y-83804539D01*
X209296833Y-83801694D01*
X209305477Y-83797071D01*
X209313054Y-83790854D01*
X209319271Y-83783277D01*
X209323892Y-83774633D01*
X209326737Y-83765253D01*
X209327699Y-83755499D01*
X209327699Y-83255500D01*
X209326737Y-83245747D01*
X209323892Y-83236366D01*
X209319271Y-83227723D01*
X209313054Y-83220146D01*
X209305477Y-83213928D01*
X209296833Y-83209305D01*
X209287453Y-83206460D01*
X209277699Y-83205500D01*
G37*
X209277699Y-83205500D02*
X209127700Y-83205500D01*
X209117943Y-83206460D01*
X209108563Y-83209305D01*
X209099920Y-83213928D01*
X209092343Y-83220146D01*
X209086125Y-83227723D01*
X209081505Y-83236366D01*
X209078660Y-83245747D01*
X209077700Y-83255500D01*
X209077700Y-83755499D01*
X209078660Y-83765253D01*
X209081505Y-83774633D01*
X209086125Y-83783277D01*
X209092343Y-83790854D01*
X209099920Y-83797071D01*
X209108563Y-83801694D01*
X209117943Y-83804539D01*
X209127700Y-83805499D01*
X209277699Y-83805499D01*
X209287453Y-83804539D01*
X209296833Y-83801694D01*
X209305477Y-83797071D01*
X209313054Y-83790854D01*
X209319271Y-83783277D01*
X209323892Y-83774633D01*
X209326737Y-83765253D01*
X209327699Y-83755499D01*
X209327699Y-83255500D01*
X209326737Y-83245747D01*
X209323892Y-83236366D01*
X209319271Y-83227723D01*
X209313054Y-83220146D01*
X209305477Y-83213928D01*
X209296833Y-83209305D01*
X209287453Y-83206460D01*
X209277699Y-83205500D01*
G36*
X209127700Y-81005500D02*
G01*
X209277699Y-81005500D01*
X209287453Y-81004540D01*
X209296833Y-81001695D01*
X209305477Y-80997072D01*
X209313054Y-80990854D01*
X209319271Y-80983277D01*
X209323892Y-80974634D01*
X209326737Y-80965253D01*
X209327699Y-80955500D01*
X209327699Y-80455501D01*
X209326737Y-80445747D01*
X209323892Y-80436367D01*
X209319271Y-80427723D01*
X209313054Y-80420146D01*
X209305477Y-80413929D01*
X209296833Y-80409306D01*
X209287453Y-80406461D01*
X209277699Y-80405501D01*
X209127700Y-80405501D01*
X209117943Y-80406461D01*
X209108563Y-80409306D01*
X209099920Y-80413929D01*
X209092343Y-80420146D01*
X209086125Y-80427723D01*
X209081505Y-80436367D01*
X209078660Y-80445747D01*
X209077700Y-80455501D01*
X209077700Y-80955500D01*
X209078660Y-80965253D01*
X209081505Y-80974634D01*
X209086125Y-80983277D01*
X209092343Y-80990854D01*
X209099920Y-80997072D01*
X209108563Y-81001695D01*
X209117943Y-81004540D01*
X209127700Y-81005500D01*
G37*
X209127700Y-81005500D02*
X209277699Y-81005500D01*
X209287453Y-81004540D01*
X209296833Y-81001695D01*
X209305477Y-80997072D01*
X209313054Y-80990854D01*
X209319271Y-80983277D01*
X209323892Y-80974634D01*
X209326737Y-80965253D01*
X209327699Y-80955500D01*
X209327699Y-80455501D01*
X209326737Y-80445747D01*
X209323892Y-80436367D01*
X209319271Y-80427723D01*
X209313054Y-80420146D01*
X209305477Y-80413929D01*
X209296833Y-80409306D01*
X209287453Y-80406461D01*
X209277699Y-80405501D01*
X209127700Y-80405501D01*
X209117943Y-80406461D01*
X209108563Y-80409306D01*
X209099920Y-80413929D01*
X209092343Y-80420146D01*
X209086125Y-80427723D01*
X209081505Y-80436367D01*
X209078660Y-80445747D01*
X209077700Y-80455501D01*
X209077700Y-80955500D01*
X209078660Y-80965253D01*
X209081505Y-80974634D01*
X209086125Y-80983277D01*
X209092343Y-80990854D01*
X209099920Y-80997072D01*
X209108563Y-81001695D01*
X209117943Y-81004540D01*
X209127700Y-81005500D01*
G36*
X209627701Y-81005500D02*
G01*
X209777701Y-81005500D01*
X209787457Y-81004540D01*
X209796837Y-81001695D01*
X209805481Y-80997072D01*
X209813058Y-80990854D01*
X209819276Y-80983277D01*
X209823896Y-80974634D01*
X209826741Y-80965253D01*
X209827701Y-80955500D01*
X209827701Y-80455501D01*
X209826741Y-80445747D01*
X209823896Y-80436367D01*
X209819276Y-80427723D01*
X209813058Y-80420146D01*
X209805481Y-80413929D01*
X209796837Y-80409306D01*
X209787457Y-80406461D01*
X209777701Y-80405501D01*
X209627701Y-80405501D01*
X209617948Y-80406461D01*
X209608567Y-80409306D01*
X209599924Y-80413929D01*
X209592347Y-80420146D01*
X209586129Y-80427723D01*
X209581509Y-80436367D01*
X209578664Y-80445747D01*
X209577701Y-80455501D01*
X209577701Y-80955500D01*
X209578664Y-80965253D01*
X209581509Y-80974634D01*
X209586129Y-80983277D01*
X209592347Y-80990854D01*
X209599924Y-80997072D01*
X209608567Y-81001695D01*
X209617948Y-81004540D01*
X209627701Y-81005500D01*
G37*
X209627701Y-81005500D02*
X209777701Y-81005500D01*
X209787457Y-81004540D01*
X209796837Y-81001695D01*
X209805481Y-80997072D01*
X209813058Y-80990854D01*
X209819276Y-80983277D01*
X209823896Y-80974634D01*
X209826741Y-80965253D01*
X209827701Y-80955500D01*
X209827701Y-80455501D01*
X209826741Y-80445747D01*
X209823896Y-80436367D01*
X209819276Y-80427723D01*
X209813058Y-80420146D01*
X209805481Y-80413929D01*
X209796837Y-80409306D01*
X209787457Y-80406461D01*
X209777701Y-80405501D01*
X209627701Y-80405501D01*
X209617948Y-80406461D01*
X209608567Y-80409306D01*
X209599924Y-80413929D01*
X209592347Y-80420146D01*
X209586129Y-80427723D01*
X209581509Y-80436367D01*
X209578664Y-80445747D01*
X209577701Y-80455501D01*
X209577701Y-80955500D01*
X209578664Y-80965253D01*
X209581509Y-80974634D01*
X209586129Y-80983277D01*
X209592347Y-80990854D01*
X209599924Y-80997072D01*
X209608567Y-81001695D01*
X209617948Y-81004540D01*
X209627701Y-81005500D01*
G36*
X209077700Y-80805500D02*
G01*
X209077700Y-80955500D01*
X209078660Y-80965256D01*
X209081505Y-80974636D01*
X209086127Y-80983280D01*
X209092345Y-80990857D01*
X209099922Y-80997074D01*
X209108566Y-81001695D01*
X209117946Y-81004540D01*
X209127700Y-81005500D01*
X209777701Y-81005500D01*
X209787454Y-81004540D01*
X209796835Y-81001695D01*
X209805478Y-80997074D01*
X209813055Y-80990857D01*
X209819273Y-80983280D01*
X209823896Y-80974636D01*
X209826741Y-80965256D01*
X209827701Y-80955500D01*
X209827701Y-80805500D01*
X209826741Y-80795746D01*
X209823896Y-80786366D01*
X209819273Y-80777723D01*
X209813055Y-80770146D01*
X209805478Y-80763928D01*
X209796835Y-80759308D01*
X209787454Y-80756463D01*
X209777701Y-80755500D01*
X209127700Y-80755500D01*
X209117946Y-80756463D01*
X209108566Y-80759308D01*
X209099922Y-80763928D01*
X209092345Y-80770146D01*
X209086127Y-80777723D01*
X209081505Y-80786366D01*
X209078660Y-80795746D01*
X209077700Y-80805500D01*
G37*
X209077700Y-80805500D02*
X209077700Y-80955500D01*
X209078660Y-80965256D01*
X209081505Y-80974636D01*
X209086127Y-80983280D01*
X209092345Y-80990857D01*
X209099922Y-80997074D01*
X209108566Y-81001695D01*
X209117946Y-81004540D01*
X209127700Y-81005500D01*
X209777701Y-81005500D01*
X209787454Y-81004540D01*
X209796835Y-81001695D01*
X209805478Y-80997074D01*
X209813055Y-80990857D01*
X209819273Y-80983280D01*
X209823896Y-80974636D01*
X209826741Y-80965256D01*
X209827701Y-80955500D01*
X209827701Y-80805500D01*
X209826741Y-80795746D01*
X209823896Y-80786366D01*
X209819273Y-80777723D01*
X209813055Y-80770146D01*
X209805478Y-80763928D01*
X209796835Y-80759308D01*
X209787454Y-80756463D01*
X209777701Y-80755500D01*
X209127700Y-80755500D01*
X209117946Y-80756463D01*
X209108566Y-80759308D01*
X209099922Y-80763928D01*
X209092345Y-80770146D01*
X209086127Y-80777723D01*
X209081505Y-80786366D01*
X209078660Y-80795746D01*
X209077700Y-80805500D01*
G36*
X209627701Y-82030501D02*
G01*
X209627701Y-82180499D01*
X209628661Y-82190255D01*
X209631506Y-82199635D01*
X209636126Y-82208279D01*
X209642344Y-82215855D01*
X209649921Y-82222073D01*
X209658565Y-82226694D01*
X209667945Y-82229538D01*
X209677701Y-82230498D01*
X210297702Y-82230498D01*
X210307456Y-82229538D01*
X210316836Y-82226694D01*
X210325480Y-82222073D01*
X210333057Y-82215855D01*
X210339275Y-82208279D01*
X210343895Y-82199635D01*
X210346740Y-82190255D01*
X210347702Y-82180499D01*
X210347702Y-82030501D01*
X210346740Y-82020745D01*
X210343895Y-82011365D01*
X210339275Y-82002721D01*
X210333057Y-81995145D01*
X210325480Y-81988927D01*
X210316836Y-81984306D01*
X210307456Y-81981462D01*
X210297702Y-81980502D01*
X209677701Y-81980502D01*
X209667945Y-81981462D01*
X209658565Y-81984306D01*
X209649921Y-81988927D01*
X209642344Y-81995145D01*
X209636126Y-82002721D01*
X209631506Y-82011365D01*
X209628661Y-82020745D01*
X209627701Y-82030501D01*
G37*
X209627701Y-82030501D02*
X209627701Y-82180499D01*
X209628661Y-82190255D01*
X209631506Y-82199635D01*
X209636126Y-82208279D01*
X209642344Y-82215855D01*
X209649921Y-82222073D01*
X209658565Y-82226694D01*
X209667945Y-82229538D01*
X209677701Y-82230498D01*
X210297702Y-82230498D01*
X210307456Y-82229538D01*
X210316836Y-82226694D01*
X210325480Y-82222073D01*
X210333057Y-82215855D01*
X210339275Y-82208279D01*
X210343895Y-82199635D01*
X210346740Y-82190255D01*
X210347702Y-82180499D01*
X210347702Y-82030501D01*
X210346740Y-82020745D01*
X210343895Y-82011365D01*
X210339275Y-82002721D01*
X210333057Y-81995145D01*
X210325480Y-81988927D01*
X210316836Y-81984306D01*
X210307456Y-81981462D01*
X210297702Y-81980502D01*
X209677701Y-81980502D01*
X209667945Y-81981462D01*
X209658565Y-81984306D01*
X209649921Y-81988927D01*
X209642344Y-81995145D01*
X209636126Y-82002721D01*
X209631506Y-82011365D01*
X209628661Y-82020745D01*
X209627701Y-82030501D01*
G36*
X208707700Y-82030501D02*
G01*
X208707700Y-82180499D01*
X208708661Y-82190255D01*
X208711505Y-82199635D01*
X208716126Y-82208279D01*
X208722344Y-82215855D01*
X208729920Y-82222073D01*
X208738564Y-82226694D01*
X208747944Y-82229538D01*
X208757700Y-82230498D01*
X209377702Y-82230498D01*
X209387455Y-82229538D01*
X209396835Y-82226694D01*
X209405479Y-82222073D01*
X209413056Y-82215855D01*
X209419274Y-82208279D01*
X209423894Y-82199635D01*
X209426739Y-82190255D01*
X209427702Y-82180499D01*
X209427702Y-82030501D01*
X209426739Y-82020745D01*
X209423894Y-82011365D01*
X209419274Y-82002721D01*
X209413056Y-81995145D01*
X209405479Y-81988927D01*
X209396835Y-81984306D01*
X209387455Y-81981462D01*
X209377702Y-81980502D01*
X208757700Y-81980502D01*
X208747944Y-81981462D01*
X208738564Y-81984306D01*
X208729920Y-81988927D01*
X208722344Y-81995145D01*
X208716126Y-82002721D01*
X208711505Y-82011365D01*
X208708661Y-82020745D01*
X208707700Y-82030501D01*
G37*
X208707700Y-82030501D02*
X208707700Y-82180499D01*
X208708661Y-82190255D01*
X208711505Y-82199635D01*
X208716126Y-82208279D01*
X208722344Y-82215855D01*
X208729920Y-82222073D01*
X208738564Y-82226694D01*
X208747944Y-82229538D01*
X208757700Y-82230498D01*
X209377702Y-82230498D01*
X209387455Y-82229538D01*
X209396835Y-82226694D01*
X209405479Y-82222073D01*
X209413056Y-82215855D01*
X209419274Y-82208279D01*
X209423894Y-82199635D01*
X209426739Y-82190255D01*
X209427702Y-82180499D01*
X209427702Y-82030501D01*
X209426739Y-82020745D01*
X209423894Y-82011365D01*
X209419274Y-82002721D01*
X209413056Y-81995145D01*
X209405479Y-81988927D01*
X209396835Y-81984306D01*
X209387455Y-81981462D01*
X209377702Y-81980502D01*
X208757700Y-81980502D01*
X208747944Y-81981462D01*
X208738564Y-81984306D01*
X208729920Y-81988927D01*
X208722344Y-81995145D01*
X208716126Y-82002721D01*
X208711505Y-82011365D01*
X208708661Y-82020745D01*
X208707700Y-82030501D01*
G36*
X209028200Y-82530498D02*
G01*
X209028200Y-82680498D01*
X209029160Y-82690254D01*
X209032005Y-82699634D01*
X209036628Y-82708278D01*
X209042846Y-82715854D01*
X209050423Y-82722072D01*
X209059066Y-82726693D01*
X209068446Y-82729537D01*
X209078200Y-82730497D01*
X209553200Y-82730497D01*
X209562954Y-82729537D01*
X209572334Y-82726693D01*
X209580978Y-82722072D01*
X209588555Y-82715854D01*
X209594773Y-82708278D01*
X209599395Y-82699634D01*
X209602240Y-82690254D01*
X209603200Y-82680498D01*
X209603200Y-82530498D01*
X209602240Y-82520744D01*
X209599395Y-82511364D01*
X209594773Y-82502720D01*
X209588555Y-82495144D01*
X209580978Y-82488926D01*
X209572334Y-82484305D01*
X209562954Y-82481461D01*
X209553200Y-82480498D01*
X209078200Y-82480498D01*
X209068446Y-82481461D01*
X209059066Y-82484305D01*
X209050423Y-82488926D01*
X209042846Y-82495144D01*
X209036628Y-82502720D01*
X209032005Y-82511364D01*
X209029160Y-82520744D01*
X209028200Y-82530498D01*
G37*
X209028200Y-82530498D02*
X209028200Y-82680498D01*
X209029160Y-82690254D01*
X209032005Y-82699634D01*
X209036628Y-82708278D01*
X209042846Y-82715854D01*
X209050423Y-82722072D01*
X209059066Y-82726693D01*
X209068446Y-82729537D01*
X209078200Y-82730497D01*
X209553200Y-82730497D01*
X209562954Y-82729537D01*
X209572334Y-82726693D01*
X209580978Y-82722072D01*
X209588555Y-82715854D01*
X209594773Y-82708278D01*
X209599395Y-82699634D01*
X209602240Y-82690254D01*
X209603200Y-82680498D01*
X209603200Y-82530498D01*
X209602240Y-82520744D01*
X209599395Y-82511364D01*
X209594773Y-82502720D01*
X209588555Y-82495144D01*
X209580978Y-82488926D01*
X209572334Y-82484305D01*
X209562954Y-82481461D01*
X209553200Y-82480498D01*
X209078200Y-82480498D01*
X209068446Y-82481461D01*
X209059066Y-82484305D01*
X209050423Y-82488926D01*
X209042846Y-82495144D01*
X209036628Y-82502720D01*
X209032005Y-82511364D01*
X209029160Y-82520744D01*
X209028200Y-82530498D01*
G36*
X209028200Y-81530502D02*
G01*
X209028200Y-81680502D01*
X209029160Y-81690256D01*
X209032005Y-81699636D01*
X209036628Y-81708280D01*
X209042846Y-81715856D01*
X209050423Y-81722074D01*
X209059066Y-81726695D01*
X209068446Y-81729539D01*
X209078200Y-81730502D01*
X209553200Y-81730502D01*
X209562954Y-81729539D01*
X209572334Y-81726695D01*
X209580978Y-81722074D01*
X209588555Y-81715856D01*
X209594773Y-81708280D01*
X209599395Y-81699636D01*
X209602240Y-81690256D01*
X209603200Y-81680502D01*
X209603200Y-81530502D01*
X209602240Y-81520746D01*
X209599395Y-81511366D01*
X209594773Y-81502722D01*
X209588555Y-81495146D01*
X209580978Y-81488928D01*
X209572334Y-81484307D01*
X209562954Y-81481463D01*
X209553200Y-81480503D01*
X209078200Y-81480503D01*
X209068446Y-81481463D01*
X209059066Y-81484307D01*
X209050423Y-81488928D01*
X209042846Y-81495146D01*
X209036628Y-81502722D01*
X209032005Y-81511366D01*
X209029160Y-81520746D01*
X209028200Y-81530502D01*
G37*
X209028200Y-81530502D02*
X209028200Y-81680502D01*
X209029160Y-81690256D01*
X209032005Y-81699636D01*
X209036628Y-81708280D01*
X209042846Y-81715856D01*
X209050423Y-81722074D01*
X209059066Y-81726695D01*
X209068446Y-81729539D01*
X209078200Y-81730502D01*
X209553200Y-81730502D01*
X209562954Y-81729539D01*
X209572334Y-81726695D01*
X209580978Y-81722074D01*
X209588555Y-81715856D01*
X209594773Y-81708280D01*
X209599395Y-81699636D01*
X209602240Y-81690256D01*
X209603200Y-81680502D01*
X209603200Y-81530502D01*
X209602240Y-81520746D01*
X209599395Y-81511366D01*
X209594773Y-81502722D01*
X209588555Y-81495146D01*
X209580978Y-81488928D01*
X209572334Y-81484307D01*
X209562954Y-81481463D01*
X209553200Y-81480503D01*
X209078200Y-81480503D01*
X209068446Y-81481463D01*
X209059066Y-81484307D01*
X209050423Y-81488928D01*
X209042846Y-81495146D01*
X209036628Y-81502722D01*
X209032005Y-81511366D01*
X209029160Y-81520746D01*
X209028200Y-81530502D01*
G36*
X209803200Y-81530502D02*
G01*
X209803200Y-81680502D01*
X209804160Y-81690256D01*
X209807005Y-81699636D01*
X209811628Y-81708280D01*
X209817846Y-81715856D01*
X209825422Y-81722074D01*
X209834066Y-81726695D01*
X209843446Y-81729539D01*
X209853200Y-81730502D01*
X210328200Y-81730502D01*
X210337954Y-81729539D01*
X210347334Y-81726695D01*
X210355978Y-81722074D01*
X210363554Y-81715856D01*
X210369772Y-81708280D01*
X210374395Y-81699636D01*
X210377240Y-81690256D01*
X210378200Y-81680502D01*
X210378200Y-81530502D01*
X210377240Y-81520746D01*
X210374395Y-81511366D01*
X210369772Y-81502722D01*
X210363554Y-81495146D01*
X210355978Y-81488928D01*
X210347334Y-81484307D01*
X210337954Y-81481463D01*
X210328200Y-81480503D01*
X209853200Y-81480503D01*
X209843446Y-81481463D01*
X209834066Y-81484307D01*
X209825422Y-81488928D01*
X209817846Y-81495146D01*
X209811628Y-81502722D01*
X209807005Y-81511366D01*
X209804160Y-81520746D01*
X209803200Y-81530502D01*
G37*
X209803200Y-81530502D02*
X209803200Y-81680502D01*
X209804160Y-81690256D01*
X209807005Y-81699636D01*
X209811628Y-81708280D01*
X209817846Y-81715856D01*
X209825422Y-81722074D01*
X209834066Y-81726695D01*
X209843446Y-81729539D01*
X209853200Y-81730502D01*
X210328200Y-81730502D01*
X210337954Y-81729539D01*
X210347334Y-81726695D01*
X210355978Y-81722074D01*
X210363554Y-81715856D01*
X210369772Y-81708280D01*
X210374395Y-81699636D01*
X210377240Y-81690256D01*
X210378200Y-81680502D01*
X210378200Y-81530502D01*
X210377240Y-81520746D01*
X210374395Y-81511366D01*
X210369772Y-81502722D01*
X210363554Y-81495146D01*
X210355978Y-81488928D01*
X210347334Y-81484307D01*
X210337954Y-81481463D01*
X210328200Y-81480503D01*
X209853200Y-81480503D01*
X209843446Y-81481463D01*
X209834066Y-81484307D01*
X209825422Y-81488928D01*
X209817846Y-81495146D01*
X209811628Y-81502722D01*
X209807005Y-81511366D01*
X209804160Y-81520746D01*
X209803200Y-81530502D01*
G36*
X209803200Y-82530498D02*
G01*
X209803200Y-82680498D01*
X209804160Y-82690254D01*
X209807005Y-82699634D01*
X209811628Y-82708278D01*
X209817846Y-82715854D01*
X209825422Y-82722072D01*
X209834066Y-82726693D01*
X209843446Y-82729537D01*
X209853200Y-82730497D01*
X210328200Y-82730497D01*
X210337954Y-82729537D01*
X210347334Y-82726693D01*
X210355978Y-82722072D01*
X210363554Y-82715854D01*
X210369772Y-82708278D01*
X210374395Y-82699634D01*
X210377240Y-82690254D01*
X210378200Y-82680498D01*
X210378200Y-82530498D01*
X210377240Y-82520744D01*
X210374395Y-82511364D01*
X210369772Y-82502720D01*
X210363554Y-82495144D01*
X210355978Y-82488926D01*
X210347334Y-82484305D01*
X210337954Y-82481461D01*
X210328200Y-82480498D01*
X209853200Y-82480498D01*
X209843446Y-82481461D01*
X209834066Y-82484305D01*
X209825422Y-82488926D01*
X209817846Y-82495144D01*
X209811628Y-82502720D01*
X209807005Y-82511364D01*
X209804160Y-82520744D01*
X209803200Y-82530498D01*
G37*
X209803200Y-82530498D02*
X209803200Y-82680498D01*
X209804160Y-82690254D01*
X209807005Y-82699634D01*
X209811628Y-82708278D01*
X209817846Y-82715854D01*
X209825422Y-82722072D01*
X209834066Y-82726693D01*
X209843446Y-82729537D01*
X209853200Y-82730497D01*
X210328200Y-82730497D01*
X210337954Y-82729537D01*
X210347334Y-82726693D01*
X210355978Y-82722072D01*
X210363554Y-82715854D01*
X210369772Y-82708278D01*
X210374395Y-82699634D01*
X210377240Y-82690254D01*
X210378200Y-82680498D01*
X210378200Y-82530498D01*
X210377240Y-82520744D01*
X210374395Y-82511364D01*
X210369772Y-82502720D01*
X210363554Y-82495144D01*
X210355978Y-82488926D01*
X210347334Y-82484305D01*
X210337954Y-82481461D01*
X210328200Y-82480498D01*
X209853200Y-82480498D01*
X209843446Y-82481461D01*
X209834066Y-82484305D01*
X209825422Y-82488926D01*
X209817846Y-82495144D01*
X209811628Y-82502720D01*
X209807005Y-82511364D01*
X209804160Y-82520744D01*
X209803200Y-82530498D01*
%TD*%
%TO.C,F1*%
G36*
G01*
X210247001Y-98584000D02*
X205296999Y-98584000D01*
G75*
G02*
X205047000Y-98334001I0J249999D01*
G01*
X205047000Y-96908999D01*
G75*
G02*
X205296999Y-96659000I249999J0D01*
G01*
X210247001Y-96659000D01*
G75*
G02*
X210497000Y-96908999I0J-249999D01*
G01*
X210497000Y-98334001D01*
G75*
G02*
X210247001Y-98584000I-249999J0D01*
G01*
G37*
G36*
G01*
X210247001Y-91809000D02*
X205296999Y-91809000D01*
G75*
G02*
X205047000Y-91559001I0J249999D01*
G01*
X205047000Y-90133999D01*
G75*
G02*
X205296999Y-89884000I249999J0D01*
G01*
X210247001Y-89884000D01*
G75*
G02*
X210497000Y-90133999I0J-249999D01*
G01*
X210497000Y-91559001D01*
G75*
G02*
X210247001Y-91809000I-249999J0D01*
G01*
G37*
%TD*%
%TO.C,C20*%
G36*
G01*
X212736000Y-75649001D02*
X212736000Y-73448999D01*
G75*
G02*
X212985999Y-73199000I249999J0D01*
G01*
X213636001Y-73199000D01*
G75*
G02*
X213886000Y-73448999I0J-249999D01*
G01*
X213886000Y-75649001D01*
G75*
G02*
X213636001Y-75899000I-249999J0D01*
G01*
X212985999Y-75899000D01*
G75*
G02*
X212736000Y-75649001I0J249999D01*
G01*
G37*
G36*
G01*
X209786000Y-75649001D02*
X209786000Y-73448999D01*
G75*
G02*
X210035999Y-73199000I249999J0D01*
G01*
X210686001Y-73199000D01*
G75*
G02*
X210936000Y-73448999I0J-249999D01*
G01*
X210936000Y-75649001D01*
G75*
G02*
X210686001Y-75899000I-249999J0D01*
G01*
X210035999Y-75899000D01*
G75*
G02*
X209786000Y-75649001I0J249999D01*
G01*
G37*
%TD*%
%TO.C,C65*%
G36*
G01*
X239701500Y-74210999D02*
X239701500Y-76411001D01*
G75*
G02*
X239451501Y-76661000I-249999J0D01*
G01*
X238801499Y-76661000D01*
G75*
G02*
X238551500Y-76411001I0J249999D01*
G01*
X238551500Y-74210999D01*
G75*
G02*
X238801499Y-73961000I249999J0D01*
G01*
X239451501Y-73961000D01*
G75*
G02*
X239701500Y-74210999I0J-249999D01*
G01*
G37*
G36*
G01*
X242651500Y-74210999D02*
X242651500Y-76411001D01*
G75*
G02*
X242401501Y-76661000I-249999J0D01*
G01*
X241751499Y-76661000D01*
G75*
G02*
X241501500Y-76411001I0J249999D01*
G01*
X241501500Y-74210999D01*
G75*
G02*
X241751499Y-73961000I249999J0D01*
G01*
X242401501Y-73961000D01*
G75*
G02*
X242651500Y-74210999I0J-249999D01*
G01*
G37*
%TD*%
%TO.C,C58*%
G36*
G01*
X216079500Y-73321999D02*
X216079500Y-75522001D01*
G75*
G02*
X215829501Y-75772000I-249999J0D01*
G01*
X215179499Y-75772000D01*
G75*
G02*
X214929500Y-75522001I0J249999D01*
G01*
X214929500Y-73321999D01*
G75*
G02*
X215179499Y-73072000I249999J0D01*
G01*
X215829501Y-73072000D01*
G75*
G02*
X216079500Y-73321999I0J-249999D01*
G01*
G37*
G36*
G01*
X219029500Y-73321999D02*
X219029500Y-75522001D01*
G75*
G02*
X218779501Y-75772000I-249999J0D01*
G01*
X218129499Y-75772000D01*
G75*
G02*
X217879500Y-75522001I0J249999D01*
G01*
X217879500Y-73321999D01*
G75*
G02*
X218129499Y-73072000I249999J0D01*
G01*
X218779501Y-73072000D01*
G75*
G02*
X219029500Y-73321999I0J-249999D01*
G01*
G37*
%TD*%
%TO.C,C45*%
G36*
G01*
X217190501Y-47017100D02*
X214990499Y-47017100D01*
G75*
G02*
X214740500Y-46767101I0J249999D01*
G01*
X214740500Y-46117099D01*
G75*
G02*
X214990499Y-45867100I249999J0D01*
G01*
X217190501Y-45867100D01*
G75*
G02*
X217440500Y-46117099I0J-249999D01*
G01*
X217440500Y-46767101D01*
G75*
G02*
X217190501Y-47017100I-249999J0D01*
G01*
G37*
G36*
G01*
X217190501Y-49967100D02*
X214990499Y-49967100D01*
G75*
G02*
X214740500Y-49717101I0J249999D01*
G01*
X214740500Y-49067099D01*
G75*
G02*
X214990499Y-48817100I249999J0D01*
G01*
X217190501Y-48817100D01*
G75*
G02*
X217440500Y-49067099I0J-249999D01*
G01*
X217440500Y-49717101D01*
G75*
G02*
X217190501Y-49967100I-249999J0D01*
G01*
G37*
%TD*%
%TO.C,C44*%
G36*
G01*
X215730001Y-40540100D02*
X213529999Y-40540100D01*
G75*
G02*
X213280000Y-40290101I0J249999D01*
G01*
X213280000Y-39640099D01*
G75*
G02*
X213529999Y-39390100I249999J0D01*
G01*
X215730001Y-39390100D01*
G75*
G02*
X215980000Y-39640099I0J-249999D01*
G01*
X215980000Y-40290101D01*
G75*
G02*
X215730001Y-40540100I-249999J0D01*
G01*
G37*
G36*
G01*
X215730001Y-43490100D02*
X213529999Y-43490100D01*
G75*
G02*
X213280000Y-43240101I0J249999D01*
G01*
X213280000Y-42590099D01*
G75*
G02*
X213529999Y-42340100I249999J0D01*
G01*
X215730001Y-42340100D01*
G75*
G02*
X215980000Y-42590099I0J-249999D01*
G01*
X215980000Y-43240101D01*
G75*
G02*
X215730001Y-43490100I-249999J0D01*
G01*
G37*
%TD*%
D11*
%TO.C,U5*%
X208202700Y-83505500D03*
X208702699Y-83505500D03*
D12*
X209452700Y-83505500D03*
X209452700Y-83505500D03*
D13*
X209702700Y-82605499D03*
D14*
X209527699Y-82105500D03*
D13*
X209702700Y-81605501D03*
D12*
X209452700Y-80705500D03*
X209452700Y-80705500D03*
D11*
X208702699Y-80705500D03*
X208202700Y-80705500D03*
D15*
X207777700Y-81355502D03*
X207777700Y-81855500D03*
X207777700Y-82355502D03*
X207777700Y-82855501D03*
%TD*%
%TO.C,R9*%
G36*
G01*
X209101000Y-84492000D02*
X209101000Y-84291000D01*
G75*
G02*
X209180500Y-84211500I79500J0D01*
G01*
X209339500Y-84211500D01*
G75*
G02*
X209419000Y-84291000I0J-79500D01*
G01*
X209419000Y-84492000D01*
G75*
G02*
X209339500Y-84571500I-79500J0D01*
G01*
X209180500Y-84571500D01*
G75*
G02*
X209101000Y-84492000I0J79500D01*
G01*
G37*
G36*
G01*
X208411000Y-84492000D02*
X208411000Y-84291000D01*
G75*
G02*
X208490500Y-84211500I79500J0D01*
G01*
X208649500Y-84211500D01*
G75*
G02*
X208729000Y-84291000I0J-79500D01*
G01*
X208729000Y-84492000D01*
G75*
G02*
X208649500Y-84571500I-79500J0D01*
G01*
X208490500Y-84571500D01*
G75*
G02*
X208411000Y-84492000I0J79500D01*
G01*
G37*
%TD*%
%TO.C,R8*%
G36*
G01*
X213730000Y-93735998D02*
X213730000Y-94986002D01*
G75*
G02*
X213480002Y-95236000I-249998J0D01*
G01*
X212854998Y-95236000D01*
G75*
G02*
X212605000Y-94986002I0J249998D01*
G01*
X212605000Y-93735998D01*
G75*
G02*
X212854998Y-93486000I249998J0D01*
G01*
X213480002Y-93486000D01*
G75*
G02*
X213730000Y-93735998I0J-249998D01*
G01*
G37*
G36*
G01*
X216655000Y-93735998D02*
X216655000Y-94986002D01*
G75*
G02*
X216405002Y-95236000I-249998J0D01*
G01*
X215779998Y-95236000D01*
G75*
G02*
X215530000Y-94986002I0J249998D01*
G01*
X215530000Y-93735998D01*
G75*
G02*
X215779998Y-93486000I249998J0D01*
G01*
X216405002Y-93486000D01*
G75*
G02*
X216655000Y-93735998I0J-249998D01*
G01*
G37*
%TD*%
%TO.C,C19*%
G36*
G01*
X211602200Y-77250100D02*
X211602200Y-76750100D01*
G75*
G02*
X211827200Y-76525100I225000J0D01*
G01*
X212277200Y-76525100D01*
G75*
G02*
X212502200Y-76750100I0J-225000D01*
G01*
X212502200Y-77250100D01*
G75*
G02*
X212277200Y-77475100I-225000J0D01*
G01*
X211827200Y-77475100D01*
G75*
G02*
X211602200Y-77250100I0J225000D01*
G01*
G37*
G36*
G01*
X210052200Y-77250100D02*
X210052200Y-76750100D01*
G75*
G02*
X210277200Y-76525100I225000J0D01*
G01*
X210727200Y-76525100D01*
G75*
G02*
X210952200Y-76750100I0J-225000D01*
G01*
X210952200Y-77250100D01*
G75*
G02*
X210727200Y-77475100I-225000J0D01*
G01*
X210277200Y-77475100D01*
G75*
G02*
X210052200Y-77250100I0J225000D01*
G01*
G37*
%TD*%
%TO.C,D15*%
G36*
G01*
X234755000Y-95541000D02*
X234755000Y-95340000D01*
G75*
G02*
X234834500Y-95260500I79500J0D01*
G01*
X234993500Y-95260500D01*
G75*
G02*
X235073000Y-95340000I0J-79500D01*
G01*
X235073000Y-95541000D01*
G75*
G02*
X234993500Y-95620500I-79500J0D01*
G01*
X234834500Y-95620500D01*
G75*
G02*
X234755000Y-95541000I0J79500D01*
G01*
G37*
G36*
G01*
X234065000Y-95541000D02*
X234065000Y-95340000D01*
G75*
G02*
X234144500Y-95260500I79500J0D01*
G01*
X234303500Y-95260500D01*
G75*
G02*
X234383000Y-95340000I0J-79500D01*
G01*
X234383000Y-95541000D01*
G75*
G02*
X234303500Y-95620500I-79500J0D01*
G01*
X234144500Y-95620500D01*
G75*
G02*
X234065000Y-95541000I0J79500D01*
G01*
G37*
%TD*%
%TO.C,D14*%
G36*
G01*
X234755000Y-94779000D02*
X234755000Y-94578000D01*
G75*
G02*
X234834500Y-94498500I79500J0D01*
G01*
X234993500Y-94498500D01*
G75*
G02*
X235073000Y-94578000I0J-79500D01*
G01*
X235073000Y-94779000D01*
G75*
G02*
X234993500Y-94858500I-79500J0D01*
G01*
X234834500Y-94858500D01*
G75*
G02*
X234755000Y-94779000I0J79500D01*
G01*
G37*
G36*
G01*
X234065000Y-94779000D02*
X234065000Y-94578000D01*
G75*
G02*
X234144500Y-94498500I79500J0D01*
G01*
X234303500Y-94498500D01*
G75*
G02*
X234383000Y-94578000I0J-79500D01*
G01*
X234383000Y-94779000D01*
G75*
G02*
X234303500Y-94858500I-79500J0D01*
G01*
X234144500Y-94858500D01*
G75*
G02*
X234065000Y-94779000I0J79500D01*
G01*
G37*
%TD*%
%TO.C,D13*%
G36*
G01*
X234755000Y-90969000D02*
X234755000Y-90768000D01*
G75*
G02*
X234834500Y-90688500I79500J0D01*
G01*
X234993500Y-90688500D01*
G75*
G02*
X235073000Y-90768000I0J-79500D01*
G01*
X235073000Y-90969000D01*
G75*
G02*
X234993500Y-91048500I-79500J0D01*
G01*
X234834500Y-91048500D01*
G75*
G02*
X234755000Y-90969000I0J79500D01*
G01*
G37*
G36*
G01*
X234065000Y-90969000D02*
X234065000Y-90768000D01*
G75*
G02*
X234144500Y-90688500I79500J0D01*
G01*
X234303500Y-90688500D01*
G75*
G02*
X234383000Y-90768000I0J-79500D01*
G01*
X234383000Y-90969000D01*
G75*
G02*
X234303500Y-91048500I-79500J0D01*
G01*
X234144500Y-91048500D01*
G75*
G02*
X234065000Y-90969000I0J79500D01*
G01*
G37*
%TD*%
%TO.C,D12*%
G36*
G01*
X234755000Y-94017000D02*
X234755000Y-93816000D01*
G75*
G02*
X234834500Y-93736500I79500J0D01*
G01*
X234993500Y-93736500D01*
G75*
G02*
X235073000Y-93816000I0J-79500D01*
G01*
X235073000Y-94017000D01*
G75*
G02*
X234993500Y-94096500I-79500J0D01*
G01*
X234834500Y-94096500D01*
G75*
G02*
X234755000Y-94017000I0J79500D01*
G01*
G37*
G36*
G01*
X234065000Y-94017000D02*
X234065000Y-93816000D01*
G75*
G02*
X234144500Y-93736500I79500J0D01*
G01*
X234303500Y-93736500D01*
G75*
G02*
X234383000Y-93816000I0J-79500D01*
G01*
X234383000Y-94017000D01*
G75*
G02*
X234303500Y-94096500I-79500J0D01*
G01*
X234144500Y-94096500D01*
G75*
G02*
X234065000Y-94017000I0J79500D01*
G01*
G37*
%TD*%
%TO.C,D11*%
G36*
G01*
X234755000Y-93255000D02*
X234755000Y-93054000D01*
G75*
G02*
X234834500Y-92974500I79500J0D01*
G01*
X234993500Y-92974500D01*
G75*
G02*
X235073000Y-93054000I0J-79500D01*
G01*
X235073000Y-93255000D01*
G75*
G02*
X234993500Y-93334500I-79500J0D01*
G01*
X234834500Y-93334500D01*
G75*
G02*
X234755000Y-93255000I0J79500D01*
G01*
G37*
G36*
G01*
X234065000Y-93255000D02*
X234065000Y-93054000D01*
G75*
G02*
X234144500Y-92974500I79500J0D01*
G01*
X234303500Y-92974500D01*
G75*
G02*
X234383000Y-93054000I0J-79500D01*
G01*
X234383000Y-93255000D01*
G75*
G02*
X234303500Y-93334500I-79500J0D01*
G01*
X234144500Y-93334500D01*
G75*
G02*
X234065000Y-93255000I0J79500D01*
G01*
G37*
%TD*%
%TO.C,D10*%
G36*
G01*
X234757500Y-92493000D02*
X234757500Y-92292000D01*
G75*
G02*
X234837000Y-92212500I79500J0D01*
G01*
X234996000Y-92212500D01*
G75*
G02*
X235075500Y-92292000I0J-79500D01*
G01*
X235075500Y-92493000D01*
G75*
G02*
X234996000Y-92572500I-79500J0D01*
G01*
X234837000Y-92572500D01*
G75*
G02*
X234757500Y-92493000I0J79500D01*
G01*
G37*
G36*
G01*
X234067500Y-92493000D02*
X234067500Y-92292000D01*
G75*
G02*
X234147000Y-92212500I79500J0D01*
G01*
X234306000Y-92212500D01*
G75*
G02*
X234385500Y-92292000I0J-79500D01*
G01*
X234385500Y-92493000D01*
G75*
G02*
X234306000Y-92572500I-79500J0D01*
G01*
X234147000Y-92572500D01*
G75*
G02*
X234067500Y-92493000I0J79500D01*
G01*
G37*
%TD*%
%TO.C,D9*%
G36*
G01*
X234755000Y-91731000D02*
X234755000Y-91530000D01*
G75*
G02*
X234834500Y-91450500I79500J0D01*
G01*
X234993500Y-91450500D01*
G75*
G02*
X235073000Y-91530000I0J-79500D01*
G01*
X235073000Y-91731000D01*
G75*
G02*
X234993500Y-91810500I-79500J0D01*
G01*
X234834500Y-91810500D01*
G75*
G02*
X234755000Y-91731000I0J79500D01*
G01*
G37*
G36*
G01*
X234065000Y-91731000D02*
X234065000Y-91530000D01*
G75*
G02*
X234144500Y-91450500I79500J0D01*
G01*
X234303500Y-91450500D01*
G75*
G02*
X234383000Y-91530000I0J-79500D01*
G01*
X234383000Y-91731000D01*
G75*
G02*
X234303500Y-91810500I-79500J0D01*
G01*
X234144500Y-91810500D01*
G75*
G02*
X234065000Y-91731000I0J79500D01*
G01*
G37*
%TD*%
D16*
%TO.C,SW4*%
X246355000Y-82936000D03*
X240055000Y-82936000D03*
X246355000Y-86736000D03*
X240055000Y-86736000D03*
%TD*%
%TO.C,R115*%
G36*
G01*
X204369500Y-71814000D02*
X204570500Y-71814000D01*
G75*
G02*
X204650000Y-71893500I0J-79500D01*
G01*
X204650000Y-72052500D01*
G75*
G02*
X204570500Y-72132000I-79500J0D01*
G01*
X204369500Y-72132000D01*
G75*
G02*
X204290000Y-72052500I0J79500D01*
G01*
X204290000Y-71893500D01*
G75*
G02*
X204369500Y-71814000I79500J0D01*
G01*
G37*
G36*
G01*
X204369500Y-71124000D02*
X204570500Y-71124000D01*
G75*
G02*
X204650000Y-71203500I0J-79500D01*
G01*
X204650000Y-71362500D01*
G75*
G02*
X204570500Y-71442000I-79500J0D01*
G01*
X204369500Y-71442000D01*
G75*
G02*
X204290000Y-71362500I0J79500D01*
G01*
X204290000Y-71203500D01*
G75*
G02*
X204369500Y-71124000I79500J0D01*
G01*
G37*
%TD*%
%TO.C,R114*%
G36*
G01*
X206863500Y-71903000D02*
X206863500Y-71353000D01*
G75*
G02*
X207063500Y-71153000I200000J0D01*
G01*
X207463500Y-71153000D01*
G75*
G02*
X207663500Y-71353000I0J-200000D01*
G01*
X207663500Y-71903000D01*
G75*
G02*
X207463500Y-72103000I-200000J0D01*
G01*
X207063500Y-72103000D01*
G75*
G02*
X206863500Y-71903000I0J200000D01*
G01*
G37*
G36*
G01*
X205213500Y-71903000D02*
X205213500Y-71353000D01*
G75*
G02*
X205413500Y-71153000I200000J0D01*
G01*
X205813500Y-71153000D01*
G75*
G02*
X206013500Y-71353000I0J-200000D01*
G01*
X206013500Y-71903000D01*
G75*
G02*
X205813500Y-72103000I-200000J0D01*
G01*
X205413500Y-72103000D01*
G75*
G02*
X205213500Y-71903000I0J200000D01*
G01*
G37*
%TD*%
%TO.C,R113*%
G36*
G01*
X204570500Y-72966000D02*
X204369500Y-72966000D01*
G75*
G02*
X204290000Y-72886500I0J79500D01*
G01*
X204290000Y-72727500D01*
G75*
G02*
X204369500Y-72648000I79500J0D01*
G01*
X204570500Y-72648000D01*
G75*
G02*
X204650000Y-72727500I0J-79500D01*
G01*
X204650000Y-72886500D01*
G75*
G02*
X204570500Y-72966000I-79500J0D01*
G01*
G37*
G36*
G01*
X204570500Y-73656000D02*
X204369500Y-73656000D01*
G75*
G02*
X204290000Y-73576500I0J79500D01*
G01*
X204290000Y-73417500D01*
G75*
G02*
X204369500Y-73338000I79500J0D01*
G01*
X204570500Y-73338000D01*
G75*
G02*
X204650000Y-73417500I0J-79500D01*
G01*
X204650000Y-73576500D01*
G75*
G02*
X204570500Y-73656000I-79500J0D01*
G01*
G37*
%TD*%
%TO.C,R112*%
G36*
G01*
X206863000Y-73427000D02*
X206863000Y-72877000D01*
G75*
G02*
X207063000Y-72677000I200000J0D01*
G01*
X207463000Y-72677000D01*
G75*
G02*
X207663000Y-72877000I0J-200000D01*
G01*
X207663000Y-73427000D01*
G75*
G02*
X207463000Y-73627000I-200000J0D01*
G01*
X207063000Y-73627000D01*
G75*
G02*
X206863000Y-73427000I0J200000D01*
G01*
G37*
G36*
G01*
X205213000Y-73427000D02*
X205213000Y-72877000D01*
G75*
G02*
X205413000Y-72677000I200000J0D01*
G01*
X205813000Y-72677000D01*
G75*
G02*
X206013000Y-72877000I0J-200000D01*
G01*
X206013000Y-73427000D01*
G75*
G02*
X205813000Y-73627000I-200000J0D01*
G01*
X205413000Y-73627000D01*
G75*
G02*
X205213000Y-73427000I0J200000D01*
G01*
G37*
%TD*%
%TO.C,R111*%
G36*
G01*
X237597500Y-84793500D02*
X237597500Y-84243500D01*
G75*
G02*
X237797500Y-84043500I200000J0D01*
G01*
X238197500Y-84043500D01*
G75*
G02*
X238397500Y-84243500I0J-200000D01*
G01*
X238397500Y-84793500D01*
G75*
G02*
X238197500Y-84993500I-200000J0D01*
G01*
X237797500Y-84993500D01*
G75*
G02*
X237597500Y-84793500I0J200000D01*
G01*
G37*
G36*
G01*
X235947500Y-84793500D02*
X235947500Y-84243500D01*
G75*
G02*
X236147500Y-84043500I200000J0D01*
G01*
X236547500Y-84043500D01*
G75*
G02*
X236747500Y-84243500I0J-200000D01*
G01*
X236747500Y-84793500D01*
G75*
G02*
X236547500Y-84993500I-200000J0D01*
G01*
X236147500Y-84993500D01*
G75*
G02*
X235947500Y-84793500I0J200000D01*
G01*
G37*
%TD*%
%TO.C,R110*%
G36*
G01*
X237597500Y-83206000D02*
X237597500Y-82656000D01*
G75*
G02*
X237797500Y-82456000I200000J0D01*
G01*
X238197500Y-82456000D01*
G75*
G02*
X238397500Y-82656000I0J-200000D01*
G01*
X238397500Y-83206000D01*
G75*
G02*
X238197500Y-83406000I-200000J0D01*
G01*
X237797500Y-83406000D01*
G75*
G02*
X237597500Y-83206000I0J200000D01*
G01*
G37*
G36*
G01*
X235947500Y-83206000D02*
X235947500Y-82656000D01*
G75*
G02*
X236147500Y-82456000I200000J0D01*
G01*
X236547500Y-82456000D01*
G75*
G02*
X236747500Y-82656000I0J-200000D01*
G01*
X236747500Y-83206000D01*
G75*
G02*
X236547500Y-83406000I-200000J0D01*
G01*
X236147500Y-83406000D01*
G75*
G02*
X235947500Y-83206000I0J200000D01*
G01*
G37*
%TD*%
%TO.C,R64*%
G36*
G01*
X222000500Y-74956500D02*
X222000500Y-75157500D01*
G75*
G02*
X221921000Y-75237000I-79500J0D01*
G01*
X221762000Y-75237000D01*
G75*
G02*
X221682500Y-75157500I0J79500D01*
G01*
X221682500Y-74956500D01*
G75*
G02*
X221762000Y-74877000I79500J0D01*
G01*
X221921000Y-74877000D01*
G75*
G02*
X222000500Y-74956500I0J-79500D01*
G01*
G37*
G36*
G01*
X222690500Y-74956500D02*
X222690500Y-75157500D01*
G75*
G02*
X222611000Y-75237000I-79500J0D01*
G01*
X222452000Y-75237000D01*
G75*
G02*
X222372500Y-75157500I0J79500D01*
G01*
X222372500Y-74956500D01*
G75*
G02*
X222452000Y-74877000I79500J0D01*
G01*
X222611000Y-74877000D01*
G75*
G02*
X222690500Y-74956500I0J-79500D01*
G01*
G37*
%TD*%
D17*
%TO.C,U1*%
X214630000Y-103481000D03*
D18*
X215880000Y-99081000D03*
X215380000Y-99081000D03*
X214880000Y-99081000D03*
X214380000Y-99081000D03*
X213880000Y-99081000D03*
X213380000Y-99081000D03*
D19*
X212730000Y-99731000D03*
X212730000Y-100231000D03*
X212730000Y-100731000D03*
X212730000Y-101231000D03*
X212730000Y-101731000D03*
X212730000Y-102231000D03*
X212730000Y-102731000D03*
X212730000Y-103231000D03*
X212730000Y-103731000D03*
X212730000Y-104231000D03*
D18*
X213380000Y-104881000D03*
X213880000Y-104881000D03*
X214380000Y-104881000D03*
X214880000Y-104881000D03*
X215380000Y-104881000D03*
X215880000Y-104881000D03*
D19*
X216530000Y-104231000D03*
X216530000Y-103731000D03*
X216530000Y-103231000D03*
X216530000Y-102731000D03*
X216530000Y-102231000D03*
X216530000Y-101731000D03*
X216530000Y-101231000D03*
X216530000Y-100731000D03*
X216530000Y-100231000D03*
X216530000Y-99731000D03*
%TD*%
%TO.C,R76*%
G36*
G01*
X230034000Y-60012000D02*
X229833000Y-60012000D01*
G75*
G02*
X229753500Y-59932500I0J79500D01*
G01*
X229753500Y-59773500D01*
G75*
G02*
X229833000Y-59694000I79500J0D01*
G01*
X230034000Y-59694000D01*
G75*
G02*
X230113500Y-59773500I0J-79500D01*
G01*
X230113500Y-59932500D01*
G75*
G02*
X230034000Y-60012000I-79500J0D01*
G01*
G37*
G36*
G01*
X230034000Y-60702000D02*
X229833000Y-60702000D01*
G75*
G02*
X229753500Y-60622500I0J79500D01*
G01*
X229753500Y-60463500D01*
G75*
G02*
X229833000Y-60384000I79500J0D01*
G01*
X230034000Y-60384000D01*
G75*
G02*
X230113500Y-60463500I0J-79500D01*
G01*
X230113500Y-60622500D01*
G75*
G02*
X230034000Y-60702000I-79500J0D01*
G01*
G37*
%TD*%
%TO.C,U11*%
G36*
G01*
X224370500Y-68490000D02*
X225695500Y-68490000D01*
G75*
G02*
X225770500Y-68565000I0J-75000D01*
G01*
X225770500Y-68715000D01*
G75*
G02*
X225695500Y-68790000I-75000J0D01*
G01*
X224370500Y-68790000D01*
G75*
G02*
X224295500Y-68715000I0J75000D01*
G01*
X224295500Y-68565000D01*
G75*
G02*
X224370500Y-68490000I75000J0D01*
G01*
G37*
G36*
G01*
X224370500Y-68990000D02*
X225695500Y-68990000D01*
G75*
G02*
X225770500Y-69065000I0J-75000D01*
G01*
X225770500Y-69215000D01*
G75*
G02*
X225695500Y-69290000I-75000J0D01*
G01*
X224370500Y-69290000D01*
G75*
G02*
X224295500Y-69215000I0J75000D01*
G01*
X224295500Y-69065000D01*
G75*
G02*
X224370500Y-68990000I75000J0D01*
G01*
G37*
G36*
G01*
X224370500Y-69490000D02*
X225695500Y-69490000D01*
G75*
G02*
X225770500Y-69565000I0J-75000D01*
G01*
X225770500Y-69715000D01*
G75*
G02*
X225695500Y-69790000I-75000J0D01*
G01*
X224370500Y-69790000D01*
G75*
G02*
X224295500Y-69715000I0J75000D01*
G01*
X224295500Y-69565000D01*
G75*
G02*
X224370500Y-69490000I75000J0D01*
G01*
G37*
G36*
G01*
X224370500Y-69990000D02*
X225695500Y-69990000D01*
G75*
G02*
X225770500Y-70065000I0J-75000D01*
G01*
X225770500Y-70215000D01*
G75*
G02*
X225695500Y-70290000I-75000J0D01*
G01*
X224370500Y-70290000D01*
G75*
G02*
X224295500Y-70215000I0J75000D01*
G01*
X224295500Y-70065000D01*
G75*
G02*
X224370500Y-69990000I75000J0D01*
G01*
G37*
G36*
G01*
X224370500Y-70490000D02*
X225695500Y-70490000D01*
G75*
G02*
X225770500Y-70565000I0J-75000D01*
G01*
X225770500Y-70715000D01*
G75*
G02*
X225695500Y-70790000I-75000J0D01*
G01*
X224370500Y-70790000D01*
G75*
G02*
X224295500Y-70715000I0J75000D01*
G01*
X224295500Y-70565000D01*
G75*
G02*
X224370500Y-70490000I75000J0D01*
G01*
G37*
G36*
G01*
X224370500Y-70990000D02*
X225695500Y-70990000D01*
G75*
G02*
X225770500Y-71065000I0J-75000D01*
G01*
X225770500Y-71215000D01*
G75*
G02*
X225695500Y-71290000I-75000J0D01*
G01*
X224370500Y-71290000D01*
G75*
G02*
X224295500Y-71215000I0J75000D01*
G01*
X224295500Y-71065000D01*
G75*
G02*
X224370500Y-70990000I75000J0D01*
G01*
G37*
G36*
G01*
X224370500Y-71490000D02*
X225695500Y-71490000D01*
G75*
G02*
X225770500Y-71565000I0J-75000D01*
G01*
X225770500Y-71715000D01*
G75*
G02*
X225695500Y-71790000I-75000J0D01*
G01*
X224370500Y-71790000D01*
G75*
G02*
X224295500Y-71715000I0J75000D01*
G01*
X224295500Y-71565000D01*
G75*
G02*
X224370500Y-71490000I75000J0D01*
G01*
G37*
G36*
G01*
X224370500Y-71990000D02*
X225695500Y-71990000D01*
G75*
G02*
X225770500Y-72065000I0J-75000D01*
G01*
X225770500Y-72215000D01*
G75*
G02*
X225695500Y-72290000I-75000J0D01*
G01*
X224370500Y-72290000D01*
G75*
G02*
X224295500Y-72215000I0J75000D01*
G01*
X224295500Y-72065000D01*
G75*
G02*
X224370500Y-71990000I75000J0D01*
G01*
G37*
G36*
G01*
X224370500Y-72490000D02*
X225695500Y-72490000D01*
G75*
G02*
X225770500Y-72565000I0J-75000D01*
G01*
X225770500Y-72715000D01*
G75*
G02*
X225695500Y-72790000I-75000J0D01*
G01*
X224370500Y-72790000D01*
G75*
G02*
X224295500Y-72715000I0J75000D01*
G01*
X224295500Y-72565000D01*
G75*
G02*
X224370500Y-72490000I75000J0D01*
G01*
G37*
G36*
G01*
X224370500Y-72990000D02*
X225695500Y-72990000D01*
G75*
G02*
X225770500Y-73065000I0J-75000D01*
G01*
X225770500Y-73215000D01*
G75*
G02*
X225695500Y-73290000I-75000J0D01*
G01*
X224370500Y-73290000D01*
G75*
G02*
X224295500Y-73215000I0J75000D01*
G01*
X224295500Y-73065000D01*
G75*
G02*
X224370500Y-72990000I75000J0D01*
G01*
G37*
G36*
G01*
X224370500Y-73490000D02*
X225695500Y-73490000D01*
G75*
G02*
X225770500Y-73565000I0J-75000D01*
G01*
X225770500Y-73715000D01*
G75*
G02*
X225695500Y-73790000I-75000J0D01*
G01*
X224370500Y-73790000D01*
G75*
G02*
X224295500Y-73715000I0J75000D01*
G01*
X224295500Y-73565000D01*
G75*
G02*
X224370500Y-73490000I75000J0D01*
G01*
G37*
G36*
G01*
X224370500Y-73990000D02*
X225695500Y-73990000D01*
G75*
G02*
X225770500Y-74065000I0J-75000D01*
G01*
X225770500Y-74215000D01*
G75*
G02*
X225695500Y-74290000I-75000J0D01*
G01*
X224370500Y-74290000D01*
G75*
G02*
X224295500Y-74215000I0J75000D01*
G01*
X224295500Y-74065000D01*
G75*
G02*
X224370500Y-73990000I75000J0D01*
G01*
G37*
G36*
G01*
X224370500Y-74490000D02*
X225695500Y-74490000D01*
G75*
G02*
X225770500Y-74565000I0J-75000D01*
G01*
X225770500Y-74715000D01*
G75*
G02*
X225695500Y-74790000I-75000J0D01*
G01*
X224370500Y-74790000D01*
G75*
G02*
X224295500Y-74715000I0J75000D01*
G01*
X224295500Y-74565000D01*
G75*
G02*
X224370500Y-74490000I75000J0D01*
G01*
G37*
G36*
G01*
X224370500Y-74990000D02*
X225695500Y-74990000D01*
G75*
G02*
X225770500Y-75065000I0J-75000D01*
G01*
X225770500Y-75215000D01*
G75*
G02*
X225695500Y-75290000I-75000J0D01*
G01*
X224370500Y-75290000D01*
G75*
G02*
X224295500Y-75215000I0J75000D01*
G01*
X224295500Y-75065000D01*
G75*
G02*
X224370500Y-74990000I75000J0D01*
G01*
G37*
G36*
G01*
X224370500Y-75490000D02*
X225695500Y-75490000D01*
G75*
G02*
X225770500Y-75565000I0J-75000D01*
G01*
X225770500Y-75715000D01*
G75*
G02*
X225695500Y-75790000I-75000J0D01*
G01*
X224370500Y-75790000D01*
G75*
G02*
X224295500Y-75715000I0J75000D01*
G01*
X224295500Y-75565000D01*
G75*
G02*
X224370500Y-75490000I75000J0D01*
G01*
G37*
G36*
G01*
X224370500Y-75990000D02*
X225695500Y-75990000D01*
G75*
G02*
X225770500Y-76065000I0J-75000D01*
G01*
X225770500Y-76215000D01*
G75*
G02*
X225695500Y-76290000I-75000J0D01*
G01*
X224370500Y-76290000D01*
G75*
G02*
X224295500Y-76215000I0J75000D01*
G01*
X224295500Y-76065000D01*
G75*
G02*
X224370500Y-75990000I75000J0D01*
G01*
G37*
G36*
G01*
X226870500Y-77315000D02*
X227020500Y-77315000D01*
G75*
G02*
X227095500Y-77390000I0J-75000D01*
G01*
X227095500Y-78715000D01*
G75*
G02*
X227020500Y-78790000I-75000J0D01*
G01*
X226870500Y-78790000D01*
G75*
G02*
X226795500Y-78715000I0J75000D01*
G01*
X226795500Y-77390000D01*
G75*
G02*
X226870500Y-77315000I75000J0D01*
G01*
G37*
G36*
G01*
X227370500Y-77315000D02*
X227520500Y-77315000D01*
G75*
G02*
X227595500Y-77390000I0J-75000D01*
G01*
X227595500Y-78715000D01*
G75*
G02*
X227520500Y-78790000I-75000J0D01*
G01*
X227370500Y-78790000D01*
G75*
G02*
X227295500Y-78715000I0J75000D01*
G01*
X227295500Y-77390000D01*
G75*
G02*
X227370500Y-77315000I75000J0D01*
G01*
G37*
G36*
G01*
X227870500Y-77315000D02*
X228020500Y-77315000D01*
G75*
G02*
X228095500Y-77390000I0J-75000D01*
G01*
X228095500Y-78715000D01*
G75*
G02*
X228020500Y-78790000I-75000J0D01*
G01*
X227870500Y-78790000D01*
G75*
G02*
X227795500Y-78715000I0J75000D01*
G01*
X227795500Y-77390000D01*
G75*
G02*
X227870500Y-77315000I75000J0D01*
G01*
G37*
G36*
G01*
X228370500Y-77315000D02*
X228520500Y-77315000D01*
G75*
G02*
X228595500Y-77390000I0J-75000D01*
G01*
X228595500Y-78715000D01*
G75*
G02*
X228520500Y-78790000I-75000J0D01*
G01*
X228370500Y-78790000D01*
G75*
G02*
X228295500Y-78715000I0J75000D01*
G01*
X228295500Y-77390000D01*
G75*
G02*
X228370500Y-77315000I75000J0D01*
G01*
G37*
G36*
G01*
X228870500Y-77315000D02*
X229020500Y-77315000D01*
G75*
G02*
X229095500Y-77390000I0J-75000D01*
G01*
X229095500Y-78715000D01*
G75*
G02*
X229020500Y-78790000I-75000J0D01*
G01*
X228870500Y-78790000D01*
G75*
G02*
X228795500Y-78715000I0J75000D01*
G01*
X228795500Y-77390000D01*
G75*
G02*
X228870500Y-77315000I75000J0D01*
G01*
G37*
G36*
G01*
X229370500Y-77315000D02*
X229520500Y-77315000D01*
G75*
G02*
X229595500Y-77390000I0J-75000D01*
G01*
X229595500Y-78715000D01*
G75*
G02*
X229520500Y-78790000I-75000J0D01*
G01*
X229370500Y-78790000D01*
G75*
G02*
X229295500Y-78715000I0J75000D01*
G01*
X229295500Y-77390000D01*
G75*
G02*
X229370500Y-77315000I75000J0D01*
G01*
G37*
G36*
G01*
X229870500Y-77315000D02*
X230020500Y-77315000D01*
G75*
G02*
X230095500Y-77390000I0J-75000D01*
G01*
X230095500Y-78715000D01*
G75*
G02*
X230020500Y-78790000I-75000J0D01*
G01*
X229870500Y-78790000D01*
G75*
G02*
X229795500Y-78715000I0J75000D01*
G01*
X229795500Y-77390000D01*
G75*
G02*
X229870500Y-77315000I75000J0D01*
G01*
G37*
G36*
G01*
X230370500Y-77315000D02*
X230520500Y-77315000D01*
G75*
G02*
X230595500Y-77390000I0J-75000D01*
G01*
X230595500Y-78715000D01*
G75*
G02*
X230520500Y-78790000I-75000J0D01*
G01*
X230370500Y-78790000D01*
G75*
G02*
X230295500Y-78715000I0J75000D01*
G01*
X230295500Y-77390000D01*
G75*
G02*
X230370500Y-77315000I75000J0D01*
G01*
G37*
G36*
G01*
X230870500Y-77315000D02*
X231020500Y-77315000D01*
G75*
G02*
X231095500Y-77390000I0J-75000D01*
G01*
X231095500Y-78715000D01*
G75*
G02*
X231020500Y-78790000I-75000J0D01*
G01*
X230870500Y-78790000D01*
G75*
G02*
X230795500Y-78715000I0J75000D01*
G01*
X230795500Y-77390000D01*
G75*
G02*
X230870500Y-77315000I75000J0D01*
G01*
G37*
G36*
G01*
X231370500Y-77315000D02*
X231520500Y-77315000D01*
G75*
G02*
X231595500Y-77390000I0J-75000D01*
G01*
X231595500Y-78715000D01*
G75*
G02*
X231520500Y-78790000I-75000J0D01*
G01*
X231370500Y-78790000D01*
G75*
G02*
X231295500Y-78715000I0J75000D01*
G01*
X231295500Y-77390000D01*
G75*
G02*
X231370500Y-77315000I75000J0D01*
G01*
G37*
G36*
G01*
X231870500Y-77315000D02*
X232020500Y-77315000D01*
G75*
G02*
X232095500Y-77390000I0J-75000D01*
G01*
X232095500Y-78715000D01*
G75*
G02*
X232020500Y-78790000I-75000J0D01*
G01*
X231870500Y-78790000D01*
G75*
G02*
X231795500Y-78715000I0J75000D01*
G01*
X231795500Y-77390000D01*
G75*
G02*
X231870500Y-77315000I75000J0D01*
G01*
G37*
G36*
G01*
X232370500Y-77315000D02*
X232520500Y-77315000D01*
G75*
G02*
X232595500Y-77390000I0J-75000D01*
G01*
X232595500Y-78715000D01*
G75*
G02*
X232520500Y-78790000I-75000J0D01*
G01*
X232370500Y-78790000D01*
G75*
G02*
X232295500Y-78715000I0J75000D01*
G01*
X232295500Y-77390000D01*
G75*
G02*
X232370500Y-77315000I75000J0D01*
G01*
G37*
G36*
G01*
X232870500Y-77315000D02*
X233020500Y-77315000D01*
G75*
G02*
X233095500Y-77390000I0J-75000D01*
G01*
X233095500Y-78715000D01*
G75*
G02*
X233020500Y-78790000I-75000J0D01*
G01*
X232870500Y-78790000D01*
G75*
G02*
X232795500Y-78715000I0J75000D01*
G01*
X232795500Y-77390000D01*
G75*
G02*
X232870500Y-77315000I75000J0D01*
G01*
G37*
G36*
G01*
X233370500Y-77315000D02*
X233520500Y-77315000D01*
G75*
G02*
X233595500Y-77390000I0J-75000D01*
G01*
X233595500Y-78715000D01*
G75*
G02*
X233520500Y-78790000I-75000J0D01*
G01*
X233370500Y-78790000D01*
G75*
G02*
X233295500Y-78715000I0J75000D01*
G01*
X233295500Y-77390000D01*
G75*
G02*
X233370500Y-77315000I75000J0D01*
G01*
G37*
G36*
G01*
X233870500Y-77315000D02*
X234020500Y-77315000D01*
G75*
G02*
X234095500Y-77390000I0J-75000D01*
G01*
X234095500Y-78715000D01*
G75*
G02*
X234020500Y-78790000I-75000J0D01*
G01*
X233870500Y-78790000D01*
G75*
G02*
X233795500Y-78715000I0J75000D01*
G01*
X233795500Y-77390000D01*
G75*
G02*
X233870500Y-77315000I75000J0D01*
G01*
G37*
G36*
G01*
X234370500Y-77315000D02*
X234520500Y-77315000D01*
G75*
G02*
X234595500Y-77390000I0J-75000D01*
G01*
X234595500Y-78715000D01*
G75*
G02*
X234520500Y-78790000I-75000J0D01*
G01*
X234370500Y-78790000D01*
G75*
G02*
X234295500Y-78715000I0J75000D01*
G01*
X234295500Y-77390000D01*
G75*
G02*
X234370500Y-77315000I75000J0D01*
G01*
G37*
G36*
G01*
X235695500Y-75990000D02*
X237020500Y-75990000D01*
G75*
G02*
X237095500Y-76065000I0J-75000D01*
G01*
X237095500Y-76215000D01*
G75*
G02*
X237020500Y-76290000I-75000J0D01*
G01*
X235695500Y-76290000D01*
G75*
G02*
X235620500Y-76215000I0J75000D01*
G01*
X235620500Y-76065000D01*
G75*
G02*
X235695500Y-75990000I75000J0D01*
G01*
G37*
G36*
G01*
X235695500Y-75490000D02*
X237020500Y-75490000D01*
G75*
G02*
X237095500Y-75565000I0J-75000D01*
G01*
X237095500Y-75715000D01*
G75*
G02*
X237020500Y-75790000I-75000J0D01*
G01*
X235695500Y-75790000D01*
G75*
G02*
X235620500Y-75715000I0J75000D01*
G01*
X235620500Y-75565000D01*
G75*
G02*
X235695500Y-75490000I75000J0D01*
G01*
G37*
G36*
G01*
X235695500Y-74990000D02*
X237020500Y-74990000D01*
G75*
G02*
X237095500Y-75065000I0J-75000D01*
G01*
X237095500Y-75215000D01*
G75*
G02*
X237020500Y-75290000I-75000J0D01*
G01*
X235695500Y-75290000D01*
G75*
G02*
X235620500Y-75215000I0J75000D01*
G01*
X235620500Y-75065000D01*
G75*
G02*
X235695500Y-74990000I75000J0D01*
G01*
G37*
G36*
G01*
X235695500Y-74490000D02*
X237020500Y-74490000D01*
G75*
G02*
X237095500Y-74565000I0J-75000D01*
G01*
X237095500Y-74715000D01*
G75*
G02*
X237020500Y-74790000I-75000J0D01*
G01*
X235695500Y-74790000D01*
G75*
G02*
X235620500Y-74715000I0J75000D01*
G01*
X235620500Y-74565000D01*
G75*
G02*
X235695500Y-74490000I75000J0D01*
G01*
G37*
G36*
G01*
X235695500Y-73990000D02*
X237020500Y-73990000D01*
G75*
G02*
X237095500Y-74065000I0J-75000D01*
G01*
X237095500Y-74215000D01*
G75*
G02*
X237020500Y-74290000I-75000J0D01*
G01*
X235695500Y-74290000D01*
G75*
G02*
X235620500Y-74215000I0J75000D01*
G01*
X235620500Y-74065000D01*
G75*
G02*
X235695500Y-73990000I75000J0D01*
G01*
G37*
G36*
G01*
X235695500Y-73490000D02*
X237020500Y-73490000D01*
G75*
G02*
X237095500Y-73565000I0J-75000D01*
G01*
X237095500Y-73715000D01*
G75*
G02*
X237020500Y-73790000I-75000J0D01*
G01*
X235695500Y-73790000D01*
G75*
G02*
X235620500Y-73715000I0J75000D01*
G01*
X235620500Y-73565000D01*
G75*
G02*
X235695500Y-73490000I75000J0D01*
G01*
G37*
G36*
G01*
X235695500Y-72990000D02*
X237020500Y-72990000D01*
G75*
G02*
X237095500Y-73065000I0J-75000D01*
G01*
X237095500Y-73215000D01*
G75*
G02*
X237020500Y-73290000I-75000J0D01*
G01*
X235695500Y-73290000D01*
G75*
G02*
X235620500Y-73215000I0J75000D01*
G01*
X235620500Y-73065000D01*
G75*
G02*
X235695500Y-72990000I75000J0D01*
G01*
G37*
G36*
G01*
X235695500Y-72490000D02*
X237020500Y-72490000D01*
G75*
G02*
X237095500Y-72565000I0J-75000D01*
G01*
X237095500Y-72715000D01*
G75*
G02*
X237020500Y-72790000I-75000J0D01*
G01*
X235695500Y-72790000D01*
G75*
G02*
X235620500Y-72715000I0J75000D01*
G01*
X235620500Y-72565000D01*
G75*
G02*
X235695500Y-72490000I75000J0D01*
G01*
G37*
G36*
G01*
X235695500Y-71990000D02*
X237020500Y-71990000D01*
G75*
G02*
X237095500Y-72065000I0J-75000D01*
G01*
X237095500Y-72215000D01*
G75*
G02*
X237020500Y-72290000I-75000J0D01*
G01*
X235695500Y-72290000D01*
G75*
G02*
X235620500Y-72215000I0J75000D01*
G01*
X235620500Y-72065000D01*
G75*
G02*
X235695500Y-71990000I75000J0D01*
G01*
G37*
G36*
G01*
X235695500Y-71490000D02*
X237020500Y-71490000D01*
G75*
G02*
X237095500Y-71565000I0J-75000D01*
G01*
X237095500Y-71715000D01*
G75*
G02*
X237020500Y-71790000I-75000J0D01*
G01*
X235695500Y-71790000D01*
G75*
G02*
X235620500Y-71715000I0J75000D01*
G01*
X235620500Y-71565000D01*
G75*
G02*
X235695500Y-71490000I75000J0D01*
G01*
G37*
G36*
G01*
X235695500Y-70990000D02*
X237020500Y-70990000D01*
G75*
G02*
X237095500Y-71065000I0J-75000D01*
G01*
X237095500Y-71215000D01*
G75*
G02*
X237020500Y-71290000I-75000J0D01*
G01*
X235695500Y-71290000D01*
G75*
G02*
X235620500Y-71215000I0J75000D01*
G01*
X235620500Y-71065000D01*
G75*
G02*
X235695500Y-70990000I75000J0D01*
G01*
G37*
G36*
G01*
X235695500Y-70490000D02*
X237020500Y-70490000D01*
G75*
G02*
X237095500Y-70565000I0J-75000D01*
G01*
X237095500Y-70715000D01*
G75*
G02*
X237020500Y-70790000I-75000J0D01*
G01*
X235695500Y-70790000D01*
G75*
G02*
X235620500Y-70715000I0J75000D01*
G01*
X235620500Y-70565000D01*
G75*
G02*
X235695500Y-70490000I75000J0D01*
G01*
G37*
G36*
G01*
X235695500Y-69990000D02*
X237020500Y-69990000D01*
G75*
G02*
X237095500Y-70065000I0J-75000D01*
G01*
X237095500Y-70215000D01*
G75*
G02*
X237020500Y-70290000I-75000J0D01*
G01*
X235695500Y-70290000D01*
G75*
G02*
X235620500Y-70215000I0J75000D01*
G01*
X235620500Y-70065000D01*
G75*
G02*
X235695500Y-69990000I75000J0D01*
G01*
G37*
G36*
G01*
X235695500Y-69490000D02*
X237020500Y-69490000D01*
G75*
G02*
X237095500Y-69565000I0J-75000D01*
G01*
X237095500Y-69715000D01*
G75*
G02*
X237020500Y-69790000I-75000J0D01*
G01*
X235695500Y-69790000D01*
G75*
G02*
X235620500Y-69715000I0J75000D01*
G01*
X235620500Y-69565000D01*
G75*
G02*
X235695500Y-69490000I75000J0D01*
G01*
G37*
G36*
G01*
X235695500Y-68990000D02*
X237020500Y-68990000D01*
G75*
G02*
X237095500Y-69065000I0J-75000D01*
G01*
X237095500Y-69215000D01*
G75*
G02*
X237020500Y-69290000I-75000J0D01*
G01*
X235695500Y-69290000D01*
G75*
G02*
X235620500Y-69215000I0J75000D01*
G01*
X235620500Y-69065000D01*
G75*
G02*
X235695500Y-68990000I75000J0D01*
G01*
G37*
G36*
G01*
X235695500Y-68490000D02*
X237020500Y-68490000D01*
G75*
G02*
X237095500Y-68565000I0J-75000D01*
G01*
X237095500Y-68715000D01*
G75*
G02*
X237020500Y-68790000I-75000J0D01*
G01*
X235695500Y-68790000D01*
G75*
G02*
X235620500Y-68715000I0J75000D01*
G01*
X235620500Y-68565000D01*
G75*
G02*
X235695500Y-68490000I75000J0D01*
G01*
G37*
G36*
G01*
X234370500Y-65990000D02*
X234520500Y-65990000D01*
G75*
G02*
X234595500Y-66065000I0J-75000D01*
G01*
X234595500Y-67390000D01*
G75*
G02*
X234520500Y-67465000I-75000J0D01*
G01*
X234370500Y-67465000D01*
G75*
G02*
X234295500Y-67390000I0J75000D01*
G01*
X234295500Y-66065000D01*
G75*
G02*
X234370500Y-65990000I75000J0D01*
G01*
G37*
G36*
G01*
X233870500Y-65990000D02*
X234020500Y-65990000D01*
G75*
G02*
X234095500Y-66065000I0J-75000D01*
G01*
X234095500Y-67390000D01*
G75*
G02*
X234020500Y-67465000I-75000J0D01*
G01*
X233870500Y-67465000D01*
G75*
G02*
X233795500Y-67390000I0J75000D01*
G01*
X233795500Y-66065000D01*
G75*
G02*
X233870500Y-65990000I75000J0D01*
G01*
G37*
G36*
G01*
X233370500Y-65990000D02*
X233520500Y-65990000D01*
G75*
G02*
X233595500Y-66065000I0J-75000D01*
G01*
X233595500Y-67390000D01*
G75*
G02*
X233520500Y-67465000I-75000J0D01*
G01*
X233370500Y-67465000D01*
G75*
G02*
X233295500Y-67390000I0J75000D01*
G01*
X233295500Y-66065000D01*
G75*
G02*
X233370500Y-65990000I75000J0D01*
G01*
G37*
G36*
G01*
X232870500Y-65990000D02*
X233020500Y-65990000D01*
G75*
G02*
X233095500Y-66065000I0J-75000D01*
G01*
X233095500Y-67390000D01*
G75*
G02*
X233020500Y-67465000I-75000J0D01*
G01*
X232870500Y-67465000D01*
G75*
G02*
X232795500Y-67390000I0J75000D01*
G01*
X232795500Y-66065000D01*
G75*
G02*
X232870500Y-65990000I75000J0D01*
G01*
G37*
G36*
G01*
X232370500Y-65990000D02*
X232520500Y-65990000D01*
G75*
G02*
X232595500Y-66065000I0J-75000D01*
G01*
X232595500Y-67390000D01*
G75*
G02*
X232520500Y-67465000I-75000J0D01*
G01*
X232370500Y-67465000D01*
G75*
G02*
X232295500Y-67390000I0J75000D01*
G01*
X232295500Y-66065000D01*
G75*
G02*
X232370500Y-65990000I75000J0D01*
G01*
G37*
G36*
G01*
X231870500Y-65990000D02*
X232020500Y-65990000D01*
G75*
G02*
X232095500Y-66065000I0J-75000D01*
G01*
X232095500Y-67390000D01*
G75*
G02*
X232020500Y-67465000I-75000J0D01*
G01*
X231870500Y-67465000D01*
G75*
G02*
X231795500Y-67390000I0J75000D01*
G01*
X231795500Y-66065000D01*
G75*
G02*
X231870500Y-65990000I75000J0D01*
G01*
G37*
G36*
G01*
X231370500Y-65990000D02*
X231520500Y-65990000D01*
G75*
G02*
X231595500Y-66065000I0J-75000D01*
G01*
X231595500Y-67390000D01*
G75*
G02*
X231520500Y-67465000I-75000J0D01*
G01*
X231370500Y-67465000D01*
G75*
G02*
X231295500Y-67390000I0J75000D01*
G01*
X231295500Y-66065000D01*
G75*
G02*
X231370500Y-65990000I75000J0D01*
G01*
G37*
G36*
G01*
X230870500Y-65990000D02*
X231020500Y-65990000D01*
G75*
G02*
X231095500Y-66065000I0J-75000D01*
G01*
X231095500Y-67390000D01*
G75*
G02*
X231020500Y-67465000I-75000J0D01*
G01*
X230870500Y-67465000D01*
G75*
G02*
X230795500Y-67390000I0J75000D01*
G01*
X230795500Y-66065000D01*
G75*
G02*
X230870500Y-65990000I75000J0D01*
G01*
G37*
G36*
G01*
X230370500Y-65990000D02*
X230520500Y-65990000D01*
G75*
G02*
X230595500Y-66065000I0J-75000D01*
G01*
X230595500Y-67390000D01*
G75*
G02*
X230520500Y-67465000I-75000J0D01*
G01*
X230370500Y-67465000D01*
G75*
G02*
X230295500Y-67390000I0J75000D01*
G01*
X230295500Y-66065000D01*
G75*
G02*
X230370500Y-65990000I75000J0D01*
G01*
G37*
G36*
G01*
X229870500Y-65990000D02*
X230020500Y-65990000D01*
G75*
G02*
X230095500Y-66065000I0J-75000D01*
G01*
X230095500Y-67390000D01*
G75*
G02*
X230020500Y-67465000I-75000J0D01*
G01*
X229870500Y-67465000D01*
G75*
G02*
X229795500Y-67390000I0J75000D01*
G01*
X229795500Y-66065000D01*
G75*
G02*
X229870500Y-65990000I75000J0D01*
G01*
G37*
G36*
G01*
X229370500Y-65990000D02*
X229520500Y-65990000D01*
G75*
G02*
X229595500Y-66065000I0J-75000D01*
G01*
X229595500Y-67390000D01*
G75*
G02*
X229520500Y-67465000I-75000J0D01*
G01*
X229370500Y-67465000D01*
G75*
G02*
X229295500Y-67390000I0J75000D01*
G01*
X229295500Y-66065000D01*
G75*
G02*
X229370500Y-65990000I75000J0D01*
G01*
G37*
G36*
G01*
X228870500Y-65990000D02*
X229020500Y-65990000D01*
G75*
G02*
X229095500Y-66065000I0J-75000D01*
G01*
X229095500Y-67390000D01*
G75*
G02*
X229020500Y-67465000I-75000J0D01*
G01*
X228870500Y-67465000D01*
G75*
G02*
X228795500Y-67390000I0J75000D01*
G01*
X228795500Y-66065000D01*
G75*
G02*
X228870500Y-65990000I75000J0D01*
G01*
G37*
G36*
G01*
X228370500Y-65990000D02*
X228520500Y-65990000D01*
G75*
G02*
X228595500Y-66065000I0J-75000D01*
G01*
X228595500Y-67390000D01*
G75*
G02*
X228520500Y-67465000I-75000J0D01*
G01*
X228370500Y-67465000D01*
G75*
G02*
X228295500Y-67390000I0J75000D01*
G01*
X228295500Y-66065000D01*
G75*
G02*
X228370500Y-65990000I75000J0D01*
G01*
G37*
G36*
G01*
X227870500Y-65990000D02*
X228020500Y-65990000D01*
G75*
G02*
X228095500Y-66065000I0J-75000D01*
G01*
X228095500Y-67390000D01*
G75*
G02*
X228020500Y-67465000I-75000J0D01*
G01*
X227870500Y-67465000D01*
G75*
G02*
X227795500Y-67390000I0J75000D01*
G01*
X227795500Y-66065000D01*
G75*
G02*
X227870500Y-65990000I75000J0D01*
G01*
G37*
G36*
G01*
X227370500Y-65990000D02*
X227520500Y-65990000D01*
G75*
G02*
X227595500Y-66065000I0J-75000D01*
G01*
X227595500Y-67390000D01*
G75*
G02*
X227520500Y-67465000I-75000J0D01*
G01*
X227370500Y-67465000D01*
G75*
G02*
X227295500Y-67390000I0J75000D01*
G01*
X227295500Y-66065000D01*
G75*
G02*
X227370500Y-65990000I75000J0D01*
G01*
G37*
G36*
G01*
X226870500Y-65990000D02*
X227020500Y-65990000D01*
G75*
G02*
X227095500Y-66065000I0J-75000D01*
G01*
X227095500Y-67390000D01*
G75*
G02*
X227020500Y-67465000I-75000J0D01*
G01*
X226870500Y-67465000D01*
G75*
G02*
X226795500Y-67390000I0J75000D01*
G01*
X226795500Y-66065000D01*
G75*
G02*
X226870500Y-65990000I75000J0D01*
G01*
G37*
%TD*%
%TO.C,R67*%
G36*
G01*
X236892000Y-60012000D02*
X236691000Y-60012000D01*
G75*
G02*
X236611500Y-59932500I0J79500D01*
G01*
X236611500Y-59773500D01*
G75*
G02*
X236691000Y-59694000I79500J0D01*
G01*
X236892000Y-59694000D01*
G75*
G02*
X236971500Y-59773500I0J-79500D01*
G01*
X236971500Y-59932500D01*
G75*
G02*
X236892000Y-60012000I-79500J0D01*
G01*
G37*
G36*
G01*
X236892000Y-60702000D02*
X236691000Y-60702000D01*
G75*
G02*
X236611500Y-60622500I0J79500D01*
G01*
X236611500Y-60463500D01*
G75*
G02*
X236691000Y-60384000I79500J0D01*
G01*
X236892000Y-60384000D01*
G75*
G02*
X236971500Y-60463500I0J-79500D01*
G01*
X236971500Y-60622500D01*
G75*
G02*
X236892000Y-60702000I-79500J0D01*
G01*
G37*
%TD*%
%TO.C,C57*%
G36*
G01*
X237908000Y-70299000D02*
X237707000Y-70299000D01*
G75*
G02*
X237627500Y-70219500I0J79500D01*
G01*
X237627500Y-70060500D01*
G75*
G02*
X237707000Y-69981000I79500J0D01*
G01*
X237908000Y-69981000D01*
G75*
G02*
X237987500Y-70060500I0J-79500D01*
G01*
X237987500Y-70219500D01*
G75*
G02*
X237908000Y-70299000I-79500J0D01*
G01*
G37*
G36*
G01*
X237908000Y-70989000D02*
X237707000Y-70989000D01*
G75*
G02*
X237627500Y-70909500I0J79500D01*
G01*
X237627500Y-70750500D01*
G75*
G02*
X237707000Y-70671000I79500J0D01*
G01*
X237908000Y-70671000D01*
G75*
G02*
X237987500Y-70750500I0J-79500D01*
G01*
X237987500Y-70909500D01*
G75*
G02*
X237908000Y-70989000I-79500J0D01*
G01*
G37*
%TD*%
%TO.C,C55*%
G36*
G01*
X237908000Y-68775000D02*
X237707000Y-68775000D01*
G75*
G02*
X237627500Y-68695500I0J79500D01*
G01*
X237627500Y-68536500D01*
G75*
G02*
X237707000Y-68457000I79500J0D01*
G01*
X237908000Y-68457000D01*
G75*
G02*
X237987500Y-68536500I0J-79500D01*
G01*
X237987500Y-68695500D01*
G75*
G02*
X237908000Y-68775000I-79500J0D01*
G01*
G37*
G36*
G01*
X237908000Y-69465000D02*
X237707000Y-69465000D01*
G75*
G02*
X237627500Y-69385500I0J79500D01*
G01*
X237627500Y-69226500D01*
G75*
G02*
X237707000Y-69147000I79500J0D01*
G01*
X237908000Y-69147000D01*
G75*
G02*
X237987500Y-69226500I0J-79500D01*
G01*
X237987500Y-69385500D01*
G75*
G02*
X237908000Y-69465000I-79500J0D01*
G01*
G37*
%TD*%
%TO.C,R84*%
G36*
G01*
X218967500Y-70210000D02*
X218967500Y-70760000D01*
G75*
G02*
X218767500Y-70960000I-200000J0D01*
G01*
X218367500Y-70960000D01*
G75*
G02*
X218167500Y-70760000I0J200000D01*
G01*
X218167500Y-70210000D01*
G75*
G02*
X218367500Y-70010000I200000J0D01*
G01*
X218767500Y-70010000D01*
G75*
G02*
X218967500Y-70210000I0J-200000D01*
G01*
G37*
G36*
G01*
X220617500Y-70210000D02*
X220617500Y-70760000D01*
G75*
G02*
X220417500Y-70960000I-200000J0D01*
G01*
X220017500Y-70960000D01*
G75*
G02*
X219817500Y-70760000I0J200000D01*
G01*
X219817500Y-70210000D01*
G75*
G02*
X220017500Y-70010000I200000J0D01*
G01*
X220417500Y-70010000D01*
G75*
G02*
X220617500Y-70210000I0J-200000D01*
G01*
G37*
%TD*%
%TO.C,C54*%
G36*
G01*
X223229000Y-74227000D02*
X223430000Y-74227000D01*
G75*
G02*
X223509500Y-74306500I0J-79500D01*
G01*
X223509500Y-74465500D01*
G75*
G02*
X223430000Y-74545000I-79500J0D01*
G01*
X223229000Y-74545000D01*
G75*
G02*
X223149500Y-74465500I0J79500D01*
G01*
X223149500Y-74306500D01*
G75*
G02*
X223229000Y-74227000I79500J0D01*
G01*
G37*
G36*
G01*
X223229000Y-73537000D02*
X223430000Y-73537000D01*
G75*
G02*
X223509500Y-73616500I0J-79500D01*
G01*
X223509500Y-73775500D01*
G75*
G02*
X223430000Y-73855000I-79500J0D01*
G01*
X223229000Y-73855000D01*
G75*
G02*
X223149500Y-73775500I0J79500D01*
G01*
X223149500Y-73616500D01*
G75*
G02*
X223229000Y-73537000I79500J0D01*
G01*
G37*
%TD*%
%TO.C,R85*%
G36*
G01*
X221126500Y-68686000D02*
X221126500Y-69236000D01*
G75*
G02*
X220926500Y-69436000I-200000J0D01*
G01*
X220526500Y-69436000D01*
G75*
G02*
X220326500Y-69236000I0J200000D01*
G01*
X220326500Y-68686000D01*
G75*
G02*
X220526500Y-68486000I200000J0D01*
G01*
X220926500Y-68486000D01*
G75*
G02*
X221126500Y-68686000I0J-200000D01*
G01*
G37*
G36*
G01*
X222776500Y-68686000D02*
X222776500Y-69236000D01*
G75*
G02*
X222576500Y-69436000I-200000J0D01*
G01*
X222176500Y-69436000D01*
G75*
G02*
X221976500Y-69236000I0J200000D01*
G01*
X221976500Y-68686000D01*
G75*
G02*
X222176500Y-68486000I200000J0D01*
G01*
X222576500Y-68486000D01*
G75*
G02*
X222776500Y-68686000I0J-200000D01*
G01*
G37*
%TD*%
%TO.C,R83*%
G36*
G01*
X219817500Y-72284000D02*
X219817500Y-71734000D01*
G75*
G02*
X220017500Y-71534000I200000J0D01*
G01*
X220417500Y-71534000D01*
G75*
G02*
X220617500Y-71734000I0J-200000D01*
G01*
X220617500Y-72284000D01*
G75*
G02*
X220417500Y-72484000I-200000J0D01*
G01*
X220017500Y-72484000D01*
G75*
G02*
X219817500Y-72284000I0J200000D01*
G01*
G37*
G36*
G01*
X218167500Y-72284000D02*
X218167500Y-71734000D01*
G75*
G02*
X218367500Y-71534000I200000J0D01*
G01*
X218767500Y-71534000D01*
G75*
G02*
X218967500Y-71734000I0J-200000D01*
G01*
X218967500Y-72284000D01*
G75*
G02*
X218767500Y-72484000I-200000J0D01*
G01*
X218367500Y-72484000D01*
G75*
G02*
X218167500Y-72284000I0J200000D01*
G01*
G37*
%TD*%
%TO.C,R52*%
G36*
G01*
X218342800Y-47453100D02*
X218892800Y-47453100D01*
G75*
G02*
X219092800Y-47653100I0J-200000D01*
G01*
X219092800Y-48053100D01*
G75*
G02*
X218892800Y-48253100I-200000J0D01*
G01*
X218342800Y-48253100D01*
G75*
G02*
X218142800Y-48053100I0J200000D01*
G01*
X218142800Y-47653100D01*
G75*
G02*
X218342800Y-47453100I200000J0D01*
G01*
G37*
G36*
G01*
X218342800Y-45803100D02*
X218892800Y-45803100D01*
G75*
G02*
X219092800Y-46003100I0J-200000D01*
G01*
X219092800Y-46403100D01*
G75*
G02*
X218892800Y-46603100I-200000J0D01*
G01*
X218342800Y-46603100D01*
G75*
G02*
X218142800Y-46403100I0J200000D01*
G01*
X218142800Y-46003100D01*
G75*
G02*
X218342800Y-45803100I200000J0D01*
G01*
G37*
%TD*%
%TO.C,R51*%
G36*
G01*
X216958500Y-41103100D02*
X217508500Y-41103100D01*
G75*
G02*
X217708500Y-41303100I0J-200000D01*
G01*
X217708500Y-41703100D01*
G75*
G02*
X217508500Y-41903100I-200000J0D01*
G01*
X216958500Y-41903100D01*
G75*
G02*
X216758500Y-41703100I0J200000D01*
G01*
X216758500Y-41303100D01*
G75*
G02*
X216958500Y-41103100I200000J0D01*
G01*
G37*
G36*
G01*
X216958500Y-39453100D02*
X217508500Y-39453100D01*
G75*
G02*
X217708500Y-39653100I0J-200000D01*
G01*
X217708500Y-40053100D01*
G75*
G02*
X217508500Y-40253100I-200000J0D01*
G01*
X216958500Y-40253100D01*
G75*
G02*
X216758500Y-40053100I0J200000D01*
G01*
X216758500Y-39653100D01*
G75*
G02*
X216958500Y-39453100I200000J0D01*
G01*
G37*
%TD*%
%TO.C,R32*%
G36*
G01*
X206392100Y-79114200D02*
X206942100Y-79114200D01*
G75*
G02*
X207142100Y-79314200I0J-200000D01*
G01*
X207142100Y-79714200D01*
G75*
G02*
X206942100Y-79914200I-200000J0D01*
G01*
X206392100Y-79914200D01*
G75*
G02*
X206192100Y-79714200I0J200000D01*
G01*
X206192100Y-79314200D01*
G75*
G02*
X206392100Y-79114200I200000J0D01*
G01*
G37*
G36*
G01*
X206392100Y-77464200D02*
X206942100Y-77464200D01*
G75*
G02*
X207142100Y-77664200I0J-200000D01*
G01*
X207142100Y-78064200D01*
G75*
G02*
X206942100Y-78264200I-200000J0D01*
G01*
X206392100Y-78264200D01*
G75*
G02*
X206192100Y-78064200I0J200000D01*
G01*
X206192100Y-77664200D01*
G75*
G02*
X206392100Y-77464200I200000J0D01*
G01*
G37*
%TD*%
%TO.C,R31*%
G36*
G01*
X207928800Y-79114200D02*
X208478800Y-79114200D01*
G75*
G02*
X208678800Y-79314200I0J-200000D01*
G01*
X208678800Y-79714200D01*
G75*
G02*
X208478800Y-79914200I-200000J0D01*
G01*
X207928800Y-79914200D01*
G75*
G02*
X207728800Y-79714200I0J200000D01*
G01*
X207728800Y-79314200D01*
G75*
G02*
X207928800Y-79114200I200000J0D01*
G01*
G37*
G36*
G01*
X207928800Y-77464200D02*
X208478800Y-77464200D01*
G75*
G02*
X208678800Y-77664200I0J-200000D01*
G01*
X208678800Y-78064200D01*
G75*
G02*
X208478800Y-78264200I-200000J0D01*
G01*
X207928800Y-78264200D01*
G75*
G02*
X207728800Y-78064200I0J200000D01*
G01*
X207728800Y-77664200D01*
G75*
G02*
X207928800Y-77464200I200000J0D01*
G01*
G37*
%TD*%
%TO.C,R3*%
G36*
G01*
X216641000Y-107232000D02*
X217191000Y-107232000D01*
G75*
G02*
X217391000Y-107432000I0J-200000D01*
G01*
X217391000Y-107832000D01*
G75*
G02*
X217191000Y-108032000I-200000J0D01*
G01*
X216641000Y-108032000D01*
G75*
G02*
X216441000Y-107832000I0J200000D01*
G01*
X216441000Y-107432000D01*
G75*
G02*
X216641000Y-107232000I200000J0D01*
G01*
G37*
G36*
G01*
X216641000Y-105582000D02*
X217191000Y-105582000D01*
G75*
G02*
X217391000Y-105782000I0J-200000D01*
G01*
X217391000Y-106182000D01*
G75*
G02*
X217191000Y-106382000I-200000J0D01*
G01*
X216641000Y-106382000D01*
G75*
G02*
X216441000Y-106182000I0J200000D01*
G01*
X216441000Y-105782000D01*
G75*
G02*
X216641000Y-105582000I200000J0D01*
G01*
G37*
%TD*%
%TO.C,R2*%
G36*
G01*
X218165000Y-107232000D02*
X218715000Y-107232000D01*
G75*
G02*
X218915000Y-107432000I0J-200000D01*
G01*
X218915000Y-107832000D01*
G75*
G02*
X218715000Y-108032000I-200000J0D01*
G01*
X218165000Y-108032000D01*
G75*
G02*
X217965000Y-107832000I0J200000D01*
G01*
X217965000Y-107432000D01*
G75*
G02*
X218165000Y-107232000I200000J0D01*
G01*
G37*
G36*
G01*
X218165000Y-105582000D02*
X218715000Y-105582000D01*
G75*
G02*
X218915000Y-105782000I0J-200000D01*
G01*
X218915000Y-106182000D01*
G75*
G02*
X218715000Y-106382000I-200000J0D01*
G01*
X218165000Y-106382000D01*
G75*
G02*
X217965000Y-106182000I0J200000D01*
G01*
X217965000Y-105782000D01*
G75*
G02*
X218165000Y-105582000I200000J0D01*
G01*
G37*
%TD*%
%TO.C,R1*%
G36*
G01*
X216429000Y-96603000D02*
X215879000Y-96603000D01*
G75*
G02*
X215679000Y-96403000I0J200000D01*
G01*
X215679000Y-96003000D01*
G75*
G02*
X215879000Y-95803000I200000J0D01*
G01*
X216429000Y-95803000D01*
G75*
G02*
X216629000Y-96003000I0J-200000D01*
G01*
X216629000Y-96403000D01*
G75*
G02*
X216429000Y-96603000I-200000J0D01*
G01*
G37*
G36*
G01*
X216429000Y-98253000D02*
X215879000Y-98253000D01*
G75*
G02*
X215679000Y-98053000I0J200000D01*
G01*
X215679000Y-97653000D01*
G75*
G02*
X215879000Y-97453000I200000J0D01*
G01*
X216429000Y-97453000D01*
G75*
G02*
X216629000Y-97653000I0J-200000D01*
G01*
X216629000Y-98053000D01*
G75*
G02*
X216429000Y-98253000I-200000J0D01*
G01*
G37*
%TD*%
%TO.C,R63*%
G36*
G01*
X227160500Y-80601000D02*
X226610500Y-80601000D01*
G75*
G02*
X226410500Y-80401000I0J200000D01*
G01*
X226410500Y-80001000D01*
G75*
G02*
X226610500Y-79801000I200000J0D01*
G01*
X227160500Y-79801000D01*
G75*
G02*
X227360500Y-80001000I0J-200000D01*
G01*
X227360500Y-80401000D01*
G75*
G02*
X227160500Y-80601000I-200000J0D01*
G01*
G37*
G36*
G01*
X227160500Y-82251000D02*
X226610500Y-82251000D01*
G75*
G02*
X226410500Y-82051000I0J200000D01*
G01*
X226410500Y-81651000D01*
G75*
G02*
X226610500Y-81451000I200000J0D01*
G01*
X227160500Y-81451000D01*
G75*
G02*
X227360500Y-81651000I0J-200000D01*
G01*
X227360500Y-82051000D01*
G75*
G02*
X227160500Y-82251000I-200000J0D01*
G01*
G37*
%TD*%
%TO.C,R62*%
G36*
G01*
X228684500Y-80601000D02*
X228134500Y-80601000D01*
G75*
G02*
X227934500Y-80401000I0J200000D01*
G01*
X227934500Y-80001000D01*
G75*
G02*
X228134500Y-79801000I200000J0D01*
G01*
X228684500Y-79801000D01*
G75*
G02*
X228884500Y-80001000I0J-200000D01*
G01*
X228884500Y-80401000D01*
G75*
G02*
X228684500Y-80601000I-200000J0D01*
G01*
G37*
G36*
G01*
X228684500Y-82251000D02*
X228134500Y-82251000D01*
G75*
G02*
X227934500Y-82051000I0J200000D01*
G01*
X227934500Y-81651000D01*
G75*
G02*
X228134500Y-81451000I200000J0D01*
G01*
X228684500Y-81451000D01*
G75*
G02*
X228884500Y-81651000I0J-200000D01*
G01*
X228884500Y-82051000D01*
G75*
G02*
X228684500Y-82251000I-200000J0D01*
G01*
G37*
%TD*%
%TO.C,R61*%
G36*
G01*
X230208500Y-80601000D02*
X229658500Y-80601000D01*
G75*
G02*
X229458500Y-80401000I0J200000D01*
G01*
X229458500Y-80001000D01*
G75*
G02*
X229658500Y-79801000I200000J0D01*
G01*
X230208500Y-79801000D01*
G75*
G02*
X230408500Y-80001000I0J-200000D01*
G01*
X230408500Y-80401000D01*
G75*
G02*
X230208500Y-80601000I-200000J0D01*
G01*
G37*
G36*
G01*
X230208500Y-82251000D02*
X229658500Y-82251000D01*
G75*
G02*
X229458500Y-82051000I0J200000D01*
G01*
X229458500Y-81651000D01*
G75*
G02*
X229658500Y-81451000I200000J0D01*
G01*
X230208500Y-81451000D01*
G75*
G02*
X230408500Y-81651000I0J-200000D01*
G01*
X230408500Y-82051000D01*
G75*
G02*
X230208500Y-82251000I-200000J0D01*
G01*
G37*
%TD*%
%TO.C,R60*%
G36*
G01*
X231732500Y-80601000D02*
X231182500Y-80601000D01*
G75*
G02*
X230982500Y-80401000I0J200000D01*
G01*
X230982500Y-80001000D01*
G75*
G02*
X231182500Y-79801000I200000J0D01*
G01*
X231732500Y-79801000D01*
G75*
G02*
X231932500Y-80001000I0J-200000D01*
G01*
X231932500Y-80401000D01*
G75*
G02*
X231732500Y-80601000I-200000J0D01*
G01*
G37*
G36*
G01*
X231732500Y-82251000D02*
X231182500Y-82251000D01*
G75*
G02*
X230982500Y-82051000I0J200000D01*
G01*
X230982500Y-81651000D01*
G75*
G02*
X231182500Y-81451000I200000J0D01*
G01*
X231732500Y-81451000D01*
G75*
G02*
X231932500Y-81651000I0J-200000D01*
G01*
X231932500Y-82051000D01*
G75*
G02*
X231732500Y-82251000I-200000J0D01*
G01*
G37*
%TD*%
D20*
%TO.C,L1*%
X213690200Y-80742700D03*
X213690200Y-83112700D03*
%TD*%
%TO.C,R82*%
G36*
G01*
X225462000Y-60012000D02*
X225261000Y-60012000D01*
G75*
G02*
X225181500Y-59932500I0J79500D01*
G01*
X225181500Y-59773500D01*
G75*
G02*
X225261000Y-59694000I79500J0D01*
G01*
X225462000Y-59694000D01*
G75*
G02*
X225541500Y-59773500I0J-79500D01*
G01*
X225541500Y-59932500D01*
G75*
G02*
X225462000Y-60012000I-79500J0D01*
G01*
G37*
G36*
G01*
X225462000Y-60702000D02*
X225261000Y-60702000D01*
G75*
G02*
X225181500Y-60622500I0J79500D01*
G01*
X225181500Y-60463500D01*
G75*
G02*
X225261000Y-60384000I79500J0D01*
G01*
X225462000Y-60384000D01*
G75*
G02*
X225541500Y-60463500I0J-79500D01*
G01*
X225541500Y-60622500D01*
G75*
G02*
X225462000Y-60702000I-79500J0D01*
G01*
G37*
%TD*%
%TO.C,R81*%
G36*
G01*
X226224000Y-60012000D02*
X226023000Y-60012000D01*
G75*
G02*
X225943500Y-59932500I0J79500D01*
G01*
X225943500Y-59773500D01*
G75*
G02*
X226023000Y-59694000I79500J0D01*
G01*
X226224000Y-59694000D01*
G75*
G02*
X226303500Y-59773500I0J-79500D01*
G01*
X226303500Y-59932500D01*
G75*
G02*
X226224000Y-60012000I-79500J0D01*
G01*
G37*
G36*
G01*
X226224000Y-60702000D02*
X226023000Y-60702000D01*
G75*
G02*
X225943500Y-60622500I0J79500D01*
G01*
X225943500Y-60463500D01*
G75*
G02*
X226023000Y-60384000I79500J0D01*
G01*
X226224000Y-60384000D01*
G75*
G02*
X226303500Y-60463500I0J-79500D01*
G01*
X226303500Y-60622500D01*
G75*
G02*
X226224000Y-60702000I-79500J0D01*
G01*
G37*
%TD*%
%TO.C,R80*%
G36*
G01*
X226986000Y-60012000D02*
X226785000Y-60012000D01*
G75*
G02*
X226705500Y-59932500I0J79500D01*
G01*
X226705500Y-59773500D01*
G75*
G02*
X226785000Y-59694000I79500J0D01*
G01*
X226986000Y-59694000D01*
G75*
G02*
X227065500Y-59773500I0J-79500D01*
G01*
X227065500Y-59932500D01*
G75*
G02*
X226986000Y-60012000I-79500J0D01*
G01*
G37*
G36*
G01*
X226986000Y-60702000D02*
X226785000Y-60702000D01*
G75*
G02*
X226705500Y-60622500I0J79500D01*
G01*
X226705500Y-60463500D01*
G75*
G02*
X226785000Y-60384000I79500J0D01*
G01*
X226986000Y-60384000D01*
G75*
G02*
X227065500Y-60463500I0J-79500D01*
G01*
X227065500Y-60622500D01*
G75*
G02*
X226986000Y-60702000I-79500J0D01*
G01*
G37*
%TD*%
%TO.C,R79*%
G36*
G01*
X227748000Y-60012000D02*
X227547000Y-60012000D01*
G75*
G02*
X227467500Y-59932500I0J79500D01*
G01*
X227467500Y-59773500D01*
G75*
G02*
X227547000Y-59694000I79500J0D01*
G01*
X227748000Y-59694000D01*
G75*
G02*
X227827500Y-59773500I0J-79500D01*
G01*
X227827500Y-59932500D01*
G75*
G02*
X227748000Y-60012000I-79500J0D01*
G01*
G37*
G36*
G01*
X227748000Y-60702000D02*
X227547000Y-60702000D01*
G75*
G02*
X227467500Y-60622500I0J79500D01*
G01*
X227467500Y-60463500D01*
G75*
G02*
X227547000Y-60384000I79500J0D01*
G01*
X227748000Y-60384000D01*
G75*
G02*
X227827500Y-60463500I0J-79500D01*
G01*
X227827500Y-60622500D01*
G75*
G02*
X227748000Y-60702000I-79500J0D01*
G01*
G37*
%TD*%
%TO.C,R78*%
G36*
G01*
X228510000Y-60012000D02*
X228309000Y-60012000D01*
G75*
G02*
X228229500Y-59932500I0J79500D01*
G01*
X228229500Y-59773500D01*
G75*
G02*
X228309000Y-59694000I79500J0D01*
G01*
X228510000Y-59694000D01*
G75*
G02*
X228589500Y-59773500I0J-79500D01*
G01*
X228589500Y-59932500D01*
G75*
G02*
X228510000Y-60012000I-79500J0D01*
G01*
G37*
G36*
G01*
X228510000Y-60702000D02*
X228309000Y-60702000D01*
G75*
G02*
X228229500Y-60622500I0J79500D01*
G01*
X228229500Y-60463500D01*
G75*
G02*
X228309000Y-60384000I79500J0D01*
G01*
X228510000Y-60384000D01*
G75*
G02*
X228589500Y-60463500I0J-79500D01*
G01*
X228589500Y-60622500D01*
G75*
G02*
X228510000Y-60702000I-79500J0D01*
G01*
G37*
%TD*%
%TO.C,R77*%
G36*
G01*
X229272000Y-60012000D02*
X229071000Y-60012000D01*
G75*
G02*
X228991500Y-59932500I0J79500D01*
G01*
X228991500Y-59773500D01*
G75*
G02*
X229071000Y-59694000I79500J0D01*
G01*
X229272000Y-59694000D01*
G75*
G02*
X229351500Y-59773500I0J-79500D01*
G01*
X229351500Y-59932500D01*
G75*
G02*
X229272000Y-60012000I-79500J0D01*
G01*
G37*
G36*
G01*
X229272000Y-60702000D02*
X229071000Y-60702000D01*
G75*
G02*
X228991500Y-60622500I0J79500D01*
G01*
X228991500Y-60463500D01*
G75*
G02*
X229071000Y-60384000I79500J0D01*
G01*
X229272000Y-60384000D01*
G75*
G02*
X229351500Y-60463500I0J-79500D01*
G01*
X229351500Y-60622500D01*
G75*
G02*
X229272000Y-60702000I-79500J0D01*
G01*
G37*
%TD*%
%TO.C,R75*%
G36*
G01*
X230796000Y-60012000D02*
X230595000Y-60012000D01*
G75*
G02*
X230515500Y-59932500I0J79500D01*
G01*
X230515500Y-59773500D01*
G75*
G02*
X230595000Y-59694000I79500J0D01*
G01*
X230796000Y-59694000D01*
G75*
G02*
X230875500Y-59773500I0J-79500D01*
G01*
X230875500Y-59932500D01*
G75*
G02*
X230796000Y-60012000I-79500J0D01*
G01*
G37*
G36*
G01*
X230796000Y-60702000D02*
X230595000Y-60702000D01*
G75*
G02*
X230515500Y-60622500I0J79500D01*
G01*
X230515500Y-60463500D01*
G75*
G02*
X230595000Y-60384000I79500J0D01*
G01*
X230796000Y-60384000D01*
G75*
G02*
X230875500Y-60463500I0J-79500D01*
G01*
X230875500Y-60622500D01*
G75*
G02*
X230796000Y-60702000I-79500J0D01*
G01*
G37*
%TD*%
%TO.C,R74*%
G36*
G01*
X231558000Y-60012000D02*
X231357000Y-60012000D01*
G75*
G02*
X231277500Y-59932500I0J79500D01*
G01*
X231277500Y-59773500D01*
G75*
G02*
X231357000Y-59694000I79500J0D01*
G01*
X231558000Y-59694000D01*
G75*
G02*
X231637500Y-59773500I0J-79500D01*
G01*
X231637500Y-59932500D01*
G75*
G02*
X231558000Y-60012000I-79500J0D01*
G01*
G37*
G36*
G01*
X231558000Y-60702000D02*
X231357000Y-60702000D01*
G75*
G02*
X231277500Y-60622500I0J79500D01*
G01*
X231277500Y-60463500D01*
G75*
G02*
X231357000Y-60384000I79500J0D01*
G01*
X231558000Y-60384000D01*
G75*
G02*
X231637500Y-60463500I0J-79500D01*
G01*
X231637500Y-60622500D01*
G75*
G02*
X231558000Y-60702000I-79500J0D01*
G01*
G37*
%TD*%
%TO.C,R73*%
G36*
G01*
X232320000Y-60012000D02*
X232119000Y-60012000D01*
G75*
G02*
X232039500Y-59932500I0J79500D01*
G01*
X232039500Y-59773500D01*
G75*
G02*
X232119000Y-59694000I79500J0D01*
G01*
X232320000Y-59694000D01*
G75*
G02*
X232399500Y-59773500I0J-79500D01*
G01*
X232399500Y-59932500D01*
G75*
G02*
X232320000Y-60012000I-79500J0D01*
G01*
G37*
G36*
G01*
X232320000Y-60702000D02*
X232119000Y-60702000D01*
G75*
G02*
X232039500Y-60622500I0J79500D01*
G01*
X232039500Y-60463500D01*
G75*
G02*
X232119000Y-60384000I79500J0D01*
G01*
X232320000Y-60384000D01*
G75*
G02*
X232399500Y-60463500I0J-79500D01*
G01*
X232399500Y-60622500D01*
G75*
G02*
X232320000Y-60702000I-79500J0D01*
G01*
G37*
%TD*%
%TO.C,R72*%
G36*
G01*
X233082000Y-60012000D02*
X232881000Y-60012000D01*
G75*
G02*
X232801500Y-59932500I0J79500D01*
G01*
X232801500Y-59773500D01*
G75*
G02*
X232881000Y-59694000I79500J0D01*
G01*
X233082000Y-59694000D01*
G75*
G02*
X233161500Y-59773500I0J-79500D01*
G01*
X233161500Y-59932500D01*
G75*
G02*
X233082000Y-60012000I-79500J0D01*
G01*
G37*
G36*
G01*
X233082000Y-60702000D02*
X232881000Y-60702000D01*
G75*
G02*
X232801500Y-60622500I0J79500D01*
G01*
X232801500Y-60463500D01*
G75*
G02*
X232881000Y-60384000I79500J0D01*
G01*
X233082000Y-60384000D01*
G75*
G02*
X233161500Y-60463500I0J-79500D01*
G01*
X233161500Y-60622500D01*
G75*
G02*
X233082000Y-60702000I-79500J0D01*
G01*
G37*
%TD*%
%TO.C,R71*%
G36*
G01*
X233844000Y-60012000D02*
X233643000Y-60012000D01*
G75*
G02*
X233563500Y-59932500I0J79500D01*
G01*
X233563500Y-59773500D01*
G75*
G02*
X233643000Y-59694000I79500J0D01*
G01*
X233844000Y-59694000D01*
G75*
G02*
X233923500Y-59773500I0J-79500D01*
G01*
X233923500Y-59932500D01*
G75*
G02*
X233844000Y-60012000I-79500J0D01*
G01*
G37*
G36*
G01*
X233844000Y-60702000D02*
X233643000Y-60702000D01*
G75*
G02*
X233563500Y-60622500I0J79500D01*
G01*
X233563500Y-60463500D01*
G75*
G02*
X233643000Y-60384000I79500J0D01*
G01*
X233844000Y-60384000D01*
G75*
G02*
X233923500Y-60463500I0J-79500D01*
G01*
X233923500Y-60622500D01*
G75*
G02*
X233844000Y-60702000I-79500J0D01*
G01*
G37*
%TD*%
%TO.C,R70*%
G36*
G01*
X234606000Y-60012000D02*
X234405000Y-60012000D01*
G75*
G02*
X234325500Y-59932500I0J79500D01*
G01*
X234325500Y-59773500D01*
G75*
G02*
X234405000Y-59694000I79500J0D01*
G01*
X234606000Y-59694000D01*
G75*
G02*
X234685500Y-59773500I0J-79500D01*
G01*
X234685500Y-59932500D01*
G75*
G02*
X234606000Y-60012000I-79500J0D01*
G01*
G37*
G36*
G01*
X234606000Y-60702000D02*
X234405000Y-60702000D01*
G75*
G02*
X234325500Y-60622500I0J79500D01*
G01*
X234325500Y-60463500D01*
G75*
G02*
X234405000Y-60384000I79500J0D01*
G01*
X234606000Y-60384000D01*
G75*
G02*
X234685500Y-60463500I0J-79500D01*
G01*
X234685500Y-60622500D01*
G75*
G02*
X234606000Y-60702000I-79500J0D01*
G01*
G37*
%TD*%
%TO.C,R69*%
G36*
G01*
X235368000Y-60012000D02*
X235167000Y-60012000D01*
G75*
G02*
X235087500Y-59932500I0J79500D01*
G01*
X235087500Y-59773500D01*
G75*
G02*
X235167000Y-59694000I79500J0D01*
G01*
X235368000Y-59694000D01*
G75*
G02*
X235447500Y-59773500I0J-79500D01*
G01*
X235447500Y-59932500D01*
G75*
G02*
X235368000Y-60012000I-79500J0D01*
G01*
G37*
G36*
G01*
X235368000Y-60702000D02*
X235167000Y-60702000D01*
G75*
G02*
X235087500Y-60622500I0J79500D01*
G01*
X235087500Y-60463500D01*
G75*
G02*
X235167000Y-60384000I79500J0D01*
G01*
X235368000Y-60384000D01*
G75*
G02*
X235447500Y-60463500I0J-79500D01*
G01*
X235447500Y-60622500D01*
G75*
G02*
X235368000Y-60702000I-79500J0D01*
G01*
G37*
%TD*%
%TO.C,R68*%
G36*
G01*
X236130000Y-60012000D02*
X235929000Y-60012000D01*
G75*
G02*
X235849500Y-59932500I0J79500D01*
G01*
X235849500Y-59773500D01*
G75*
G02*
X235929000Y-59694000I79500J0D01*
G01*
X236130000Y-59694000D01*
G75*
G02*
X236209500Y-59773500I0J-79500D01*
G01*
X236209500Y-59932500D01*
G75*
G02*
X236130000Y-60012000I-79500J0D01*
G01*
G37*
G36*
G01*
X236130000Y-60702000D02*
X235929000Y-60702000D01*
G75*
G02*
X235849500Y-60622500I0J79500D01*
G01*
X235849500Y-60463500D01*
G75*
G02*
X235929000Y-60384000I79500J0D01*
G01*
X236130000Y-60384000D01*
G75*
G02*
X236209500Y-60463500I0J-79500D01*
G01*
X236209500Y-60622500D01*
G75*
G02*
X236130000Y-60702000I-79500J0D01*
G01*
G37*
%TD*%
%TO.C,R66*%
G36*
G01*
X224700000Y-60012000D02*
X224499000Y-60012000D01*
G75*
G02*
X224419500Y-59932500I0J79500D01*
G01*
X224419500Y-59773500D01*
G75*
G02*
X224499000Y-59694000I79500J0D01*
G01*
X224700000Y-59694000D01*
G75*
G02*
X224779500Y-59773500I0J-79500D01*
G01*
X224779500Y-59932500D01*
G75*
G02*
X224700000Y-60012000I-79500J0D01*
G01*
G37*
G36*
G01*
X224700000Y-60702000D02*
X224499000Y-60702000D01*
G75*
G02*
X224419500Y-60622500I0J79500D01*
G01*
X224419500Y-60463500D01*
G75*
G02*
X224499000Y-60384000I79500J0D01*
G01*
X224700000Y-60384000D01*
G75*
G02*
X224779500Y-60463500I0J-79500D01*
G01*
X224779500Y-60622500D01*
G75*
G02*
X224700000Y-60702000I-79500J0D01*
G01*
G37*
%TD*%
%TO.C,R65*%
G36*
G01*
X237654000Y-60012000D02*
X237453000Y-60012000D01*
G75*
G02*
X237373500Y-59932500I0J79500D01*
G01*
X237373500Y-59773500D01*
G75*
G02*
X237453000Y-59694000I79500J0D01*
G01*
X237654000Y-59694000D01*
G75*
G02*
X237733500Y-59773500I0J-79500D01*
G01*
X237733500Y-59932500D01*
G75*
G02*
X237654000Y-60012000I-79500J0D01*
G01*
G37*
G36*
G01*
X237654000Y-60702000D02*
X237453000Y-60702000D01*
G75*
G02*
X237373500Y-60622500I0J79500D01*
G01*
X237373500Y-60463500D01*
G75*
G02*
X237453000Y-60384000I79500J0D01*
G01*
X237654000Y-60384000D01*
G75*
G02*
X237733500Y-60463500I0J-79500D01*
G01*
X237733500Y-60622500D01*
G75*
G02*
X237654000Y-60702000I-79500J0D01*
G01*
G37*
%TD*%
%TO.C,R57*%
G36*
G01*
X213386700Y-66655100D02*
X213386700Y-67025100D01*
G75*
G02*
X213251700Y-67160100I-135000J0D01*
G01*
X212981700Y-67160100D01*
G75*
G02*
X212846700Y-67025100I0J135000D01*
G01*
X212846700Y-66655100D01*
G75*
G02*
X212981700Y-66520100I135000J0D01*
G01*
X213251700Y-66520100D01*
G75*
G02*
X213386700Y-66655100I0J-135000D01*
G01*
G37*
G36*
G01*
X214406700Y-66655100D02*
X214406700Y-67025100D01*
G75*
G02*
X214271700Y-67160100I-135000J0D01*
G01*
X214001700Y-67160100D01*
G75*
G02*
X213866700Y-67025100I0J135000D01*
G01*
X213866700Y-66655100D01*
G75*
G02*
X214001700Y-66520100I135000J0D01*
G01*
X214271700Y-66520100D01*
G75*
G02*
X214406700Y-66655100I0J-135000D01*
G01*
G37*
%TD*%
%TO.C,R29*%
G36*
G01*
X209113700Y-85228600D02*
X209113700Y-85027600D01*
G75*
G02*
X209193200Y-84948100I79500J0D01*
G01*
X209352200Y-84948100D01*
G75*
G02*
X209431700Y-85027600I0J-79500D01*
G01*
X209431700Y-85228600D01*
G75*
G02*
X209352200Y-85308100I-79500J0D01*
G01*
X209193200Y-85308100D01*
G75*
G02*
X209113700Y-85228600I0J79500D01*
G01*
G37*
G36*
G01*
X208423700Y-85228600D02*
X208423700Y-85027600D01*
G75*
G02*
X208503200Y-84948100I79500J0D01*
G01*
X208662200Y-84948100D01*
G75*
G02*
X208741700Y-85027600I0J-79500D01*
G01*
X208741700Y-85228600D01*
G75*
G02*
X208662200Y-85308100I-79500J0D01*
G01*
X208503200Y-85308100D01*
G75*
G02*
X208423700Y-85228600I0J79500D01*
G01*
G37*
%TD*%
%TO.C,D4*%
G36*
G01*
X211412200Y-67093450D02*
X211412200Y-66580950D01*
G75*
G02*
X211630950Y-66362200I218750J0D01*
G01*
X212068450Y-66362200D01*
G75*
G02*
X212287200Y-66580950I0J-218750D01*
G01*
X212287200Y-67093450D01*
G75*
G02*
X212068450Y-67312200I-218750J0D01*
G01*
X211630950Y-67312200D01*
G75*
G02*
X211412200Y-67093450I0J218750D01*
G01*
G37*
G36*
G01*
X209837200Y-67093450D02*
X209837200Y-66580950D01*
G75*
G02*
X210055950Y-66362200I218750J0D01*
G01*
X210493450Y-66362200D01*
G75*
G02*
X210712200Y-66580950I0J-218750D01*
G01*
X210712200Y-67093450D01*
G75*
G02*
X210493450Y-67312200I-218750J0D01*
G01*
X210055950Y-67312200D01*
G75*
G02*
X209837200Y-67093450I0J218750D01*
G01*
G37*
%TD*%
D21*
%TO.C,D1*%
X205010000Y-101536500D03*
X209010000Y-101536500D03*
%TD*%
%TO.C,C86*%
G36*
G01*
X238827500Y-71699000D02*
X239327500Y-71699000D01*
G75*
G02*
X239552500Y-71924000I0J-225000D01*
G01*
X239552500Y-72374000D01*
G75*
G02*
X239327500Y-72599000I-225000J0D01*
G01*
X238827500Y-72599000D01*
G75*
G02*
X238602500Y-72374000I0J225000D01*
G01*
X238602500Y-71924000D01*
G75*
G02*
X238827500Y-71699000I225000J0D01*
G01*
G37*
G36*
G01*
X238827500Y-70149000D02*
X239327500Y-70149000D01*
G75*
G02*
X239552500Y-70374000I0J-225000D01*
G01*
X239552500Y-70824000D01*
G75*
G02*
X239327500Y-71049000I-225000J0D01*
G01*
X238827500Y-71049000D01*
G75*
G02*
X238602500Y-70824000I0J225000D01*
G01*
X238602500Y-70374000D01*
G75*
G02*
X238827500Y-70149000I225000J0D01*
G01*
G37*
%TD*%
%TO.C,C85*%
G36*
G01*
X237707000Y-72322000D02*
X237908000Y-72322000D01*
G75*
G02*
X237987500Y-72401500I0J-79500D01*
G01*
X237987500Y-72560500D01*
G75*
G02*
X237908000Y-72640000I-79500J0D01*
G01*
X237707000Y-72640000D01*
G75*
G02*
X237627500Y-72560500I0J79500D01*
G01*
X237627500Y-72401500D01*
G75*
G02*
X237707000Y-72322000I79500J0D01*
G01*
G37*
G36*
G01*
X237707000Y-71632000D02*
X237908000Y-71632000D01*
G75*
G02*
X237987500Y-71711500I0J-79500D01*
G01*
X237987500Y-71870500D01*
G75*
G02*
X237908000Y-71950000I-79500J0D01*
G01*
X237707000Y-71950000D01*
G75*
G02*
X237627500Y-71870500I0J79500D01*
G01*
X237627500Y-71711500D01*
G75*
G02*
X237707000Y-71632000I79500J0D01*
G01*
G37*
%TD*%
%TO.C,C84*%
G36*
G01*
X223684000Y-68775000D02*
X223483000Y-68775000D01*
G75*
G02*
X223403500Y-68695500I0J79500D01*
G01*
X223403500Y-68536500D01*
G75*
G02*
X223483000Y-68457000I79500J0D01*
G01*
X223684000Y-68457000D01*
G75*
G02*
X223763500Y-68536500I0J-79500D01*
G01*
X223763500Y-68695500D01*
G75*
G02*
X223684000Y-68775000I-79500J0D01*
G01*
G37*
G36*
G01*
X223684000Y-69465000D02*
X223483000Y-69465000D01*
G75*
G02*
X223403500Y-69385500I0J79500D01*
G01*
X223403500Y-69226500D01*
G75*
G02*
X223483000Y-69147000I79500J0D01*
G01*
X223684000Y-69147000D01*
G75*
G02*
X223763500Y-69226500I0J-79500D01*
G01*
X223763500Y-69385500D01*
G75*
G02*
X223684000Y-69465000I-79500J0D01*
G01*
G37*
%TD*%
%TO.C,C83*%
G36*
G01*
X225081000Y-63822000D02*
X224880000Y-63822000D01*
G75*
G02*
X224800500Y-63742500I0J79500D01*
G01*
X224800500Y-63583500D01*
G75*
G02*
X224880000Y-63504000I79500J0D01*
G01*
X225081000Y-63504000D01*
G75*
G02*
X225160500Y-63583500I0J-79500D01*
G01*
X225160500Y-63742500D01*
G75*
G02*
X225081000Y-63822000I-79500J0D01*
G01*
G37*
G36*
G01*
X225081000Y-64512000D02*
X224880000Y-64512000D01*
G75*
G02*
X224800500Y-64432500I0J79500D01*
G01*
X224800500Y-64273500D01*
G75*
G02*
X224880000Y-64194000I79500J0D01*
G01*
X225081000Y-64194000D01*
G75*
G02*
X225160500Y-64273500I0J-79500D01*
G01*
X225160500Y-64432500D01*
G75*
G02*
X225081000Y-64512000I-79500J0D01*
G01*
G37*
%TD*%
%TO.C,C82*%
G36*
G01*
X226404000Y-64194000D02*
X226605000Y-64194000D01*
G75*
G02*
X226684500Y-64273500I0J-79500D01*
G01*
X226684500Y-64432500D01*
G75*
G02*
X226605000Y-64512000I-79500J0D01*
G01*
X226404000Y-64512000D01*
G75*
G02*
X226324500Y-64432500I0J79500D01*
G01*
X226324500Y-64273500D01*
G75*
G02*
X226404000Y-64194000I79500J0D01*
G01*
G37*
G36*
G01*
X226404000Y-63504000D02*
X226605000Y-63504000D01*
G75*
G02*
X226684500Y-63583500I0J-79500D01*
G01*
X226684500Y-63742500D01*
G75*
G02*
X226605000Y-63822000I-79500J0D01*
G01*
X226404000Y-63822000D01*
G75*
G02*
X226324500Y-63742500I0J79500D01*
G01*
X226324500Y-63583500D01*
G75*
G02*
X226404000Y-63504000I79500J0D01*
G01*
G37*
%TD*%
%TO.C,C81*%
G36*
G01*
X226404000Y-62670000D02*
X226605000Y-62670000D01*
G75*
G02*
X226684500Y-62749500I0J-79500D01*
G01*
X226684500Y-62908500D01*
G75*
G02*
X226605000Y-62988000I-79500J0D01*
G01*
X226404000Y-62988000D01*
G75*
G02*
X226324500Y-62908500I0J79500D01*
G01*
X226324500Y-62749500D01*
G75*
G02*
X226404000Y-62670000I79500J0D01*
G01*
G37*
G36*
G01*
X226404000Y-61980000D02*
X226605000Y-61980000D01*
G75*
G02*
X226684500Y-62059500I0J-79500D01*
G01*
X226684500Y-62218500D01*
G75*
G02*
X226605000Y-62298000I-79500J0D01*
G01*
X226404000Y-62298000D01*
G75*
G02*
X226324500Y-62218500I0J79500D01*
G01*
X226324500Y-62059500D01*
G75*
G02*
X226404000Y-61980000I79500J0D01*
G01*
G37*
%TD*%
%TO.C,C80*%
G36*
G01*
X228129000Y-62298000D02*
X227928000Y-62298000D01*
G75*
G02*
X227848500Y-62218500I0J79500D01*
G01*
X227848500Y-62059500D01*
G75*
G02*
X227928000Y-61980000I79500J0D01*
G01*
X228129000Y-61980000D01*
G75*
G02*
X228208500Y-62059500I0J-79500D01*
G01*
X228208500Y-62218500D01*
G75*
G02*
X228129000Y-62298000I-79500J0D01*
G01*
G37*
G36*
G01*
X228129000Y-62988000D02*
X227928000Y-62988000D01*
G75*
G02*
X227848500Y-62908500I0J79500D01*
G01*
X227848500Y-62749500D01*
G75*
G02*
X227928000Y-62670000I79500J0D01*
G01*
X228129000Y-62670000D01*
G75*
G02*
X228208500Y-62749500I0J-79500D01*
G01*
X228208500Y-62908500D01*
G75*
G02*
X228129000Y-62988000I-79500J0D01*
G01*
G37*
%TD*%
%TO.C,C79*%
G36*
G01*
X228129000Y-63822000D02*
X227928000Y-63822000D01*
G75*
G02*
X227848500Y-63742500I0J79500D01*
G01*
X227848500Y-63583500D01*
G75*
G02*
X227928000Y-63504000I79500J0D01*
G01*
X228129000Y-63504000D01*
G75*
G02*
X228208500Y-63583500I0J-79500D01*
G01*
X228208500Y-63742500D01*
G75*
G02*
X228129000Y-63822000I-79500J0D01*
G01*
G37*
G36*
G01*
X228129000Y-64512000D02*
X227928000Y-64512000D01*
G75*
G02*
X227848500Y-64432500I0J79500D01*
G01*
X227848500Y-64273500D01*
G75*
G02*
X227928000Y-64194000I79500J0D01*
G01*
X228129000Y-64194000D01*
G75*
G02*
X228208500Y-64273500I0J-79500D01*
G01*
X228208500Y-64432500D01*
G75*
G02*
X228129000Y-64512000I-79500J0D01*
G01*
G37*
%TD*%
%TO.C,C78*%
G36*
G01*
X229452000Y-64194000D02*
X229653000Y-64194000D01*
G75*
G02*
X229732500Y-64273500I0J-79500D01*
G01*
X229732500Y-64432500D01*
G75*
G02*
X229653000Y-64512000I-79500J0D01*
G01*
X229452000Y-64512000D01*
G75*
G02*
X229372500Y-64432500I0J79500D01*
G01*
X229372500Y-64273500D01*
G75*
G02*
X229452000Y-64194000I79500J0D01*
G01*
G37*
G36*
G01*
X229452000Y-63504000D02*
X229653000Y-63504000D01*
G75*
G02*
X229732500Y-63583500I0J-79500D01*
G01*
X229732500Y-63742500D01*
G75*
G02*
X229653000Y-63822000I-79500J0D01*
G01*
X229452000Y-63822000D01*
G75*
G02*
X229372500Y-63742500I0J79500D01*
G01*
X229372500Y-63583500D01*
G75*
G02*
X229452000Y-63504000I79500J0D01*
G01*
G37*
%TD*%
%TO.C,C77*%
G36*
G01*
X229452000Y-62670000D02*
X229653000Y-62670000D01*
G75*
G02*
X229732500Y-62749500I0J-79500D01*
G01*
X229732500Y-62908500D01*
G75*
G02*
X229653000Y-62988000I-79500J0D01*
G01*
X229452000Y-62988000D01*
G75*
G02*
X229372500Y-62908500I0J79500D01*
G01*
X229372500Y-62749500D01*
G75*
G02*
X229452000Y-62670000I79500J0D01*
G01*
G37*
G36*
G01*
X229452000Y-61980000D02*
X229653000Y-61980000D01*
G75*
G02*
X229732500Y-62059500I0J-79500D01*
G01*
X229732500Y-62218500D01*
G75*
G02*
X229653000Y-62298000I-79500J0D01*
G01*
X229452000Y-62298000D01*
G75*
G02*
X229372500Y-62218500I0J79500D01*
G01*
X229372500Y-62059500D01*
G75*
G02*
X229452000Y-61980000I79500J0D01*
G01*
G37*
%TD*%
%TO.C,C76*%
G36*
G01*
X231177000Y-62298000D02*
X230976000Y-62298000D01*
G75*
G02*
X230896500Y-62218500I0J79500D01*
G01*
X230896500Y-62059500D01*
G75*
G02*
X230976000Y-61980000I79500J0D01*
G01*
X231177000Y-61980000D01*
G75*
G02*
X231256500Y-62059500I0J-79500D01*
G01*
X231256500Y-62218500D01*
G75*
G02*
X231177000Y-62298000I-79500J0D01*
G01*
G37*
G36*
G01*
X231177000Y-62988000D02*
X230976000Y-62988000D01*
G75*
G02*
X230896500Y-62908500I0J79500D01*
G01*
X230896500Y-62749500D01*
G75*
G02*
X230976000Y-62670000I79500J0D01*
G01*
X231177000Y-62670000D01*
G75*
G02*
X231256500Y-62749500I0J-79500D01*
G01*
X231256500Y-62908500D01*
G75*
G02*
X231177000Y-62988000I-79500J0D01*
G01*
G37*
%TD*%
%TO.C,C75*%
G36*
G01*
X231177000Y-63822000D02*
X230976000Y-63822000D01*
G75*
G02*
X230896500Y-63742500I0J79500D01*
G01*
X230896500Y-63583500D01*
G75*
G02*
X230976000Y-63504000I79500J0D01*
G01*
X231177000Y-63504000D01*
G75*
G02*
X231256500Y-63583500I0J-79500D01*
G01*
X231256500Y-63742500D01*
G75*
G02*
X231177000Y-63822000I-79500J0D01*
G01*
G37*
G36*
G01*
X231177000Y-64512000D02*
X230976000Y-64512000D01*
G75*
G02*
X230896500Y-64432500I0J79500D01*
G01*
X230896500Y-64273500D01*
G75*
G02*
X230976000Y-64194000I79500J0D01*
G01*
X231177000Y-64194000D01*
G75*
G02*
X231256500Y-64273500I0J-79500D01*
G01*
X231256500Y-64432500D01*
G75*
G02*
X231177000Y-64512000I-79500J0D01*
G01*
G37*
%TD*%
%TO.C,C74*%
G36*
G01*
X232500000Y-64194000D02*
X232701000Y-64194000D01*
G75*
G02*
X232780500Y-64273500I0J-79500D01*
G01*
X232780500Y-64432500D01*
G75*
G02*
X232701000Y-64512000I-79500J0D01*
G01*
X232500000Y-64512000D01*
G75*
G02*
X232420500Y-64432500I0J79500D01*
G01*
X232420500Y-64273500D01*
G75*
G02*
X232500000Y-64194000I79500J0D01*
G01*
G37*
G36*
G01*
X232500000Y-63504000D02*
X232701000Y-63504000D01*
G75*
G02*
X232780500Y-63583500I0J-79500D01*
G01*
X232780500Y-63742500D01*
G75*
G02*
X232701000Y-63822000I-79500J0D01*
G01*
X232500000Y-63822000D01*
G75*
G02*
X232420500Y-63742500I0J79500D01*
G01*
X232420500Y-63583500D01*
G75*
G02*
X232500000Y-63504000I79500J0D01*
G01*
G37*
%TD*%
%TO.C,C73*%
G36*
G01*
X232500000Y-62670000D02*
X232701000Y-62670000D01*
G75*
G02*
X232780500Y-62749500I0J-79500D01*
G01*
X232780500Y-62908500D01*
G75*
G02*
X232701000Y-62988000I-79500J0D01*
G01*
X232500000Y-62988000D01*
G75*
G02*
X232420500Y-62908500I0J79500D01*
G01*
X232420500Y-62749500D01*
G75*
G02*
X232500000Y-62670000I79500J0D01*
G01*
G37*
G36*
G01*
X232500000Y-61980000D02*
X232701000Y-61980000D01*
G75*
G02*
X232780500Y-62059500I0J-79500D01*
G01*
X232780500Y-62218500D01*
G75*
G02*
X232701000Y-62298000I-79500J0D01*
G01*
X232500000Y-62298000D01*
G75*
G02*
X232420500Y-62218500I0J79500D01*
G01*
X232420500Y-62059500D01*
G75*
G02*
X232500000Y-61980000I79500J0D01*
G01*
G37*
%TD*%
%TO.C,C72*%
G36*
G01*
X234225000Y-62298000D02*
X234024000Y-62298000D01*
G75*
G02*
X233944500Y-62218500I0J79500D01*
G01*
X233944500Y-62059500D01*
G75*
G02*
X234024000Y-61980000I79500J0D01*
G01*
X234225000Y-61980000D01*
G75*
G02*
X234304500Y-62059500I0J-79500D01*
G01*
X234304500Y-62218500D01*
G75*
G02*
X234225000Y-62298000I-79500J0D01*
G01*
G37*
G36*
G01*
X234225000Y-62988000D02*
X234024000Y-62988000D01*
G75*
G02*
X233944500Y-62908500I0J79500D01*
G01*
X233944500Y-62749500D01*
G75*
G02*
X234024000Y-62670000I79500J0D01*
G01*
X234225000Y-62670000D01*
G75*
G02*
X234304500Y-62749500I0J-79500D01*
G01*
X234304500Y-62908500D01*
G75*
G02*
X234225000Y-62988000I-79500J0D01*
G01*
G37*
%TD*%
%TO.C,C71*%
G36*
G01*
X234225000Y-63822000D02*
X234024000Y-63822000D01*
G75*
G02*
X233944500Y-63742500I0J79500D01*
G01*
X233944500Y-63583500D01*
G75*
G02*
X234024000Y-63504000I79500J0D01*
G01*
X234225000Y-63504000D01*
G75*
G02*
X234304500Y-63583500I0J-79500D01*
G01*
X234304500Y-63742500D01*
G75*
G02*
X234225000Y-63822000I-79500J0D01*
G01*
G37*
G36*
G01*
X234225000Y-64512000D02*
X234024000Y-64512000D01*
G75*
G02*
X233944500Y-64432500I0J79500D01*
G01*
X233944500Y-64273500D01*
G75*
G02*
X234024000Y-64194000I79500J0D01*
G01*
X234225000Y-64194000D01*
G75*
G02*
X234304500Y-64273500I0J-79500D01*
G01*
X234304500Y-64432500D01*
G75*
G02*
X234225000Y-64512000I-79500J0D01*
G01*
G37*
%TD*%
%TO.C,C70*%
G36*
G01*
X235548000Y-64194000D02*
X235749000Y-64194000D01*
G75*
G02*
X235828500Y-64273500I0J-79500D01*
G01*
X235828500Y-64432500D01*
G75*
G02*
X235749000Y-64512000I-79500J0D01*
G01*
X235548000Y-64512000D01*
G75*
G02*
X235468500Y-64432500I0J79500D01*
G01*
X235468500Y-64273500D01*
G75*
G02*
X235548000Y-64194000I79500J0D01*
G01*
G37*
G36*
G01*
X235548000Y-63504000D02*
X235749000Y-63504000D01*
G75*
G02*
X235828500Y-63583500I0J-79500D01*
G01*
X235828500Y-63742500D01*
G75*
G02*
X235749000Y-63822000I-79500J0D01*
G01*
X235548000Y-63822000D01*
G75*
G02*
X235468500Y-63742500I0J79500D01*
G01*
X235468500Y-63583500D01*
G75*
G02*
X235548000Y-63504000I79500J0D01*
G01*
G37*
%TD*%
%TO.C,C69*%
G36*
G01*
X235548000Y-62670000D02*
X235749000Y-62670000D01*
G75*
G02*
X235828500Y-62749500I0J-79500D01*
G01*
X235828500Y-62908500D01*
G75*
G02*
X235749000Y-62988000I-79500J0D01*
G01*
X235548000Y-62988000D01*
G75*
G02*
X235468500Y-62908500I0J79500D01*
G01*
X235468500Y-62749500D01*
G75*
G02*
X235548000Y-62670000I79500J0D01*
G01*
G37*
G36*
G01*
X235548000Y-61980000D02*
X235749000Y-61980000D01*
G75*
G02*
X235828500Y-62059500I0J-79500D01*
G01*
X235828500Y-62218500D01*
G75*
G02*
X235749000Y-62298000I-79500J0D01*
G01*
X235548000Y-62298000D01*
G75*
G02*
X235468500Y-62218500I0J79500D01*
G01*
X235468500Y-62059500D01*
G75*
G02*
X235548000Y-61980000I79500J0D01*
G01*
G37*
%TD*%
%TO.C,C68*%
G36*
G01*
X237273000Y-62298000D02*
X237072000Y-62298000D01*
G75*
G02*
X236992500Y-62218500I0J79500D01*
G01*
X236992500Y-62059500D01*
G75*
G02*
X237072000Y-61980000I79500J0D01*
G01*
X237273000Y-61980000D01*
G75*
G02*
X237352500Y-62059500I0J-79500D01*
G01*
X237352500Y-62218500D01*
G75*
G02*
X237273000Y-62298000I-79500J0D01*
G01*
G37*
G36*
G01*
X237273000Y-62988000D02*
X237072000Y-62988000D01*
G75*
G02*
X236992500Y-62908500I0J79500D01*
G01*
X236992500Y-62749500D01*
G75*
G02*
X237072000Y-62670000I79500J0D01*
G01*
X237273000Y-62670000D01*
G75*
G02*
X237352500Y-62749500I0J-79500D01*
G01*
X237352500Y-62908500D01*
G75*
G02*
X237273000Y-62988000I-79500J0D01*
G01*
G37*
%TD*%
%TO.C,C67*%
G36*
G01*
X225081000Y-62298000D02*
X224880000Y-62298000D01*
G75*
G02*
X224800500Y-62218500I0J79500D01*
G01*
X224800500Y-62059500D01*
G75*
G02*
X224880000Y-61980000I79500J0D01*
G01*
X225081000Y-61980000D01*
G75*
G02*
X225160500Y-62059500I0J-79500D01*
G01*
X225160500Y-62218500D01*
G75*
G02*
X225081000Y-62298000I-79500J0D01*
G01*
G37*
G36*
G01*
X225081000Y-62988000D02*
X224880000Y-62988000D01*
G75*
G02*
X224800500Y-62908500I0J79500D01*
G01*
X224800500Y-62749500D01*
G75*
G02*
X224880000Y-62670000I79500J0D01*
G01*
X225081000Y-62670000D01*
G75*
G02*
X225160500Y-62749500I0J-79500D01*
G01*
X225160500Y-62908500D01*
G75*
G02*
X225081000Y-62988000I-79500J0D01*
G01*
G37*
%TD*%
%TO.C,C66*%
G36*
G01*
X237072000Y-64194000D02*
X237273000Y-64194000D01*
G75*
G02*
X237352500Y-64273500I0J-79500D01*
G01*
X237352500Y-64432500D01*
G75*
G02*
X237273000Y-64512000I-79500J0D01*
G01*
X237072000Y-64512000D01*
G75*
G02*
X236992500Y-64432500I0J79500D01*
G01*
X236992500Y-64273500D01*
G75*
G02*
X237072000Y-64194000I79500J0D01*
G01*
G37*
G36*
G01*
X237072000Y-63504000D02*
X237273000Y-63504000D01*
G75*
G02*
X237352500Y-63583500I0J-79500D01*
G01*
X237352500Y-63742500D01*
G75*
G02*
X237273000Y-63822000I-79500J0D01*
G01*
X237072000Y-63822000D01*
G75*
G02*
X236992500Y-63742500I0J79500D01*
G01*
X236992500Y-63583500D01*
G75*
G02*
X237072000Y-63504000I79500J0D01*
G01*
G37*
%TD*%
%TO.C,C64*%
G36*
G01*
X237908000Y-75379000D02*
X237707000Y-75379000D01*
G75*
G02*
X237627500Y-75299500I0J79500D01*
G01*
X237627500Y-75140500D01*
G75*
G02*
X237707000Y-75061000I79500J0D01*
G01*
X237908000Y-75061000D01*
G75*
G02*
X237987500Y-75140500I0J-79500D01*
G01*
X237987500Y-75299500D01*
G75*
G02*
X237908000Y-75379000I-79500J0D01*
G01*
G37*
G36*
G01*
X237908000Y-76069000D02*
X237707000Y-76069000D01*
G75*
G02*
X237627500Y-75989500I0J79500D01*
G01*
X237627500Y-75830500D01*
G75*
G02*
X237707000Y-75751000I79500J0D01*
G01*
X237908000Y-75751000D01*
G75*
G02*
X237987500Y-75830500I0J-79500D01*
G01*
X237987500Y-75989500D01*
G75*
G02*
X237908000Y-76069000I-79500J0D01*
G01*
G37*
%TD*%
%TO.C,C63*%
G36*
G01*
X222372500Y-73697000D02*
X222372500Y-73496000D01*
G75*
G02*
X222452000Y-73416500I79500J0D01*
G01*
X222611000Y-73416500D01*
G75*
G02*
X222690500Y-73496000I0J-79500D01*
G01*
X222690500Y-73697000D01*
G75*
G02*
X222611000Y-73776500I-79500J0D01*
G01*
X222452000Y-73776500D01*
G75*
G02*
X222372500Y-73697000I0J79500D01*
G01*
G37*
G36*
G01*
X221682500Y-73697000D02*
X221682500Y-73496000D01*
G75*
G02*
X221762000Y-73416500I79500J0D01*
G01*
X221921000Y-73416500D01*
G75*
G02*
X222000500Y-73496000I0J-79500D01*
G01*
X222000500Y-73697000D01*
G75*
G02*
X221921000Y-73776500I-79500J0D01*
G01*
X221762000Y-73776500D01*
G75*
G02*
X221682500Y-73697000I0J79500D01*
G01*
G37*
%TD*%
%TO.C,C62*%
G36*
G01*
X223684000Y-75506000D02*
X223483000Y-75506000D01*
G75*
G02*
X223403500Y-75426500I0J79500D01*
G01*
X223403500Y-75267500D01*
G75*
G02*
X223483000Y-75188000I79500J0D01*
G01*
X223684000Y-75188000D01*
G75*
G02*
X223763500Y-75267500I0J-79500D01*
G01*
X223763500Y-75426500D01*
G75*
G02*
X223684000Y-75506000I-79500J0D01*
G01*
G37*
G36*
G01*
X223684000Y-76196000D02*
X223483000Y-76196000D01*
G75*
G02*
X223403500Y-76116500I0J79500D01*
G01*
X223403500Y-75957500D01*
G75*
G02*
X223483000Y-75878000I79500J0D01*
G01*
X223684000Y-75878000D01*
G75*
G02*
X223763500Y-75957500I0J-79500D01*
G01*
X223763500Y-76116500D01*
G75*
G02*
X223684000Y-76196000I-79500J0D01*
G01*
G37*
%TD*%
%TO.C,C61*%
G36*
G01*
X222372500Y-72935000D02*
X222372500Y-72734000D01*
G75*
G02*
X222452000Y-72654500I79500J0D01*
G01*
X222611000Y-72654500D01*
G75*
G02*
X222690500Y-72734000I0J-79500D01*
G01*
X222690500Y-72935000D01*
G75*
G02*
X222611000Y-73014500I-79500J0D01*
G01*
X222452000Y-73014500D01*
G75*
G02*
X222372500Y-72935000I0J79500D01*
G01*
G37*
G36*
G01*
X221682500Y-72935000D02*
X221682500Y-72734000D01*
G75*
G02*
X221762000Y-72654500I79500J0D01*
G01*
X221921000Y-72654500D01*
G75*
G02*
X222000500Y-72734000I0J-79500D01*
G01*
X222000500Y-72935000D01*
G75*
G02*
X221921000Y-73014500I-79500J0D01*
G01*
X221762000Y-73014500D01*
G75*
G02*
X221682500Y-72935000I0J79500D01*
G01*
G37*
%TD*%
%TO.C,C60*%
G36*
G01*
X225302500Y-78385500D02*
X225302500Y-78586500D01*
G75*
G02*
X225223000Y-78666000I-79500J0D01*
G01*
X225064000Y-78666000D01*
G75*
G02*
X224984500Y-78586500I0J79500D01*
G01*
X224984500Y-78385500D01*
G75*
G02*
X225064000Y-78306000I79500J0D01*
G01*
X225223000Y-78306000D01*
G75*
G02*
X225302500Y-78385500I0J-79500D01*
G01*
G37*
G36*
G01*
X225992500Y-78385500D02*
X225992500Y-78586500D01*
G75*
G02*
X225913000Y-78666000I-79500J0D01*
G01*
X225754000Y-78666000D01*
G75*
G02*
X225674500Y-78586500I0J79500D01*
G01*
X225674500Y-78385500D01*
G75*
G02*
X225754000Y-78306000I79500J0D01*
G01*
X225913000Y-78306000D01*
G75*
G02*
X225992500Y-78385500I0J-79500D01*
G01*
G37*
%TD*%
%TO.C,C59*%
G36*
G01*
X238764500Y-73178500D02*
X238764500Y-73379500D01*
G75*
G02*
X238685000Y-73459000I-79500J0D01*
G01*
X238526000Y-73459000D01*
G75*
G02*
X238446500Y-73379500I0J79500D01*
G01*
X238446500Y-73178500D01*
G75*
G02*
X238526000Y-73099000I79500J0D01*
G01*
X238685000Y-73099000D01*
G75*
G02*
X238764500Y-73178500I0J-79500D01*
G01*
G37*
G36*
G01*
X239454500Y-73178500D02*
X239454500Y-73379500D01*
G75*
G02*
X239375000Y-73459000I-79500J0D01*
G01*
X239216000Y-73459000D01*
G75*
G02*
X239136500Y-73379500I0J79500D01*
G01*
X239136500Y-73178500D01*
G75*
G02*
X239216000Y-73099000I79500J0D01*
G01*
X239375000Y-73099000D01*
G75*
G02*
X239454500Y-73178500I0J-79500D01*
G01*
G37*
%TD*%
%TO.C,C56*%
G36*
G01*
X223483000Y-71814000D02*
X223684000Y-71814000D01*
G75*
G02*
X223763500Y-71893500I0J-79500D01*
G01*
X223763500Y-72052500D01*
G75*
G02*
X223684000Y-72132000I-79500J0D01*
G01*
X223483000Y-72132000D01*
G75*
G02*
X223403500Y-72052500I0J79500D01*
G01*
X223403500Y-71893500D01*
G75*
G02*
X223483000Y-71814000I79500J0D01*
G01*
G37*
G36*
G01*
X223483000Y-71124000D02*
X223684000Y-71124000D01*
G75*
G02*
X223763500Y-71203500I0J-79500D01*
G01*
X223763500Y-71362500D01*
G75*
G02*
X223684000Y-71442000I-79500J0D01*
G01*
X223483000Y-71442000D01*
G75*
G02*
X223403500Y-71362500I0J79500D01*
G01*
X223403500Y-71203500D01*
G75*
G02*
X223483000Y-71124000I79500J0D01*
G01*
G37*
%TD*%
%TO.C,C18*%
G36*
G01*
X211614900Y-78786800D02*
X211614900Y-78286800D01*
G75*
G02*
X211839900Y-78061800I225000J0D01*
G01*
X212289900Y-78061800D01*
G75*
G02*
X212514900Y-78286800I0J-225000D01*
G01*
X212514900Y-78786800D01*
G75*
G02*
X212289900Y-79011800I-225000J0D01*
G01*
X211839900Y-79011800D01*
G75*
G02*
X211614900Y-78786800I0J225000D01*
G01*
G37*
G36*
G01*
X210064900Y-78786800D02*
X210064900Y-78286800D01*
G75*
G02*
X210289900Y-78061800I225000J0D01*
G01*
X210739900Y-78061800D01*
G75*
G02*
X210964900Y-78286800I0J-225000D01*
G01*
X210964900Y-78786800D01*
G75*
G02*
X210739900Y-79011800I-225000J0D01*
G01*
X210289900Y-79011800D01*
G75*
G02*
X210064900Y-78786800I0J225000D01*
G01*
G37*
%TD*%
%TO.C,C17*%
G36*
G01*
X206379500Y-81636700D02*
X206379500Y-81837700D01*
G75*
G02*
X206300000Y-81917200I-79500J0D01*
G01*
X206141000Y-81917200D01*
G75*
G02*
X206061500Y-81837700I0J79500D01*
G01*
X206061500Y-81636700D01*
G75*
G02*
X206141000Y-81557200I79500J0D01*
G01*
X206300000Y-81557200D01*
G75*
G02*
X206379500Y-81636700I0J-79500D01*
G01*
G37*
G36*
G01*
X207069500Y-81636700D02*
X207069500Y-81837700D01*
G75*
G02*
X206990000Y-81917200I-79500J0D01*
G01*
X206831000Y-81917200D01*
G75*
G02*
X206751500Y-81837700I0J79500D01*
G01*
X206751500Y-81636700D01*
G75*
G02*
X206831000Y-81557200I79500J0D01*
G01*
X206990000Y-81557200D01*
G75*
G02*
X207069500Y-81636700I0J-79500D01*
G01*
G37*
%TD*%
%TO.C,C16*%
G36*
G01*
X211450500Y-84961900D02*
X211450500Y-84760900D01*
G75*
G02*
X211530000Y-84681400I79500J0D01*
G01*
X211689000Y-84681400D01*
G75*
G02*
X211768500Y-84760900I0J-79500D01*
G01*
X211768500Y-84961900D01*
G75*
G02*
X211689000Y-85041400I-79500J0D01*
G01*
X211530000Y-85041400D01*
G75*
G02*
X211450500Y-84961900I0J79500D01*
G01*
G37*
G36*
G01*
X210760500Y-84961900D02*
X210760500Y-84760900D01*
G75*
G02*
X210840000Y-84681400I79500J0D01*
G01*
X210999000Y-84681400D01*
G75*
G02*
X211078500Y-84760900I0J-79500D01*
G01*
X211078500Y-84961900D01*
G75*
G02*
X210999000Y-85041400I-79500J0D01*
G01*
X210840000Y-85041400D01*
G75*
G02*
X210760500Y-84961900I0J79500D01*
G01*
G37*
%TD*%
%TO.C,C15*%
G36*
G01*
X211589500Y-87841900D02*
X211589500Y-87341900D01*
G75*
G02*
X211814500Y-87116900I225000J0D01*
G01*
X212264500Y-87116900D01*
G75*
G02*
X212489500Y-87341900I0J-225000D01*
G01*
X212489500Y-87841900D01*
G75*
G02*
X212264500Y-88066900I-225000J0D01*
G01*
X211814500Y-88066900D01*
G75*
G02*
X211589500Y-87841900I0J225000D01*
G01*
G37*
G36*
G01*
X210039500Y-87841900D02*
X210039500Y-87341900D01*
G75*
G02*
X210264500Y-87116900I225000J0D01*
G01*
X210714500Y-87116900D01*
G75*
G02*
X210939500Y-87341900I0J-225000D01*
G01*
X210939500Y-87841900D01*
G75*
G02*
X210714500Y-88066900I-225000J0D01*
G01*
X210264500Y-88066900D01*
G75*
G02*
X210039500Y-87841900I0J225000D01*
G01*
G37*
%TD*%
%TO.C,C14*%
G36*
G01*
X211589500Y-86267100D02*
X211589500Y-85767100D01*
G75*
G02*
X211814500Y-85542100I225000J0D01*
G01*
X212264500Y-85542100D01*
G75*
G02*
X212489500Y-85767100I0J-225000D01*
G01*
X212489500Y-86267100D01*
G75*
G02*
X212264500Y-86492100I-225000J0D01*
G01*
X211814500Y-86492100D01*
G75*
G02*
X211589500Y-86267100I0J225000D01*
G01*
G37*
G36*
G01*
X210039500Y-86267100D02*
X210039500Y-85767100D01*
G75*
G02*
X210264500Y-85542100I225000J0D01*
G01*
X210714500Y-85542100D01*
G75*
G02*
X210939500Y-85767100I0J-225000D01*
G01*
X210939500Y-86267100D01*
G75*
G02*
X210714500Y-86492100I-225000J0D01*
G01*
X210264500Y-86492100D01*
G75*
G02*
X210039500Y-86267100I0J225000D01*
G01*
G37*
%TD*%
%TO.C,C6*%
G36*
G01*
X214847000Y-97214000D02*
X215048000Y-97214000D01*
G75*
G02*
X215127500Y-97293500I0J-79500D01*
G01*
X215127500Y-97452500D01*
G75*
G02*
X215048000Y-97532000I-79500J0D01*
G01*
X214847000Y-97532000D01*
G75*
G02*
X214767500Y-97452500I0J79500D01*
G01*
X214767500Y-97293500D01*
G75*
G02*
X214847000Y-97214000I79500J0D01*
G01*
G37*
G36*
G01*
X214847000Y-96524000D02*
X215048000Y-96524000D01*
G75*
G02*
X215127500Y-96603500I0J-79500D01*
G01*
X215127500Y-96762500D01*
G75*
G02*
X215048000Y-96842000I-79500J0D01*
G01*
X214847000Y-96842000D01*
G75*
G02*
X214767500Y-96762500I0J79500D01*
G01*
X214767500Y-96603500D01*
G75*
G02*
X214847000Y-96524000I79500J0D01*
G01*
G37*
%TD*%
%TO.C,C5*%
G36*
G01*
X214085000Y-97214000D02*
X214286000Y-97214000D01*
G75*
G02*
X214365500Y-97293500I0J-79500D01*
G01*
X214365500Y-97452500D01*
G75*
G02*
X214286000Y-97532000I-79500J0D01*
G01*
X214085000Y-97532000D01*
G75*
G02*
X214005500Y-97452500I0J79500D01*
G01*
X214005500Y-97293500D01*
G75*
G02*
X214085000Y-97214000I79500J0D01*
G01*
G37*
G36*
G01*
X214085000Y-96524000D02*
X214286000Y-96524000D01*
G75*
G02*
X214365500Y-96603500I0J-79500D01*
G01*
X214365500Y-96762500D01*
G75*
G02*
X214286000Y-96842000I-79500J0D01*
G01*
X214085000Y-96842000D01*
G75*
G02*
X214005500Y-96762500I0J79500D01*
G01*
X214005500Y-96603500D01*
G75*
G02*
X214085000Y-96524000I79500J0D01*
G01*
G37*
%TD*%
%TO.C,C4*%
G36*
G01*
X214816000Y-98271500D02*
X214816000Y-98070500D01*
G75*
G02*
X214895500Y-97991000I79500J0D01*
G01*
X215054500Y-97991000D01*
G75*
G02*
X215134000Y-98070500I0J-79500D01*
G01*
X215134000Y-98271500D01*
G75*
G02*
X215054500Y-98351000I-79500J0D01*
G01*
X214895500Y-98351000D01*
G75*
G02*
X214816000Y-98271500I0J79500D01*
G01*
G37*
G36*
G01*
X214126000Y-98271500D02*
X214126000Y-98070500D01*
G75*
G02*
X214205500Y-97991000I79500J0D01*
G01*
X214364500Y-97991000D01*
G75*
G02*
X214444000Y-98070500I0J-79500D01*
G01*
X214444000Y-98271500D01*
G75*
G02*
X214364500Y-98351000I-79500J0D01*
G01*
X214205500Y-98351000D01*
G75*
G02*
X214126000Y-98271500I0J79500D01*
G01*
G37*
%TD*%
%TO.C,C3*%
G36*
G01*
X211619000Y-104335000D02*
X211418000Y-104335000D01*
G75*
G02*
X211338500Y-104255500I0J79500D01*
G01*
X211338500Y-104096500D01*
G75*
G02*
X211418000Y-104017000I79500J0D01*
G01*
X211619000Y-104017000D01*
G75*
G02*
X211698500Y-104096500I0J-79500D01*
G01*
X211698500Y-104255500D01*
G75*
G02*
X211619000Y-104335000I-79500J0D01*
G01*
G37*
G36*
G01*
X211619000Y-105025000D02*
X211418000Y-105025000D01*
G75*
G02*
X211338500Y-104945500I0J79500D01*
G01*
X211338500Y-104786500D01*
G75*
G02*
X211418000Y-104707000I79500J0D01*
G01*
X211619000Y-104707000D01*
G75*
G02*
X211698500Y-104786500I0J-79500D01*
G01*
X211698500Y-104945500D01*
G75*
G02*
X211619000Y-105025000I-79500J0D01*
G01*
G37*
%TD*%
%TO.C,C2*%
G36*
G01*
X209881300Y-104262500D02*
X210082300Y-104262500D01*
G75*
G02*
X210161800Y-104342000I0J-79500D01*
G01*
X210161800Y-104501000D01*
G75*
G02*
X210082300Y-104580500I-79500J0D01*
G01*
X209881300Y-104580500D01*
G75*
G02*
X209801800Y-104501000I0J79500D01*
G01*
X209801800Y-104342000D01*
G75*
G02*
X209881300Y-104262500I79500J0D01*
G01*
G37*
G36*
G01*
X209881300Y-103572500D02*
X210082300Y-103572500D01*
G75*
G02*
X210161800Y-103652000I0J-79500D01*
G01*
X210161800Y-103811000D01*
G75*
G02*
X210082300Y-103890500I-79500J0D01*
G01*
X209881300Y-103890500D01*
G75*
G02*
X209801800Y-103811000I0J79500D01*
G01*
X209801800Y-103652000D01*
G75*
G02*
X209881300Y-103572500I79500J0D01*
G01*
G37*
%TD*%
%TO.C,C1*%
G36*
G01*
X210643300Y-104249800D02*
X210844300Y-104249800D01*
G75*
G02*
X210923800Y-104329300I0J-79500D01*
G01*
X210923800Y-104488300D01*
G75*
G02*
X210844300Y-104567800I-79500J0D01*
G01*
X210643300Y-104567800D01*
G75*
G02*
X210563800Y-104488300I0J79500D01*
G01*
X210563800Y-104329300D01*
G75*
G02*
X210643300Y-104249800I79500J0D01*
G01*
G37*
G36*
G01*
X210643300Y-103559800D02*
X210844300Y-103559800D01*
G75*
G02*
X210923800Y-103639300I0J-79500D01*
G01*
X210923800Y-103798300D01*
G75*
G02*
X210844300Y-103877800I-79500J0D01*
G01*
X210643300Y-103877800D01*
G75*
G02*
X210563800Y-103798300I0J79500D01*
G01*
X210563800Y-103639300D01*
G75*
G02*
X210643300Y-103559800I79500J0D01*
G01*
G37*
%TD*%
M02*
