G04 #@! TF.GenerationSoftware,KiCad,Pcbnew,5.1.10*
G04 #@! TF.CreationDate,2021-08-06T15:03:29-04:00*
G04 #@! TF.ProjectId,mist-eeg,6d697374-2d65-4656-972e-6b696361645f,1E*
G04 #@! TF.SameCoordinates,Original*
G04 #@! TF.FileFunction,Soldermask,Top*
G04 #@! TF.FilePolarity,Negative*
%FSLAX46Y46*%
G04 Gerber Fmt 4.6, Leading zero omitted, Abs format (unit mm)*
G04 Created by KiCad (PCBNEW 5.1.10) date 2021-08-06 15:03:29*
%MOMM*%
%LPD*%
G01*
G04 APERTURE LIST*
%ADD10C,0.600000*%
%ADD11C,3.000000*%
%ADD12R,1.880000X1.680000*%
%ADD13O,1.500000X2.500000*%
%ADD14R,1.500000X2.500000*%
%ADD15R,2.500000X1.500000*%
%ADD16O,2.500000X1.500000*%
%ADD17R,3.600000X3.600000*%
%ADD18O,1.700000X1.700000*%
%ADD19R,1.700000X1.700000*%
%ADD20R,1.350000X1.900000*%
%ADD21R,1.000000X1.200000*%
%ADD22R,1.350000X1.550000*%
%ADD23R,1.800000X1.170000*%
%ADD24R,1.100000X0.850000*%
%ADD25R,1.100000X0.750000*%
%ADD26R,3.000000X3.000000*%
%ADD27R,0.900000X0.800000*%
%ADD28R,1.000000X1.700000*%
%ADD29R,0.584200X1.295400*%
%ADD30R,0.711200X0.203200*%
%ADD31R,0.203200X0.711200*%
%ADD32O,2.800000X1.800000*%
%ADD33R,0.800000X0.900000*%
%ADD34C,1.800000*%
%ADD35R,1.800000X1.800000*%
%ADD36O,1.000000X1.000000*%
%ADD37R,1.000000X1.000000*%
%ADD38C,1.000000*%
%ADD39O,1.070000X1.800000*%
%ADD40R,1.070000X1.800000*%
G04 APERTURE END LIST*
D10*
X215646000Y-103098600D03*
X215646000Y-103860600D03*
X213639400Y-103860600D03*
X213639400Y-103098600D03*
X214630000Y-103098600D03*
X214630000Y-103860600D03*
D11*
X231000000Y-106000000D03*
X202000000Y-37000000D03*
D12*
X222135700Y-76365100D03*
G36*
G01*
X221210700Y-74940100D02*
X221060700Y-74940100D01*
G75*
G02*
X220985700Y-74865100I0J75000D01*
G01*
X220985700Y-73565100D01*
G75*
G02*
X221060700Y-73490100I75000J0D01*
G01*
X221210700Y-73490100D01*
G75*
G02*
X221285700Y-73565100I0J-75000D01*
G01*
X221285700Y-74865100D01*
G75*
G02*
X221210700Y-74940100I-75000J0D01*
G01*
G37*
G36*
G01*
X221710700Y-74940100D02*
X221560700Y-74940100D01*
G75*
G02*
X221485700Y-74865100I0J75000D01*
G01*
X221485700Y-73565100D01*
G75*
G02*
X221560700Y-73490100I75000J0D01*
G01*
X221710700Y-73490100D01*
G75*
G02*
X221785700Y-73565100I0J-75000D01*
G01*
X221785700Y-74865100D01*
G75*
G02*
X221710700Y-74940100I-75000J0D01*
G01*
G37*
G36*
G01*
X222210700Y-74940100D02*
X222060700Y-74940100D01*
G75*
G02*
X221985700Y-74865100I0J75000D01*
G01*
X221985700Y-73565100D01*
G75*
G02*
X222060700Y-73490100I75000J0D01*
G01*
X222210700Y-73490100D01*
G75*
G02*
X222285700Y-73565100I0J-75000D01*
G01*
X222285700Y-74865100D01*
G75*
G02*
X222210700Y-74940100I-75000J0D01*
G01*
G37*
G36*
G01*
X222710700Y-74940100D02*
X222560700Y-74940100D01*
G75*
G02*
X222485700Y-74865100I0J75000D01*
G01*
X222485700Y-73565100D01*
G75*
G02*
X222560700Y-73490100I75000J0D01*
G01*
X222710700Y-73490100D01*
G75*
G02*
X222785700Y-73565100I0J-75000D01*
G01*
X222785700Y-74865100D01*
G75*
G02*
X222710700Y-74940100I-75000J0D01*
G01*
G37*
G36*
G01*
X223210700Y-74940100D02*
X223060700Y-74940100D01*
G75*
G02*
X222985700Y-74865100I0J75000D01*
G01*
X222985700Y-73565100D01*
G75*
G02*
X223060700Y-73490100I75000J0D01*
G01*
X223210700Y-73490100D01*
G75*
G02*
X223285700Y-73565100I0J-75000D01*
G01*
X223285700Y-74865100D01*
G75*
G02*
X223210700Y-74940100I-75000J0D01*
G01*
G37*
G36*
G01*
X223210700Y-79240100D02*
X223060700Y-79240100D01*
G75*
G02*
X222985700Y-79165100I0J75000D01*
G01*
X222985700Y-77865100D01*
G75*
G02*
X223060700Y-77790100I75000J0D01*
G01*
X223210700Y-77790100D01*
G75*
G02*
X223285700Y-77865100I0J-75000D01*
G01*
X223285700Y-79165100D01*
G75*
G02*
X223210700Y-79240100I-75000J0D01*
G01*
G37*
G36*
G01*
X222710700Y-79240100D02*
X222560700Y-79240100D01*
G75*
G02*
X222485700Y-79165100I0J75000D01*
G01*
X222485700Y-77865100D01*
G75*
G02*
X222560700Y-77790100I75000J0D01*
G01*
X222710700Y-77790100D01*
G75*
G02*
X222785700Y-77865100I0J-75000D01*
G01*
X222785700Y-79165100D01*
G75*
G02*
X222710700Y-79240100I-75000J0D01*
G01*
G37*
G36*
G01*
X222210700Y-79240100D02*
X222060700Y-79240100D01*
G75*
G02*
X221985700Y-79165100I0J75000D01*
G01*
X221985700Y-77865100D01*
G75*
G02*
X222060700Y-77790100I75000J0D01*
G01*
X222210700Y-77790100D01*
G75*
G02*
X222285700Y-77865100I0J-75000D01*
G01*
X222285700Y-79165100D01*
G75*
G02*
X222210700Y-79240100I-75000J0D01*
G01*
G37*
G36*
G01*
X221710700Y-79240100D02*
X221560700Y-79240100D01*
G75*
G02*
X221485700Y-79165100I0J75000D01*
G01*
X221485700Y-77865100D01*
G75*
G02*
X221560700Y-77790100I75000J0D01*
G01*
X221710700Y-77790100D01*
G75*
G02*
X221785700Y-77865100I0J-75000D01*
G01*
X221785700Y-79165100D01*
G75*
G02*
X221710700Y-79240100I-75000J0D01*
G01*
G37*
G36*
G01*
X221210700Y-79240100D02*
X221060700Y-79240100D01*
G75*
G02*
X220985700Y-79165100I0J75000D01*
G01*
X220985700Y-77865100D01*
G75*
G02*
X221060700Y-77790100I75000J0D01*
G01*
X221210700Y-77790100D01*
G75*
G02*
X221285700Y-77865100I0J-75000D01*
G01*
X221285700Y-79165100D01*
G75*
G02*
X221210700Y-79240100I-75000J0D01*
G01*
G37*
G36*
G01*
X210647500Y-74355500D02*
X210847500Y-74355500D01*
G75*
G02*
X210947500Y-74455500I0J-100000D01*
G01*
X210947500Y-74715500D01*
G75*
G02*
X210847500Y-74815500I-100000J0D01*
G01*
X210647500Y-74815500D01*
G75*
G02*
X210547500Y-74715500I0J100000D01*
G01*
X210547500Y-74455500D01*
G75*
G02*
X210647500Y-74355500I100000J0D01*
G01*
G37*
G36*
G01*
X210647500Y-73715500D02*
X210847500Y-73715500D01*
G75*
G02*
X210947500Y-73815500I0J-100000D01*
G01*
X210947500Y-74075500D01*
G75*
G02*
X210847500Y-74175500I-100000J0D01*
G01*
X210647500Y-74175500D01*
G75*
G02*
X210547500Y-74075500I0J100000D01*
G01*
X210547500Y-73815500D01*
G75*
G02*
X210647500Y-73715500I100000J0D01*
G01*
G37*
D13*
X208334500Y-87219500D03*
X210874500Y-87219500D03*
D14*
X213414500Y-87219500D03*
D15*
X218621500Y-99284500D03*
D16*
X218621500Y-96744500D03*
X218621500Y-94204500D03*
D17*
X214303500Y-73186000D03*
G36*
G01*
X216416000Y-71311000D02*
X217091000Y-71311000D01*
G75*
G02*
X217153500Y-71373500I0J-62500D01*
G01*
X217153500Y-71498500D01*
G75*
G02*
X217091000Y-71561000I-62500J0D01*
G01*
X216416000Y-71561000D01*
G75*
G02*
X216353500Y-71498500I0J62500D01*
G01*
X216353500Y-71373500D01*
G75*
G02*
X216416000Y-71311000I62500J0D01*
G01*
G37*
G36*
G01*
X216416000Y-71811000D02*
X217091000Y-71811000D01*
G75*
G02*
X217153500Y-71873500I0J-62500D01*
G01*
X217153500Y-71998500D01*
G75*
G02*
X217091000Y-72061000I-62500J0D01*
G01*
X216416000Y-72061000D01*
G75*
G02*
X216353500Y-71998500I0J62500D01*
G01*
X216353500Y-71873500D01*
G75*
G02*
X216416000Y-71811000I62500J0D01*
G01*
G37*
G36*
G01*
X216416000Y-72311000D02*
X217091000Y-72311000D01*
G75*
G02*
X217153500Y-72373500I0J-62500D01*
G01*
X217153500Y-72498500D01*
G75*
G02*
X217091000Y-72561000I-62500J0D01*
G01*
X216416000Y-72561000D01*
G75*
G02*
X216353500Y-72498500I0J62500D01*
G01*
X216353500Y-72373500D01*
G75*
G02*
X216416000Y-72311000I62500J0D01*
G01*
G37*
G36*
G01*
X216416000Y-72811000D02*
X217091000Y-72811000D01*
G75*
G02*
X217153500Y-72873500I0J-62500D01*
G01*
X217153500Y-72998500D01*
G75*
G02*
X217091000Y-73061000I-62500J0D01*
G01*
X216416000Y-73061000D01*
G75*
G02*
X216353500Y-72998500I0J62500D01*
G01*
X216353500Y-72873500D01*
G75*
G02*
X216416000Y-72811000I62500J0D01*
G01*
G37*
G36*
G01*
X216416000Y-73311000D02*
X217091000Y-73311000D01*
G75*
G02*
X217153500Y-73373500I0J-62500D01*
G01*
X217153500Y-73498500D01*
G75*
G02*
X217091000Y-73561000I-62500J0D01*
G01*
X216416000Y-73561000D01*
G75*
G02*
X216353500Y-73498500I0J62500D01*
G01*
X216353500Y-73373500D01*
G75*
G02*
X216416000Y-73311000I62500J0D01*
G01*
G37*
G36*
G01*
X216416000Y-73811000D02*
X217091000Y-73811000D01*
G75*
G02*
X217153500Y-73873500I0J-62500D01*
G01*
X217153500Y-73998500D01*
G75*
G02*
X217091000Y-74061000I-62500J0D01*
G01*
X216416000Y-74061000D01*
G75*
G02*
X216353500Y-73998500I0J62500D01*
G01*
X216353500Y-73873500D01*
G75*
G02*
X216416000Y-73811000I62500J0D01*
G01*
G37*
G36*
G01*
X216416000Y-74311000D02*
X217091000Y-74311000D01*
G75*
G02*
X217153500Y-74373500I0J-62500D01*
G01*
X217153500Y-74498500D01*
G75*
G02*
X217091000Y-74561000I-62500J0D01*
G01*
X216416000Y-74561000D01*
G75*
G02*
X216353500Y-74498500I0J62500D01*
G01*
X216353500Y-74373500D01*
G75*
G02*
X216416000Y-74311000I62500J0D01*
G01*
G37*
G36*
G01*
X216416000Y-74811000D02*
X217091000Y-74811000D01*
G75*
G02*
X217153500Y-74873500I0J-62500D01*
G01*
X217153500Y-74998500D01*
G75*
G02*
X217091000Y-75061000I-62500J0D01*
G01*
X216416000Y-75061000D01*
G75*
G02*
X216353500Y-74998500I0J62500D01*
G01*
X216353500Y-74873500D01*
G75*
G02*
X216416000Y-74811000I62500J0D01*
G01*
G37*
G36*
G01*
X215991000Y-75236000D02*
X216116000Y-75236000D01*
G75*
G02*
X216178500Y-75298500I0J-62500D01*
G01*
X216178500Y-75973500D01*
G75*
G02*
X216116000Y-76036000I-62500J0D01*
G01*
X215991000Y-76036000D01*
G75*
G02*
X215928500Y-75973500I0J62500D01*
G01*
X215928500Y-75298500D01*
G75*
G02*
X215991000Y-75236000I62500J0D01*
G01*
G37*
G36*
G01*
X215491000Y-75236000D02*
X215616000Y-75236000D01*
G75*
G02*
X215678500Y-75298500I0J-62500D01*
G01*
X215678500Y-75973500D01*
G75*
G02*
X215616000Y-76036000I-62500J0D01*
G01*
X215491000Y-76036000D01*
G75*
G02*
X215428500Y-75973500I0J62500D01*
G01*
X215428500Y-75298500D01*
G75*
G02*
X215491000Y-75236000I62500J0D01*
G01*
G37*
G36*
G01*
X214991000Y-75236000D02*
X215116000Y-75236000D01*
G75*
G02*
X215178500Y-75298500I0J-62500D01*
G01*
X215178500Y-75973500D01*
G75*
G02*
X215116000Y-76036000I-62500J0D01*
G01*
X214991000Y-76036000D01*
G75*
G02*
X214928500Y-75973500I0J62500D01*
G01*
X214928500Y-75298500D01*
G75*
G02*
X214991000Y-75236000I62500J0D01*
G01*
G37*
G36*
G01*
X214491000Y-75236000D02*
X214616000Y-75236000D01*
G75*
G02*
X214678500Y-75298500I0J-62500D01*
G01*
X214678500Y-75973500D01*
G75*
G02*
X214616000Y-76036000I-62500J0D01*
G01*
X214491000Y-76036000D01*
G75*
G02*
X214428500Y-75973500I0J62500D01*
G01*
X214428500Y-75298500D01*
G75*
G02*
X214491000Y-75236000I62500J0D01*
G01*
G37*
G36*
G01*
X213991000Y-75236000D02*
X214116000Y-75236000D01*
G75*
G02*
X214178500Y-75298500I0J-62500D01*
G01*
X214178500Y-75973500D01*
G75*
G02*
X214116000Y-76036000I-62500J0D01*
G01*
X213991000Y-76036000D01*
G75*
G02*
X213928500Y-75973500I0J62500D01*
G01*
X213928500Y-75298500D01*
G75*
G02*
X213991000Y-75236000I62500J0D01*
G01*
G37*
G36*
G01*
X213491000Y-75236000D02*
X213616000Y-75236000D01*
G75*
G02*
X213678500Y-75298500I0J-62500D01*
G01*
X213678500Y-75973500D01*
G75*
G02*
X213616000Y-76036000I-62500J0D01*
G01*
X213491000Y-76036000D01*
G75*
G02*
X213428500Y-75973500I0J62500D01*
G01*
X213428500Y-75298500D01*
G75*
G02*
X213491000Y-75236000I62500J0D01*
G01*
G37*
G36*
G01*
X212991000Y-75236000D02*
X213116000Y-75236000D01*
G75*
G02*
X213178500Y-75298500I0J-62500D01*
G01*
X213178500Y-75973500D01*
G75*
G02*
X213116000Y-76036000I-62500J0D01*
G01*
X212991000Y-76036000D01*
G75*
G02*
X212928500Y-75973500I0J62500D01*
G01*
X212928500Y-75298500D01*
G75*
G02*
X212991000Y-75236000I62500J0D01*
G01*
G37*
G36*
G01*
X212491000Y-75236000D02*
X212616000Y-75236000D01*
G75*
G02*
X212678500Y-75298500I0J-62500D01*
G01*
X212678500Y-75973500D01*
G75*
G02*
X212616000Y-76036000I-62500J0D01*
G01*
X212491000Y-76036000D01*
G75*
G02*
X212428500Y-75973500I0J62500D01*
G01*
X212428500Y-75298500D01*
G75*
G02*
X212491000Y-75236000I62500J0D01*
G01*
G37*
G36*
G01*
X211516000Y-74811000D02*
X212191000Y-74811000D01*
G75*
G02*
X212253500Y-74873500I0J-62500D01*
G01*
X212253500Y-74998500D01*
G75*
G02*
X212191000Y-75061000I-62500J0D01*
G01*
X211516000Y-75061000D01*
G75*
G02*
X211453500Y-74998500I0J62500D01*
G01*
X211453500Y-74873500D01*
G75*
G02*
X211516000Y-74811000I62500J0D01*
G01*
G37*
G36*
G01*
X211516000Y-74311000D02*
X212191000Y-74311000D01*
G75*
G02*
X212253500Y-74373500I0J-62500D01*
G01*
X212253500Y-74498500D01*
G75*
G02*
X212191000Y-74561000I-62500J0D01*
G01*
X211516000Y-74561000D01*
G75*
G02*
X211453500Y-74498500I0J62500D01*
G01*
X211453500Y-74373500D01*
G75*
G02*
X211516000Y-74311000I62500J0D01*
G01*
G37*
G36*
G01*
X211516000Y-73811000D02*
X212191000Y-73811000D01*
G75*
G02*
X212253500Y-73873500I0J-62500D01*
G01*
X212253500Y-73998500D01*
G75*
G02*
X212191000Y-74061000I-62500J0D01*
G01*
X211516000Y-74061000D01*
G75*
G02*
X211453500Y-73998500I0J62500D01*
G01*
X211453500Y-73873500D01*
G75*
G02*
X211516000Y-73811000I62500J0D01*
G01*
G37*
G36*
G01*
X211516000Y-73311000D02*
X212191000Y-73311000D01*
G75*
G02*
X212253500Y-73373500I0J-62500D01*
G01*
X212253500Y-73498500D01*
G75*
G02*
X212191000Y-73561000I-62500J0D01*
G01*
X211516000Y-73561000D01*
G75*
G02*
X211453500Y-73498500I0J62500D01*
G01*
X211453500Y-73373500D01*
G75*
G02*
X211516000Y-73311000I62500J0D01*
G01*
G37*
G36*
G01*
X211516000Y-72811000D02*
X212191000Y-72811000D01*
G75*
G02*
X212253500Y-72873500I0J-62500D01*
G01*
X212253500Y-72998500D01*
G75*
G02*
X212191000Y-73061000I-62500J0D01*
G01*
X211516000Y-73061000D01*
G75*
G02*
X211453500Y-72998500I0J62500D01*
G01*
X211453500Y-72873500D01*
G75*
G02*
X211516000Y-72811000I62500J0D01*
G01*
G37*
G36*
G01*
X211516000Y-72311000D02*
X212191000Y-72311000D01*
G75*
G02*
X212253500Y-72373500I0J-62500D01*
G01*
X212253500Y-72498500D01*
G75*
G02*
X212191000Y-72561000I-62500J0D01*
G01*
X211516000Y-72561000D01*
G75*
G02*
X211453500Y-72498500I0J62500D01*
G01*
X211453500Y-72373500D01*
G75*
G02*
X211516000Y-72311000I62500J0D01*
G01*
G37*
G36*
G01*
X211516000Y-71811000D02*
X212191000Y-71811000D01*
G75*
G02*
X212253500Y-71873500I0J-62500D01*
G01*
X212253500Y-71998500D01*
G75*
G02*
X212191000Y-72061000I-62500J0D01*
G01*
X211516000Y-72061000D01*
G75*
G02*
X211453500Y-71998500I0J62500D01*
G01*
X211453500Y-71873500D01*
G75*
G02*
X211516000Y-71811000I62500J0D01*
G01*
G37*
G36*
G01*
X211516000Y-71311000D02*
X212191000Y-71311000D01*
G75*
G02*
X212253500Y-71373500I0J-62500D01*
G01*
X212253500Y-71498500D01*
G75*
G02*
X212191000Y-71561000I-62500J0D01*
G01*
X211516000Y-71561000D01*
G75*
G02*
X211453500Y-71498500I0J62500D01*
G01*
X211453500Y-71373500D01*
G75*
G02*
X211516000Y-71311000I62500J0D01*
G01*
G37*
G36*
G01*
X212491000Y-70336000D02*
X212616000Y-70336000D01*
G75*
G02*
X212678500Y-70398500I0J-62500D01*
G01*
X212678500Y-71073500D01*
G75*
G02*
X212616000Y-71136000I-62500J0D01*
G01*
X212491000Y-71136000D01*
G75*
G02*
X212428500Y-71073500I0J62500D01*
G01*
X212428500Y-70398500D01*
G75*
G02*
X212491000Y-70336000I62500J0D01*
G01*
G37*
G36*
G01*
X212991000Y-70336000D02*
X213116000Y-70336000D01*
G75*
G02*
X213178500Y-70398500I0J-62500D01*
G01*
X213178500Y-71073500D01*
G75*
G02*
X213116000Y-71136000I-62500J0D01*
G01*
X212991000Y-71136000D01*
G75*
G02*
X212928500Y-71073500I0J62500D01*
G01*
X212928500Y-70398500D01*
G75*
G02*
X212991000Y-70336000I62500J0D01*
G01*
G37*
G36*
G01*
X213491000Y-70336000D02*
X213616000Y-70336000D01*
G75*
G02*
X213678500Y-70398500I0J-62500D01*
G01*
X213678500Y-71073500D01*
G75*
G02*
X213616000Y-71136000I-62500J0D01*
G01*
X213491000Y-71136000D01*
G75*
G02*
X213428500Y-71073500I0J62500D01*
G01*
X213428500Y-70398500D01*
G75*
G02*
X213491000Y-70336000I62500J0D01*
G01*
G37*
G36*
G01*
X213991000Y-70336000D02*
X214116000Y-70336000D01*
G75*
G02*
X214178500Y-70398500I0J-62500D01*
G01*
X214178500Y-71073500D01*
G75*
G02*
X214116000Y-71136000I-62500J0D01*
G01*
X213991000Y-71136000D01*
G75*
G02*
X213928500Y-71073500I0J62500D01*
G01*
X213928500Y-70398500D01*
G75*
G02*
X213991000Y-70336000I62500J0D01*
G01*
G37*
G36*
G01*
X214491000Y-70336000D02*
X214616000Y-70336000D01*
G75*
G02*
X214678500Y-70398500I0J-62500D01*
G01*
X214678500Y-71073500D01*
G75*
G02*
X214616000Y-71136000I-62500J0D01*
G01*
X214491000Y-71136000D01*
G75*
G02*
X214428500Y-71073500I0J62500D01*
G01*
X214428500Y-70398500D01*
G75*
G02*
X214491000Y-70336000I62500J0D01*
G01*
G37*
G36*
G01*
X214991000Y-70336000D02*
X215116000Y-70336000D01*
G75*
G02*
X215178500Y-70398500I0J-62500D01*
G01*
X215178500Y-71073500D01*
G75*
G02*
X215116000Y-71136000I-62500J0D01*
G01*
X214991000Y-71136000D01*
G75*
G02*
X214928500Y-71073500I0J62500D01*
G01*
X214928500Y-70398500D01*
G75*
G02*
X214991000Y-70336000I62500J0D01*
G01*
G37*
G36*
G01*
X215491000Y-70336000D02*
X215616000Y-70336000D01*
G75*
G02*
X215678500Y-70398500I0J-62500D01*
G01*
X215678500Y-71073500D01*
G75*
G02*
X215616000Y-71136000I-62500J0D01*
G01*
X215491000Y-71136000D01*
G75*
G02*
X215428500Y-71073500I0J62500D01*
G01*
X215428500Y-70398500D01*
G75*
G02*
X215491000Y-70336000I62500J0D01*
G01*
G37*
G36*
G01*
X215991000Y-70336000D02*
X216116000Y-70336000D01*
G75*
G02*
X216178500Y-70398500I0J-62500D01*
G01*
X216178500Y-71073500D01*
G75*
G02*
X216116000Y-71136000I-62500J0D01*
G01*
X215991000Y-71136000D01*
G75*
G02*
X215928500Y-71073500I0J62500D01*
G01*
X215928500Y-70398500D01*
G75*
G02*
X215991000Y-70336000I62500J0D01*
G01*
G37*
D18*
X204905500Y-46008000D03*
X202365500Y-46008000D03*
X204905500Y-43468000D03*
D19*
X202365500Y-43468000D03*
G36*
G01*
X219277500Y-71935500D02*
X218727500Y-71935500D01*
G75*
G02*
X218527500Y-71735500I0J200000D01*
G01*
X218527500Y-71335500D01*
G75*
G02*
X218727500Y-71135500I200000J0D01*
G01*
X219277500Y-71135500D01*
G75*
G02*
X219477500Y-71335500I0J-200000D01*
G01*
X219477500Y-71735500D01*
G75*
G02*
X219277500Y-71935500I-200000J0D01*
G01*
G37*
G36*
G01*
X219277500Y-73585500D02*
X218727500Y-73585500D01*
G75*
G02*
X218527500Y-73385500I0J200000D01*
G01*
X218527500Y-72985500D01*
G75*
G02*
X218727500Y-72785500I200000J0D01*
G01*
X219277500Y-72785500D01*
G75*
G02*
X219477500Y-72985500I0J-200000D01*
G01*
X219477500Y-73385500D01*
G75*
G02*
X219277500Y-73585500I-200000J0D01*
G01*
G37*
D20*
X247500500Y-94758500D03*
X247500500Y-100728500D03*
D21*
X242825500Y-104228500D03*
X246525500Y-104228500D03*
D22*
X236800500Y-104053500D03*
D23*
X237025500Y-92733500D03*
D24*
X236675500Y-94993500D03*
X236675500Y-96093500D03*
X236675500Y-97193500D03*
X236675500Y-98293500D03*
X236675500Y-99393500D03*
X236675500Y-100493500D03*
D25*
X236675500Y-93943500D03*
D24*
X236675500Y-101593500D03*
D11*
X203327000Y-94170500D03*
D26*
X203327000Y-99250500D03*
G36*
G01*
X222731000Y-95731500D02*
X222531000Y-95731500D01*
G75*
G02*
X222431000Y-95631500I0J100000D01*
G01*
X222431000Y-95371500D01*
G75*
G02*
X222531000Y-95271500I100000J0D01*
G01*
X222731000Y-95271500D01*
G75*
G02*
X222831000Y-95371500I0J-100000D01*
G01*
X222831000Y-95631500D01*
G75*
G02*
X222731000Y-95731500I-100000J0D01*
G01*
G37*
G36*
G01*
X222731000Y-96371500D02*
X222531000Y-96371500D01*
G75*
G02*
X222431000Y-96271500I0J100000D01*
G01*
X222431000Y-96011500D01*
G75*
G02*
X222531000Y-95911500I100000J0D01*
G01*
X222731000Y-95911500D01*
G75*
G02*
X222831000Y-96011500I0J-100000D01*
G01*
X222831000Y-96271500D01*
G75*
G02*
X222731000Y-96371500I-100000J0D01*
G01*
G37*
D27*
X224647000Y-92011500D03*
X222647000Y-92961500D03*
X222647000Y-91061500D03*
G36*
G01*
X221994500Y-72703500D02*
X221994500Y-72203500D01*
G75*
G02*
X222219500Y-71978500I225000J0D01*
G01*
X222669500Y-71978500D01*
G75*
G02*
X222894500Y-72203500I0J-225000D01*
G01*
X222894500Y-72703500D01*
G75*
G02*
X222669500Y-72928500I-225000J0D01*
G01*
X222219500Y-72928500D01*
G75*
G02*
X221994500Y-72703500I0J225000D01*
G01*
G37*
G36*
G01*
X220444500Y-72703500D02*
X220444500Y-72203500D01*
G75*
G02*
X220669500Y-71978500I225000J0D01*
G01*
X221119500Y-71978500D01*
G75*
G02*
X221344500Y-72203500I0J-225000D01*
G01*
X221344500Y-72703500D01*
G75*
G02*
X221119500Y-72928500I-225000J0D01*
G01*
X220669500Y-72928500D01*
G75*
G02*
X220444500Y-72703500I0J225000D01*
G01*
G37*
G36*
G01*
X217411000Y-57206000D02*
X216911000Y-57206000D01*
G75*
G02*
X216686000Y-56981000I0J225000D01*
G01*
X216686000Y-56531000D01*
G75*
G02*
X216911000Y-56306000I225000J0D01*
G01*
X217411000Y-56306000D01*
G75*
G02*
X217636000Y-56531000I0J-225000D01*
G01*
X217636000Y-56981000D01*
G75*
G02*
X217411000Y-57206000I-225000J0D01*
G01*
G37*
G36*
G01*
X217411000Y-58756000D02*
X216911000Y-58756000D01*
G75*
G02*
X216686000Y-58531000I0J225000D01*
G01*
X216686000Y-58081000D01*
G75*
G02*
X216911000Y-57856000I225000J0D01*
G01*
X217411000Y-57856000D01*
G75*
G02*
X217636000Y-58081000I0J-225000D01*
G01*
X217636000Y-58531000D01*
G75*
G02*
X217411000Y-58756000I-225000J0D01*
G01*
G37*
G36*
G01*
X220604200Y-80242600D02*
X220604200Y-80742600D01*
G75*
G02*
X220379200Y-80967600I-225000J0D01*
G01*
X219929200Y-80967600D01*
G75*
G02*
X219704200Y-80742600I0J225000D01*
G01*
X219704200Y-80242600D01*
G75*
G02*
X219929200Y-80017600I225000J0D01*
G01*
X220379200Y-80017600D01*
G75*
G02*
X220604200Y-80242600I0J-225000D01*
G01*
G37*
G36*
G01*
X222154200Y-80242600D02*
X222154200Y-80742600D01*
G75*
G02*
X221929200Y-80967600I-225000J0D01*
G01*
X221479200Y-80967600D01*
G75*
G02*
X221254200Y-80742600I0J225000D01*
G01*
X221254200Y-80242600D01*
G75*
G02*
X221479200Y-80017600I225000J0D01*
G01*
X221929200Y-80017600D01*
G75*
G02*
X222154200Y-80242600I0J-225000D01*
G01*
G37*
G36*
G01*
X216023000Y-61841500D02*
X215523000Y-61841500D01*
G75*
G02*
X215298000Y-61616500I0J225000D01*
G01*
X215298000Y-61166500D01*
G75*
G02*
X215523000Y-60941500I225000J0D01*
G01*
X216023000Y-60941500D01*
G75*
G02*
X216248000Y-61166500I0J-225000D01*
G01*
X216248000Y-61616500D01*
G75*
G02*
X216023000Y-61841500I-225000J0D01*
G01*
G37*
G36*
G01*
X216023000Y-63391500D02*
X215523000Y-63391500D01*
G75*
G02*
X215298000Y-63166500I0J225000D01*
G01*
X215298000Y-62716500D01*
G75*
G02*
X215523000Y-62491500I225000J0D01*
G01*
X216023000Y-62491500D01*
G75*
G02*
X216248000Y-62716500I0J-225000D01*
G01*
X216248000Y-63166500D01*
G75*
G02*
X216023000Y-63391500I-225000J0D01*
G01*
G37*
D28*
X224160000Y-101448000D03*
X224160000Y-95148000D03*
X227960000Y-101448000D03*
X227960000Y-95148000D03*
D29*
X238887000Y-70650100D03*
X240157000Y-70650100D03*
X241427000Y-70650100D03*
X241427000Y-73367900D03*
X240157000Y-73367900D03*
X238887000Y-73367900D03*
D30*
X243740001Y-79909998D03*
X246819999Y-79909998D03*
X243740001Y-79509999D03*
X246819999Y-79509999D03*
X243740001Y-79110000D03*
X246819999Y-79110000D03*
X243740001Y-78709998D03*
X246819999Y-78709998D03*
X243740001Y-78309999D03*
X246819999Y-78309999D03*
X243740001Y-77910000D03*
X246819999Y-77910000D03*
X243740001Y-77510000D03*
X246819999Y-77510000D03*
X243740001Y-77109999D03*
X246819999Y-77109999D03*
X243740001Y-76709999D03*
X246819999Y-76709999D03*
X243740001Y-76310000D03*
X246819999Y-76310000D03*
X243740001Y-75909999D03*
X246819999Y-75909999D03*
X243740001Y-75509999D03*
X246819999Y-75509999D03*
X243740001Y-75110000D03*
X246819999Y-75110000D03*
X243740001Y-74709998D03*
X246819999Y-74709998D03*
X243740001Y-74309999D03*
X246819999Y-74309999D03*
X243740001Y-73910000D03*
X246819999Y-73910000D03*
X243740001Y-73510001D03*
X246819999Y-73510001D03*
X243740001Y-73109999D03*
X246819999Y-73109999D03*
X243740001Y-72710000D03*
X246819999Y-72710000D03*
X243740001Y-72310001D03*
X246819999Y-72310001D03*
X243740001Y-71909999D03*
X246819999Y-71909999D03*
X243740001Y-71510000D03*
X246819999Y-71510000D03*
X243740001Y-71110001D03*
X246819999Y-71110001D03*
X243740001Y-70710001D03*
X246819999Y-70710001D03*
X243740001Y-70310000D03*
X246819999Y-70310000D03*
X243740001Y-69910000D03*
X246819999Y-69910000D03*
X243740001Y-69510001D03*
X246819999Y-69510001D03*
X243740001Y-69109999D03*
X246819999Y-69109999D03*
X243740001Y-68710000D03*
X246819999Y-68710000D03*
X243740001Y-68310001D03*
X246819999Y-68310001D03*
X243740001Y-67909999D03*
X246819999Y-67909999D03*
X243740001Y-67510000D03*
X246819999Y-67510000D03*
X243740001Y-67110001D03*
X246819999Y-67110001D03*
X243740001Y-66710002D03*
X246819999Y-66710002D03*
X243740001Y-66310000D03*
X246819999Y-66310000D03*
X243740001Y-65910001D03*
X246819999Y-65910001D03*
X243740001Y-65510002D03*
X246819999Y-65510002D03*
X243740001Y-65110000D03*
X246819999Y-65110000D03*
X243740001Y-64710001D03*
X246819999Y-64710001D03*
X243740001Y-64310001D03*
X246819999Y-64310001D03*
X243740001Y-63910000D03*
X246819999Y-63910000D03*
X243740001Y-63510001D03*
X246819999Y-63510001D03*
X243740001Y-63110001D03*
X246819999Y-63110001D03*
X243740001Y-62710002D03*
X246819999Y-62710002D03*
X243740001Y-62310000D03*
X246819999Y-62310000D03*
X243740001Y-61910001D03*
X246819999Y-61910001D03*
X243740001Y-61510002D03*
X246819999Y-61510002D03*
X243740001Y-61110000D03*
X246819999Y-61110000D03*
X243740001Y-60710001D03*
X246819999Y-60710001D03*
X243740001Y-60310002D03*
X246819999Y-60310002D03*
D31*
X219950002Y-50590001D03*
X219950002Y-53669999D03*
X220350001Y-50590001D03*
X220350001Y-53669999D03*
X220750000Y-50590001D03*
X220750000Y-53669999D03*
X221150002Y-50590001D03*
X221150002Y-53669999D03*
X221550001Y-50590001D03*
X221550001Y-53669999D03*
X221950000Y-50590001D03*
X221950000Y-53669999D03*
X222350000Y-50590001D03*
X222350000Y-53669999D03*
X222750001Y-50590001D03*
X222750001Y-53669999D03*
X223150001Y-50590001D03*
X223150001Y-53669999D03*
X223550000Y-50590001D03*
X223550000Y-53669999D03*
X223950001Y-50590001D03*
X223950001Y-53669999D03*
X224350001Y-50590001D03*
X224350001Y-53669999D03*
X224750000Y-50590001D03*
X224750000Y-53669999D03*
X225150002Y-50590001D03*
X225150002Y-53669999D03*
X225550001Y-50590001D03*
X225550001Y-53669999D03*
X225950000Y-50590001D03*
X225950000Y-53669999D03*
X226349999Y-50590001D03*
X226349999Y-53669999D03*
X226750001Y-50590001D03*
X226750001Y-53669999D03*
X227150000Y-50590001D03*
X227150000Y-53669999D03*
X227549999Y-50590001D03*
X227549999Y-53669999D03*
X227950001Y-50590001D03*
X227950001Y-53669999D03*
X228350000Y-50590001D03*
X228350000Y-53669999D03*
X228749999Y-50590001D03*
X228749999Y-53669999D03*
X229149999Y-50590001D03*
X229149999Y-53669999D03*
X229550000Y-50590001D03*
X229550000Y-53669999D03*
X229950000Y-50590001D03*
X229950000Y-53669999D03*
X230349999Y-50590001D03*
X230349999Y-53669999D03*
X230750001Y-50590001D03*
X230750001Y-53669999D03*
X231150000Y-50590001D03*
X231150000Y-53669999D03*
X231549999Y-50590001D03*
X231549999Y-53669999D03*
X231950001Y-50590001D03*
X231950001Y-53669999D03*
X232350000Y-50590001D03*
X232350000Y-53669999D03*
X232749999Y-50590001D03*
X232749999Y-53669999D03*
X233149998Y-50590001D03*
X233149998Y-53669999D03*
X233550000Y-50590001D03*
X233550000Y-53669999D03*
X233949999Y-50590001D03*
X233949999Y-53669999D03*
X234349998Y-50590001D03*
X234349998Y-53669999D03*
X234750000Y-50590001D03*
X234750000Y-53669999D03*
X235149999Y-50590001D03*
X235149999Y-53669999D03*
X235549999Y-50590001D03*
X235549999Y-53669999D03*
X235950000Y-50590001D03*
X235950000Y-53669999D03*
X236349999Y-50590001D03*
X236349999Y-53669999D03*
X236749999Y-50590001D03*
X236749999Y-53669999D03*
X237149998Y-50590001D03*
X237149998Y-53669999D03*
X237550000Y-50590001D03*
X237550000Y-53669999D03*
X237949999Y-50590001D03*
X237949999Y-53669999D03*
X238349998Y-50590001D03*
X238349998Y-53669999D03*
X238750000Y-50590001D03*
X238750000Y-53669999D03*
X239149999Y-50590001D03*
X239149999Y-53669999D03*
X239549998Y-50590001D03*
X239549998Y-53669999D03*
D30*
X205440001Y-79909998D03*
X208519999Y-79909998D03*
X205440001Y-79509999D03*
X208519999Y-79509999D03*
X205440001Y-79110000D03*
X208519999Y-79110000D03*
X205440001Y-78709998D03*
X208519999Y-78709998D03*
X205440001Y-78309999D03*
X208519999Y-78309999D03*
X205440001Y-77910000D03*
X208519999Y-77910000D03*
X205440001Y-77510000D03*
X208519999Y-77510000D03*
X205440001Y-77109999D03*
X208519999Y-77109999D03*
X205440001Y-76709999D03*
X208519999Y-76709999D03*
X205440001Y-76310000D03*
X208519999Y-76310000D03*
X205440001Y-75909999D03*
X208519999Y-75909999D03*
X205440001Y-75509999D03*
X208519999Y-75509999D03*
X205440001Y-75110000D03*
X208519999Y-75110000D03*
X205440001Y-74709998D03*
X208519999Y-74709998D03*
X205440001Y-74309999D03*
X208519999Y-74309999D03*
X205440001Y-73910000D03*
X208519999Y-73910000D03*
X205440001Y-73510001D03*
X208519999Y-73510001D03*
X205440001Y-73109999D03*
X208519999Y-73109999D03*
X205440001Y-72710000D03*
X208519999Y-72710000D03*
X205440001Y-72310001D03*
X208519999Y-72310001D03*
X205440001Y-71909999D03*
X208519999Y-71909999D03*
X205440001Y-71510000D03*
X208519999Y-71510000D03*
X205440001Y-71110001D03*
X208519999Y-71110001D03*
X205440001Y-70710001D03*
X208519999Y-70710001D03*
X205440001Y-70310000D03*
X208519999Y-70310000D03*
X205440001Y-69910000D03*
X208519999Y-69910000D03*
X205440001Y-69510001D03*
X208519999Y-69510001D03*
X205440001Y-69109999D03*
X208519999Y-69109999D03*
X205440001Y-68710000D03*
X208519999Y-68710000D03*
X205440001Y-68310001D03*
X208519999Y-68310001D03*
X205440001Y-67909999D03*
X208519999Y-67909999D03*
X205440001Y-67510000D03*
X208519999Y-67510000D03*
X205440001Y-67110001D03*
X208519999Y-67110001D03*
X205440001Y-66710002D03*
X208519999Y-66710002D03*
X205440001Y-66310000D03*
X208519999Y-66310000D03*
X205440001Y-65910001D03*
X208519999Y-65910001D03*
X205440001Y-65510002D03*
X208519999Y-65510002D03*
X205440001Y-65110000D03*
X208519999Y-65110000D03*
X205440001Y-64710001D03*
X208519999Y-64710001D03*
X205440001Y-64310001D03*
X208519999Y-64310001D03*
X205440001Y-63910000D03*
X208519999Y-63910000D03*
X205440001Y-63510001D03*
X208519999Y-63510001D03*
X205440001Y-63110001D03*
X208519999Y-63110001D03*
X205440001Y-62710002D03*
X208519999Y-62710002D03*
X205440001Y-62310000D03*
X208519999Y-62310000D03*
X205440001Y-61910001D03*
X208519999Y-61910001D03*
X205440001Y-61510002D03*
X208519999Y-61510002D03*
X205440001Y-61110000D03*
X208519999Y-61110000D03*
X205440001Y-60710001D03*
X208519999Y-60710001D03*
X205440001Y-60310002D03*
X208519999Y-60310002D03*
G36*
G01*
X245916000Y-107463000D02*
X245916000Y-106913000D01*
G75*
G02*
X246116000Y-106713000I200000J0D01*
G01*
X246516000Y-106713000D01*
G75*
G02*
X246716000Y-106913000I0J-200000D01*
G01*
X246716000Y-107463000D01*
G75*
G02*
X246516000Y-107663000I-200000J0D01*
G01*
X246116000Y-107663000D01*
G75*
G02*
X245916000Y-107463000I0J200000D01*
G01*
G37*
G36*
G01*
X244266000Y-107463000D02*
X244266000Y-106913000D01*
G75*
G02*
X244466000Y-106713000I200000J0D01*
G01*
X244866000Y-106713000D01*
G75*
G02*
X245066000Y-106913000I0J-200000D01*
G01*
X245066000Y-107463000D01*
G75*
G02*
X244866000Y-107663000I-200000J0D01*
G01*
X244466000Y-107663000D01*
G75*
G02*
X244266000Y-107463000I0J200000D01*
G01*
G37*
D32*
X217773000Y-43523500D03*
X217773000Y-38023500D03*
X215773000Y-35623500D03*
D11*
X245750000Y-52250000D03*
X202250000Y-87750000D03*
G36*
G01*
X204674500Y-104082000D02*
X204674500Y-104452000D01*
G75*
G02*
X204539500Y-104587000I-135000J0D01*
G01*
X204269500Y-104587000D01*
G75*
G02*
X204134500Y-104452000I0J135000D01*
G01*
X204134500Y-104082000D01*
G75*
G02*
X204269500Y-103947000I135000J0D01*
G01*
X204539500Y-103947000D01*
G75*
G02*
X204674500Y-104082000I0J-135000D01*
G01*
G37*
G36*
G01*
X205694500Y-104082000D02*
X205694500Y-104452000D01*
G75*
G02*
X205559500Y-104587000I-135000J0D01*
G01*
X205289500Y-104587000D01*
G75*
G02*
X205154500Y-104452000I0J135000D01*
G01*
X205154500Y-104082000D01*
G75*
G02*
X205289500Y-103947000I135000J0D01*
G01*
X205559500Y-103947000D01*
G75*
G02*
X205694500Y-104082000I0J-135000D01*
G01*
G37*
D33*
X205676500Y-105553000D03*
X206626500Y-107553000D03*
X204726500Y-107553000D03*
D34*
X201612500Y-104267000D03*
D35*
X201612500Y-106807000D03*
D36*
X245745000Y-47244000D03*
D37*
X245745000Y-48514000D03*
G36*
G01*
X239294500Y-74839500D02*
X239294500Y-74639500D01*
G75*
G02*
X239394500Y-74539500I100000J0D01*
G01*
X239654500Y-74539500D01*
G75*
G02*
X239754500Y-74639500I0J-100000D01*
G01*
X239754500Y-74839500D01*
G75*
G02*
X239654500Y-74939500I-100000J0D01*
G01*
X239394500Y-74939500D01*
G75*
G02*
X239294500Y-74839500I0J100000D01*
G01*
G37*
G36*
G01*
X238654500Y-74839500D02*
X238654500Y-74639500D01*
G75*
G02*
X238754500Y-74539500I100000J0D01*
G01*
X239014500Y-74539500D01*
G75*
G02*
X239114500Y-74639500I0J-100000D01*
G01*
X239114500Y-74839500D01*
G75*
G02*
X239014500Y-74939500I-100000J0D01*
G01*
X238754500Y-74939500D01*
G75*
G02*
X238654500Y-74839500I0J100000D01*
G01*
G37*
G36*
G01*
X222167000Y-105367500D02*
X222167000Y-104817500D01*
G75*
G02*
X222367000Y-104617500I200000J0D01*
G01*
X222767000Y-104617500D01*
G75*
G02*
X222967000Y-104817500I0J-200000D01*
G01*
X222967000Y-105367500D01*
G75*
G02*
X222767000Y-105567500I-200000J0D01*
G01*
X222367000Y-105567500D01*
G75*
G02*
X222167000Y-105367500I0J200000D01*
G01*
G37*
G36*
G01*
X220517000Y-105367500D02*
X220517000Y-104817500D01*
G75*
G02*
X220717000Y-104617500I200000J0D01*
G01*
X221117000Y-104617500D01*
G75*
G02*
X221317000Y-104817500I0J-200000D01*
G01*
X221317000Y-105367500D01*
G75*
G02*
X221117000Y-105567500I-200000J0D01*
G01*
X220717000Y-105567500D01*
G75*
G02*
X220517000Y-105367500I0J200000D01*
G01*
G37*
G36*
G01*
X245152500Y-83673500D02*
X245702500Y-83673500D01*
G75*
G02*
X245902500Y-83873500I0J-200000D01*
G01*
X245902500Y-84273500D01*
G75*
G02*
X245702500Y-84473500I-200000J0D01*
G01*
X245152500Y-84473500D01*
G75*
G02*
X244952500Y-84273500I0J200000D01*
G01*
X244952500Y-83873500D01*
G75*
G02*
X245152500Y-83673500I200000J0D01*
G01*
G37*
G36*
G01*
X245152500Y-82023500D02*
X245702500Y-82023500D01*
G75*
G02*
X245902500Y-82223500I0J-200000D01*
G01*
X245902500Y-82623500D01*
G75*
G02*
X245702500Y-82823500I-200000J0D01*
G01*
X245152500Y-82823500D01*
G75*
G02*
X244952500Y-82623500I0J200000D01*
G01*
X244952500Y-82223500D01*
G75*
G02*
X245152500Y-82023500I200000J0D01*
G01*
G37*
G36*
G01*
X243628500Y-83673500D02*
X244178500Y-83673500D01*
G75*
G02*
X244378500Y-83873500I0J-200000D01*
G01*
X244378500Y-84273500D01*
G75*
G02*
X244178500Y-84473500I-200000J0D01*
G01*
X243628500Y-84473500D01*
G75*
G02*
X243428500Y-84273500I0J200000D01*
G01*
X243428500Y-83873500D01*
G75*
G02*
X243628500Y-83673500I200000J0D01*
G01*
G37*
G36*
G01*
X243628500Y-82023500D02*
X244178500Y-82023500D01*
G75*
G02*
X244378500Y-82223500I0J-200000D01*
G01*
X244378500Y-82623500D01*
G75*
G02*
X244178500Y-82823500I-200000J0D01*
G01*
X243628500Y-82823500D01*
G75*
G02*
X243428500Y-82623500I0J200000D01*
G01*
X243428500Y-82223500D01*
G75*
G02*
X243628500Y-82023500I200000J0D01*
G01*
G37*
G36*
G01*
X223864500Y-105119000D02*
X224064500Y-105119000D01*
G75*
G02*
X224164500Y-105219000I0J-100000D01*
G01*
X224164500Y-105479000D01*
G75*
G02*
X224064500Y-105579000I-100000J0D01*
G01*
X223864500Y-105579000D01*
G75*
G02*
X223764500Y-105479000I0J100000D01*
G01*
X223764500Y-105219000D01*
G75*
G02*
X223864500Y-105119000I100000J0D01*
G01*
G37*
G36*
G01*
X223864500Y-104479000D02*
X224064500Y-104479000D01*
G75*
G02*
X224164500Y-104579000I0J-100000D01*
G01*
X224164500Y-104839000D01*
G75*
G02*
X224064500Y-104939000I-100000J0D01*
G01*
X223864500Y-104939000D01*
G75*
G02*
X223764500Y-104839000I0J100000D01*
G01*
X223764500Y-104579000D01*
G75*
G02*
X223864500Y-104479000I100000J0D01*
G01*
G37*
G36*
G01*
X221652000Y-81561000D02*
X221652000Y-81761000D01*
G75*
G02*
X221552000Y-81861000I-100000J0D01*
G01*
X221292000Y-81861000D01*
G75*
G02*
X221192000Y-81761000I0J100000D01*
G01*
X221192000Y-81561000D01*
G75*
G02*
X221292000Y-81461000I100000J0D01*
G01*
X221552000Y-81461000D01*
G75*
G02*
X221652000Y-81561000I0J-100000D01*
G01*
G37*
G36*
G01*
X222292000Y-81561000D02*
X222292000Y-81761000D01*
G75*
G02*
X222192000Y-81861000I-100000J0D01*
G01*
X221932000Y-81861000D01*
G75*
G02*
X221832000Y-81761000I0J100000D01*
G01*
X221832000Y-81561000D01*
G75*
G02*
X221932000Y-81461000I100000J0D01*
G01*
X222192000Y-81461000D01*
G75*
G02*
X222292000Y-81561000I0J-100000D01*
G01*
G37*
D27*
X225123500Y-104457500D03*
X227123500Y-103507500D03*
X227123500Y-105407500D03*
D33*
X227203000Y-91075000D03*
X228153000Y-93075000D03*
X226253000Y-93075000D03*
D18*
X227457000Y-45466000D03*
X227457000Y-48006000D03*
X224917000Y-45466000D03*
X224917000Y-48006000D03*
X222377000Y-45466000D03*
D19*
X222377000Y-48006000D03*
G36*
G01*
X240130500Y-69178500D02*
X240130500Y-69378500D01*
G75*
G02*
X240030500Y-69478500I-100000J0D01*
G01*
X239770500Y-69478500D01*
G75*
G02*
X239670500Y-69378500I0J100000D01*
G01*
X239670500Y-69178500D01*
G75*
G02*
X239770500Y-69078500I100000J0D01*
G01*
X240030500Y-69078500D01*
G75*
G02*
X240130500Y-69178500I0J-100000D01*
G01*
G37*
G36*
G01*
X240770500Y-69178500D02*
X240770500Y-69378500D01*
G75*
G02*
X240670500Y-69478500I-100000J0D01*
G01*
X240410500Y-69478500D01*
G75*
G02*
X240310500Y-69378500I0J100000D01*
G01*
X240310500Y-69178500D01*
G75*
G02*
X240410500Y-69078500I100000J0D01*
G01*
X240670500Y-69078500D01*
G75*
G02*
X240770500Y-69178500I0J-100000D01*
G01*
G37*
D36*
X207137000Y-37338000D03*
D37*
X207137000Y-36068000D03*
G36*
G01*
X206729500Y-38889000D02*
X206729500Y-39089000D01*
G75*
G02*
X206629500Y-39189000I-100000J0D01*
G01*
X206369500Y-39189000D01*
G75*
G02*
X206269500Y-39089000I0J100000D01*
G01*
X206269500Y-38889000D01*
G75*
G02*
X206369500Y-38789000I100000J0D01*
G01*
X206629500Y-38789000D01*
G75*
G02*
X206729500Y-38889000I0J-100000D01*
G01*
G37*
G36*
G01*
X207369500Y-38889000D02*
X207369500Y-39089000D01*
G75*
G02*
X207269500Y-39189000I-100000J0D01*
G01*
X207009500Y-39189000D01*
G75*
G02*
X206909500Y-39089000I0J100000D01*
G01*
X206909500Y-38889000D01*
G75*
G02*
X207009500Y-38789000I100000J0D01*
G01*
X207269500Y-38789000D01*
G75*
G02*
X207369500Y-38889000I0J-100000D01*
G01*
G37*
D36*
X225171000Y-56515000D03*
X226441000Y-56515000D03*
X227711000Y-56515000D03*
X228981000Y-56515000D03*
X230251000Y-56515000D03*
X231521000Y-56515000D03*
X232791000Y-56515000D03*
X234061000Y-56515000D03*
X235331000Y-56515000D03*
X236601000Y-56515000D03*
X237871000Y-56515000D03*
X239141000Y-56515000D03*
X240411000Y-56515000D03*
X241681000Y-56515000D03*
X242951000Y-56515000D03*
X244221000Y-56515000D03*
X245491000Y-56515000D03*
D37*
X246761000Y-56515000D03*
G36*
G01*
X213769000Y-76642000D02*
X213769000Y-76842000D01*
G75*
G02*
X213669000Y-76942000I-100000J0D01*
G01*
X213409000Y-76942000D01*
G75*
G02*
X213309000Y-76842000I0J100000D01*
G01*
X213309000Y-76642000D01*
G75*
G02*
X213409000Y-76542000I100000J0D01*
G01*
X213669000Y-76542000D01*
G75*
G02*
X213769000Y-76642000I0J-100000D01*
G01*
G37*
G36*
G01*
X214409000Y-76642000D02*
X214409000Y-76842000D01*
G75*
G02*
X214309000Y-76942000I-100000J0D01*
G01*
X214049000Y-76942000D01*
G75*
G02*
X213949000Y-76842000I0J100000D01*
G01*
X213949000Y-76642000D01*
G75*
G02*
X214049000Y-76542000I100000J0D01*
G01*
X214309000Y-76542000D01*
G75*
G02*
X214409000Y-76642000I0J-100000D01*
G01*
G37*
G36*
G01*
X238335000Y-106913000D02*
X238335000Y-107463000D01*
G75*
G02*
X238135000Y-107663000I-200000J0D01*
G01*
X237735000Y-107663000D01*
G75*
G02*
X237535000Y-107463000I0J200000D01*
G01*
X237535000Y-106913000D01*
G75*
G02*
X237735000Y-106713000I200000J0D01*
G01*
X238135000Y-106713000D01*
G75*
G02*
X238335000Y-106913000I0J-200000D01*
G01*
G37*
G36*
G01*
X239985000Y-106913000D02*
X239985000Y-107463000D01*
G75*
G02*
X239785000Y-107663000I-200000J0D01*
G01*
X239385000Y-107663000D01*
G75*
G02*
X239185000Y-107463000I0J200000D01*
G01*
X239185000Y-106913000D01*
G75*
G02*
X239385000Y-106713000I200000J0D01*
G01*
X239785000Y-106713000D01*
G75*
G02*
X239985000Y-106913000I0J-200000D01*
G01*
G37*
G36*
G01*
X233572500Y-93514500D02*
X233572500Y-94064500D01*
G75*
G02*
X233372500Y-94264500I-200000J0D01*
G01*
X232972500Y-94264500D01*
G75*
G02*
X232772500Y-94064500I0J200000D01*
G01*
X232772500Y-93514500D01*
G75*
G02*
X232972500Y-93314500I200000J0D01*
G01*
X233372500Y-93314500D01*
G75*
G02*
X233572500Y-93514500I0J-200000D01*
G01*
G37*
G36*
G01*
X235222500Y-93514500D02*
X235222500Y-94064500D01*
G75*
G02*
X235022500Y-94264500I-200000J0D01*
G01*
X234622500Y-94264500D01*
G75*
G02*
X234422500Y-94064500I0J200000D01*
G01*
X234422500Y-93514500D01*
G75*
G02*
X234622500Y-93314500I200000J0D01*
G01*
X235022500Y-93314500D01*
G75*
G02*
X235222500Y-93514500I0J-200000D01*
G01*
G37*
G36*
G01*
X233572500Y-95038500D02*
X233572500Y-95588500D01*
G75*
G02*
X233372500Y-95788500I-200000J0D01*
G01*
X232972500Y-95788500D01*
G75*
G02*
X232772500Y-95588500I0J200000D01*
G01*
X232772500Y-95038500D01*
G75*
G02*
X232972500Y-94838500I200000J0D01*
G01*
X233372500Y-94838500D01*
G75*
G02*
X233572500Y-95038500I0J-200000D01*
G01*
G37*
G36*
G01*
X235222500Y-95038500D02*
X235222500Y-95588500D01*
G75*
G02*
X235022500Y-95788500I-200000J0D01*
G01*
X234622500Y-95788500D01*
G75*
G02*
X234422500Y-95588500I0J200000D01*
G01*
X234422500Y-95038500D01*
G75*
G02*
X234622500Y-94838500I200000J0D01*
G01*
X235022500Y-94838500D01*
G75*
G02*
X235222500Y-95038500I0J-200000D01*
G01*
G37*
G36*
G01*
X233636000Y-96880000D02*
X233636000Y-97430000D01*
G75*
G02*
X233436000Y-97630000I-200000J0D01*
G01*
X233036000Y-97630000D01*
G75*
G02*
X232836000Y-97430000I0J200000D01*
G01*
X232836000Y-96880000D01*
G75*
G02*
X233036000Y-96680000I200000J0D01*
G01*
X233436000Y-96680000D01*
G75*
G02*
X233636000Y-96880000I0J-200000D01*
G01*
G37*
G36*
G01*
X235286000Y-96880000D02*
X235286000Y-97430000D01*
G75*
G02*
X235086000Y-97630000I-200000J0D01*
G01*
X234686000Y-97630000D01*
G75*
G02*
X234486000Y-97430000I0J200000D01*
G01*
X234486000Y-96880000D01*
G75*
G02*
X234686000Y-96680000I200000J0D01*
G01*
X235086000Y-96680000D01*
G75*
G02*
X235286000Y-96880000I0J-200000D01*
G01*
G37*
G36*
G01*
X233636000Y-99166000D02*
X233636000Y-99716000D01*
G75*
G02*
X233436000Y-99916000I-200000J0D01*
G01*
X233036000Y-99916000D01*
G75*
G02*
X232836000Y-99716000I0J200000D01*
G01*
X232836000Y-99166000D01*
G75*
G02*
X233036000Y-98966000I200000J0D01*
G01*
X233436000Y-98966000D01*
G75*
G02*
X233636000Y-99166000I0J-200000D01*
G01*
G37*
G36*
G01*
X235286000Y-99166000D02*
X235286000Y-99716000D01*
G75*
G02*
X235086000Y-99916000I-200000J0D01*
G01*
X234686000Y-99916000D01*
G75*
G02*
X234486000Y-99716000I0J200000D01*
G01*
X234486000Y-99166000D01*
G75*
G02*
X234686000Y-98966000I200000J0D01*
G01*
X235086000Y-98966000D01*
G75*
G02*
X235286000Y-99166000I0J-200000D01*
G01*
G37*
G36*
G01*
X233636000Y-100690000D02*
X233636000Y-101240000D01*
G75*
G02*
X233436000Y-101440000I-200000J0D01*
G01*
X233036000Y-101440000D01*
G75*
G02*
X232836000Y-101240000I0J200000D01*
G01*
X232836000Y-100690000D01*
G75*
G02*
X233036000Y-100490000I200000J0D01*
G01*
X233436000Y-100490000D01*
G75*
G02*
X233636000Y-100690000I0J-200000D01*
G01*
G37*
G36*
G01*
X235286000Y-100690000D02*
X235286000Y-101240000D01*
G75*
G02*
X235086000Y-101440000I-200000J0D01*
G01*
X234686000Y-101440000D01*
G75*
G02*
X234486000Y-101240000I0J200000D01*
G01*
X234486000Y-100690000D01*
G75*
G02*
X234686000Y-100490000I200000J0D01*
G01*
X235086000Y-100490000D01*
G75*
G02*
X235286000Y-100690000I0J-200000D01*
G01*
G37*
G36*
G01*
X233636000Y-102214000D02*
X233636000Y-102764000D01*
G75*
G02*
X233436000Y-102964000I-200000J0D01*
G01*
X233036000Y-102964000D01*
G75*
G02*
X232836000Y-102764000I0J200000D01*
G01*
X232836000Y-102214000D01*
G75*
G02*
X233036000Y-102014000I200000J0D01*
G01*
X233436000Y-102014000D01*
G75*
G02*
X233636000Y-102214000I0J-200000D01*
G01*
G37*
G36*
G01*
X235286000Y-102214000D02*
X235286000Y-102764000D01*
G75*
G02*
X235086000Y-102964000I-200000J0D01*
G01*
X234686000Y-102964000D01*
G75*
G02*
X234486000Y-102764000I0J200000D01*
G01*
X234486000Y-102214000D01*
G75*
G02*
X234686000Y-102014000I200000J0D01*
G01*
X235086000Y-102014000D01*
G75*
G02*
X235286000Y-102214000I0J-200000D01*
G01*
G37*
G36*
G01*
X222484500Y-60981000D02*
X222484500Y-60431000D01*
G75*
G02*
X222684500Y-60231000I200000J0D01*
G01*
X223084500Y-60231000D01*
G75*
G02*
X223284500Y-60431000I0J-200000D01*
G01*
X223284500Y-60981000D01*
G75*
G02*
X223084500Y-61181000I-200000J0D01*
G01*
X222684500Y-61181000D01*
G75*
G02*
X222484500Y-60981000I0J200000D01*
G01*
G37*
G36*
G01*
X220834500Y-60981000D02*
X220834500Y-60431000D01*
G75*
G02*
X221034500Y-60231000I200000J0D01*
G01*
X221434500Y-60231000D01*
G75*
G02*
X221634500Y-60431000I0J-200000D01*
G01*
X221634500Y-60981000D01*
G75*
G02*
X221434500Y-61181000I-200000J0D01*
G01*
X221034500Y-61181000D01*
G75*
G02*
X220834500Y-60981000I0J200000D01*
G01*
G37*
G36*
G01*
X221634500Y-58907000D02*
X221634500Y-59457000D01*
G75*
G02*
X221434500Y-59657000I-200000J0D01*
G01*
X221034500Y-59657000D01*
G75*
G02*
X220834500Y-59457000I0J200000D01*
G01*
X220834500Y-58907000D01*
G75*
G02*
X221034500Y-58707000I200000J0D01*
G01*
X221434500Y-58707000D01*
G75*
G02*
X221634500Y-58907000I0J-200000D01*
G01*
G37*
G36*
G01*
X223284500Y-58907000D02*
X223284500Y-59457000D01*
G75*
G02*
X223084500Y-59657000I-200000J0D01*
G01*
X222684500Y-59657000D01*
G75*
G02*
X222484500Y-59457000I0J200000D01*
G01*
X222484500Y-58907000D01*
G75*
G02*
X222684500Y-58707000I200000J0D01*
G01*
X223084500Y-58707000D01*
G75*
G02*
X223284500Y-58907000I0J-200000D01*
G01*
G37*
G36*
G01*
X225926200Y-74481100D02*
X225926200Y-73931100D01*
G75*
G02*
X226126200Y-73731100I200000J0D01*
G01*
X226526200Y-73731100D01*
G75*
G02*
X226726200Y-73931100I0J-200000D01*
G01*
X226726200Y-74481100D01*
G75*
G02*
X226526200Y-74681100I-200000J0D01*
G01*
X226126200Y-74681100D01*
G75*
G02*
X225926200Y-74481100I0J200000D01*
G01*
G37*
G36*
G01*
X224276200Y-74481100D02*
X224276200Y-73931100D01*
G75*
G02*
X224476200Y-73731100I200000J0D01*
G01*
X224876200Y-73731100D01*
G75*
G02*
X225076200Y-73931100I0J-200000D01*
G01*
X225076200Y-74481100D01*
G75*
G02*
X224876200Y-74681100I-200000J0D01*
G01*
X224476200Y-74681100D01*
G75*
G02*
X224276200Y-74481100I0J200000D01*
G01*
G37*
G36*
G01*
X225076200Y-72343600D02*
X225076200Y-72893600D01*
G75*
G02*
X224876200Y-73093600I-200000J0D01*
G01*
X224476200Y-73093600D01*
G75*
G02*
X224276200Y-72893600I0J200000D01*
G01*
X224276200Y-72343600D01*
G75*
G02*
X224476200Y-72143600I200000J0D01*
G01*
X224876200Y-72143600D01*
G75*
G02*
X225076200Y-72343600I0J-200000D01*
G01*
G37*
G36*
G01*
X226726200Y-72343600D02*
X226726200Y-72893600D01*
G75*
G02*
X226526200Y-73093600I-200000J0D01*
G01*
X226126200Y-73093600D01*
G75*
G02*
X225926200Y-72893600I0J200000D01*
G01*
X225926200Y-72343600D01*
G75*
G02*
X226126200Y-72143600I200000J0D01*
G01*
X226526200Y-72143600D01*
G75*
G02*
X226726200Y-72343600I0J-200000D01*
G01*
G37*
G36*
G01*
X222484500Y-64664000D02*
X222484500Y-64114000D01*
G75*
G02*
X222684500Y-63914000I200000J0D01*
G01*
X223084500Y-63914000D01*
G75*
G02*
X223284500Y-64114000I0J-200000D01*
G01*
X223284500Y-64664000D01*
G75*
G02*
X223084500Y-64864000I-200000J0D01*
G01*
X222684500Y-64864000D01*
G75*
G02*
X222484500Y-64664000I0J200000D01*
G01*
G37*
G36*
G01*
X220834500Y-64664000D02*
X220834500Y-64114000D01*
G75*
G02*
X221034500Y-63914000I200000J0D01*
G01*
X221434500Y-63914000D01*
G75*
G02*
X221634500Y-64114000I0J-200000D01*
G01*
X221634500Y-64664000D01*
G75*
G02*
X221434500Y-64864000I-200000J0D01*
G01*
X221034500Y-64864000D01*
G75*
G02*
X220834500Y-64664000I0J200000D01*
G01*
G37*
G36*
G01*
X225926200Y-78799100D02*
X225926200Y-78249100D01*
G75*
G02*
X226126200Y-78049100I200000J0D01*
G01*
X226526200Y-78049100D01*
G75*
G02*
X226726200Y-78249100I0J-200000D01*
G01*
X226726200Y-78799100D01*
G75*
G02*
X226526200Y-78999100I-200000J0D01*
G01*
X226126200Y-78999100D01*
G75*
G02*
X225926200Y-78799100I0J200000D01*
G01*
G37*
G36*
G01*
X224276200Y-78799100D02*
X224276200Y-78249100D01*
G75*
G02*
X224476200Y-78049100I200000J0D01*
G01*
X224876200Y-78049100D01*
G75*
G02*
X225076200Y-78249100I0J-200000D01*
G01*
X225076200Y-78799100D01*
G75*
G02*
X224876200Y-78999100I-200000J0D01*
G01*
X224476200Y-78999100D01*
G75*
G02*
X224276200Y-78799100I0J200000D01*
G01*
G37*
G36*
G01*
X219158000Y-57256000D02*
X219158000Y-57806000D01*
G75*
G02*
X218958000Y-58006000I-200000J0D01*
G01*
X218558000Y-58006000D01*
G75*
G02*
X218358000Y-57806000I0J200000D01*
G01*
X218358000Y-57256000D01*
G75*
G02*
X218558000Y-57056000I200000J0D01*
G01*
X218958000Y-57056000D01*
G75*
G02*
X219158000Y-57256000I0J-200000D01*
G01*
G37*
G36*
G01*
X220808000Y-57256000D02*
X220808000Y-57806000D01*
G75*
G02*
X220608000Y-58006000I-200000J0D01*
G01*
X220208000Y-58006000D01*
G75*
G02*
X220008000Y-57806000I0J200000D01*
G01*
X220008000Y-57256000D01*
G75*
G02*
X220208000Y-57056000I200000J0D01*
G01*
X220608000Y-57056000D01*
G75*
G02*
X220808000Y-57256000I0J-200000D01*
G01*
G37*
G36*
G01*
X221964700Y-70527500D02*
X221964700Y-71077500D01*
G75*
G02*
X221764700Y-71277500I-200000J0D01*
G01*
X221364700Y-71277500D01*
G75*
G02*
X221164700Y-71077500I0J200000D01*
G01*
X221164700Y-70527500D01*
G75*
G02*
X221364700Y-70327500I200000J0D01*
G01*
X221764700Y-70327500D01*
G75*
G02*
X221964700Y-70527500I0J-200000D01*
G01*
G37*
G36*
G01*
X223614700Y-70527500D02*
X223614700Y-71077500D01*
G75*
G02*
X223414700Y-71277500I-200000J0D01*
G01*
X223014700Y-71277500D01*
G75*
G02*
X222814700Y-71077500I0J200000D01*
G01*
X222814700Y-70527500D01*
G75*
G02*
X223014700Y-70327500I200000J0D01*
G01*
X223414700Y-70327500D01*
G75*
G02*
X223614700Y-70527500I0J-200000D01*
G01*
G37*
D38*
X210121500Y-41148000D03*
X210121500Y-45466000D03*
X210121500Y-43307000D03*
X218685000Y-55342500D03*
X221225000Y-68487000D03*
D36*
X242506500Y-47244000D03*
D37*
X242506500Y-48514000D03*
G36*
G01*
X242099000Y-45493000D02*
X242099000Y-45693000D01*
G75*
G02*
X241999000Y-45793000I-100000J0D01*
G01*
X241739000Y-45793000D01*
G75*
G02*
X241639000Y-45693000I0J100000D01*
G01*
X241639000Y-45493000D01*
G75*
G02*
X241739000Y-45393000I100000J0D01*
G01*
X241999000Y-45393000D01*
G75*
G02*
X242099000Y-45493000I0J-100000D01*
G01*
G37*
G36*
G01*
X242739000Y-45493000D02*
X242739000Y-45693000D01*
G75*
G02*
X242639000Y-45793000I-100000J0D01*
G01*
X242379000Y-45793000D01*
G75*
G02*
X242279000Y-45693000I0J100000D01*
G01*
X242279000Y-45493000D01*
G75*
G02*
X242379000Y-45393000I100000J0D01*
G01*
X242639000Y-45393000D01*
G75*
G02*
X242739000Y-45493000I0J-100000D01*
G01*
G37*
G36*
G01*
X237940000Y-42658000D02*
X238310000Y-42658000D01*
G75*
G02*
X238445000Y-42793000I0J-135000D01*
G01*
X238445000Y-43063000D01*
G75*
G02*
X238310000Y-43198000I-135000J0D01*
G01*
X237940000Y-43198000D01*
G75*
G02*
X237805000Y-43063000I0J135000D01*
G01*
X237805000Y-42793000D01*
G75*
G02*
X237940000Y-42658000I135000J0D01*
G01*
G37*
G36*
G01*
X237940000Y-41638000D02*
X238310000Y-41638000D01*
G75*
G02*
X238445000Y-41773000I0J-135000D01*
G01*
X238445000Y-42043000D01*
G75*
G02*
X238310000Y-42178000I-135000J0D01*
G01*
X237940000Y-42178000D01*
G75*
G02*
X237805000Y-42043000I0J135000D01*
G01*
X237805000Y-41773000D01*
G75*
G02*
X237940000Y-41638000I135000J0D01*
G01*
G37*
G36*
G01*
X236670000Y-42658000D02*
X237040000Y-42658000D01*
G75*
G02*
X237175000Y-42793000I0J-135000D01*
G01*
X237175000Y-43063000D01*
G75*
G02*
X237040000Y-43198000I-135000J0D01*
G01*
X236670000Y-43198000D01*
G75*
G02*
X236535000Y-43063000I0J135000D01*
G01*
X236535000Y-42793000D01*
G75*
G02*
X236670000Y-42658000I135000J0D01*
G01*
G37*
G36*
G01*
X236670000Y-41638000D02*
X237040000Y-41638000D01*
G75*
G02*
X237175000Y-41773000I0J-135000D01*
G01*
X237175000Y-42043000D01*
G75*
G02*
X237040000Y-42178000I-135000J0D01*
G01*
X236670000Y-42178000D01*
G75*
G02*
X236535000Y-42043000I0J135000D01*
G01*
X236535000Y-41773000D01*
G75*
G02*
X236670000Y-41638000I135000J0D01*
G01*
G37*
G36*
G01*
X235400000Y-42658000D02*
X235770000Y-42658000D01*
G75*
G02*
X235905000Y-42793000I0J-135000D01*
G01*
X235905000Y-43063000D01*
G75*
G02*
X235770000Y-43198000I-135000J0D01*
G01*
X235400000Y-43198000D01*
G75*
G02*
X235265000Y-43063000I0J135000D01*
G01*
X235265000Y-42793000D01*
G75*
G02*
X235400000Y-42658000I135000J0D01*
G01*
G37*
G36*
G01*
X235400000Y-41638000D02*
X235770000Y-41638000D01*
G75*
G02*
X235905000Y-41773000I0J-135000D01*
G01*
X235905000Y-42043000D01*
G75*
G02*
X235770000Y-42178000I-135000J0D01*
G01*
X235400000Y-42178000D01*
G75*
G02*
X235265000Y-42043000I0J135000D01*
G01*
X235265000Y-41773000D01*
G75*
G02*
X235400000Y-41638000I135000J0D01*
G01*
G37*
G36*
G01*
X245433000Y-42658000D02*
X245803000Y-42658000D01*
G75*
G02*
X245938000Y-42793000I0J-135000D01*
G01*
X245938000Y-43063000D01*
G75*
G02*
X245803000Y-43198000I-135000J0D01*
G01*
X245433000Y-43198000D01*
G75*
G02*
X245298000Y-43063000I0J135000D01*
G01*
X245298000Y-42793000D01*
G75*
G02*
X245433000Y-42658000I135000J0D01*
G01*
G37*
G36*
G01*
X245433000Y-41638000D02*
X245803000Y-41638000D01*
G75*
G02*
X245938000Y-41773000I0J-135000D01*
G01*
X245938000Y-42043000D01*
G75*
G02*
X245803000Y-42178000I-135000J0D01*
G01*
X245433000Y-42178000D01*
G75*
G02*
X245298000Y-42043000I0J135000D01*
G01*
X245298000Y-41773000D01*
G75*
G02*
X245433000Y-41638000I135000J0D01*
G01*
G37*
G36*
G01*
X244163000Y-42658000D02*
X244533000Y-42658000D01*
G75*
G02*
X244668000Y-42793000I0J-135000D01*
G01*
X244668000Y-43063000D01*
G75*
G02*
X244533000Y-43198000I-135000J0D01*
G01*
X244163000Y-43198000D01*
G75*
G02*
X244028000Y-43063000I0J135000D01*
G01*
X244028000Y-42793000D01*
G75*
G02*
X244163000Y-42658000I135000J0D01*
G01*
G37*
G36*
G01*
X244163000Y-41638000D02*
X244533000Y-41638000D01*
G75*
G02*
X244668000Y-41773000I0J-135000D01*
G01*
X244668000Y-42043000D01*
G75*
G02*
X244533000Y-42178000I-135000J0D01*
G01*
X244163000Y-42178000D01*
G75*
G02*
X244028000Y-42043000I0J135000D01*
G01*
X244028000Y-41773000D01*
G75*
G02*
X244163000Y-41638000I135000J0D01*
G01*
G37*
G36*
G01*
X242893000Y-42658000D02*
X243263000Y-42658000D01*
G75*
G02*
X243398000Y-42793000I0J-135000D01*
G01*
X243398000Y-43063000D01*
G75*
G02*
X243263000Y-43198000I-135000J0D01*
G01*
X242893000Y-43198000D01*
G75*
G02*
X242758000Y-43063000I0J135000D01*
G01*
X242758000Y-42793000D01*
G75*
G02*
X242893000Y-42658000I135000J0D01*
G01*
G37*
G36*
G01*
X242893000Y-41638000D02*
X243263000Y-41638000D01*
G75*
G02*
X243398000Y-41773000I0J-135000D01*
G01*
X243398000Y-42043000D01*
G75*
G02*
X243263000Y-42178000I-135000J0D01*
G01*
X242893000Y-42178000D01*
G75*
G02*
X242758000Y-42043000I0J135000D01*
G01*
X242758000Y-41773000D01*
G75*
G02*
X242893000Y-41638000I135000J0D01*
G01*
G37*
G36*
G01*
X230447000Y-42721500D02*
X230817000Y-42721500D01*
G75*
G02*
X230952000Y-42856500I0J-135000D01*
G01*
X230952000Y-43126500D01*
G75*
G02*
X230817000Y-43261500I-135000J0D01*
G01*
X230447000Y-43261500D01*
G75*
G02*
X230312000Y-43126500I0J135000D01*
G01*
X230312000Y-42856500D01*
G75*
G02*
X230447000Y-42721500I135000J0D01*
G01*
G37*
G36*
G01*
X230447000Y-41701500D02*
X230817000Y-41701500D01*
G75*
G02*
X230952000Y-41836500I0J-135000D01*
G01*
X230952000Y-42106500D01*
G75*
G02*
X230817000Y-42241500I-135000J0D01*
G01*
X230447000Y-42241500D01*
G75*
G02*
X230312000Y-42106500I0J135000D01*
G01*
X230312000Y-41836500D01*
G75*
G02*
X230447000Y-41701500I135000J0D01*
G01*
G37*
G36*
G01*
X229177000Y-42721500D02*
X229547000Y-42721500D01*
G75*
G02*
X229682000Y-42856500I0J-135000D01*
G01*
X229682000Y-43126500D01*
G75*
G02*
X229547000Y-43261500I-135000J0D01*
G01*
X229177000Y-43261500D01*
G75*
G02*
X229042000Y-43126500I0J135000D01*
G01*
X229042000Y-42856500D01*
G75*
G02*
X229177000Y-42721500I135000J0D01*
G01*
G37*
G36*
G01*
X229177000Y-41701500D02*
X229547000Y-41701500D01*
G75*
G02*
X229682000Y-41836500I0J-135000D01*
G01*
X229682000Y-42106500D01*
G75*
G02*
X229547000Y-42241500I-135000J0D01*
G01*
X229177000Y-42241500D01*
G75*
G02*
X229042000Y-42106500I0J135000D01*
G01*
X229042000Y-41836500D01*
G75*
G02*
X229177000Y-41701500I135000J0D01*
G01*
G37*
G36*
G01*
X227907000Y-42721500D02*
X228277000Y-42721500D01*
G75*
G02*
X228412000Y-42856500I0J-135000D01*
G01*
X228412000Y-43126500D01*
G75*
G02*
X228277000Y-43261500I-135000J0D01*
G01*
X227907000Y-43261500D01*
G75*
G02*
X227772000Y-43126500I0J135000D01*
G01*
X227772000Y-42856500D01*
G75*
G02*
X227907000Y-42721500I135000J0D01*
G01*
G37*
G36*
G01*
X227907000Y-41701500D02*
X228277000Y-41701500D01*
G75*
G02*
X228412000Y-41836500I0J-135000D01*
G01*
X228412000Y-42106500D01*
G75*
G02*
X228277000Y-42241500I-135000J0D01*
G01*
X227907000Y-42241500D01*
G75*
G02*
X227772000Y-42106500I0J135000D01*
G01*
X227772000Y-41836500D01*
G75*
G02*
X227907000Y-41701500I135000J0D01*
G01*
G37*
G36*
G01*
X224414500Y-41705500D02*
X224784500Y-41705500D01*
G75*
G02*
X224919500Y-41840500I0J-135000D01*
G01*
X224919500Y-42110500D01*
G75*
G02*
X224784500Y-42245500I-135000J0D01*
G01*
X224414500Y-42245500D01*
G75*
G02*
X224279500Y-42110500I0J135000D01*
G01*
X224279500Y-41840500D01*
G75*
G02*
X224414500Y-41705500I135000J0D01*
G01*
G37*
G36*
G01*
X224414500Y-40685500D02*
X224784500Y-40685500D01*
G75*
G02*
X224919500Y-40820500I0J-135000D01*
G01*
X224919500Y-41090500D01*
G75*
G02*
X224784500Y-41225500I-135000J0D01*
G01*
X224414500Y-41225500D01*
G75*
G02*
X224279500Y-41090500I0J135000D01*
G01*
X224279500Y-40820500D01*
G75*
G02*
X224414500Y-40685500I135000J0D01*
G01*
G37*
G36*
G01*
X220553000Y-55569500D02*
X220553000Y-55369500D01*
G75*
G02*
X220653000Y-55269500I100000J0D01*
G01*
X220913000Y-55269500D01*
G75*
G02*
X221013000Y-55369500I0J-100000D01*
G01*
X221013000Y-55569500D01*
G75*
G02*
X220913000Y-55669500I-100000J0D01*
G01*
X220653000Y-55669500D01*
G75*
G02*
X220553000Y-55569500I0J100000D01*
G01*
G37*
G36*
G01*
X219913000Y-55569500D02*
X219913000Y-55369500D01*
G75*
G02*
X220013000Y-55269500I100000J0D01*
G01*
X220273000Y-55269500D01*
G75*
G02*
X220373000Y-55369500I0J-100000D01*
G01*
X220373000Y-55569500D01*
G75*
G02*
X220273000Y-55669500I-100000J0D01*
G01*
X220013000Y-55669500D01*
G75*
G02*
X219913000Y-55569500I0J100000D01*
G01*
G37*
G36*
G01*
X220553000Y-54807500D02*
X220553000Y-54607500D01*
G75*
G02*
X220653000Y-54507500I100000J0D01*
G01*
X220913000Y-54507500D01*
G75*
G02*
X221013000Y-54607500I0J-100000D01*
G01*
X221013000Y-54807500D01*
G75*
G02*
X220913000Y-54907500I-100000J0D01*
G01*
X220653000Y-54907500D01*
G75*
G02*
X220553000Y-54807500I0J100000D01*
G01*
G37*
G36*
G01*
X219913000Y-54807500D02*
X219913000Y-54607500D01*
G75*
G02*
X220013000Y-54507500I100000J0D01*
G01*
X220273000Y-54507500D01*
G75*
G02*
X220373000Y-54607500I0J-100000D01*
G01*
X220373000Y-54807500D01*
G75*
G02*
X220273000Y-54907500I-100000J0D01*
G01*
X220013000Y-54907500D01*
G75*
G02*
X219913000Y-54807500I0J100000D01*
G01*
G37*
G36*
G01*
X239432000Y-108256400D02*
X239432000Y-108456400D01*
G75*
G02*
X239332000Y-108556400I-100000J0D01*
G01*
X239072000Y-108556400D01*
G75*
G02*
X238972000Y-108456400I0J100000D01*
G01*
X238972000Y-108256400D01*
G75*
G02*
X239072000Y-108156400I100000J0D01*
G01*
X239332000Y-108156400D01*
G75*
G02*
X239432000Y-108256400I0J-100000D01*
G01*
G37*
G36*
G01*
X240072000Y-108256400D02*
X240072000Y-108456400D01*
G75*
G02*
X239972000Y-108556400I-100000J0D01*
G01*
X239712000Y-108556400D01*
G75*
G02*
X239612000Y-108456400I0J100000D01*
G01*
X239612000Y-108256400D01*
G75*
G02*
X239712000Y-108156400I100000J0D01*
G01*
X239972000Y-108156400D01*
G75*
G02*
X240072000Y-108256400I0J-100000D01*
G01*
G37*
D39*
X239390000Y-38115000D03*
X238120000Y-38115000D03*
X236850000Y-38115000D03*
D40*
X235580000Y-38115000D03*
D39*
X246890000Y-38115000D03*
X245620000Y-38115000D03*
X244350000Y-38115000D03*
D40*
X243080000Y-38115000D03*
D39*
X231890000Y-38115000D03*
X230620000Y-38115000D03*
X229350000Y-38115000D03*
D40*
X228080000Y-38115000D03*
D34*
X224620000Y-38115000D03*
D35*
X222080000Y-38115000D03*
G36*
G01*
X210647500Y-72387000D02*
X210847500Y-72387000D01*
G75*
G02*
X210947500Y-72487000I0J-100000D01*
G01*
X210947500Y-72747000D01*
G75*
G02*
X210847500Y-72847000I-100000J0D01*
G01*
X210647500Y-72847000D01*
G75*
G02*
X210547500Y-72747000I0J100000D01*
G01*
X210547500Y-72487000D01*
G75*
G02*
X210647500Y-72387000I100000J0D01*
G01*
G37*
G36*
G01*
X210647500Y-71747000D02*
X210847500Y-71747000D01*
G75*
G02*
X210947500Y-71847000I0J-100000D01*
G01*
X210947500Y-72107000D01*
G75*
G02*
X210847500Y-72207000I-100000J0D01*
G01*
X210647500Y-72207000D01*
G75*
G02*
X210547500Y-72107000I0J100000D01*
G01*
X210547500Y-71847000D01*
G75*
G02*
X210647500Y-71747000I100000J0D01*
G01*
G37*
G36*
G01*
X217959500Y-72080000D02*
X217759500Y-72080000D01*
G75*
G02*
X217659500Y-71980000I0J100000D01*
G01*
X217659500Y-71720000D01*
G75*
G02*
X217759500Y-71620000I100000J0D01*
G01*
X217959500Y-71620000D01*
G75*
G02*
X218059500Y-71720000I0J-100000D01*
G01*
X218059500Y-71980000D01*
G75*
G02*
X217959500Y-72080000I-100000J0D01*
G01*
G37*
G36*
G01*
X217959500Y-72720000D02*
X217759500Y-72720000D01*
G75*
G02*
X217659500Y-72620000I0J100000D01*
G01*
X217659500Y-72360000D01*
G75*
G02*
X217759500Y-72260000I100000J0D01*
G01*
X217959500Y-72260000D01*
G75*
G02*
X218059500Y-72360000I0J-100000D01*
G01*
X218059500Y-72620000D01*
G75*
G02*
X217959500Y-72720000I-100000J0D01*
G01*
G37*
G36*
G01*
X214647500Y-69349000D02*
X214647500Y-69149000D01*
G75*
G02*
X214747500Y-69049000I100000J0D01*
G01*
X215007500Y-69049000D01*
G75*
G02*
X215107500Y-69149000I0J-100000D01*
G01*
X215107500Y-69349000D01*
G75*
G02*
X215007500Y-69449000I-100000J0D01*
G01*
X214747500Y-69449000D01*
G75*
G02*
X214647500Y-69349000I0J100000D01*
G01*
G37*
G36*
G01*
X214007500Y-69349000D02*
X214007500Y-69149000D01*
G75*
G02*
X214107500Y-69049000I100000J0D01*
G01*
X214367500Y-69049000D01*
G75*
G02*
X214467500Y-69149000I0J-100000D01*
G01*
X214467500Y-69349000D01*
G75*
G02*
X214367500Y-69449000I-100000J0D01*
G01*
X214107500Y-69449000D01*
G75*
G02*
X214007500Y-69349000I0J100000D01*
G01*
G37*
G36*
G01*
X219028200Y-78531600D02*
X219528200Y-78531600D01*
G75*
G02*
X219753200Y-78756600I0J-225000D01*
G01*
X219753200Y-79206600D01*
G75*
G02*
X219528200Y-79431600I-225000J0D01*
G01*
X219028200Y-79431600D01*
G75*
G02*
X218803200Y-79206600I0J225000D01*
G01*
X218803200Y-78756600D01*
G75*
G02*
X219028200Y-78531600I225000J0D01*
G01*
G37*
G36*
G01*
X219028200Y-76981600D02*
X219528200Y-76981600D01*
G75*
G02*
X219753200Y-77206600I0J-225000D01*
G01*
X219753200Y-77656600D01*
G75*
G02*
X219528200Y-77881600I-225000J0D01*
G01*
X219028200Y-77881600D01*
G75*
G02*
X218803200Y-77656600I0J225000D01*
G01*
X218803200Y-77206600D01*
G75*
G02*
X219028200Y-76981600I225000J0D01*
G01*
G37*
G36*
G01*
X213407000Y-77635000D02*
X213407000Y-78135000D01*
G75*
G02*
X213182000Y-78360000I-225000J0D01*
G01*
X212732000Y-78360000D01*
G75*
G02*
X212507000Y-78135000I0J225000D01*
G01*
X212507000Y-77635000D01*
G75*
G02*
X212732000Y-77410000I225000J0D01*
G01*
X213182000Y-77410000D01*
G75*
G02*
X213407000Y-77635000I0J-225000D01*
G01*
G37*
G36*
G01*
X214957000Y-77635000D02*
X214957000Y-78135000D01*
G75*
G02*
X214732000Y-78360000I-225000J0D01*
G01*
X214282000Y-78360000D01*
G75*
G02*
X214057000Y-78135000I0J225000D01*
G01*
X214057000Y-77635000D01*
G75*
G02*
X214282000Y-77410000I225000J0D01*
G01*
X214732000Y-77410000D01*
G75*
G02*
X214957000Y-77635000I0J-225000D01*
G01*
G37*
G36*
G01*
X234733000Y-98198000D02*
X234733000Y-98398000D01*
G75*
G02*
X234633000Y-98498000I-100000J0D01*
G01*
X234373000Y-98498000D01*
G75*
G02*
X234273000Y-98398000I0J100000D01*
G01*
X234273000Y-98198000D01*
G75*
G02*
X234373000Y-98098000I100000J0D01*
G01*
X234633000Y-98098000D01*
G75*
G02*
X234733000Y-98198000I0J-100000D01*
G01*
G37*
G36*
G01*
X235373000Y-98198000D02*
X235373000Y-98398000D01*
G75*
G02*
X235273000Y-98498000I-100000J0D01*
G01*
X235013000Y-98498000D01*
G75*
G02*
X234913000Y-98398000I0J100000D01*
G01*
X234913000Y-98198000D01*
G75*
G02*
X235013000Y-98098000I100000J0D01*
G01*
X235273000Y-98098000D01*
G75*
G02*
X235373000Y-98198000I0J-100000D01*
G01*
G37*
G36*
G01*
X218731000Y-58574000D02*
X218731000Y-58774000D01*
G75*
G02*
X218631000Y-58874000I-100000J0D01*
G01*
X218371000Y-58874000D01*
G75*
G02*
X218271000Y-58774000I0J100000D01*
G01*
X218271000Y-58574000D01*
G75*
G02*
X218371000Y-58474000I100000J0D01*
G01*
X218631000Y-58474000D01*
G75*
G02*
X218731000Y-58574000I0J-100000D01*
G01*
G37*
G36*
G01*
X219371000Y-58574000D02*
X219371000Y-58774000D01*
G75*
G02*
X219271000Y-58874000I-100000J0D01*
G01*
X219011000Y-58874000D01*
G75*
G02*
X218911000Y-58774000I0J100000D01*
G01*
X218911000Y-58574000D01*
G75*
G02*
X219011000Y-58474000I100000J0D01*
G01*
X219271000Y-58474000D01*
G75*
G02*
X219371000Y-58574000I0J-100000D01*
G01*
G37*
G36*
G01*
X223474500Y-72480000D02*
X223674500Y-72480000D01*
G75*
G02*
X223774500Y-72580000I0J-100000D01*
G01*
X223774500Y-72840000D01*
G75*
G02*
X223674500Y-72940000I-100000J0D01*
G01*
X223474500Y-72940000D01*
G75*
G02*
X223374500Y-72840000I0J100000D01*
G01*
X223374500Y-72580000D01*
G75*
G02*
X223474500Y-72480000I100000J0D01*
G01*
G37*
G36*
G01*
X223474500Y-71840000D02*
X223674500Y-71840000D01*
G75*
G02*
X223774500Y-71940000I0J-100000D01*
G01*
X223774500Y-72200000D01*
G75*
G02*
X223674500Y-72300000I-100000J0D01*
G01*
X223474500Y-72300000D01*
G75*
G02*
X223374500Y-72200000I0J100000D01*
G01*
X223374500Y-71940000D01*
G75*
G02*
X223474500Y-71840000I100000J0D01*
G01*
G37*
D12*
X218376500Y-62230000D03*
G36*
G01*
X217451500Y-60805000D02*
X217301500Y-60805000D01*
G75*
G02*
X217226500Y-60730000I0J75000D01*
G01*
X217226500Y-59430000D01*
G75*
G02*
X217301500Y-59355000I75000J0D01*
G01*
X217451500Y-59355000D01*
G75*
G02*
X217526500Y-59430000I0J-75000D01*
G01*
X217526500Y-60730000D01*
G75*
G02*
X217451500Y-60805000I-75000J0D01*
G01*
G37*
G36*
G01*
X217951500Y-60805000D02*
X217801500Y-60805000D01*
G75*
G02*
X217726500Y-60730000I0J75000D01*
G01*
X217726500Y-59430000D01*
G75*
G02*
X217801500Y-59355000I75000J0D01*
G01*
X217951500Y-59355000D01*
G75*
G02*
X218026500Y-59430000I0J-75000D01*
G01*
X218026500Y-60730000D01*
G75*
G02*
X217951500Y-60805000I-75000J0D01*
G01*
G37*
G36*
G01*
X218451500Y-60805000D02*
X218301500Y-60805000D01*
G75*
G02*
X218226500Y-60730000I0J75000D01*
G01*
X218226500Y-59430000D01*
G75*
G02*
X218301500Y-59355000I75000J0D01*
G01*
X218451500Y-59355000D01*
G75*
G02*
X218526500Y-59430000I0J-75000D01*
G01*
X218526500Y-60730000D01*
G75*
G02*
X218451500Y-60805000I-75000J0D01*
G01*
G37*
G36*
G01*
X218951500Y-60805000D02*
X218801500Y-60805000D01*
G75*
G02*
X218726500Y-60730000I0J75000D01*
G01*
X218726500Y-59430000D01*
G75*
G02*
X218801500Y-59355000I75000J0D01*
G01*
X218951500Y-59355000D01*
G75*
G02*
X219026500Y-59430000I0J-75000D01*
G01*
X219026500Y-60730000D01*
G75*
G02*
X218951500Y-60805000I-75000J0D01*
G01*
G37*
G36*
G01*
X219451500Y-60805000D02*
X219301500Y-60805000D01*
G75*
G02*
X219226500Y-60730000I0J75000D01*
G01*
X219226500Y-59430000D01*
G75*
G02*
X219301500Y-59355000I75000J0D01*
G01*
X219451500Y-59355000D01*
G75*
G02*
X219526500Y-59430000I0J-75000D01*
G01*
X219526500Y-60730000D01*
G75*
G02*
X219451500Y-60805000I-75000J0D01*
G01*
G37*
G36*
G01*
X219451500Y-65105000D02*
X219301500Y-65105000D01*
G75*
G02*
X219226500Y-65030000I0J75000D01*
G01*
X219226500Y-63730000D01*
G75*
G02*
X219301500Y-63655000I75000J0D01*
G01*
X219451500Y-63655000D01*
G75*
G02*
X219526500Y-63730000I0J-75000D01*
G01*
X219526500Y-65030000D01*
G75*
G02*
X219451500Y-65105000I-75000J0D01*
G01*
G37*
G36*
G01*
X218951500Y-65105000D02*
X218801500Y-65105000D01*
G75*
G02*
X218726500Y-65030000I0J75000D01*
G01*
X218726500Y-63730000D01*
G75*
G02*
X218801500Y-63655000I75000J0D01*
G01*
X218951500Y-63655000D01*
G75*
G02*
X219026500Y-63730000I0J-75000D01*
G01*
X219026500Y-65030000D01*
G75*
G02*
X218951500Y-65105000I-75000J0D01*
G01*
G37*
G36*
G01*
X218451500Y-65105000D02*
X218301500Y-65105000D01*
G75*
G02*
X218226500Y-65030000I0J75000D01*
G01*
X218226500Y-63730000D01*
G75*
G02*
X218301500Y-63655000I75000J0D01*
G01*
X218451500Y-63655000D01*
G75*
G02*
X218526500Y-63730000I0J-75000D01*
G01*
X218526500Y-65030000D01*
G75*
G02*
X218451500Y-65105000I-75000J0D01*
G01*
G37*
G36*
G01*
X217951500Y-65105000D02*
X217801500Y-65105000D01*
G75*
G02*
X217726500Y-65030000I0J75000D01*
G01*
X217726500Y-63730000D01*
G75*
G02*
X217801500Y-63655000I75000J0D01*
G01*
X217951500Y-63655000D01*
G75*
G02*
X218026500Y-63730000I0J-75000D01*
G01*
X218026500Y-65030000D01*
G75*
G02*
X217951500Y-65105000I-75000J0D01*
G01*
G37*
G36*
G01*
X217451500Y-65105000D02*
X217301500Y-65105000D01*
G75*
G02*
X217226500Y-65030000I0J75000D01*
G01*
X217226500Y-63730000D01*
G75*
G02*
X217301500Y-63655000I75000J0D01*
G01*
X217451500Y-63655000D01*
G75*
G02*
X217526500Y-63730000I0J-75000D01*
G01*
X217526500Y-65030000D01*
G75*
G02*
X217451500Y-65105000I-75000J0D01*
G01*
G37*
M02*
