M48
INCH,TZ
T1C0.0042
T2C0.0120
T3C0.0150
T4C0.0256
T5C0.0354
T6C0.0394
T7C0.0598
T8C0.0630
%
G90
G05
T1
X84101Y-40490
X84101Y-40657
X84101Y-40824
X84101Y-40992
X84367Y-40490
X84367Y-40657
X84367Y-40824
X84367Y-40992
X84633Y-40490
X84633Y-40657
X84633Y-40824
X84633Y-40992
X84899Y-40490
X84899Y-40657
X84899Y-40824
X84899Y-40992
T2
X80125Y-38100
X80375Y-32000
X80452Y-27775
X80475Y-29975
X80500Y-29150
X80585Y-31790
X80600Y-15050
X80612Y-27325
X80750Y-34225
X80750Y-34475
X80775Y-32150
X81000Y-34225
X81000Y-34475
X81150Y-29750
X81200Y-31975
X81225Y-25950
X81225Y-26225
X81225Y-26500
X81250Y-28200
X81250Y-28725
X81250Y-28975
X81250Y-29300
X81250Y-34225
X81250Y-34475
X81350Y-25150
X81400Y-24800
X81500Y-24550
X81500Y-25975
X81500Y-34225
X81500Y-34475
X81625Y-31900
X81700Y-25400
X81700Y-27725
X81700Y-36325
X81725Y-24850
X81750Y-34225
X81750Y-34475
X81775Y-26000
X81775Y-26875
X81800Y-26350
X81800Y-29700
X81800Y-30150
X81824Y-28500
X81824Y-29450
X81825Y-27925
X81825Y-29200
X81925Y-35225
X82000Y-34225
X82000Y-34475
X82200Y-35200
X82425Y-24425
X82425Y-34825
X82450Y-29200
X82450Y-29500
X82475Y-27700
X82475Y-30820
X82525Y-25050
X82575Y-28650
X82725Y-25300
X82725Y-26775
X82800Y-27750
X82825Y-32825
X82875Y-33200
X82900Y-24450
X82950Y-25050
X83000Y-41675
X83025Y-41375
X83075Y-35625
X83075Y-35900
X83075Y-36175
X83075Y-36425
X83100Y-21300
X83100Y-23875
X83125Y-27700
X83175Y-28250
X83200Y-25300
X83275Y-23125
X83325Y-35625
X83325Y-35900
X83325Y-36175
X83325Y-36425
X83375Y-25000
X83400Y-34800
X83445Y-32140
X83445Y-32370
X83475Y-35200
X83475Y-41475
X83550Y-33375
X83575Y-35625
X83575Y-35900
X83575Y-36175
X83575Y-36425
X83745Y-32140
X83745Y-32370
X83750Y-38325
X83775Y-30025
X83800Y-30575
X83800Y-30825
X84000Y-22950
X84000Y-35200
X84025Y-23325
X84025Y-23600
X84025Y-24000
X84025Y-24300
X84025Y-24625
X84025Y-24950
X84055Y-32140
X84055Y-32370
X84125Y-33800
X84200Y-34250
X84305Y-26740
X84400Y-36600
X84400Y-37150
X84450Y-37875
X84525Y-36025
X84575Y-35550
X84637Y-27884
X84637Y-28234
X84637Y-28534
X84675Y-35000
X84700Y-37550
X84725Y-17450
X84800Y-30600
X84825Y-26525
X84987Y-27884
X84987Y-28234
X84987Y-28534
X85050Y-42275
X85100Y-32875
X85100Y-38175
X85175Y-24525
X85200Y-21075
X85200Y-21500
X85200Y-21950
X85275Y-19900
X85325Y-23425
X85325Y-23675
X85325Y-23925
X85375Y-20850
X85400Y-21275
X85400Y-21725
X85400Y-42075
X85525Y-25850
X85575Y-20650
X85575Y-26350
X85575Y-36800
X85725Y-26550
X85725Y-26875
X85750Y-37725
X85775Y-35825
X85775Y-40025
X85775Y-40275
X85775Y-40525
X85775Y-40775
X85775Y-41025
X85775Y-41450
X85925Y-26425
X86000Y-26100
X86000Y-26719
X86000Y-31100
X86000Y-42075
X86150Y-38075
X86175Y-26525
X86275Y-35200
X86300Y-26122
X86325Y-28025
X86375Y-29575
X86450Y-27425
X86525Y-20850
X86525Y-29190
X86550Y-39125
X86600Y-20200
X86600Y-38725
X86700Y-31325
X86731Y-24289
X86731Y-24573
X86735Y-24859
X86780Y-29765
X86780Y-30040
X86780Y-30365
X86800Y-20750
X86800Y-29500
X86854Y-28929
X86875Y-38725
X86875Y-39025
X86875Y-39300
X86875Y-39600
X86900Y-32150
X86950Y-31450
X86975Y-28125
X87000Y-20200
X87050Y-40900
X87100Y-20775
X87100Y-37950
X87107Y-24293
X87107Y-24575
X87107Y-24859
X87175Y-38725
X87175Y-39025
X87175Y-39300
X87175Y-39600
X87200Y-21475
X87225Y-29900
X87225Y-30250
X87325Y-21750
X87375Y-20200
X87375Y-20850
X87450Y-23900
X87450Y-25350
X87475Y-39300
X87475Y-39600
X87525Y-24291
X87525Y-24575
X87525Y-24861
X87525Y-40375
X87550Y-20675
X87650Y-31435
X87675Y-20200
X87675Y-29900
X87675Y-30250
X87700Y-41775
X87750Y-28250
X87775Y-39300
X87775Y-39600
X87875Y-20625
X87923Y-24293
X87923Y-24861
X87925Y-24575
X87975Y-30200
X88050Y-25650
X88150Y-28625
X88175Y-20200
X88175Y-20850
X88225Y-26625
X88250Y-25400
X88344Y-34869
X88475Y-26625
X88550Y-25550
X88637Y-34787
X88650Y-20200
X88650Y-20850
X88700Y-25750
X88719Y-31167
X89100Y-20200
X89125Y-20850
X89375Y-30200
X89575Y-20200
X89600Y-20850
X90050Y-20200
X90075Y-20850
X90175Y-30200
X90525Y-20200
X90550Y-20850
X90775Y-29900
X91000Y-20200
X91020Y-36595
X91025Y-20850
X91063Y-36313
X91120Y-35995
X91125Y-29775
X91150Y-35675
X91200Y-37250
X91225Y-35375
X91242Y-35092
X91450Y-29925
X91475Y-20200
X91500Y-20850
X91600Y-30250
X91800Y-30050
X91950Y-20200
X91975Y-20850
X92050Y-28900
X92100Y-38700
X92225Y-30175
X92300Y-31150
X92400Y-20200
X92425Y-20850
X92450Y-26850
X92675Y-32650
X92700Y-36075
X92700Y-36375
X92725Y-41800
X92802Y-37853
X92875Y-20200
X92900Y-20850
X92925Y-34550
X93350Y-20200
X93375Y-20850
X93525Y-37825
X93825Y-20200
X93825Y-20850
X94275Y-20200
X94300Y-20850
X94525Y-28475
X94525Y-33800
X94625Y-28225
X94625Y-30775
X94625Y-31450
X94700Y-42650
X94800Y-28800
X94950Y-27275
X94975Y-28225
X94980Y-26420
X95225Y-18250
X95625Y-21225
X95950Y-41025
X96025Y-42200
X96250Y-23750
X96250Y-26375
X96250Y-26650
X96250Y-26925
X96250Y-27200
X96250Y-27500
X96250Y-27825
X96300Y-28050
X96300Y-28400
X96300Y-28675
X96300Y-28950
X96300Y-29225
X96300Y-29500
X96300Y-29775
X96825Y-29975
X96900Y-23750
X96900Y-24200
X96900Y-25625
X96900Y-26725
X96900Y-27200
X96900Y-27675
X96900Y-28150
X96900Y-28525
X96900Y-28825
X96900Y-29275
X96900Y-29725
X96975Y-33825
T3
X80325Y-32800
X80975Y-41925
X81200Y-24375
X81775Y-24375
X82780Y-25865
X84800Y-30925
X84825Y-23700
X85855Y-30265
X85935Y-16340
X86070Y-19215
X88625Y-24200
X89125Y-35850
X89127Y-25598
X89175Y-24200
X89375Y-37450
X89775Y-24200
X89873Y-25550
X90375Y-24200
X90375Y-25600
X90725Y-30200
X90975Y-24200
X90975Y-25575
X91125Y-32600
X91457Y-25557
X91575Y-24200
X92068Y-25583
X92175Y-24200
X92525Y-28075
X92600Y-29800
X92775Y-24200
X92775Y-25597
X93375Y-24200
X93375Y-25600
X93422Y-30159
X93595Y-30425
X93850Y-26800
X94075Y-27250
X94900Y-29650
T4
X80850Y-14200
X80850Y-14700
X88650Y-22250
X89150Y-22250
X89650Y-22250
X90150Y-22250
X90650Y-22250
X91150Y-22250
X91650Y-22250
X92150Y-22250
X92650Y-22250
X93150Y-22250
X93650Y-22250
X94150Y-22250
X94650Y-22250
X95150Y-22250
X95475Y-18600
X95475Y-19100
X95650Y-22250
X96150Y-22250
X96650Y-22250
X96750Y-18600
X96750Y-19100
X97150Y-22250
T5
X79375Y-41050
X79375Y-42050
X87433Y-15006
X88433Y-15006
X89795Y-15006
X90295Y-15006
X90795Y-15006
X91295Y-15006
X92748Y-15006
X93248Y-15006
X93748Y-15006
X94248Y-15006
X95701Y-15006
X96201Y-15006
X96701Y-15006
X97201Y-15006
T6
X79475Y-16350
X79475Y-17350
X79475Y-18350
X87550Y-17900
X87550Y-18900
X88550Y-17900
X88550Y-18900
X89550Y-17900
X89550Y-18900
T7
X80050Y-37075
X80050Y-39075
T8
X79626Y-34547
X96752Y-20571
T6
G00X84753Y-14025
M15
G01X85147Y-14025
M16
G05
G00X85541Y-14970
M15
G01X85934Y-14970
M16
G05
G00X85541Y-17135
M15
G01X85934Y-17135
M16
G05
T0
M30
