G04 #@! TF.GenerationSoftware,KiCad,Pcbnew,5.1.10*
G04 #@! TF.CreationDate,2021-08-02T17:42:28-04:00*
G04 #@! TF.ProjectId,mist-eeg,6d697374-2d65-4656-972e-6b696361645f,1C*
G04 #@! TF.SameCoordinates,Original*
G04 #@! TF.FileFunction,Legend,Top*
G04 #@! TF.FilePolarity,Positive*
%FSLAX46Y46*%
G04 Gerber Fmt 4.6, Leading zero omitted, Abs format (unit mm)*
G04 Created by KiCad (PCBNEW 5.1.10) date 2021-08-02 17:42:28*
%MOMM*%
%LPD*%
G01*
G04 APERTURE LIST*
%ADD10C,0.300000*%
%ADD11C,0.120000*%
%ADD12C,0.150000*%
%ADD13C,0.050000*%
G04 APERTURE END LIST*
D10*
X208426928Y-93535642D02*
X209926928Y-93535642D01*
X208426928Y-94249928D02*
X209926928Y-94249928D01*
X208426928Y-95107071D01*
X209926928Y-95107071D01*
X208569785Y-95821357D02*
X208498357Y-95892785D01*
X208426928Y-95821357D01*
X208498357Y-95749928D01*
X208569785Y-95821357D01*
X208426928Y-95821357D01*
X209355500Y-95821357D02*
X209284071Y-95892785D01*
X209212642Y-95821357D01*
X209284071Y-95749928D01*
X209355500Y-95821357D01*
X209212642Y-95821357D01*
D11*
X199961500Y-90043000D02*
X199961500Y-49974500D01*
X205295500Y-90043000D02*
X199961500Y-90043000D01*
X248031000Y-90043000D02*
X214249000Y-90043000D01*
X248031000Y-49974500D02*
X248031000Y-90043000D01*
X199961500Y-49974500D02*
X248031000Y-49974500D01*
D12*
X229957880Y-81622380D02*
X229957880Y-82431904D01*
X230005500Y-82527142D01*
X230053119Y-82574761D01*
X230148357Y-82622380D01*
X230338833Y-82622380D01*
X230434071Y-82574761D01*
X230481690Y-82527142D01*
X230529309Y-82431904D01*
X230529309Y-81622380D01*
X230957880Y-82574761D02*
X231053119Y-82622380D01*
X231243595Y-82622380D01*
X231338833Y-82574761D01*
X231386452Y-82479523D01*
X231386452Y-82431904D01*
X231338833Y-82336666D01*
X231243595Y-82289047D01*
X231100738Y-82289047D01*
X231005500Y-82241428D01*
X230957880Y-82146190D01*
X230957880Y-82098571D01*
X231005500Y-82003333D01*
X231100738Y-81955714D01*
X231243595Y-81955714D01*
X231338833Y-82003333D01*
X232195976Y-82574761D02*
X232100738Y-82622380D01*
X231910261Y-82622380D01*
X231815023Y-82574761D01*
X231767404Y-82479523D01*
X231767404Y-82098571D01*
X231815023Y-82003333D01*
X231910261Y-81955714D01*
X232100738Y-81955714D01*
X232195976Y-82003333D01*
X232243595Y-82098571D01*
X232243595Y-82193809D01*
X231767404Y-82289047D01*
X233338833Y-81955714D02*
X233529309Y-82622380D01*
X233719785Y-82146190D01*
X233910261Y-82622380D01*
X234100738Y-81955714D01*
X234481690Y-82622380D02*
X234481690Y-81955714D01*
X234481690Y-81622380D02*
X234434071Y-81670000D01*
X234481690Y-81717619D01*
X234529309Y-81670000D01*
X234481690Y-81622380D01*
X234481690Y-81717619D01*
X234815023Y-81955714D02*
X235195976Y-81955714D01*
X234957880Y-81622380D02*
X234957880Y-82479523D01*
X235005500Y-82574761D01*
X235100738Y-82622380D01*
X235195976Y-82622380D01*
X235529309Y-82622380D02*
X235529309Y-81622380D01*
X235957880Y-82622380D02*
X235957880Y-82098571D01*
X235910261Y-82003333D01*
X235815023Y-81955714D01*
X235672166Y-81955714D01*
X235576928Y-82003333D01*
X235529309Y-82050952D01*
X237053119Y-81955714D02*
X237434071Y-81955714D01*
X237195976Y-81622380D02*
X237195976Y-82479523D01*
X237243595Y-82574761D01*
X237338833Y-82622380D01*
X237434071Y-82622380D01*
X237767404Y-82622380D02*
X237767404Y-81622380D01*
X238195976Y-82622380D02*
X238195976Y-82098571D01*
X238148357Y-82003333D01*
X238053119Y-81955714D01*
X237910261Y-81955714D01*
X237815023Y-82003333D01*
X237767404Y-82050952D01*
X239053119Y-82574761D02*
X238957880Y-82622380D01*
X238767404Y-82622380D01*
X238672166Y-82574761D01*
X238624547Y-82479523D01*
X238624547Y-82098571D01*
X238672166Y-82003333D01*
X238767404Y-81955714D01*
X238957880Y-81955714D01*
X239053119Y-82003333D01*
X239100738Y-82098571D01*
X239100738Y-82193809D01*
X238624547Y-82289047D01*
X231457880Y-84177142D02*
X231410261Y-84224761D01*
X231267404Y-84272380D01*
X231172166Y-84272380D01*
X231029309Y-84224761D01*
X230934071Y-84129523D01*
X230886452Y-84034285D01*
X230838833Y-83843809D01*
X230838833Y-83700952D01*
X230886452Y-83510476D01*
X230934071Y-83415238D01*
X231029309Y-83320000D01*
X231172166Y-83272380D01*
X231267404Y-83272380D01*
X231410261Y-83320000D01*
X231457880Y-83367619D01*
X232029309Y-84272380D02*
X231934071Y-84224761D01*
X231886452Y-84177142D01*
X231838833Y-84081904D01*
X231838833Y-83796190D01*
X231886452Y-83700952D01*
X231934071Y-83653333D01*
X232029309Y-83605714D01*
X232172166Y-83605714D01*
X232267404Y-83653333D01*
X232315023Y-83700952D01*
X232362642Y-83796190D01*
X232362642Y-84081904D01*
X232315023Y-84177142D01*
X232267404Y-84224761D01*
X232172166Y-84272380D01*
X232029309Y-84272380D01*
X232791214Y-84272380D02*
X232791214Y-83605714D01*
X232791214Y-83796190D02*
X232838833Y-83700952D01*
X232886452Y-83653333D01*
X232981690Y-83605714D01*
X233076928Y-83605714D01*
X233838833Y-84272380D02*
X233838833Y-83748571D01*
X233791214Y-83653333D01*
X233695976Y-83605714D01*
X233505500Y-83605714D01*
X233410261Y-83653333D01*
X233838833Y-84224761D02*
X233743595Y-84272380D01*
X233505500Y-84272380D01*
X233410261Y-84224761D01*
X233362642Y-84129523D01*
X233362642Y-84034285D01*
X233410261Y-83939047D01*
X233505500Y-83891428D01*
X233743595Y-83891428D01*
X233838833Y-83843809D01*
X234457880Y-84272380D02*
X234362642Y-84224761D01*
X234315023Y-84129523D01*
X234315023Y-83272380D01*
X235553119Y-84224761D02*
X235695976Y-84272380D01*
X235934071Y-84272380D01*
X236029309Y-84224761D01*
X236076928Y-84177142D01*
X236124547Y-84081904D01*
X236124547Y-83986666D01*
X236076928Y-83891428D01*
X236029309Y-83843809D01*
X235934071Y-83796190D01*
X235743595Y-83748571D01*
X235648357Y-83700952D01*
X235600738Y-83653333D01*
X235553119Y-83558095D01*
X235553119Y-83462857D01*
X235600738Y-83367619D01*
X235648357Y-83320000D01*
X235743595Y-83272380D01*
X235981690Y-83272380D01*
X236124547Y-83320000D01*
X236695976Y-84272380D02*
X236600738Y-84224761D01*
X236553119Y-84177142D01*
X236505500Y-84081904D01*
X236505500Y-83796190D01*
X236553119Y-83700952D01*
X236600738Y-83653333D01*
X236695976Y-83605714D01*
X236838833Y-83605714D01*
X236934071Y-83653333D01*
X236981690Y-83700952D01*
X237029309Y-83796190D01*
X237029309Y-84081904D01*
X236981690Y-84177142D01*
X236934071Y-84224761D01*
X236838833Y-84272380D01*
X236695976Y-84272380D01*
X237457880Y-84272380D02*
X237457880Y-83272380D01*
X237791214Y-83986666D01*
X238124547Y-83272380D01*
X238124547Y-84272380D01*
X228743595Y-85922380D02*
X228743595Y-84922380D01*
X229172166Y-85922380D02*
X229172166Y-85398571D01*
X229124547Y-85303333D01*
X229029309Y-85255714D01*
X228886452Y-85255714D01*
X228791214Y-85303333D01*
X228743595Y-85350952D01*
X229505500Y-85255714D02*
X229886452Y-85255714D01*
X229648357Y-84922380D02*
X229648357Y-85779523D01*
X229695976Y-85874761D01*
X229791214Y-85922380D01*
X229886452Y-85922380D01*
X230076928Y-85255714D02*
X230457880Y-85255714D01*
X230219785Y-84922380D02*
X230219785Y-85779523D01*
X230267404Y-85874761D01*
X230362642Y-85922380D01*
X230457880Y-85922380D01*
X230791214Y-85255714D02*
X230791214Y-86255714D01*
X230791214Y-85303333D02*
X230886452Y-85255714D01*
X231076928Y-85255714D01*
X231172166Y-85303333D01*
X231219785Y-85350952D01*
X231267404Y-85446190D01*
X231267404Y-85731904D01*
X231219785Y-85827142D01*
X231172166Y-85874761D01*
X231076928Y-85922380D01*
X230886452Y-85922380D01*
X230791214Y-85874761D01*
X231648357Y-85874761D02*
X231743595Y-85922380D01*
X231934071Y-85922380D01*
X232029309Y-85874761D01*
X232076928Y-85779523D01*
X232076928Y-85731904D01*
X232029309Y-85636666D01*
X231934071Y-85589047D01*
X231791214Y-85589047D01*
X231695976Y-85541428D01*
X231648357Y-85446190D01*
X231648357Y-85398571D01*
X231695976Y-85303333D01*
X231791214Y-85255714D01*
X231934071Y-85255714D01*
X232029309Y-85303333D01*
X232505500Y-85827142D02*
X232553119Y-85874761D01*
X232505500Y-85922380D01*
X232457880Y-85874761D01*
X232505500Y-85827142D01*
X232505500Y-85922380D01*
X232505500Y-85303333D02*
X232553119Y-85350952D01*
X232505500Y-85398571D01*
X232457880Y-85350952D01*
X232505500Y-85303333D01*
X232505500Y-85398571D01*
X233695976Y-84874761D02*
X232838833Y-86160476D01*
X234743595Y-84874761D02*
X233886452Y-86160476D01*
X235505500Y-85874761D02*
X235410261Y-85922380D01*
X235219785Y-85922380D01*
X235124547Y-85874761D01*
X235076928Y-85827142D01*
X235029309Y-85731904D01*
X235029309Y-85446190D01*
X235076928Y-85350952D01*
X235124547Y-85303333D01*
X235219785Y-85255714D01*
X235410261Y-85255714D01*
X235505500Y-85303333D01*
X236076928Y-85922380D02*
X235981690Y-85874761D01*
X235934071Y-85827142D01*
X235886452Y-85731904D01*
X235886452Y-85446190D01*
X235934071Y-85350952D01*
X235981690Y-85303333D01*
X236076928Y-85255714D01*
X236219785Y-85255714D01*
X236315023Y-85303333D01*
X236362642Y-85350952D01*
X236410261Y-85446190D01*
X236410261Y-85731904D01*
X236362642Y-85827142D01*
X236315023Y-85874761D01*
X236219785Y-85922380D01*
X236076928Y-85922380D01*
X236838833Y-85922380D02*
X236838833Y-85255714D01*
X236838833Y-85446190D02*
X236886452Y-85350952D01*
X236934071Y-85303333D01*
X237029309Y-85255714D01*
X237124547Y-85255714D01*
X237886452Y-85922380D02*
X237886452Y-85398571D01*
X237838833Y-85303333D01*
X237743595Y-85255714D01*
X237553119Y-85255714D01*
X237457880Y-85303333D01*
X237886452Y-85874761D02*
X237791214Y-85922380D01*
X237553119Y-85922380D01*
X237457880Y-85874761D01*
X237410261Y-85779523D01*
X237410261Y-85684285D01*
X237457880Y-85589047D01*
X237553119Y-85541428D01*
X237791214Y-85541428D01*
X237886452Y-85493809D01*
X238505500Y-85922380D02*
X238410261Y-85874761D01*
X238362642Y-85779523D01*
X238362642Y-84922380D01*
X238886452Y-85827142D02*
X238934071Y-85874761D01*
X238886452Y-85922380D01*
X238838833Y-85874761D01*
X238886452Y-85827142D01*
X238886452Y-85922380D01*
X239791214Y-85922380D02*
X239791214Y-85398571D01*
X239743595Y-85303333D01*
X239648357Y-85255714D01*
X239457880Y-85255714D01*
X239362642Y-85303333D01*
X239791214Y-85874761D02*
X239695976Y-85922380D01*
X239457880Y-85922380D01*
X239362642Y-85874761D01*
X239315023Y-85779523D01*
X239315023Y-85684285D01*
X239362642Y-85589047D01*
X239457880Y-85541428D01*
X239695976Y-85541428D01*
X239791214Y-85493809D01*
X240267404Y-85922380D02*
X240267404Y-85255714D01*
X240267404Y-84922380D02*
X240219785Y-84970000D01*
X240267404Y-85017619D01*
X240315023Y-84970000D01*
X240267404Y-84922380D01*
X240267404Y-85017619D01*
X230142023Y-45570142D02*
X230094404Y-45617761D01*
X229951547Y-45665380D01*
X229856309Y-45665380D01*
X229713452Y-45617761D01*
X229618214Y-45522523D01*
X229570595Y-45427285D01*
X229522976Y-45236809D01*
X229522976Y-45093952D01*
X229570595Y-44903476D01*
X229618214Y-44808238D01*
X229713452Y-44713000D01*
X229856309Y-44665380D01*
X229951547Y-44665380D01*
X230094404Y-44713000D01*
X230142023Y-44760619D01*
X230713452Y-45665380D02*
X230618214Y-45617761D01*
X230570595Y-45570142D01*
X230522976Y-45474904D01*
X230522976Y-45189190D01*
X230570595Y-45093952D01*
X230618214Y-45046333D01*
X230713452Y-44998714D01*
X230856309Y-44998714D01*
X230951547Y-45046333D01*
X230999166Y-45093952D01*
X231046785Y-45189190D01*
X231046785Y-45474904D01*
X230999166Y-45570142D01*
X230951547Y-45617761D01*
X230856309Y-45665380D01*
X230713452Y-45665380D01*
X231475357Y-44998714D02*
X231475357Y-45665380D01*
X231475357Y-45093952D02*
X231522976Y-45046333D01*
X231618214Y-44998714D01*
X231761071Y-44998714D01*
X231856309Y-45046333D01*
X231903928Y-45141571D01*
X231903928Y-45665380D01*
X232237261Y-44998714D02*
X232618214Y-44998714D01*
X232380119Y-44665380D02*
X232380119Y-45522523D01*
X232427738Y-45617761D01*
X232522976Y-45665380D01*
X232618214Y-45665380D01*
X232951547Y-45665380D02*
X232951547Y-44998714D01*
X232951547Y-45189190D02*
X232999166Y-45093952D01*
X233046785Y-45046333D01*
X233142023Y-44998714D01*
X233237261Y-44998714D01*
X233713452Y-45665380D02*
X233618214Y-45617761D01*
X233570595Y-45570142D01*
X233522976Y-45474904D01*
X233522976Y-45189190D01*
X233570595Y-45093952D01*
X233618214Y-45046333D01*
X233713452Y-44998714D01*
X233856309Y-44998714D01*
X233951547Y-45046333D01*
X233999166Y-45093952D01*
X234046785Y-45189190D01*
X234046785Y-45474904D01*
X233999166Y-45570142D01*
X233951547Y-45617761D01*
X233856309Y-45665380D01*
X233713452Y-45665380D01*
X234618214Y-45665380D02*
X234522976Y-45617761D01*
X234475357Y-45522523D01*
X234475357Y-44665380D01*
X234951547Y-45617761D02*
X235046785Y-45665380D01*
X235237261Y-45665380D01*
X235332500Y-45617761D01*
X235380119Y-45522523D01*
X235380119Y-45474904D01*
X235332500Y-45379666D01*
X235237261Y-45332047D01*
X235094404Y-45332047D01*
X234999166Y-45284428D01*
X234951547Y-45189190D01*
X234951547Y-45141571D01*
X234999166Y-45046333D01*
X235094404Y-44998714D01*
X235237261Y-44998714D01*
X235332500Y-45046333D01*
X230142023Y-47315380D02*
X229808690Y-46839190D01*
X229570595Y-47315380D02*
X229570595Y-46315380D01*
X229951547Y-46315380D01*
X230046785Y-46363000D01*
X230094404Y-46410619D01*
X230142023Y-46505857D01*
X230142023Y-46648714D01*
X230094404Y-46743952D01*
X230046785Y-46791571D01*
X229951547Y-46839190D01*
X229570595Y-46839190D01*
X230475357Y-46315380D02*
X231142023Y-47315380D01*
X231142023Y-46315380D02*
X230475357Y-47315380D01*
X232808690Y-46363000D02*
X232713452Y-46315380D01*
X232570595Y-46315380D01*
X232427738Y-46363000D01*
X232332500Y-46458238D01*
X232284880Y-46553476D01*
X232237261Y-46743952D01*
X232237261Y-46886809D01*
X232284880Y-47077285D01*
X232332500Y-47172523D01*
X232427738Y-47267761D01*
X232570595Y-47315380D01*
X232665833Y-47315380D01*
X232808690Y-47267761D01*
X232856309Y-47220142D01*
X232856309Y-46886809D01*
X232665833Y-46886809D01*
X233284880Y-47315380D02*
X233284880Y-46315380D01*
X233856309Y-47315380D01*
X233856309Y-46315380D01*
X234332500Y-47315380D02*
X234332500Y-46315380D01*
X234570595Y-46315380D01*
X234713452Y-46363000D01*
X234808690Y-46458238D01*
X234856309Y-46553476D01*
X234903928Y-46743952D01*
X234903928Y-46886809D01*
X234856309Y-47077285D01*
X234808690Y-47172523D01*
X234713452Y-47267761D01*
X234570595Y-47315380D01*
X234332500Y-47315380D01*
X236046785Y-47267761D02*
X236189642Y-47315380D01*
X236427738Y-47315380D01*
X236522976Y-47267761D01*
X236570595Y-47220142D01*
X236618214Y-47124904D01*
X236618214Y-47029666D01*
X236570595Y-46934428D01*
X236522976Y-46886809D01*
X236427738Y-46839190D01*
X236237261Y-46791571D01*
X236142023Y-46743952D01*
X236094404Y-46696333D01*
X236046785Y-46601095D01*
X236046785Y-46505857D01*
X236094404Y-46410619D01*
X236142023Y-46363000D01*
X236237261Y-46315380D01*
X236475357Y-46315380D01*
X236618214Y-46363000D01*
X237618214Y-47220142D02*
X237570595Y-47267761D01*
X237427738Y-47315380D01*
X237332500Y-47315380D01*
X237189642Y-47267761D01*
X237094404Y-47172523D01*
X237046785Y-47077285D01*
X236999166Y-46886809D01*
X236999166Y-46743952D01*
X237046785Y-46553476D01*
X237094404Y-46458238D01*
X237189642Y-46363000D01*
X237332500Y-46315380D01*
X237427738Y-46315380D01*
X237570595Y-46363000D01*
X237618214Y-46410619D01*
X238522976Y-47315380D02*
X238046785Y-47315380D01*
X238046785Y-46315380D01*
X229427738Y-47965380D02*
X229999166Y-47965380D01*
X229713452Y-48965380D02*
X229713452Y-47965380D01*
X230237261Y-47965380D02*
X230903928Y-48965380D01*
X230903928Y-47965380D02*
X230237261Y-48965380D01*
X231951547Y-47965380D02*
X232570595Y-47965380D01*
X232237261Y-48346333D01*
X232380119Y-48346333D01*
X232475357Y-48393952D01*
X232522976Y-48441571D01*
X232570595Y-48536809D01*
X232570595Y-48774904D01*
X232522976Y-48870142D01*
X232475357Y-48917761D01*
X232380119Y-48965380D01*
X232094404Y-48965380D01*
X231999166Y-48917761D01*
X231951547Y-48870142D01*
X232856309Y-47965380D02*
X233189642Y-48965380D01*
X233522976Y-47965380D01*
X233761071Y-47965380D02*
X234380119Y-47965380D01*
X234046785Y-48346333D01*
X234189642Y-48346333D01*
X234284880Y-48393952D01*
X234332500Y-48441571D01*
X234380119Y-48536809D01*
X234380119Y-48774904D01*
X234332500Y-48870142D01*
X234284880Y-48917761D01*
X234189642Y-48965380D01*
X233903928Y-48965380D01*
X233808690Y-48917761D01*
X233761071Y-48870142D01*
X235522976Y-48917761D02*
X235665833Y-48965380D01*
X235903928Y-48965380D01*
X235999166Y-48917761D01*
X236046785Y-48870142D01*
X236094404Y-48774904D01*
X236094404Y-48679666D01*
X236046785Y-48584428D01*
X235999166Y-48536809D01*
X235903928Y-48489190D01*
X235713452Y-48441571D01*
X235618214Y-48393952D01*
X235570595Y-48346333D01*
X235522976Y-48251095D01*
X235522976Y-48155857D01*
X235570595Y-48060619D01*
X235618214Y-48013000D01*
X235713452Y-47965380D01*
X235951547Y-47965380D01*
X236094404Y-48013000D01*
X236522976Y-48965380D02*
X236522976Y-47965380D01*
X236761071Y-47965380D01*
X236903928Y-48013000D01*
X236999166Y-48108238D01*
X237046785Y-48203476D01*
X237094404Y-48393952D01*
X237094404Y-48536809D01*
X237046785Y-48727285D01*
X236999166Y-48822523D01*
X236903928Y-48917761D01*
X236761071Y-48965380D01*
X236522976Y-48965380D01*
X237475357Y-48679666D02*
X237951547Y-48679666D01*
X237380119Y-48965380D02*
X237713452Y-47965380D01*
X238046785Y-48965380D01*
X204567404Y-41981380D02*
X203995976Y-41981380D01*
X204281690Y-41981380D02*
X204281690Y-40981380D01*
X204186452Y-41124238D01*
X204091214Y-41219476D01*
X203995976Y-41267095D01*
X200199833Y-37203571D02*
X200533166Y-37203571D01*
X200676023Y-37727380D02*
X200199833Y-37727380D01*
X200199833Y-36727380D01*
X200676023Y-36727380D01*
X201009357Y-37727380D02*
X201533166Y-37060714D01*
X201009357Y-37060714D02*
X201533166Y-37727380D01*
X201771261Y-37060714D02*
X202152214Y-37060714D01*
X201914119Y-36727380D02*
X201914119Y-37584523D01*
X201961738Y-37679761D01*
X202056976Y-37727380D01*
X202152214Y-37727380D01*
X202485547Y-37727380D02*
X202485547Y-37060714D01*
X202485547Y-37251190D02*
X202533166Y-37155952D01*
X202580785Y-37108333D01*
X202676023Y-37060714D01*
X202771261Y-37060714D01*
X203533166Y-37727380D02*
X203533166Y-37203571D01*
X203485547Y-37108333D01*
X203390309Y-37060714D01*
X203199833Y-37060714D01*
X203104595Y-37108333D01*
X203533166Y-37679761D02*
X203437928Y-37727380D01*
X203199833Y-37727380D01*
X203104595Y-37679761D01*
X203056976Y-37584523D01*
X203056976Y-37489285D01*
X203104595Y-37394047D01*
X203199833Y-37346428D01*
X203437928Y-37346428D01*
X203533166Y-37298809D01*
X200461738Y-38425000D02*
X200366500Y-38377380D01*
X200223642Y-38377380D01*
X200080785Y-38425000D01*
X199985547Y-38520238D01*
X199937928Y-38615476D01*
X199890309Y-38805952D01*
X199890309Y-38948809D01*
X199937928Y-39139285D01*
X199985547Y-39234523D01*
X200080785Y-39329761D01*
X200223642Y-39377380D01*
X200318880Y-39377380D01*
X200461738Y-39329761D01*
X200509357Y-39282142D01*
X200509357Y-38948809D01*
X200318880Y-38948809D01*
X200937928Y-39377380D02*
X200937928Y-38377380D01*
X201318880Y-38377380D01*
X201414119Y-38425000D01*
X201461738Y-38472619D01*
X201509357Y-38567857D01*
X201509357Y-38710714D01*
X201461738Y-38805952D01*
X201414119Y-38853571D01*
X201318880Y-38901190D01*
X200937928Y-38901190D01*
X201937928Y-39377380D02*
X201937928Y-38377380D01*
X202604595Y-38377380D02*
X202795071Y-38377380D01*
X202890309Y-38425000D01*
X202985547Y-38520238D01*
X203033166Y-38710714D01*
X203033166Y-39044047D01*
X202985547Y-39234523D01*
X202890309Y-39329761D01*
X202795071Y-39377380D01*
X202604595Y-39377380D01*
X202509357Y-39329761D01*
X202414119Y-39234523D01*
X202366500Y-39044047D01*
X202366500Y-38710714D01*
X202414119Y-38520238D01*
X202509357Y-38425000D01*
X202604595Y-38377380D01*
X203414119Y-39329761D02*
X203509357Y-39377380D01*
X203699833Y-39377380D01*
X203795071Y-39329761D01*
X203842690Y-39234523D01*
X203842690Y-39186904D01*
X203795071Y-39091666D01*
X203699833Y-39044047D01*
X203556976Y-39044047D01*
X203461738Y-38996428D01*
X203414119Y-38901190D01*
X203414119Y-38853571D01*
X203461738Y-38758333D01*
X203556976Y-38710714D01*
X203699833Y-38710714D01*
X203795071Y-38758333D01*
X205468309Y-45918380D02*
X205134976Y-45442190D01*
X204896880Y-45918380D02*
X204896880Y-44918380D01*
X205277833Y-44918380D01*
X205373071Y-44966000D01*
X205420690Y-45013619D01*
X205468309Y-45108857D01*
X205468309Y-45251714D01*
X205420690Y-45346952D01*
X205373071Y-45394571D01*
X205277833Y-45442190D01*
X204896880Y-45442190D01*
X205896880Y-45918380D02*
X205896880Y-44918380D01*
X206896880Y-44966000D02*
X206801642Y-44918380D01*
X206658785Y-44918380D01*
X206515928Y-44966000D01*
X206420690Y-45061238D01*
X206373071Y-45156476D01*
X206325452Y-45346952D01*
X206325452Y-45489809D01*
X206373071Y-45680285D01*
X206420690Y-45775523D01*
X206515928Y-45870761D01*
X206658785Y-45918380D01*
X206754023Y-45918380D01*
X206896880Y-45870761D01*
X206944500Y-45823142D01*
X206944500Y-45489809D01*
X206754023Y-45489809D01*
X207373071Y-45918380D02*
X207373071Y-44918380D01*
X207373071Y-45394571D02*
X207944500Y-45394571D01*
X207944500Y-45918380D02*
X207944500Y-44918380D01*
X208277833Y-44918380D02*
X208849261Y-44918380D01*
X208563547Y-45918380D02*
X208563547Y-44918380D01*
X206388952Y-43759380D02*
X205912761Y-43759380D01*
X205912761Y-42759380D01*
X206722285Y-43235571D02*
X207055619Y-43235571D01*
X207198476Y-43759380D02*
X206722285Y-43759380D01*
X206722285Y-42759380D01*
X207198476Y-42759380D01*
X207960380Y-43235571D02*
X207627047Y-43235571D01*
X207627047Y-43759380D02*
X207627047Y-42759380D01*
X208103238Y-42759380D01*
X208341333Y-42759380D02*
X208912761Y-42759380D01*
X208627047Y-43759380D02*
X208627047Y-42759380D01*
X207055619Y-41600380D02*
X206722285Y-41124190D01*
X206484190Y-41600380D02*
X206484190Y-40600380D01*
X206865142Y-40600380D01*
X206960380Y-40648000D01*
X207008000Y-40695619D01*
X207055619Y-40790857D01*
X207055619Y-40933714D01*
X207008000Y-41028952D01*
X206960380Y-41076571D01*
X206865142Y-41124190D01*
X206484190Y-41124190D01*
X207484190Y-41076571D02*
X207817523Y-41076571D01*
X207960380Y-41600380D02*
X207484190Y-41600380D01*
X207484190Y-40600380D01*
X207960380Y-40600380D01*
X208722285Y-41076571D02*
X208388952Y-41076571D01*
X208388952Y-41600380D02*
X208388952Y-40600380D01*
X208865142Y-40600380D01*
X210478119Y-96933023D02*
X210478119Y-96456833D01*
X210001928Y-96409214D01*
X210049547Y-96456833D01*
X210097166Y-96552071D01*
X210097166Y-96790166D01*
X210049547Y-96885404D01*
X210001928Y-96933023D01*
X209906690Y-96980642D01*
X209668595Y-96980642D01*
X209573357Y-96933023D01*
X209525738Y-96885404D01*
X209478119Y-96790166D01*
X209478119Y-96552071D01*
X209525738Y-96456833D01*
X209573357Y-96409214D01*
X210478119Y-97266357D02*
X209478119Y-97599690D01*
X210478119Y-97933023D01*
X209859071Y-98266357D02*
X209859071Y-99028261D01*
X209478119Y-100028261D02*
X209478119Y-99456833D01*
X209478119Y-99742547D02*
X210478119Y-99742547D01*
X210335261Y-99647309D01*
X210240023Y-99552071D01*
X210192404Y-99456833D01*
X210144785Y-100885404D02*
X209478119Y-100885404D01*
X210525738Y-100647309D02*
X209811452Y-100409214D01*
X209811452Y-101028261D01*
X210478119Y-101266357D02*
X209478119Y-101599690D01*
X210478119Y-101933023D01*
X208304309Y-98052071D02*
X208351928Y-98004452D01*
X208399547Y-97909214D01*
X208399547Y-97813976D01*
X208351928Y-97718738D01*
X208304309Y-97671119D01*
X208209071Y-97623500D01*
X208113833Y-97623500D01*
X208018595Y-97671119D01*
X207970976Y-97718738D01*
X207923357Y-97813976D01*
X207923357Y-97909214D01*
X207970976Y-98004452D01*
X208018595Y-98052071D01*
X208399547Y-98052071D02*
X208018595Y-98052071D01*
X207970976Y-98099690D01*
X207970976Y-98147309D01*
X208018595Y-98242547D01*
X208113833Y-98290166D01*
X208351928Y-98290166D01*
X208494785Y-98194928D01*
X208590023Y-98052071D01*
X208637642Y-97861595D01*
X208590023Y-97671119D01*
X208494785Y-97528261D01*
X208351928Y-97433023D01*
X208161452Y-97385404D01*
X207970976Y-97433023D01*
X207828119Y-97528261D01*
X207732880Y-97671119D01*
X207685261Y-97861595D01*
X207732880Y-98052071D01*
X207828119Y-98194928D01*
X208732880Y-99433023D02*
X208780500Y-99480642D01*
X208828119Y-99575880D01*
X208828119Y-99813976D01*
X208780500Y-99909214D01*
X208732880Y-99956833D01*
X208637642Y-100004452D01*
X208542404Y-100004452D01*
X208399547Y-99956833D01*
X207828119Y-99385404D01*
X207828119Y-100004452D01*
X208113833Y-100385404D02*
X208113833Y-100861595D01*
X207828119Y-100290166D02*
X208828119Y-100623500D01*
X207828119Y-100956833D01*
D11*
X236305500Y-103078500D02*
X236305500Y-102218500D01*
X247945500Y-92378500D02*
X238125500Y-92378500D01*
X247945500Y-93608500D02*
X247945500Y-92378500D01*
X247945500Y-99578500D02*
X247945500Y-95908500D01*
X247945500Y-104558500D02*
X247945500Y-101878500D01*
X247225500Y-104558500D02*
X247945500Y-104558500D01*
X243525500Y-104558500D02*
X245825500Y-104558500D01*
X237675500Y-104558500D02*
X242125500Y-104558500D01*
X207137000Y-101790500D02*
X207137000Y-91630500D01*
X199517000Y-101790500D02*
X207137000Y-101790500D01*
X199517000Y-91630500D02*
X199517000Y-101790500D01*
X207137000Y-91630500D02*
X199517000Y-91630500D01*
X205867000Y-91630500D02*
X205867000Y-101790500D01*
X224407000Y-93591500D02*
X224407000Y-92661500D01*
X224407000Y-90431500D02*
X224407000Y-91361500D01*
X224407000Y-90431500D02*
X222247000Y-90431500D01*
X224407000Y-93591500D02*
X222947000Y-93591500D01*
X205181252Y-81952000D02*
X203758748Y-81952000D01*
X205181252Y-84672000D02*
X203758748Y-84672000D01*
X214085000Y-98628252D02*
X214085000Y-97205748D01*
X211365000Y-98628252D02*
X211365000Y-97205748D01*
X221296620Y-72963500D02*
X221577780Y-72963500D01*
X221296620Y-71943500D02*
X221577780Y-71943500D01*
X217807000Y-57671580D02*
X217807000Y-57390420D01*
X216787000Y-57671580D02*
X216787000Y-57390420D01*
X221069780Y-79982600D02*
X220788620Y-79982600D01*
X221069780Y-81002600D02*
X220788620Y-81002600D01*
X216283000Y-62307080D02*
X216283000Y-62025920D01*
X215263000Y-62307080D02*
X215263000Y-62025920D01*
X214032000Y-77431848D02*
X214032000Y-78854352D01*
X216752000Y-77431848D02*
X216752000Y-78854352D01*
X212054501Y-88733500D02*
X211729500Y-88733500D01*
X212054501Y-88158500D02*
X212054501Y-88733500D01*
X209404501Y-88733500D02*
X209204499Y-88733500D01*
X209204499Y-88533498D02*
X209204499Y-88733500D01*
X209204499Y-85383500D02*
X209204499Y-85583502D01*
X209404501Y-85383500D02*
X209204499Y-85383500D01*
X212054501Y-85383500D02*
X212054501Y-85583502D01*
X212054501Y-85383500D02*
X211854499Y-85383500D01*
X219480000Y-98206499D02*
X219480000Y-98531500D01*
X218905000Y-98206499D02*
X219480000Y-98206499D01*
X219480000Y-100856499D02*
X219480000Y-101056501D01*
X219279998Y-101056501D02*
X219480000Y-101056501D01*
X216130000Y-101056501D02*
X216330002Y-101056501D01*
X216130000Y-100856499D02*
X216130000Y-101056501D01*
X216130000Y-98206499D02*
X216330002Y-98206499D01*
X216130000Y-98206499D02*
X216130000Y-98406501D01*
X228810000Y-97048000D02*
X228810000Y-99548000D01*
X227060000Y-95548000D02*
X225060000Y-95548000D01*
X223310000Y-97048000D02*
X223310000Y-99548000D01*
X227060000Y-101048000D02*
X225060000Y-101048000D01*
X228360000Y-96598000D02*
X228810000Y-97048000D01*
X228360000Y-99998000D02*
X228810000Y-99548000D01*
X223760000Y-99998000D02*
X223310000Y-99548000D01*
X223760000Y-96598000D02*
X223310000Y-97048000D01*
X238201200Y-74168000D02*
G75*
G03*
X238201200Y-74168000I-76200J0D01*
G01*
X238262160Y-70180200D02*
X237426500Y-70180200D01*
X242051840Y-73837800D02*
X242887500Y-73837800D01*
X237426500Y-73837800D02*
X238262160Y-73837800D01*
X237426500Y-70180200D02*
X237426500Y-73837800D01*
X242887500Y-70180200D02*
X242051840Y-70180200D01*
X242887500Y-73837800D02*
X242887500Y-70180200D01*
D13*
X237553500Y-71725367D02*
G75*
G02*
X237553500Y-72292633I0J-283633D01*
G01*
D11*
X247201000Y-58045000D02*
G75*
G03*
X247201000Y-58045000I-381000J0D01*
G01*
X243463900Y-80344338D02*
X243463900Y-81540000D01*
X247096100Y-59875662D02*
X247096100Y-58680000D01*
X247096100Y-58680000D02*
X243463900Y-58680000D01*
X247096100Y-81540000D02*
X247096100Y-80344338D01*
X243463900Y-81540000D02*
X247096100Y-81540000D01*
X243463900Y-58680000D02*
X243463900Y-59875662D01*
X242196000Y-53670000D02*
G75*
G03*
X242196000Y-53670000I-381000J0D01*
G01*
X219515662Y-50313900D02*
X218320000Y-50313900D01*
X239984338Y-53946100D02*
X241180000Y-53946100D01*
X241180000Y-53946100D02*
X241180000Y-50313900D01*
X218320000Y-53946100D02*
X219515662Y-53946100D01*
X218320000Y-50313900D02*
X218320000Y-53946100D01*
X241180000Y-50313900D02*
X239984338Y-50313900D01*
X208901000Y-58045000D02*
G75*
G03*
X208901000Y-58045000I-381000J0D01*
G01*
X205163900Y-80344338D02*
X205163900Y-81540000D01*
X208796100Y-59875662D02*
X208796100Y-58680000D01*
X208796100Y-58680000D02*
X205163900Y-58680000D01*
X208796100Y-81540000D02*
X208796100Y-80344338D01*
X205163900Y-81540000D02*
X208796100Y-81540000D01*
X205163900Y-58680000D02*
X205163900Y-59875662D01*
X245253742Y-107710500D02*
X245728258Y-107710500D01*
X245253742Y-106665500D02*
X245728258Y-106665500D01*
X213553000Y-34303500D02*
X213553000Y-30303500D01*
X211653000Y-34303500D02*
X213553000Y-34303500D01*
X211653000Y-48543500D02*
X211653000Y-34303500D01*
X220093000Y-48543500D02*
X211653000Y-48543500D01*
X220093000Y-34303500D02*
X220093000Y-48543500D01*
X219793000Y-34303500D02*
X220093000Y-34303500D01*
X219793000Y-30303500D02*
X219793000Y-34303500D01*
X213553000Y-30303500D02*
X219793000Y-30303500D01*
X205068141Y-103887000D02*
X204760859Y-103887000D01*
X205068141Y-104647000D02*
X204760859Y-104647000D01*
X207256500Y-105793000D02*
X207256500Y-107253000D01*
X204096500Y-105793000D02*
X204096500Y-107953000D01*
X204096500Y-105793000D02*
X205026500Y-105793000D01*
X207256500Y-105793000D02*
X206326500Y-105793000D01*
X202692500Y-107097000D02*
X202848500Y-107097000D01*
X200376500Y-107097000D02*
X200532500Y-107097000D01*
X202692337Y-104495870D02*
G75*
G02*
X202692500Y-106577961I-1079837J-1041130D01*
G01*
X200532663Y-104495870D02*
G75*
G03*
X200532500Y-106577961I1079837J-1041130D01*
G01*
X202691108Y-103864665D02*
G75*
G02*
X202848016Y-107097000I-1078608J-1672335D01*
G01*
X200533892Y-103864665D02*
G75*
G03*
X200376984Y-107097000I1078608J-1672335D01*
G01*
X246855000Y-49274000D02*
X245745000Y-49274000D01*
X246855000Y-48514000D02*
X246855000Y-49274000D01*
X245181529Y-47754000D02*
X244635000Y-47754000D01*
X246855000Y-47754000D02*
X246308471Y-47754000D01*
X244635000Y-47754000D02*
X244635000Y-46549000D01*
X246855000Y-47754000D02*
X246855000Y-46549000D01*
X245437470Y-46549000D02*
X244635000Y-46549000D01*
X246855000Y-46549000D02*
X246052530Y-46549000D01*
X221504742Y-105615000D02*
X221979258Y-105615000D01*
X221504742Y-104570000D02*
X221979258Y-104570000D01*
X244905000Y-83011242D02*
X244905000Y-83485758D01*
X245950000Y-83011242D02*
X245950000Y-83485758D01*
X243381000Y-83011242D02*
X243381000Y-83485758D01*
X244426000Y-83011242D02*
X244426000Y-83485758D01*
X213376742Y-86374500D02*
X213851258Y-86374500D01*
X213376742Y-85329500D02*
X213851258Y-85329500D01*
X210265242Y-84914000D02*
X210739758Y-84914000D01*
X210265242Y-83869000D02*
X210739758Y-83869000D01*
X215978000Y-95677758D02*
X215978000Y-95203242D01*
X214933000Y-95677758D02*
X214933000Y-95203242D01*
X215660500Y-98725758D02*
X215660500Y-98251242D01*
X214615500Y-98725758D02*
X214615500Y-98251242D01*
X225363500Y-102877500D02*
X226823500Y-102877500D01*
X225363500Y-106037500D02*
X227523500Y-106037500D01*
X225363500Y-106037500D02*
X225363500Y-105107500D01*
X225363500Y-102877500D02*
X225363500Y-103807500D01*
X228783000Y-91315000D02*
X228783000Y-92775000D01*
X225623000Y-91315000D02*
X225623000Y-93475000D01*
X225623000Y-91315000D02*
X226553000Y-91315000D01*
X228783000Y-91315000D02*
X227853000Y-91315000D01*
X204411500Y-89403000D02*
X204411500Y-85095000D01*
X208719500Y-85095000D02*
X208719500Y-89403000D01*
X220022500Y-105722500D02*
X215714500Y-105722500D01*
X215714500Y-101414500D02*
X220022500Y-101414500D01*
X221047000Y-49336000D02*
X221047000Y-48006000D01*
X222377000Y-49336000D02*
X221047000Y-49336000D01*
X221047000Y-46736000D02*
X221047000Y-44136000D01*
X223647000Y-46736000D02*
X221047000Y-46736000D01*
X223647000Y-49336000D02*
X223647000Y-46736000D01*
X221047000Y-44136000D02*
X228787000Y-44136000D01*
X223647000Y-49336000D02*
X228787000Y-49336000D01*
X228787000Y-49336000D02*
X228787000Y-44136000D01*
X200536500Y-40199000D02*
X201866500Y-40199000D01*
X200536500Y-41529000D02*
X200536500Y-40199000D01*
X200536500Y-42799000D02*
X203196500Y-42799000D01*
X203196500Y-42799000D02*
X203196500Y-47939000D01*
X200536500Y-42799000D02*
X200536500Y-47939000D01*
X200536500Y-47939000D02*
X203196500Y-47939000D01*
X209028420Y-82996500D02*
X209309580Y-82996500D01*
X209028420Y-81976500D02*
X209309580Y-81976500D01*
X209246080Y-90041000D02*
X208964920Y-90041000D01*
X209246080Y-91061000D02*
X208964920Y-91061000D01*
X209246080Y-91565000D02*
X208964920Y-91565000D01*
X209246080Y-92585000D02*
X208964920Y-92585000D01*
X212167080Y-103630000D02*
X211885920Y-103630000D01*
X212167080Y-104650000D02*
X211885920Y-104650000D01*
X212167080Y-100582000D02*
X211885920Y-100582000D01*
X212167080Y-101602000D02*
X211885920Y-101602000D01*
X221109000Y-96660580D02*
X221109000Y-96379420D01*
X220089000Y-96660580D02*
X220089000Y-96379420D01*
X220597000Y-102157920D02*
X220597000Y-102439080D01*
X221617000Y-102157920D02*
X221617000Y-102439080D01*
X204249000Y-35308000D02*
X205359000Y-35308000D01*
X204249000Y-36068000D02*
X204249000Y-35308000D01*
X205922471Y-36828000D02*
X206469000Y-36828000D01*
X204249000Y-36828000D02*
X204795529Y-36828000D01*
X206469000Y-36828000D02*
X206469000Y-38033000D01*
X204249000Y-36828000D02*
X204249000Y-38033000D01*
X205666530Y-38033000D02*
X206469000Y-38033000D01*
X204249000Y-38033000D02*
X205051470Y-38033000D01*
X220525700Y-76365100D02*
X220525700Y-79240100D01*
X220525700Y-76365100D02*
X220525700Y-74865100D01*
X223745700Y-76365100D02*
X223745700Y-77865100D01*
X223745700Y-76365100D02*
X223745700Y-74865100D01*
X211850200Y-74745600D02*
X211850200Y-75220600D01*
X218070200Y-69000600D02*
X217595200Y-69000600D01*
X218070200Y-69475600D02*
X218070200Y-69000600D01*
X218070200Y-75220600D02*
X217595200Y-75220600D01*
X218070200Y-74745600D02*
X218070200Y-75220600D01*
X211850200Y-69000600D02*
X212325200Y-69000600D01*
X211850200Y-69475600D02*
X211850200Y-69000600D01*
X212532700Y-79810842D02*
X212532700Y-80285358D01*
X213577700Y-79810842D02*
X213577700Y-80285358D01*
X210945200Y-79810842D02*
X210945200Y-80285358D01*
X211990200Y-79810842D02*
X211990200Y-80285358D01*
X215644200Y-83303342D02*
X215644200Y-83777858D01*
X216689200Y-83303342D02*
X216689200Y-83777858D01*
X214056700Y-83303342D02*
X214056700Y-83777858D01*
X215101700Y-83303342D02*
X215101700Y-83777858D01*
X238997258Y-106665500D02*
X238522742Y-106665500D01*
X238997258Y-107710500D02*
X238522742Y-107710500D01*
X234234758Y-93267000D02*
X233760242Y-93267000D01*
X234234758Y-94312000D02*
X233760242Y-94312000D01*
X234234758Y-94791000D02*
X233760242Y-94791000D01*
X234234758Y-95836000D02*
X233760242Y-95836000D01*
X234298258Y-96632500D02*
X233823742Y-96632500D01*
X234298258Y-97677500D02*
X233823742Y-97677500D01*
X234298258Y-98918500D02*
X233823742Y-98918500D01*
X234298258Y-99963500D02*
X233823742Y-99963500D01*
X234298258Y-100442500D02*
X233823742Y-100442500D01*
X234298258Y-101487500D02*
X233823742Y-101487500D01*
X234298258Y-101966500D02*
X233823742Y-101966500D01*
X234298258Y-103011500D02*
X233823742Y-103011500D01*
X221822242Y-61228500D02*
X222296758Y-61228500D01*
X221822242Y-60183500D02*
X222296758Y-60183500D01*
X222296758Y-58659500D02*
X221822242Y-58659500D01*
X222296758Y-59704500D02*
X221822242Y-59704500D01*
X225263942Y-74728600D02*
X225738458Y-74728600D01*
X225263942Y-73683600D02*
X225738458Y-73683600D01*
X225738458Y-72096100D02*
X225263942Y-72096100D01*
X225738458Y-73141100D02*
X225263942Y-73141100D01*
X221822242Y-64911500D02*
X222296758Y-64911500D01*
X221822242Y-63866500D02*
X222296758Y-63866500D01*
X225263942Y-79046600D02*
X225738458Y-79046600D01*
X225263942Y-78001600D02*
X225738458Y-78001600D01*
X219820258Y-57008500D02*
X219345742Y-57008500D01*
X219820258Y-58053500D02*
X219345742Y-58053500D01*
X222626958Y-70280000D02*
X222152442Y-70280000D01*
X222626958Y-71325000D02*
X222152442Y-71325000D01*
X213933000Y-65151000D02*
G75*
G03*
X213933000Y-65151000I-700000J0D01*
G01*
X210821500Y-41148000D02*
G75*
G03*
X210821500Y-41148000I-700000J0D01*
G01*
X210821500Y-45466000D02*
G75*
G03*
X210821500Y-45466000I-700000J0D01*
G01*
X210821500Y-43307000D02*
G75*
G03*
X210821500Y-43307000I-700000J0D01*
G01*
X221743500Y-55753000D02*
G75*
G03*
X221743500Y-55753000I-700000J0D01*
G01*
X220613200Y-68173600D02*
G75*
G03*
X220613200Y-68173600I-700000J0D01*
G01*
X243616500Y-49274000D02*
X242506500Y-49274000D01*
X243616500Y-48514000D02*
X243616500Y-49274000D01*
X241943029Y-47754000D02*
X241396500Y-47754000D01*
X243616500Y-47754000D02*
X243069971Y-47754000D01*
X241396500Y-47754000D02*
X241396500Y-46549000D01*
X243616500Y-47754000D02*
X243616500Y-46549000D01*
X242198970Y-46549000D02*
X241396500Y-46549000D01*
X243616500Y-46549000D02*
X242814030Y-46549000D01*
X237745000Y-42264359D02*
X237745000Y-42571641D01*
X238505000Y-42264359D02*
X238505000Y-42571641D01*
X236475000Y-42264359D02*
X236475000Y-42571641D01*
X237235000Y-42264359D02*
X237235000Y-42571641D01*
X235205000Y-42264359D02*
X235205000Y-42571641D01*
X235965000Y-42264359D02*
X235965000Y-42571641D01*
X245238000Y-42264359D02*
X245238000Y-42571641D01*
X245998000Y-42264359D02*
X245998000Y-42571641D01*
X243968000Y-42264359D02*
X243968000Y-42571641D01*
X244728000Y-42264359D02*
X244728000Y-42571641D01*
X242698000Y-42264359D02*
X242698000Y-42571641D01*
X243458000Y-42264359D02*
X243458000Y-42571641D01*
X230252000Y-42327859D02*
X230252000Y-42635141D01*
X231012000Y-42327859D02*
X231012000Y-42635141D01*
X228982000Y-42327859D02*
X228982000Y-42635141D01*
X229742000Y-42327859D02*
X229742000Y-42635141D01*
X227712000Y-42327859D02*
X227712000Y-42635141D01*
X228472000Y-42327859D02*
X228472000Y-42635141D01*
X224219500Y-41311859D02*
X224219500Y-41619141D01*
X224979500Y-41311859D02*
X224979500Y-41619141D01*
X234925000Y-39195000D02*
X234925000Y-39660000D01*
X234925000Y-36570000D02*
X234925000Y-37035000D01*
X239739479Y-39195429D02*
G75*
G02*
X235230316Y-39195000I-2254479J1080429D01*
G01*
X239739479Y-37034571D02*
G75*
G03*
X235230316Y-37035000I-2254479J-1080429D01*
G01*
X240272815Y-39195827D02*
G75*
G02*
X234925000Y-39659830I-2787815J1080827D01*
G01*
X240272815Y-37034173D02*
G75*
G03*
X234925000Y-36570170I-2787815J-1080827D01*
G01*
X242425000Y-39195000D02*
X242425000Y-39660000D01*
X242425000Y-36570000D02*
X242425000Y-37035000D01*
X247239479Y-39195429D02*
G75*
G02*
X242730316Y-39195000I-2254479J1080429D01*
G01*
X247239479Y-37034571D02*
G75*
G03*
X242730316Y-37035000I-2254479J-1080429D01*
G01*
X247772815Y-39195827D02*
G75*
G02*
X242425000Y-39659830I-2787815J1080827D01*
G01*
X247772815Y-37034173D02*
G75*
G03*
X242425000Y-36570170I-2787815J-1080827D01*
G01*
X227425000Y-39195000D02*
X227425000Y-39660000D01*
X227425000Y-36570000D02*
X227425000Y-37035000D01*
X232239479Y-39195429D02*
G75*
G02*
X227730316Y-39195000I-2254479J1080429D01*
G01*
X232239479Y-37034571D02*
G75*
G03*
X227730316Y-37035000I-2254479J-1080429D01*
G01*
X232772815Y-39195827D02*
G75*
G02*
X227425000Y-39659830I-2787815J1080827D01*
G01*
X232772815Y-37034173D02*
G75*
G03*
X227425000Y-36570170I-2787815J-1080827D01*
G01*
X221790000Y-39195000D02*
X221790000Y-39351000D01*
X221790000Y-36879000D02*
X221790000Y-37035000D01*
X224391130Y-39194837D02*
G75*
G02*
X222309039Y-39195000I-1041130J1079837D01*
G01*
X224391130Y-37035163D02*
G75*
G03*
X222309039Y-37035000I-1041130J-1079837D01*
G01*
X225022335Y-39193608D02*
G75*
G02*
X221790000Y-39350516I-1672335J1078608D01*
G01*
X225022335Y-37036392D02*
G75*
G03*
X221790000Y-36879484I-1672335J-1078608D01*
G01*
X212675080Y-67181000D02*
X212393920Y-67181000D01*
X212675080Y-68201000D02*
X212393920Y-68201000D01*
X218768200Y-78066020D02*
X218768200Y-78347180D01*
X219788200Y-78066020D02*
X219788200Y-78347180D01*
X209700400Y-76872220D02*
X209700400Y-77153380D01*
X210720400Y-76872220D02*
X210720400Y-77153380D01*
X216766500Y-62230000D02*
X216766500Y-65105000D01*
X216766500Y-62230000D02*
X216766500Y-60730000D01*
X219986500Y-62230000D02*
X219986500Y-63730000D01*
X219986500Y-62230000D02*
X219986500Y-60730000D01*
D12*
X234397880Y-98821833D02*
X235112166Y-98821833D01*
X235255023Y-98869452D01*
X235350261Y-98964690D01*
X235397880Y-99107547D01*
X235397880Y-99202785D01*
X234397880Y-97869452D02*
X234397880Y-98345642D01*
X234874071Y-98393261D01*
X234826452Y-98345642D01*
X234778833Y-98250404D01*
X234778833Y-98012309D01*
X234826452Y-97917071D01*
X234874071Y-97869452D01*
X234969309Y-97821833D01*
X235207404Y-97821833D01*
X235302642Y-97869452D01*
X235350261Y-97917071D01*
X235397880Y-98012309D01*
X235397880Y-98250404D01*
X235350261Y-98345642D01*
X235302642Y-98393261D01*
X221845119Y-92106738D02*
X221797500Y-92201976D01*
X221702261Y-92297214D01*
X221559404Y-92440071D01*
X221511785Y-92535309D01*
X221511785Y-92630547D01*
X221749880Y-92582928D02*
X221702261Y-92678166D01*
X221607023Y-92773404D01*
X221416547Y-92821023D01*
X221083214Y-92821023D01*
X220892738Y-92773404D01*
X220797500Y-92678166D01*
X220749880Y-92582928D01*
X220749880Y-92392452D01*
X220797500Y-92297214D01*
X220892738Y-92201976D01*
X221083214Y-92154357D01*
X221416547Y-92154357D01*
X221607023Y-92201976D01*
X221702261Y-92297214D01*
X221749880Y-92392452D01*
X221749880Y-92582928D01*
X220845119Y-91773404D02*
X220797500Y-91725785D01*
X220749880Y-91630547D01*
X220749880Y-91392452D01*
X220797500Y-91297214D01*
X220845119Y-91249595D01*
X220940357Y-91201976D01*
X221035595Y-91201976D01*
X221178452Y-91249595D01*
X221749880Y-91821023D01*
X221749880Y-91201976D01*
X220794342Y-71380642D02*
X220746723Y-71428261D01*
X220603866Y-71475880D01*
X220508628Y-71475880D01*
X220365771Y-71428261D01*
X220270533Y-71333023D01*
X220222914Y-71237785D01*
X220175295Y-71047309D01*
X220175295Y-70904452D01*
X220222914Y-70713976D01*
X220270533Y-70618738D01*
X220365771Y-70523500D01*
X220508628Y-70475880D01*
X220603866Y-70475880D01*
X220746723Y-70523500D01*
X220794342Y-70571119D01*
X221175295Y-70571119D02*
X221222914Y-70523500D01*
X221318152Y-70475880D01*
X221556247Y-70475880D01*
X221651485Y-70523500D01*
X221699104Y-70571119D01*
X221746723Y-70666357D01*
X221746723Y-70761595D01*
X221699104Y-70904452D01*
X221127676Y-71475880D01*
X221746723Y-71475880D01*
X222080057Y-70475880D02*
X222746723Y-70475880D01*
X222318152Y-71475880D01*
X216224142Y-58173857D02*
X216271761Y-58221476D01*
X216319380Y-58364333D01*
X216319380Y-58459571D01*
X216271761Y-58602428D01*
X216176523Y-58697666D01*
X216081285Y-58745285D01*
X215890809Y-58792904D01*
X215747952Y-58792904D01*
X215557476Y-58745285D01*
X215462238Y-58697666D01*
X215367000Y-58602428D01*
X215319380Y-58459571D01*
X215319380Y-58364333D01*
X215367000Y-58221476D01*
X215414619Y-58173857D01*
X215414619Y-57792904D02*
X215367000Y-57745285D01*
X215319380Y-57650047D01*
X215319380Y-57411952D01*
X215367000Y-57316714D01*
X215414619Y-57269095D01*
X215509857Y-57221476D01*
X215605095Y-57221476D01*
X215747952Y-57269095D01*
X216319380Y-57840523D01*
X216319380Y-57221476D01*
X215319380Y-56364333D02*
X215319380Y-56554809D01*
X215367000Y-56650047D01*
X215414619Y-56697666D01*
X215557476Y-56792904D01*
X215747952Y-56840523D01*
X216128904Y-56840523D01*
X216224142Y-56792904D01*
X216271761Y-56745285D01*
X216319380Y-56650047D01*
X216319380Y-56459571D01*
X216271761Y-56364333D01*
X216224142Y-56316714D01*
X216128904Y-56269095D01*
X215890809Y-56269095D01*
X215795571Y-56316714D01*
X215747952Y-56364333D01*
X215700333Y-56459571D01*
X215700333Y-56650047D01*
X215747952Y-56745285D01*
X215795571Y-56792904D01*
X215890809Y-56840523D01*
X212153595Y-89114380D02*
X212153595Y-89923904D01*
X212201214Y-90019142D01*
X212248833Y-90066761D01*
X212344071Y-90114380D01*
X212534547Y-90114380D01*
X212629785Y-90066761D01*
X212677404Y-90019142D01*
X212725023Y-89923904D01*
X212725023Y-89114380D01*
X213248833Y-90114380D02*
X213439309Y-90114380D01*
X213534547Y-90066761D01*
X213582166Y-90019142D01*
X213677404Y-89876285D01*
X213725023Y-89685809D01*
X213725023Y-89304857D01*
X213677404Y-89209619D01*
X213629785Y-89162000D01*
X213534547Y-89114380D01*
X213344071Y-89114380D01*
X213248833Y-89162000D01*
X213201214Y-89209619D01*
X213153595Y-89304857D01*
X213153595Y-89542952D01*
X213201214Y-89638190D01*
X213248833Y-89685809D01*
X213344071Y-89733428D01*
X213534547Y-89733428D01*
X213629785Y-89685809D01*
X213677404Y-89638190D01*
X213725023Y-89542952D01*
X212479500Y-87460880D02*
X212479500Y-87698976D01*
X212241404Y-87603738D02*
X212479500Y-87698976D01*
X212717595Y-87603738D01*
X212336642Y-87889452D02*
X212479500Y-87698976D01*
X212622357Y-87889452D01*
X216050880Y-97916904D02*
X216860404Y-97916904D01*
X216955642Y-97869285D01*
X217003261Y-97821666D01*
X217050880Y-97726428D01*
X217050880Y-97535952D01*
X217003261Y-97440714D01*
X216955642Y-97393095D01*
X216860404Y-97345476D01*
X216050880Y-97345476D01*
X216479452Y-96726428D02*
X216431833Y-96821666D01*
X216384214Y-96869285D01*
X216288976Y-96916904D01*
X216241357Y-96916904D01*
X216146119Y-96869285D01*
X216098500Y-96821666D01*
X216050880Y-96726428D01*
X216050880Y-96535952D01*
X216098500Y-96440714D01*
X216146119Y-96393095D01*
X216241357Y-96345476D01*
X216288976Y-96345476D01*
X216384214Y-96393095D01*
X216431833Y-96440714D01*
X216479452Y-96535952D01*
X216479452Y-96726428D01*
X216527071Y-96821666D01*
X216574690Y-96869285D01*
X216669928Y-96916904D01*
X216860404Y-96916904D01*
X216955642Y-96869285D01*
X217003261Y-96821666D01*
X217050880Y-96726428D01*
X217050880Y-96535952D01*
X217003261Y-96440714D01*
X216955642Y-96393095D01*
X216860404Y-96345476D01*
X216669928Y-96345476D01*
X216574690Y-96393095D01*
X216527071Y-96440714D01*
X216479452Y-96535952D01*
X219273380Y-94305357D02*
X218797190Y-94638690D01*
X219273380Y-94876785D02*
X218273380Y-94876785D01*
X218273380Y-94495833D01*
X218321000Y-94400595D01*
X218368619Y-94352976D01*
X218463857Y-94305357D01*
X218606714Y-94305357D01*
X218701952Y-94352976D01*
X218749571Y-94400595D01*
X218797190Y-94495833D01*
X218797190Y-94876785D01*
X219273380Y-93352976D02*
X219273380Y-93924404D01*
X219273380Y-93638690D02*
X218273380Y-93638690D01*
X218416238Y-93733928D01*
X218511476Y-93829166D01*
X218559095Y-93924404D01*
X218273380Y-92733928D02*
X218273380Y-92638690D01*
X218321000Y-92543452D01*
X218368619Y-92495833D01*
X218463857Y-92448214D01*
X218654333Y-92400595D01*
X218892428Y-92400595D01*
X219082904Y-92448214D01*
X219178142Y-92495833D01*
X219225761Y-92543452D01*
X219273380Y-92638690D01*
X219273380Y-92733928D01*
X219225761Y-92829166D01*
X219178142Y-92876785D01*
X219082904Y-92924404D01*
X218892428Y-92972023D01*
X218654333Y-92972023D01*
X218463857Y-92924404D01*
X218368619Y-92876785D01*
X218321000Y-92829166D01*
X218273380Y-92733928D01*
X230274761Y-100821809D02*
X230322380Y-100678952D01*
X230322380Y-100440857D01*
X230274761Y-100345619D01*
X230227142Y-100298000D01*
X230131904Y-100250380D01*
X230036666Y-100250380D01*
X229941428Y-100298000D01*
X229893809Y-100345619D01*
X229846190Y-100440857D01*
X229798571Y-100631333D01*
X229750952Y-100726571D01*
X229703333Y-100774190D01*
X229608095Y-100821809D01*
X229512857Y-100821809D01*
X229417619Y-100774190D01*
X229370000Y-100726571D01*
X229322380Y-100631333D01*
X229322380Y-100393238D01*
X229370000Y-100250380D01*
X230322380Y-99821809D02*
X229322380Y-99821809D01*
X229322380Y-99583714D01*
X229370000Y-99440857D01*
X229465238Y-99345619D01*
X229560476Y-99298000D01*
X229750952Y-99250380D01*
X229893809Y-99250380D01*
X230084285Y-99298000D01*
X230179523Y-99345619D01*
X230274761Y-99440857D01*
X230322380Y-99583714D01*
X230322380Y-99821809D01*
X230417619Y-99059904D02*
X230417619Y-98298000D01*
X230322380Y-97488476D02*
X229846190Y-97821809D01*
X230322380Y-98059904D02*
X229322380Y-98059904D01*
X229322380Y-97678952D01*
X229370000Y-97583714D01*
X229417619Y-97536095D01*
X229512857Y-97488476D01*
X229655714Y-97488476D01*
X229750952Y-97536095D01*
X229798571Y-97583714D01*
X229846190Y-97678952D01*
X229846190Y-98059904D01*
X230274761Y-97107523D02*
X230322380Y-96964666D01*
X230322380Y-96726571D01*
X230274761Y-96631333D01*
X230227142Y-96583714D01*
X230131904Y-96536095D01*
X230036666Y-96536095D01*
X229941428Y-96583714D01*
X229893809Y-96631333D01*
X229846190Y-96726571D01*
X229798571Y-96917047D01*
X229750952Y-97012285D01*
X229703333Y-97059904D01*
X229608095Y-97107523D01*
X229512857Y-97107523D01*
X229417619Y-97059904D01*
X229370000Y-97012285D01*
X229322380Y-96917047D01*
X229322380Y-96678952D01*
X229370000Y-96536095D01*
X229322380Y-96250380D02*
X229322380Y-95678952D01*
X230322380Y-95964666D02*
X229322380Y-95964666D01*
X235729380Y-73247095D02*
X236538904Y-73247095D01*
X236634142Y-73199476D01*
X236681761Y-73151857D01*
X236729380Y-73056619D01*
X236729380Y-72866142D01*
X236681761Y-72770904D01*
X236634142Y-72723285D01*
X236538904Y-72675666D01*
X235729380Y-72675666D01*
X236729380Y-71675666D02*
X236729380Y-72247095D01*
X236729380Y-71961380D02*
X235729380Y-71961380D01*
X235872238Y-72056619D01*
X235967476Y-72151857D01*
X236015095Y-72247095D01*
X235824619Y-71294714D02*
X235777000Y-71247095D01*
X235729380Y-71151857D01*
X235729380Y-70913761D01*
X235777000Y-70818523D01*
X235824619Y-70770904D01*
X235919857Y-70723285D01*
X236015095Y-70723285D01*
X236157952Y-70770904D01*
X236729380Y-71342333D01*
X236729380Y-70723285D01*
X235275380Y-76580428D02*
X234275380Y-76580428D01*
X235275380Y-76009000D01*
X234275380Y-76009000D01*
X234275380Y-75628047D02*
X235275380Y-74961380D01*
X234275380Y-74961380D02*
X235275380Y-75628047D01*
X234275380Y-74104238D02*
X234275380Y-74580428D01*
X234751571Y-74628047D01*
X234703952Y-74580428D01*
X234656333Y-74485190D01*
X234656333Y-74247095D01*
X234703952Y-74151857D01*
X234751571Y-74104238D01*
X234846809Y-74056619D01*
X235084904Y-74056619D01*
X235180142Y-74104238D01*
X235227761Y-74151857D01*
X235275380Y-74247095D01*
X235275380Y-74485190D01*
X235227761Y-74580428D01*
X235180142Y-74628047D01*
X234608714Y-73199476D02*
X235275380Y-73199476D01*
X234227761Y-73437571D02*
X234942047Y-73675666D01*
X234942047Y-73056619D01*
X234370619Y-72723285D02*
X234323000Y-72675666D01*
X234275380Y-72580428D01*
X234275380Y-72342333D01*
X234323000Y-72247095D01*
X234370619Y-72199476D01*
X234465857Y-72151857D01*
X234561095Y-72151857D01*
X234703952Y-72199476D01*
X235275380Y-72770904D01*
X235275380Y-72151857D01*
X234275380Y-71818523D02*
X234275380Y-71151857D01*
X235275380Y-71580428D01*
X234275380Y-70580428D02*
X234275380Y-70485190D01*
X234323000Y-70389952D01*
X234370619Y-70342333D01*
X234465857Y-70294714D01*
X234656333Y-70247095D01*
X234894428Y-70247095D01*
X235084904Y-70294714D01*
X235180142Y-70342333D01*
X235227761Y-70389952D01*
X235275380Y-70485190D01*
X235275380Y-70580428D01*
X235227761Y-70675666D01*
X235180142Y-70723285D01*
X235084904Y-70770904D01*
X234894428Y-70818523D01*
X234656333Y-70818523D01*
X234465857Y-70770904D01*
X234370619Y-70723285D01*
X234323000Y-70675666D01*
X234275380Y-70580428D01*
X234275380Y-69628047D02*
X234275380Y-69532809D01*
X234323000Y-69437571D01*
X234370619Y-69389952D01*
X234465857Y-69342333D01*
X234656333Y-69294714D01*
X234894428Y-69294714D01*
X235084904Y-69342333D01*
X235180142Y-69389952D01*
X235227761Y-69437571D01*
X235275380Y-69532809D01*
X235275380Y-69628047D01*
X235227761Y-69723285D01*
X235180142Y-69770904D01*
X235084904Y-69818523D01*
X234894428Y-69866142D01*
X234656333Y-69866142D01*
X234465857Y-69818523D01*
X234370619Y-69770904D01*
X234323000Y-69723285D01*
X234275380Y-69628047D01*
X235275380Y-68342333D02*
X235275380Y-68913761D01*
X235275380Y-68628047D02*
X234275380Y-68628047D01*
X234418238Y-68723285D01*
X234513476Y-68818523D01*
X234561095Y-68913761D01*
X234275380Y-68009000D02*
X234275380Y-67342333D01*
X235275380Y-68009000D01*
X235275380Y-67342333D01*
X241768380Y-67547904D02*
X242482666Y-67547904D01*
X242625523Y-67595523D01*
X242720761Y-67690761D01*
X242768380Y-67833619D01*
X242768380Y-67928857D01*
X242768380Y-66547904D02*
X242768380Y-67119333D01*
X242768380Y-66833619D02*
X241768380Y-66833619D01*
X241911238Y-66928857D01*
X242006476Y-67024095D01*
X242054095Y-67119333D01*
X241768380Y-66214571D02*
X241768380Y-65595523D01*
X242149333Y-65928857D01*
X242149333Y-65786000D01*
X242196952Y-65690761D01*
X242244571Y-65643142D01*
X242339809Y-65595523D01*
X242577904Y-65595523D01*
X242673142Y-65643142D01*
X242720761Y-65690761D01*
X242768380Y-65786000D01*
X242768380Y-66071714D01*
X242720761Y-66166952D01*
X242673142Y-66214571D01*
X242768380Y-64643142D02*
X242768380Y-65214571D01*
X242768380Y-64928857D02*
X241768380Y-64928857D01*
X241911238Y-65024095D01*
X242006476Y-65119333D01*
X242054095Y-65214571D01*
X241768380Y-64024095D02*
X241768380Y-63928857D01*
X241816000Y-63833619D01*
X241863619Y-63786000D01*
X241958857Y-63738380D01*
X242149333Y-63690761D01*
X242387428Y-63690761D01*
X242577904Y-63738380D01*
X242673142Y-63786000D01*
X242720761Y-63833619D01*
X242768380Y-63928857D01*
X242768380Y-64024095D01*
X242720761Y-64119333D01*
X242673142Y-64166952D01*
X242577904Y-64214571D01*
X242387428Y-64262190D01*
X242149333Y-64262190D01*
X241958857Y-64214571D01*
X241863619Y-64166952D01*
X241816000Y-64119333D01*
X241768380Y-64024095D01*
X227981095Y-54633880D02*
X227981095Y-55348166D01*
X227933476Y-55491023D01*
X227838238Y-55586261D01*
X227695380Y-55633880D01*
X227600142Y-55633880D01*
X228981095Y-55633880D02*
X228409666Y-55633880D01*
X228695380Y-55633880D02*
X228695380Y-54633880D01*
X228600142Y-54776738D01*
X228504904Y-54871976D01*
X228409666Y-54919595D01*
X229314428Y-54633880D02*
X229933476Y-54633880D01*
X229600142Y-55014833D01*
X229743000Y-55014833D01*
X229838238Y-55062452D01*
X229885857Y-55110071D01*
X229933476Y-55205309D01*
X229933476Y-55443404D01*
X229885857Y-55538642D01*
X229838238Y-55586261D01*
X229743000Y-55633880D01*
X229457285Y-55633880D01*
X229362047Y-55586261D01*
X229314428Y-55538642D01*
X230885857Y-55633880D02*
X230314428Y-55633880D01*
X230600142Y-55633880D02*
X230600142Y-54633880D01*
X230504904Y-54776738D01*
X230409666Y-54871976D01*
X230314428Y-54919595D01*
X231838238Y-55633880D02*
X231266809Y-55633880D01*
X231552523Y-55633880D02*
X231552523Y-54633880D01*
X231457285Y-54776738D01*
X231362047Y-54871976D01*
X231266809Y-54919595D01*
X203414380Y-71871904D02*
X204128666Y-71871904D01*
X204271523Y-71919523D01*
X204366761Y-72014761D01*
X204414380Y-72157619D01*
X204414380Y-72252857D01*
X204414380Y-70871904D02*
X204414380Y-71443333D01*
X204414380Y-71157619D02*
X203414380Y-71157619D01*
X203557238Y-71252857D01*
X203652476Y-71348095D01*
X203700095Y-71443333D01*
X203414380Y-70538571D02*
X203414380Y-69919523D01*
X203795333Y-70252857D01*
X203795333Y-70110000D01*
X203842952Y-70014761D01*
X203890571Y-69967142D01*
X203985809Y-69919523D01*
X204223904Y-69919523D01*
X204319142Y-69967142D01*
X204366761Y-70014761D01*
X204414380Y-70110000D01*
X204414380Y-70395714D01*
X204366761Y-70490952D01*
X204319142Y-70538571D01*
X204414380Y-68967142D02*
X204414380Y-69538571D01*
X204414380Y-69252857D02*
X203414380Y-69252857D01*
X203557238Y-69348095D01*
X203652476Y-69443333D01*
X203700095Y-69538571D01*
X203509619Y-68586190D02*
X203462000Y-68538571D01*
X203414380Y-68443333D01*
X203414380Y-68205238D01*
X203462000Y-68110000D01*
X203509619Y-68062380D01*
X203604857Y-68014761D01*
X203700095Y-68014761D01*
X203842952Y-68062380D01*
X204414380Y-68633809D01*
X204414380Y-68014761D01*
X241736666Y-107116571D02*
X241403333Y-107116571D01*
X241403333Y-107640380D02*
X241403333Y-106640380D01*
X241879523Y-106640380D01*
X242593809Y-107116571D02*
X242736666Y-107164190D01*
X242784285Y-107211809D01*
X242831904Y-107307047D01*
X242831904Y-107449904D01*
X242784285Y-107545142D01*
X242736666Y-107592761D01*
X242641428Y-107640380D01*
X242260476Y-107640380D01*
X242260476Y-106640380D01*
X242593809Y-106640380D01*
X242689047Y-106688000D01*
X242736666Y-106735619D01*
X242784285Y-106830857D01*
X242784285Y-106926095D01*
X242736666Y-107021333D01*
X242689047Y-107068952D01*
X242593809Y-107116571D01*
X242260476Y-107116571D01*
X243784285Y-107640380D02*
X243212857Y-107640380D01*
X243498571Y-107640380D02*
X243498571Y-106640380D01*
X243403333Y-106783238D01*
X243308095Y-106878476D01*
X243212857Y-106926095D01*
X210042166Y-47839380D02*
X210042166Y-48553666D01*
X209994547Y-48696523D01*
X209899309Y-48791761D01*
X209756452Y-48839380D01*
X209661214Y-48839380D01*
X210423119Y-47839380D02*
X211042166Y-47839380D01*
X210708833Y-48220333D01*
X210851690Y-48220333D01*
X210946928Y-48267952D01*
X210994547Y-48315571D01*
X211042166Y-48410809D01*
X211042166Y-48648904D01*
X210994547Y-48744142D01*
X210946928Y-48791761D01*
X210851690Y-48839380D01*
X210565976Y-48839380D01*
X210470738Y-48791761D01*
X210423119Y-48744142D01*
X244988095Y-55082380D02*
X244988095Y-54082380D01*
X244988095Y-54558571D02*
X245559523Y-54558571D01*
X245559523Y-55082380D02*
X245559523Y-54082380D01*
X245988095Y-54177619D02*
X246035714Y-54130000D01*
X246130952Y-54082380D01*
X246369047Y-54082380D01*
X246464285Y-54130000D01*
X246511904Y-54177619D01*
X246559523Y-54272857D01*
X246559523Y-54368095D01*
X246511904Y-54510952D01*
X245940476Y-55082380D01*
X246559523Y-55082380D01*
X201488095Y-85796380D02*
X201488095Y-84796380D01*
X201488095Y-85272571D02*
X202059523Y-85272571D01*
X202059523Y-85796380D02*
X202059523Y-84796380D01*
X203059523Y-85796380D02*
X202488095Y-85796380D01*
X202773809Y-85796380D02*
X202773809Y-84796380D01*
X202678571Y-84939238D01*
X202583333Y-85034476D01*
X202488095Y-85082095D01*
X208438761Y-108180119D02*
X208343523Y-108132500D01*
X208248285Y-108037261D01*
X208105428Y-107894404D01*
X208010190Y-107846785D01*
X207914952Y-107846785D01*
X207962571Y-108084880D02*
X207867333Y-108037261D01*
X207772095Y-107942023D01*
X207724476Y-107751547D01*
X207724476Y-107418214D01*
X207772095Y-107227738D01*
X207867333Y-107132500D01*
X207962571Y-107084880D01*
X208153047Y-107084880D01*
X208248285Y-107132500D01*
X208343523Y-107227738D01*
X208391142Y-107418214D01*
X208391142Y-107751547D01*
X208343523Y-107942023D01*
X208248285Y-108037261D01*
X208153047Y-108084880D01*
X207962571Y-108084880D01*
X209343523Y-108084880D02*
X208772095Y-108084880D01*
X209057809Y-108084880D02*
X209057809Y-107084880D01*
X208962571Y-107227738D01*
X208867333Y-107322976D01*
X208772095Y-107370595D01*
X202961952Y-102576380D02*
X203152428Y-102576380D01*
X203247666Y-102624000D01*
X203342904Y-102719238D01*
X203390523Y-102909714D01*
X203390523Y-103243047D01*
X203342904Y-103433523D01*
X203247666Y-103528761D01*
X203152428Y-103576380D01*
X202961952Y-103576380D01*
X202866714Y-103528761D01*
X202771476Y-103433523D01*
X202723857Y-103243047D01*
X202723857Y-102909714D01*
X202771476Y-102719238D01*
X202866714Y-102624000D01*
X202961952Y-102576380D01*
X203819095Y-103576380D02*
X203819095Y-102576380D01*
X204390523Y-103576380D01*
X204390523Y-102576380D01*
X247546880Y-49434500D02*
X247546880Y-49244023D01*
X247594500Y-49148785D01*
X247689738Y-49053547D01*
X247880214Y-49005928D01*
X248213547Y-49005928D01*
X248404023Y-49053547D01*
X248499261Y-49148785D01*
X248546880Y-49244023D01*
X248546880Y-49434500D01*
X248499261Y-49529738D01*
X248404023Y-49624976D01*
X248213547Y-49672595D01*
X247880214Y-49672595D01*
X247689738Y-49624976D01*
X247594500Y-49529738D01*
X247546880Y-49434500D01*
X248546880Y-48577357D02*
X247546880Y-48577357D01*
X248546880Y-48005928D01*
X247546880Y-48005928D01*
X247546880Y-47339261D02*
X247546880Y-47148785D01*
X247594500Y-47053547D01*
X247689738Y-46958309D01*
X247880214Y-46910690D01*
X248213547Y-46910690D01*
X248404023Y-46958309D01*
X248499261Y-47053547D01*
X248546880Y-47148785D01*
X248546880Y-47339261D01*
X248499261Y-47434500D01*
X248404023Y-47529738D01*
X248213547Y-47577357D01*
X247880214Y-47577357D01*
X247689738Y-47529738D01*
X247594500Y-47434500D01*
X247546880Y-47339261D01*
X248023071Y-46148785D02*
X248023071Y-46482119D01*
X248546880Y-46482119D02*
X247546880Y-46482119D01*
X247546880Y-46005928D01*
X248023071Y-45291642D02*
X248023071Y-45624976D01*
X248546880Y-45624976D02*
X247546880Y-45624976D01*
X247546880Y-45148785D01*
X220622952Y-107005380D02*
X220289619Y-106529190D01*
X220051523Y-107005380D02*
X220051523Y-106005380D01*
X220432476Y-106005380D01*
X220527714Y-106053000D01*
X220575333Y-106100619D01*
X220622952Y-106195857D01*
X220622952Y-106338714D01*
X220575333Y-106433952D01*
X220527714Y-106481571D01*
X220432476Y-106529190D01*
X220051523Y-106529190D01*
X221575333Y-107005380D02*
X221003904Y-107005380D01*
X221289619Y-107005380D02*
X221289619Y-106005380D01*
X221194380Y-106148238D01*
X221099142Y-106243476D01*
X221003904Y-106291095D01*
X222194380Y-106005380D02*
X222289619Y-106005380D01*
X222384857Y-106053000D01*
X222432476Y-106100619D01*
X222480095Y-106195857D01*
X222527714Y-106386333D01*
X222527714Y-106624428D01*
X222480095Y-106814904D01*
X222432476Y-106910142D01*
X222384857Y-106957761D01*
X222289619Y-107005380D01*
X222194380Y-107005380D01*
X222099142Y-106957761D01*
X222051523Y-106910142D01*
X222003904Y-106814904D01*
X221956285Y-106624428D01*
X221956285Y-106386333D01*
X222003904Y-106195857D01*
X222051523Y-106100619D01*
X222099142Y-106053000D01*
X222194380Y-106005380D01*
X223003904Y-107005380D02*
X223194380Y-107005380D01*
X223289619Y-106957761D01*
X223337238Y-106910142D01*
X223432476Y-106767285D01*
X223480095Y-106576809D01*
X223480095Y-106195857D01*
X223432476Y-106100619D01*
X223384857Y-106053000D01*
X223289619Y-106005380D01*
X223099142Y-106005380D01*
X223003904Y-106053000D01*
X222956285Y-106100619D01*
X222908666Y-106195857D01*
X222908666Y-106433952D01*
X222956285Y-106529190D01*
X223003904Y-106576809D01*
X223099142Y-106624428D01*
X223289619Y-106624428D01*
X223384857Y-106576809D01*
X223432476Y-106529190D01*
X223480095Y-106433952D01*
X245879880Y-87860047D02*
X245403690Y-88193380D01*
X245879880Y-88431476D02*
X244879880Y-88431476D01*
X244879880Y-88050523D01*
X244927500Y-87955285D01*
X244975119Y-87907666D01*
X245070357Y-87860047D01*
X245213214Y-87860047D01*
X245308452Y-87907666D01*
X245356071Y-87955285D01*
X245403690Y-88050523D01*
X245403690Y-88431476D01*
X245879880Y-86907666D02*
X245879880Y-87479095D01*
X245879880Y-87193380D02*
X244879880Y-87193380D01*
X245022738Y-87288619D01*
X245117976Y-87383857D01*
X245165595Y-87479095D01*
X244879880Y-86288619D02*
X244879880Y-86193380D01*
X244927500Y-86098142D01*
X244975119Y-86050523D01*
X245070357Y-86002904D01*
X245260833Y-85955285D01*
X245498928Y-85955285D01*
X245689404Y-86002904D01*
X245784642Y-86050523D01*
X245832261Y-86098142D01*
X245879880Y-86193380D01*
X245879880Y-86288619D01*
X245832261Y-86383857D01*
X245784642Y-86431476D01*
X245689404Y-86479095D01*
X245498928Y-86526714D01*
X245260833Y-86526714D01*
X245070357Y-86479095D01*
X244975119Y-86431476D01*
X244927500Y-86383857D01*
X244879880Y-86288619D01*
X245308452Y-85383857D02*
X245260833Y-85479095D01*
X245213214Y-85526714D01*
X245117976Y-85574333D01*
X245070357Y-85574333D01*
X244975119Y-85526714D01*
X244927500Y-85479095D01*
X244879880Y-85383857D01*
X244879880Y-85193380D01*
X244927500Y-85098142D01*
X244975119Y-85050523D01*
X245070357Y-85002904D01*
X245117976Y-85002904D01*
X245213214Y-85050523D01*
X245260833Y-85098142D01*
X245308452Y-85193380D01*
X245308452Y-85383857D01*
X245356071Y-85479095D01*
X245403690Y-85526714D01*
X245498928Y-85574333D01*
X245689404Y-85574333D01*
X245784642Y-85526714D01*
X245832261Y-85479095D01*
X245879880Y-85383857D01*
X245879880Y-85193380D01*
X245832261Y-85098142D01*
X245784642Y-85050523D01*
X245689404Y-85002904D01*
X245498928Y-85002904D01*
X245403690Y-85050523D01*
X245356071Y-85098142D01*
X245308452Y-85193380D01*
X244355880Y-87860047D02*
X243879690Y-88193380D01*
X244355880Y-88431476D02*
X243355880Y-88431476D01*
X243355880Y-88050523D01*
X243403500Y-87955285D01*
X243451119Y-87907666D01*
X243546357Y-87860047D01*
X243689214Y-87860047D01*
X243784452Y-87907666D01*
X243832071Y-87955285D01*
X243879690Y-88050523D01*
X243879690Y-88431476D01*
X244355880Y-86907666D02*
X244355880Y-87479095D01*
X244355880Y-87193380D02*
X243355880Y-87193380D01*
X243498738Y-87288619D01*
X243593976Y-87383857D01*
X243641595Y-87479095D01*
X243355880Y-86288619D02*
X243355880Y-86193380D01*
X243403500Y-86098142D01*
X243451119Y-86050523D01*
X243546357Y-86002904D01*
X243736833Y-85955285D01*
X243974928Y-85955285D01*
X244165404Y-86002904D01*
X244260642Y-86050523D01*
X244308261Y-86098142D01*
X244355880Y-86193380D01*
X244355880Y-86288619D01*
X244308261Y-86383857D01*
X244260642Y-86431476D01*
X244165404Y-86479095D01*
X243974928Y-86526714D01*
X243736833Y-86526714D01*
X243546357Y-86479095D01*
X243451119Y-86431476D01*
X243403500Y-86383857D01*
X243355880Y-86288619D01*
X243355880Y-85621952D02*
X243355880Y-84955285D01*
X244355880Y-85383857D01*
X215828642Y-86304380D02*
X215495309Y-85828190D01*
X215257214Y-86304380D02*
X215257214Y-85304380D01*
X215638166Y-85304380D01*
X215733404Y-85352000D01*
X215781023Y-85399619D01*
X215828642Y-85494857D01*
X215828642Y-85637714D01*
X215781023Y-85732952D01*
X215733404Y-85780571D01*
X215638166Y-85828190D01*
X215257214Y-85828190D01*
X216685785Y-85637714D02*
X216685785Y-86304380D01*
X216447690Y-85256761D02*
X216209595Y-85971047D01*
X216828642Y-85971047D01*
X217352452Y-85732952D02*
X217257214Y-85685333D01*
X217209595Y-85637714D01*
X217161976Y-85542476D01*
X217161976Y-85494857D01*
X217209595Y-85399619D01*
X217257214Y-85352000D01*
X217352452Y-85304380D01*
X217542928Y-85304380D01*
X217638166Y-85352000D01*
X217685785Y-85399619D01*
X217733404Y-85494857D01*
X217733404Y-85542476D01*
X217685785Y-85637714D01*
X217638166Y-85685333D01*
X217542928Y-85732952D01*
X217352452Y-85732952D01*
X217257214Y-85780571D01*
X217209595Y-85828190D01*
X217161976Y-85923428D01*
X217161976Y-86113904D01*
X217209595Y-86209142D01*
X217257214Y-86256761D01*
X217352452Y-86304380D01*
X217542928Y-86304380D01*
X217638166Y-86256761D01*
X217685785Y-86209142D01*
X217733404Y-86113904D01*
X217733404Y-85923428D01*
X217685785Y-85828190D01*
X217638166Y-85780571D01*
X217542928Y-85732952D01*
X207256142Y-84843880D02*
X206922809Y-84367690D01*
X206684714Y-84843880D02*
X206684714Y-83843880D01*
X207065666Y-83843880D01*
X207160904Y-83891500D01*
X207208523Y-83939119D01*
X207256142Y-84034357D01*
X207256142Y-84177214D01*
X207208523Y-84272452D01*
X207160904Y-84320071D01*
X207065666Y-84367690D01*
X206684714Y-84367690D01*
X208113285Y-84177214D02*
X208113285Y-84843880D01*
X207875190Y-83796261D02*
X207637095Y-84510547D01*
X208256142Y-84510547D01*
X208541857Y-83843880D02*
X209208523Y-83843880D01*
X208779952Y-84843880D01*
X215765142Y-93797380D02*
X215431809Y-93321190D01*
X215193714Y-93797380D02*
X215193714Y-92797380D01*
X215574666Y-92797380D01*
X215669904Y-92845000D01*
X215717523Y-92892619D01*
X215765142Y-92987857D01*
X215765142Y-93130714D01*
X215717523Y-93225952D01*
X215669904Y-93273571D01*
X215574666Y-93321190D01*
X215193714Y-93321190D01*
X216622285Y-93130714D02*
X216622285Y-93797380D01*
X216384190Y-92749761D02*
X216146095Y-93464047D01*
X216765142Y-93464047D01*
X217574666Y-93130714D02*
X217574666Y-93797380D01*
X217336571Y-92749761D02*
X217098476Y-93464047D01*
X217717523Y-93464047D01*
X215590380Y-101925357D02*
X215114190Y-102258690D01*
X215590380Y-102496785D02*
X214590380Y-102496785D01*
X214590380Y-102115833D01*
X214638000Y-102020595D01*
X214685619Y-101972976D01*
X214780857Y-101925357D01*
X214923714Y-101925357D01*
X215018952Y-101972976D01*
X215066571Y-102020595D01*
X215114190Y-102115833D01*
X215114190Y-102496785D01*
X214923714Y-101068214D02*
X215590380Y-101068214D01*
X214542761Y-101306309D02*
X215257047Y-101544404D01*
X215257047Y-100925357D01*
X214590380Y-100639642D02*
X214590380Y-100020595D01*
X214971333Y-100353928D01*
X214971333Y-100211071D01*
X215018952Y-100115833D01*
X215066571Y-100068214D01*
X215161809Y-100020595D01*
X215399904Y-100020595D01*
X215495142Y-100068214D01*
X215542761Y-100115833D01*
X215590380Y-100211071D01*
X215590380Y-100496785D01*
X215542761Y-100592023D01*
X215495142Y-100639642D01*
X226028261Y-107505119D02*
X225933023Y-107457500D01*
X225837785Y-107362261D01*
X225694928Y-107219404D01*
X225599690Y-107171785D01*
X225504452Y-107171785D01*
X225552071Y-107409880D02*
X225456833Y-107362261D01*
X225361595Y-107267023D01*
X225313976Y-107076547D01*
X225313976Y-106743214D01*
X225361595Y-106552738D01*
X225456833Y-106457500D01*
X225552071Y-106409880D01*
X225742547Y-106409880D01*
X225837785Y-106457500D01*
X225933023Y-106552738D01*
X225980642Y-106743214D01*
X225980642Y-107076547D01*
X225933023Y-107267023D01*
X225837785Y-107362261D01*
X225742547Y-107409880D01*
X225552071Y-107409880D01*
X226837785Y-106743214D02*
X226837785Y-107409880D01*
X226599690Y-106362261D02*
X226361595Y-107076547D01*
X226980642Y-107076547D01*
X230227119Y-92170238D02*
X230179500Y-92265476D01*
X230084261Y-92360714D01*
X229941404Y-92503571D01*
X229893785Y-92598809D01*
X229893785Y-92694047D01*
X230131880Y-92646428D02*
X230084261Y-92741666D01*
X229989023Y-92836904D01*
X229798547Y-92884523D01*
X229465214Y-92884523D01*
X229274738Y-92836904D01*
X229179500Y-92741666D01*
X229131880Y-92646428D01*
X229131880Y-92455952D01*
X229179500Y-92360714D01*
X229274738Y-92265476D01*
X229465214Y-92217857D01*
X229798547Y-92217857D01*
X229989023Y-92265476D01*
X230084261Y-92360714D01*
X230131880Y-92455952D01*
X230131880Y-92646428D01*
X229131880Y-91884523D02*
X229131880Y-91265476D01*
X229512833Y-91598809D01*
X229512833Y-91455952D01*
X229560452Y-91360714D01*
X229608071Y-91313095D01*
X229703309Y-91265476D01*
X229941404Y-91265476D01*
X230036642Y-91313095D01*
X230084261Y-91360714D01*
X230131880Y-91455952D01*
X230131880Y-91741666D01*
X230084261Y-91836904D01*
X230036642Y-91884523D01*
X206398833Y-90685880D02*
X205922642Y-90685880D01*
X205922642Y-89685880D01*
X206636928Y-89685880D02*
X207255976Y-89685880D01*
X206922642Y-90066833D01*
X207065500Y-90066833D01*
X207160738Y-90114452D01*
X207208357Y-90162071D01*
X207255976Y-90257309D01*
X207255976Y-90495404D01*
X207208357Y-90590642D01*
X207160738Y-90638261D01*
X207065500Y-90685880D01*
X206779785Y-90685880D01*
X206684547Y-90638261D01*
X206636928Y-90590642D01*
X217701833Y-107020880D02*
X217225642Y-107020880D01*
X217225642Y-106020880D01*
X217987547Y-106116119D02*
X218035166Y-106068500D01*
X218130404Y-106020880D01*
X218368500Y-106020880D01*
X218463738Y-106068500D01*
X218511357Y-106116119D01*
X218558976Y-106211357D01*
X218558976Y-106306595D01*
X218511357Y-106449452D01*
X217939928Y-107020880D01*
X218558976Y-107020880D01*
X224583666Y-42441880D02*
X224583666Y-43156166D01*
X224536047Y-43299023D01*
X224440809Y-43394261D01*
X224297952Y-43441880D01*
X224202714Y-43441880D01*
X224964619Y-42441880D02*
X225631285Y-42441880D01*
X225202714Y-43441880D01*
X201533166Y-48601380D02*
X201533166Y-49315666D01*
X201485547Y-49458523D01*
X201390309Y-49553761D01*
X201247452Y-49601380D01*
X201152214Y-49601380D01*
X202437928Y-48601380D02*
X202247452Y-48601380D01*
X202152214Y-48649000D01*
X202104595Y-48696619D01*
X202009357Y-48839476D01*
X201961738Y-49029952D01*
X201961738Y-49410904D01*
X202009357Y-49506142D01*
X202056976Y-49553761D01*
X202152214Y-49601380D01*
X202342690Y-49601380D01*
X202437928Y-49553761D01*
X202485547Y-49506142D01*
X202533166Y-49410904D01*
X202533166Y-49172809D01*
X202485547Y-49077571D01*
X202437928Y-49029952D01*
X202342690Y-48982333D01*
X202152214Y-48982333D01*
X202056976Y-49029952D01*
X202009357Y-49077571D01*
X201961738Y-49172809D01*
X214431642Y-87606142D02*
X214384023Y-87653761D01*
X214241166Y-87701380D01*
X214145928Y-87701380D01*
X214003071Y-87653761D01*
X213907833Y-87558523D01*
X213860214Y-87463285D01*
X213812595Y-87272809D01*
X213812595Y-87129952D01*
X213860214Y-86939476D01*
X213907833Y-86844238D01*
X214003071Y-86749000D01*
X214145928Y-86701380D01*
X214241166Y-86701380D01*
X214384023Y-86749000D01*
X214431642Y-86796619D01*
X214764976Y-86701380D02*
X215384023Y-86701380D01*
X215050690Y-87082333D01*
X215193547Y-87082333D01*
X215288785Y-87129952D01*
X215336404Y-87177571D01*
X215384023Y-87272809D01*
X215384023Y-87510904D01*
X215336404Y-87606142D01*
X215288785Y-87653761D01*
X215193547Y-87701380D01*
X214907833Y-87701380D01*
X214812595Y-87653761D01*
X214764976Y-87606142D01*
X215860214Y-87701380D02*
X216050690Y-87701380D01*
X216145928Y-87653761D01*
X216193547Y-87606142D01*
X216288785Y-87463285D01*
X216336404Y-87272809D01*
X216336404Y-86891857D01*
X216288785Y-86796619D01*
X216241166Y-86749000D01*
X216145928Y-86701380D01*
X215955452Y-86701380D01*
X215860214Y-86749000D01*
X215812595Y-86796619D01*
X215764976Y-86891857D01*
X215764976Y-87129952D01*
X215812595Y-87225190D01*
X215860214Y-87272809D01*
X215955452Y-87320428D01*
X216145928Y-87320428D01*
X216241166Y-87272809D01*
X216288785Y-87225190D01*
X216336404Y-87129952D01*
X206692714Y-34567880D02*
X206692714Y-35377404D01*
X206740333Y-35472642D01*
X206787952Y-35520261D01*
X206883190Y-35567880D01*
X207073666Y-35567880D01*
X207168904Y-35520261D01*
X207216523Y-35472642D01*
X207264142Y-35377404D01*
X207264142Y-34567880D01*
X207692714Y-35520261D02*
X207835571Y-35567880D01*
X208073666Y-35567880D01*
X208168904Y-35520261D01*
X208216523Y-35472642D01*
X208264142Y-35377404D01*
X208264142Y-35282166D01*
X208216523Y-35186928D01*
X208168904Y-35139309D01*
X208073666Y-35091690D01*
X207883190Y-35044071D01*
X207787952Y-34996452D01*
X207740333Y-34948833D01*
X207692714Y-34853595D01*
X207692714Y-34758357D01*
X207740333Y-34663119D01*
X207787952Y-34615500D01*
X207883190Y-34567880D01*
X208121285Y-34567880D01*
X208264142Y-34615500D01*
X208692714Y-35044071D02*
X209026047Y-35044071D01*
X209168904Y-35567880D02*
X208692714Y-35567880D01*
X208692714Y-34567880D01*
X209168904Y-34567880D01*
X210168904Y-35567880D02*
X209835571Y-35091690D01*
X209597476Y-35567880D02*
X209597476Y-34567880D01*
X209978428Y-34567880D01*
X210073666Y-34615500D01*
X210121285Y-34663119D01*
X210168904Y-34758357D01*
X210168904Y-34901214D01*
X210121285Y-34996452D01*
X210073666Y-35044071D01*
X209978428Y-35091690D01*
X209597476Y-35091690D01*
X219111580Y-74714004D02*
X219921104Y-74714004D01*
X220016342Y-74666385D01*
X220063961Y-74618766D01*
X220111580Y-74523528D01*
X220111580Y-74333052D01*
X220063961Y-74237814D01*
X220016342Y-74190195D01*
X219921104Y-74142576D01*
X219111580Y-74142576D01*
X219111580Y-73761623D02*
X219111580Y-73094957D01*
X220111580Y-73523528D01*
X217206580Y-68141695D02*
X218016104Y-68141695D01*
X218111342Y-68094076D01*
X218158961Y-68046457D01*
X218206580Y-67951219D01*
X218206580Y-67760742D01*
X218158961Y-67665504D01*
X218111342Y-67617885D01*
X218016104Y-67570266D01*
X217206580Y-67570266D01*
X218206580Y-66570266D02*
X218206580Y-67141695D01*
X218206580Y-66855980D02*
X217206580Y-66855980D01*
X217349438Y-66951219D01*
X217444676Y-67046457D01*
X217492295Y-67141695D01*
X217206580Y-65951219D02*
X217206580Y-65855980D01*
X217254200Y-65760742D01*
X217301819Y-65713123D01*
X217397057Y-65665504D01*
X217587533Y-65617885D01*
X217825628Y-65617885D01*
X218016104Y-65665504D01*
X218111342Y-65713123D01*
X218158961Y-65760742D01*
X218206580Y-65855980D01*
X218206580Y-65951219D01*
X218158961Y-66046457D01*
X218111342Y-66094076D01*
X218016104Y-66141695D01*
X217825628Y-66189314D01*
X217587533Y-66189314D01*
X217397057Y-66141695D01*
X217301819Y-66094076D01*
X217254200Y-66046457D01*
X217206580Y-65951219D01*
X213621880Y-77858857D02*
X213145690Y-78192190D01*
X213621880Y-78430285D02*
X212621880Y-78430285D01*
X212621880Y-78049333D01*
X212669500Y-77954095D01*
X212717119Y-77906476D01*
X212812357Y-77858857D01*
X212955214Y-77858857D01*
X213050452Y-77906476D01*
X213098071Y-77954095D01*
X213145690Y-78049333D01*
X213145690Y-78430285D01*
X212621880Y-76954095D02*
X212621880Y-77430285D01*
X213098071Y-77477904D01*
X213050452Y-77430285D01*
X213002833Y-77335047D01*
X213002833Y-77096952D01*
X213050452Y-77001714D01*
X213098071Y-76954095D01*
X213193309Y-76906476D01*
X213431404Y-76906476D01*
X213526642Y-76954095D01*
X213574261Y-77001714D01*
X213621880Y-77096952D01*
X213621880Y-77335047D01*
X213574261Y-77430285D01*
X213526642Y-77477904D01*
X212955214Y-76049333D02*
X213621880Y-76049333D01*
X212574261Y-76287428D02*
X213288547Y-76525523D01*
X213288547Y-75906476D01*
X210510380Y-80690957D02*
X210034190Y-81024290D01*
X210510380Y-81262385D02*
X209510380Y-81262385D01*
X209510380Y-80881433D01*
X209558000Y-80786195D01*
X209605619Y-80738576D01*
X209700857Y-80690957D01*
X209843714Y-80690957D01*
X209938952Y-80738576D01*
X209986571Y-80786195D01*
X210034190Y-80881433D01*
X210034190Y-81262385D01*
X209510380Y-79786195D02*
X209510380Y-80262385D01*
X209986571Y-80310004D01*
X209938952Y-80262385D01*
X209891333Y-80167147D01*
X209891333Y-79929052D01*
X209938952Y-79833814D01*
X209986571Y-79786195D01*
X210081809Y-79738576D01*
X210319904Y-79738576D01*
X210415142Y-79786195D01*
X210462761Y-79833814D01*
X210510380Y-79929052D01*
X210510380Y-80167147D01*
X210462761Y-80262385D01*
X210415142Y-80310004D01*
X209510380Y-79405242D02*
X209510380Y-78786195D01*
X209891333Y-79119528D01*
X209891333Y-78976671D01*
X209938952Y-78881433D01*
X209986571Y-78833814D01*
X210081809Y-78786195D01*
X210319904Y-78786195D01*
X210415142Y-78833814D01*
X210462761Y-78881433D01*
X210510380Y-78976671D01*
X210510380Y-79262385D01*
X210462761Y-79357623D01*
X210415142Y-79405242D01*
X218066880Y-84183457D02*
X217590690Y-84516790D01*
X218066880Y-84754885D02*
X217066880Y-84754885D01*
X217066880Y-84373933D01*
X217114500Y-84278695D01*
X217162119Y-84231076D01*
X217257357Y-84183457D01*
X217400214Y-84183457D01*
X217495452Y-84231076D01*
X217543071Y-84278695D01*
X217590690Y-84373933D01*
X217590690Y-84754885D01*
X217066880Y-83278695D02*
X217066880Y-83754885D01*
X217543071Y-83802504D01*
X217495452Y-83754885D01*
X217447833Y-83659647D01*
X217447833Y-83421552D01*
X217495452Y-83326314D01*
X217543071Y-83278695D01*
X217638309Y-83231076D01*
X217876404Y-83231076D01*
X217971642Y-83278695D01*
X218019261Y-83326314D01*
X218066880Y-83421552D01*
X218066880Y-83659647D01*
X218019261Y-83754885D01*
X217971642Y-83802504D01*
X217066880Y-82612028D02*
X217066880Y-82516790D01*
X217114500Y-82421552D01*
X217162119Y-82373933D01*
X217257357Y-82326314D01*
X217447833Y-82278695D01*
X217685928Y-82278695D01*
X217876404Y-82326314D01*
X217971642Y-82373933D01*
X218019261Y-82421552D01*
X218066880Y-82516790D01*
X218066880Y-82612028D01*
X218019261Y-82707266D01*
X217971642Y-82754885D01*
X217876404Y-82802504D01*
X217685928Y-82850123D01*
X217447833Y-82850123D01*
X217257357Y-82802504D01*
X217162119Y-82754885D01*
X217114500Y-82707266D01*
X217066880Y-82612028D01*
X213685380Y-84183457D02*
X213209190Y-84516790D01*
X213685380Y-84754885D02*
X212685380Y-84754885D01*
X212685380Y-84373933D01*
X212733000Y-84278695D01*
X212780619Y-84231076D01*
X212875857Y-84183457D01*
X213018714Y-84183457D01*
X213113952Y-84231076D01*
X213161571Y-84278695D01*
X213209190Y-84373933D01*
X213209190Y-84754885D01*
X213018714Y-83326314D02*
X213685380Y-83326314D01*
X212637761Y-83564409D02*
X213352047Y-83802504D01*
X213352047Y-83183457D01*
X213685380Y-82754885D02*
X213685380Y-82564409D01*
X213637761Y-82469171D01*
X213590142Y-82421552D01*
X213447285Y-82326314D01*
X213256809Y-82278695D01*
X212875857Y-82278695D01*
X212780619Y-82326314D01*
X212733000Y-82373933D01*
X212685380Y-82469171D01*
X212685380Y-82659647D01*
X212733000Y-82754885D01*
X212780619Y-82802504D01*
X212875857Y-82850123D01*
X213113952Y-82850123D01*
X213209190Y-82802504D01*
X213256809Y-82754885D01*
X213304428Y-82659647D01*
X213304428Y-82469171D01*
X213256809Y-82373933D01*
X213209190Y-82326314D01*
X213113952Y-82278695D01*
X224300023Y-61158380D02*
X223966690Y-60682190D01*
X223728595Y-61158380D02*
X223728595Y-60158380D01*
X224109547Y-60158380D01*
X224204785Y-60206000D01*
X224252404Y-60253619D01*
X224300023Y-60348857D01*
X224300023Y-60491714D01*
X224252404Y-60586952D01*
X224204785Y-60634571D01*
X224109547Y-60682190D01*
X223728595Y-60682190D01*
X224633357Y-60158380D02*
X225252404Y-60158380D01*
X224919071Y-60539333D01*
X225061928Y-60539333D01*
X225157166Y-60586952D01*
X225204785Y-60634571D01*
X225252404Y-60729809D01*
X225252404Y-60967904D01*
X225204785Y-61063142D01*
X225157166Y-61110761D01*
X225061928Y-61158380D01*
X224776214Y-61158380D01*
X224680976Y-61110761D01*
X224633357Y-61063142D01*
X225823833Y-60586952D02*
X225728595Y-60539333D01*
X225680976Y-60491714D01*
X225633357Y-60396476D01*
X225633357Y-60348857D01*
X225680976Y-60253619D01*
X225728595Y-60206000D01*
X225823833Y-60158380D01*
X226014309Y-60158380D01*
X226109547Y-60206000D01*
X226157166Y-60253619D01*
X226204785Y-60348857D01*
X226204785Y-60396476D01*
X226157166Y-60491714D01*
X226109547Y-60539333D01*
X226014309Y-60586952D01*
X225823833Y-60586952D01*
X225728595Y-60634571D01*
X225680976Y-60682190D01*
X225633357Y-60777428D01*
X225633357Y-60967904D01*
X225680976Y-61063142D01*
X225728595Y-61110761D01*
X225823833Y-61158380D01*
X226014309Y-61158380D01*
X226109547Y-61110761D01*
X226157166Y-61063142D01*
X226204785Y-60967904D01*
X226204785Y-60777428D01*
X226157166Y-60682190D01*
X226109547Y-60634571D01*
X226014309Y-60586952D01*
X224300023Y-59634380D02*
X223966690Y-59158190D01*
X223728595Y-59634380D02*
X223728595Y-58634380D01*
X224109547Y-58634380D01*
X224204785Y-58682000D01*
X224252404Y-58729619D01*
X224300023Y-58824857D01*
X224300023Y-58967714D01*
X224252404Y-59062952D01*
X224204785Y-59110571D01*
X224109547Y-59158190D01*
X223728595Y-59158190D01*
X224633357Y-58634380D02*
X225252404Y-58634380D01*
X224919071Y-59015333D01*
X225061928Y-59015333D01*
X225157166Y-59062952D01*
X225204785Y-59110571D01*
X225252404Y-59205809D01*
X225252404Y-59443904D01*
X225204785Y-59539142D01*
X225157166Y-59586761D01*
X225061928Y-59634380D01*
X224776214Y-59634380D01*
X224680976Y-59586761D01*
X224633357Y-59539142D01*
X225585738Y-58634380D02*
X226252404Y-58634380D01*
X225823833Y-59634380D01*
X224858342Y-76118980D02*
X224525009Y-75642790D01*
X224286914Y-76118980D02*
X224286914Y-75118980D01*
X224667866Y-75118980D01*
X224763104Y-75166600D01*
X224810723Y-75214219D01*
X224858342Y-75309457D01*
X224858342Y-75452314D01*
X224810723Y-75547552D01*
X224763104Y-75595171D01*
X224667866Y-75642790D01*
X224286914Y-75642790D01*
X225715485Y-75452314D02*
X225715485Y-76118980D01*
X225477390Y-75071361D02*
X225239295Y-75785647D01*
X225858342Y-75785647D01*
X226429771Y-75118980D02*
X226525009Y-75118980D01*
X226620247Y-75166600D01*
X226667866Y-75214219D01*
X226715485Y-75309457D01*
X226763104Y-75499933D01*
X226763104Y-75738028D01*
X226715485Y-75928504D01*
X226667866Y-76023742D01*
X226620247Y-76071361D01*
X226525009Y-76118980D01*
X226429771Y-76118980D01*
X226334533Y-76071361D01*
X226286914Y-76023742D01*
X226239295Y-75928504D01*
X226191676Y-75738028D01*
X226191676Y-75499933D01*
X226239295Y-75309457D01*
X226286914Y-75214219D01*
X226334533Y-75166600D01*
X226429771Y-75118980D01*
X224858342Y-71673980D02*
X224525009Y-71197790D01*
X224286914Y-71673980D02*
X224286914Y-70673980D01*
X224667866Y-70673980D01*
X224763104Y-70721600D01*
X224810723Y-70769219D01*
X224858342Y-70864457D01*
X224858342Y-71007314D01*
X224810723Y-71102552D01*
X224763104Y-71150171D01*
X224667866Y-71197790D01*
X224286914Y-71197790D01*
X225191676Y-70673980D02*
X225810723Y-70673980D01*
X225477390Y-71054933D01*
X225620247Y-71054933D01*
X225715485Y-71102552D01*
X225763104Y-71150171D01*
X225810723Y-71245409D01*
X225810723Y-71483504D01*
X225763104Y-71578742D01*
X225715485Y-71626361D01*
X225620247Y-71673980D01*
X225334533Y-71673980D01*
X225239295Y-71626361D01*
X225191676Y-71578742D01*
X226286914Y-71673980D02*
X226477390Y-71673980D01*
X226572628Y-71626361D01*
X226620247Y-71578742D01*
X226715485Y-71435885D01*
X226763104Y-71245409D01*
X226763104Y-70864457D01*
X226715485Y-70769219D01*
X226667866Y-70721600D01*
X226572628Y-70673980D01*
X226382152Y-70673980D01*
X226286914Y-70721600D01*
X226239295Y-70769219D01*
X226191676Y-70864457D01*
X226191676Y-71102552D01*
X226239295Y-71197790D01*
X226286914Y-71245409D01*
X226382152Y-71293028D01*
X226572628Y-71293028D01*
X226667866Y-71245409D01*
X226715485Y-71197790D01*
X226763104Y-71102552D01*
X221416642Y-66365380D02*
X221083309Y-65889190D01*
X220845214Y-66365380D02*
X220845214Y-65365380D01*
X221226166Y-65365380D01*
X221321404Y-65413000D01*
X221369023Y-65460619D01*
X221416642Y-65555857D01*
X221416642Y-65698714D01*
X221369023Y-65793952D01*
X221321404Y-65841571D01*
X221226166Y-65889190D01*
X220845214Y-65889190D01*
X221749976Y-65365380D02*
X222369023Y-65365380D01*
X222035690Y-65746333D01*
X222178547Y-65746333D01*
X222273785Y-65793952D01*
X222321404Y-65841571D01*
X222369023Y-65936809D01*
X222369023Y-66174904D01*
X222321404Y-66270142D01*
X222273785Y-66317761D01*
X222178547Y-66365380D01*
X221892833Y-66365380D01*
X221797595Y-66317761D01*
X221749976Y-66270142D01*
X223273785Y-65365380D02*
X222797595Y-65365380D01*
X222749976Y-65841571D01*
X222797595Y-65793952D01*
X222892833Y-65746333D01*
X223130928Y-65746333D01*
X223226166Y-65793952D01*
X223273785Y-65841571D01*
X223321404Y-65936809D01*
X223321404Y-66174904D01*
X223273785Y-66270142D01*
X223226166Y-66317761D01*
X223130928Y-66365380D01*
X222892833Y-66365380D01*
X222797595Y-66317761D01*
X222749976Y-66270142D01*
X224858342Y-80500480D02*
X224525009Y-80024290D01*
X224286914Y-80500480D02*
X224286914Y-79500480D01*
X224667866Y-79500480D01*
X224763104Y-79548100D01*
X224810723Y-79595719D01*
X224858342Y-79690957D01*
X224858342Y-79833814D01*
X224810723Y-79929052D01*
X224763104Y-79976671D01*
X224667866Y-80024290D01*
X224286914Y-80024290D01*
X225191676Y-79500480D02*
X225810723Y-79500480D01*
X225477390Y-79881433D01*
X225620247Y-79881433D01*
X225715485Y-79929052D01*
X225763104Y-79976671D01*
X225810723Y-80071909D01*
X225810723Y-80310004D01*
X225763104Y-80405242D01*
X225715485Y-80452861D01*
X225620247Y-80500480D01*
X225334533Y-80500480D01*
X225239295Y-80452861D01*
X225191676Y-80405242D01*
X226667866Y-79500480D02*
X226477390Y-79500480D01*
X226382152Y-79548100D01*
X226334533Y-79595719D01*
X226239295Y-79738576D01*
X226191676Y-79929052D01*
X226191676Y-80310004D01*
X226239295Y-80405242D01*
X226286914Y-80452861D01*
X226382152Y-80500480D01*
X226572628Y-80500480D01*
X226667866Y-80452861D01*
X226715485Y-80405242D01*
X226763104Y-80310004D01*
X226763104Y-80071909D01*
X226715485Y-79976671D01*
X226667866Y-79929052D01*
X226572628Y-79881433D01*
X226382152Y-79881433D01*
X226286914Y-79929052D01*
X226239295Y-79976671D01*
X226191676Y-80071909D01*
X221797642Y-57983380D02*
X221464309Y-57507190D01*
X221226214Y-57983380D02*
X221226214Y-56983380D01*
X221607166Y-56983380D01*
X221702404Y-57031000D01*
X221750023Y-57078619D01*
X221797642Y-57173857D01*
X221797642Y-57316714D01*
X221750023Y-57411952D01*
X221702404Y-57459571D01*
X221607166Y-57507190D01*
X221226214Y-57507190D01*
X222130976Y-56983380D02*
X222750023Y-56983380D01*
X222416690Y-57364333D01*
X222559547Y-57364333D01*
X222654785Y-57411952D01*
X222702404Y-57459571D01*
X222750023Y-57554809D01*
X222750023Y-57792904D01*
X222702404Y-57888142D01*
X222654785Y-57935761D01*
X222559547Y-57983380D01*
X222273833Y-57983380D01*
X222178595Y-57935761D01*
X222130976Y-57888142D01*
X223083357Y-56983380D02*
X223702404Y-56983380D01*
X223369071Y-57364333D01*
X223511928Y-57364333D01*
X223607166Y-57411952D01*
X223654785Y-57459571D01*
X223702404Y-57554809D01*
X223702404Y-57792904D01*
X223654785Y-57888142D01*
X223607166Y-57935761D01*
X223511928Y-57983380D01*
X223226214Y-57983380D01*
X223130976Y-57935761D01*
X223083357Y-57888142D01*
X221746842Y-69857880D02*
X221413509Y-69381690D01*
X221175414Y-69857880D02*
X221175414Y-68857880D01*
X221556366Y-68857880D01*
X221651604Y-68905500D01*
X221699223Y-68953119D01*
X221746842Y-69048357D01*
X221746842Y-69191214D01*
X221699223Y-69286452D01*
X221651604Y-69334071D01*
X221556366Y-69381690D01*
X221175414Y-69381690D01*
X222080176Y-68857880D02*
X222699223Y-68857880D01*
X222365890Y-69238833D01*
X222508747Y-69238833D01*
X222603985Y-69286452D01*
X222651604Y-69334071D01*
X222699223Y-69429309D01*
X222699223Y-69667404D01*
X222651604Y-69762642D01*
X222603985Y-69810261D01*
X222508747Y-69857880D01*
X222223033Y-69857880D01*
X222127795Y-69810261D01*
X222080176Y-69762642D01*
X223556366Y-69191214D02*
X223556366Y-69857880D01*
X223318271Y-68810261D02*
X223080176Y-69524547D01*
X223699223Y-69524547D01*
X211971095Y-63015880D02*
X212542523Y-63015880D01*
X212256809Y-64015880D02*
X212256809Y-63015880D01*
X212875857Y-64015880D02*
X212875857Y-63015880D01*
X213256809Y-63015880D01*
X213352047Y-63063500D01*
X213399666Y-63111119D01*
X213447285Y-63206357D01*
X213447285Y-63349214D01*
X213399666Y-63444452D01*
X213352047Y-63492071D01*
X213256809Y-63539690D01*
X212875857Y-63539690D01*
X214018714Y-63444452D02*
X213923476Y-63396833D01*
X213875857Y-63349214D01*
X213828238Y-63253976D01*
X213828238Y-63206357D01*
X213875857Y-63111119D01*
X213923476Y-63063500D01*
X214018714Y-63015880D01*
X214209190Y-63015880D01*
X214304428Y-63063500D01*
X214352047Y-63111119D01*
X214399666Y-63206357D01*
X214399666Y-63253976D01*
X214352047Y-63349214D01*
X214304428Y-63396833D01*
X214209190Y-63444452D01*
X214018714Y-63444452D01*
X213923476Y-63492071D01*
X213875857Y-63539690D01*
X213828238Y-63634928D01*
X213828238Y-63825404D01*
X213875857Y-63920642D01*
X213923476Y-63968261D01*
X214018714Y-64015880D01*
X214209190Y-64015880D01*
X214304428Y-63968261D01*
X214352047Y-63920642D01*
X214399666Y-63825404D01*
X214399666Y-63634928D01*
X214352047Y-63539690D01*
X214304428Y-63492071D01*
X214209190Y-63444452D01*
X208605595Y-36536380D02*
X209177023Y-36536380D01*
X208891309Y-37536380D02*
X208891309Y-36536380D01*
X209510357Y-37536380D02*
X209510357Y-36536380D01*
X209891309Y-36536380D01*
X209986547Y-36584000D01*
X210034166Y-36631619D01*
X210081785Y-36726857D01*
X210081785Y-36869714D01*
X210034166Y-36964952D01*
X209986547Y-37012571D01*
X209891309Y-37060190D01*
X209510357Y-37060190D01*
X210415119Y-36536380D02*
X211081785Y-36536380D01*
X210653214Y-37536380D01*
X208605595Y-38949380D02*
X209177023Y-38949380D01*
X208891309Y-39949380D02*
X208891309Y-38949380D01*
X209510357Y-39949380D02*
X209510357Y-38949380D01*
X209891309Y-38949380D01*
X209986547Y-38997000D01*
X210034166Y-39044619D01*
X210081785Y-39139857D01*
X210081785Y-39282714D01*
X210034166Y-39377952D01*
X209986547Y-39425571D01*
X209891309Y-39473190D01*
X209510357Y-39473190D01*
X210938928Y-38949380D02*
X210748452Y-38949380D01*
X210653214Y-38997000D01*
X210605595Y-39044619D01*
X210510357Y-39187476D01*
X210462738Y-39377952D01*
X210462738Y-39758904D01*
X210510357Y-39854142D01*
X210557976Y-39901761D01*
X210653214Y-39949380D01*
X210843690Y-39949380D01*
X210938928Y-39901761D01*
X210986547Y-39854142D01*
X211034166Y-39758904D01*
X211034166Y-39520809D01*
X210986547Y-39425571D01*
X210938928Y-39377952D01*
X210843690Y-39330333D01*
X210653214Y-39330333D01*
X210557976Y-39377952D01*
X210510357Y-39425571D01*
X210462738Y-39520809D01*
X208605595Y-37742880D02*
X209177023Y-37742880D01*
X208891309Y-38742880D02*
X208891309Y-37742880D01*
X209510357Y-38742880D02*
X209510357Y-37742880D01*
X209891309Y-37742880D01*
X209986547Y-37790500D01*
X210034166Y-37838119D01*
X210081785Y-37933357D01*
X210081785Y-38076214D01*
X210034166Y-38171452D01*
X209986547Y-38219071D01*
X209891309Y-38266690D01*
X209510357Y-38266690D01*
X210986547Y-37742880D02*
X210510357Y-37742880D01*
X210462738Y-38219071D01*
X210510357Y-38171452D01*
X210605595Y-38123833D01*
X210843690Y-38123833D01*
X210938928Y-38171452D01*
X210986547Y-38219071D01*
X211034166Y-38314309D01*
X211034166Y-38552404D01*
X210986547Y-38647642D01*
X210938928Y-38695261D01*
X210843690Y-38742880D01*
X210605595Y-38742880D01*
X210510357Y-38695261D01*
X210462738Y-38647642D01*
X217437952Y-55205380D02*
X218009380Y-55205380D01*
X217723666Y-56205380D02*
X217723666Y-55205380D01*
X218342714Y-56205380D02*
X218342714Y-55205380D01*
X218723666Y-55205380D01*
X218818904Y-55253000D01*
X218866523Y-55300619D01*
X218914142Y-55395857D01*
X218914142Y-55538714D01*
X218866523Y-55633952D01*
X218818904Y-55681571D01*
X218723666Y-55729190D01*
X218342714Y-55729190D01*
X219247476Y-55205380D02*
X219866523Y-55205380D01*
X219533190Y-55586333D01*
X219676047Y-55586333D01*
X219771285Y-55633952D01*
X219818904Y-55681571D01*
X219866523Y-55776809D01*
X219866523Y-56014904D01*
X219818904Y-56110142D01*
X219771285Y-56157761D01*
X219676047Y-56205380D01*
X219390333Y-56205380D01*
X219295095Y-56157761D01*
X219247476Y-56110142D01*
X221051595Y-67587880D02*
X221623023Y-67587880D01*
X221337309Y-68587880D02*
X221337309Y-67587880D01*
X221956357Y-68587880D02*
X221956357Y-67587880D01*
X222337309Y-67587880D01*
X222432547Y-67635500D01*
X222480166Y-67683119D01*
X222527785Y-67778357D01*
X222527785Y-67921214D01*
X222480166Y-68016452D01*
X222432547Y-68064071D01*
X222337309Y-68111690D01*
X221956357Y-68111690D01*
X223384928Y-67921214D02*
X223384928Y-68587880D01*
X223146833Y-67540261D02*
X222908738Y-68254547D01*
X223527785Y-68254547D01*
X240688761Y-49601190D02*
X240736380Y-49458333D01*
X240736380Y-49220238D01*
X240688761Y-49125000D01*
X240641142Y-49077380D01*
X240545904Y-49029761D01*
X240450666Y-49029761D01*
X240355428Y-49077380D01*
X240307809Y-49125000D01*
X240260190Y-49220238D01*
X240212571Y-49410714D01*
X240164952Y-49505952D01*
X240117333Y-49553571D01*
X240022095Y-49601190D01*
X239926857Y-49601190D01*
X239831619Y-49553571D01*
X239784000Y-49505952D01*
X239736380Y-49410714D01*
X239736380Y-49172619D01*
X239784000Y-49029761D01*
X239736380Y-48744047D02*
X239736380Y-48172619D01*
X240736380Y-48458333D02*
X239736380Y-48458333D01*
X240450666Y-47886904D02*
X240450666Y-47410714D01*
X240736380Y-47982142D02*
X239736380Y-47648809D01*
X240736380Y-47315476D01*
X240736380Y-46410714D02*
X240260190Y-46744047D01*
X240736380Y-46982142D02*
X239736380Y-46982142D01*
X239736380Y-46601190D01*
X239784000Y-46505952D01*
X239831619Y-46458333D01*
X239926857Y-46410714D01*
X240069714Y-46410714D01*
X240164952Y-46458333D01*
X240212571Y-46505952D01*
X240260190Y-46601190D01*
X240260190Y-46982142D01*
X239736380Y-46125000D02*
X239736380Y-45553571D01*
X240736380Y-45839285D02*
X239736380Y-45839285D01*
X233449880Y-40290476D02*
X234259404Y-40290476D01*
X234354642Y-40242857D01*
X234402261Y-40195238D01*
X234449880Y-40100000D01*
X234449880Y-39909523D01*
X234402261Y-39814285D01*
X234354642Y-39766666D01*
X234259404Y-39719047D01*
X233449880Y-39719047D01*
X234402261Y-39290476D02*
X234449880Y-39147619D01*
X234449880Y-38909523D01*
X234402261Y-38814285D01*
X234354642Y-38766666D01*
X234259404Y-38719047D01*
X234164166Y-38719047D01*
X234068928Y-38766666D01*
X234021309Y-38814285D01*
X233973690Y-38909523D01*
X233926071Y-39100000D01*
X233878452Y-39195238D01*
X233830833Y-39242857D01*
X233735595Y-39290476D01*
X233640357Y-39290476D01*
X233545119Y-39242857D01*
X233497500Y-39195238D01*
X233449880Y-39100000D01*
X233449880Y-38861904D01*
X233497500Y-38719047D01*
X233926071Y-38290476D02*
X233926071Y-37957142D01*
X234449880Y-37814285D02*
X234449880Y-38290476D01*
X233449880Y-38290476D01*
X233449880Y-37814285D01*
X234449880Y-36814285D02*
X233973690Y-37147619D01*
X234449880Y-37385714D02*
X233449880Y-37385714D01*
X233449880Y-37004761D01*
X233497500Y-36909523D01*
X233545119Y-36861904D01*
X233640357Y-36814285D01*
X233783214Y-36814285D01*
X233878452Y-36861904D01*
X233926071Y-36909523D01*
X233973690Y-37004761D01*
X233973690Y-37385714D01*
X233545119Y-36433333D02*
X233497500Y-36385714D01*
X233449880Y-36290476D01*
X233449880Y-36052380D01*
X233497500Y-35957142D01*
X233545119Y-35909523D01*
X233640357Y-35861904D01*
X233735595Y-35861904D01*
X233878452Y-35909523D01*
X234449880Y-36480952D01*
X234449880Y-35861904D01*
X240942880Y-40290476D02*
X241752404Y-40290476D01*
X241847642Y-40242857D01*
X241895261Y-40195238D01*
X241942880Y-40100000D01*
X241942880Y-39909523D01*
X241895261Y-39814285D01*
X241847642Y-39766666D01*
X241752404Y-39719047D01*
X240942880Y-39719047D01*
X241895261Y-39290476D02*
X241942880Y-39147619D01*
X241942880Y-38909523D01*
X241895261Y-38814285D01*
X241847642Y-38766666D01*
X241752404Y-38719047D01*
X241657166Y-38719047D01*
X241561928Y-38766666D01*
X241514309Y-38814285D01*
X241466690Y-38909523D01*
X241419071Y-39100000D01*
X241371452Y-39195238D01*
X241323833Y-39242857D01*
X241228595Y-39290476D01*
X241133357Y-39290476D01*
X241038119Y-39242857D01*
X240990500Y-39195238D01*
X240942880Y-39100000D01*
X240942880Y-38861904D01*
X240990500Y-38719047D01*
X241419071Y-38290476D02*
X241419071Y-37957142D01*
X241942880Y-37814285D02*
X241942880Y-38290476D01*
X240942880Y-38290476D01*
X240942880Y-37814285D01*
X241942880Y-36814285D02*
X241466690Y-37147619D01*
X241942880Y-37385714D02*
X240942880Y-37385714D01*
X240942880Y-37004761D01*
X240990500Y-36909523D01*
X241038119Y-36861904D01*
X241133357Y-36814285D01*
X241276214Y-36814285D01*
X241371452Y-36861904D01*
X241419071Y-36909523D01*
X241466690Y-37004761D01*
X241466690Y-37385714D01*
X240942880Y-36480952D02*
X240942880Y-35861904D01*
X241323833Y-36195238D01*
X241323833Y-36052380D01*
X241371452Y-35957142D01*
X241419071Y-35909523D01*
X241514309Y-35861904D01*
X241752404Y-35861904D01*
X241847642Y-35909523D01*
X241895261Y-35957142D01*
X241942880Y-36052380D01*
X241942880Y-36338095D01*
X241895261Y-36433333D01*
X241847642Y-36480952D01*
X226020380Y-40290476D02*
X226829904Y-40290476D01*
X226925142Y-40242857D01*
X226972761Y-40195238D01*
X227020380Y-40100000D01*
X227020380Y-39909523D01*
X226972761Y-39814285D01*
X226925142Y-39766666D01*
X226829904Y-39719047D01*
X226020380Y-39719047D01*
X226972761Y-39290476D02*
X227020380Y-39147619D01*
X227020380Y-38909523D01*
X226972761Y-38814285D01*
X226925142Y-38766666D01*
X226829904Y-38719047D01*
X226734666Y-38719047D01*
X226639428Y-38766666D01*
X226591809Y-38814285D01*
X226544190Y-38909523D01*
X226496571Y-39100000D01*
X226448952Y-39195238D01*
X226401333Y-39242857D01*
X226306095Y-39290476D01*
X226210857Y-39290476D01*
X226115619Y-39242857D01*
X226068000Y-39195238D01*
X226020380Y-39100000D01*
X226020380Y-38861904D01*
X226068000Y-38719047D01*
X226496571Y-38290476D02*
X226496571Y-37957142D01*
X227020380Y-37814285D02*
X227020380Y-38290476D01*
X226020380Y-38290476D01*
X226020380Y-37814285D01*
X227020380Y-36814285D02*
X226544190Y-37147619D01*
X227020380Y-37385714D02*
X226020380Y-37385714D01*
X226020380Y-37004761D01*
X226068000Y-36909523D01*
X226115619Y-36861904D01*
X226210857Y-36814285D01*
X226353714Y-36814285D01*
X226448952Y-36861904D01*
X226496571Y-36909523D01*
X226544190Y-37004761D01*
X226544190Y-37385714D01*
X227020380Y-35861904D02*
X227020380Y-36433333D01*
X227020380Y-36147619D02*
X226020380Y-36147619D01*
X226163238Y-36242857D01*
X226258476Y-36338095D01*
X226306095Y-36433333D01*
X218154738Y-41505166D02*
X218630928Y-41505166D01*
X218059500Y-41790880D02*
X218392833Y-40790880D01*
X218726166Y-41790880D01*
X219726166Y-41886119D02*
X219630928Y-41838500D01*
X219535690Y-41743261D01*
X219392833Y-41600404D01*
X219297595Y-41552785D01*
X219202357Y-41552785D01*
X219249976Y-41790880D02*
X219154738Y-41743261D01*
X219059500Y-41648023D01*
X219011880Y-41457547D01*
X219011880Y-41124214D01*
X219059500Y-40933738D01*
X219154738Y-40838500D01*
X219249976Y-40790880D01*
X219440452Y-40790880D01*
X219535690Y-40838500D01*
X219630928Y-40933738D01*
X219678547Y-41124214D01*
X219678547Y-41457547D01*
X219630928Y-41648023D01*
X219535690Y-41743261D01*
X219440452Y-41790880D01*
X219249976Y-41790880D01*
X220107119Y-40790880D02*
X220107119Y-41600404D01*
X220154738Y-41695642D01*
X220202357Y-41743261D01*
X220297595Y-41790880D01*
X220488071Y-41790880D01*
X220583309Y-41743261D01*
X220630928Y-41695642D01*
X220678547Y-41600404D01*
X220678547Y-40790880D01*
X221154738Y-41790880D02*
X221154738Y-40790880D01*
X221583309Y-41743261D02*
X221726166Y-41790880D01*
X221964261Y-41790880D01*
X222059500Y-41743261D01*
X222107119Y-41695642D01*
X222154738Y-41600404D01*
X222154738Y-41505166D01*
X222107119Y-41409928D01*
X222059500Y-41362309D01*
X221964261Y-41314690D01*
X221773785Y-41267071D01*
X221678547Y-41219452D01*
X221630928Y-41171833D01*
X221583309Y-41076595D01*
X221583309Y-40981357D01*
X221630928Y-40886119D01*
X221678547Y-40838500D01*
X221773785Y-40790880D01*
X222011880Y-40790880D01*
X222154738Y-40838500D01*
X222583309Y-41790880D02*
X222583309Y-40790880D01*
X222916642Y-40790880D02*
X223488071Y-40790880D01*
X223202357Y-41790880D02*
X223202357Y-40790880D01*
X223821404Y-41790880D02*
X223821404Y-40790880D01*
X224488071Y-40790880D02*
X224678547Y-40790880D01*
X224773785Y-40838500D01*
X224869023Y-40933738D01*
X224916642Y-41124214D01*
X224916642Y-41457547D01*
X224869023Y-41648023D01*
X224773785Y-41743261D01*
X224678547Y-41790880D01*
X224488071Y-41790880D01*
X224392833Y-41743261D01*
X224297595Y-41648023D01*
X224249976Y-41457547D01*
X224249976Y-41124214D01*
X224297595Y-40933738D01*
X224392833Y-40838500D01*
X224488071Y-40790880D01*
X225345214Y-41790880D02*
X225345214Y-40790880D01*
X225916642Y-41790880D01*
X225916642Y-40790880D01*
X214884095Y-64222380D02*
X214884095Y-65031904D01*
X214931714Y-65127142D01*
X214979333Y-65174761D01*
X215074571Y-65222380D01*
X215265047Y-65222380D01*
X215360285Y-65174761D01*
X215407904Y-65127142D01*
X215455523Y-65031904D01*
X215455523Y-64222380D01*
X216360285Y-64222380D02*
X216169809Y-64222380D01*
X216074571Y-64270000D01*
X216026952Y-64317619D01*
X215931714Y-64460476D01*
X215884095Y-64650952D01*
X215884095Y-65031904D01*
X215931714Y-65127142D01*
X215979333Y-65174761D01*
X216074571Y-65222380D01*
X216265047Y-65222380D01*
X216360285Y-65174761D01*
X216407904Y-65127142D01*
X216455523Y-65031904D01*
X216455523Y-64793809D01*
X216407904Y-64698571D01*
X216360285Y-64650952D01*
X216265047Y-64603333D01*
X216074571Y-64603333D01*
X215979333Y-64650952D01*
X215931714Y-64698571D01*
X215884095Y-64793809D01*
M02*
