M48
INCH,TZ
T1C0.0157
T2C0.0256
T3C0.0354
T4C0.0394
T5C0.0598
T6C0.0630
%
G90
G05
T1
X80125Y-38100
X80475Y-29975
X80500Y-31600
X80520Y-28580
X80975Y-41925
X81150Y-29750
X81200Y-25950
X81200Y-26275
X81200Y-26600
X81220Y-29380
X81222Y-29060
X81250Y-28200
X81250Y-28725
X81293Y-15100
X81375Y-24750
X81478Y-24053
X81500Y-24450
X81500Y-26050
X81525Y-25119
X81643Y-27700
X81700Y-36325
X81723Y-27300
X81725Y-24850
X81775Y-24325
X81775Y-26000
X81775Y-26875
X81780Y-28480
X81780Y-29240
X81800Y-29700
X81800Y-30150
X82425Y-24425
X82463Y-27700
X82480Y-25820
X82640Y-25040
X82721Y-25563
X82900Y-24450
X82971Y-25200
X82971Y-28838
X82975Y-29650
X83000Y-41675
X83025Y-41375
X83096Y-30213
X83100Y-21300
X83100Y-23875
X83196Y-40263
X83275Y-23125
X83475Y-41475
X83500Y-25040
X83500Y-30660
X83750Y-38325
X83921Y-28313
X83921Y-28613
X83921Y-28913
X83921Y-29213
X83980Y-23980
X83980Y-24300
X84000Y-22950
X84000Y-23320
X84000Y-23660
X84000Y-24620
X84000Y-24920
X84110Y-40590
X84110Y-40890
X84196Y-28313
X84196Y-28613
X84196Y-29213
X84221Y-28913
X84250Y-17925
X84340Y-26880
X84450Y-37875
X84471Y-27513
X84496Y-28313
X84496Y-28613
X84500Y-40590
X84500Y-40890
X84521Y-18788
X84630Y-26988
X84700Y-37550
X84796Y-28313
X84796Y-28613
X84900Y-40590
X84900Y-40890
X84975Y-23825
X85050Y-42275
X85071Y-20088
X85100Y-26860
X85100Y-38175
X85200Y-21075
X85200Y-21500
X85200Y-21950
X85296Y-32963
X85296Y-33813
X85325Y-23275
X85325Y-23600
X85325Y-23925
X85371Y-27113
X85375Y-20850
X85400Y-21275
X85400Y-21725
X85400Y-42075
X85560Y-26300
X85575Y-20650
X85646Y-29163
X85650Y-40200
X85680Y-28820
X85750Y-37725
X85780Y-26500
X85875Y-16325
X86000Y-26719
X86000Y-31100
X86000Y-42075
X86020Y-26000
X86050Y-19175
X86060Y-26400
X86320Y-26080
X86320Y-26520
X86346Y-27738
X86380Y-21360
X86525Y-20850
X86600Y-20200
X86780Y-29440
X86780Y-29765
X86780Y-30040
X86780Y-30365
X86800Y-20750
X86831Y-24289
X86831Y-24573
X86834Y-28894
X86835Y-24859
X86940Y-28060
X86950Y-31450
X87000Y-20225
X87050Y-40900
X87100Y-20775
X87174Y-33836
X87200Y-21475
X87207Y-24293
X87207Y-24575
X87207Y-24859
X87225Y-29900
X87225Y-30250
X87325Y-21750
X87325Y-41375
X87400Y-20825
X87403Y-20225
X87450Y-23900
X87450Y-25350
X87460Y-28180
X87525Y-40375
X87575Y-20525
X87625Y-24291
X87625Y-24575
X87625Y-24861
X87675Y-29900
X87675Y-30250
X87700Y-20225
X87800Y-28240
X87875Y-20625
X87975Y-30200
X88023Y-24293
X88023Y-24861
X88025Y-24575
X88050Y-25650
X88100Y-31400
X88175Y-20200
X88175Y-20850
X88225Y-26625
X88250Y-25400
X88344Y-34556
X88428Y-25612
X88575Y-26675
X88625Y-24225
X88637Y-34787
X88650Y-20200
X88650Y-20850
X88700Y-25800
X88708Y-31205
X89050Y-29800
X89100Y-20200
X89125Y-20850
X89125Y-35850
X89175Y-24200
X89200Y-25600
X89375Y-30200
X89400Y-37450
X89575Y-20200
X89600Y-20850
X89775Y-24200
X89825Y-25575
X90050Y-20200
X90075Y-20850
X90175Y-30200
X90375Y-24200
X90375Y-25575
X90525Y-20200
X90550Y-20850
X90620Y-30220
X90775Y-29900
X90975Y-24200
X90975Y-25575
X91000Y-20200
X91020Y-36595
X91025Y-20850
X91063Y-36313
X91120Y-35995
X91125Y-29775
X91125Y-32550
X91150Y-35675
X91200Y-37250
X91225Y-35375
X91242Y-35092
X91421Y-29924
X91455Y-25550
X91475Y-20200
X91500Y-20850
X91575Y-24200
X91720Y-30200
X91820Y-29920
X91950Y-20200
X91975Y-20850
X92026Y-25608
X92050Y-28900
X92100Y-38700
X92175Y-24200
X92225Y-30175
X92300Y-31150
X92400Y-20200
X92425Y-20850
X92450Y-26850
X92560Y-28120
X92600Y-29800
X92675Y-32650
X92700Y-36075
X92700Y-36375
X92725Y-41800
X92775Y-24200
X92775Y-25575
X92800Y-37900
X92875Y-20200
X92900Y-20850
X92925Y-34550
X93060Y-30200
X93350Y-20200
X93375Y-20850
X93375Y-24200
X93375Y-25575
X93540Y-30160
X93550Y-37825
X93825Y-20200
X93825Y-20850
X93880Y-26780
X93980Y-27280
X94275Y-20200
X94300Y-20850
X94476Y-28458
X94525Y-33800
X94625Y-28225
X94625Y-30775
X94625Y-31450
X94700Y-42650
X94840Y-29240
X94900Y-29640
X94950Y-27275
X94975Y-28225
X94980Y-26420
X95218Y-18200
X95625Y-21225
X95950Y-41025
X96025Y-42200
X96250Y-23750
X96250Y-26375
X96250Y-26925
X96250Y-27200
X96273Y-27473
X96277Y-26650
X96300Y-28050
X96300Y-28400
X96300Y-28950
X96300Y-29225
X96300Y-29500
X96300Y-29775
X96362Y-28669
X96475Y-27825
X96825Y-29975
X96879Y-28545
X96880Y-29660
X96900Y-23750
X96900Y-24200
X96900Y-25625
X96900Y-26725
X96900Y-27200
X96900Y-27675
X96900Y-28150
X96900Y-28825
X96900Y-29275
X96975Y-33825
T2
X81550Y-14200
X81550Y-14700
X88650Y-22250
X89150Y-22250
X89650Y-22250
X90150Y-22250
X90650Y-22250
X91150Y-22250
X91650Y-22250
X92150Y-22250
X92650Y-22250
X93150Y-22250
X93650Y-22250
X94150Y-22250
X94650Y-22250
X95150Y-22250
X95475Y-18600
X95475Y-19100
X95650Y-22250
X96150Y-22250
X96650Y-22250
X96750Y-18600
X96750Y-19100
X97150Y-22250
T3
X79375Y-41050
X79375Y-42050
X87433Y-15006
X88433Y-15006
X89795Y-15006
X90295Y-15006
X90795Y-15006
X91295Y-15006
X92748Y-15006
X93248Y-15006
X93748Y-15006
X94248Y-15006
X95701Y-15006
X96201Y-15006
X96701Y-15006
X97201Y-15006
T4
X79671Y-17113
X79671Y-18113
X80671Y-17113
X80671Y-18113
X82021Y-34338
X83021Y-34338
X84021Y-34338
X86071Y-37088
X86071Y-38088
X86071Y-39088
X87550Y-17900
X87550Y-18900
X88550Y-17900
X88550Y-18900
X89550Y-17900
X89550Y-18900
T5
X80050Y-37075
X80050Y-39075
T6
X79528Y-14567
X79626Y-34547
X90945Y-41732
X96752Y-20571
T4
G00X84753Y-14025
M15
G01X85147Y-14025
M16
G05
G00X85541Y-14970
M15
G01X85934Y-14970
M16
G05
G00X85541Y-17135
M15
G01X85934Y-17135
M16
G05
T0
M30
