M48
; DRILL file {KiCad 5.1.10} date Mon Aug  2 16:12:52 2021
; FORMAT={-:-/ absolute / inch / decimal}
; #@! TF.CreationDate,2021-08-02T16:12:52-04:00
; #@! TF.GenerationSoftware,Kicad,Pcbnew,5.1.10
; #@! TF.FileFunction,Plated,1,4,PTH
FMAT,2
INCH
T1C0.0042
T2C0.0120
T3C0.0150
T4C0.0256
T5C0.0354
T6C0.0394
T7C0.0598
T8C0.0630
%
G90
G05
T1
X8.4101Y-4.049
X8.4101Y-4.0657
X8.4101Y-4.0824
X8.4101Y-4.0992
X8.4367Y-4.049
X8.4367Y-4.0657
X8.4367Y-4.0824
X8.4367Y-4.0992
X8.4633Y-4.049
X8.4633Y-4.0657
X8.4633Y-4.0824
X8.4633Y-4.0992
X8.4899Y-4.049
X8.4899Y-4.0657
X8.4899Y-4.0824
X8.4899Y-4.0992
T2
X8.0125Y-3.81
X8.0375Y-3.2
X8.0452Y-2.7775
X8.0475Y-2.9975
X8.05Y-2.915
X8.0585Y-3.179
X8.06Y-1.505
X8.0612Y-2.7325
X8.075Y-3.4225
X8.075Y-3.4475
X8.0775Y-3.215
X8.1Y-3.4225
X8.1Y-3.4475
X8.115Y-2.975
X8.12Y-3.1975
X8.1225Y-2.595
X8.1225Y-2.6225
X8.1225Y-2.65
X8.125Y-2.82
X8.125Y-2.8725
X8.125Y-2.8975
X8.125Y-2.93
X8.125Y-3.4225
X8.125Y-3.4475
X8.135Y-2.515
X8.14Y-2.48
X8.15Y-2.455
X8.15Y-2.5975
X8.15Y-3.4225
X8.15Y-3.4475
X8.1625Y-3.19
X8.17Y-2.54
X8.17Y-2.7725
X8.17Y-3.6325
X8.1725Y-2.485
X8.175Y-3.4225
X8.175Y-3.4475
X8.1775Y-2.6
X8.1775Y-2.6875
X8.18Y-2.635
X8.18Y-2.97
X8.18Y-3.015
X8.1824Y-2.85
X8.1824Y-2.945
X8.1825Y-2.7925
X8.1825Y-2.92
X8.1925Y-3.5225
X8.2Y-3.4225
X8.2Y-3.4475
X8.22Y-3.52
X8.2425Y-2.4425
X8.2425Y-3.4825
X8.245Y-2.92
X8.245Y-2.95
X8.2475Y-2.77
X8.2475Y-3.082
X8.2525Y-2.505
X8.2575Y-2.865
X8.2725Y-2.53
X8.2725Y-2.6775
X8.28Y-2.775
X8.2825Y-3.2825
X8.2875Y-3.32
X8.29Y-2.445
X8.295Y-2.505
X8.3Y-4.1675
X8.3025Y-4.1375
X8.3075Y-3.5625
X8.3075Y-3.59
X8.3075Y-3.6175
X8.3075Y-3.6425
X8.31Y-2.13
X8.31Y-2.3875
X8.3125Y-2.77
X8.3175Y-2.825
X8.32Y-2.53
X8.3275Y-2.3125
X8.3325Y-3.5625
X8.3325Y-3.59
X8.3325Y-3.6175
X8.3325Y-3.6425
X8.3375Y-2.5
X8.34Y-3.48
X8.3445Y-3.214
X8.3445Y-3.237
X8.3475Y-3.52
X8.3475Y-4.1475
X8.355Y-3.3375
X8.3575Y-3.5625
X8.3575Y-3.59
X8.3575Y-3.6175
X8.3575Y-3.6425
X8.3745Y-3.214
X8.3745Y-3.237
X8.375Y-3.8325
X8.3775Y-3.0025
X8.38Y-3.0575
X8.38Y-3.0825
X8.4Y-2.295
X8.4Y-3.52
X8.4025Y-2.3325
X8.4025Y-2.36
X8.4025Y-2.4
X8.4025Y-2.43
X8.4025Y-2.4625
X8.4025Y-2.495
X8.4055Y-3.214
X8.4055Y-3.237
X8.4125Y-3.38
X8.42Y-3.425
X8.4305Y-2.674
X8.44Y-3.66
X8.44Y-3.715
X8.445Y-3.7875
X8.4525Y-3.6025
X8.4575Y-3.555
X8.4637Y-2.7884
X8.4637Y-2.8234
X8.4637Y-2.8534
X8.4675Y-3.5
X8.47Y-3.755
X8.4725Y-1.745
X8.48Y-3.06
X8.4825Y-2.6525
X8.4987Y-2.7884
X8.4987Y-2.8234
X8.4987Y-2.8534
X8.505Y-4.2275
X8.51Y-3.2875
X8.51Y-3.8175
X8.5175Y-2.4525
X8.52Y-2.1075
X8.52Y-2.15
X8.52Y-2.195
X8.5275Y-1.99
X8.5325Y-2.3425
X8.5325Y-2.3675
X8.5325Y-2.3925
X8.5375Y-2.085
X8.54Y-2.1275
X8.54Y-2.1725
X8.54Y-4.2075
X8.5525Y-2.585
X8.5575Y-2.065
X8.5575Y-2.635
X8.5575Y-3.68
X8.5725Y-2.655
X8.5725Y-2.6875
X8.575Y-3.7725
X8.5775Y-3.5825
X8.5775Y-4.0025
X8.5775Y-4.0275
X8.5775Y-4.0525
X8.5775Y-4.0775
X8.5775Y-4.1025
X8.5775Y-4.145
X8.5925Y-2.6425
X8.6Y-2.61
X8.6Y-2.6719
X8.6Y-3.11
X8.6Y-4.2075
X8.615Y-3.8075
X8.6175Y-2.6525
X8.6275Y-3.52
X8.63Y-2.6122
X8.6325Y-2.8025
X8.6375Y-2.9575
X8.645Y-2.7425
X8.6525Y-2.085
X8.6525Y-2.919
X8.655Y-3.9125
X8.66Y-2.02
X8.66Y-3.8725
X8.67Y-3.1325
X8.6731Y-2.4289
X8.6731Y-2.4573
X8.6735Y-2.4859
X8.678Y-2.9765
X8.678Y-3.004
X8.678Y-3.0365
X8.68Y-2.075
X8.68Y-2.95
X8.6854Y-2.8929
X8.6875Y-3.8725
X8.6875Y-3.9025
X8.6875Y-3.93
X8.6875Y-3.96
X8.69Y-3.215
X8.695Y-3.145
X8.6975Y-2.8125
X8.7Y-2.02
X8.705Y-4.09
X8.71Y-2.0775
X8.71Y-3.795
X8.7107Y-2.4293
X8.7107Y-2.4575
X8.7107Y-2.4859
X8.7175Y-3.8725
X8.7175Y-3.9025
X8.7175Y-3.93
X8.7175Y-3.96
X8.72Y-2.1475
X8.7225Y-2.99
X8.7225Y-3.025
X8.7325Y-2.175
X8.7375Y-2.02
X8.7375Y-2.085
X8.745Y-2.39
X8.745Y-2.535
X8.7475Y-3.93
X8.7475Y-3.96
X8.7525Y-2.4291
X8.7525Y-2.4575
X8.7525Y-2.4861
X8.7525Y-4.0375
X8.755Y-2.0675
X8.765Y-3.1435
X8.7675Y-2.02
X8.7675Y-2.99
X8.7675Y-3.025
X8.77Y-4.1775
X8.775Y-2.825
X8.7775Y-3.93
X8.7775Y-3.96
X8.7875Y-2.0625
X8.7923Y-2.4293
X8.7923Y-2.4861
X8.7925Y-2.4575
X8.7975Y-3.02
X8.805Y-2.565
X8.815Y-2.8625
X8.8175Y-2.02
X8.8175Y-2.085
X8.8225Y-2.6625
X8.825Y-2.54
X8.8344Y-3.4869
X8.8475Y-2.6625
X8.855Y-2.555
X8.8637Y-3.4787
X8.865Y-2.02
X8.865Y-2.085
X8.87Y-2.575
X8.8719Y-3.1167
X8.91Y-2.02
X8.9125Y-2.085
X8.9375Y-3.02
X8.9575Y-2.02
X8.96Y-2.085
X9.005Y-2.02
X9.0075Y-2.085
X9.0175Y-3.02
X9.0525Y-2.02
X9.055Y-2.085
X9.0775Y-2.99
X9.1Y-2.02
X9.102Y-3.6595
X9.1025Y-2.085
X9.1062Y-3.6313
X9.112Y-3.5995
X9.1125Y-2.9775
X9.115Y-3.5675
X9.12Y-3.725
X9.1225Y-3.5375
X9.1242Y-3.5092
X9.145Y-2.9925
X9.1475Y-2.02
X9.15Y-2.085
X9.16Y-3.025
X9.18Y-3.005
X9.195Y-2.02
X9.1975Y-2.085
X9.205Y-2.89
X9.21Y-3.87
X9.2225Y-3.0175
X9.23Y-3.115
X9.24Y-2.02
X9.2425Y-2.085
X9.245Y-2.685
X9.2675Y-3.265
X9.27Y-3.6075
X9.27Y-3.6375
X9.2725Y-4.18
X9.2802Y-3.7853
X9.2875Y-2.02
X9.29Y-2.085
X9.2925Y-3.455
X9.335Y-2.02
X9.3375Y-2.085
X9.3525Y-3.7825
X9.3825Y-2.02
X9.3825Y-2.085
X9.4275Y-2.02
X9.43Y-2.085
X9.4525Y-2.8475
X9.4525Y-3.38
X9.4625Y-2.8225
X9.4625Y-3.0775
X9.4625Y-3.145
X9.47Y-4.265
X9.48Y-2.88
X9.495Y-2.7275
X9.4975Y-2.8225
X9.498Y-2.642
X9.5225Y-1.825
X9.5625Y-2.1225
X9.595Y-4.1025
X9.6025Y-4.22
X9.625Y-2.375
X9.625Y-2.6375
X9.625Y-2.665
X9.625Y-2.6925
X9.625Y-2.72
X9.625Y-2.75
X9.625Y-2.7825
X9.63Y-2.805
X9.63Y-2.84
X9.63Y-2.8675
X9.63Y-2.895
X9.63Y-2.9225
X9.63Y-2.95
X9.63Y-2.9775
X9.6825Y-2.9975
X9.69Y-2.375
X9.69Y-2.42
X9.69Y-2.5625
X9.69Y-2.6725
X9.69Y-2.72
X9.69Y-2.7675
X9.69Y-2.815
X9.69Y-2.8525
X9.69Y-2.8825
X9.69Y-2.9275
X9.69Y-2.9725
X9.6975Y-3.3825
T3
X8.0325Y-3.28
X8.0975Y-4.1925
X8.12Y-2.4375
X8.1775Y-2.4375
X8.278Y-2.5865
X8.48Y-3.0925
X8.4825Y-2.37
X8.5855Y-3.0265
X8.5935Y-1.634
X8.607Y-1.9215
X8.8625Y-2.42
X8.9125Y-3.585
X8.9127Y-2.5598
X8.9175Y-2.42
X8.9375Y-3.745
X8.9775Y-2.42
X8.9872Y-2.555
X9.0375Y-2.42
X9.0375Y-2.56
X9.0725Y-3.02
X9.0975Y-2.42
X9.0975Y-2.5575
X9.1125Y-3.26
X9.1457Y-2.5557
X9.1575Y-2.42
X9.2068Y-2.5583
X9.2175Y-2.42
X9.2525Y-2.8075
X9.26Y-2.98
X9.2775Y-2.42
X9.2775Y-2.5597
X9.3375Y-2.42
X9.3375Y-2.56
X9.3422Y-3.0159
X9.3595Y-3.0425
X9.385Y-2.68
X9.4075Y-2.725
X9.49Y-2.965
T4
X8.085Y-1.42
X8.085Y-1.47
X8.865Y-2.225
X8.915Y-2.225
X8.965Y-2.225
X9.015Y-2.225
X9.065Y-2.225
X9.115Y-2.225
X9.165Y-2.225
X9.215Y-2.225
X9.265Y-2.225
X9.315Y-2.225
X9.365Y-2.225
X9.415Y-2.225
X9.465Y-2.225
X9.515Y-2.225
X9.5475Y-1.86
X9.5475Y-1.91
X9.565Y-2.225
X9.615Y-2.225
X9.665Y-2.225
X9.675Y-1.86
X9.675Y-1.91
X9.715Y-2.225
T5
X7.9375Y-4.105
X7.9375Y-4.205
X8.7433Y-1.5006
X8.8433Y-1.5006
X8.9795Y-1.5006
X9.0295Y-1.5006
X9.0795Y-1.5006
X9.1295Y-1.5006
X9.2748Y-1.5006
X9.3248Y-1.5006
X9.3748Y-1.5006
X9.4248Y-1.5006
X9.5701Y-1.5006
X9.6201Y-1.5006
X9.6701Y-1.5006
X9.7201Y-1.5006
T6
X7.9475Y-1.635
X7.9475Y-1.735
X7.9475Y-1.835
X8.755Y-1.79
X8.755Y-1.89
X8.855Y-1.79
X8.855Y-1.89
X8.955Y-1.79
X8.955Y-1.89
T7
X8.005Y-3.7075
X8.005Y-3.9075
T8
X7.9626Y-3.4547
X9.6752Y-2.0571
T6
G00X8.4753Y-1.4025
M15
G01X8.5147Y-1.4025
M16
G05
G00X8.5541Y-1.497
M15
G01X8.5934Y-1.497
M16
G05
G00X8.5541Y-1.7135
M15
G01X8.5934Y-1.7135
M16
G05
T0
M30
