G04 #@! TF.GenerationSoftware,KiCad,Pcbnew,5.1.10*
G04 #@! TF.CreationDate,2021-08-02T17:42:28-04:00*
G04 #@! TF.ProjectId,mist-eeg,6d697374-2d65-4656-972e-6b696361645f,1C*
G04 #@! TF.SameCoordinates,Original*
G04 #@! TF.FileFunction,Paste,Top*
G04 #@! TF.FilePolarity,Positive*
%FSLAX46Y46*%
G04 Gerber Fmt 4.6, Leading zero omitted, Abs format (unit mm)*
G04 Created by KiCad (PCBNEW 5.1.10) date 2021-08-02 17:42:28*
%MOMM*%
%LPD*%
G01*
G04 APERTURE LIST*
%ADD10C,0.100000*%
%ADD11R,1.350000X1.900000*%
%ADD12R,1.000000X1.200000*%
%ADD13R,1.350000X1.550000*%
%ADD14R,1.800000X1.170000*%
%ADD15R,1.100000X0.850000*%
%ADD16R,1.100000X0.750000*%
%ADD17R,0.900000X0.800000*%
%ADD18R,0.240000X0.599999*%
%ADD19R,0.850001X0.700001*%
%ADD20R,1.450000X0.349999*%
%ADD21R,1.799999X0.349999*%
%ADD22R,0.599999X0.240000*%
%ADD23R,0.700001X0.850001*%
%ADD24R,0.349999X1.450000*%
%ADD25R,0.349999X1.799999*%
%ADD26R,1.000000X1.700000*%
%ADD27R,0.584200X1.295400*%
%ADD28R,0.711200X0.203200*%
%ADD29R,0.203200X0.711200*%
%ADD30R,0.800000X0.900000*%
%ADD31R,3.400000X0.980000*%
%ADD32R,0.980000X3.400000*%
G04 APERTURE END LIST*
D10*
G36*
X210479500Y-88208500D02*
G01*
X210479500Y-88358500D01*
X210478540Y-88368254D01*
X210475695Y-88377634D01*
X210471073Y-88386277D01*
X210464855Y-88393854D01*
X210457278Y-88400072D01*
X210448634Y-88404692D01*
X210439254Y-88407537D01*
X210429500Y-88408500D01*
X209779499Y-88408500D01*
X209769746Y-88407537D01*
X209760365Y-88404692D01*
X209751722Y-88400072D01*
X209744145Y-88393854D01*
X209737927Y-88386277D01*
X209733304Y-88377634D01*
X209730459Y-88368254D01*
X209729499Y-88358500D01*
X209729499Y-88208500D01*
X209730459Y-88198744D01*
X209733304Y-88189364D01*
X209737927Y-88180720D01*
X209744145Y-88173143D01*
X209751722Y-88166926D01*
X209760365Y-88162305D01*
X209769746Y-88159460D01*
X209779499Y-88158500D01*
X210429500Y-88158500D01*
X210439254Y-88159460D01*
X210448634Y-88162305D01*
X210457278Y-88166926D01*
X210464855Y-88173143D01*
X210471073Y-88180720D01*
X210475695Y-88189364D01*
X210478540Y-88198744D01*
X210479500Y-88208500D01*
G37*
X210479500Y-88208500D02*
X210479500Y-88358500D01*
X210478540Y-88368254D01*
X210475695Y-88377634D01*
X210471073Y-88386277D01*
X210464855Y-88393854D01*
X210457278Y-88400072D01*
X210448634Y-88404692D01*
X210439254Y-88407537D01*
X210429500Y-88408500D01*
X209779499Y-88408500D01*
X209769746Y-88407537D01*
X209760365Y-88404692D01*
X209751722Y-88400072D01*
X209744145Y-88393854D01*
X209737927Y-88386277D01*
X209733304Y-88377634D01*
X209730459Y-88368254D01*
X209729499Y-88358500D01*
X209729499Y-88208500D01*
X209730459Y-88198744D01*
X209733304Y-88189364D01*
X209737927Y-88180720D01*
X209744145Y-88173143D01*
X209751722Y-88166926D01*
X209760365Y-88162305D01*
X209769746Y-88159460D01*
X209779499Y-88158500D01*
X210429500Y-88158500D01*
X210439254Y-88159460D01*
X210448634Y-88162305D01*
X210457278Y-88166926D01*
X210464855Y-88173143D01*
X210471073Y-88180720D01*
X210475695Y-88189364D01*
X210478540Y-88198744D01*
X210479500Y-88208500D01*
G36*
X209779499Y-88158500D02*
G01*
X209929499Y-88158500D01*
X209939252Y-88159460D01*
X209948633Y-88162305D01*
X209957276Y-88166928D01*
X209964853Y-88173146D01*
X209971071Y-88180723D01*
X209975691Y-88189366D01*
X209978536Y-88198747D01*
X209979499Y-88208500D01*
X209979499Y-88708499D01*
X209978536Y-88718253D01*
X209975691Y-88727633D01*
X209971071Y-88736277D01*
X209964853Y-88743854D01*
X209957276Y-88750071D01*
X209948633Y-88754694D01*
X209939252Y-88757539D01*
X209929499Y-88758499D01*
X209779499Y-88758499D01*
X209769743Y-88757539D01*
X209760363Y-88754694D01*
X209751719Y-88750071D01*
X209744142Y-88743854D01*
X209737924Y-88736277D01*
X209733304Y-88727633D01*
X209730459Y-88718253D01*
X209729499Y-88708499D01*
X209729499Y-88208500D01*
X209730459Y-88198747D01*
X209733304Y-88189366D01*
X209737924Y-88180723D01*
X209744142Y-88173146D01*
X209751719Y-88166928D01*
X209760363Y-88162305D01*
X209769743Y-88159460D01*
X209779499Y-88158500D01*
G37*
X209779499Y-88158500D02*
X209929499Y-88158500D01*
X209939252Y-88159460D01*
X209948633Y-88162305D01*
X209957276Y-88166928D01*
X209964853Y-88173146D01*
X209971071Y-88180723D01*
X209975691Y-88189366D01*
X209978536Y-88198747D01*
X209979499Y-88208500D01*
X209979499Y-88708499D01*
X209978536Y-88718253D01*
X209975691Y-88727633D01*
X209971071Y-88736277D01*
X209964853Y-88743854D01*
X209957276Y-88750071D01*
X209948633Y-88754694D01*
X209939252Y-88757539D01*
X209929499Y-88758499D01*
X209779499Y-88758499D01*
X209769743Y-88757539D01*
X209760363Y-88754694D01*
X209751719Y-88750071D01*
X209744142Y-88743854D01*
X209737924Y-88736277D01*
X209733304Y-88727633D01*
X209730459Y-88718253D01*
X209729499Y-88708499D01*
X209729499Y-88208500D01*
X209730459Y-88198747D01*
X209733304Y-88189366D01*
X209737924Y-88180723D01*
X209744142Y-88173146D01*
X209751719Y-88166928D01*
X209760363Y-88162305D01*
X209769743Y-88159460D01*
X209779499Y-88158500D01*
G36*
X210279501Y-88158500D02*
G01*
X210429500Y-88158500D01*
X210439257Y-88159460D01*
X210448637Y-88162305D01*
X210457280Y-88166928D01*
X210464857Y-88173146D01*
X210471075Y-88180723D01*
X210475695Y-88189366D01*
X210478540Y-88198747D01*
X210479500Y-88208500D01*
X210479500Y-88708499D01*
X210478540Y-88718253D01*
X210475695Y-88727633D01*
X210471075Y-88736277D01*
X210464857Y-88743854D01*
X210457280Y-88750071D01*
X210448637Y-88754694D01*
X210439257Y-88757539D01*
X210429500Y-88758499D01*
X210279501Y-88758499D01*
X210269747Y-88757539D01*
X210260367Y-88754694D01*
X210251723Y-88750071D01*
X210244146Y-88743854D01*
X210237929Y-88736277D01*
X210233308Y-88727633D01*
X210230463Y-88718253D01*
X210229501Y-88708499D01*
X210229501Y-88208500D01*
X210230463Y-88198747D01*
X210233308Y-88189366D01*
X210237929Y-88180723D01*
X210244146Y-88173146D01*
X210251723Y-88166928D01*
X210260367Y-88162305D01*
X210269747Y-88159460D01*
X210279501Y-88158500D01*
G37*
X210279501Y-88158500D02*
X210429500Y-88158500D01*
X210439257Y-88159460D01*
X210448637Y-88162305D01*
X210457280Y-88166928D01*
X210464857Y-88173146D01*
X210471075Y-88180723D01*
X210475695Y-88189366D01*
X210478540Y-88198747D01*
X210479500Y-88208500D01*
X210479500Y-88708499D01*
X210478540Y-88718253D01*
X210475695Y-88727633D01*
X210471075Y-88736277D01*
X210464857Y-88743854D01*
X210457280Y-88750071D01*
X210448637Y-88754694D01*
X210439257Y-88757539D01*
X210429500Y-88758499D01*
X210279501Y-88758499D01*
X210269747Y-88757539D01*
X210260367Y-88754694D01*
X210251723Y-88750071D01*
X210244146Y-88743854D01*
X210237929Y-88736277D01*
X210233308Y-88727633D01*
X210230463Y-88718253D01*
X210229501Y-88708499D01*
X210229501Y-88208500D01*
X210230463Y-88198747D01*
X210233308Y-88189366D01*
X210237929Y-88180723D01*
X210244146Y-88173146D01*
X210251723Y-88166928D01*
X210260367Y-88162305D01*
X210269747Y-88159460D01*
X210279501Y-88158500D01*
G36*
X210429500Y-85958500D02*
G01*
X210279501Y-85958500D01*
X210269747Y-85957540D01*
X210260367Y-85954695D01*
X210251723Y-85950072D01*
X210244146Y-85943854D01*
X210237929Y-85936277D01*
X210233308Y-85927634D01*
X210230463Y-85918253D01*
X210229501Y-85908500D01*
X210229501Y-85408501D01*
X210230463Y-85398747D01*
X210233308Y-85389367D01*
X210237929Y-85380723D01*
X210244146Y-85373146D01*
X210251723Y-85366929D01*
X210260367Y-85362306D01*
X210269747Y-85359461D01*
X210279501Y-85358501D01*
X210429500Y-85358501D01*
X210439257Y-85359461D01*
X210448637Y-85362306D01*
X210457280Y-85366929D01*
X210464857Y-85373146D01*
X210471075Y-85380723D01*
X210475695Y-85389367D01*
X210478540Y-85398747D01*
X210479500Y-85408501D01*
X210479500Y-85908500D01*
X210478540Y-85918253D01*
X210475695Y-85927634D01*
X210471075Y-85936277D01*
X210464857Y-85943854D01*
X210457280Y-85950072D01*
X210448637Y-85954695D01*
X210439257Y-85957540D01*
X210429500Y-85958500D01*
G37*
X210429500Y-85958500D02*
X210279501Y-85958500D01*
X210269747Y-85957540D01*
X210260367Y-85954695D01*
X210251723Y-85950072D01*
X210244146Y-85943854D01*
X210237929Y-85936277D01*
X210233308Y-85927634D01*
X210230463Y-85918253D01*
X210229501Y-85908500D01*
X210229501Y-85408501D01*
X210230463Y-85398747D01*
X210233308Y-85389367D01*
X210237929Y-85380723D01*
X210244146Y-85373146D01*
X210251723Y-85366929D01*
X210260367Y-85362306D01*
X210269747Y-85359461D01*
X210279501Y-85358501D01*
X210429500Y-85358501D01*
X210439257Y-85359461D01*
X210448637Y-85362306D01*
X210457280Y-85366929D01*
X210464857Y-85373146D01*
X210471075Y-85380723D01*
X210475695Y-85389367D01*
X210478540Y-85398747D01*
X210479500Y-85408501D01*
X210479500Y-85908500D01*
X210478540Y-85918253D01*
X210475695Y-85927634D01*
X210471075Y-85936277D01*
X210464857Y-85943854D01*
X210457280Y-85950072D01*
X210448637Y-85954695D01*
X210439257Y-85957540D01*
X210429500Y-85958500D01*
G36*
X209929499Y-85958500D02*
G01*
X209779499Y-85958500D01*
X209769743Y-85957540D01*
X209760363Y-85954695D01*
X209751719Y-85950072D01*
X209744142Y-85943854D01*
X209737924Y-85936277D01*
X209733304Y-85927634D01*
X209730459Y-85918253D01*
X209729499Y-85908500D01*
X209729499Y-85408501D01*
X209730459Y-85398747D01*
X209733304Y-85389367D01*
X209737924Y-85380723D01*
X209744142Y-85373146D01*
X209751719Y-85366929D01*
X209760363Y-85362306D01*
X209769743Y-85359461D01*
X209779499Y-85358501D01*
X209929499Y-85358501D01*
X209939252Y-85359461D01*
X209948633Y-85362306D01*
X209957276Y-85366929D01*
X209964853Y-85373146D01*
X209971071Y-85380723D01*
X209975691Y-85389367D01*
X209978536Y-85398747D01*
X209979499Y-85408501D01*
X209979499Y-85908500D01*
X209978536Y-85918253D01*
X209975691Y-85927634D01*
X209971071Y-85936277D01*
X209964853Y-85943854D01*
X209957276Y-85950072D01*
X209948633Y-85954695D01*
X209939252Y-85957540D01*
X209929499Y-85958500D01*
G37*
X209929499Y-85958500D02*
X209779499Y-85958500D01*
X209769743Y-85957540D01*
X209760363Y-85954695D01*
X209751719Y-85950072D01*
X209744142Y-85943854D01*
X209737924Y-85936277D01*
X209733304Y-85927634D01*
X209730459Y-85918253D01*
X209729499Y-85908500D01*
X209729499Y-85408501D01*
X209730459Y-85398747D01*
X209733304Y-85389367D01*
X209737924Y-85380723D01*
X209744142Y-85373146D01*
X209751719Y-85366929D01*
X209760363Y-85362306D01*
X209769743Y-85359461D01*
X209779499Y-85358501D01*
X209929499Y-85358501D01*
X209939252Y-85359461D01*
X209948633Y-85362306D01*
X209957276Y-85366929D01*
X209964853Y-85373146D01*
X209971071Y-85380723D01*
X209975691Y-85389367D01*
X209978536Y-85398747D01*
X209979499Y-85408501D01*
X209979499Y-85908500D01*
X209978536Y-85918253D01*
X209975691Y-85927634D01*
X209971071Y-85936277D01*
X209964853Y-85943854D01*
X209957276Y-85950072D01*
X209948633Y-85954695D01*
X209939252Y-85957540D01*
X209929499Y-85958500D01*
G36*
X210479500Y-85758500D02*
G01*
X210479500Y-85908500D01*
X210478540Y-85918256D01*
X210475695Y-85927636D01*
X210471073Y-85936280D01*
X210464855Y-85943857D01*
X210457278Y-85950074D01*
X210448634Y-85954695D01*
X210439254Y-85957540D01*
X210429500Y-85958500D01*
X209779499Y-85958500D01*
X209769746Y-85957540D01*
X209760365Y-85954695D01*
X209751722Y-85950074D01*
X209744145Y-85943857D01*
X209737927Y-85936280D01*
X209733304Y-85927636D01*
X209730459Y-85918256D01*
X209729499Y-85908500D01*
X209729499Y-85758500D01*
X209730459Y-85748746D01*
X209733304Y-85739366D01*
X209737927Y-85730723D01*
X209744145Y-85723146D01*
X209751722Y-85716928D01*
X209760365Y-85712308D01*
X209769746Y-85709463D01*
X209779499Y-85708500D01*
X210429500Y-85708500D01*
X210439254Y-85709463D01*
X210448634Y-85712308D01*
X210457278Y-85716928D01*
X210464855Y-85723146D01*
X210471073Y-85730723D01*
X210475695Y-85739366D01*
X210478540Y-85748746D01*
X210479500Y-85758500D01*
G37*
X210479500Y-85758500D02*
X210479500Y-85908500D01*
X210478540Y-85918256D01*
X210475695Y-85927636D01*
X210471073Y-85936280D01*
X210464855Y-85943857D01*
X210457278Y-85950074D01*
X210448634Y-85954695D01*
X210439254Y-85957540D01*
X210429500Y-85958500D01*
X209779499Y-85958500D01*
X209769746Y-85957540D01*
X209760365Y-85954695D01*
X209751722Y-85950074D01*
X209744145Y-85943857D01*
X209737927Y-85936280D01*
X209733304Y-85927636D01*
X209730459Y-85918256D01*
X209729499Y-85908500D01*
X209729499Y-85758500D01*
X209730459Y-85748746D01*
X209733304Y-85739366D01*
X209737927Y-85730723D01*
X209744145Y-85723146D01*
X209751722Y-85716928D01*
X209760365Y-85712308D01*
X209769746Y-85709463D01*
X209779499Y-85708500D01*
X210429500Y-85708500D01*
X210439254Y-85709463D01*
X210448634Y-85712308D01*
X210457278Y-85716928D01*
X210464855Y-85723146D01*
X210471073Y-85730723D01*
X210475695Y-85739366D01*
X210478540Y-85748746D01*
X210479500Y-85758500D01*
G36*
X209929499Y-86983501D02*
G01*
X209929499Y-87133499D01*
X209928539Y-87143255D01*
X209925694Y-87152635D01*
X209921074Y-87161279D01*
X209914856Y-87168855D01*
X209907279Y-87175073D01*
X209898635Y-87179694D01*
X209889255Y-87182538D01*
X209879499Y-87183498D01*
X209259498Y-87183498D01*
X209249744Y-87182538D01*
X209240364Y-87179694D01*
X209231720Y-87175073D01*
X209224143Y-87168855D01*
X209217925Y-87161279D01*
X209213305Y-87152635D01*
X209210460Y-87143255D01*
X209209498Y-87133499D01*
X209209498Y-86983501D01*
X209210460Y-86973745D01*
X209213305Y-86964365D01*
X209217925Y-86955721D01*
X209224143Y-86948145D01*
X209231720Y-86941927D01*
X209240364Y-86937306D01*
X209249744Y-86934462D01*
X209259498Y-86933502D01*
X209879499Y-86933502D01*
X209889255Y-86934462D01*
X209898635Y-86937306D01*
X209907279Y-86941927D01*
X209914856Y-86948145D01*
X209921074Y-86955721D01*
X209925694Y-86964365D01*
X209928539Y-86973745D01*
X209929499Y-86983501D01*
G37*
X209929499Y-86983501D02*
X209929499Y-87133499D01*
X209928539Y-87143255D01*
X209925694Y-87152635D01*
X209921074Y-87161279D01*
X209914856Y-87168855D01*
X209907279Y-87175073D01*
X209898635Y-87179694D01*
X209889255Y-87182538D01*
X209879499Y-87183498D01*
X209259498Y-87183498D01*
X209249744Y-87182538D01*
X209240364Y-87179694D01*
X209231720Y-87175073D01*
X209224143Y-87168855D01*
X209217925Y-87161279D01*
X209213305Y-87152635D01*
X209210460Y-87143255D01*
X209209498Y-87133499D01*
X209209498Y-86983501D01*
X209210460Y-86973745D01*
X209213305Y-86964365D01*
X209217925Y-86955721D01*
X209224143Y-86948145D01*
X209231720Y-86941927D01*
X209240364Y-86937306D01*
X209249744Y-86934462D01*
X209259498Y-86933502D01*
X209879499Y-86933502D01*
X209889255Y-86934462D01*
X209898635Y-86937306D01*
X209907279Y-86941927D01*
X209914856Y-86948145D01*
X209921074Y-86955721D01*
X209925694Y-86964365D01*
X209928539Y-86973745D01*
X209929499Y-86983501D01*
G36*
X210849500Y-86983501D02*
G01*
X210849500Y-87133499D01*
X210848539Y-87143255D01*
X210845695Y-87152635D01*
X210841074Y-87161279D01*
X210834856Y-87168855D01*
X210827280Y-87175073D01*
X210818636Y-87179694D01*
X210809256Y-87182538D01*
X210799500Y-87183498D01*
X210179498Y-87183498D01*
X210169745Y-87182538D01*
X210160365Y-87179694D01*
X210151721Y-87175073D01*
X210144144Y-87168855D01*
X210137926Y-87161279D01*
X210133306Y-87152635D01*
X210130461Y-87143255D01*
X210129498Y-87133499D01*
X210129498Y-86983501D01*
X210130461Y-86973745D01*
X210133306Y-86964365D01*
X210137926Y-86955721D01*
X210144144Y-86948145D01*
X210151721Y-86941927D01*
X210160365Y-86937306D01*
X210169745Y-86934462D01*
X210179498Y-86933502D01*
X210799500Y-86933502D01*
X210809256Y-86934462D01*
X210818636Y-86937306D01*
X210827280Y-86941927D01*
X210834856Y-86948145D01*
X210841074Y-86955721D01*
X210845695Y-86964365D01*
X210848539Y-86973745D01*
X210849500Y-86983501D01*
G37*
X210849500Y-86983501D02*
X210849500Y-87133499D01*
X210848539Y-87143255D01*
X210845695Y-87152635D01*
X210841074Y-87161279D01*
X210834856Y-87168855D01*
X210827280Y-87175073D01*
X210818636Y-87179694D01*
X210809256Y-87182538D01*
X210799500Y-87183498D01*
X210179498Y-87183498D01*
X210169745Y-87182538D01*
X210160365Y-87179694D01*
X210151721Y-87175073D01*
X210144144Y-87168855D01*
X210137926Y-87161279D01*
X210133306Y-87152635D01*
X210130461Y-87143255D01*
X210129498Y-87133499D01*
X210129498Y-86983501D01*
X210130461Y-86973745D01*
X210133306Y-86964365D01*
X210137926Y-86955721D01*
X210144144Y-86948145D01*
X210151721Y-86941927D01*
X210160365Y-86937306D01*
X210169745Y-86934462D01*
X210179498Y-86933502D01*
X210799500Y-86933502D01*
X210809256Y-86934462D01*
X210818636Y-86937306D01*
X210827280Y-86941927D01*
X210834856Y-86948145D01*
X210841074Y-86955721D01*
X210845695Y-86964365D01*
X210848539Y-86973745D01*
X210849500Y-86983501D01*
G36*
X210529000Y-87483498D02*
G01*
X210529000Y-87633498D01*
X210528040Y-87643254D01*
X210525195Y-87652634D01*
X210520572Y-87661278D01*
X210514354Y-87668854D01*
X210506777Y-87675072D01*
X210498134Y-87679693D01*
X210488754Y-87682537D01*
X210479000Y-87683497D01*
X210004000Y-87683497D01*
X209994246Y-87682537D01*
X209984866Y-87679693D01*
X209976222Y-87675072D01*
X209968645Y-87668854D01*
X209962427Y-87661278D01*
X209957805Y-87652634D01*
X209954960Y-87643254D01*
X209954000Y-87633498D01*
X209954000Y-87483498D01*
X209954960Y-87473744D01*
X209957805Y-87464364D01*
X209962427Y-87455720D01*
X209968645Y-87448144D01*
X209976222Y-87441926D01*
X209984866Y-87437305D01*
X209994246Y-87434461D01*
X210004000Y-87433498D01*
X210479000Y-87433498D01*
X210488754Y-87434461D01*
X210498134Y-87437305D01*
X210506777Y-87441926D01*
X210514354Y-87448144D01*
X210520572Y-87455720D01*
X210525195Y-87464364D01*
X210528040Y-87473744D01*
X210529000Y-87483498D01*
G37*
X210529000Y-87483498D02*
X210529000Y-87633498D01*
X210528040Y-87643254D01*
X210525195Y-87652634D01*
X210520572Y-87661278D01*
X210514354Y-87668854D01*
X210506777Y-87675072D01*
X210498134Y-87679693D01*
X210488754Y-87682537D01*
X210479000Y-87683497D01*
X210004000Y-87683497D01*
X209994246Y-87682537D01*
X209984866Y-87679693D01*
X209976222Y-87675072D01*
X209968645Y-87668854D01*
X209962427Y-87661278D01*
X209957805Y-87652634D01*
X209954960Y-87643254D01*
X209954000Y-87633498D01*
X209954000Y-87483498D01*
X209954960Y-87473744D01*
X209957805Y-87464364D01*
X209962427Y-87455720D01*
X209968645Y-87448144D01*
X209976222Y-87441926D01*
X209984866Y-87437305D01*
X209994246Y-87434461D01*
X210004000Y-87433498D01*
X210479000Y-87433498D01*
X210488754Y-87434461D01*
X210498134Y-87437305D01*
X210506777Y-87441926D01*
X210514354Y-87448144D01*
X210520572Y-87455720D01*
X210525195Y-87464364D01*
X210528040Y-87473744D01*
X210529000Y-87483498D01*
G36*
X210529000Y-86483502D02*
G01*
X210529000Y-86633502D01*
X210528040Y-86643256D01*
X210525195Y-86652636D01*
X210520572Y-86661280D01*
X210514354Y-86668856D01*
X210506777Y-86675074D01*
X210498134Y-86679695D01*
X210488754Y-86682539D01*
X210479000Y-86683502D01*
X210004000Y-86683502D01*
X209994246Y-86682539D01*
X209984866Y-86679695D01*
X209976222Y-86675074D01*
X209968645Y-86668856D01*
X209962427Y-86661280D01*
X209957805Y-86652636D01*
X209954960Y-86643256D01*
X209954000Y-86633502D01*
X209954000Y-86483502D01*
X209954960Y-86473746D01*
X209957805Y-86464366D01*
X209962427Y-86455722D01*
X209968645Y-86448146D01*
X209976222Y-86441928D01*
X209984866Y-86437307D01*
X209994246Y-86434463D01*
X210004000Y-86433503D01*
X210479000Y-86433503D01*
X210488754Y-86434463D01*
X210498134Y-86437307D01*
X210506777Y-86441928D01*
X210514354Y-86448146D01*
X210520572Y-86455722D01*
X210525195Y-86464366D01*
X210528040Y-86473746D01*
X210529000Y-86483502D01*
G37*
X210529000Y-86483502D02*
X210529000Y-86633502D01*
X210528040Y-86643256D01*
X210525195Y-86652636D01*
X210520572Y-86661280D01*
X210514354Y-86668856D01*
X210506777Y-86675074D01*
X210498134Y-86679695D01*
X210488754Y-86682539D01*
X210479000Y-86683502D01*
X210004000Y-86683502D01*
X209994246Y-86682539D01*
X209984866Y-86679695D01*
X209976222Y-86675074D01*
X209968645Y-86668856D01*
X209962427Y-86661280D01*
X209957805Y-86652636D01*
X209954960Y-86643256D01*
X209954000Y-86633502D01*
X209954000Y-86483502D01*
X209954960Y-86473746D01*
X209957805Y-86464366D01*
X209962427Y-86455722D01*
X209968645Y-86448146D01*
X209976222Y-86441928D01*
X209984866Y-86437307D01*
X209994246Y-86434463D01*
X210004000Y-86433503D01*
X210479000Y-86433503D01*
X210488754Y-86434463D01*
X210498134Y-86437307D01*
X210506777Y-86441928D01*
X210514354Y-86448146D01*
X210520572Y-86455722D01*
X210525195Y-86464366D01*
X210528040Y-86473746D01*
X210529000Y-86483502D01*
G36*
X209754000Y-86483502D02*
G01*
X209754000Y-86633502D01*
X209753040Y-86643256D01*
X209750195Y-86652636D01*
X209745572Y-86661280D01*
X209739354Y-86668856D01*
X209731778Y-86675074D01*
X209723134Y-86679695D01*
X209713754Y-86682539D01*
X209704000Y-86683502D01*
X209229000Y-86683502D01*
X209219246Y-86682539D01*
X209209866Y-86679695D01*
X209201222Y-86675074D01*
X209193646Y-86668856D01*
X209187428Y-86661280D01*
X209182805Y-86652636D01*
X209179960Y-86643256D01*
X209179000Y-86633502D01*
X209179000Y-86483502D01*
X209179960Y-86473746D01*
X209182805Y-86464366D01*
X209187428Y-86455722D01*
X209193646Y-86448146D01*
X209201222Y-86441928D01*
X209209866Y-86437307D01*
X209219246Y-86434463D01*
X209229000Y-86433503D01*
X209704000Y-86433503D01*
X209713754Y-86434463D01*
X209723134Y-86437307D01*
X209731778Y-86441928D01*
X209739354Y-86448146D01*
X209745572Y-86455722D01*
X209750195Y-86464366D01*
X209753040Y-86473746D01*
X209754000Y-86483502D01*
G37*
X209754000Y-86483502D02*
X209754000Y-86633502D01*
X209753040Y-86643256D01*
X209750195Y-86652636D01*
X209745572Y-86661280D01*
X209739354Y-86668856D01*
X209731778Y-86675074D01*
X209723134Y-86679695D01*
X209713754Y-86682539D01*
X209704000Y-86683502D01*
X209229000Y-86683502D01*
X209219246Y-86682539D01*
X209209866Y-86679695D01*
X209201222Y-86675074D01*
X209193646Y-86668856D01*
X209187428Y-86661280D01*
X209182805Y-86652636D01*
X209179960Y-86643256D01*
X209179000Y-86633502D01*
X209179000Y-86483502D01*
X209179960Y-86473746D01*
X209182805Y-86464366D01*
X209187428Y-86455722D01*
X209193646Y-86448146D01*
X209201222Y-86441928D01*
X209209866Y-86437307D01*
X209219246Y-86434463D01*
X209229000Y-86433503D01*
X209704000Y-86433503D01*
X209713754Y-86434463D01*
X209723134Y-86437307D01*
X209731778Y-86441928D01*
X209739354Y-86448146D01*
X209745572Y-86455722D01*
X209750195Y-86464366D01*
X209753040Y-86473746D01*
X209754000Y-86483502D01*
G36*
X209754000Y-87483498D02*
G01*
X209754000Y-87633498D01*
X209753040Y-87643254D01*
X209750195Y-87652634D01*
X209745572Y-87661278D01*
X209739354Y-87668854D01*
X209731778Y-87675072D01*
X209723134Y-87679693D01*
X209713754Y-87682537D01*
X209704000Y-87683497D01*
X209229000Y-87683497D01*
X209219246Y-87682537D01*
X209209866Y-87679693D01*
X209201222Y-87675072D01*
X209193646Y-87668854D01*
X209187428Y-87661278D01*
X209182805Y-87652634D01*
X209179960Y-87643254D01*
X209179000Y-87633498D01*
X209179000Y-87483498D01*
X209179960Y-87473744D01*
X209182805Y-87464364D01*
X209187428Y-87455720D01*
X209193646Y-87448144D01*
X209201222Y-87441926D01*
X209209866Y-87437305D01*
X209219246Y-87434461D01*
X209229000Y-87433498D01*
X209704000Y-87433498D01*
X209713754Y-87434461D01*
X209723134Y-87437305D01*
X209731778Y-87441926D01*
X209739354Y-87448144D01*
X209745572Y-87455720D01*
X209750195Y-87464364D01*
X209753040Y-87473744D01*
X209754000Y-87483498D01*
G37*
X209754000Y-87483498D02*
X209754000Y-87633498D01*
X209753040Y-87643254D01*
X209750195Y-87652634D01*
X209745572Y-87661278D01*
X209739354Y-87668854D01*
X209731778Y-87675072D01*
X209723134Y-87679693D01*
X209713754Y-87682537D01*
X209704000Y-87683497D01*
X209229000Y-87683497D01*
X209219246Y-87682537D01*
X209209866Y-87679693D01*
X209201222Y-87675072D01*
X209193646Y-87668854D01*
X209187428Y-87661278D01*
X209182805Y-87652634D01*
X209179960Y-87643254D01*
X209179000Y-87633498D01*
X209179000Y-87483498D01*
X209179960Y-87473744D01*
X209182805Y-87464364D01*
X209187428Y-87455720D01*
X209193646Y-87448144D01*
X209201222Y-87441926D01*
X209209866Y-87437305D01*
X209219246Y-87434461D01*
X209229000Y-87433498D01*
X209704000Y-87433498D01*
X209713754Y-87434461D01*
X209723134Y-87437305D01*
X209731778Y-87441926D01*
X209739354Y-87448144D01*
X209745572Y-87455720D01*
X209750195Y-87464364D01*
X209753040Y-87473744D01*
X209754000Y-87483498D01*
G36*
X218955000Y-99781500D02*
G01*
X219105000Y-99781500D01*
X219114754Y-99782460D01*
X219124134Y-99785305D01*
X219132777Y-99789927D01*
X219140354Y-99796145D01*
X219146572Y-99803722D01*
X219151192Y-99812366D01*
X219154037Y-99821746D01*
X219155000Y-99831500D01*
X219155000Y-100481501D01*
X219154037Y-100491254D01*
X219151192Y-100500635D01*
X219146572Y-100509278D01*
X219140354Y-100516855D01*
X219132777Y-100523073D01*
X219124134Y-100527696D01*
X219114754Y-100530541D01*
X219105000Y-100531501D01*
X218955000Y-100531501D01*
X218945244Y-100530541D01*
X218935864Y-100527696D01*
X218927220Y-100523073D01*
X218919643Y-100516855D01*
X218913426Y-100509278D01*
X218908805Y-100500635D01*
X218905960Y-100491254D01*
X218905000Y-100481501D01*
X218905000Y-99831500D01*
X218905960Y-99821746D01*
X218908805Y-99812366D01*
X218913426Y-99803722D01*
X218919643Y-99796145D01*
X218927220Y-99789927D01*
X218935864Y-99785305D01*
X218945244Y-99782460D01*
X218955000Y-99781500D01*
G37*
X218955000Y-99781500D02*
X219105000Y-99781500D01*
X219114754Y-99782460D01*
X219124134Y-99785305D01*
X219132777Y-99789927D01*
X219140354Y-99796145D01*
X219146572Y-99803722D01*
X219151192Y-99812366D01*
X219154037Y-99821746D01*
X219155000Y-99831500D01*
X219155000Y-100481501D01*
X219154037Y-100491254D01*
X219151192Y-100500635D01*
X219146572Y-100509278D01*
X219140354Y-100516855D01*
X219132777Y-100523073D01*
X219124134Y-100527696D01*
X219114754Y-100530541D01*
X219105000Y-100531501D01*
X218955000Y-100531501D01*
X218945244Y-100530541D01*
X218935864Y-100527696D01*
X218927220Y-100523073D01*
X218919643Y-100516855D01*
X218913426Y-100509278D01*
X218908805Y-100500635D01*
X218905960Y-100491254D01*
X218905000Y-100481501D01*
X218905000Y-99831500D01*
X218905960Y-99821746D01*
X218908805Y-99812366D01*
X218913426Y-99803722D01*
X218919643Y-99796145D01*
X218927220Y-99789927D01*
X218935864Y-99785305D01*
X218945244Y-99782460D01*
X218955000Y-99781500D01*
G36*
X218905000Y-100481501D02*
G01*
X218905000Y-100331501D01*
X218905960Y-100321748D01*
X218908805Y-100312367D01*
X218913428Y-100303724D01*
X218919646Y-100296147D01*
X218927223Y-100289929D01*
X218935866Y-100285309D01*
X218945247Y-100282464D01*
X218955000Y-100281501D01*
X219454999Y-100281501D01*
X219464753Y-100282464D01*
X219474133Y-100285309D01*
X219482777Y-100289929D01*
X219490354Y-100296147D01*
X219496571Y-100303724D01*
X219501194Y-100312367D01*
X219504039Y-100321748D01*
X219504999Y-100331501D01*
X219504999Y-100481501D01*
X219504039Y-100491257D01*
X219501194Y-100500637D01*
X219496571Y-100509281D01*
X219490354Y-100516858D01*
X219482777Y-100523076D01*
X219474133Y-100527696D01*
X219464753Y-100530541D01*
X219454999Y-100531501D01*
X218955000Y-100531501D01*
X218945247Y-100530541D01*
X218935866Y-100527696D01*
X218927223Y-100523076D01*
X218919646Y-100516858D01*
X218913428Y-100509281D01*
X218908805Y-100500637D01*
X218905960Y-100491257D01*
X218905000Y-100481501D01*
G37*
X218905000Y-100481501D02*
X218905000Y-100331501D01*
X218905960Y-100321748D01*
X218908805Y-100312367D01*
X218913428Y-100303724D01*
X218919646Y-100296147D01*
X218927223Y-100289929D01*
X218935866Y-100285309D01*
X218945247Y-100282464D01*
X218955000Y-100281501D01*
X219454999Y-100281501D01*
X219464753Y-100282464D01*
X219474133Y-100285309D01*
X219482777Y-100289929D01*
X219490354Y-100296147D01*
X219496571Y-100303724D01*
X219501194Y-100312367D01*
X219504039Y-100321748D01*
X219504999Y-100331501D01*
X219504999Y-100481501D01*
X219504039Y-100491257D01*
X219501194Y-100500637D01*
X219496571Y-100509281D01*
X219490354Y-100516858D01*
X219482777Y-100523076D01*
X219474133Y-100527696D01*
X219464753Y-100530541D01*
X219454999Y-100531501D01*
X218955000Y-100531501D01*
X218945247Y-100530541D01*
X218935866Y-100527696D01*
X218927223Y-100523076D01*
X218919646Y-100516858D01*
X218913428Y-100509281D01*
X218908805Y-100500637D01*
X218905960Y-100491257D01*
X218905000Y-100481501D01*
G36*
X218905000Y-99981499D02*
G01*
X218905000Y-99831500D01*
X218905960Y-99821743D01*
X218908805Y-99812363D01*
X218913428Y-99803720D01*
X218919646Y-99796143D01*
X218927223Y-99789925D01*
X218935866Y-99785305D01*
X218945247Y-99782460D01*
X218955000Y-99781500D01*
X219454999Y-99781500D01*
X219464753Y-99782460D01*
X219474133Y-99785305D01*
X219482777Y-99789925D01*
X219490354Y-99796143D01*
X219496571Y-99803720D01*
X219501194Y-99812363D01*
X219504039Y-99821743D01*
X219504999Y-99831500D01*
X219504999Y-99981499D01*
X219504039Y-99991253D01*
X219501194Y-100000633D01*
X219496571Y-100009277D01*
X219490354Y-100016854D01*
X219482777Y-100023071D01*
X219474133Y-100027692D01*
X219464753Y-100030537D01*
X219454999Y-100031499D01*
X218955000Y-100031499D01*
X218945247Y-100030537D01*
X218935866Y-100027692D01*
X218927223Y-100023071D01*
X218919646Y-100016854D01*
X218913428Y-100009277D01*
X218908805Y-100000633D01*
X218905960Y-99991253D01*
X218905000Y-99981499D01*
G37*
X218905000Y-99981499D02*
X218905000Y-99831500D01*
X218905960Y-99821743D01*
X218908805Y-99812363D01*
X218913428Y-99803720D01*
X218919646Y-99796143D01*
X218927223Y-99789925D01*
X218935866Y-99785305D01*
X218945247Y-99782460D01*
X218955000Y-99781500D01*
X219454999Y-99781500D01*
X219464753Y-99782460D01*
X219474133Y-99785305D01*
X219482777Y-99789925D01*
X219490354Y-99796143D01*
X219496571Y-99803720D01*
X219501194Y-99812363D01*
X219504039Y-99821743D01*
X219504999Y-99831500D01*
X219504999Y-99981499D01*
X219504039Y-99991253D01*
X219501194Y-100000633D01*
X219496571Y-100009277D01*
X219490354Y-100016854D01*
X219482777Y-100023071D01*
X219474133Y-100027692D01*
X219464753Y-100030537D01*
X219454999Y-100031499D01*
X218955000Y-100031499D01*
X218945247Y-100030537D01*
X218935866Y-100027692D01*
X218927223Y-100023071D01*
X218919646Y-100016854D01*
X218913428Y-100009277D01*
X218908805Y-100000633D01*
X218905960Y-99991253D01*
X218905000Y-99981499D01*
G36*
X216705000Y-99831500D02*
G01*
X216705000Y-99981499D01*
X216704040Y-99991253D01*
X216701195Y-100000633D01*
X216696572Y-100009277D01*
X216690354Y-100016854D01*
X216682777Y-100023071D01*
X216674134Y-100027692D01*
X216664753Y-100030537D01*
X216655000Y-100031499D01*
X216155001Y-100031499D01*
X216145247Y-100030537D01*
X216135867Y-100027692D01*
X216127223Y-100023071D01*
X216119646Y-100016854D01*
X216113429Y-100009277D01*
X216108806Y-100000633D01*
X216105961Y-99991253D01*
X216105001Y-99981499D01*
X216105001Y-99831500D01*
X216105961Y-99821743D01*
X216108806Y-99812363D01*
X216113429Y-99803720D01*
X216119646Y-99796143D01*
X216127223Y-99789925D01*
X216135867Y-99785305D01*
X216145247Y-99782460D01*
X216155001Y-99781500D01*
X216655000Y-99781500D01*
X216664753Y-99782460D01*
X216674134Y-99785305D01*
X216682777Y-99789925D01*
X216690354Y-99796143D01*
X216696572Y-99803720D01*
X216701195Y-99812363D01*
X216704040Y-99821743D01*
X216705000Y-99831500D01*
G37*
X216705000Y-99831500D02*
X216705000Y-99981499D01*
X216704040Y-99991253D01*
X216701195Y-100000633D01*
X216696572Y-100009277D01*
X216690354Y-100016854D01*
X216682777Y-100023071D01*
X216674134Y-100027692D01*
X216664753Y-100030537D01*
X216655000Y-100031499D01*
X216155001Y-100031499D01*
X216145247Y-100030537D01*
X216135867Y-100027692D01*
X216127223Y-100023071D01*
X216119646Y-100016854D01*
X216113429Y-100009277D01*
X216108806Y-100000633D01*
X216105961Y-99991253D01*
X216105001Y-99981499D01*
X216105001Y-99831500D01*
X216105961Y-99821743D01*
X216108806Y-99812363D01*
X216113429Y-99803720D01*
X216119646Y-99796143D01*
X216127223Y-99789925D01*
X216135867Y-99785305D01*
X216145247Y-99782460D01*
X216155001Y-99781500D01*
X216655000Y-99781500D01*
X216664753Y-99782460D01*
X216674134Y-99785305D01*
X216682777Y-99789925D01*
X216690354Y-99796143D01*
X216696572Y-99803720D01*
X216701195Y-99812363D01*
X216704040Y-99821743D01*
X216705000Y-99831500D01*
G36*
X216705000Y-100331501D02*
G01*
X216705000Y-100481501D01*
X216704040Y-100491257D01*
X216701195Y-100500637D01*
X216696572Y-100509281D01*
X216690354Y-100516858D01*
X216682777Y-100523076D01*
X216674134Y-100527696D01*
X216664753Y-100530541D01*
X216655000Y-100531501D01*
X216155001Y-100531501D01*
X216145247Y-100530541D01*
X216135867Y-100527696D01*
X216127223Y-100523076D01*
X216119646Y-100516858D01*
X216113429Y-100509281D01*
X216108806Y-100500637D01*
X216105961Y-100491257D01*
X216105001Y-100481501D01*
X216105001Y-100331501D01*
X216105961Y-100321748D01*
X216108806Y-100312367D01*
X216113429Y-100303724D01*
X216119646Y-100296147D01*
X216127223Y-100289929D01*
X216135867Y-100285309D01*
X216145247Y-100282464D01*
X216155001Y-100281501D01*
X216655000Y-100281501D01*
X216664753Y-100282464D01*
X216674134Y-100285309D01*
X216682777Y-100289929D01*
X216690354Y-100296147D01*
X216696572Y-100303724D01*
X216701195Y-100312367D01*
X216704040Y-100321748D01*
X216705000Y-100331501D01*
G37*
X216705000Y-100331501D02*
X216705000Y-100481501D01*
X216704040Y-100491257D01*
X216701195Y-100500637D01*
X216696572Y-100509281D01*
X216690354Y-100516858D01*
X216682777Y-100523076D01*
X216674134Y-100527696D01*
X216664753Y-100530541D01*
X216655000Y-100531501D01*
X216155001Y-100531501D01*
X216145247Y-100530541D01*
X216135867Y-100527696D01*
X216127223Y-100523076D01*
X216119646Y-100516858D01*
X216113429Y-100509281D01*
X216108806Y-100500637D01*
X216105961Y-100491257D01*
X216105001Y-100481501D01*
X216105001Y-100331501D01*
X216105961Y-100321748D01*
X216108806Y-100312367D01*
X216113429Y-100303724D01*
X216119646Y-100296147D01*
X216127223Y-100289929D01*
X216135867Y-100285309D01*
X216145247Y-100282464D01*
X216155001Y-100281501D01*
X216655000Y-100281501D01*
X216664753Y-100282464D01*
X216674134Y-100285309D01*
X216682777Y-100289929D01*
X216690354Y-100296147D01*
X216696572Y-100303724D01*
X216701195Y-100312367D01*
X216704040Y-100321748D01*
X216705000Y-100331501D01*
G36*
X216505000Y-99781500D02*
G01*
X216655000Y-99781500D01*
X216664756Y-99782460D01*
X216674136Y-99785305D01*
X216682780Y-99789927D01*
X216690357Y-99796145D01*
X216696574Y-99803722D01*
X216701195Y-99812366D01*
X216704040Y-99821746D01*
X216705000Y-99831500D01*
X216705000Y-100481501D01*
X216704040Y-100491254D01*
X216701195Y-100500635D01*
X216696574Y-100509278D01*
X216690357Y-100516855D01*
X216682780Y-100523073D01*
X216674136Y-100527696D01*
X216664756Y-100530541D01*
X216655000Y-100531501D01*
X216505000Y-100531501D01*
X216495246Y-100530541D01*
X216485866Y-100527696D01*
X216477223Y-100523073D01*
X216469646Y-100516855D01*
X216463428Y-100509278D01*
X216458808Y-100500635D01*
X216455963Y-100491254D01*
X216455000Y-100481501D01*
X216455000Y-99831500D01*
X216455963Y-99821746D01*
X216458808Y-99812366D01*
X216463428Y-99803722D01*
X216469646Y-99796145D01*
X216477223Y-99789927D01*
X216485866Y-99785305D01*
X216495246Y-99782460D01*
X216505000Y-99781500D01*
G37*
X216505000Y-99781500D02*
X216655000Y-99781500D01*
X216664756Y-99782460D01*
X216674136Y-99785305D01*
X216682780Y-99789927D01*
X216690357Y-99796145D01*
X216696574Y-99803722D01*
X216701195Y-99812366D01*
X216704040Y-99821746D01*
X216705000Y-99831500D01*
X216705000Y-100481501D01*
X216704040Y-100491254D01*
X216701195Y-100500635D01*
X216696574Y-100509278D01*
X216690357Y-100516855D01*
X216682780Y-100523073D01*
X216674136Y-100527696D01*
X216664756Y-100530541D01*
X216655000Y-100531501D01*
X216505000Y-100531501D01*
X216495246Y-100530541D01*
X216485866Y-100527696D01*
X216477223Y-100523073D01*
X216469646Y-100516855D01*
X216463428Y-100509278D01*
X216458808Y-100500635D01*
X216455963Y-100491254D01*
X216455000Y-100481501D01*
X216455000Y-99831500D01*
X216455963Y-99821746D01*
X216458808Y-99812366D01*
X216463428Y-99803722D01*
X216469646Y-99796145D01*
X216477223Y-99789927D01*
X216485866Y-99785305D01*
X216495246Y-99782460D01*
X216505000Y-99781500D01*
G36*
X217730001Y-100331501D02*
G01*
X217879999Y-100331501D01*
X217889755Y-100332461D01*
X217899135Y-100335306D01*
X217907779Y-100339926D01*
X217915355Y-100346144D01*
X217921573Y-100353721D01*
X217926194Y-100362365D01*
X217929038Y-100371745D01*
X217929998Y-100381501D01*
X217929998Y-101001502D01*
X217929038Y-101011256D01*
X217926194Y-101020636D01*
X217921573Y-101029280D01*
X217915355Y-101036857D01*
X217907779Y-101043075D01*
X217899135Y-101047695D01*
X217889755Y-101050540D01*
X217879999Y-101051502D01*
X217730001Y-101051502D01*
X217720245Y-101050540D01*
X217710865Y-101047695D01*
X217702221Y-101043075D01*
X217694645Y-101036857D01*
X217688427Y-101029280D01*
X217683806Y-101020636D01*
X217680962Y-101011256D01*
X217680002Y-101001502D01*
X217680002Y-100381501D01*
X217680962Y-100371745D01*
X217683806Y-100362365D01*
X217688427Y-100353721D01*
X217694645Y-100346144D01*
X217702221Y-100339926D01*
X217710865Y-100335306D01*
X217720245Y-100332461D01*
X217730001Y-100331501D01*
G37*
X217730001Y-100331501D02*
X217879999Y-100331501D01*
X217889755Y-100332461D01*
X217899135Y-100335306D01*
X217907779Y-100339926D01*
X217915355Y-100346144D01*
X217921573Y-100353721D01*
X217926194Y-100362365D01*
X217929038Y-100371745D01*
X217929998Y-100381501D01*
X217929998Y-101001502D01*
X217929038Y-101011256D01*
X217926194Y-101020636D01*
X217921573Y-101029280D01*
X217915355Y-101036857D01*
X217907779Y-101043075D01*
X217899135Y-101047695D01*
X217889755Y-101050540D01*
X217879999Y-101051502D01*
X217730001Y-101051502D01*
X217720245Y-101050540D01*
X217710865Y-101047695D01*
X217702221Y-101043075D01*
X217694645Y-101036857D01*
X217688427Y-101029280D01*
X217683806Y-101020636D01*
X217680962Y-101011256D01*
X217680002Y-101001502D01*
X217680002Y-100381501D01*
X217680962Y-100371745D01*
X217683806Y-100362365D01*
X217688427Y-100353721D01*
X217694645Y-100346144D01*
X217702221Y-100339926D01*
X217710865Y-100335306D01*
X217720245Y-100332461D01*
X217730001Y-100331501D01*
G36*
X217730001Y-99411500D02*
G01*
X217879999Y-99411500D01*
X217889755Y-99412461D01*
X217899135Y-99415305D01*
X217907779Y-99419926D01*
X217915355Y-99426144D01*
X217921573Y-99433720D01*
X217926194Y-99442364D01*
X217929038Y-99451744D01*
X217929998Y-99461500D01*
X217929998Y-100081502D01*
X217929038Y-100091255D01*
X217926194Y-100100635D01*
X217921573Y-100109279D01*
X217915355Y-100116856D01*
X217907779Y-100123074D01*
X217899135Y-100127694D01*
X217889755Y-100130539D01*
X217879999Y-100131502D01*
X217730001Y-100131502D01*
X217720245Y-100130539D01*
X217710865Y-100127694D01*
X217702221Y-100123074D01*
X217694645Y-100116856D01*
X217688427Y-100109279D01*
X217683806Y-100100635D01*
X217680962Y-100091255D01*
X217680002Y-100081502D01*
X217680002Y-99461500D01*
X217680962Y-99451744D01*
X217683806Y-99442364D01*
X217688427Y-99433720D01*
X217694645Y-99426144D01*
X217702221Y-99419926D01*
X217710865Y-99415305D01*
X217720245Y-99412461D01*
X217730001Y-99411500D01*
G37*
X217730001Y-99411500D02*
X217879999Y-99411500D01*
X217889755Y-99412461D01*
X217899135Y-99415305D01*
X217907779Y-99419926D01*
X217915355Y-99426144D01*
X217921573Y-99433720D01*
X217926194Y-99442364D01*
X217929038Y-99451744D01*
X217929998Y-99461500D01*
X217929998Y-100081502D01*
X217929038Y-100091255D01*
X217926194Y-100100635D01*
X217921573Y-100109279D01*
X217915355Y-100116856D01*
X217907779Y-100123074D01*
X217899135Y-100127694D01*
X217889755Y-100130539D01*
X217879999Y-100131502D01*
X217730001Y-100131502D01*
X217720245Y-100130539D01*
X217710865Y-100127694D01*
X217702221Y-100123074D01*
X217694645Y-100116856D01*
X217688427Y-100109279D01*
X217683806Y-100100635D01*
X217680962Y-100091255D01*
X217680002Y-100081502D01*
X217680002Y-99461500D01*
X217680962Y-99451744D01*
X217683806Y-99442364D01*
X217688427Y-99433720D01*
X217694645Y-99426144D01*
X217702221Y-99419926D01*
X217710865Y-99415305D01*
X217720245Y-99412461D01*
X217730001Y-99411500D01*
G36*
X218229998Y-99732000D02*
G01*
X218379998Y-99732000D01*
X218389754Y-99732960D01*
X218399134Y-99735805D01*
X218407778Y-99740428D01*
X218415354Y-99746646D01*
X218421572Y-99754223D01*
X218426193Y-99762866D01*
X218429037Y-99772246D01*
X218429997Y-99782000D01*
X218429997Y-100257000D01*
X218429037Y-100266754D01*
X218426193Y-100276134D01*
X218421572Y-100284778D01*
X218415354Y-100292355D01*
X218407778Y-100298573D01*
X218399134Y-100303195D01*
X218389754Y-100306040D01*
X218379998Y-100307000D01*
X218229998Y-100307000D01*
X218220244Y-100306040D01*
X218210864Y-100303195D01*
X218202220Y-100298573D01*
X218194644Y-100292355D01*
X218188426Y-100284778D01*
X218183805Y-100276134D01*
X218180961Y-100266754D01*
X218179998Y-100257000D01*
X218179998Y-99782000D01*
X218180961Y-99772246D01*
X218183805Y-99762866D01*
X218188426Y-99754223D01*
X218194644Y-99746646D01*
X218202220Y-99740428D01*
X218210864Y-99735805D01*
X218220244Y-99732960D01*
X218229998Y-99732000D01*
G37*
X218229998Y-99732000D02*
X218379998Y-99732000D01*
X218389754Y-99732960D01*
X218399134Y-99735805D01*
X218407778Y-99740428D01*
X218415354Y-99746646D01*
X218421572Y-99754223D01*
X218426193Y-99762866D01*
X218429037Y-99772246D01*
X218429997Y-99782000D01*
X218429997Y-100257000D01*
X218429037Y-100266754D01*
X218426193Y-100276134D01*
X218421572Y-100284778D01*
X218415354Y-100292355D01*
X218407778Y-100298573D01*
X218399134Y-100303195D01*
X218389754Y-100306040D01*
X218379998Y-100307000D01*
X218229998Y-100307000D01*
X218220244Y-100306040D01*
X218210864Y-100303195D01*
X218202220Y-100298573D01*
X218194644Y-100292355D01*
X218188426Y-100284778D01*
X218183805Y-100276134D01*
X218180961Y-100266754D01*
X218179998Y-100257000D01*
X218179998Y-99782000D01*
X218180961Y-99772246D01*
X218183805Y-99762866D01*
X218188426Y-99754223D01*
X218194644Y-99746646D01*
X218202220Y-99740428D01*
X218210864Y-99735805D01*
X218220244Y-99732960D01*
X218229998Y-99732000D01*
G36*
X217230002Y-99732000D02*
G01*
X217380002Y-99732000D01*
X217389756Y-99732960D01*
X217399136Y-99735805D01*
X217407780Y-99740428D01*
X217415356Y-99746646D01*
X217421574Y-99754223D01*
X217426195Y-99762866D01*
X217429039Y-99772246D01*
X217430002Y-99782000D01*
X217430002Y-100257000D01*
X217429039Y-100266754D01*
X217426195Y-100276134D01*
X217421574Y-100284778D01*
X217415356Y-100292355D01*
X217407780Y-100298573D01*
X217399136Y-100303195D01*
X217389756Y-100306040D01*
X217380002Y-100307000D01*
X217230002Y-100307000D01*
X217220246Y-100306040D01*
X217210866Y-100303195D01*
X217202222Y-100298573D01*
X217194646Y-100292355D01*
X217188428Y-100284778D01*
X217183807Y-100276134D01*
X217180963Y-100266754D01*
X217180003Y-100257000D01*
X217180003Y-99782000D01*
X217180963Y-99772246D01*
X217183807Y-99762866D01*
X217188428Y-99754223D01*
X217194646Y-99746646D01*
X217202222Y-99740428D01*
X217210866Y-99735805D01*
X217220246Y-99732960D01*
X217230002Y-99732000D01*
G37*
X217230002Y-99732000D02*
X217380002Y-99732000D01*
X217389756Y-99732960D01*
X217399136Y-99735805D01*
X217407780Y-99740428D01*
X217415356Y-99746646D01*
X217421574Y-99754223D01*
X217426195Y-99762866D01*
X217429039Y-99772246D01*
X217430002Y-99782000D01*
X217430002Y-100257000D01*
X217429039Y-100266754D01*
X217426195Y-100276134D01*
X217421574Y-100284778D01*
X217415356Y-100292355D01*
X217407780Y-100298573D01*
X217399136Y-100303195D01*
X217389756Y-100306040D01*
X217380002Y-100307000D01*
X217230002Y-100307000D01*
X217220246Y-100306040D01*
X217210866Y-100303195D01*
X217202222Y-100298573D01*
X217194646Y-100292355D01*
X217188428Y-100284778D01*
X217183807Y-100276134D01*
X217180963Y-100266754D01*
X217180003Y-100257000D01*
X217180003Y-99782000D01*
X217180963Y-99772246D01*
X217183807Y-99762866D01*
X217188428Y-99754223D01*
X217194646Y-99746646D01*
X217202222Y-99740428D01*
X217210866Y-99735805D01*
X217220246Y-99732960D01*
X217230002Y-99732000D01*
G36*
X217230002Y-100507000D02*
G01*
X217380002Y-100507000D01*
X217389756Y-100507960D01*
X217399136Y-100510805D01*
X217407780Y-100515428D01*
X217415356Y-100521646D01*
X217421574Y-100529222D01*
X217426195Y-100537866D01*
X217429039Y-100547246D01*
X217430002Y-100557000D01*
X217430002Y-101032000D01*
X217429039Y-101041754D01*
X217426195Y-101051134D01*
X217421574Y-101059778D01*
X217415356Y-101067354D01*
X217407780Y-101073572D01*
X217399136Y-101078195D01*
X217389756Y-101081040D01*
X217380002Y-101082000D01*
X217230002Y-101082000D01*
X217220246Y-101081040D01*
X217210866Y-101078195D01*
X217202222Y-101073572D01*
X217194646Y-101067354D01*
X217188428Y-101059778D01*
X217183807Y-101051134D01*
X217180963Y-101041754D01*
X217180003Y-101032000D01*
X217180003Y-100557000D01*
X217180963Y-100547246D01*
X217183807Y-100537866D01*
X217188428Y-100529222D01*
X217194646Y-100521646D01*
X217202222Y-100515428D01*
X217210866Y-100510805D01*
X217220246Y-100507960D01*
X217230002Y-100507000D01*
G37*
X217230002Y-100507000D02*
X217380002Y-100507000D01*
X217389756Y-100507960D01*
X217399136Y-100510805D01*
X217407780Y-100515428D01*
X217415356Y-100521646D01*
X217421574Y-100529222D01*
X217426195Y-100537866D01*
X217429039Y-100547246D01*
X217430002Y-100557000D01*
X217430002Y-101032000D01*
X217429039Y-101041754D01*
X217426195Y-101051134D01*
X217421574Y-101059778D01*
X217415356Y-101067354D01*
X217407780Y-101073572D01*
X217399136Y-101078195D01*
X217389756Y-101081040D01*
X217380002Y-101082000D01*
X217230002Y-101082000D01*
X217220246Y-101081040D01*
X217210866Y-101078195D01*
X217202222Y-101073572D01*
X217194646Y-101067354D01*
X217188428Y-101059778D01*
X217183807Y-101051134D01*
X217180963Y-101041754D01*
X217180003Y-101032000D01*
X217180003Y-100557000D01*
X217180963Y-100547246D01*
X217183807Y-100537866D01*
X217188428Y-100529222D01*
X217194646Y-100521646D01*
X217202222Y-100515428D01*
X217210866Y-100510805D01*
X217220246Y-100507960D01*
X217230002Y-100507000D01*
G36*
X218229998Y-100507000D02*
G01*
X218379998Y-100507000D01*
X218389754Y-100507960D01*
X218399134Y-100510805D01*
X218407778Y-100515428D01*
X218415354Y-100521646D01*
X218421572Y-100529222D01*
X218426193Y-100537866D01*
X218429037Y-100547246D01*
X218429997Y-100557000D01*
X218429997Y-101032000D01*
X218429037Y-101041754D01*
X218426193Y-101051134D01*
X218421572Y-101059778D01*
X218415354Y-101067354D01*
X218407778Y-101073572D01*
X218399134Y-101078195D01*
X218389754Y-101081040D01*
X218379998Y-101082000D01*
X218229998Y-101082000D01*
X218220244Y-101081040D01*
X218210864Y-101078195D01*
X218202220Y-101073572D01*
X218194644Y-101067354D01*
X218188426Y-101059778D01*
X218183805Y-101051134D01*
X218180961Y-101041754D01*
X218179998Y-101032000D01*
X218179998Y-100557000D01*
X218180961Y-100547246D01*
X218183805Y-100537866D01*
X218188426Y-100529222D01*
X218194644Y-100521646D01*
X218202220Y-100515428D01*
X218210864Y-100510805D01*
X218220244Y-100507960D01*
X218229998Y-100507000D01*
G37*
X218229998Y-100507000D02*
X218379998Y-100507000D01*
X218389754Y-100507960D01*
X218399134Y-100510805D01*
X218407778Y-100515428D01*
X218415354Y-100521646D01*
X218421572Y-100529222D01*
X218426193Y-100537866D01*
X218429037Y-100547246D01*
X218429997Y-100557000D01*
X218429997Y-101032000D01*
X218429037Y-101041754D01*
X218426193Y-101051134D01*
X218421572Y-101059778D01*
X218415354Y-101067354D01*
X218407778Y-101073572D01*
X218399134Y-101078195D01*
X218389754Y-101081040D01*
X218379998Y-101082000D01*
X218229998Y-101082000D01*
X218220244Y-101081040D01*
X218210864Y-101078195D01*
X218202220Y-101073572D01*
X218194644Y-101067354D01*
X218188426Y-101059778D01*
X218183805Y-101051134D01*
X218180961Y-101041754D01*
X218179998Y-101032000D01*
X218179998Y-100557000D01*
X218180961Y-100547246D01*
X218183805Y-100537866D01*
X218188426Y-100529222D01*
X218194644Y-100521646D01*
X218202220Y-100515428D01*
X218210864Y-100510805D01*
X218220244Y-100507960D01*
X218229998Y-100507000D01*
D11*
X247500500Y-94758500D03*
X247500500Y-100728500D03*
D12*
X242825500Y-104228500D03*
X246525500Y-104228500D03*
D13*
X236800500Y-104053500D03*
D14*
X237025500Y-92733500D03*
D15*
X236675500Y-94993500D03*
X236675500Y-96093500D03*
X236675500Y-97193500D03*
X236675500Y-98293500D03*
X236675500Y-99393500D03*
X236675500Y-100493500D03*
D16*
X236675500Y-93943500D03*
D15*
X236675500Y-101593500D03*
G36*
G01*
X222731500Y-95635500D02*
X222530500Y-95635500D01*
G75*
G02*
X222451000Y-95556000I0J79500D01*
G01*
X222451000Y-95397000D01*
G75*
G02*
X222530500Y-95317500I79500J0D01*
G01*
X222731500Y-95317500D01*
G75*
G02*
X222811000Y-95397000I0J-79500D01*
G01*
X222811000Y-95556000D01*
G75*
G02*
X222731500Y-95635500I-79500J0D01*
G01*
G37*
G36*
G01*
X222731500Y-96325500D02*
X222530500Y-96325500D01*
G75*
G02*
X222451000Y-96246000I0J79500D01*
G01*
X222451000Y-96087000D01*
G75*
G02*
X222530500Y-96007500I79500J0D01*
G01*
X222731500Y-96007500D01*
G75*
G02*
X222811000Y-96087000I0J-79500D01*
G01*
X222811000Y-96246000D01*
G75*
G02*
X222731500Y-96325500I-79500J0D01*
G01*
G37*
D17*
X224647000Y-92011500D03*
X222647000Y-92961500D03*
X222647000Y-91061500D03*
G36*
G01*
X203570000Y-82211999D02*
X203570000Y-84412001D01*
G75*
G02*
X203320001Y-84662000I-249999J0D01*
G01*
X202669999Y-84662000D01*
G75*
G02*
X202420000Y-84412001I0J249999D01*
G01*
X202420000Y-82211999D01*
G75*
G02*
X202669999Y-81962000I249999J0D01*
G01*
X203320001Y-81962000D01*
G75*
G02*
X203570000Y-82211999I0J-249999D01*
G01*
G37*
G36*
G01*
X206520000Y-82211999D02*
X206520000Y-84412001D01*
G75*
G02*
X206270001Y-84662000I-249999J0D01*
G01*
X205619999Y-84662000D01*
G75*
G02*
X205370000Y-84412001I0J249999D01*
G01*
X205370000Y-82211999D01*
G75*
G02*
X205619999Y-81962000I249999J0D01*
G01*
X206270001Y-81962000D01*
G75*
G02*
X206520000Y-82211999I0J-249999D01*
G01*
G37*
G36*
G01*
X213825001Y-97017000D02*
X211624999Y-97017000D01*
G75*
G02*
X211375000Y-96767001I0J249999D01*
G01*
X211375000Y-96116999D01*
G75*
G02*
X211624999Y-95867000I249999J0D01*
G01*
X213825001Y-95867000D01*
G75*
G02*
X214075000Y-96116999I0J-249999D01*
G01*
X214075000Y-96767001D01*
G75*
G02*
X213825001Y-97017000I-249999J0D01*
G01*
G37*
G36*
G01*
X213825001Y-99967000D02*
X211624999Y-99967000D01*
G75*
G02*
X211375000Y-99717001I0J249999D01*
G01*
X211375000Y-99066999D01*
G75*
G02*
X211624999Y-98817000I249999J0D01*
G01*
X213825001Y-98817000D01*
G75*
G02*
X214075000Y-99066999I0J-249999D01*
G01*
X214075000Y-99717001D01*
G75*
G02*
X213825001Y-99967000I-249999J0D01*
G01*
G37*
G36*
G01*
X221762200Y-72703500D02*
X221762200Y-72203500D01*
G75*
G02*
X221987200Y-71978500I225000J0D01*
G01*
X222437200Y-71978500D01*
G75*
G02*
X222662200Y-72203500I0J-225000D01*
G01*
X222662200Y-72703500D01*
G75*
G02*
X222437200Y-72928500I-225000J0D01*
G01*
X221987200Y-72928500D01*
G75*
G02*
X221762200Y-72703500I0J225000D01*
G01*
G37*
G36*
G01*
X220212200Y-72703500D02*
X220212200Y-72203500D01*
G75*
G02*
X220437200Y-71978500I225000J0D01*
G01*
X220887200Y-71978500D01*
G75*
G02*
X221112200Y-72203500I0J-225000D01*
G01*
X221112200Y-72703500D01*
G75*
G02*
X220887200Y-72928500I-225000J0D01*
G01*
X220437200Y-72928500D01*
G75*
G02*
X220212200Y-72703500I0J225000D01*
G01*
G37*
G36*
G01*
X217547000Y-57206000D02*
X217047000Y-57206000D01*
G75*
G02*
X216822000Y-56981000I0J225000D01*
G01*
X216822000Y-56531000D01*
G75*
G02*
X217047000Y-56306000I225000J0D01*
G01*
X217547000Y-56306000D01*
G75*
G02*
X217772000Y-56531000I0J-225000D01*
G01*
X217772000Y-56981000D01*
G75*
G02*
X217547000Y-57206000I-225000J0D01*
G01*
G37*
G36*
G01*
X217547000Y-58756000D02*
X217047000Y-58756000D01*
G75*
G02*
X216822000Y-58531000I0J225000D01*
G01*
X216822000Y-58081000D01*
G75*
G02*
X217047000Y-57856000I225000J0D01*
G01*
X217547000Y-57856000D01*
G75*
G02*
X217772000Y-58081000I0J-225000D01*
G01*
X217772000Y-58531000D01*
G75*
G02*
X217547000Y-58756000I-225000J0D01*
G01*
G37*
G36*
G01*
X220604200Y-80242600D02*
X220604200Y-80742600D01*
G75*
G02*
X220379200Y-80967600I-225000J0D01*
G01*
X219929200Y-80967600D01*
G75*
G02*
X219704200Y-80742600I0J225000D01*
G01*
X219704200Y-80242600D01*
G75*
G02*
X219929200Y-80017600I225000J0D01*
G01*
X220379200Y-80017600D01*
G75*
G02*
X220604200Y-80242600I0J-225000D01*
G01*
G37*
G36*
G01*
X222154200Y-80242600D02*
X222154200Y-80742600D01*
G75*
G02*
X221929200Y-80967600I-225000J0D01*
G01*
X221479200Y-80967600D01*
G75*
G02*
X221254200Y-80742600I0J225000D01*
G01*
X221254200Y-80242600D01*
G75*
G02*
X221479200Y-80017600I225000J0D01*
G01*
X221929200Y-80017600D01*
G75*
G02*
X222154200Y-80242600I0J-225000D01*
G01*
G37*
G36*
G01*
X216023000Y-61841500D02*
X215523000Y-61841500D01*
G75*
G02*
X215298000Y-61616500I0J225000D01*
G01*
X215298000Y-61166500D01*
G75*
G02*
X215523000Y-60941500I225000J0D01*
G01*
X216023000Y-60941500D01*
G75*
G02*
X216248000Y-61166500I0J-225000D01*
G01*
X216248000Y-61616500D01*
G75*
G02*
X216023000Y-61841500I-225000J0D01*
G01*
G37*
G36*
G01*
X216023000Y-63391500D02*
X215523000Y-63391500D01*
G75*
G02*
X215298000Y-63166500I0J225000D01*
G01*
X215298000Y-62716500D01*
G75*
G02*
X215523000Y-62491500I225000J0D01*
G01*
X216023000Y-62491500D01*
G75*
G02*
X216248000Y-62716500I0J-225000D01*
G01*
X216248000Y-63166500D01*
G75*
G02*
X216023000Y-63391500I-225000J0D01*
G01*
G37*
G36*
G01*
X214291999Y-79043100D02*
X216492001Y-79043100D01*
G75*
G02*
X216742000Y-79293099I0J-249999D01*
G01*
X216742000Y-79943101D01*
G75*
G02*
X216492001Y-80193100I-249999J0D01*
G01*
X214291999Y-80193100D01*
G75*
G02*
X214042000Y-79943101I0J249999D01*
G01*
X214042000Y-79293099D01*
G75*
G02*
X214291999Y-79043100I249999J0D01*
G01*
G37*
G36*
G01*
X214291999Y-76093100D02*
X216492001Y-76093100D01*
G75*
G02*
X216742000Y-76343099I0J-249999D01*
G01*
X216742000Y-76993101D01*
G75*
G02*
X216492001Y-77243100I-249999J0D01*
G01*
X214291999Y-77243100D01*
G75*
G02*
X214042000Y-76993101I0J249999D01*
G01*
X214042000Y-76343099D01*
G75*
G02*
X214291999Y-76093100I249999J0D01*
G01*
G37*
D18*
X211354500Y-88458500D03*
X210854501Y-88458500D03*
D19*
X210104500Y-88458500D03*
X210104500Y-88458500D03*
D20*
X209854500Y-87558499D03*
D21*
X210029501Y-87058500D03*
D20*
X209854500Y-86558501D03*
D19*
X210104500Y-85658500D03*
X210104500Y-85658500D03*
D18*
X210854501Y-85658500D03*
X211354500Y-85658500D03*
D22*
X211779500Y-86308502D03*
X211779500Y-86808500D03*
X211779500Y-87308502D03*
X211779500Y-87808501D03*
X219205000Y-98906500D03*
X219205000Y-99406499D03*
D23*
X219205000Y-100156500D03*
X219205000Y-100156500D03*
D24*
X218304999Y-100406500D03*
D25*
X217805000Y-100231499D03*
D24*
X217305001Y-100406500D03*
D23*
X216405000Y-100156500D03*
X216405000Y-100156500D03*
D22*
X216405000Y-99406499D03*
X216405000Y-98906500D03*
D18*
X217055002Y-98481500D03*
X217555000Y-98481500D03*
X218055002Y-98481500D03*
X218555001Y-98481500D03*
G36*
G01*
X218921500Y-95572000D02*
X218720500Y-95572000D01*
G75*
G02*
X218641000Y-95492500I0J79500D01*
G01*
X218641000Y-95333500D01*
G75*
G02*
X218720500Y-95254000I79500J0D01*
G01*
X218921500Y-95254000D01*
G75*
G02*
X219001000Y-95333500I0J-79500D01*
G01*
X219001000Y-95492500D01*
G75*
G02*
X218921500Y-95572000I-79500J0D01*
G01*
G37*
G36*
G01*
X218921500Y-96262000D02*
X218720500Y-96262000D01*
G75*
G02*
X218641000Y-96182500I0J79500D01*
G01*
X218641000Y-96023500D01*
G75*
G02*
X218720500Y-95944000I79500J0D01*
G01*
X218921500Y-95944000D01*
G75*
G02*
X219001000Y-96023500I0J-79500D01*
G01*
X219001000Y-96182500D01*
G75*
G02*
X218921500Y-96262000I-79500J0D01*
G01*
G37*
D26*
X224160000Y-101448000D03*
X224160000Y-95148000D03*
X227960000Y-101448000D03*
X227960000Y-95148000D03*
D27*
X238887000Y-70650100D03*
X240157000Y-70650100D03*
X241427000Y-70650100D03*
X241427000Y-73367900D03*
X240157000Y-73367900D03*
X238887000Y-73367900D03*
D28*
X243740001Y-79909998D03*
X246819999Y-79909998D03*
X243740001Y-79509999D03*
X246819999Y-79509999D03*
X243740001Y-79110000D03*
X246819999Y-79110000D03*
X243740001Y-78709998D03*
X246819999Y-78709998D03*
X243740001Y-78309999D03*
X246819999Y-78309999D03*
X243740001Y-77910000D03*
X246819999Y-77910000D03*
X243740001Y-77510000D03*
X246819999Y-77510000D03*
X243740001Y-77109999D03*
X246819999Y-77109999D03*
X243740001Y-76709999D03*
X246819999Y-76709999D03*
X243740001Y-76310000D03*
X246819999Y-76310000D03*
X243740001Y-75909999D03*
X246819999Y-75909999D03*
X243740001Y-75509999D03*
X246819999Y-75509999D03*
X243740001Y-75110000D03*
X246819999Y-75110000D03*
X243740001Y-74709998D03*
X246819999Y-74709998D03*
X243740001Y-74309999D03*
X246819999Y-74309999D03*
X243740001Y-73910000D03*
X246819999Y-73910000D03*
X243740001Y-73510001D03*
X246819999Y-73510001D03*
X243740001Y-73109999D03*
X246819999Y-73109999D03*
X243740001Y-72710000D03*
X246819999Y-72710000D03*
X243740001Y-72310001D03*
X246819999Y-72310001D03*
X243740001Y-71909999D03*
X246819999Y-71909999D03*
X243740001Y-71510000D03*
X246819999Y-71510000D03*
X243740001Y-71110001D03*
X246819999Y-71110001D03*
X243740001Y-70710001D03*
X246819999Y-70710001D03*
X243740001Y-70310000D03*
X246819999Y-70310000D03*
X243740001Y-69910000D03*
X246819999Y-69910000D03*
X243740001Y-69510001D03*
X246819999Y-69510001D03*
X243740001Y-69109999D03*
X246819999Y-69109999D03*
X243740001Y-68710000D03*
X246819999Y-68710000D03*
X243740001Y-68310001D03*
X246819999Y-68310001D03*
X243740001Y-67909999D03*
X246819999Y-67909999D03*
X243740001Y-67510000D03*
X246819999Y-67510000D03*
X243740001Y-67110001D03*
X246819999Y-67110001D03*
X243740001Y-66710002D03*
X246819999Y-66710002D03*
X243740001Y-66310000D03*
X246819999Y-66310000D03*
X243740001Y-65910001D03*
X246819999Y-65910001D03*
X243740001Y-65510002D03*
X246819999Y-65510002D03*
X243740001Y-65110000D03*
X246819999Y-65110000D03*
X243740001Y-64710001D03*
X246819999Y-64710001D03*
X243740001Y-64310001D03*
X246819999Y-64310001D03*
X243740001Y-63910000D03*
X246819999Y-63910000D03*
X243740001Y-63510001D03*
X246819999Y-63510001D03*
X243740001Y-63110001D03*
X246819999Y-63110001D03*
X243740001Y-62710002D03*
X246819999Y-62710002D03*
X243740001Y-62310000D03*
X246819999Y-62310000D03*
X243740001Y-61910001D03*
X246819999Y-61910001D03*
X243740001Y-61510002D03*
X246819999Y-61510002D03*
X243740001Y-61110000D03*
X246819999Y-61110000D03*
X243740001Y-60710001D03*
X246819999Y-60710001D03*
X243740001Y-60310002D03*
X246819999Y-60310002D03*
D29*
X219950002Y-50590001D03*
X219950002Y-53669999D03*
X220350001Y-50590001D03*
X220350001Y-53669999D03*
X220750000Y-50590001D03*
X220750000Y-53669999D03*
X221150002Y-50590001D03*
X221150002Y-53669999D03*
X221550001Y-50590001D03*
X221550001Y-53669999D03*
X221950000Y-50590001D03*
X221950000Y-53669999D03*
X222350000Y-50590001D03*
X222350000Y-53669999D03*
X222750001Y-50590001D03*
X222750001Y-53669999D03*
X223150001Y-50590001D03*
X223150001Y-53669999D03*
X223550000Y-50590001D03*
X223550000Y-53669999D03*
X223950001Y-50590001D03*
X223950001Y-53669999D03*
X224350001Y-50590001D03*
X224350001Y-53669999D03*
X224750000Y-50590001D03*
X224750000Y-53669999D03*
X225150002Y-50590001D03*
X225150002Y-53669999D03*
X225550001Y-50590001D03*
X225550001Y-53669999D03*
X225950000Y-50590001D03*
X225950000Y-53669999D03*
X226349999Y-50590001D03*
X226349999Y-53669999D03*
X226750001Y-50590001D03*
X226750001Y-53669999D03*
X227150000Y-50590001D03*
X227150000Y-53669999D03*
X227549999Y-50590001D03*
X227549999Y-53669999D03*
X227950001Y-50590001D03*
X227950001Y-53669999D03*
X228350000Y-50590001D03*
X228350000Y-53669999D03*
X228749999Y-50590001D03*
X228749999Y-53669999D03*
X229149999Y-50590001D03*
X229149999Y-53669999D03*
X229550000Y-50590001D03*
X229550000Y-53669999D03*
X229950000Y-50590001D03*
X229950000Y-53669999D03*
X230349999Y-50590001D03*
X230349999Y-53669999D03*
X230750001Y-50590001D03*
X230750001Y-53669999D03*
X231150000Y-50590001D03*
X231150000Y-53669999D03*
X231549999Y-50590001D03*
X231549999Y-53669999D03*
X231950001Y-50590001D03*
X231950001Y-53669999D03*
X232350000Y-50590001D03*
X232350000Y-53669999D03*
X232749999Y-50590001D03*
X232749999Y-53669999D03*
X233149998Y-50590001D03*
X233149998Y-53669999D03*
X233550000Y-50590001D03*
X233550000Y-53669999D03*
X233949999Y-50590001D03*
X233949999Y-53669999D03*
X234349998Y-50590001D03*
X234349998Y-53669999D03*
X234750000Y-50590001D03*
X234750000Y-53669999D03*
X235149999Y-50590001D03*
X235149999Y-53669999D03*
X235549999Y-50590001D03*
X235549999Y-53669999D03*
X235950000Y-50590001D03*
X235950000Y-53669999D03*
X236349999Y-50590001D03*
X236349999Y-53669999D03*
X236749999Y-50590001D03*
X236749999Y-53669999D03*
X237149998Y-50590001D03*
X237149998Y-53669999D03*
X237550000Y-50590001D03*
X237550000Y-53669999D03*
X237949999Y-50590001D03*
X237949999Y-53669999D03*
X238349998Y-50590001D03*
X238349998Y-53669999D03*
X238750000Y-50590001D03*
X238750000Y-53669999D03*
X239149999Y-50590001D03*
X239149999Y-53669999D03*
X239549998Y-50590001D03*
X239549998Y-53669999D03*
D28*
X205440001Y-79909998D03*
X208519999Y-79909998D03*
X205440001Y-79509999D03*
X208519999Y-79509999D03*
X205440001Y-79110000D03*
X208519999Y-79110000D03*
X205440001Y-78709998D03*
X208519999Y-78709998D03*
X205440001Y-78309999D03*
X208519999Y-78309999D03*
X205440001Y-77910000D03*
X208519999Y-77910000D03*
X205440001Y-77510000D03*
X208519999Y-77510000D03*
X205440001Y-77109999D03*
X208519999Y-77109999D03*
X205440001Y-76709999D03*
X208519999Y-76709999D03*
X205440001Y-76310000D03*
X208519999Y-76310000D03*
X205440001Y-75909999D03*
X208519999Y-75909999D03*
X205440001Y-75509999D03*
X208519999Y-75509999D03*
X205440001Y-75110000D03*
X208519999Y-75110000D03*
X205440001Y-74709998D03*
X208519999Y-74709998D03*
X205440001Y-74309999D03*
X208519999Y-74309999D03*
X205440001Y-73910000D03*
X208519999Y-73910000D03*
X205440001Y-73510001D03*
X208519999Y-73510001D03*
X205440001Y-73109999D03*
X208519999Y-73109999D03*
X205440001Y-72710000D03*
X208519999Y-72710000D03*
X205440001Y-72310001D03*
X208519999Y-72310001D03*
X205440001Y-71909999D03*
X208519999Y-71909999D03*
X205440001Y-71510000D03*
X208519999Y-71510000D03*
X205440001Y-71110001D03*
X208519999Y-71110001D03*
X205440001Y-70710001D03*
X208519999Y-70710001D03*
X205440001Y-70310000D03*
X208519999Y-70310000D03*
X205440001Y-69910000D03*
X208519999Y-69910000D03*
X205440001Y-69510001D03*
X208519999Y-69510001D03*
X205440001Y-69109999D03*
X208519999Y-69109999D03*
X205440001Y-68710000D03*
X208519999Y-68710000D03*
X205440001Y-68310001D03*
X208519999Y-68310001D03*
X205440001Y-67909999D03*
X208519999Y-67909999D03*
X205440001Y-67510000D03*
X208519999Y-67510000D03*
X205440001Y-67110001D03*
X208519999Y-67110001D03*
X205440001Y-66710002D03*
X208519999Y-66710002D03*
X205440001Y-66310000D03*
X208519999Y-66310000D03*
X205440001Y-65910001D03*
X208519999Y-65910001D03*
X205440001Y-65510002D03*
X208519999Y-65510002D03*
X205440001Y-65110000D03*
X208519999Y-65110000D03*
X205440001Y-64710001D03*
X208519999Y-64710001D03*
X205440001Y-64310001D03*
X208519999Y-64310001D03*
X205440001Y-63910000D03*
X208519999Y-63910000D03*
X205440001Y-63510001D03*
X208519999Y-63510001D03*
X205440001Y-63110001D03*
X208519999Y-63110001D03*
X205440001Y-62710002D03*
X208519999Y-62710002D03*
X205440001Y-62310000D03*
X208519999Y-62310000D03*
X205440001Y-61910001D03*
X208519999Y-61910001D03*
X205440001Y-61510002D03*
X208519999Y-61510002D03*
X205440001Y-61110000D03*
X208519999Y-61110000D03*
X205440001Y-60710001D03*
X208519999Y-60710001D03*
X205440001Y-60310002D03*
X208519999Y-60310002D03*
G36*
G01*
X245916000Y-107463000D02*
X245916000Y-106913000D01*
G75*
G02*
X246116000Y-106713000I200000J0D01*
G01*
X246516000Y-106713000D01*
G75*
G02*
X246716000Y-106913000I0J-200000D01*
G01*
X246716000Y-107463000D01*
G75*
G02*
X246516000Y-107663000I-200000J0D01*
G01*
X246116000Y-107663000D01*
G75*
G02*
X245916000Y-107463000I0J200000D01*
G01*
G37*
G36*
G01*
X244266000Y-107463000D02*
X244266000Y-106913000D01*
G75*
G02*
X244466000Y-106713000I200000J0D01*
G01*
X244866000Y-106713000D01*
G75*
G02*
X245066000Y-106913000I0J-200000D01*
G01*
X245066000Y-107463000D01*
G75*
G02*
X244866000Y-107663000I-200000J0D01*
G01*
X244466000Y-107663000D01*
G75*
G02*
X244266000Y-107463000I0J200000D01*
G01*
G37*
G36*
G01*
X204674500Y-104082000D02*
X204674500Y-104452000D01*
G75*
G02*
X204539500Y-104587000I-135000J0D01*
G01*
X204269500Y-104587000D01*
G75*
G02*
X204134500Y-104452000I0J135000D01*
G01*
X204134500Y-104082000D01*
G75*
G02*
X204269500Y-103947000I135000J0D01*
G01*
X204539500Y-103947000D01*
G75*
G02*
X204674500Y-104082000I0J-135000D01*
G01*
G37*
G36*
G01*
X205694500Y-104082000D02*
X205694500Y-104452000D01*
G75*
G02*
X205559500Y-104587000I-135000J0D01*
G01*
X205289500Y-104587000D01*
G75*
G02*
X205154500Y-104452000I0J135000D01*
G01*
X205154500Y-104082000D01*
G75*
G02*
X205289500Y-103947000I135000J0D01*
G01*
X205559500Y-103947000D01*
G75*
G02*
X205694500Y-104082000I0J-135000D01*
G01*
G37*
G36*
G01*
X207735000Y-106104000D02*
X207936000Y-106104000D01*
G75*
G02*
X208015500Y-106183500I0J-79500D01*
G01*
X208015500Y-106342500D01*
G75*
G02*
X207936000Y-106422000I-79500J0D01*
G01*
X207735000Y-106422000D01*
G75*
G02*
X207655500Y-106342500I0J79500D01*
G01*
X207655500Y-106183500D01*
G75*
G02*
X207735000Y-106104000I79500J0D01*
G01*
G37*
G36*
G01*
X207735000Y-105414000D02*
X207936000Y-105414000D01*
G75*
G02*
X208015500Y-105493500I0J-79500D01*
G01*
X208015500Y-105652500D01*
G75*
G02*
X207936000Y-105732000I-79500J0D01*
G01*
X207735000Y-105732000D01*
G75*
G02*
X207655500Y-105652500I0J79500D01*
G01*
X207655500Y-105493500D01*
G75*
G02*
X207735000Y-105414000I79500J0D01*
G01*
G37*
D30*
X205676500Y-105553000D03*
X206626500Y-107553000D03*
X204726500Y-107553000D03*
G36*
G01*
X239390500Y-74840000D02*
X239390500Y-74639000D01*
G75*
G02*
X239470000Y-74559500I79500J0D01*
G01*
X239629000Y-74559500D01*
G75*
G02*
X239708500Y-74639000I0J-79500D01*
G01*
X239708500Y-74840000D01*
G75*
G02*
X239629000Y-74919500I-79500J0D01*
G01*
X239470000Y-74919500D01*
G75*
G02*
X239390500Y-74840000I0J79500D01*
G01*
G37*
G36*
G01*
X238700500Y-74840000D02*
X238700500Y-74639000D01*
G75*
G02*
X238780000Y-74559500I79500J0D01*
G01*
X238939000Y-74559500D01*
G75*
G02*
X239018500Y-74639000I0J-79500D01*
G01*
X239018500Y-74840000D01*
G75*
G02*
X238939000Y-74919500I-79500J0D01*
G01*
X238780000Y-74919500D01*
G75*
G02*
X238700500Y-74840000I0J79500D01*
G01*
G37*
G36*
G01*
X222167000Y-105367500D02*
X222167000Y-104817500D01*
G75*
G02*
X222367000Y-104617500I200000J0D01*
G01*
X222767000Y-104617500D01*
G75*
G02*
X222967000Y-104817500I0J-200000D01*
G01*
X222967000Y-105367500D01*
G75*
G02*
X222767000Y-105567500I-200000J0D01*
G01*
X222367000Y-105567500D01*
G75*
G02*
X222167000Y-105367500I0J200000D01*
G01*
G37*
G36*
G01*
X220517000Y-105367500D02*
X220517000Y-104817500D01*
G75*
G02*
X220717000Y-104617500I200000J0D01*
G01*
X221117000Y-104617500D01*
G75*
G02*
X221317000Y-104817500I0J-200000D01*
G01*
X221317000Y-105367500D01*
G75*
G02*
X221117000Y-105567500I-200000J0D01*
G01*
X220717000Y-105567500D01*
G75*
G02*
X220517000Y-105367500I0J200000D01*
G01*
G37*
G36*
G01*
X245152500Y-83673500D02*
X245702500Y-83673500D01*
G75*
G02*
X245902500Y-83873500I0J-200000D01*
G01*
X245902500Y-84273500D01*
G75*
G02*
X245702500Y-84473500I-200000J0D01*
G01*
X245152500Y-84473500D01*
G75*
G02*
X244952500Y-84273500I0J200000D01*
G01*
X244952500Y-83873500D01*
G75*
G02*
X245152500Y-83673500I200000J0D01*
G01*
G37*
G36*
G01*
X245152500Y-82023500D02*
X245702500Y-82023500D01*
G75*
G02*
X245902500Y-82223500I0J-200000D01*
G01*
X245902500Y-82623500D01*
G75*
G02*
X245702500Y-82823500I-200000J0D01*
G01*
X245152500Y-82823500D01*
G75*
G02*
X244952500Y-82623500I0J200000D01*
G01*
X244952500Y-82223500D01*
G75*
G02*
X245152500Y-82023500I200000J0D01*
G01*
G37*
G36*
G01*
X243628500Y-83673500D02*
X244178500Y-83673500D01*
G75*
G02*
X244378500Y-83873500I0J-200000D01*
G01*
X244378500Y-84273500D01*
G75*
G02*
X244178500Y-84473500I-200000J0D01*
G01*
X243628500Y-84473500D01*
G75*
G02*
X243428500Y-84273500I0J200000D01*
G01*
X243428500Y-83873500D01*
G75*
G02*
X243628500Y-83673500I200000J0D01*
G01*
G37*
G36*
G01*
X243628500Y-82023500D02*
X244178500Y-82023500D01*
G75*
G02*
X244378500Y-82223500I0J-200000D01*
G01*
X244378500Y-82623500D01*
G75*
G02*
X244178500Y-82823500I-200000J0D01*
G01*
X243628500Y-82823500D01*
G75*
G02*
X243428500Y-82623500I0J200000D01*
G01*
X243428500Y-82223500D01*
G75*
G02*
X243628500Y-82023500I200000J0D01*
G01*
G37*
G36*
G01*
X223864000Y-105215000D02*
X224065000Y-105215000D01*
G75*
G02*
X224144500Y-105294500I0J-79500D01*
G01*
X224144500Y-105453500D01*
G75*
G02*
X224065000Y-105533000I-79500J0D01*
G01*
X223864000Y-105533000D01*
G75*
G02*
X223784500Y-105453500I0J79500D01*
G01*
X223784500Y-105294500D01*
G75*
G02*
X223864000Y-105215000I79500J0D01*
G01*
G37*
G36*
G01*
X223864000Y-104525000D02*
X224065000Y-104525000D01*
G75*
G02*
X224144500Y-104604500I0J-79500D01*
G01*
X224144500Y-104763500D01*
G75*
G02*
X224065000Y-104843000I-79500J0D01*
G01*
X223864000Y-104843000D01*
G75*
G02*
X223784500Y-104763500I0J79500D01*
G01*
X223784500Y-104604500D01*
G75*
G02*
X223864000Y-104525000I79500J0D01*
G01*
G37*
G36*
G01*
X214039000Y-86127000D02*
X214039000Y-85577000D01*
G75*
G02*
X214239000Y-85377000I200000J0D01*
G01*
X214639000Y-85377000D01*
G75*
G02*
X214839000Y-85577000I0J-200000D01*
G01*
X214839000Y-86127000D01*
G75*
G02*
X214639000Y-86327000I-200000J0D01*
G01*
X214239000Y-86327000D01*
G75*
G02*
X214039000Y-86127000I0J200000D01*
G01*
G37*
G36*
G01*
X212389000Y-86127000D02*
X212389000Y-85577000D01*
G75*
G02*
X212589000Y-85377000I200000J0D01*
G01*
X212989000Y-85377000D01*
G75*
G02*
X213189000Y-85577000I0J-200000D01*
G01*
X213189000Y-86127000D01*
G75*
G02*
X212989000Y-86327000I-200000J0D01*
G01*
X212589000Y-86327000D01*
G75*
G02*
X212389000Y-86127000I0J200000D01*
G01*
G37*
G36*
G01*
X210927500Y-84666500D02*
X210927500Y-84116500D01*
G75*
G02*
X211127500Y-83916500I200000J0D01*
G01*
X211527500Y-83916500D01*
G75*
G02*
X211727500Y-84116500I0J-200000D01*
G01*
X211727500Y-84666500D01*
G75*
G02*
X211527500Y-84866500I-200000J0D01*
G01*
X211127500Y-84866500D01*
G75*
G02*
X210927500Y-84666500I0J200000D01*
G01*
G37*
G36*
G01*
X209277500Y-84666500D02*
X209277500Y-84116500D01*
G75*
G02*
X209477500Y-83916500I200000J0D01*
G01*
X209877500Y-83916500D01*
G75*
G02*
X210077500Y-84116500I0J-200000D01*
G01*
X210077500Y-84666500D01*
G75*
G02*
X209877500Y-84866500I-200000J0D01*
G01*
X209477500Y-84866500D01*
G75*
G02*
X209277500Y-84666500I0J200000D01*
G01*
G37*
G36*
G01*
X213038000Y-88556000D02*
X213038000Y-88355000D01*
G75*
G02*
X213117500Y-88275500I79500J0D01*
G01*
X213276500Y-88275500D01*
G75*
G02*
X213356000Y-88355000I0J-79500D01*
G01*
X213356000Y-88556000D01*
G75*
G02*
X213276500Y-88635500I-79500J0D01*
G01*
X213117500Y-88635500D01*
G75*
G02*
X213038000Y-88556000I0J79500D01*
G01*
G37*
G36*
G01*
X212348000Y-88556000D02*
X212348000Y-88355000D01*
G75*
G02*
X212427500Y-88275500I79500J0D01*
G01*
X212586500Y-88275500D01*
G75*
G02*
X212666000Y-88355000I0J-79500D01*
G01*
X212666000Y-88556000D01*
G75*
G02*
X212586500Y-88635500I-79500J0D01*
G01*
X212427500Y-88635500D01*
G75*
G02*
X212348000Y-88556000I0J79500D01*
G01*
G37*
G36*
G01*
X215730500Y-95015500D02*
X215180500Y-95015500D01*
G75*
G02*
X214980500Y-94815500I0J200000D01*
G01*
X214980500Y-94415500D01*
G75*
G02*
X215180500Y-94215500I200000J0D01*
G01*
X215730500Y-94215500D01*
G75*
G02*
X215930500Y-94415500I0J-200000D01*
G01*
X215930500Y-94815500D01*
G75*
G02*
X215730500Y-95015500I-200000J0D01*
G01*
G37*
G36*
G01*
X215730500Y-96665500D02*
X215180500Y-96665500D01*
G75*
G02*
X214980500Y-96465500I0J200000D01*
G01*
X214980500Y-96065500D01*
G75*
G02*
X215180500Y-95865500I200000J0D01*
G01*
X215730500Y-95865500D01*
G75*
G02*
X215930500Y-96065500I0J-200000D01*
G01*
X215930500Y-96465500D01*
G75*
G02*
X215730500Y-96665500I-200000J0D01*
G01*
G37*
G36*
G01*
X215413000Y-98063500D02*
X214863000Y-98063500D01*
G75*
G02*
X214663000Y-97863500I0J200000D01*
G01*
X214663000Y-97463500D01*
G75*
G02*
X214863000Y-97263500I200000J0D01*
G01*
X215413000Y-97263500D01*
G75*
G02*
X215613000Y-97463500I0J-200000D01*
G01*
X215613000Y-97863500D01*
G75*
G02*
X215413000Y-98063500I-200000J0D01*
G01*
G37*
G36*
G01*
X215413000Y-99713500D02*
X214863000Y-99713500D01*
G75*
G02*
X214663000Y-99513500I0J200000D01*
G01*
X214663000Y-99113500D01*
G75*
G02*
X214863000Y-98913500I200000J0D01*
G01*
X215413000Y-98913500D01*
G75*
G02*
X215613000Y-99113500I0J-200000D01*
G01*
X215613000Y-99513500D01*
G75*
G02*
X215413000Y-99713500I-200000J0D01*
G01*
G37*
G36*
G01*
X219261000Y-97763500D02*
X219261000Y-97562500D01*
G75*
G02*
X219340500Y-97483000I79500J0D01*
G01*
X219499500Y-97483000D01*
G75*
G02*
X219579000Y-97562500I0J-79500D01*
G01*
X219579000Y-97763500D01*
G75*
G02*
X219499500Y-97843000I-79500J0D01*
G01*
X219340500Y-97843000D01*
G75*
G02*
X219261000Y-97763500I0J79500D01*
G01*
G37*
G36*
G01*
X218571000Y-97763500D02*
X218571000Y-97562500D01*
G75*
G02*
X218650500Y-97483000I79500J0D01*
G01*
X218809500Y-97483000D01*
G75*
G02*
X218889000Y-97562500I0J-79500D01*
G01*
X218889000Y-97763500D01*
G75*
G02*
X218809500Y-97843000I-79500J0D01*
G01*
X218650500Y-97843000D01*
G75*
G02*
X218571000Y-97763500I0J79500D01*
G01*
G37*
G36*
G01*
X221556000Y-81560500D02*
X221556000Y-81761500D01*
G75*
G02*
X221476500Y-81841000I-79500J0D01*
G01*
X221317500Y-81841000D01*
G75*
G02*
X221238000Y-81761500I0J79500D01*
G01*
X221238000Y-81560500D01*
G75*
G02*
X221317500Y-81481000I79500J0D01*
G01*
X221476500Y-81481000D01*
G75*
G02*
X221556000Y-81560500I0J-79500D01*
G01*
G37*
G36*
G01*
X222246000Y-81560500D02*
X222246000Y-81761500D01*
G75*
G02*
X222166500Y-81841000I-79500J0D01*
G01*
X222007500Y-81841000D01*
G75*
G02*
X221928000Y-81761500I0J79500D01*
G01*
X221928000Y-81560500D01*
G75*
G02*
X222007500Y-81481000I79500J0D01*
G01*
X222166500Y-81481000D01*
G75*
G02*
X222246000Y-81560500I0J-79500D01*
G01*
G37*
D17*
X225123500Y-104457500D03*
X227123500Y-103507500D03*
X227123500Y-105407500D03*
D30*
X227203000Y-91075000D03*
X228153000Y-93075000D03*
X226253000Y-93075000D03*
D31*
X206565500Y-86064000D03*
X206565500Y-88434000D03*
D32*
X216683500Y-103568500D03*
X219053500Y-103568500D03*
G36*
G01*
X240034500Y-69178000D02*
X240034500Y-69379000D01*
G75*
G02*
X239955000Y-69458500I-79500J0D01*
G01*
X239796000Y-69458500D01*
G75*
G02*
X239716500Y-69379000I0J79500D01*
G01*
X239716500Y-69178000D01*
G75*
G02*
X239796000Y-69098500I79500J0D01*
G01*
X239955000Y-69098500D01*
G75*
G02*
X240034500Y-69178000I0J-79500D01*
G01*
G37*
G36*
G01*
X240724500Y-69178000D02*
X240724500Y-69379000D01*
G75*
G02*
X240645000Y-69458500I-79500J0D01*
G01*
X240486000Y-69458500D01*
G75*
G02*
X240406500Y-69379000I0J79500D01*
G01*
X240406500Y-69178000D01*
G75*
G02*
X240486000Y-69098500I79500J0D01*
G01*
X240645000Y-69098500D01*
G75*
G02*
X240724500Y-69178000I0J-79500D01*
G01*
G37*
G36*
G01*
X209494000Y-82736500D02*
X209494000Y-82236500D01*
G75*
G02*
X209719000Y-82011500I225000J0D01*
G01*
X210169000Y-82011500D01*
G75*
G02*
X210394000Y-82236500I0J-225000D01*
G01*
X210394000Y-82736500D01*
G75*
G02*
X210169000Y-82961500I-225000J0D01*
G01*
X209719000Y-82961500D01*
G75*
G02*
X209494000Y-82736500I0J225000D01*
G01*
G37*
G36*
G01*
X207944000Y-82736500D02*
X207944000Y-82236500D01*
G75*
G02*
X208169000Y-82011500I225000J0D01*
G01*
X208619000Y-82011500D01*
G75*
G02*
X208844000Y-82236500I0J-225000D01*
G01*
X208844000Y-82736500D01*
G75*
G02*
X208619000Y-82961500I-225000J0D01*
G01*
X208169000Y-82961500D01*
G75*
G02*
X207944000Y-82736500I0J225000D01*
G01*
G37*
G36*
G01*
X213165000Y-87095500D02*
X213165000Y-86894500D01*
G75*
G02*
X213244500Y-86815000I79500J0D01*
G01*
X213403500Y-86815000D01*
G75*
G02*
X213483000Y-86894500I0J-79500D01*
G01*
X213483000Y-87095500D01*
G75*
G02*
X213403500Y-87175000I-79500J0D01*
G01*
X213244500Y-87175000D01*
G75*
G02*
X213165000Y-87095500I0J79500D01*
G01*
G37*
G36*
G01*
X212475000Y-87095500D02*
X212475000Y-86894500D01*
G75*
G02*
X212554500Y-86815000I79500J0D01*
G01*
X212713500Y-86815000D01*
G75*
G02*
X212793000Y-86894500I0J-79500D01*
G01*
X212793000Y-87095500D01*
G75*
G02*
X212713500Y-87175000I-79500J0D01*
G01*
X212554500Y-87175000D01*
G75*
G02*
X212475000Y-87095500I0J79500D01*
G01*
G37*
G36*
G01*
X209491000Y-89307500D02*
X209491000Y-89508500D01*
G75*
G02*
X209411500Y-89588000I-79500J0D01*
G01*
X209252500Y-89588000D01*
G75*
G02*
X209173000Y-89508500I0J79500D01*
G01*
X209173000Y-89307500D01*
G75*
G02*
X209252500Y-89228000I79500J0D01*
G01*
X209411500Y-89228000D01*
G75*
G02*
X209491000Y-89307500I0J-79500D01*
G01*
G37*
G36*
G01*
X210181000Y-89307500D02*
X210181000Y-89508500D01*
G75*
G02*
X210101500Y-89588000I-79500J0D01*
G01*
X209942500Y-89588000D01*
G75*
G02*
X209863000Y-89508500I0J79500D01*
G01*
X209863000Y-89307500D01*
G75*
G02*
X209942500Y-89228000I79500J0D01*
G01*
X210101500Y-89228000D01*
G75*
G02*
X210181000Y-89307500I0J-79500D01*
G01*
G37*
G36*
G01*
X208780500Y-90301000D02*
X208780500Y-90801000D01*
G75*
G02*
X208555500Y-91026000I-225000J0D01*
G01*
X208105500Y-91026000D01*
G75*
G02*
X207880500Y-90801000I0J225000D01*
G01*
X207880500Y-90301000D01*
G75*
G02*
X208105500Y-90076000I225000J0D01*
G01*
X208555500Y-90076000D01*
G75*
G02*
X208780500Y-90301000I0J-225000D01*
G01*
G37*
G36*
G01*
X210330500Y-90301000D02*
X210330500Y-90801000D01*
G75*
G02*
X210105500Y-91026000I-225000J0D01*
G01*
X209655500Y-91026000D01*
G75*
G02*
X209430500Y-90801000I0J225000D01*
G01*
X209430500Y-90301000D01*
G75*
G02*
X209655500Y-90076000I225000J0D01*
G01*
X210105500Y-90076000D01*
G75*
G02*
X210330500Y-90301000I0J-225000D01*
G01*
G37*
G36*
G01*
X208780500Y-91825000D02*
X208780500Y-92325000D01*
G75*
G02*
X208555500Y-92550000I-225000J0D01*
G01*
X208105500Y-92550000D01*
G75*
G02*
X207880500Y-92325000I0J225000D01*
G01*
X207880500Y-91825000D01*
G75*
G02*
X208105500Y-91600000I225000J0D01*
G01*
X208555500Y-91600000D01*
G75*
G02*
X208780500Y-91825000I0J-225000D01*
G01*
G37*
G36*
G01*
X210330500Y-91825000D02*
X210330500Y-92325000D01*
G75*
G02*
X210105500Y-92550000I-225000J0D01*
G01*
X209655500Y-92550000D01*
G75*
G02*
X209430500Y-92325000I0J225000D01*
G01*
X209430500Y-91825000D01*
G75*
G02*
X209655500Y-91600000I225000J0D01*
G01*
X210105500Y-91600000D01*
G75*
G02*
X210330500Y-91825000I0J-225000D01*
G01*
G37*
G36*
G01*
X211701500Y-103890000D02*
X211701500Y-104390000D01*
G75*
G02*
X211476500Y-104615000I-225000J0D01*
G01*
X211026500Y-104615000D01*
G75*
G02*
X210801500Y-104390000I0J225000D01*
G01*
X210801500Y-103890000D01*
G75*
G02*
X211026500Y-103665000I225000J0D01*
G01*
X211476500Y-103665000D01*
G75*
G02*
X211701500Y-103890000I0J-225000D01*
G01*
G37*
G36*
G01*
X213251500Y-103890000D02*
X213251500Y-104390000D01*
G75*
G02*
X213026500Y-104615000I-225000J0D01*
G01*
X212576500Y-104615000D01*
G75*
G02*
X212351500Y-104390000I0J225000D01*
G01*
X212351500Y-103890000D01*
G75*
G02*
X212576500Y-103665000I225000J0D01*
G01*
X213026500Y-103665000D01*
G75*
G02*
X213251500Y-103890000I0J-225000D01*
G01*
G37*
G36*
G01*
X211701500Y-100842000D02*
X211701500Y-101342000D01*
G75*
G02*
X211476500Y-101567000I-225000J0D01*
G01*
X211026500Y-101567000D01*
G75*
G02*
X210801500Y-101342000I0J225000D01*
G01*
X210801500Y-100842000D01*
G75*
G02*
X211026500Y-100617000I225000J0D01*
G01*
X211476500Y-100617000D01*
G75*
G02*
X211701500Y-100842000I0J-225000D01*
G01*
G37*
G36*
G01*
X213251500Y-100842000D02*
X213251500Y-101342000D01*
G75*
G02*
X213026500Y-101567000I-225000J0D01*
G01*
X212576500Y-101567000D01*
G75*
G02*
X212351500Y-101342000I0J225000D01*
G01*
X212351500Y-100842000D01*
G75*
G02*
X212576500Y-100617000I225000J0D01*
G01*
X213026500Y-100617000D01*
G75*
G02*
X213251500Y-100842000I0J-225000D01*
G01*
G37*
G36*
G01*
X217651500Y-97032500D02*
X217450500Y-97032500D01*
G75*
G02*
X217371000Y-96953000I0J79500D01*
G01*
X217371000Y-96794000D01*
G75*
G02*
X217450500Y-96714500I79500J0D01*
G01*
X217651500Y-96714500D01*
G75*
G02*
X217731000Y-96794000I0J-79500D01*
G01*
X217731000Y-96953000D01*
G75*
G02*
X217651500Y-97032500I-79500J0D01*
G01*
G37*
G36*
G01*
X217651500Y-97722500D02*
X217450500Y-97722500D01*
G75*
G02*
X217371000Y-97643000I0J79500D01*
G01*
X217371000Y-97484000D01*
G75*
G02*
X217450500Y-97404500I79500J0D01*
G01*
X217651500Y-97404500D01*
G75*
G02*
X217731000Y-97484000I0J-79500D01*
G01*
X217731000Y-97643000D01*
G75*
G02*
X217651500Y-97722500I-79500J0D01*
G01*
G37*
G36*
G01*
X222213000Y-101722500D02*
X222414000Y-101722500D01*
G75*
G02*
X222493500Y-101802000I0J-79500D01*
G01*
X222493500Y-101961000D01*
G75*
G02*
X222414000Y-102040500I-79500J0D01*
G01*
X222213000Y-102040500D01*
G75*
G02*
X222133500Y-101961000I0J79500D01*
G01*
X222133500Y-101802000D01*
G75*
G02*
X222213000Y-101722500I79500J0D01*
G01*
G37*
G36*
G01*
X222213000Y-101032500D02*
X222414000Y-101032500D01*
G75*
G02*
X222493500Y-101112000I0J-79500D01*
G01*
X222493500Y-101271000D01*
G75*
G02*
X222414000Y-101350500I-79500J0D01*
G01*
X222213000Y-101350500D01*
G75*
G02*
X222133500Y-101271000I0J79500D01*
G01*
X222133500Y-101112000D01*
G75*
G02*
X222213000Y-101032500I79500J0D01*
G01*
G37*
G36*
G01*
X220849000Y-96195000D02*
X220349000Y-96195000D01*
G75*
G02*
X220124000Y-95970000I0J225000D01*
G01*
X220124000Y-95520000D01*
G75*
G02*
X220349000Y-95295000I225000J0D01*
G01*
X220849000Y-95295000D01*
G75*
G02*
X221074000Y-95520000I0J-225000D01*
G01*
X221074000Y-95970000D01*
G75*
G02*
X220849000Y-96195000I-225000J0D01*
G01*
G37*
G36*
G01*
X220849000Y-97745000D02*
X220349000Y-97745000D01*
G75*
G02*
X220124000Y-97520000I0J225000D01*
G01*
X220124000Y-97070000D01*
G75*
G02*
X220349000Y-96845000I225000J0D01*
G01*
X220849000Y-96845000D01*
G75*
G02*
X221074000Y-97070000I0J-225000D01*
G01*
X221074000Y-97520000D01*
G75*
G02*
X220849000Y-97745000I-225000J0D01*
G01*
G37*
G36*
G01*
X220857000Y-102623500D02*
X221357000Y-102623500D01*
G75*
G02*
X221582000Y-102848500I0J-225000D01*
G01*
X221582000Y-103298500D01*
G75*
G02*
X221357000Y-103523500I-225000J0D01*
G01*
X220857000Y-103523500D01*
G75*
G02*
X220632000Y-103298500I0J225000D01*
G01*
X220632000Y-102848500D01*
G75*
G02*
X220857000Y-102623500I225000J0D01*
G01*
G37*
G36*
G01*
X220857000Y-101073500D02*
X221357000Y-101073500D01*
G75*
G02*
X221582000Y-101298500I0J-225000D01*
G01*
X221582000Y-101748500D01*
G75*
G02*
X221357000Y-101973500I-225000J0D01*
G01*
X220857000Y-101973500D01*
G75*
G02*
X220632000Y-101748500I0J225000D01*
G01*
X220632000Y-101298500D01*
G75*
G02*
X220857000Y-101073500I225000J0D01*
G01*
G37*
G36*
G01*
X204855500Y-38888500D02*
X204855500Y-39089500D01*
G75*
G02*
X204776000Y-39169000I-79500J0D01*
G01*
X204617000Y-39169000D01*
G75*
G02*
X204537500Y-39089500I0J79500D01*
G01*
X204537500Y-38888500D01*
G75*
G02*
X204617000Y-38809000I79500J0D01*
G01*
X204776000Y-38809000D01*
G75*
G02*
X204855500Y-38888500I0J-79500D01*
G01*
G37*
G36*
G01*
X205545500Y-38888500D02*
X205545500Y-39089500D01*
G75*
G02*
X205466000Y-39169000I-79500J0D01*
G01*
X205307000Y-39169000D01*
G75*
G02*
X205227500Y-39089500I0J79500D01*
G01*
X205227500Y-38888500D01*
G75*
G02*
X205307000Y-38809000I79500J0D01*
G01*
X205466000Y-38809000D01*
G75*
G02*
X205545500Y-38888500I0J-79500D01*
G01*
G37*
G36*
G01*
X211323500Y-89508500D02*
X211323500Y-89307500D01*
G75*
G02*
X211403000Y-89228000I79500J0D01*
G01*
X211562000Y-89228000D01*
G75*
G02*
X211641500Y-89307500I0J-79500D01*
G01*
X211641500Y-89508500D01*
G75*
G02*
X211562000Y-89588000I-79500J0D01*
G01*
X211403000Y-89588000D01*
G75*
G02*
X211323500Y-89508500I0J79500D01*
G01*
G37*
G36*
G01*
X210633500Y-89508500D02*
X210633500Y-89307500D01*
G75*
G02*
X210713000Y-89228000I79500J0D01*
G01*
X210872000Y-89228000D01*
G75*
G02*
X210951500Y-89307500I0J-79500D01*
G01*
X210951500Y-89508500D01*
G75*
G02*
X210872000Y-89588000I-79500J0D01*
G01*
X210713000Y-89588000D01*
G75*
G02*
X210633500Y-89508500I0J79500D01*
G01*
G37*
G36*
G01*
X222815700Y-76285100D02*
X222395700Y-76285100D01*
G75*
G02*
X222225700Y-76115100I0J170000D01*
G01*
X222225700Y-75775100D01*
G75*
G02*
X222395700Y-75605100I170000J0D01*
G01*
X222815700Y-75605100D01*
G75*
G02*
X222985700Y-75775100I0J-170000D01*
G01*
X222985700Y-76115100D01*
G75*
G02*
X222815700Y-76285100I-170000J0D01*
G01*
G37*
G36*
G01*
X221875700Y-76285100D02*
X221455700Y-76285100D01*
G75*
G02*
X221285700Y-76115100I0J170000D01*
G01*
X221285700Y-75775100D01*
G75*
G02*
X221455700Y-75605100I170000J0D01*
G01*
X221875700Y-75605100D01*
G75*
G02*
X222045700Y-75775100I0J-170000D01*
G01*
X222045700Y-76115100D01*
G75*
G02*
X221875700Y-76285100I-170000J0D01*
G01*
G37*
G36*
G01*
X222815700Y-77125100D02*
X222395700Y-77125100D01*
G75*
G02*
X222225700Y-76955100I0J170000D01*
G01*
X222225700Y-76615100D01*
G75*
G02*
X222395700Y-76445100I170000J0D01*
G01*
X222815700Y-76445100D01*
G75*
G02*
X222985700Y-76615100I0J-170000D01*
G01*
X222985700Y-76955100D01*
G75*
G02*
X222815700Y-77125100I-170000J0D01*
G01*
G37*
G36*
G01*
X221875700Y-77125100D02*
X221455700Y-77125100D01*
G75*
G02*
X221285700Y-76955100I0J170000D01*
G01*
X221285700Y-76615100D01*
G75*
G02*
X221455700Y-76445100I170000J0D01*
G01*
X221875700Y-76445100D01*
G75*
G02*
X222045700Y-76615100I0J-170000D01*
G01*
X222045700Y-76955100D01*
G75*
G02*
X221875700Y-77125100I-170000J0D01*
G01*
G37*
G36*
G01*
X221210700Y-74940100D02*
X221060700Y-74940100D01*
G75*
G02*
X220985700Y-74865100I0J75000D01*
G01*
X220985700Y-73565100D01*
G75*
G02*
X221060700Y-73490100I75000J0D01*
G01*
X221210700Y-73490100D01*
G75*
G02*
X221285700Y-73565100I0J-75000D01*
G01*
X221285700Y-74865100D01*
G75*
G02*
X221210700Y-74940100I-75000J0D01*
G01*
G37*
G36*
G01*
X221710700Y-74940100D02*
X221560700Y-74940100D01*
G75*
G02*
X221485700Y-74865100I0J75000D01*
G01*
X221485700Y-73565100D01*
G75*
G02*
X221560700Y-73490100I75000J0D01*
G01*
X221710700Y-73490100D01*
G75*
G02*
X221785700Y-73565100I0J-75000D01*
G01*
X221785700Y-74865100D01*
G75*
G02*
X221710700Y-74940100I-75000J0D01*
G01*
G37*
G36*
G01*
X222210700Y-74940100D02*
X222060700Y-74940100D01*
G75*
G02*
X221985700Y-74865100I0J75000D01*
G01*
X221985700Y-73565100D01*
G75*
G02*
X222060700Y-73490100I75000J0D01*
G01*
X222210700Y-73490100D01*
G75*
G02*
X222285700Y-73565100I0J-75000D01*
G01*
X222285700Y-74865100D01*
G75*
G02*
X222210700Y-74940100I-75000J0D01*
G01*
G37*
G36*
G01*
X222710700Y-74940100D02*
X222560700Y-74940100D01*
G75*
G02*
X222485700Y-74865100I0J75000D01*
G01*
X222485700Y-73565100D01*
G75*
G02*
X222560700Y-73490100I75000J0D01*
G01*
X222710700Y-73490100D01*
G75*
G02*
X222785700Y-73565100I0J-75000D01*
G01*
X222785700Y-74865100D01*
G75*
G02*
X222710700Y-74940100I-75000J0D01*
G01*
G37*
G36*
G01*
X223210700Y-74940100D02*
X223060700Y-74940100D01*
G75*
G02*
X222985700Y-74865100I0J75000D01*
G01*
X222985700Y-73565100D01*
G75*
G02*
X223060700Y-73490100I75000J0D01*
G01*
X223210700Y-73490100D01*
G75*
G02*
X223285700Y-73565100I0J-75000D01*
G01*
X223285700Y-74865100D01*
G75*
G02*
X223210700Y-74940100I-75000J0D01*
G01*
G37*
G36*
G01*
X223210700Y-79240100D02*
X223060700Y-79240100D01*
G75*
G02*
X222985700Y-79165100I0J75000D01*
G01*
X222985700Y-77865100D01*
G75*
G02*
X223060700Y-77790100I75000J0D01*
G01*
X223210700Y-77790100D01*
G75*
G02*
X223285700Y-77865100I0J-75000D01*
G01*
X223285700Y-79165100D01*
G75*
G02*
X223210700Y-79240100I-75000J0D01*
G01*
G37*
G36*
G01*
X222710700Y-79240100D02*
X222560700Y-79240100D01*
G75*
G02*
X222485700Y-79165100I0J75000D01*
G01*
X222485700Y-77865100D01*
G75*
G02*
X222560700Y-77790100I75000J0D01*
G01*
X222710700Y-77790100D01*
G75*
G02*
X222785700Y-77865100I0J-75000D01*
G01*
X222785700Y-79165100D01*
G75*
G02*
X222710700Y-79240100I-75000J0D01*
G01*
G37*
G36*
G01*
X222210700Y-79240100D02*
X222060700Y-79240100D01*
G75*
G02*
X221985700Y-79165100I0J75000D01*
G01*
X221985700Y-77865100D01*
G75*
G02*
X222060700Y-77790100I75000J0D01*
G01*
X222210700Y-77790100D01*
G75*
G02*
X222285700Y-77865100I0J-75000D01*
G01*
X222285700Y-79165100D01*
G75*
G02*
X222210700Y-79240100I-75000J0D01*
G01*
G37*
G36*
G01*
X221710700Y-79240100D02*
X221560700Y-79240100D01*
G75*
G02*
X221485700Y-79165100I0J75000D01*
G01*
X221485700Y-77865100D01*
G75*
G02*
X221560700Y-77790100I75000J0D01*
G01*
X221710700Y-77790100D01*
G75*
G02*
X221785700Y-77865100I0J-75000D01*
G01*
X221785700Y-79165100D01*
G75*
G02*
X221710700Y-79240100I-75000J0D01*
G01*
G37*
G36*
G01*
X221210700Y-79240100D02*
X221060700Y-79240100D01*
G75*
G02*
X220985700Y-79165100I0J75000D01*
G01*
X220985700Y-77865100D01*
G75*
G02*
X221060700Y-77790100I75000J0D01*
G01*
X221210700Y-77790100D01*
G75*
G02*
X221285700Y-77865100I0J-75000D01*
G01*
X221285700Y-79165100D01*
G75*
G02*
X221210700Y-79240100I-75000J0D01*
G01*
G37*
G36*
G01*
X210732200Y-74900100D02*
X210933200Y-74900100D01*
G75*
G02*
X211012700Y-74979600I0J-79500D01*
G01*
X211012700Y-75138600D01*
G75*
G02*
X210933200Y-75218100I-79500J0D01*
G01*
X210732200Y-75218100D01*
G75*
G02*
X210652700Y-75138600I0J79500D01*
G01*
X210652700Y-74979600D01*
G75*
G02*
X210732200Y-74900100I79500J0D01*
G01*
G37*
G36*
G01*
X210732200Y-74210100D02*
X210933200Y-74210100D01*
G75*
G02*
X211012700Y-74289600I0J-79500D01*
G01*
X211012700Y-74448600D01*
G75*
G02*
X210933200Y-74528100I-79500J0D01*
G01*
X210732200Y-74528100D01*
G75*
G02*
X210652700Y-74448600I0J79500D01*
G01*
X210652700Y-74289600D01*
G75*
G02*
X210732200Y-74210100I79500J0D01*
G01*
G37*
G36*
G01*
X216917700Y-70850600D02*
X216452700Y-70850600D01*
G75*
G02*
X216220200Y-70618100I0J232500D01*
G01*
X216220200Y-70153100D01*
G75*
G02*
X216452700Y-69920600I232500J0D01*
G01*
X216917700Y-69920600D01*
G75*
G02*
X217150200Y-70153100I0J-232500D01*
G01*
X217150200Y-70618100D01*
G75*
G02*
X216917700Y-70850600I-232500J0D01*
G01*
G37*
G36*
G01*
X215767700Y-70850600D02*
X215302700Y-70850600D01*
G75*
G02*
X215070200Y-70618100I0J232500D01*
G01*
X215070200Y-70153100D01*
G75*
G02*
X215302700Y-69920600I232500J0D01*
G01*
X215767700Y-69920600D01*
G75*
G02*
X216000200Y-70153100I0J-232500D01*
G01*
X216000200Y-70618100D01*
G75*
G02*
X215767700Y-70850600I-232500J0D01*
G01*
G37*
G36*
G01*
X214617700Y-70850600D02*
X214152700Y-70850600D01*
G75*
G02*
X213920200Y-70618100I0J232500D01*
G01*
X213920200Y-70153100D01*
G75*
G02*
X214152700Y-69920600I232500J0D01*
G01*
X214617700Y-69920600D01*
G75*
G02*
X214850200Y-70153100I0J-232500D01*
G01*
X214850200Y-70618100D01*
G75*
G02*
X214617700Y-70850600I-232500J0D01*
G01*
G37*
G36*
G01*
X213467700Y-70850600D02*
X213002700Y-70850600D01*
G75*
G02*
X212770200Y-70618100I0J232500D01*
G01*
X212770200Y-70153100D01*
G75*
G02*
X213002700Y-69920600I232500J0D01*
G01*
X213467700Y-69920600D01*
G75*
G02*
X213700200Y-70153100I0J-232500D01*
G01*
X213700200Y-70618100D01*
G75*
G02*
X213467700Y-70850600I-232500J0D01*
G01*
G37*
G36*
G01*
X216917700Y-72000600D02*
X216452700Y-72000600D01*
G75*
G02*
X216220200Y-71768100I0J232500D01*
G01*
X216220200Y-71303100D01*
G75*
G02*
X216452700Y-71070600I232500J0D01*
G01*
X216917700Y-71070600D01*
G75*
G02*
X217150200Y-71303100I0J-232500D01*
G01*
X217150200Y-71768100D01*
G75*
G02*
X216917700Y-72000600I-232500J0D01*
G01*
G37*
G36*
G01*
X215767700Y-72000600D02*
X215302700Y-72000600D01*
G75*
G02*
X215070200Y-71768100I0J232500D01*
G01*
X215070200Y-71303100D01*
G75*
G02*
X215302700Y-71070600I232500J0D01*
G01*
X215767700Y-71070600D01*
G75*
G02*
X216000200Y-71303100I0J-232500D01*
G01*
X216000200Y-71768100D01*
G75*
G02*
X215767700Y-72000600I-232500J0D01*
G01*
G37*
G36*
G01*
X214617700Y-72000600D02*
X214152700Y-72000600D01*
G75*
G02*
X213920200Y-71768100I0J232500D01*
G01*
X213920200Y-71303100D01*
G75*
G02*
X214152700Y-71070600I232500J0D01*
G01*
X214617700Y-71070600D01*
G75*
G02*
X214850200Y-71303100I0J-232500D01*
G01*
X214850200Y-71768100D01*
G75*
G02*
X214617700Y-72000600I-232500J0D01*
G01*
G37*
G36*
G01*
X213467700Y-72000600D02*
X213002700Y-72000600D01*
G75*
G02*
X212770200Y-71768100I0J232500D01*
G01*
X212770200Y-71303100D01*
G75*
G02*
X213002700Y-71070600I232500J0D01*
G01*
X213467700Y-71070600D01*
G75*
G02*
X213700200Y-71303100I0J-232500D01*
G01*
X213700200Y-71768100D01*
G75*
G02*
X213467700Y-72000600I-232500J0D01*
G01*
G37*
G36*
G01*
X216917700Y-73150600D02*
X216452700Y-73150600D01*
G75*
G02*
X216220200Y-72918100I0J232500D01*
G01*
X216220200Y-72453100D01*
G75*
G02*
X216452700Y-72220600I232500J0D01*
G01*
X216917700Y-72220600D01*
G75*
G02*
X217150200Y-72453100I0J-232500D01*
G01*
X217150200Y-72918100D01*
G75*
G02*
X216917700Y-73150600I-232500J0D01*
G01*
G37*
G36*
G01*
X215767700Y-73150600D02*
X215302700Y-73150600D01*
G75*
G02*
X215070200Y-72918100I0J232500D01*
G01*
X215070200Y-72453100D01*
G75*
G02*
X215302700Y-72220600I232500J0D01*
G01*
X215767700Y-72220600D01*
G75*
G02*
X216000200Y-72453100I0J-232500D01*
G01*
X216000200Y-72918100D01*
G75*
G02*
X215767700Y-73150600I-232500J0D01*
G01*
G37*
G36*
G01*
X214617700Y-73150600D02*
X214152700Y-73150600D01*
G75*
G02*
X213920200Y-72918100I0J232500D01*
G01*
X213920200Y-72453100D01*
G75*
G02*
X214152700Y-72220600I232500J0D01*
G01*
X214617700Y-72220600D01*
G75*
G02*
X214850200Y-72453100I0J-232500D01*
G01*
X214850200Y-72918100D01*
G75*
G02*
X214617700Y-73150600I-232500J0D01*
G01*
G37*
G36*
G01*
X213467700Y-73150600D02*
X213002700Y-73150600D01*
G75*
G02*
X212770200Y-72918100I0J232500D01*
G01*
X212770200Y-72453100D01*
G75*
G02*
X213002700Y-72220600I232500J0D01*
G01*
X213467700Y-72220600D01*
G75*
G02*
X213700200Y-72453100I0J-232500D01*
G01*
X213700200Y-72918100D01*
G75*
G02*
X213467700Y-73150600I-232500J0D01*
G01*
G37*
G36*
G01*
X216917700Y-74300600D02*
X216452700Y-74300600D01*
G75*
G02*
X216220200Y-74068100I0J232500D01*
G01*
X216220200Y-73603100D01*
G75*
G02*
X216452700Y-73370600I232500J0D01*
G01*
X216917700Y-73370600D01*
G75*
G02*
X217150200Y-73603100I0J-232500D01*
G01*
X217150200Y-74068100D01*
G75*
G02*
X216917700Y-74300600I-232500J0D01*
G01*
G37*
G36*
G01*
X215767700Y-74300600D02*
X215302700Y-74300600D01*
G75*
G02*
X215070200Y-74068100I0J232500D01*
G01*
X215070200Y-73603100D01*
G75*
G02*
X215302700Y-73370600I232500J0D01*
G01*
X215767700Y-73370600D01*
G75*
G02*
X216000200Y-73603100I0J-232500D01*
G01*
X216000200Y-74068100D01*
G75*
G02*
X215767700Y-74300600I-232500J0D01*
G01*
G37*
G36*
G01*
X214617700Y-74300600D02*
X214152700Y-74300600D01*
G75*
G02*
X213920200Y-74068100I0J232500D01*
G01*
X213920200Y-73603100D01*
G75*
G02*
X214152700Y-73370600I232500J0D01*
G01*
X214617700Y-73370600D01*
G75*
G02*
X214850200Y-73603100I0J-232500D01*
G01*
X214850200Y-74068100D01*
G75*
G02*
X214617700Y-74300600I-232500J0D01*
G01*
G37*
G36*
G01*
X213467700Y-74300600D02*
X213002700Y-74300600D01*
G75*
G02*
X212770200Y-74068100I0J232500D01*
G01*
X212770200Y-73603100D01*
G75*
G02*
X213002700Y-73370600I232500J0D01*
G01*
X213467700Y-73370600D01*
G75*
G02*
X213700200Y-73603100I0J-232500D01*
G01*
X213700200Y-74068100D01*
G75*
G02*
X213467700Y-74300600I-232500J0D01*
G01*
G37*
G36*
G01*
X212372700Y-74485600D02*
X211672700Y-74485600D01*
G75*
G02*
X211610200Y-74423100I0J62500D01*
G01*
X211610200Y-74298100D01*
G75*
G02*
X211672700Y-74235600I62500J0D01*
G01*
X212372700Y-74235600D01*
G75*
G02*
X212435200Y-74298100I0J-62500D01*
G01*
X212435200Y-74423100D01*
G75*
G02*
X212372700Y-74485600I-62500J0D01*
G01*
G37*
G36*
G01*
X212372700Y-73985600D02*
X211672700Y-73985600D01*
G75*
G02*
X211610200Y-73923100I0J62500D01*
G01*
X211610200Y-73798100D01*
G75*
G02*
X211672700Y-73735600I62500J0D01*
G01*
X212372700Y-73735600D01*
G75*
G02*
X212435200Y-73798100I0J-62500D01*
G01*
X212435200Y-73923100D01*
G75*
G02*
X212372700Y-73985600I-62500J0D01*
G01*
G37*
G36*
G01*
X212372700Y-73485600D02*
X211672700Y-73485600D01*
G75*
G02*
X211610200Y-73423100I0J62500D01*
G01*
X211610200Y-73298100D01*
G75*
G02*
X211672700Y-73235600I62500J0D01*
G01*
X212372700Y-73235600D01*
G75*
G02*
X212435200Y-73298100I0J-62500D01*
G01*
X212435200Y-73423100D01*
G75*
G02*
X212372700Y-73485600I-62500J0D01*
G01*
G37*
G36*
G01*
X212372700Y-72985600D02*
X211672700Y-72985600D01*
G75*
G02*
X211610200Y-72923100I0J62500D01*
G01*
X211610200Y-72798100D01*
G75*
G02*
X211672700Y-72735600I62500J0D01*
G01*
X212372700Y-72735600D01*
G75*
G02*
X212435200Y-72798100I0J-62500D01*
G01*
X212435200Y-72923100D01*
G75*
G02*
X212372700Y-72985600I-62500J0D01*
G01*
G37*
G36*
G01*
X212372700Y-72485600D02*
X211672700Y-72485600D01*
G75*
G02*
X211610200Y-72423100I0J62500D01*
G01*
X211610200Y-72298100D01*
G75*
G02*
X211672700Y-72235600I62500J0D01*
G01*
X212372700Y-72235600D01*
G75*
G02*
X212435200Y-72298100I0J-62500D01*
G01*
X212435200Y-72423100D01*
G75*
G02*
X212372700Y-72485600I-62500J0D01*
G01*
G37*
G36*
G01*
X212372700Y-71985600D02*
X211672700Y-71985600D01*
G75*
G02*
X211610200Y-71923100I0J62500D01*
G01*
X211610200Y-71798100D01*
G75*
G02*
X211672700Y-71735600I62500J0D01*
G01*
X212372700Y-71735600D01*
G75*
G02*
X212435200Y-71798100I0J-62500D01*
G01*
X212435200Y-71923100D01*
G75*
G02*
X212372700Y-71985600I-62500J0D01*
G01*
G37*
G36*
G01*
X212372700Y-71485600D02*
X211672700Y-71485600D01*
G75*
G02*
X211610200Y-71423100I0J62500D01*
G01*
X211610200Y-71298100D01*
G75*
G02*
X211672700Y-71235600I62500J0D01*
G01*
X212372700Y-71235600D01*
G75*
G02*
X212435200Y-71298100I0J-62500D01*
G01*
X212435200Y-71423100D01*
G75*
G02*
X212372700Y-71485600I-62500J0D01*
G01*
G37*
G36*
G01*
X212372700Y-70985600D02*
X211672700Y-70985600D01*
G75*
G02*
X211610200Y-70923100I0J62500D01*
G01*
X211610200Y-70798100D01*
G75*
G02*
X211672700Y-70735600I62500J0D01*
G01*
X212372700Y-70735600D01*
G75*
G02*
X212435200Y-70798100I0J-62500D01*
G01*
X212435200Y-70923100D01*
G75*
G02*
X212372700Y-70985600I-62500J0D01*
G01*
G37*
G36*
G01*
X212372700Y-70485600D02*
X211672700Y-70485600D01*
G75*
G02*
X211610200Y-70423100I0J62500D01*
G01*
X211610200Y-70298100D01*
G75*
G02*
X211672700Y-70235600I62500J0D01*
G01*
X212372700Y-70235600D01*
G75*
G02*
X212435200Y-70298100I0J-62500D01*
G01*
X212435200Y-70423100D01*
G75*
G02*
X212372700Y-70485600I-62500J0D01*
G01*
G37*
G36*
G01*
X212372700Y-69985600D02*
X211672700Y-69985600D01*
G75*
G02*
X211610200Y-69923100I0J62500D01*
G01*
X211610200Y-69798100D01*
G75*
G02*
X211672700Y-69735600I62500J0D01*
G01*
X212372700Y-69735600D01*
G75*
G02*
X212435200Y-69798100I0J-62500D01*
G01*
X212435200Y-69923100D01*
G75*
G02*
X212372700Y-69985600I-62500J0D01*
G01*
G37*
G36*
G01*
X212772700Y-69585600D02*
X212647700Y-69585600D01*
G75*
G02*
X212585200Y-69523100I0J62500D01*
G01*
X212585200Y-68823100D01*
G75*
G02*
X212647700Y-68760600I62500J0D01*
G01*
X212772700Y-68760600D01*
G75*
G02*
X212835200Y-68823100I0J-62500D01*
G01*
X212835200Y-69523100D01*
G75*
G02*
X212772700Y-69585600I-62500J0D01*
G01*
G37*
G36*
G01*
X213272700Y-69585600D02*
X213147700Y-69585600D01*
G75*
G02*
X213085200Y-69523100I0J62500D01*
G01*
X213085200Y-68823100D01*
G75*
G02*
X213147700Y-68760600I62500J0D01*
G01*
X213272700Y-68760600D01*
G75*
G02*
X213335200Y-68823100I0J-62500D01*
G01*
X213335200Y-69523100D01*
G75*
G02*
X213272700Y-69585600I-62500J0D01*
G01*
G37*
G36*
G01*
X213772700Y-69585600D02*
X213647700Y-69585600D01*
G75*
G02*
X213585200Y-69523100I0J62500D01*
G01*
X213585200Y-68823100D01*
G75*
G02*
X213647700Y-68760600I62500J0D01*
G01*
X213772700Y-68760600D01*
G75*
G02*
X213835200Y-68823100I0J-62500D01*
G01*
X213835200Y-69523100D01*
G75*
G02*
X213772700Y-69585600I-62500J0D01*
G01*
G37*
G36*
G01*
X214272700Y-69585600D02*
X214147700Y-69585600D01*
G75*
G02*
X214085200Y-69523100I0J62500D01*
G01*
X214085200Y-68823100D01*
G75*
G02*
X214147700Y-68760600I62500J0D01*
G01*
X214272700Y-68760600D01*
G75*
G02*
X214335200Y-68823100I0J-62500D01*
G01*
X214335200Y-69523100D01*
G75*
G02*
X214272700Y-69585600I-62500J0D01*
G01*
G37*
G36*
G01*
X214772700Y-69585600D02*
X214647700Y-69585600D01*
G75*
G02*
X214585200Y-69523100I0J62500D01*
G01*
X214585200Y-68823100D01*
G75*
G02*
X214647700Y-68760600I62500J0D01*
G01*
X214772700Y-68760600D01*
G75*
G02*
X214835200Y-68823100I0J-62500D01*
G01*
X214835200Y-69523100D01*
G75*
G02*
X214772700Y-69585600I-62500J0D01*
G01*
G37*
G36*
G01*
X215272700Y-69585600D02*
X215147700Y-69585600D01*
G75*
G02*
X215085200Y-69523100I0J62500D01*
G01*
X215085200Y-68823100D01*
G75*
G02*
X215147700Y-68760600I62500J0D01*
G01*
X215272700Y-68760600D01*
G75*
G02*
X215335200Y-68823100I0J-62500D01*
G01*
X215335200Y-69523100D01*
G75*
G02*
X215272700Y-69585600I-62500J0D01*
G01*
G37*
G36*
G01*
X215772700Y-69585600D02*
X215647700Y-69585600D01*
G75*
G02*
X215585200Y-69523100I0J62500D01*
G01*
X215585200Y-68823100D01*
G75*
G02*
X215647700Y-68760600I62500J0D01*
G01*
X215772700Y-68760600D01*
G75*
G02*
X215835200Y-68823100I0J-62500D01*
G01*
X215835200Y-69523100D01*
G75*
G02*
X215772700Y-69585600I-62500J0D01*
G01*
G37*
G36*
G01*
X216272700Y-69585600D02*
X216147700Y-69585600D01*
G75*
G02*
X216085200Y-69523100I0J62500D01*
G01*
X216085200Y-68823100D01*
G75*
G02*
X216147700Y-68760600I62500J0D01*
G01*
X216272700Y-68760600D01*
G75*
G02*
X216335200Y-68823100I0J-62500D01*
G01*
X216335200Y-69523100D01*
G75*
G02*
X216272700Y-69585600I-62500J0D01*
G01*
G37*
G36*
G01*
X216772700Y-69585600D02*
X216647700Y-69585600D01*
G75*
G02*
X216585200Y-69523100I0J62500D01*
G01*
X216585200Y-68823100D01*
G75*
G02*
X216647700Y-68760600I62500J0D01*
G01*
X216772700Y-68760600D01*
G75*
G02*
X216835200Y-68823100I0J-62500D01*
G01*
X216835200Y-69523100D01*
G75*
G02*
X216772700Y-69585600I-62500J0D01*
G01*
G37*
G36*
G01*
X217272700Y-69585600D02*
X217147700Y-69585600D01*
G75*
G02*
X217085200Y-69523100I0J62500D01*
G01*
X217085200Y-68823100D01*
G75*
G02*
X217147700Y-68760600I62500J0D01*
G01*
X217272700Y-68760600D01*
G75*
G02*
X217335200Y-68823100I0J-62500D01*
G01*
X217335200Y-69523100D01*
G75*
G02*
X217272700Y-69585600I-62500J0D01*
G01*
G37*
G36*
G01*
X218247700Y-69985600D02*
X217547700Y-69985600D01*
G75*
G02*
X217485200Y-69923100I0J62500D01*
G01*
X217485200Y-69798100D01*
G75*
G02*
X217547700Y-69735600I62500J0D01*
G01*
X218247700Y-69735600D01*
G75*
G02*
X218310200Y-69798100I0J-62500D01*
G01*
X218310200Y-69923100D01*
G75*
G02*
X218247700Y-69985600I-62500J0D01*
G01*
G37*
G36*
G01*
X218247700Y-70485600D02*
X217547700Y-70485600D01*
G75*
G02*
X217485200Y-70423100I0J62500D01*
G01*
X217485200Y-70298100D01*
G75*
G02*
X217547700Y-70235600I62500J0D01*
G01*
X218247700Y-70235600D01*
G75*
G02*
X218310200Y-70298100I0J-62500D01*
G01*
X218310200Y-70423100D01*
G75*
G02*
X218247700Y-70485600I-62500J0D01*
G01*
G37*
G36*
G01*
X218247700Y-70985600D02*
X217547700Y-70985600D01*
G75*
G02*
X217485200Y-70923100I0J62500D01*
G01*
X217485200Y-70798100D01*
G75*
G02*
X217547700Y-70735600I62500J0D01*
G01*
X218247700Y-70735600D01*
G75*
G02*
X218310200Y-70798100I0J-62500D01*
G01*
X218310200Y-70923100D01*
G75*
G02*
X218247700Y-70985600I-62500J0D01*
G01*
G37*
G36*
G01*
X218247700Y-71485600D02*
X217547700Y-71485600D01*
G75*
G02*
X217485200Y-71423100I0J62500D01*
G01*
X217485200Y-71298100D01*
G75*
G02*
X217547700Y-71235600I62500J0D01*
G01*
X218247700Y-71235600D01*
G75*
G02*
X218310200Y-71298100I0J-62500D01*
G01*
X218310200Y-71423100D01*
G75*
G02*
X218247700Y-71485600I-62500J0D01*
G01*
G37*
G36*
G01*
X218247700Y-71985600D02*
X217547700Y-71985600D01*
G75*
G02*
X217485200Y-71923100I0J62500D01*
G01*
X217485200Y-71798100D01*
G75*
G02*
X217547700Y-71735600I62500J0D01*
G01*
X218247700Y-71735600D01*
G75*
G02*
X218310200Y-71798100I0J-62500D01*
G01*
X218310200Y-71923100D01*
G75*
G02*
X218247700Y-71985600I-62500J0D01*
G01*
G37*
G36*
G01*
X218247700Y-72485600D02*
X217547700Y-72485600D01*
G75*
G02*
X217485200Y-72423100I0J62500D01*
G01*
X217485200Y-72298100D01*
G75*
G02*
X217547700Y-72235600I62500J0D01*
G01*
X218247700Y-72235600D01*
G75*
G02*
X218310200Y-72298100I0J-62500D01*
G01*
X218310200Y-72423100D01*
G75*
G02*
X218247700Y-72485600I-62500J0D01*
G01*
G37*
G36*
G01*
X218247700Y-72985600D02*
X217547700Y-72985600D01*
G75*
G02*
X217485200Y-72923100I0J62500D01*
G01*
X217485200Y-72798100D01*
G75*
G02*
X217547700Y-72735600I62500J0D01*
G01*
X218247700Y-72735600D01*
G75*
G02*
X218310200Y-72798100I0J-62500D01*
G01*
X218310200Y-72923100D01*
G75*
G02*
X218247700Y-72985600I-62500J0D01*
G01*
G37*
G36*
G01*
X218247700Y-73485600D02*
X217547700Y-73485600D01*
G75*
G02*
X217485200Y-73423100I0J62500D01*
G01*
X217485200Y-73298100D01*
G75*
G02*
X217547700Y-73235600I62500J0D01*
G01*
X218247700Y-73235600D01*
G75*
G02*
X218310200Y-73298100I0J-62500D01*
G01*
X218310200Y-73423100D01*
G75*
G02*
X218247700Y-73485600I-62500J0D01*
G01*
G37*
G36*
G01*
X218247700Y-73985600D02*
X217547700Y-73985600D01*
G75*
G02*
X217485200Y-73923100I0J62500D01*
G01*
X217485200Y-73798100D01*
G75*
G02*
X217547700Y-73735600I62500J0D01*
G01*
X218247700Y-73735600D01*
G75*
G02*
X218310200Y-73798100I0J-62500D01*
G01*
X218310200Y-73923100D01*
G75*
G02*
X218247700Y-73985600I-62500J0D01*
G01*
G37*
G36*
G01*
X218247700Y-74485600D02*
X217547700Y-74485600D01*
G75*
G02*
X217485200Y-74423100I0J62500D01*
G01*
X217485200Y-74298100D01*
G75*
G02*
X217547700Y-74235600I62500J0D01*
G01*
X218247700Y-74235600D01*
G75*
G02*
X218310200Y-74298100I0J-62500D01*
G01*
X218310200Y-74423100D01*
G75*
G02*
X218247700Y-74485600I-62500J0D01*
G01*
G37*
G36*
G01*
X217272700Y-75460600D02*
X217147700Y-75460600D01*
G75*
G02*
X217085200Y-75398100I0J62500D01*
G01*
X217085200Y-74698100D01*
G75*
G02*
X217147700Y-74635600I62500J0D01*
G01*
X217272700Y-74635600D01*
G75*
G02*
X217335200Y-74698100I0J-62500D01*
G01*
X217335200Y-75398100D01*
G75*
G02*
X217272700Y-75460600I-62500J0D01*
G01*
G37*
G36*
G01*
X216772700Y-75460600D02*
X216647700Y-75460600D01*
G75*
G02*
X216585200Y-75398100I0J62500D01*
G01*
X216585200Y-74698100D01*
G75*
G02*
X216647700Y-74635600I62500J0D01*
G01*
X216772700Y-74635600D01*
G75*
G02*
X216835200Y-74698100I0J-62500D01*
G01*
X216835200Y-75398100D01*
G75*
G02*
X216772700Y-75460600I-62500J0D01*
G01*
G37*
G36*
G01*
X216272700Y-75460600D02*
X216147700Y-75460600D01*
G75*
G02*
X216085200Y-75398100I0J62500D01*
G01*
X216085200Y-74698100D01*
G75*
G02*
X216147700Y-74635600I62500J0D01*
G01*
X216272700Y-74635600D01*
G75*
G02*
X216335200Y-74698100I0J-62500D01*
G01*
X216335200Y-75398100D01*
G75*
G02*
X216272700Y-75460600I-62500J0D01*
G01*
G37*
G36*
G01*
X215772700Y-75460600D02*
X215647700Y-75460600D01*
G75*
G02*
X215585200Y-75398100I0J62500D01*
G01*
X215585200Y-74698100D01*
G75*
G02*
X215647700Y-74635600I62500J0D01*
G01*
X215772700Y-74635600D01*
G75*
G02*
X215835200Y-74698100I0J-62500D01*
G01*
X215835200Y-75398100D01*
G75*
G02*
X215772700Y-75460600I-62500J0D01*
G01*
G37*
G36*
G01*
X215272700Y-75460600D02*
X215147700Y-75460600D01*
G75*
G02*
X215085200Y-75398100I0J62500D01*
G01*
X215085200Y-74698100D01*
G75*
G02*
X215147700Y-74635600I62500J0D01*
G01*
X215272700Y-74635600D01*
G75*
G02*
X215335200Y-74698100I0J-62500D01*
G01*
X215335200Y-75398100D01*
G75*
G02*
X215272700Y-75460600I-62500J0D01*
G01*
G37*
G36*
G01*
X214772700Y-75460600D02*
X214647700Y-75460600D01*
G75*
G02*
X214585200Y-75398100I0J62500D01*
G01*
X214585200Y-74698100D01*
G75*
G02*
X214647700Y-74635600I62500J0D01*
G01*
X214772700Y-74635600D01*
G75*
G02*
X214835200Y-74698100I0J-62500D01*
G01*
X214835200Y-75398100D01*
G75*
G02*
X214772700Y-75460600I-62500J0D01*
G01*
G37*
G36*
G01*
X214272700Y-75460600D02*
X214147700Y-75460600D01*
G75*
G02*
X214085200Y-75398100I0J62500D01*
G01*
X214085200Y-74698100D01*
G75*
G02*
X214147700Y-74635600I62500J0D01*
G01*
X214272700Y-74635600D01*
G75*
G02*
X214335200Y-74698100I0J-62500D01*
G01*
X214335200Y-75398100D01*
G75*
G02*
X214272700Y-75460600I-62500J0D01*
G01*
G37*
G36*
G01*
X213772700Y-75460600D02*
X213647700Y-75460600D01*
G75*
G02*
X213585200Y-75398100I0J62500D01*
G01*
X213585200Y-74698100D01*
G75*
G02*
X213647700Y-74635600I62500J0D01*
G01*
X213772700Y-74635600D01*
G75*
G02*
X213835200Y-74698100I0J-62500D01*
G01*
X213835200Y-75398100D01*
G75*
G02*
X213772700Y-75460600I-62500J0D01*
G01*
G37*
G36*
G01*
X213272700Y-75460600D02*
X213147700Y-75460600D01*
G75*
G02*
X213085200Y-75398100I0J62500D01*
G01*
X213085200Y-74698100D01*
G75*
G02*
X213147700Y-74635600I62500J0D01*
G01*
X213272700Y-74635600D01*
G75*
G02*
X213335200Y-74698100I0J-62500D01*
G01*
X213335200Y-75398100D01*
G75*
G02*
X213272700Y-75460600I-62500J0D01*
G01*
G37*
G36*
G01*
X212772700Y-75460600D02*
X212647700Y-75460600D01*
G75*
G02*
X212585200Y-75398100I0J62500D01*
G01*
X212585200Y-74698100D01*
G75*
G02*
X212647700Y-74635600I62500J0D01*
G01*
X212772700Y-74635600D01*
G75*
G02*
X212835200Y-74698100I0J-62500D01*
G01*
X212835200Y-75398100D01*
G75*
G02*
X212772700Y-75460600I-62500J0D01*
G01*
G37*
G36*
G01*
X210726600Y-73227100D02*
X210726600Y-73026100D01*
G75*
G02*
X210806100Y-72946600I79500J0D01*
G01*
X210965100Y-72946600D01*
G75*
G02*
X211044600Y-73026100I0J-79500D01*
G01*
X211044600Y-73227100D01*
G75*
G02*
X210965100Y-73306600I-79500J0D01*
G01*
X210806100Y-73306600D01*
G75*
G02*
X210726600Y-73227100I0J79500D01*
G01*
G37*
G36*
G01*
X210036600Y-73227100D02*
X210036600Y-73026100D01*
G75*
G02*
X210116100Y-72946600I79500J0D01*
G01*
X210275100Y-72946600D01*
G75*
G02*
X210354600Y-73026100I0J-79500D01*
G01*
X210354600Y-73227100D01*
G75*
G02*
X210275100Y-73306600I-79500J0D01*
G01*
X210116100Y-73306600D01*
G75*
G02*
X210036600Y-73227100I0J79500D01*
G01*
G37*
G36*
G01*
X210726600Y-72465100D02*
X210726600Y-72264100D01*
G75*
G02*
X210806100Y-72184600I79500J0D01*
G01*
X210965100Y-72184600D01*
G75*
G02*
X211044600Y-72264100I0J-79500D01*
G01*
X211044600Y-72465100D01*
G75*
G02*
X210965100Y-72544600I-79500J0D01*
G01*
X210806100Y-72544600D01*
G75*
G02*
X210726600Y-72465100I0J79500D01*
G01*
G37*
G36*
G01*
X210036600Y-72465100D02*
X210036600Y-72264100D01*
G75*
G02*
X210116100Y-72184600I79500J0D01*
G01*
X210275100Y-72184600D01*
G75*
G02*
X210354600Y-72264100I0J-79500D01*
G01*
X210354600Y-72465100D01*
G75*
G02*
X210275100Y-72544600I-79500J0D01*
G01*
X210116100Y-72544600D01*
G75*
G02*
X210036600Y-72465100I0J79500D01*
G01*
G37*
G36*
G01*
X212780200Y-80473100D02*
X213330200Y-80473100D01*
G75*
G02*
X213530200Y-80673100I0J-200000D01*
G01*
X213530200Y-81073100D01*
G75*
G02*
X213330200Y-81273100I-200000J0D01*
G01*
X212780200Y-81273100D01*
G75*
G02*
X212580200Y-81073100I0J200000D01*
G01*
X212580200Y-80673100D01*
G75*
G02*
X212780200Y-80473100I200000J0D01*
G01*
G37*
G36*
G01*
X212780200Y-78823100D02*
X213330200Y-78823100D01*
G75*
G02*
X213530200Y-79023100I0J-200000D01*
G01*
X213530200Y-79423100D01*
G75*
G02*
X213330200Y-79623100I-200000J0D01*
G01*
X212780200Y-79623100D01*
G75*
G02*
X212580200Y-79423100I0J200000D01*
G01*
X212580200Y-79023100D01*
G75*
G02*
X212780200Y-78823100I200000J0D01*
G01*
G37*
G36*
G01*
X211192700Y-80473100D02*
X211742700Y-80473100D01*
G75*
G02*
X211942700Y-80673100I0J-200000D01*
G01*
X211942700Y-81073100D01*
G75*
G02*
X211742700Y-81273100I-200000J0D01*
G01*
X211192700Y-81273100D01*
G75*
G02*
X210992700Y-81073100I0J200000D01*
G01*
X210992700Y-80673100D01*
G75*
G02*
X211192700Y-80473100I200000J0D01*
G01*
G37*
G36*
G01*
X211192700Y-78823100D02*
X211742700Y-78823100D01*
G75*
G02*
X211942700Y-79023100I0J-200000D01*
G01*
X211942700Y-79423100D01*
G75*
G02*
X211742700Y-79623100I-200000J0D01*
G01*
X211192700Y-79623100D01*
G75*
G02*
X210992700Y-79423100I0J200000D01*
G01*
X210992700Y-79023100D01*
G75*
G02*
X211192700Y-78823100I200000J0D01*
G01*
G37*
G36*
G01*
X215891700Y-83965600D02*
X216441700Y-83965600D01*
G75*
G02*
X216641700Y-84165600I0J-200000D01*
G01*
X216641700Y-84565600D01*
G75*
G02*
X216441700Y-84765600I-200000J0D01*
G01*
X215891700Y-84765600D01*
G75*
G02*
X215691700Y-84565600I0J200000D01*
G01*
X215691700Y-84165600D01*
G75*
G02*
X215891700Y-83965600I200000J0D01*
G01*
G37*
G36*
G01*
X215891700Y-82315600D02*
X216441700Y-82315600D01*
G75*
G02*
X216641700Y-82515600I0J-200000D01*
G01*
X216641700Y-82915600D01*
G75*
G02*
X216441700Y-83115600I-200000J0D01*
G01*
X215891700Y-83115600D01*
G75*
G02*
X215691700Y-82915600I0J200000D01*
G01*
X215691700Y-82515600D01*
G75*
G02*
X215891700Y-82315600I200000J0D01*
G01*
G37*
G36*
G01*
X214304200Y-83965600D02*
X214854200Y-83965600D01*
G75*
G02*
X215054200Y-84165600I0J-200000D01*
G01*
X215054200Y-84565600D01*
G75*
G02*
X214854200Y-84765600I-200000J0D01*
G01*
X214304200Y-84765600D01*
G75*
G02*
X214104200Y-84565600I0J200000D01*
G01*
X214104200Y-84165600D01*
G75*
G02*
X214304200Y-83965600I200000J0D01*
G01*
G37*
G36*
G01*
X214304200Y-82315600D02*
X214854200Y-82315600D01*
G75*
G02*
X215054200Y-82515600I0J-200000D01*
G01*
X215054200Y-82915600D01*
G75*
G02*
X214854200Y-83115600I-200000J0D01*
G01*
X214304200Y-83115600D01*
G75*
G02*
X214104200Y-82915600I0J200000D01*
G01*
X214104200Y-82515600D01*
G75*
G02*
X214304200Y-82315600I200000J0D01*
G01*
G37*
G36*
G01*
X238335000Y-106913000D02*
X238335000Y-107463000D01*
G75*
G02*
X238135000Y-107663000I-200000J0D01*
G01*
X237735000Y-107663000D01*
G75*
G02*
X237535000Y-107463000I0J200000D01*
G01*
X237535000Y-106913000D01*
G75*
G02*
X237735000Y-106713000I200000J0D01*
G01*
X238135000Y-106713000D01*
G75*
G02*
X238335000Y-106913000I0J-200000D01*
G01*
G37*
G36*
G01*
X239985000Y-106913000D02*
X239985000Y-107463000D01*
G75*
G02*
X239785000Y-107663000I-200000J0D01*
G01*
X239385000Y-107663000D01*
G75*
G02*
X239185000Y-107463000I0J200000D01*
G01*
X239185000Y-106913000D01*
G75*
G02*
X239385000Y-106713000I200000J0D01*
G01*
X239785000Y-106713000D01*
G75*
G02*
X239985000Y-106913000I0J-200000D01*
G01*
G37*
G36*
G01*
X233572500Y-93514500D02*
X233572500Y-94064500D01*
G75*
G02*
X233372500Y-94264500I-200000J0D01*
G01*
X232972500Y-94264500D01*
G75*
G02*
X232772500Y-94064500I0J200000D01*
G01*
X232772500Y-93514500D01*
G75*
G02*
X232972500Y-93314500I200000J0D01*
G01*
X233372500Y-93314500D01*
G75*
G02*
X233572500Y-93514500I0J-200000D01*
G01*
G37*
G36*
G01*
X235222500Y-93514500D02*
X235222500Y-94064500D01*
G75*
G02*
X235022500Y-94264500I-200000J0D01*
G01*
X234622500Y-94264500D01*
G75*
G02*
X234422500Y-94064500I0J200000D01*
G01*
X234422500Y-93514500D01*
G75*
G02*
X234622500Y-93314500I200000J0D01*
G01*
X235022500Y-93314500D01*
G75*
G02*
X235222500Y-93514500I0J-200000D01*
G01*
G37*
G36*
G01*
X233572500Y-95038500D02*
X233572500Y-95588500D01*
G75*
G02*
X233372500Y-95788500I-200000J0D01*
G01*
X232972500Y-95788500D01*
G75*
G02*
X232772500Y-95588500I0J200000D01*
G01*
X232772500Y-95038500D01*
G75*
G02*
X232972500Y-94838500I200000J0D01*
G01*
X233372500Y-94838500D01*
G75*
G02*
X233572500Y-95038500I0J-200000D01*
G01*
G37*
G36*
G01*
X235222500Y-95038500D02*
X235222500Y-95588500D01*
G75*
G02*
X235022500Y-95788500I-200000J0D01*
G01*
X234622500Y-95788500D01*
G75*
G02*
X234422500Y-95588500I0J200000D01*
G01*
X234422500Y-95038500D01*
G75*
G02*
X234622500Y-94838500I200000J0D01*
G01*
X235022500Y-94838500D01*
G75*
G02*
X235222500Y-95038500I0J-200000D01*
G01*
G37*
G36*
G01*
X233636000Y-96880000D02*
X233636000Y-97430000D01*
G75*
G02*
X233436000Y-97630000I-200000J0D01*
G01*
X233036000Y-97630000D01*
G75*
G02*
X232836000Y-97430000I0J200000D01*
G01*
X232836000Y-96880000D01*
G75*
G02*
X233036000Y-96680000I200000J0D01*
G01*
X233436000Y-96680000D01*
G75*
G02*
X233636000Y-96880000I0J-200000D01*
G01*
G37*
G36*
G01*
X235286000Y-96880000D02*
X235286000Y-97430000D01*
G75*
G02*
X235086000Y-97630000I-200000J0D01*
G01*
X234686000Y-97630000D01*
G75*
G02*
X234486000Y-97430000I0J200000D01*
G01*
X234486000Y-96880000D01*
G75*
G02*
X234686000Y-96680000I200000J0D01*
G01*
X235086000Y-96680000D01*
G75*
G02*
X235286000Y-96880000I0J-200000D01*
G01*
G37*
G36*
G01*
X233636000Y-99166000D02*
X233636000Y-99716000D01*
G75*
G02*
X233436000Y-99916000I-200000J0D01*
G01*
X233036000Y-99916000D01*
G75*
G02*
X232836000Y-99716000I0J200000D01*
G01*
X232836000Y-99166000D01*
G75*
G02*
X233036000Y-98966000I200000J0D01*
G01*
X233436000Y-98966000D01*
G75*
G02*
X233636000Y-99166000I0J-200000D01*
G01*
G37*
G36*
G01*
X235286000Y-99166000D02*
X235286000Y-99716000D01*
G75*
G02*
X235086000Y-99916000I-200000J0D01*
G01*
X234686000Y-99916000D01*
G75*
G02*
X234486000Y-99716000I0J200000D01*
G01*
X234486000Y-99166000D01*
G75*
G02*
X234686000Y-98966000I200000J0D01*
G01*
X235086000Y-98966000D01*
G75*
G02*
X235286000Y-99166000I0J-200000D01*
G01*
G37*
G36*
G01*
X233636000Y-100690000D02*
X233636000Y-101240000D01*
G75*
G02*
X233436000Y-101440000I-200000J0D01*
G01*
X233036000Y-101440000D01*
G75*
G02*
X232836000Y-101240000I0J200000D01*
G01*
X232836000Y-100690000D01*
G75*
G02*
X233036000Y-100490000I200000J0D01*
G01*
X233436000Y-100490000D01*
G75*
G02*
X233636000Y-100690000I0J-200000D01*
G01*
G37*
G36*
G01*
X235286000Y-100690000D02*
X235286000Y-101240000D01*
G75*
G02*
X235086000Y-101440000I-200000J0D01*
G01*
X234686000Y-101440000D01*
G75*
G02*
X234486000Y-101240000I0J200000D01*
G01*
X234486000Y-100690000D01*
G75*
G02*
X234686000Y-100490000I200000J0D01*
G01*
X235086000Y-100490000D01*
G75*
G02*
X235286000Y-100690000I0J-200000D01*
G01*
G37*
G36*
G01*
X233636000Y-102214000D02*
X233636000Y-102764000D01*
G75*
G02*
X233436000Y-102964000I-200000J0D01*
G01*
X233036000Y-102964000D01*
G75*
G02*
X232836000Y-102764000I0J200000D01*
G01*
X232836000Y-102214000D01*
G75*
G02*
X233036000Y-102014000I200000J0D01*
G01*
X233436000Y-102014000D01*
G75*
G02*
X233636000Y-102214000I0J-200000D01*
G01*
G37*
G36*
G01*
X235286000Y-102214000D02*
X235286000Y-102764000D01*
G75*
G02*
X235086000Y-102964000I-200000J0D01*
G01*
X234686000Y-102964000D01*
G75*
G02*
X234486000Y-102764000I0J200000D01*
G01*
X234486000Y-102214000D01*
G75*
G02*
X234686000Y-102014000I200000J0D01*
G01*
X235086000Y-102014000D01*
G75*
G02*
X235286000Y-102214000I0J-200000D01*
G01*
G37*
G36*
G01*
X222484500Y-60981000D02*
X222484500Y-60431000D01*
G75*
G02*
X222684500Y-60231000I200000J0D01*
G01*
X223084500Y-60231000D01*
G75*
G02*
X223284500Y-60431000I0J-200000D01*
G01*
X223284500Y-60981000D01*
G75*
G02*
X223084500Y-61181000I-200000J0D01*
G01*
X222684500Y-61181000D01*
G75*
G02*
X222484500Y-60981000I0J200000D01*
G01*
G37*
G36*
G01*
X220834500Y-60981000D02*
X220834500Y-60431000D01*
G75*
G02*
X221034500Y-60231000I200000J0D01*
G01*
X221434500Y-60231000D01*
G75*
G02*
X221634500Y-60431000I0J-200000D01*
G01*
X221634500Y-60981000D01*
G75*
G02*
X221434500Y-61181000I-200000J0D01*
G01*
X221034500Y-61181000D01*
G75*
G02*
X220834500Y-60981000I0J200000D01*
G01*
G37*
G36*
G01*
X221634500Y-58907000D02*
X221634500Y-59457000D01*
G75*
G02*
X221434500Y-59657000I-200000J0D01*
G01*
X221034500Y-59657000D01*
G75*
G02*
X220834500Y-59457000I0J200000D01*
G01*
X220834500Y-58907000D01*
G75*
G02*
X221034500Y-58707000I200000J0D01*
G01*
X221434500Y-58707000D01*
G75*
G02*
X221634500Y-58907000I0J-200000D01*
G01*
G37*
G36*
G01*
X223284500Y-58907000D02*
X223284500Y-59457000D01*
G75*
G02*
X223084500Y-59657000I-200000J0D01*
G01*
X222684500Y-59657000D01*
G75*
G02*
X222484500Y-59457000I0J200000D01*
G01*
X222484500Y-58907000D01*
G75*
G02*
X222684500Y-58707000I200000J0D01*
G01*
X223084500Y-58707000D01*
G75*
G02*
X223284500Y-58907000I0J-200000D01*
G01*
G37*
G36*
G01*
X225926200Y-74481100D02*
X225926200Y-73931100D01*
G75*
G02*
X226126200Y-73731100I200000J0D01*
G01*
X226526200Y-73731100D01*
G75*
G02*
X226726200Y-73931100I0J-200000D01*
G01*
X226726200Y-74481100D01*
G75*
G02*
X226526200Y-74681100I-200000J0D01*
G01*
X226126200Y-74681100D01*
G75*
G02*
X225926200Y-74481100I0J200000D01*
G01*
G37*
G36*
G01*
X224276200Y-74481100D02*
X224276200Y-73931100D01*
G75*
G02*
X224476200Y-73731100I200000J0D01*
G01*
X224876200Y-73731100D01*
G75*
G02*
X225076200Y-73931100I0J-200000D01*
G01*
X225076200Y-74481100D01*
G75*
G02*
X224876200Y-74681100I-200000J0D01*
G01*
X224476200Y-74681100D01*
G75*
G02*
X224276200Y-74481100I0J200000D01*
G01*
G37*
G36*
G01*
X225076200Y-72343600D02*
X225076200Y-72893600D01*
G75*
G02*
X224876200Y-73093600I-200000J0D01*
G01*
X224476200Y-73093600D01*
G75*
G02*
X224276200Y-72893600I0J200000D01*
G01*
X224276200Y-72343600D01*
G75*
G02*
X224476200Y-72143600I200000J0D01*
G01*
X224876200Y-72143600D01*
G75*
G02*
X225076200Y-72343600I0J-200000D01*
G01*
G37*
G36*
G01*
X226726200Y-72343600D02*
X226726200Y-72893600D01*
G75*
G02*
X226526200Y-73093600I-200000J0D01*
G01*
X226126200Y-73093600D01*
G75*
G02*
X225926200Y-72893600I0J200000D01*
G01*
X225926200Y-72343600D01*
G75*
G02*
X226126200Y-72143600I200000J0D01*
G01*
X226526200Y-72143600D01*
G75*
G02*
X226726200Y-72343600I0J-200000D01*
G01*
G37*
G36*
G01*
X222484500Y-64664000D02*
X222484500Y-64114000D01*
G75*
G02*
X222684500Y-63914000I200000J0D01*
G01*
X223084500Y-63914000D01*
G75*
G02*
X223284500Y-64114000I0J-200000D01*
G01*
X223284500Y-64664000D01*
G75*
G02*
X223084500Y-64864000I-200000J0D01*
G01*
X222684500Y-64864000D01*
G75*
G02*
X222484500Y-64664000I0J200000D01*
G01*
G37*
G36*
G01*
X220834500Y-64664000D02*
X220834500Y-64114000D01*
G75*
G02*
X221034500Y-63914000I200000J0D01*
G01*
X221434500Y-63914000D01*
G75*
G02*
X221634500Y-64114000I0J-200000D01*
G01*
X221634500Y-64664000D01*
G75*
G02*
X221434500Y-64864000I-200000J0D01*
G01*
X221034500Y-64864000D01*
G75*
G02*
X220834500Y-64664000I0J200000D01*
G01*
G37*
G36*
G01*
X225926200Y-78799100D02*
X225926200Y-78249100D01*
G75*
G02*
X226126200Y-78049100I200000J0D01*
G01*
X226526200Y-78049100D01*
G75*
G02*
X226726200Y-78249100I0J-200000D01*
G01*
X226726200Y-78799100D01*
G75*
G02*
X226526200Y-78999100I-200000J0D01*
G01*
X226126200Y-78999100D01*
G75*
G02*
X225926200Y-78799100I0J200000D01*
G01*
G37*
G36*
G01*
X224276200Y-78799100D02*
X224276200Y-78249100D01*
G75*
G02*
X224476200Y-78049100I200000J0D01*
G01*
X224876200Y-78049100D01*
G75*
G02*
X225076200Y-78249100I0J-200000D01*
G01*
X225076200Y-78799100D01*
G75*
G02*
X224876200Y-78999100I-200000J0D01*
G01*
X224476200Y-78999100D01*
G75*
G02*
X224276200Y-78799100I0J200000D01*
G01*
G37*
G36*
G01*
X219158000Y-57256000D02*
X219158000Y-57806000D01*
G75*
G02*
X218958000Y-58006000I-200000J0D01*
G01*
X218558000Y-58006000D01*
G75*
G02*
X218358000Y-57806000I0J200000D01*
G01*
X218358000Y-57256000D01*
G75*
G02*
X218558000Y-57056000I200000J0D01*
G01*
X218958000Y-57056000D01*
G75*
G02*
X219158000Y-57256000I0J-200000D01*
G01*
G37*
G36*
G01*
X220808000Y-57256000D02*
X220808000Y-57806000D01*
G75*
G02*
X220608000Y-58006000I-200000J0D01*
G01*
X220208000Y-58006000D01*
G75*
G02*
X220008000Y-57806000I0J200000D01*
G01*
X220008000Y-57256000D01*
G75*
G02*
X220208000Y-57056000I200000J0D01*
G01*
X220608000Y-57056000D01*
G75*
G02*
X220808000Y-57256000I0J-200000D01*
G01*
G37*
G36*
G01*
X221964700Y-70527500D02*
X221964700Y-71077500D01*
G75*
G02*
X221764700Y-71277500I-200000J0D01*
G01*
X221364700Y-71277500D01*
G75*
G02*
X221164700Y-71077500I0J200000D01*
G01*
X221164700Y-70527500D01*
G75*
G02*
X221364700Y-70327500I200000J0D01*
G01*
X221764700Y-70327500D01*
G75*
G02*
X221964700Y-70527500I0J-200000D01*
G01*
G37*
G36*
G01*
X223614700Y-70527500D02*
X223614700Y-71077500D01*
G75*
G02*
X223414700Y-71277500I-200000J0D01*
G01*
X223014700Y-71277500D01*
G75*
G02*
X222814700Y-71077500I0J200000D01*
G01*
X222814700Y-70527500D01*
G75*
G02*
X223014700Y-70327500I200000J0D01*
G01*
X223414700Y-70327500D01*
G75*
G02*
X223614700Y-70527500I0J-200000D01*
G01*
G37*
G36*
G01*
X242003000Y-45492500D02*
X242003000Y-45693500D01*
G75*
G02*
X241923500Y-45773000I-79500J0D01*
G01*
X241764500Y-45773000D01*
G75*
G02*
X241685000Y-45693500I0J79500D01*
G01*
X241685000Y-45492500D01*
G75*
G02*
X241764500Y-45413000I79500J0D01*
G01*
X241923500Y-45413000D01*
G75*
G02*
X242003000Y-45492500I0J-79500D01*
G01*
G37*
G36*
G01*
X242693000Y-45492500D02*
X242693000Y-45693500D01*
G75*
G02*
X242613500Y-45773000I-79500J0D01*
G01*
X242454500Y-45773000D01*
G75*
G02*
X242375000Y-45693500I0J79500D01*
G01*
X242375000Y-45492500D01*
G75*
G02*
X242454500Y-45413000I79500J0D01*
G01*
X242613500Y-45413000D01*
G75*
G02*
X242693000Y-45492500I0J-79500D01*
G01*
G37*
G36*
G01*
X237940000Y-42658000D02*
X238310000Y-42658000D01*
G75*
G02*
X238445000Y-42793000I0J-135000D01*
G01*
X238445000Y-43063000D01*
G75*
G02*
X238310000Y-43198000I-135000J0D01*
G01*
X237940000Y-43198000D01*
G75*
G02*
X237805000Y-43063000I0J135000D01*
G01*
X237805000Y-42793000D01*
G75*
G02*
X237940000Y-42658000I135000J0D01*
G01*
G37*
G36*
G01*
X237940000Y-41638000D02*
X238310000Y-41638000D01*
G75*
G02*
X238445000Y-41773000I0J-135000D01*
G01*
X238445000Y-42043000D01*
G75*
G02*
X238310000Y-42178000I-135000J0D01*
G01*
X237940000Y-42178000D01*
G75*
G02*
X237805000Y-42043000I0J135000D01*
G01*
X237805000Y-41773000D01*
G75*
G02*
X237940000Y-41638000I135000J0D01*
G01*
G37*
G36*
G01*
X236670000Y-42658000D02*
X237040000Y-42658000D01*
G75*
G02*
X237175000Y-42793000I0J-135000D01*
G01*
X237175000Y-43063000D01*
G75*
G02*
X237040000Y-43198000I-135000J0D01*
G01*
X236670000Y-43198000D01*
G75*
G02*
X236535000Y-43063000I0J135000D01*
G01*
X236535000Y-42793000D01*
G75*
G02*
X236670000Y-42658000I135000J0D01*
G01*
G37*
G36*
G01*
X236670000Y-41638000D02*
X237040000Y-41638000D01*
G75*
G02*
X237175000Y-41773000I0J-135000D01*
G01*
X237175000Y-42043000D01*
G75*
G02*
X237040000Y-42178000I-135000J0D01*
G01*
X236670000Y-42178000D01*
G75*
G02*
X236535000Y-42043000I0J135000D01*
G01*
X236535000Y-41773000D01*
G75*
G02*
X236670000Y-41638000I135000J0D01*
G01*
G37*
G36*
G01*
X235400000Y-42658000D02*
X235770000Y-42658000D01*
G75*
G02*
X235905000Y-42793000I0J-135000D01*
G01*
X235905000Y-43063000D01*
G75*
G02*
X235770000Y-43198000I-135000J0D01*
G01*
X235400000Y-43198000D01*
G75*
G02*
X235265000Y-43063000I0J135000D01*
G01*
X235265000Y-42793000D01*
G75*
G02*
X235400000Y-42658000I135000J0D01*
G01*
G37*
G36*
G01*
X235400000Y-41638000D02*
X235770000Y-41638000D01*
G75*
G02*
X235905000Y-41773000I0J-135000D01*
G01*
X235905000Y-42043000D01*
G75*
G02*
X235770000Y-42178000I-135000J0D01*
G01*
X235400000Y-42178000D01*
G75*
G02*
X235265000Y-42043000I0J135000D01*
G01*
X235265000Y-41773000D01*
G75*
G02*
X235400000Y-41638000I135000J0D01*
G01*
G37*
G36*
G01*
X245433000Y-42658000D02*
X245803000Y-42658000D01*
G75*
G02*
X245938000Y-42793000I0J-135000D01*
G01*
X245938000Y-43063000D01*
G75*
G02*
X245803000Y-43198000I-135000J0D01*
G01*
X245433000Y-43198000D01*
G75*
G02*
X245298000Y-43063000I0J135000D01*
G01*
X245298000Y-42793000D01*
G75*
G02*
X245433000Y-42658000I135000J0D01*
G01*
G37*
G36*
G01*
X245433000Y-41638000D02*
X245803000Y-41638000D01*
G75*
G02*
X245938000Y-41773000I0J-135000D01*
G01*
X245938000Y-42043000D01*
G75*
G02*
X245803000Y-42178000I-135000J0D01*
G01*
X245433000Y-42178000D01*
G75*
G02*
X245298000Y-42043000I0J135000D01*
G01*
X245298000Y-41773000D01*
G75*
G02*
X245433000Y-41638000I135000J0D01*
G01*
G37*
G36*
G01*
X244163000Y-42658000D02*
X244533000Y-42658000D01*
G75*
G02*
X244668000Y-42793000I0J-135000D01*
G01*
X244668000Y-43063000D01*
G75*
G02*
X244533000Y-43198000I-135000J0D01*
G01*
X244163000Y-43198000D01*
G75*
G02*
X244028000Y-43063000I0J135000D01*
G01*
X244028000Y-42793000D01*
G75*
G02*
X244163000Y-42658000I135000J0D01*
G01*
G37*
G36*
G01*
X244163000Y-41638000D02*
X244533000Y-41638000D01*
G75*
G02*
X244668000Y-41773000I0J-135000D01*
G01*
X244668000Y-42043000D01*
G75*
G02*
X244533000Y-42178000I-135000J0D01*
G01*
X244163000Y-42178000D01*
G75*
G02*
X244028000Y-42043000I0J135000D01*
G01*
X244028000Y-41773000D01*
G75*
G02*
X244163000Y-41638000I135000J0D01*
G01*
G37*
G36*
G01*
X242893000Y-42658000D02*
X243263000Y-42658000D01*
G75*
G02*
X243398000Y-42793000I0J-135000D01*
G01*
X243398000Y-43063000D01*
G75*
G02*
X243263000Y-43198000I-135000J0D01*
G01*
X242893000Y-43198000D01*
G75*
G02*
X242758000Y-43063000I0J135000D01*
G01*
X242758000Y-42793000D01*
G75*
G02*
X242893000Y-42658000I135000J0D01*
G01*
G37*
G36*
G01*
X242893000Y-41638000D02*
X243263000Y-41638000D01*
G75*
G02*
X243398000Y-41773000I0J-135000D01*
G01*
X243398000Y-42043000D01*
G75*
G02*
X243263000Y-42178000I-135000J0D01*
G01*
X242893000Y-42178000D01*
G75*
G02*
X242758000Y-42043000I0J135000D01*
G01*
X242758000Y-41773000D01*
G75*
G02*
X242893000Y-41638000I135000J0D01*
G01*
G37*
G36*
G01*
X230447000Y-42721500D02*
X230817000Y-42721500D01*
G75*
G02*
X230952000Y-42856500I0J-135000D01*
G01*
X230952000Y-43126500D01*
G75*
G02*
X230817000Y-43261500I-135000J0D01*
G01*
X230447000Y-43261500D01*
G75*
G02*
X230312000Y-43126500I0J135000D01*
G01*
X230312000Y-42856500D01*
G75*
G02*
X230447000Y-42721500I135000J0D01*
G01*
G37*
G36*
G01*
X230447000Y-41701500D02*
X230817000Y-41701500D01*
G75*
G02*
X230952000Y-41836500I0J-135000D01*
G01*
X230952000Y-42106500D01*
G75*
G02*
X230817000Y-42241500I-135000J0D01*
G01*
X230447000Y-42241500D01*
G75*
G02*
X230312000Y-42106500I0J135000D01*
G01*
X230312000Y-41836500D01*
G75*
G02*
X230447000Y-41701500I135000J0D01*
G01*
G37*
G36*
G01*
X229177000Y-42721500D02*
X229547000Y-42721500D01*
G75*
G02*
X229682000Y-42856500I0J-135000D01*
G01*
X229682000Y-43126500D01*
G75*
G02*
X229547000Y-43261500I-135000J0D01*
G01*
X229177000Y-43261500D01*
G75*
G02*
X229042000Y-43126500I0J135000D01*
G01*
X229042000Y-42856500D01*
G75*
G02*
X229177000Y-42721500I135000J0D01*
G01*
G37*
G36*
G01*
X229177000Y-41701500D02*
X229547000Y-41701500D01*
G75*
G02*
X229682000Y-41836500I0J-135000D01*
G01*
X229682000Y-42106500D01*
G75*
G02*
X229547000Y-42241500I-135000J0D01*
G01*
X229177000Y-42241500D01*
G75*
G02*
X229042000Y-42106500I0J135000D01*
G01*
X229042000Y-41836500D01*
G75*
G02*
X229177000Y-41701500I135000J0D01*
G01*
G37*
G36*
G01*
X227907000Y-42721500D02*
X228277000Y-42721500D01*
G75*
G02*
X228412000Y-42856500I0J-135000D01*
G01*
X228412000Y-43126500D01*
G75*
G02*
X228277000Y-43261500I-135000J0D01*
G01*
X227907000Y-43261500D01*
G75*
G02*
X227772000Y-43126500I0J135000D01*
G01*
X227772000Y-42856500D01*
G75*
G02*
X227907000Y-42721500I135000J0D01*
G01*
G37*
G36*
G01*
X227907000Y-41701500D02*
X228277000Y-41701500D01*
G75*
G02*
X228412000Y-41836500I0J-135000D01*
G01*
X228412000Y-42106500D01*
G75*
G02*
X228277000Y-42241500I-135000J0D01*
G01*
X227907000Y-42241500D01*
G75*
G02*
X227772000Y-42106500I0J135000D01*
G01*
X227772000Y-41836500D01*
G75*
G02*
X227907000Y-41701500I135000J0D01*
G01*
G37*
G36*
G01*
X224414500Y-41705500D02*
X224784500Y-41705500D01*
G75*
G02*
X224919500Y-41840500I0J-135000D01*
G01*
X224919500Y-42110500D01*
G75*
G02*
X224784500Y-42245500I-135000J0D01*
G01*
X224414500Y-42245500D01*
G75*
G02*
X224279500Y-42110500I0J135000D01*
G01*
X224279500Y-41840500D01*
G75*
G02*
X224414500Y-41705500I135000J0D01*
G01*
G37*
G36*
G01*
X224414500Y-40685500D02*
X224784500Y-40685500D01*
G75*
G02*
X224919500Y-40820500I0J-135000D01*
G01*
X224919500Y-41090500D01*
G75*
G02*
X224784500Y-41225500I-135000J0D01*
G01*
X224414500Y-41225500D01*
G75*
G02*
X224279500Y-41090500I0J135000D01*
G01*
X224279500Y-40820500D01*
G75*
G02*
X224414500Y-40685500I135000J0D01*
G01*
G37*
G36*
G01*
X211971200Y-76529100D02*
X211971200Y-76328100D01*
G75*
G02*
X212050700Y-76248600I79500J0D01*
G01*
X212209700Y-76248600D01*
G75*
G02*
X212289200Y-76328100I0J-79500D01*
G01*
X212289200Y-76529100D01*
G75*
G02*
X212209700Y-76608600I-79500J0D01*
G01*
X212050700Y-76608600D01*
G75*
G02*
X211971200Y-76529100I0J79500D01*
G01*
G37*
G36*
G01*
X211281200Y-76529100D02*
X211281200Y-76328100D01*
G75*
G02*
X211360700Y-76248600I79500J0D01*
G01*
X211519700Y-76248600D01*
G75*
G02*
X211599200Y-76328100I0J-79500D01*
G01*
X211599200Y-76529100D01*
G75*
G02*
X211519700Y-76608600I-79500J0D01*
G01*
X211360700Y-76608600D01*
G75*
G02*
X211281200Y-76529100I0J79500D01*
G01*
G37*
G36*
G01*
X211971200Y-77354600D02*
X211971200Y-77153600D01*
G75*
G02*
X212050700Y-77074100I79500J0D01*
G01*
X212209700Y-77074100D01*
G75*
G02*
X212289200Y-77153600I0J-79500D01*
G01*
X212289200Y-77354600D01*
G75*
G02*
X212209700Y-77434100I-79500J0D01*
G01*
X212050700Y-77434100D01*
G75*
G02*
X211971200Y-77354600I0J79500D01*
G01*
G37*
G36*
G01*
X211281200Y-77354600D02*
X211281200Y-77153600D01*
G75*
G02*
X211360700Y-77074100I79500J0D01*
G01*
X211519700Y-77074100D01*
G75*
G02*
X211599200Y-77153600I0J-79500D01*
G01*
X211599200Y-77354600D01*
G75*
G02*
X211519700Y-77434100I-79500J0D01*
G01*
X211360700Y-77434100D01*
G75*
G02*
X211281200Y-77354600I0J79500D01*
G01*
G37*
G36*
G01*
X239336000Y-108255900D02*
X239336000Y-108456900D01*
G75*
G02*
X239256500Y-108536400I-79500J0D01*
G01*
X239097500Y-108536400D01*
G75*
G02*
X239018000Y-108456900I0J79500D01*
G01*
X239018000Y-108255900D01*
G75*
G02*
X239097500Y-108176400I79500J0D01*
G01*
X239256500Y-108176400D01*
G75*
G02*
X239336000Y-108255900I0J-79500D01*
G01*
G37*
G36*
G01*
X240026000Y-108255900D02*
X240026000Y-108456900D01*
G75*
G02*
X239946500Y-108536400I-79500J0D01*
G01*
X239787500Y-108536400D01*
G75*
G02*
X239708000Y-108456900I0J79500D01*
G01*
X239708000Y-108255900D01*
G75*
G02*
X239787500Y-108176400I79500J0D01*
G01*
X239946500Y-108176400D01*
G75*
G02*
X240026000Y-108255900I0J-79500D01*
G01*
G37*
G36*
G01*
X212209500Y-67441000D02*
X212209500Y-67941000D01*
G75*
G02*
X211984500Y-68166000I-225000J0D01*
G01*
X211534500Y-68166000D01*
G75*
G02*
X211309500Y-67941000I0J225000D01*
G01*
X211309500Y-67441000D01*
G75*
G02*
X211534500Y-67216000I225000J0D01*
G01*
X211984500Y-67216000D01*
G75*
G02*
X212209500Y-67441000I0J-225000D01*
G01*
G37*
G36*
G01*
X213759500Y-67441000D02*
X213759500Y-67941000D01*
G75*
G02*
X213534500Y-68166000I-225000J0D01*
G01*
X213084500Y-68166000D01*
G75*
G02*
X212859500Y-67941000I0J225000D01*
G01*
X212859500Y-67441000D01*
G75*
G02*
X213084500Y-67216000I225000J0D01*
G01*
X213534500Y-67216000D01*
G75*
G02*
X213759500Y-67441000I0J-225000D01*
G01*
G37*
G36*
G01*
X219124700Y-69829100D02*
X218923700Y-69829100D01*
G75*
G02*
X218844200Y-69749600I0J79500D01*
G01*
X218844200Y-69590600D01*
G75*
G02*
X218923700Y-69511100I79500J0D01*
G01*
X219124700Y-69511100D01*
G75*
G02*
X219204200Y-69590600I0J-79500D01*
G01*
X219204200Y-69749600D01*
G75*
G02*
X219124700Y-69829100I-79500J0D01*
G01*
G37*
G36*
G01*
X219124700Y-70519100D02*
X218923700Y-70519100D01*
G75*
G02*
X218844200Y-70439600I0J79500D01*
G01*
X218844200Y-70280600D01*
G75*
G02*
X218923700Y-70201100I79500J0D01*
G01*
X219124700Y-70201100D01*
G75*
G02*
X219204200Y-70280600I0J-79500D01*
G01*
X219204200Y-70439600D01*
G75*
G02*
X219124700Y-70519100I-79500J0D01*
G01*
G37*
G36*
G01*
X217940200Y-76275100D02*
X217940200Y-76074100D01*
G75*
G02*
X218019700Y-75994600I79500J0D01*
G01*
X218178700Y-75994600D01*
G75*
G02*
X218258200Y-76074100I0J-79500D01*
G01*
X218258200Y-76275100D01*
G75*
G02*
X218178700Y-76354600I-79500J0D01*
G01*
X218019700Y-76354600D01*
G75*
G02*
X217940200Y-76275100I0J79500D01*
G01*
G37*
G36*
G01*
X217250200Y-76275100D02*
X217250200Y-76074100D01*
G75*
G02*
X217329700Y-75994600I79500J0D01*
G01*
X217488700Y-75994600D01*
G75*
G02*
X217568200Y-76074100I0J-79500D01*
G01*
X217568200Y-76275100D01*
G75*
G02*
X217488700Y-76354600I-79500J0D01*
G01*
X217329700Y-76354600D01*
G75*
G02*
X217250200Y-76275100I0J79500D01*
G01*
G37*
G36*
G01*
X215908200Y-68147100D02*
X215908200Y-67946100D01*
G75*
G02*
X215987700Y-67866600I79500J0D01*
G01*
X216146700Y-67866600D01*
G75*
G02*
X216226200Y-67946100I0J-79500D01*
G01*
X216226200Y-68147100D01*
G75*
G02*
X216146700Y-68226600I-79500J0D01*
G01*
X215987700Y-68226600D01*
G75*
G02*
X215908200Y-68147100I0J79500D01*
G01*
G37*
G36*
G01*
X215218200Y-68147100D02*
X215218200Y-67946100D01*
G75*
G02*
X215297700Y-67866600I79500J0D01*
G01*
X215456700Y-67866600D01*
G75*
G02*
X215536200Y-67946100I0J-79500D01*
G01*
X215536200Y-68147100D01*
G75*
G02*
X215456700Y-68226600I-79500J0D01*
G01*
X215297700Y-68226600D01*
G75*
G02*
X215218200Y-68147100I0J79500D01*
G01*
G37*
G36*
G01*
X219028200Y-78531600D02*
X219528200Y-78531600D01*
G75*
G02*
X219753200Y-78756600I0J-225000D01*
G01*
X219753200Y-79206600D01*
G75*
G02*
X219528200Y-79431600I-225000J0D01*
G01*
X219028200Y-79431600D01*
G75*
G02*
X218803200Y-79206600I0J225000D01*
G01*
X218803200Y-78756600D01*
G75*
G02*
X219028200Y-78531600I225000J0D01*
G01*
G37*
G36*
G01*
X219028200Y-76981600D02*
X219528200Y-76981600D01*
G75*
G02*
X219753200Y-77206600I0J-225000D01*
G01*
X219753200Y-77656600D01*
G75*
G02*
X219528200Y-77881600I-225000J0D01*
G01*
X219028200Y-77881600D01*
G75*
G02*
X218803200Y-77656600I0J225000D01*
G01*
X218803200Y-77206600D01*
G75*
G02*
X219028200Y-76981600I225000J0D01*
G01*
G37*
G36*
G01*
X209960400Y-77337800D02*
X210460400Y-77337800D01*
G75*
G02*
X210685400Y-77562800I0J-225000D01*
G01*
X210685400Y-78012800D01*
G75*
G02*
X210460400Y-78237800I-225000J0D01*
G01*
X209960400Y-78237800D01*
G75*
G02*
X209735400Y-78012800I0J225000D01*
G01*
X209735400Y-77562800D01*
G75*
G02*
X209960400Y-77337800I225000J0D01*
G01*
G37*
G36*
G01*
X209960400Y-75787800D02*
X210460400Y-75787800D01*
G75*
G02*
X210685400Y-76012800I0J-225000D01*
G01*
X210685400Y-76462800D01*
G75*
G02*
X210460400Y-76687800I-225000J0D01*
G01*
X209960400Y-76687800D01*
G75*
G02*
X209735400Y-76462800I0J225000D01*
G01*
X209735400Y-76012800D01*
G75*
G02*
X209960400Y-75787800I225000J0D01*
G01*
G37*
G36*
G01*
X234637000Y-98197500D02*
X234637000Y-98398500D01*
G75*
G02*
X234557500Y-98478000I-79500J0D01*
G01*
X234398500Y-98478000D01*
G75*
G02*
X234319000Y-98398500I0J79500D01*
G01*
X234319000Y-98197500D01*
G75*
G02*
X234398500Y-98118000I79500J0D01*
G01*
X234557500Y-98118000D01*
G75*
G02*
X234637000Y-98197500I0J-79500D01*
G01*
G37*
G36*
G01*
X235327000Y-98197500D02*
X235327000Y-98398500D01*
G75*
G02*
X235247500Y-98478000I-79500J0D01*
G01*
X235088500Y-98478000D01*
G75*
G02*
X235009000Y-98398500I0J79500D01*
G01*
X235009000Y-98197500D01*
G75*
G02*
X235088500Y-98118000I79500J0D01*
G01*
X235247500Y-98118000D01*
G75*
G02*
X235327000Y-98197500I0J-79500D01*
G01*
G37*
G36*
G01*
X218635000Y-58573500D02*
X218635000Y-58774500D01*
G75*
G02*
X218555500Y-58854000I-79500J0D01*
G01*
X218396500Y-58854000D01*
G75*
G02*
X218317000Y-58774500I0J79500D01*
G01*
X218317000Y-58573500D01*
G75*
G02*
X218396500Y-58494000I79500J0D01*
G01*
X218555500Y-58494000D01*
G75*
G02*
X218635000Y-58573500I0J-79500D01*
G01*
G37*
G36*
G01*
X219325000Y-58573500D02*
X219325000Y-58774500D01*
G75*
G02*
X219245500Y-58854000I-79500J0D01*
G01*
X219086500Y-58854000D01*
G75*
G02*
X219007000Y-58774500I0J79500D01*
G01*
X219007000Y-58573500D01*
G75*
G02*
X219086500Y-58494000I79500J0D01*
G01*
X219245500Y-58494000D01*
G75*
G02*
X219325000Y-58573500I0J-79500D01*
G01*
G37*
G36*
G01*
X223292500Y-72576000D02*
X223493500Y-72576000D01*
G75*
G02*
X223573000Y-72655500I0J-79500D01*
G01*
X223573000Y-72814500D01*
G75*
G02*
X223493500Y-72894000I-79500J0D01*
G01*
X223292500Y-72894000D01*
G75*
G02*
X223213000Y-72814500I0J79500D01*
G01*
X223213000Y-72655500D01*
G75*
G02*
X223292500Y-72576000I79500J0D01*
G01*
G37*
G36*
G01*
X223292500Y-71886000D02*
X223493500Y-71886000D01*
G75*
G02*
X223573000Y-71965500I0J-79500D01*
G01*
X223573000Y-72124500D01*
G75*
G02*
X223493500Y-72204000I-79500J0D01*
G01*
X223292500Y-72204000D01*
G75*
G02*
X223213000Y-72124500I0J79500D01*
G01*
X223213000Y-71965500D01*
G75*
G02*
X223292500Y-71886000I79500J0D01*
G01*
G37*
G36*
G01*
X219056500Y-62150000D02*
X218636500Y-62150000D01*
G75*
G02*
X218466500Y-61980000I0J170000D01*
G01*
X218466500Y-61640000D01*
G75*
G02*
X218636500Y-61470000I170000J0D01*
G01*
X219056500Y-61470000D01*
G75*
G02*
X219226500Y-61640000I0J-170000D01*
G01*
X219226500Y-61980000D01*
G75*
G02*
X219056500Y-62150000I-170000J0D01*
G01*
G37*
G36*
G01*
X218116500Y-62150000D02*
X217696500Y-62150000D01*
G75*
G02*
X217526500Y-61980000I0J170000D01*
G01*
X217526500Y-61640000D01*
G75*
G02*
X217696500Y-61470000I170000J0D01*
G01*
X218116500Y-61470000D01*
G75*
G02*
X218286500Y-61640000I0J-170000D01*
G01*
X218286500Y-61980000D01*
G75*
G02*
X218116500Y-62150000I-170000J0D01*
G01*
G37*
G36*
G01*
X219056500Y-62990000D02*
X218636500Y-62990000D01*
G75*
G02*
X218466500Y-62820000I0J170000D01*
G01*
X218466500Y-62480000D01*
G75*
G02*
X218636500Y-62310000I170000J0D01*
G01*
X219056500Y-62310000D01*
G75*
G02*
X219226500Y-62480000I0J-170000D01*
G01*
X219226500Y-62820000D01*
G75*
G02*
X219056500Y-62990000I-170000J0D01*
G01*
G37*
G36*
G01*
X218116500Y-62990000D02*
X217696500Y-62990000D01*
G75*
G02*
X217526500Y-62820000I0J170000D01*
G01*
X217526500Y-62480000D01*
G75*
G02*
X217696500Y-62310000I170000J0D01*
G01*
X218116500Y-62310000D01*
G75*
G02*
X218286500Y-62480000I0J-170000D01*
G01*
X218286500Y-62820000D01*
G75*
G02*
X218116500Y-62990000I-170000J0D01*
G01*
G37*
G36*
G01*
X217451500Y-60805000D02*
X217301500Y-60805000D01*
G75*
G02*
X217226500Y-60730000I0J75000D01*
G01*
X217226500Y-59430000D01*
G75*
G02*
X217301500Y-59355000I75000J0D01*
G01*
X217451500Y-59355000D01*
G75*
G02*
X217526500Y-59430000I0J-75000D01*
G01*
X217526500Y-60730000D01*
G75*
G02*
X217451500Y-60805000I-75000J0D01*
G01*
G37*
G36*
G01*
X217951500Y-60805000D02*
X217801500Y-60805000D01*
G75*
G02*
X217726500Y-60730000I0J75000D01*
G01*
X217726500Y-59430000D01*
G75*
G02*
X217801500Y-59355000I75000J0D01*
G01*
X217951500Y-59355000D01*
G75*
G02*
X218026500Y-59430000I0J-75000D01*
G01*
X218026500Y-60730000D01*
G75*
G02*
X217951500Y-60805000I-75000J0D01*
G01*
G37*
G36*
G01*
X218451500Y-60805000D02*
X218301500Y-60805000D01*
G75*
G02*
X218226500Y-60730000I0J75000D01*
G01*
X218226500Y-59430000D01*
G75*
G02*
X218301500Y-59355000I75000J0D01*
G01*
X218451500Y-59355000D01*
G75*
G02*
X218526500Y-59430000I0J-75000D01*
G01*
X218526500Y-60730000D01*
G75*
G02*
X218451500Y-60805000I-75000J0D01*
G01*
G37*
G36*
G01*
X218951500Y-60805000D02*
X218801500Y-60805000D01*
G75*
G02*
X218726500Y-60730000I0J75000D01*
G01*
X218726500Y-59430000D01*
G75*
G02*
X218801500Y-59355000I75000J0D01*
G01*
X218951500Y-59355000D01*
G75*
G02*
X219026500Y-59430000I0J-75000D01*
G01*
X219026500Y-60730000D01*
G75*
G02*
X218951500Y-60805000I-75000J0D01*
G01*
G37*
G36*
G01*
X219451500Y-60805000D02*
X219301500Y-60805000D01*
G75*
G02*
X219226500Y-60730000I0J75000D01*
G01*
X219226500Y-59430000D01*
G75*
G02*
X219301500Y-59355000I75000J0D01*
G01*
X219451500Y-59355000D01*
G75*
G02*
X219526500Y-59430000I0J-75000D01*
G01*
X219526500Y-60730000D01*
G75*
G02*
X219451500Y-60805000I-75000J0D01*
G01*
G37*
G36*
G01*
X219451500Y-65105000D02*
X219301500Y-65105000D01*
G75*
G02*
X219226500Y-65030000I0J75000D01*
G01*
X219226500Y-63730000D01*
G75*
G02*
X219301500Y-63655000I75000J0D01*
G01*
X219451500Y-63655000D01*
G75*
G02*
X219526500Y-63730000I0J-75000D01*
G01*
X219526500Y-65030000D01*
G75*
G02*
X219451500Y-65105000I-75000J0D01*
G01*
G37*
G36*
G01*
X218951500Y-65105000D02*
X218801500Y-65105000D01*
G75*
G02*
X218726500Y-65030000I0J75000D01*
G01*
X218726500Y-63730000D01*
G75*
G02*
X218801500Y-63655000I75000J0D01*
G01*
X218951500Y-63655000D01*
G75*
G02*
X219026500Y-63730000I0J-75000D01*
G01*
X219026500Y-65030000D01*
G75*
G02*
X218951500Y-65105000I-75000J0D01*
G01*
G37*
G36*
G01*
X218451500Y-65105000D02*
X218301500Y-65105000D01*
G75*
G02*
X218226500Y-65030000I0J75000D01*
G01*
X218226500Y-63730000D01*
G75*
G02*
X218301500Y-63655000I75000J0D01*
G01*
X218451500Y-63655000D01*
G75*
G02*
X218526500Y-63730000I0J-75000D01*
G01*
X218526500Y-65030000D01*
G75*
G02*
X218451500Y-65105000I-75000J0D01*
G01*
G37*
G36*
G01*
X217951500Y-65105000D02*
X217801500Y-65105000D01*
G75*
G02*
X217726500Y-65030000I0J75000D01*
G01*
X217726500Y-63730000D01*
G75*
G02*
X217801500Y-63655000I75000J0D01*
G01*
X217951500Y-63655000D01*
G75*
G02*
X218026500Y-63730000I0J-75000D01*
G01*
X218026500Y-65030000D01*
G75*
G02*
X217951500Y-65105000I-75000J0D01*
G01*
G37*
G36*
G01*
X217451500Y-65105000D02*
X217301500Y-65105000D01*
G75*
G02*
X217226500Y-65030000I0J75000D01*
G01*
X217226500Y-63730000D01*
G75*
G02*
X217301500Y-63655000I75000J0D01*
G01*
X217451500Y-63655000D01*
G75*
G02*
X217526500Y-63730000I0J-75000D01*
G01*
X217526500Y-65030000D01*
G75*
G02*
X217451500Y-65105000I-75000J0D01*
G01*
G37*
M02*
