G04 #@! TF.GenerationSoftware,KiCad,Pcbnew,5.1.10*
G04 #@! TF.CreationDate,2021-08-05T15:26:38-04:00*
G04 #@! TF.ProjectId,mist-eeg,6d697374-2d65-4656-972e-6b696361645f,1E*
G04 #@! TF.SameCoordinates,Original*
G04 #@! TF.FileFunction,Soldermask,Bot*
G04 #@! TF.FilePolarity,Negative*
%FSLAX46Y46*%
G04 Gerber Fmt 4.6, Leading zero omitted, Abs format (unit mm)*
G04 Created by KiCad (PCBNEW 5.1.10) date 2021-08-05 15:26:38*
%MOMM*%
%LPD*%
G01*
G04 APERTURE LIST*
%ADD10O,1.500000X2.500000*%
%ADD11R,1.500000X2.500000*%
%ADD12O,2.500000X1.500000*%
%ADD13R,2.500000X1.500000*%
%ADD14O,1.700000X1.700000*%
%ADD15R,1.700000X1.700000*%
%ADD16C,3.000000*%
%ADD17R,3.000000X3.000000*%
%ADD18O,2.800000X1.800000*%
%ADD19C,1.800000*%
%ADD20R,1.800000X1.800000*%
%ADD21C,1.000000*%
%ADD22O,1.000000X1.000000*%
%ADD23R,1.000000X1.000000*%
%ADD24R,1.700000X1.000000*%
%ADD25C,0.212500*%
%ADD26R,2.700000X1.700000*%
%ADD27R,0.250000X0.700000*%
%ADD28R,0.700000X0.250000*%
%ADD29O,1.070000X1.800000*%
%ADD30R,1.070000X1.800000*%
%ADD31R,2.500000X1.800000*%
G04 APERTURE END LIST*
D10*
X208334500Y-87219500D03*
X210874500Y-87219500D03*
D11*
X213414500Y-87219500D03*
D12*
X218621500Y-94204500D03*
X218621500Y-96744500D03*
D13*
X218621500Y-99284500D03*
D14*
X204905500Y-46008000D03*
X202365500Y-46008000D03*
X204905500Y-43468000D03*
D15*
X202365500Y-43468000D03*
D16*
X203327000Y-94170500D03*
D17*
X203327000Y-99250500D03*
G36*
G01*
X210247001Y-98584000D02*
X205296999Y-98584000D01*
G75*
G02*
X205047000Y-98334001I0J249999D01*
G01*
X205047000Y-96908999D01*
G75*
G02*
X205296999Y-96659000I249999J0D01*
G01*
X210247001Y-96659000D01*
G75*
G02*
X210497000Y-96908999I0J-249999D01*
G01*
X210497000Y-98334001D01*
G75*
G02*
X210247001Y-98584000I-249999J0D01*
G01*
G37*
G36*
G01*
X210247001Y-91809000D02*
X205296999Y-91809000D01*
G75*
G02*
X205047000Y-91559001I0J249999D01*
G01*
X205047000Y-90133999D01*
G75*
G02*
X205296999Y-89884000I249999J0D01*
G01*
X210247001Y-89884000D01*
G75*
G02*
X210497000Y-90133999I0J-249999D01*
G01*
X210497000Y-91559001D01*
G75*
G02*
X210247001Y-91809000I-249999J0D01*
G01*
G37*
G36*
G01*
X239701500Y-74210999D02*
X239701500Y-76411001D01*
G75*
G02*
X239451501Y-76661000I-249999J0D01*
G01*
X238801499Y-76661000D01*
G75*
G02*
X238551500Y-76411001I0J249999D01*
G01*
X238551500Y-74210999D01*
G75*
G02*
X238801499Y-73961000I249999J0D01*
G01*
X239451501Y-73961000D01*
G75*
G02*
X239701500Y-74210999I0J-249999D01*
G01*
G37*
G36*
G01*
X242651500Y-74210999D02*
X242651500Y-76411001D01*
G75*
G02*
X242401501Y-76661000I-249999J0D01*
G01*
X241751499Y-76661000D01*
G75*
G02*
X241501500Y-76411001I0J249999D01*
G01*
X241501500Y-74210999D01*
G75*
G02*
X241751499Y-73961000I249999J0D01*
G01*
X242401501Y-73961000D01*
G75*
G02*
X242651500Y-74210999I0J-249999D01*
G01*
G37*
G36*
G01*
X216261000Y-73321999D02*
X216261000Y-75522001D01*
G75*
G02*
X216011001Y-75772000I-249999J0D01*
G01*
X215360999Y-75772000D01*
G75*
G02*
X215111000Y-75522001I0J249999D01*
G01*
X215111000Y-73321999D01*
G75*
G02*
X215360999Y-73072000I249999J0D01*
G01*
X216011001Y-73072000D01*
G75*
G02*
X216261000Y-73321999I0J-249999D01*
G01*
G37*
G36*
G01*
X219211000Y-73321999D02*
X219211000Y-75522001D01*
G75*
G02*
X218961001Y-75772000I-249999J0D01*
G01*
X218310999Y-75772000D01*
G75*
G02*
X218061000Y-75522001I0J249999D01*
G01*
X218061000Y-73321999D01*
G75*
G02*
X218310999Y-73072000I249999J0D01*
G01*
X218961001Y-73072000D01*
G75*
G02*
X219211000Y-73321999I0J-249999D01*
G01*
G37*
G36*
G01*
X217190501Y-47017100D02*
X214990499Y-47017100D01*
G75*
G02*
X214740500Y-46767101I0J249999D01*
G01*
X214740500Y-46117099D01*
G75*
G02*
X214990499Y-45867100I249999J0D01*
G01*
X217190501Y-45867100D01*
G75*
G02*
X217440500Y-46117099I0J-249999D01*
G01*
X217440500Y-46767101D01*
G75*
G02*
X217190501Y-47017100I-249999J0D01*
G01*
G37*
G36*
G01*
X217190501Y-49967100D02*
X214990499Y-49967100D01*
G75*
G02*
X214740500Y-49717101I0J249999D01*
G01*
X214740500Y-49067099D01*
G75*
G02*
X214990499Y-48817100I249999J0D01*
G01*
X217190501Y-48817100D01*
G75*
G02*
X217440500Y-49067099I0J-249999D01*
G01*
X217440500Y-49717101D01*
G75*
G02*
X217190501Y-49967100I-249999J0D01*
G01*
G37*
G36*
G01*
X215730001Y-40540100D02*
X213529999Y-40540100D01*
G75*
G02*
X213280000Y-40290101I0J249999D01*
G01*
X213280000Y-39640099D01*
G75*
G02*
X213529999Y-39390100I249999J0D01*
G01*
X215730001Y-39390100D01*
G75*
G02*
X215980000Y-39640099I0J-249999D01*
G01*
X215980000Y-40290101D01*
G75*
G02*
X215730001Y-40540100I-249999J0D01*
G01*
G37*
G36*
G01*
X215730001Y-43490100D02*
X213529999Y-43490100D01*
G75*
G02*
X213280000Y-43240101I0J249999D01*
G01*
X213280000Y-42590099D01*
G75*
G02*
X213529999Y-42340100I249999J0D01*
G01*
X215730001Y-42340100D01*
G75*
G02*
X215980000Y-42590099I0J-249999D01*
G01*
X215980000Y-43240101D01*
G75*
G02*
X215730001Y-43490100I-249999J0D01*
G01*
G37*
G36*
G01*
X213730000Y-93735997D02*
X213730000Y-94986003D01*
G75*
G02*
X213480003Y-95236000I-249997J0D01*
G01*
X212854997Y-95236000D01*
G75*
G02*
X212605000Y-94986003I0J249997D01*
G01*
X212605000Y-93735997D01*
G75*
G02*
X212854997Y-93486000I249997J0D01*
G01*
X213480003Y-93486000D01*
G75*
G02*
X213730000Y-93735997I0J-249997D01*
G01*
G37*
G36*
G01*
X216655000Y-93735997D02*
X216655000Y-94986003D01*
G75*
G02*
X216405003Y-95236000I-249997J0D01*
G01*
X215779997Y-95236000D01*
G75*
G02*
X215530000Y-94986003I0J249997D01*
G01*
X215530000Y-93735997D01*
G75*
G02*
X215779997Y-93486000I249997J0D01*
G01*
X216405003Y-93486000D01*
G75*
G02*
X216655000Y-93735997I0J-249997D01*
G01*
G37*
D18*
X217773000Y-43523500D03*
X217773000Y-38023500D03*
X215773000Y-35623500D03*
D16*
X245750000Y-52250000D03*
X202250000Y-87750000D03*
D19*
X201612500Y-104267000D03*
D20*
X201612500Y-106807000D03*
G36*
G01*
X234659000Y-95540500D02*
X234659000Y-95340500D01*
G75*
G02*
X234759000Y-95240500I100000J0D01*
G01*
X235019000Y-95240500D01*
G75*
G02*
X235119000Y-95340500I0J-100000D01*
G01*
X235119000Y-95540500D01*
G75*
G02*
X235019000Y-95640500I-100000J0D01*
G01*
X234759000Y-95640500D01*
G75*
G02*
X234659000Y-95540500I0J100000D01*
G01*
G37*
G36*
G01*
X234019000Y-95540500D02*
X234019000Y-95340500D01*
G75*
G02*
X234119000Y-95240500I100000J0D01*
G01*
X234379000Y-95240500D01*
G75*
G02*
X234479000Y-95340500I0J-100000D01*
G01*
X234479000Y-95540500D01*
G75*
G02*
X234379000Y-95640500I-100000J0D01*
G01*
X234119000Y-95640500D01*
G75*
G02*
X234019000Y-95540500I0J100000D01*
G01*
G37*
G36*
G01*
X234659000Y-94778500D02*
X234659000Y-94578500D01*
G75*
G02*
X234759000Y-94478500I100000J0D01*
G01*
X235019000Y-94478500D01*
G75*
G02*
X235119000Y-94578500I0J-100000D01*
G01*
X235119000Y-94778500D01*
G75*
G02*
X235019000Y-94878500I-100000J0D01*
G01*
X234759000Y-94878500D01*
G75*
G02*
X234659000Y-94778500I0J100000D01*
G01*
G37*
G36*
G01*
X234019000Y-94778500D02*
X234019000Y-94578500D01*
G75*
G02*
X234119000Y-94478500I100000J0D01*
G01*
X234379000Y-94478500D01*
G75*
G02*
X234479000Y-94578500I0J-100000D01*
G01*
X234479000Y-94778500D01*
G75*
G02*
X234379000Y-94878500I-100000J0D01*
G01*
X234119000Y-94878500D01*
G75*
G02*
X234019000Y-94778500I0J100000D01*
G01*
G37*
G36*
G01*
X234659000Y-90968500D02*
X234659000Y-90768500D01*
G75*
G02*
X234759000Y-90668500I100000J0D01*
G01*
X235019000Y-90668500D01*
G75*
G02*
X235119000Y-90768500I0J-100000D01*
G01*
X235119000Y-90968500D01*
G75*
G02*
X235019000Y-91068500I-100000J0D01*
G01*
X234759000Y-91068500D01*
G75*
G02*
X234659000Y-90968500I0J100000D01*
G01*
G37*
G36*
G01*
X234019000Y-90968500D02*
X234019000Y-90768500D01*
G75*
G02*
X234119000Y-90668500I100000J0D01*
G01*
X234379000Y-90668500D01*
G75*
G02*
X234479000Y-90768500I0J-100000D01*
G01*
X234479000Y-90968500D01*
G75*
G02*
X234379000Y-91068500I-100000J0D01*
G01*
X234119000Y-91068500D01*
G75*
G02*
X234019000Y-90968500I0J100000D01*
G01*
G37*
G36*
G01*
X234659000Y-94016500D02*
X234659000Y-93816500D01*
G75*
G02*
X234759000Y-93716500I100000J0D01*
G01*
X235019000Y-93716500D01*
G75*
G02*
X235119000Y-93816500I0J-100000D01*
G01*
X235119000Y-94016500D01*
G75*
G02*
X235019000Y-94116500I-100000J0D01*
G01*
X234759000Y-94116500D01*
G75*
G02*
X234659000Y-94016500I0J100000D01*
G01*
G37*
G36*
G01*
X234019000Y-94016500D02*
X234019000Y-93816500D01*
G75*
G02*
X234119000Y-93716500I100000J0D01*
G01*
X234379000Y-93716500D01*
G75*
G02*
X234479000Y-93816500I0J-100000D01*
G01*
X234479000Y-94016500D01*
G75*
G02*
X234379000Y-94116500I-100000J0D01*
G01*
X234119000Y-94116500D01*
G75*
G02*
X234019000Y-94016500I0J100000D01*
G01*
G37*
G36*
G01*
X234659000Y-93254500D02*
X234659000Y-93054500D01*
G75*
G02*
X234759000Y-92954500I100000J0D01*
G01*
X235019000Y-92954500D01*
G75*
G02*
X235119000Y-93054500I0J-100000D01*
G01*
X235119000Y-93254500D01*
G75*
G02*
X235019000Y-93354500I-100000J0D01*
G01*
X234759000Y-93354500D01*
G75*
G02*
X234659000Y-93254500I0J100000D01*
G01*
G37*
G36*
G01*
X234019000Y-93254500D02*
X234019000Y-93054500D01*
G75*
G02*
X234119000Y-92954500I100000J0D01*
G01*
X234379000Y-92954500D01*
G75*
G02*
X234479000Y-93054500I0J-100000D01*
G01*
X234479000Y-93254500D01*
G75*
G02*
X234379000Y-93354500I-100000J0D01*
G01*
X234119000Y-93354500D01*
G75*
G02*
X234019000Y-93254500I0J100000D01*
G01*
G37*
G36*
G01*
X234661500Y-92492500D02*
X234661500Y-92292500D01*
G75*
G02*
X234761500Y-92192500I100000J0D01*
G01*
X235021500Y-92192500D01*
G75*
G02*
X235121500Y-92292500I0J-100000D01*
G01*
X235121500Y-92492500D01*
G75*
G02*
X235021500Y-92592500I-100000J0D01*
G01*
X234761500Y-92592500D01*
G75*
G02*
X234661500Y-92492500I0J100000D01*
G01*
G37*
G36*
G01*
X234021500Y-92492500D02*
X234021500Y-92292500D01*
G75*
G02*
X234121500Y-92192500I100000J0D01*
G01*
X234381500Y-92192500D01*
G75*
G02*
X234481500Y-92292500I0J-100000D01*
G01*
X234481500Y-92492500D01*
G75*
G02*
X234381500Y-92592500I-100000J0D01*
G01*
X234121500Y-92592500D01*
G75*
G02*
X234021500Y-92492500I0J100000D01*
G01*
G37*
G36*
G01*
X234659000Y-91730500D02*
X234659000Y-91530500D01*
G75*
G02*
X234759000Y-91430500I100000J0D01*
G01*
X235019000Y-91430500D01*
G75*
G02*
X235119000Y-91530500I0J-100000D01*
G01*
X235119000Y-91730500D01*
G75*
G02*
X235019000Y-91830500I-100000J0D01*
G01*
X234759000Y-91830500D01*
G75*
G02*
X234659000Y-91730500I0J100000D01*
G01*
G37*
G36*
G01*
X234019000Y-91730500D02*
X234019000Y-91530500D01*
G75*
G02*
X234119000Y-91430500I100000J0D01*
G01*
X234379000Y-91430500D01*
G75*
G02*
X234479000Y-91530500I0J-100000D01*
G01*
X234479000Y-91730500D01*
G75*
G02*
X234379000Y-91830500I-100000J0D01*
G01*
X234119000Y-91830500D01*
G75*
G02*
X234019000Y-91730500I0J100000D01*
G01*
G37*
D21*
X245237000Y-76835000D03*
D22*
X245745000Y-47244000D03*
D23*
X245745000Y-48514000D03*
D24*
X246355000Y-82936000D03*
X240055000Y-82936000D03*
X246355000Y-86736000D03*
X240055000Y-86736000D03*
G36*
G01*
X204370000Y-71718000D02*
X204570000Y-71718000D01*
G75*
G02*
X204670000Y-71818000I0J-100000D01*
G01*
X204670000Y-72078000D01*
G75*
G02*
X204570000Y-72178000I-100000J0D01*
G01*
X204370000Y-72178000D01*
G75*
G02*
X204270000Y-72078000I0J100000D01*
G01*
X204270000Y-71818000D01*
G75*
G02*
X204370000Y-71718000I100000J0D01*
G01*
G37*
G36*
G01*
X204370000Y-71078000D02*
X204570000Y-71078000D01*
G75*
G02*
X204670000Y-71178000I0J-100000D01*
G01*
X204670000Y-71438000D01*
G75*
G02*
X204570000Y-71538000I-100000J0D01*
G01*
X204370000Y-71538000D01*
G75*
G02*
X204270000Y-71438000I0J100000D01*
G01*
X204270000Y-71178000D01*
G75*
G02*
X204370000Y-71078000I100000J0D01*
G01*
G37*
G36*
G01*
X206863500Y-71903000D02*
X206863500Y-71353000D01*
G75*
G02*
X207063500Y-71153000I200000J0D01*
G01*
X207463500Y-71153000D01*
G75*
G02*
X207663500Y-71353000I0J-200000D01*
G01*
X207663500Y-71903000D01*
G75*
G02*
X207463500Y-72103000I-200000J0D01*
G01*
X207063500Y-72103000D01*
G75*
G02*
X206863500Y-71903000I0J200000D01*
G01*
G37*
G36*
G01*
X205213500Y-71903000D02*
X205213500Y-71353000D01*
G75*
G02*
X205413500Y-71153000I200000J0D01*
G01*
X205813500Y-71153000D01*
G75*
G02*
X206013500Y-71353000I0J-200000D01*
G01*
X206013500Y-71903000D01*
G75*
G02*
X205813500Y-72103000I-200000J0D01*
G01*
X205413500Y-72103000D01*
G75*
G02*
X205213500Y-71903000I0J200000D01*
G01*
G37*
G36*
G01*
X204570000Y-73062000D02*
X204370000Y-73062000D01*
G75*
G02*
X204270000Y-72962000I0J100000D01*
G01*
X204270000Y-72702000D01*
G75*
G02*
X204370000Y-72602000I100000J0D01*
G01*
X204570000Y-72602000D01*
G75*
G02*
X204670000Y-72702000I0J-100000D01*
G01*
X204670000Y-72962000D01*
G75*
G02*
X204570000Y-73062000I-100000J0D01*
G01*
G37*
G36*
G01*
X204570000Y-73702000D02*
X204370000Y-73702000D01*
G75*
G02*
X204270000Y-73602000I0J100000D01*
G01*
X204270000Y-73342000D01*
G75*
G02*
X204370000Y-73242000I100000J0D01*
G01*
X204570000Y-73242000D01*
G75*
G02*
X204670000Y-73342000I0J-100000D01*
G01*
X204670000Y-73602000D01*
G75*
G02*
X204570000Y-73702000I-100000J0D01*
G01*
G37*
G36*
G01*
X206863000Y-73427000D02*
X206863000Y-72877000D01*
G75*
G02*
X207063000Y-72677000I200000J0D01*
G01*
X207463000Y-72677000D01*
G75*
G02*
X207663000Y-72877000I0J-200000D01*
G01*
X207663000Y-73427000D01*
G75*
G02*
X207463000Y-73627000I-200000J0D01*
G01*
X207063000Y-73627000D01*
G75*
G02*
X206863000Y-73427000I0J200000D01*
G01*
G37*
G36*
G01*
X205213000Y-73427000D02*
X205213000Y-72877000D01*
G75*
G02*
X205413000Y-72677000I200000J0D01*
G01*
X205813000Y-72677000D01*
G75*
G02*
X206013000Y-72877000I0J-200000D01*
G01*
X206013000Y-73427000D01*
G75*
G02*
X205813000Y-73627000I-200000J0D01*
G01*
X205413000Y-73627000D01*
G75*
G02*
X205213000Y-73427000I0J200000D01*
G01*
G37*
G36*
G01*
X237597500Y-84793500D02*
X237597500Y-84243500D01*
G75*
G02*
X237797500Y-84043500I200000J0D01*
G01*
X238197500Y-84043500D01*
G75*
G02*
X238397500Y-84243500I0J-200000D01*
G01*
X238397500Y-84793500D01*
G75*
G02*
X238197500Y-84993500I-200000J0D01*
G01*
X237797500Y-84993500D01*
G75*
G02*
X237597500Y-84793500I0J200000D01*
G01*
G37*
G36*
G01*
X235947500Y-84793500D02*
X235947500Y-84243500D01*
G75*
G02*
X236147500Y-84043500I200000J0D01*
G01*
X236547500Y-84043500D01*
G75*
G02*
X236747500Y-84243500I0J-200000D01*
G01*
X236747500Y-84793500D01*
G75*
G02*
X236547500Y-84993500I-200000J0D01*
G01*
X236147500Y-84993500D01*
G75*
G02*
X235947500Y-84793500I0J200000D01*
G01*
G37*
G36*
G01*
X237597500Y-83206000D02*
X237597500Y-82656000D01*
G75*
G02*
X237797500Y-82456000I200000J0D01*
G01*
X238197500Y-82456000D01*
G75*
G02*
X238397500Y-82656000I0J-200000D01*
G01*
X238397500Y-83206000D01*
G75*
G02*
X238197500Y-83406000I-200000J0D01*
G01*
X237797500Y-83406000D01*
G75*
G02*
X237597500Y-83206000I0J200000D01*
G01*
G37*
G36*
G01*
X235947500Y-83206000D02*
X235947500Y-82656000D01*
G75*
G02*
X236147500Y-82456000I200000J0D01*
G01*
X236547500Y-82456000D01*
G75*
G02*
X236747500Y-82656000I0J-200000D01*
G01*
X236747500Y-83206000D01*
G75*
G02*
X236547500Y-83406000I-200000J0D01*
G01*
X236147500Y-83406000D01*
G75*
G02*
X235947500Y-83206000I0J200000D01*
G01*
G37*
D14*
X227457000Y-45466000D03*
X227457000Y-48006000D03*
X224917000Y-45466000D03*
X224917000Y-48006000D03*
X222377000Y-45466000D03*
D15*
X222377000Y-48006000D03*
D22*
X205359000Y-37338000D03*
D23*
X205359000Y-36068000D03*
G36*
G01*
X222096500Y-74957000D02*
X222096500Y-75157000D01*
G75*
G02*
X221996500Y-75257000I-100000J0D01*
G01*
X221736500Y-75257000D01*
G75*
G02*
X221636500Y-75157000I0J100000D01*
G01*
X221636500Y-74957000D01*
G75*
G02*
X221736500Y-74857000I100000J0D01*
G01*
X221996500Y-74857000D01*
G75*
G02*
X222096500Y-74957000I0J-100000D01*
G01*
G37*
G36*
G01*
X222736500Y-74957000D02*
X222736500Y-75157000D01*
G75*
G02*
X222636500Y-75257000I-100000J0D01*
G01*
X222376500Y-75257000D01*
G75*
G02*
X222276500Y-75157000I0J100000D01*
G01*
X222276500Y-74957000D01*
G75*
G02*
X222376500Y-74857000I100000J0D01*
G01*
X222636500Y-74857000D01*
G75*
G02*
X222736500Y-74957000I0J-100000D01*
G01*
G37*
D25*
X213617500Y-104118500D03*
X213617500Y-103693500D03*
X213617500Y-103268500D03*
X213617500Y-102843500D03*
X214292500Y-104118500D03*
X214292500Y-103693500D03*
X214292500Y-103268500D03*
X214292500Y-102843500D03*
X214967500Y-104118500D03*
X214967500Y-103693500D03*
X214967500Y-103268500D03*
X214967500Y-102843500D03*
X215642500Y-104118500D03*
X215642500Y-103693500D03*
X215642500Y-103268500D03*
X215642500Y-102843500D03*
D26*
X214630000Y-103481000D03*
D27*
X215880000Y-99081000D03*
X215380000Y-99081000D03*
X214880000Y-99081000D03*
X214380000Y-99081000D03*
X213880000Y-99081000D03*
X213380000Y-99081000D03*
D28*
X212730000Y-99731000D03*
X212730000Y-100231000D03*
X212730000Y-100731000D03*
X212730000Y-101231000D03*
X212730000Y-101731000D03*
X212730000Y-102231000D03*
X212730000Y-102731000D03*
X212730000Y-103231000D03*
X212730000Y-103731000D03*
X212730000Y-104231000D03*
D27*
X213380000Y-104881000D03*
X213880000Y-104881000D03*
X214380000Y-104881000D03*
X214880000Y-104881000D03*
X215380000Y-104881000D03*
X215880000Y-104881000D03*
D28*
X216530000Y-104231000D03*
X216530000Y-103731000D03*
X216530000Y-103231000D03*
X216530000Y-102731000D03*
X216530000Y-102231000D03*
X216530000Y-101731000D03*
X216530000Y-101231000D03*
X216530000Y-100731000D03*
X216530000Y-100231000D03*
X216530000Y-99731000D03*
D22*
X225171000Y-56515000D03*
X226441000Y-56515000D03*
X227711000Y-56515000D03*
X228981000Y-56515000D03*
X230251000Y-56515000D03*
X231521000Y-56515000D03*
X232791000Y-56515000D03*
X234061000Y-56515000D03*
X235331000Y-56515000D03*
X236601000Y-56515000D03*
X237871000Y-56515000D03*
X239141000Y-56515000D03*
X240411000Y-56515000D03*
X241681000Y-56515000D03*
X242951000Y-56515000D03*
X244221000Y-56515000D03*
X245491000Y-56515000D03*
D23*
X246761000Y-56515000D03*
G36*
G01*
X230033500Y-60108000D02*
X229833500Y-60108000D01*
G75*
G02*
X229733500Y-60008000I0J100000D01*
G01*
X229733500Y-59748000D01*
G75*
G02*
X229833500Y-59648000I100000J0D01*
G01*
X230033500Y-59648000D01*
G75*
G02*
X230133500Y-59748000I0J-100000D01*
G01*
X230133500Y-60008000D01*
G75*
G02*
X230033500Y-60108000I-100000J0D01*
G01*
G37*
G36*
G01*
X230033500Y-60748000D02*
X229833500Y-60748000D01*
G75*
G02*
X229733500Y-60648000I0J100000D01*
G01*
X229733500Y-60388000D01*
G75*
G02*
X229833500Y-60288000I100000J0D01*
G01*
X230033500Y-60288000D01*
G75*
G02*
X230133500Y-60388000I0J-100000D01*
G01*
X230133500Y-60648000D01*
G75*
G02*
X230033500Y-60748000I-100000J0D01*
G01*
G37*
G36*
G01*
X224370500Y-68490000D02*
X225695500Y-68490000D01*
G75*
G02*
X225770500Y-68565000I0J-75000D01*
G01*
X225770500Y-68715000D01*
G75*
G02*
X225695500Y-68790000I-75000J0D01*
G01*
X224370500Y-68790000D01*
G75*
G02*
X224295500Y-68715000I0J75000D01*
G01*
X224295500Y-68565000D01*
G75*
G02*
X224370500Y-68490000I75000J0D01*
G01*
G37*
G36*
G01*
X224370500Y-68990000D02*
X225695500Y-68990000D01*
G75*
G02*
X225770500Y-69065000I0J-75000D01*
G01*
X225770500Y-69215000D01*
G75*
G02*
X225695500Y-69290000I-75000J0D01*
G01*
X224370500Y-69290000D01*
G75*
G02*
X224295500Y-69215000I0J75000D01*
G01*
X224295500Y-69065000D01*
G75*
G02*
X224370500Y-68990000I75000J0D01*
G01*
G37*
G36*
G01*
X224370500Y-69490000D02*
X225695500Y-69490000D01*
G75*
G02*
X225770500Y-69565000I0J-75000D01*
G01*
X225770500Y-69715000D01*
G75*
G02*
X225695500Y-69790000I-75000J0D01*
G01*
X224370500Y-69790000D01*
G75*
G02*
X224295500Y-69715000I0J75000D01*
G01*
X224295500Y-69565000D01*
G75*
G02*
X224370500Y-69490000I75000J0D01*
G01*
G37*
G36*
G01*
X224370500Y-69990000D02*
X225695500Y-69990000D01*
G75*
G02*
X225770500Y-70065000I0J-75000D01*
G01*
X225770500Y-70215000D01*
G75*
G02*
X225695500Y-70290000I-75000J0D01*
G01*
X224370500Y-70290000D01*
G75*
G02*
X224295500Y-70215000I0J75000D01*
G01*
X224295500Y-70065000D01*
G75*
G02*
X224370500Y-69990000I75000J0D01*
G01*
G37*
G36*
G01*
X224370500Y-70490000D02*
X225695500Y-70490000D01*
G75*
G02*
X225770500Y-70565000I0J-75000D01*
G01*
X225770500Y-70715000D01*
G75*
G02*
X225695500Y-70790000I-75000J0D01*
G01*
X224370500Y-70790000D01*
G75*
G02*
X224295500Y-70715000I0J75000D01*
G01*
X224295500Y-70565000D01*
G75*
G02*
X224370500Y-70490000I75000J0D01*
G01*
G37*
G36*
G01*
X224370500Y-70990000D02*
X225695500Y-70990000D01*
G75*
G02*
X225770500Y-71065000I0J-75000D01*
G01*
X225770500Y-71215000D01*
G75*
G02*
X225695500Y-71290000I-75000J0D01*
G01*
X224370500Y-71290000D01*
G75*
G02*
X224295500Y-71215000I0J75000D01*
G01*
X224295500Y-71065000D01*
G75*
G02*
X224370500Y-70990000I75000J0D01*
G01*
G37*
G36*
G01*
X224370500Y-71490000D02*
X225695500Y-71490000D01*
G75*
G02*
X225770500Y-71565000I0J-75000D01*
G01*
X225770500Y-71715000D01*
G75*
G02*
X225695500Y-71790000I-75000J0D01*
G01*
X224370500Y-71790000D01*
G75*
G02*
X224295500Y-71715000I0J75000D01*
G01*
X224295500Y-71565000D01*
G75*
G02*
X224370500Y-71490000I75000J0D01*
G01*
G37*
G36*
G01*
X224370500Y-71990000D02*
X225695500Y-71990000D01*
G75*
G02*
X225770500Y-72065000I0J-75000D01*
G01*
X225770500Y-72215000D01*
G75*
G02*
X225695500Y-72290000I-75000J0D01*
G01*
X224370500Y-72290000D01*
G75*
G02*
X224295500Y-72215000I0J75000D01*
G01*
X224295500Y-72065000D01*
G75*
G02*
X224370500Y-71990000I75000J0D01*
G01*
G37*
G36*
G01*
X224370500Y-72490000D02*
X225695500Y-72490000D01*
G75*
G02*
X225770500Y-72565000I0J-75000D01*
G01*
X225770500Y-72715000D01*
G75*
G02*
X225695500Y-72790000I-75000J0D01*
G01*
X224370500Y-72790000D01*
G75*
G02*
X224295500Y-72715000I0J75000D01*
G01*
X224295500Y-72565000D01*
G75*
G02*
X224370500Y-72490000I75000J0D01*
G01*
G37*
G36*
G01*
X224370500Y-72990000D02*
X225695500Y-72990000D01*
G75*
G02*
X225770500Y-73065000I0J-75000D01*
G01*
X225770500Y-73215000D01*
G75*
G02*
X225695500Y-73290000I-75000J0D01*
G01*
X224370500Y-73290000D01*
G75*
G02*
X224295500Y-73215000I0J75000D01*
G01*
X224295500Y-73065000D01*
G75*
G02*
X224370500Y-72990000I75000J0D01*
G01*
G37*
G36*
G01*
X224370500Y-73490000D02*
X225695500Y-73490000D01*
G75*
G02*
X225770500Y-73565000I0J-75000D01*
G01*
X225770500Y-73715000D01*
G75*
G02*
X225695500Y-73790000I-75000J0D01*
G01*
X224370500Y-73790000D01*
G75*
G02*
X224295500Y-73715000I0J75000D01*
G01*
X224295500Y-73565000D01*
G75*
G02*
X224370500Y-73490000I75000J0D01*
G01*
G37*
G36*
G01*
X224370500Y-73990000D02*
X225695500Y-73990000D01*
G75*
G02*
X225770500Y-74065000I0J-75000D01*
G01*
X225770500Y-74215000D01*
G75*
G02*
X225695500Y-74290000I-75000J0D01*
G01*
X224370500Y-74290000D01*
G75*
G02*
X224295500Y-74215000I0J75000D01*
G01*
X224295500Y-74065000D01*
G75*
G02*
X224370500Y-73990000I75000J0D01*
G01*
G37*
G36*
G01*
X224370500Y-74490000D02*
X225695500Y-74490000D01*
G75*
G02*
X225770500Y-74565000I0J-75000D01*
G01*
X225770500Y-74715000D01*
G75*
G02*
X225695500Y-74790000I-75000J0D01*
G01*
X224370500Y-74790000D01*
G75*
G02*
X224295500Y-74715000I0J75000D01*
G01*
X224295500Y-74565000D01*
G75*
G02*
X224370500Y-74490000I75000J0D01*
G01*
G37*
G36*
G01*
X224370500Y-74990000D02*
X225695500Y-74990000D01*
G75*
G02*
X225770500Y-75065000I0J-75000D01*
G01*
X225770500Y-75215000D01*
G75*
G02*
X225695500Y-75290000I-75000J0D01*
G01*
X224370500Y-75290000D01*
G75*
G02*
X224295500Y-75215000I0J75000D01*
G01*
X224295500Y-75065000D01*
G75*
G02*
X224370500Y-74990000I75000J0D01*
G01*
G37*
G36*
G01*
X224370500Y-75490000D02*
X225695500Y-75490000D01*
G75*
G02*
X225770500Y-75565000I0J-75000D01*
G01*
X225770500Y-75715000D01*
G75*
G02*
X225695500Y-75790000I-75000J0D01*
G01*
X224370500Y-75790000D01*
G75*
G02*
X224295500Y-75715000I0J75000D01*
G01*
X224295500Y-75565000D01*
G75*
G02*
X224370500Y-75490000I75000J0D01*
G01*
G37*
G36*
G01*
X224370500Y-75990000D02*
X225695500Y-75990000D01*
G75*
G02*
X225770500Y-76065000I0J-75000D01*
G01*
X225770500Y-76215000D01*
G75*
G02*
X225695500Y-76290000I-75000J0D01*
G01*
X224370500Y-76290000D01*
G75*
G02*
X224295500Y-76215000I0J75000D01*
G01*
X224295500Y-76065000D01*
G75*
G02*
X224370500Y-75990000I75000J0D01*
G01*
G37*
G36*
G01*
X226870500Y-77315000D02*
X227020500Y-77315000D01*
G75*
G02*
X227095500Y-77390000I0J-75000D01*
G01*
X227095500Y-78715000D01*
G75*
G02*
X227020500Y-78790000I-75000J0D01*
G01*
X226870500Y-78790000D01*
G75*
G02*
X226795500Y-78715000I0J75000D01*
G01*
X226795500Y-77390000D01*
G75*
G02*
X226870500Y-77315000I75000J0D01*
G01*
G37*
G36*
G01*
X227370500Y-77315000D02*
X227520500Y-77315000D01*
G75*
G02*
X227595500Y-77390000I0J-75000D01*
G01*
X227595500Y-78715000D01*
G75*
G02*
X227520500Y-78790000I-75000J0D01*
G01*
X227370500Y-78790000D01*
G75*
G02*
X227295500Y-78715000I0J75000D01*
G01*
X227295500Y-77390000D01*
G75*
G02*
X227370500Y-77315000I75000J0D01*
G01*
G37*
G36*
G01*
X227870500Y-77315000D02*
X228020500Y-77315000D01*
G75*
G02*
X228095500Y-77390000I0J-75000D01*
G01*
X228095500Y-78715000D01*
G75*
G02*
X228020500Y-78790000I-75000J0D01*
G01*
X227870500Y-78790000D01*
G75*
G02*
X227795500Y-78715000I0J75000D01*
G01*
X227795500Y-77390000D01*
G75*
G02*
X227870500Y-77315000I75000J0D01*
G01*
G37*
G36*
G01*
X228370500Y-77315000D02*
X228520500Y-77315000D01*
G75*
G02*
X228595500Y-77390000I0J-75000D01*
G01*
X228595500Y-78715000D01*
G75*
G02*
X228520500Y-78790000I-75000J0D01*
G01*
X228370500Y-78790000D01*
G75*
G02*
X228295500Y-78715000I0J75000D01*
G01*
X228295500Y-77390000D01*
G75*
G02*
X228370500Y-77315000I75000J0D01*
G01*
G37*
G36*
G01*
X228870500Y-77315000D02*
X229020500Y-77315000D01*
G75*
G02*
X229095500Y-77390000I0J-75000D01*
G01*
X229095500Y-78715000D01*
G75*
G02*
X229020500Y-78790000I-75000J0D01*
G01*
X228870500Y-78790000D01*
G75*
G02*
X228795500Y-78715000I0J75000D01*
G01*
X228795500Y-77390000D01*
G75*
G02*
X228870500Y-77315000I75000J0D01*
G01*
G37*
G36*
G01*
X229370500Y-77315000D02*
X229520500Y-77315000D01*
G75*
G02*
X229595500Y-77390000I0J-75000D01*
G01*
X229595500Y-78715000D01*
G75*
G02*
X229520500Y-78790000I-75000J0D01*
G01*
X229370500Y-78790000D01*
G75*
G02*
X229295500Y-78715000I0J75000D01*
G01*
X229295500Y-77390000D01*
G75*
G02*
X229370500Y-77315000I75000J0D01*
G01*
G37*
G36*
G01*
X229870500Y-77315000D02*
X230020500Y-77315000D01*
G75*
G02*
X230095500Y-77390000I0J-75000D01*
G01*
X230095500Y-78715000D01*
G75*
G02*
X230020500Y-78790000I-75000J0D01*
G01*
X229870500Y-78790000D01*
G75*
G02*
X229795500Y-78715000I0J75000D01*
G01*
X229795500Y-77390000D01*
G75*
G02*
X229870500Y-77315000I75000J0D01*
G01*
G37*
G36*
G01*
X230370500Y-77315000D02*
X230520500Y-77315000D01*
G75*
G02*
X230595500Y-77390000I0J-75000D01*
G01*
X230595500Y-78715000D01*
G75*
G02*
X230520500Y-78790000I-75000J0D01*
G01*
X230370500Y-78790000D01*
G75*
G02*
X230295500Y-78715000I0J75000D01*
G01*
X230295500Y-77390000D01*
G75*
G02*
X230370500Y-77315000I75000J0D01*
G01*
G37*
G36*
G01*
X230870500Y-77315000D02*
X231020500Y-77315000D01*
G75*
G02*
X231095500Y-77390000I0J-75000D01*
G01*
X231095500Y-78715000D01*
G75*
G02*
X231020500Y-78790000I-75000J0D01*
G01*
X230870500Y-78790000D01*
G75*
G02*
X230795500Y-78715000I0J75000D01*
G01*
X230795500Y-77390000D01*
G75*
G02*
X230870500Y-77315000I75000J0D01*
G01*
G37*
G36*
G01*
X231370500Y-77315000D02*
X231520500Y-77315000D01*
G75*
G02*
X231595500Y-77390000I0J-75000D01*
G01*
X231595500Y-78715000D01*
G75*
G02*
X231520500Y-78790000I-75000J0D01*
G01*
X231370500Y-78790000D01*
G75*
G02*
X231295500Y-78715000I0J75000D01*
G01*
X231295500Y-77390000D01*
G75*
G02*
X231370500Y-77315000I75000J0D01*
G01*
G37*
G36*
G01*
X231870500Y-77315000D02*
X232020500Y-77315000D01*
G75*
G02*
X232095500Y-77390000I0J-75000D01*
G01*
X232095500Y-78715000D01*
G75*
G02*
X232020500Y-78790000I-75000J0D01*
G01*
X231870500Y-78790000D01*
G75*
G02*
X231795500Y-78715000I0J75000D01*
G01*
X231795500Y-77390000D01*
G75*
G02*
X231870500Y-77315000I75000J0D01*
G01*
G37*
G36*
G01*
X232370500Y-77315000D02*
X232520500Y-77315000D01*
G75*
G02*
X232595500Y-77390000I0J-75000D01*
G01*
X232595500Y-78715000D01*
G75*
G02*
X232520500Y-78790000I-75000J0D01*
G01*
X232370500Y-78790000D01*
G75*
G02*
X232295500Y-78715000I0J75000D01*
G01*
X232295500Y-77390000D01*
G75*
G02*
X232370500Y-77315000I75000J0D01*
G01*
G37*
G36*
G01*
X232870500Y-77315000D02*
X233020500Y-77315000D01*
G75*
G02*
X233095500Y-77390000I0J-75000D01*
G01*
X233095500Y-78715000D01*
G75*
G02*
X233020500Y-78790000I-75000J0D01*
G01*
X232870500Y-78790000D01*
G75*
G02*
X232795500Y-78715000I0J75000D01*
G01*
X232795500Y-77390000D01*
G75*
G02*
X232870500Y-77315000I75000J0D01*
G01*
G37*
G36*
G01*
X233370500Y-77315000D02*
X233520500Y-77315000D01*
G75*
G02*
X233595500Y-77390000I0J-75000D01*
G01*
X233595500Y-78715000D01*
G75*
G02*
X233520500Y-78790000I-75000J0D01*
G01*
X233370500Y-78790000D01*
G75*
G02*
X233295500Y-78715000I0J75000D01*
G01*
X233295500Y-77390000D01*
G75*
G02*
X233370500Y-77315000I75000J0D01*
G01*
G37*
G36*
G01*
X233870500Y-77315000D02*
X234020500Y-77315000D01*
G75*
G02*
X234095500Y-77390000I0J-75000D01*
G01*
X234095500Y-78715000D01*
G75*
G02*
X234020500Y-78790000I-75000J0D01*
G01*
X233870500Y-78790000D01*
G75*
G02*
X233795500Y-78715000I0J75000D01*
G01*
X233795500Y-77390000D01*
G75*
G02*
X233870500Y-77315000I75000J0D01*
G01*
G37*
G36*
G01*
X234370500Y-77315000D02*
X234520500Y-77315000D01*
G75*
G02*
X234595500Y-77390000I0J-75000D01*
G01*
X234595500Y-78715000D01*
G75*
G02*
X234520500Y-78790000I-75000J0D01*
G01*
X234370500Y-78790000D01*
G75*
G02*
X234295500Y-78715000I0J75000D01*
G01*
X234295500Y-77390000D01*
G75*
G02*
X234370500Y-77315000I75000J0D01*
G01*
G37*
G36*
G01*
X235695500Y-75990000D02*
X237020500Y-75990000D01*
G75*
G02*
X237095500Y-76065000I0J-75000D01*
G01*
X237095500Y-76215000D01*
G75*
G02*
X237020500Y-76290000I-75000J0D01*
G01*
X235695500Y-76290000D01*
G75*
G02*
X235620500Y-76215000I0J75000D01*
G01*
X235620500Y-76065000D01*
G75*
G02*
X235695500Y-75990000I75000J0D01*
G01*
G37*
G36*
G01*
X235695500Y-75490000D02*
X237020500Y-75490000D01*
G75*
G02*
X237095500Y-75565000I0J-75000D01*
G01*
X237095500Y-75715000D01*
G75*
G02*
X237020500Y-75790000I-75000J0D01*
G01*
X235695500Y-75790000D01*
G75*
G02*
X235620500Y-75715000I0J75000D01*
G01*
X235620500Y-75565000D01*
G75*
G02*
X235695500Y-75490000I75000J0D01*
G01*
G37*
G36*
G01*
X235695500Y-74990000D02*
X237020500Y-74990000D01*
G75*
G02*
X237095500Y-75065000I0J-75000D01*
G01*
X237095500Y-75215000D01*
G75*
G02*
X237020500Y-75290000I-75000J0D01*
G01*
X235695500Y-75290000D01*
G75*
G02*
X235620500Y-75215000I0J75000D01*
G01*
X235620500Y-75065000D01*
G75*
G02*
X235695500Y-74990000I75000J0D01*
G01*
G37*
G36*
G01*
X235695500Y-74490000D02*
X237020500Y-74490000D01*
G75*
G02*
X237095500Y-74565000I0J-75000D01*
G01*
X237095500Y-74715000D01*
G75*
G02*
X237020500Y-74790000I-75000J0D01*
G01*
X235695500Y-74790000D01*
G75*
G02*
X235620500Y-74715000I0J75000D01*
G01*
X235620500Y-74565000D01*
G75*
G02*
X235695500Y-74490000I75000J0D01*
G01*
G37*
G36*
G01*
X235695500Y-73990000D02*
X237020500Y-73990000D01*
G75*
G02*
X237095500Y-74065000I0J-75000D01*
G01*
X237095500Y-74215000D01*
G75*
G02*
X237020500Y-74290000I-75000J0D01*
G01*
X235695500Y-74290000D01*
G75*
G02*
X235620500Y-74215000I0J75000D01*
G01*
X235620500Y-74065000D01*
G75*
G02*
X235695500Y-73990000I75000J0D01*
G01*
G37*
G36*
G01*
X235695500Y-73490000D02*
X237020500Y-73490000D01*
G75*
G02*
X237095500Y-73565000I0J-75000D01*
G01*
X237095500Y-73715000D01*
G75*
G02*
X237020500Y-73790000I-75000J0D01*
G01*
X235695500Y-73790000D01*
G75*
G02*
X235620500Y-73715000I0J75000D01*
G01*
X235620500Y-73565000D01*
G75*
G02*
X235695500Y-73490000I75000J0D01*
G01*
G37*
G36*
G01*
X235695500Y-72990000D02*
X237020500Y-72990000D01*
G75*
G02*
X237095500Y-73065000I0J-75000D01*
G01*
X237095500Y-73215000D01*
G75*
G02*
X237020500Y-73290000I-75000J0D01*
G01*
X235695500Y-73290000D01*
G75*
G02*
X235620500Y-73215000I0J75000D01*
G01*
X235620500Y-73065000D01*
G75*
G02*
X235695500Y-72990000I75000J0D01*
G01*
G37*
G36*
G01*
X235695500Y-72490000D02*
X237020500Y-72490000D01*
G75*
G02*
X237095500Y-72565000I0J-75000D01*
G01*
X237095500Y-72715000D01*
G75*
G02*
X237020500Y-72790000I-75000J0D01*
G01*
X235695500Y-72790000D01*
G75*
G02*
X235620500Y-72715000I0J75000D01*
G01*
X235620500Y-72565000D01*
G75*
G02*
X235695500Y-72490000I75000J0D01*
G01*
G37*
G36*
G01*
X235695500Y-71990000D02*
X237020500Y-71990000D01*
G75*
G02*
X237095500Y-72065000I0J-75000D01*
G01*
X237095500Y-72215000D01*
G75*
G02*
X237020500Y-72290000I-75000J0D01*
G01*
X235695500Y-72290000D01*
G75*
G02*
X235620500Y-72215000I0J75000D01*
G01*
X235620500Y-72065000D01*
G75*
G02*
X235695500Y-71990000I75000J0D01*
G01*
G37*
G36*
G01*
X235695500Y-71490000D02*
X237020500Y-71490000D01*
G75*
G02*
X237095500Y-71565000I0J-75000D01*
G01*
X237095500Y-71715000D01*
G75*
G02*
X237020500Y-71790000I-75000J0D01*
G01*
X235695500Y-71790000D01*
G75*
G02*
X235620500Y-71715000I0J75000D01*
G01*
X235620500Y-71565000D01*
G75*
G02*
X235695500Y-71490000I75000J0D01*
G01*
G37*
G36*
G01*
X235695500Y-70990000D02*
X237020500Y-70990000D01*
G75*
G02*
X237095500Y-71065000I0J-75000D01*
G01*
X237095500Y-71215000D01*
G75*
G02*
X237020500Y-71290000I-75000J0D01*
G01*
X235695500Y-71290000D01*
G75*
G02*
X235620500Y-71215000I0J75000D01*
G01*
X235620500Y-71065000D01*
G75*
G02*
X235695500Y-70990000I75000J0D01*
G01*
G37*
G36*
G01*
X235695500Y-70490000D02*
X237020500Y-70490000D01*
G75*
G02*
X237095500Y-70565000I0J-75000D01*
G01*
X237095500Y-70715000D01*
G75*
G02*
X237020500Y-70790000I-75000J0D01*
G01*
X235695500Y-70790000D01*
G75*
G02*
X235620500Y-70715000I0J75000D01*
G01*
X235620500Y-70565000D01*
G75*
G02*
X235695500Y-70490000I75000J0D01*
G01*
G37*
G36*
G01*
X235695500Y-69990000D02*
X237020500Y-69990000D01*
G75*
G02*
X237095500Y-70065000I0J-75000D01*
G01*
X237095500Y-70215000D01*
G75*
G02*
X237020500Y-70290000I-75000J0D01*
G01*
X235695500Y-70290000D01*
G75*
G02*
X235620500Y-70215000I0J75000D01*
G01*
X235620500Y-70065000D01*
G75*
G02*
X235695500Y-69990000I75000J0D01*
G01*
G37*
G36*
G01*
X235695500Y-69490000D02*
X237020500Y-69490000D01*
G75*
G02*
X237095500Y-69565000I0J-75000D01*
G01*
X237095500Y-69715000D01*
G75*
G02*
X237020500Y-69790000I-75000J0D01*
G01*
X235695500Y-69790000D01*
G75*
G02*
X235620500Y-69715000I0J75000D01*
G01*
X235620500Y-69565000D01*
G75*
G02*
X235695500Y-69490000I75000J0D01*
G01*
G37*
G36*
G01*
X235695500Y-68990000D02*
X237020500Y-68990000D01*
G75*
G02*
X237095500Y-69065000I0J-75000D01*
G01*
X237095500Y-69215000D01*
G75*
G02*
X237020500Y-69290000I-75000J0D01*
G01*
X235695500Y-69290000D01*
G75*
G02*
X235620500Y-69215000I0J75000D01*
G01*
X235620500Y-69065000D01*
G75*
G02*
X235695500Y-68990000I75000J0D01*
G01*
G37*
G36*
G01*
X235695500Y-68490000D02*
X237020500Y-68490000D01*
G75*
G02*
X237095500Y-68565000I0J-75000D01*
G01*
X237095500Y-68715000D01*
G75*
G02*
X237020500Y-68790000I-75000J0D01*
G01*
X235695500Y-68790000D01*
G75*
G02*
X235620500Y-68715000I0J75000D01*
G01*
X235620500Y-68565000D01*
G75*
G02*
X235695500Y-68490000I75000J0D01*
G01*
G37*
G36*
G01*
X234370500Y-65990000D02*
X234520500Y-65990000D01*
G75*
G02*
X234595500Y-66065000I0J-75000D01*
G01*
X234595500Y-67390000D01*
G75*
G02*
X234520500Y-67465000I-75000J0D01*
G01*
X234370500Y-67465000D01*
G75*
G02*
X234295500Y-67390000I0J75000D01*
G01*
X234295500Y-66065000D01*
G75*
G02*
X234370500Y-65990000I75000J0D01*
G01*
G37*
G36*
G01*
X233870500Y-65990000D02*
X234020500Y-65990000D01*
G75*
G02*
X234095500Y-66065000I0J-75000D01*
G01*
X234095500Y-67390000D01*
G75*
G02*
X234020500Y-67465000I-75000J0D01*
G01*
X233870500Y-67465000D01*
G75*
G02*
X233795500Y-67390000I0J75000D01*
G01*
X233795500Y-66065000D01*
G75*
G02*
X233870500Y-65990000I75000J0D01*
G01*
G37*
G36*
G01*
X233370500Y-65990000D02*
X233520500Y-65990000D01*
G75*
G02*
X233595500Y-66065000I0J-75000D01*
G01*
X233595500Y-67390000D01*
G75*
G02*
X233520500Y-67465000I-75000J0D01*
G01*
X233370500Y-67465000D01*
G75*
G02*
X233295500Y-67390000I0J75000D01*
G01*
X233295500Y-66065000D01*
G75*
G02*
X233370500Y-65990000I75000J0D01*
G01*
G37*
G36*
G01*
X232870500Y-65990000D02*
X233020500Y-65990000D01*
G75*
G02*
X233095500Y-66065000I0J-75000D01*
G01*
X233095500Y-67390000D01*
G75*
G02*
X233020500Y-67465000I-75000J0D01*
G01*
X232870500Y-67465000D01*
G75*
G02*
X232795500Y-67390000I0J75000D01*
G01*
X232795500Y-66065000D01*
G75*
G02*
X232870500Y-65990000I75000J0D01*
G01*
G37*
G36*
G01*
X232370500Y-65990000D02*
X232520500Y-65990000D01*
G75*
G02*
X232595500Y-66065000I0J-75000D01*
G01*
X232595500Y-67390000D01*
G75*
G02*
X232520500Y-67465000I-75000J0D01*
G01*
X232370500Y-67465000D01*
G75*
G02*
X232295500Y-67390000I0J75000D01*
G01*
X232295500Y-66065000D01*
G75*
G02*
X232370500Y-65990000I75000J0D01*
G01*
G37*
G36*
G01*
X231870500Y-65990000D02*
X232020500Y-65990000D01*
G75*
G02*
X232095500Y-66065000I0J-75000D01*
G01*
X232095500Y-67390000D01*
G75*
G02*
X232020500Y-67465000I-75000J0D01*
G01*
X231870500Y-67465000D01*
G75*
G02*
X231795500Y-67390000I0J75000D01*
G01*
X231795500Y-66065000D01*
G75*
G02*
X231870500Y-65990000I75000J0D01*
G01*
G37*
G36*
G01*
X231370500Y-65990000D02*
X231520500Y-65990000D01*
G75*
G02*
X231595500Y-66065000I0J-75000D01*
G01*
X231595500Y-67390000D01*
G75*
G02*
X231520500Y-67465000I-75000J0D01*
G01*
X231370500Y-67465000D01*
G75*
G02*
X231295500Y-67390000I0J75000D01*
G01*
X231295500Y-66065000D01*
G75*
G02*
X231370500Y-65990000I75000J0D01*
G01*
G37*
G36*
G01*
X230870500Y-65990000D02*
X231020500Y-65990000D01*
G75*
G02*
X231095500Y-66065000I0J-75000D01*
G01*
X231095500Y-67390000D01*
G75*
G02*
X231020500Y-67465000I-75000J0D01*
G01*
X230870500Y-67465000D01*
G75*
G02*
X230795500Y-67390000I0J75000D01*
G01*
X230795500Y-66065000D01*
G75*
G02*
X230870500Y-65990000I75000J0D01*
G01*
G37*
G36*
G01*
X230370500Y-65990000D02*
X230520500Y-65990000D01*
G75*
G02*
X230595500Y-66065000I0J-75000D01*
G01*
X230595500Y-67390000D01*
G75*
G02*
X230520500Y-67465000I-75000J0D01*
G01*
X230370500Y-67465000D01*
G75*
G02*
X230295500Y-67390000I0J75000D01*
G01*
X230295500Y-66065000D01*
G75*
G02*
X230370500Y-65990000I75000J0D01*
G01*
G37*
G36*
G01*
X229870500Y-65990000D02*
X230020500Y-65990000D01*
G75*
G02*
X230095500Y-66065000I0J-75000D01*
G01*
X230095500Y-67390000D01*
G75*
G02*
X230020500Y-67465000I-75000J0D01*
G01*
X229870500Y-67465000D01*
G75*
G02*
X229795500Y-67390000I0J75000D01*
G01*
X229795500Y-66065000D01*
G75*
G02*
X229870500Y-65990000I75000J0D01*
G01*
G37*
G36*
G01*
X229370500Y-65990000D02*
X229520500Y-65990000D01*
G75*
G02*
X229595500Y-66065000I0J-75000D01*
G01*
X229595500Y-67390000D01*
G75*
G02*
X229520500Y-67465000I-75000J0D01*
G01*
X229370500Y-67465000D01*
G75*
G02*
X229295500Y-67390000I0J75000D01*
G01*
X229295500Y-66065000D01*
G75*
G02*
X229370500Y-65990000I75000J0D01*
G01*
G37*
G36*
G01*
X228870500Y-65990000D02*
X229020500Y-65990000D01*
G75*
G02*
X229095500Y-66065000I0J-75000D01*
G01*
X229095500Y-67390000D01*
G75*
G02*
X229020500Y-67465000I-75000J0D01*
G01*
X228870500Y-67465000D01*
G75*
G02*
X228795500Y-67390000I0J75000D01*
G01*
X228795500Y-66065000D01*
G75*
G02*
X228870500Y-65990000I75000J0D01*
G01*
G37*
G36*
G01*
X228370500Y-65990000D02*
X228520500Y-65990000D01*
G75*
G02*
X228595500Y-66065000I0J-75000D01*
G01*
X228595500Y-67390000D01*
G75*
G02*
X228520500Y-67465000I-75000J0D01*
G01*
X228370500Y-67465000D01*
G75*
G02*
X228295500Y-67390000I0J75000D01*
G01*
X228295500Y-66065000D01*
G75*
G02*
X228370500Y-65990000I75000J0D01*
G01*
G37*
G36*
G01*
X227870500Y-65990000D02*
X228020500Y-65990000D01*
G75*
G02*
X228095500Y-66065000I0J-75000D01*
G01*
X228095500Y-67390000D01*
G75*
G02*
X228020500Y-67465000I-75000J0D01*
G01*
X227870500Y-67465000D01*
G75*
G02*
X227795500Y-67390000I0J75000D01*
G01*
X227795500Y-66065000D01*
G75*
G02*
X227870500Y-65990000I75000J0D01*
G01*
G37*
G36*
G01*
X227370500Y-65990000D02*
X227520500Y-65990000D01*
G75*
G02*
X227595500Y-66065000I0J-75000D01*
G01*
X227595500Y-67390000D01*
G75*
G02*
X227520500Y-67465000I-75000J0D01*
G01*
X227370500Y-67465000D01*
G75*
G02*
X227295500Y-67390000I0J75000D01*
G01*
X227295500Y-66065000D01*
G75*
G02*
X227370500Y-65990000I75000J0D01*
G01*
G37*
G36*
G01*
X226870500Y-65990000D02*
X227020500Y-65990000D01*
G75*
G02*
X227095500Y-66065000I0J-75000D01*
G01*
X227095500Y-67390000D01*
G75*
G02*
X227020500Y-67465000I-75000J0D01*
G01*
X226870500Y-67465000D01*
G75*
G02*
X226795500Y-67390000I0J75000D01*
G01*
X226795500Y-66065000D01*
G75*
G02*
X226870500Y-65990000I75000J0D01*
G01*
G37*
G36*
G01*
X236891500Y-60108000D02*
X236691500Y-60108000D01*
G75*
G02*
X236591500Y-60008000I0J100000D01*
G01*
X236591500Y-59748000D01*
G75*
G02*
X236691500Y-59648000I100000J0D01*
G01*
X236891500Y-59648000D01*
G75*
G02*
X236991500Y-59748000I0J-100000D01*
G01*
X236991500Y-60008000D01*
G75*
G02*
X236891500Y-60108000I-100000J0D01*
G01*
G37*
G36*
G01*
X236891500Y-60748000D02*
X236691500Y-60748000D01*
G75*
G02*
X236591500Y-60648000I0J100000D01*
G01*
X236591500Y-60388000D01*
G75*
G02*
X236691500Y-60288000I100000J0D01*
G01*
X236891500Y-60288000D01*
G75*
G02*
X236991500Y-60388000I0J-100000D01*
G01*
X236991500Y-60648000D01*
G75*
G02*
X236891500Y-60748000I-100000J0D01*
G01*
G37*
G36*
G01*
X237907500Y-70395000D02*
X237707500Y-70395000D01*
G75*
G02*
X237607500Y-70295000I0J100000D01*
G01*
X237607500Y-70035000D01*
G75*
G02*
X237707500Y-69935000I100000J0D01*
G01*
X237907500Y-69935000D01*
G75*
G02*
X238007500Y-70035000I0J-100000D01*
G01*
X238007500Y-70295000D01*
G75*
G02*
X237907500Y-70395000I-100000J0D01*
G01*
G37*
G36*
G01*
X237907500Y-71035000D02*
X237707500Y-71035000D01*
G75*
G02*
X237607500Y-70935000I0J100000D01*
G01*
X237607500Y-70675000D01*
G75*
G02*
X237707500Y-70575000I100000J0D01*
G01*
X237907500Y-70575000D01*
G75*
G02*
X238007500Y-70675000I0J-100000D01*
G01*
X238007500Y-70935000D01*
G75*
G02*
X237907500Y-71035000I-100000J0D01*
G01*
G37*
G36*
G01*
X237907500Y-68871000D02*
X237707500Y-68871000D01*
G75*
G02*
X237607500Y-68771000I0J100000D01*
G01*
X237607500Y-68511000D01*
G75*
G02*
X237707500Y-68411000I100000J0D01*
G01*
X237907500Y-68411000D01*
G75*
G02*
X238007500Y-68511000I0J-100000D01*
G01*
X238007500Y-68771000D01*
G75*
G02*
X237907500Y-68871000I-100000J0D01*
G01*
G37*
G36*
G01*
X237907500Y-69511000D02*
X237707500Y-69511000D01*
G75*
G02*
X237607500Y-69411000I0J100000D01*
G01*
X237607500Y-69151000D01*
G75*
G02*
X237707500Y-69051000I100000J0D01*
G01*
X237907500Y-69051000D01*
G75*
G02*
X238007500Y-69151000I0J-100000D01*
G01*
X238007500Y-69411000D01*
G75*
G02*
X237907500Y-69511000I-100000J0D01*
G01*
G37*
G36*
G01*
X218967500Y-70210000D02*
X218967500Y-70760000D01*
G75*
G02*
X218767500Y-70960000I-200000J0D01*
G01*
X218367500Y-70960000D01*
G75*
G02*
X218167500Y-70760000I0J200000D01*
G01*
X218167500Y-70210000D01*
G75*
G02*
X218367500Y-70010000I200000J0D01*
G01*
X218767500Y-70010000D01*
G75*
G02*
X218967500Y-70210000I0J-200000D01*
G01*
G37*
G36*
G01*
X220617500Y-70210000D02*
X220617500Y-70760000D01*
G75*
G02*
X220417500Y-70960000I-200000J0D01*
G01*
X220017500Y-70960000D01*
G75*
G02*
X219817500Y-70760000I0J200000D01*
G01*
X219817500Y-70210000D01*
G75*
G02*
X220017500Y-70010000I200000J0D01*
G01*
X220417500Y-70010000D01*
G75*
G02*
X220617500Y-70210000I0J-200000D01*
G01*
G37*
G36*
G01*
X223229500Y-74131000D02*
X223429500Y-74131000D01*
G75*
G02*
X223529500Y-74231000I0J-100000D01*
G01*
X223529500Y-74491000D01*
G75*
G02*
X223429500Y-74591000I-100000J0D01*
G01*
X223229500Y-74591000D01*
G75*
G02*
X223129500Y-74491000I0J100000D01*
G01*
X223129500Y-74231000D01*
G75*
G02*
X223229500Y-74131000I100000J0D01*
G01*
G37*
G36*
G01*
X223229500Y-73491000D02*
X223429500Y-73491000D01*
G75*
G02*
X223529500Y-73591000I0J-100000D01*
G01*
X223529500Y-73851000D01*
G75*
G02*
X223429500Y-73951000I-100000J0D01*
G01*
X223229500Y-73951000D01*
G75*
G02*
X223129500Y-73851000I0J100000D01*
G01*
X223129500Y-73591000D01*
G75*
G02*
X223229500Y-73491000I100000J0D01*
G01*
G37*
G36*
G01*
X221126500Y-68686000D02*
X221126500Y-69236000D01*
G75*
G02*
X220926500Y-69436000I-200000J0D01*
G01*
X220526500Y-69436000D01*
G75*
G02*
X220326500Y-69236000I0J200000D01*
G01*
X220326500Y-68686000D01*
G75*
G02*
X220526500Y-68486000I200000J0D01*
G01*
X220926500Y-68486000D01*
G75*
G02*
X221126500Y-68686000I0J-200000D01*
G01*
G37*
G36*
G01*
X222776500Y-68686000D02*
X222776500Y-69236000D01*
G75*
G02*
X222576500Y-69436000I-200000J0D01*
G01*
X222176500Y-69436000D01*
G75*
G02*
X221976500Y-69236000I0J200000D01*
G01*
X221976500Y-68686000D01*
G75*
G02*
X222176500Y-68486000I200000J0D01*
G01*
X222576500Y-68486000D01*
G75*
G02*
X222776500Y-68686000I0J-200000D01*
G01*
G37*
G36*
G01*
X219817500Y-72284000D02*
X219817500Y-71734000D01*
G75*
G02*
X220017500Y-71534000I200000J0D01*
G01*
X220417500Y-71534000D01*
G75*
G02*
X220617500Y-71734000I0J-200000D01*
G01*
X220617500Y-72284000D01*
G75*
G02*
X220417500Y-72484000I-200000J0D01*
G01*
X220017500Y-72484000D01*
G75*
G02*
X219817500Y-72284000I0J200000D01*
G01*
G37*
G36*
G01*
X218167500Y-72284000D02*
X218167500Y-71734000D01*
G75*
G02*
X218367500Y-71534000I200000J0D01*
G01*
X218767500Y-71534000D01*
G75*
G02*
X218967500Y-71734000I0J-200000D01*
G01*
X218967500Y-72284000D01*
G75*
G02*
X218767500Y-72484000I-200000J0D01*
G01*
X218367500Y-72484000D01*
G75*
G02*
X218167500Y-72284000I0J200000D01*
G01*
G37*
G36*
G01*
X218342800Y-47453100D02*
X218892800Y-47453100D01*
G75*
G02*
X219092800Y-47653100I0J-200000D01*
G01*
X219092800Y-48053100D01*
G75*
G02*
X218892800Y-48253100I-200000J0D01*
G01*
X218342800Y-48253100D01*
G75*
G02*
X218142800Y-48053100I0J200000D01*
G01*
X218142800Y-47653100D01*
G75*
G02*
X218342800Y-47453100I200000J0D01*
G01*
G37*
G36*
G01*
X218342800Y-45803100D02*
X218892800Y-45803100D01*
G75*
G02*
X219092800Y-46003100I0J-200000D01*
G01*
X219092800Y-46403100D01*
G75*
G02*
X218892800Y-46603100I-200000J0D01*
G01*
X218342800Y-46603100D01*
G75*
G02*
X218142800Y-46403100I0J200000D01*
G01*
X218142800Y-46003100D01*
G75*
G02*
X218342800Y-45803100I200000J0D01*
G01*
G37*
G36*
G01*
X216958500Y-41103100D02*
X217508500Y-41103100D01*
G75*
G02*
X217708500Y-41303100I0J-200000D01*
G01*
X217708500Y-41703100D01*
G75*
G02*
X217508500Y-41903100I-200000J0D01*
G01*
X216958500Y-41903100D01*
G75*
G02*
X216758500Y-41703100I0J200000D01*
G01*
X216758500Y-41303100D01*
G75*
G02*
X216958500Y-41103100I200000J0D01*
G01*
G37*
G36*
G01*
X216958500Y-39453100D02*
X217508500Y-39453100D01*
G75*
G02*
X217708500Y-39653100I0J-200000D01*
G01*
X217708500Y-40053100D01*
G75*
G02*
X217508500Y-40253100I-200000J0D01*
G01*
X216958500Y-40253100D01*
G75*
G02*
X216758500Y-40053100I0J200000D01*
G01*
X216758500Y-39653100D01*
G75*
G02*
X216958500Y-39453100I200000J0D01*
G01*
G37*
G36*
G01*
X216641000Y-107232000D02*
X217191000Y-107232000D01*
G75*
G02*
X217391000Y-107432000I0J-200000D01*
G01*
X217391000Y-107832000D01*
G75*
G02*
X217191000Y-108032000I-200000J0D01*
G01*
X216641000Y-108032000D01*
G75*
G02*
X216441000Y-107832000I0J200000D01*
G01*
X216441000Y-107432000D01*
G75*
G02*
X216641000Y-107232000I200000J0D01*
G01*
G37*
G36*
G01*
X216641000Y-105582000D02*
X217191000Y-105582000D01*
G75*
G02*
X217391000Y-105782000I0J-200000D01*
G01*
X217391000Y-106182000D01*
G75*
G02*
X217191000Y-106382000I-200000J0D01*
G01*
X216641000Y-106382000D01*
G75*
G02*
X216441000Y-106182000I0J200000D01*
G01*
X216441000Y-105782000D01*
G75*
G02*
X216641000Y-105582000I200000J0D01*
G01*
G37*
G36*
G01*
X218165000Y-107232000D02*
X218715000Y-107232000D01*
G75*
G02*
X218915000Y-107432000I0J-200000D01*
G01*
X218915000Y-107832000D01*
G75*
G02*
X218715000Y-108032000I-200000J0D01*
G01*
X218165000Y-108032000D01*
G75*
G02*
X217965000Y-107832000I0J200000D01*
G01*
X217965000Y-107432000D01*
G75*
G02*
X218165000Y-107232000I200000J0D01*
G01*
G37*
G36*
G01*
X218165000Y-105582000D02*
X218715000Y-105582000D01*
G75*
G02*
X218915000Y-105782000I0J-200000D01*
G01*
X218915000Y-106182000D01*
G75*
G02*
X218715000Y-106382000I-200000J0D01*
G01*
X218165000Y-106382000D01*
G75*
G02*
X217965000Y-106182000I0J200000D01*
G01*
X217965000Y-105782000D01*
G75*
G02*
X218165000Y-105582000I200000J0D01*
G01*
G37*
G36*
G01*
X216429000Y-96603000D02*
X215879000Y-96603000D01*
G75*
G02*
X215679000Y-96403000I0J200000D01*
G01*
X215679000Y-96003000D01*
G75*
G02*
X215879000Y-95803000I200000J0D01*
G01*
X216429000Y-95803000D01*
G75*
G02*
X216629000Y-96003000I0J-200000D01*
G01*
X216629000Y-96403000D01*
G75*
G02*
X216429000Y-96603000I-200000J0D01*
G01*
G37*
G36*
G01*
X216429000Y-98253000D02*
X215879000Y-98253000D01*
G75*
G02*
X215679000Y-98053000I0J200000D01*
G01*
X215679000Y-97653000D01*
G75*
G02*
X215879000Y-97453000I200000J0D01*
G01*
X216429000Y-97453000D01*
G75*
G02*
X216629000Y-97653000I0J-200000D01*
G01*
X216629000Y-98053000D01*
G75*
G02*
X216429000Y-98253000I-200000J0D01*
G01*
G37*
G36*
G01*
X227160500Y-80601000D02*
X226610500Y-80601000D01*
G75*
G02*
X226410500Y-80401000I0J200000D01*
G01*
X226410500Y-80001000D01*
G75*
G02*
X226610500Y-79801000I200000J0D01*
G01*
X227160500Y-79801000D01*
G75*
G02*
X227360500Y-80001000I0J-200000D01*
G01*
X227360500Y-80401000D01*
G75*
G02*
X227160500Y-80601000I-200000J0D01*
G01*
G37*
G36*
G01*
X227160500Y-82251000D02*
X226610500Y-82251000D01*
G75*
G02*
X226410500Y-82051000I0J200000D01*
G01*
X226410500Y-81651000D01*
G75*
G02*
X226610500Y-81451000I200000J0D01*
G01*
X227160500Y-81451000D01*
G75*
G02*
X227360500Y-81651000I0J-200000D01*
G01*
X227360500Y-82051000D01*
G75*
G02*
X227160500Y-82251000I-200000J0D01*
G01*
G37*
G36*
G01*
X228684500Y-80601000D02*
X228134500Y-80601000D01*
G75*
G02*
X227934500Y-80401000I0J200000D01*
G01*
X227934500Y-80001000D01*
G75*
G02*
X228134500Y-79801000I200000J0D01*
G01*
X228684500Y-79801000D01*
G75*
G02*
X228884500Y-80001000I0J-200000D01*
G01*
X228884500Y-80401000D01*
G75*
G02*
X228684500Y-80601000I-200000J0D01*
G01*
G37*
G36*
G01*
X228684500Y-82251000D02*
X228134500Y-82251000D01*
G75*
G02*
X227934500Y-82051000I0J200000D01*
G01*
X227934500Y-81651000D01*
G75*
G02*
X228134500Y-81451000I200000J0D01*
G01*
X228684500Y-81451000D01*
G75*
G02*
X228884500Y-81651000I0J-200000D01*
G01*
X228884500Y-82051000D01*
G75*
G02*
X228684500Y-82251000I-200000J0D01*
G01*
G37*
G36*
G01*
X230208500Y-80601000D02*
X229658500Y-80601000D01*
G75*
G02*
X229458500Y-80401000I0J200000D01*
G01*
X229458500Y-80001000D01*
G75*
G02*
X229658500Y-79801000I200000J0D01*
G01*
X230208500Y-79801000D01*
G75*
G02*
X230408500Y-80001000I0J-200000D01*
G01*
X230408500Y-80401000D01*
G75*
G02*
X230208500Y-80601000I-200000J0D01*
G01*
G37*
G36*
G01*
X230208500Y-82251000D02*
X229658500Y-82251000D01*
G75*
G02*
X229458500Y-82051000I0J200000D01*
G01*
X229458500Y-81651000D01*
G75*
G02*
X229658500Y-81451000I200000J0D01*
G01*
X230208500Y-81451000D01*
G75*
G02*
X230408500Y-81651000I0J-200000D01*
G01*
X230408500Y-82051000D01*
G75*
G02*
X230208500Y-82251000I-200000J0D01*
G01*
G37*
G36*
G01*
X231732500Y-80601000D02*
X231182500Y-80601000D01*
G75*
G02*
X230982500Y-80401000I0J200000D01*
G01*
X230982500Y-80001000D01*
G75*
G02*
X231182500Y-79801000I200000J0D01*
G01*
X231732500Y-79801000D01*
G75*
G02*
X231932500Y-80001000I0J-200000D01*
G01*
X231932500Y-80401000D01*
G75*
G02*
X231732500Y-80601000I-200000J0D01*
G01*
G37*
G36*
G01*
X231732500Y-82251000D02*
X231182500Y-82251000D01*
G75*
G02*
X230982500Y-82051000I0J200000D01*
G01*
X230982500Y-81651000D01*
G75*
G02*
X231182500Y-81451000I200000J0D01*
G01*
X231732500Y-81451000D01*
G75*
G02*
X231932500Y-81651000I0J-200000D01*
G01*
X231932500Y-82051000D01*
G75*
G02*
X231732500Y-82251000I-200000J0D01*
G01*
G37*
D21*
X241109500Y-70612000D03*
D22*
X242506500Y-47244000D03*
D23*
X242506500Y-48514000D03*
G36*
G01*
X225461500Y-60108000D02*
X225261500Y-60108000D01*
G75*
G02*
X225161500Y-60008000I0J100000D01*
G01*
X225161500Y-59748000D01*
G75*
G02*
X225261500Y-59648000I100000J0D01*
G01*
X225461500Y-59648000D01*
G75*
G02*
X225561500Y-59748000I0J-100000D01*
G01*
X225561500Y-60008000D01*
G75*
G02*
X225461500Y-60108000I-100000J0D01*
G01*
G37*
G36*
G01*
X225461500Y-60748000D02*
X225261500Y-60748000D01*
G75*
G02*
X225161500Y-60648000I0J100000D01*
G01*
X225161500Y-60388000D01*
G75*
G02*
X225261500Y-60288000I100000J0D01*
G01*
X225461500Y-60288000D01*
G75*
G02*
X225561500Y-60388000I0J-100000D01*
G01*
X225561500Y-60648000D01*
G75*
G02*
X225461500Y-60748000I-100000J0D01*
G01*
G37*
G36*
G01*
X226223500Y-60108000D02*
X226023500Y-60108000D01*
G75*
G02*
X225923500Y-60008000I0J100000D01*
G01*
X225923500Y-59748000D01*
G75*
G02*
X226023500Y-59648000I100000J0D01*
G01*
X226223500Y-59648000D01*
G75*
G02*
X226323500Y-59748000I0J-100000D01*
G01*
X226323500Y-60008000D01*
G75*
G02*
X226223500Y-60108000I-100000J0D01*
G01*
G37*
G36*
G01*
X226223500Y-60748000D02*
X226023500Y-60748000D01*
G75*
G02*
X225923500Y-60648000I0J100000D01*
G01*
X225923500Y-60388000D01*
G75*
G02*
X226023500Y-60288000I100000J0D01*
G01*
X226223500Y-60288000D01*
G75*
G02*
X226323500Y-60388000I0J-100000D01*
G01*
X226323500Y-60648000D01*
G75*
G02*
X226223500Y-60748000I-100000J0D01*
G01*
G37*
G36*
G01*
X226985500Y-60108000D02*
X226785500Y-60108000D01*
G75*
G02*
X226685500Y-60008000I0J100000D01*
G01*
X226685500Y-59748000D01*
G75*
G02*
X226785500Y-59648000I100000J0D01*
G01*
X226985500Y-59648000D01*
G75*
G02*
X227085500Y-59748000I0J-100000D01*
G01*
X227085500Y-60008000D01*
G75*
G02*
X226985500Y-60108000I-100000J0D01*
G01*
G37*
G36*
G01*
X226985500Y-60748000D02*
X226785500Y-60748000D01*
G75*
G02*
X226685500Y-60648000I0J100000D01*
G01*
X226685500Y-60388000D01*
G75*
G02*
X226785500Y-60288000I100000J0D01*
G01*
X226985500Y-60288000D01*
G75*
G02*
X227085500Y-60388000I0J-100000D01*
G01*
X227085500Y-60648000D01*
G75*
G02*
X226985500Y-60748000I-100000J0D01*
G01*
G37*
G36*
G01*
X227747500Y-60108000D02*
X227547500Y-60108000D01*
G75*
G02*
X227447500Y-60008000I0J100000D01*
G01*
X227447500Y-59748000D01*
G75*
G02*
X227547500Y-59648000I100000J0D01*
G01*
X227747500Y-59648000D01*
G75*
G02*
X227847500Y-59748000I0J-100000D01*
G01*
X227847500Y-60008000D01*
G75*
G02*
X227747500Y-60108000I-100000J0D01*
G01*
G37*
G36*
G01*
X227747500Y-60748000D02*
X227547500Y-60748000D01*
G75*
G02*
X227447500Y-60648000I0J100000D01*
G01*
X227447500Y-60388000D01*
G75*
G02*
X227547500Y-60288000I100000J0D01*
G01*
X227747500Y-60288000D01*
G75*
G02*
X227847500Y-60388000I0J-100000D01*
G01*
X227847500Y-60648000D01*
G75*
G02*
X227747500Y-60748000I-100000J0D01*
G01*
G37*
G36*
G01*
X228509500Y-60108000D02*
X228309500Y-60108000D01*
G75*
G02*
X228209500Y-60008000I0J100000D01*
G01*
X228209500Y-59748000D01*
G75*
G02*
X228309500Y-59648000I100000J0D01*
G01*
X228509500Y-59648000D01*
G75*
G02*
X228609500Y-59748000I0J-100000D01*
G01*
X228609500Y-60008000D01*
G75*
G02*
X228509500Y-60108000I-100000J0D01*
G01*
G37*
G36*
G01*
X228509500Y-60748000D02*
X228309500Y-60748000D01*
G75*
G02*
X228209500Y-60648000I0J100000D01*
G01*
X228209500Y-60388000D01*
G75*
G02*
X228309500Y-60288000I100000J0D01*
G01*
X228509500Y-60288000D01*
G75*
G02*
X228609500Y-60388000I0J-100000D01*
G01*
X228609500Y-60648000D01*
G75*
G02*
X228509500Y-60748000I-100000J0D01*
G01*
G37*
G36*
G01*
X229271500Y-60108000D02*
X229071500Y-60108000D01*
G75*
G02*
X228971500Y-60008000I0J100000D01*
G01*
X228971500Y-59748000D01*
G75*
G02*
X229071500Y-59648000I100000J0D01*
G01*
X229271500Y-59648000D01*
G75*
G02*
X229371500Y-59748000I0J-100000D01*
G01*
X229371500Y-60008000D01*
G75*
G02*
X229271500Y-60108000I-100000J0D01*
G01*
G37*
G36*
G01*
X229271500Y-60748000D02*
X229071500Y-60748000D01*
G75*
G02*
X228971500Y-60648000I0J100000D01*
G01*
X228971500Y-60388000D01*
G75*
G02*
X229071500Y-60288000I100000J0D01*
G01*
X229271500Y-60288000D01*
G75*
G02*
X229371500Y-60388000I0J-100000D01*
G01*
X229371500Y-60648000D01*
G75*
G02*
X229271500Y-60748000I-100000J0D01*
G01*
G37*
G36*
G01*
X230795500Y-60108000D02*
X230595500Y-60108000D01*
G75*
G02*
X230495500Y-60008000I0J100000D01*
G01*
X230495500Y-59748000D01*
G75*
G02*
X230595500Y-59648000I100000J0D01*
G01*
X230795500Y-59648000D01*
G75*
G02*
X230895500Y-59748000I0J-100000D01*
G01*
X230895500Y-60008000D01*
G75*
G02*
X230795500Y-60108000I-100000J0D01*
G01*
G37*
G36*
G01*
X230795500Y-60748000D02*
X230595500Y-60748000D01*
G75*
G02*
X230495500Y-60648000I0J100000D01*
G01*
X230495500Y-60388000D01*
G75*
G02*
X230595500Y-60288000I100000J0D01*
G01*
X230795500Y-60288000D01*
G75*
G02*
X230895500Y-60388000I0J-100000D01*
G01*
X230895500Y-60648000D01*
G75*
G02*
X230795500Y-60748000I-100000J0D01*
G01*
G37*
G36*
G01*
X231557500Y-60108000D02*
X231357500Y-60108000D01*
G75*
G02*
X231257500Y-60008000I0J100000D01*
G01*
X231257500Y-59748000D01*
G75*
G02*
X231357500Y-59648000I100000J0D01*
G01*
X231557500Y-59648000D01*
G75*
G02*
X231657500Y-59748000I0J-100000D01*
G01*
X231657500Y-60008000D01*
G75*
G02*
X231557500Y-60108000I-100000J0D01*
G01*
G37*
G36*
G01*
X231557500Y-60748000D02*
X231357500Y-60748000D01*
G75*
G02*
X231257500Y-60648000I0J100000D01*
G01*
X231257500Y-60388000D01*
G75*
G02*
X231357500Y-60288000I100000J0D01*
G01*
X231557500Y-60288000D01*
G75*
G02*
X231657500Y-60388000I0J-100000D01*
G01*
X231657500Y-60648000D01*
G75*
G02*
X231557500Y-60748000I-100000J0D01*
G01*
G37*
G36*
G01*
X232319500Y-60108000D02*
X232119500Y-60108000D01*
G75*
G02*
X232019500Y-60008000I0J100000D01*
G01*
X232019500Y-59748000D01*
G75*
G02*
X232119500Y-59648000I100000J0D01*
G01*
X232319500Y-59648000D01*
G75*
G02*
X232419500Y-59748000I0J-100000D01*
G01*
X232419500Y-60008000D01*
G75*
G02*
X232319500Y-60108000I-100000J0D01*
G01*
G37*
G36*
G01*
X232319500Y-60748000D02*
X232119500Y-60748000D01*
G75*
G02*
X232019500Y-60648000I0J100000D01*
G01*
X232019500Y-60388000D01*
G75*
G02*
X232119500Y-60288000I100000J0D01*
G01*
X232319500Y-60288000D01*
G75*
G02*
X232419500Y-60388000I0J-100000D01*
G01*
X232419500Y-60648000D01*
G75*
G02*
X232319500Y-60748000I-100000J0D01*
G01*
G37*
G36*
G01*
X233081500Y-60108000D02*
X232881500Y-60108000D01*
G75*
G02*
X232781500Y-60008000I0J100000D01*
G01*
X232781500Y-59748000D01*
G75*
G02*
X232881500Y-59648000I100000J0D01*
G01*
X233081500Y-59648000D01*
G75*
G02*
X233181500Y-59748000I0J-100000D01*
G01*
X233181500Y-60008000D01*
G75*
G02*
X233081500Y-60108000I-100000J0D01*
G01*
G37*
G36*
G01*
X233081500Y-60748000D02*
X232881500Y-60748000D01*
G75*
G02*
X232781500Y-60648000I0J100000D01*
G01*
X232781500Y-60388000D01*
G75*
G02*
X232881500Y-60288000I100000J0D01*
G01*
X233081500Y-60288000D01*
G75*
G02*
X233181500Y-60388000I0J-100000D01*
G01*
X233181500Y-60648000D01*
G75*
G02*
X233081500Y-60748000I-100000J0D01*
G01*
G37*
G36*
G01*
X233843500Y-60108000D02*
X233643500Y-60108000D01*
G75*
G02*
X233543500Y-60008000I0J100000D01*
G01*
X233543500Y-59748000D01*
G75*
G02*
X233643500Y-59648000I100000J0D01*
G01*
X233843500Y-59648000D01*
G75*
G02*
X233943500Y-59748000I0J-100000D01*
G01*
X233943500Y-60008000D01*
G75*
G02*
X233843500Y-60108000I-100000J0D01*
G01*
G37*
G36*
G01*
X233843500Y-60748000D02*
X233643500Y-60748000D01*
G75*
G02*
X233543500Y-60648000I0J100000D01*
G01*
X233543500Y-60388000D01*
G75*
G02*
X233643500Y-60288000I100000J0D01*
G01*
X233843500Y-60288000D01*
G75*
G02*
X233943500Y-60388000I0J-100000D01*
G01*
X233943500Y-60648000D01*
G75*
G02*
X233843500Y-60748000I-100000J0D01*
G01*
G37*
G36*
G01*
X234605500Y-60108000D02*
X234405500Y-60108000D01*
G75*
G02*
X234305500Y-60008000I0J100000D01*
G01*
X234305500Y-59748000D01*
G75*
G02*
X234405500Y-59648000I100000J0D01*
G01*
X234605500Y-59648000D01*
G75*
G02*
X234705500Y-59748000I0J-100000D01*
G01*
X234705500Y-60008000D01*
G75*
G02*
X234605500Y-60108000I-100000J0D01*
G01*
G37*
G36*
G01*
X234605500Y-60748000D02*
X234405500Y-60748000D01*
G75*
G02*
X234305500Y-60648000I0J100000D01*
G01*
X234305500Y-60388000D01*
G75*
G02*
X234405500Y-60288000I100000J0D01*
G01*
X234605500Y-60288000D01*
G75*
G02*
X234705500Y-60388000I0J-100000D01*
G01*
X234705500Y-60648000D01*
G75*
G02*
X234605500Y-60748000I-100000J0D01*
G01*
G37*
G36*
G01*
X235367500Y-60108000D02*
X235167500Y-60108000D01*
G75*
G02*
X235067500Y-60008000I0J100000D01*
G01*
X235067500Y-59748000D01*
G75*
G02*
X235167500Y-59648000I100000J0D01*
G01*
X235367500Y-59648000D01*
G75*
G02*
X235467500Y-59748000I0J-100000D01*
G01*
X235467500Y-60008000D01*
G75*
G02*
X235367500Y-60108000I-100000J0D01*
G01*
G37*
G36*
G01*
X235367500Y-60748000D02*
X235167500Y-60748000D01*
G75*
G02*
X235067500Y-60648000I0J100000D01*
G01*
X235067500Y-60388000D01*
G75*
G02*
X235167500Y-60288000I100000J0D01*
G01*
X235367500Y-60288000D01*
G75*
G02*
X235467500Y-60388000I0J-100000D01*
G01*
X235467500Y-60648000D01*
G75*
G02*
X235367500Y-60748000I-100000J0D01*
G01*
G37*
G36*
G01*
X236129500Y-60108000D02*
X235929500Y-60108000D01*
G75*
G02*
X235829500Y-60008000I0J100000D01*
G01*
X235829500Y-59748000D01*
G75*
G02*
X235929500Y-59648000I100000J0D01*
G01*
X236129500Y-59648000D01*
G75*
G02*
X236229500Y-59748000I0J-100000D01*
G01*
X236229500Y-60008000D01*
G75*
G02*
X236129500Y-60108000I-100000J0D01*
G01*
G37*
G36*
G01*
X236129500Y-60748000D02*
X235929500Y-60748000D01*
G75*
G02*
X235829500Y-60648000I0J100000D01*
G01*
X235829500Y-60388000D01*
G75*
G02*
X235929500Y-60288000I100000J0D01*
G01*
X236129500Y-60288000D01*
G75*
G02*
X236229500Y-60388000I0J-100000D01*
G01*
X236229500Y-60648000D01*
G75*
G02*
X236129500Y-60748000I-100000J0D01*
G01*
G37*
G36*
G01*
X224699500Y-60108000D02*
X224499500Y-60108000D01*
G75*
G02*
X224399500Y-60008000I0J100000D01*
G01*
X224399500Y-59748000D01*
G75*
G02*
X224499500Y-59648000I100000J0D01*
G01*
X224699500Y-59648000D01*
G75*
G02*
X224799500Y-59748000I0J-100000D01*
G01*
X224799500Y-60008000D01*
G75*
G02*
X224699500Y-60108000I-100000J0D01*
G01*
G37*
G36*
G01*
X224699500Y-60748000D02*
X224499500Y-60748000D01*
G75*
G02*
X224399500Y-60648000I0J100000D01*
G01*
X224399500Y-60388000D01*
G75*
G02*
X224499500Y-60288000I100000J0D01*
G01*
X224699500Y-60288000D01*
G75*
G02*
X224799500Y-60388000I0J-100000D01*
G01*
X224799500Y-60648000D01*
G75*
G02*
X224699500Y-60748000I-100000J0D01*
G01*
G37*
G36*
G01*
X237653500Y-60108000D02*
X237453500Y-60108000D01*
G75*
G02*
X237353500Y-60008000I0J100000D01*
G01*
X237353500Y-59748000D01*
G75*
G02*
X237453500Y-59648000I100000J0D01*
G01*
X237653500Y-59648000D01*
G75*
G02*
X237753500Y-59748000I0J-100000D01*
G01*
X237753500Y-60008000D01*
G75*
G02*
X237653500Y-60108000I-100000J0D01*
G01*
G37*
G36*
G01*
X237653500Y-60748000D02*
X237453500Y-60748000D01*
G75*
G02*
X237353500Y-60648000I0J100000D01*
G01*
X237353500Y-60388000D01*
G75*
G02*
X237453500Y-60288000I100000J0D01*
G01*
X237653500Y-60288000D01*
G75*
G02*
X237753500Y-60388000I0J-100000D01*
G01*
X237753500Y-60648000D01*
G75*
G02*
X237653500Y-60748000I-100000J0D01*
G01*
G37*
D29*
X239390000Y-38115000D03*
X238120000Y-38115000D03*
X236850000Y-38115000D03*
D30*
X235580000Y-38115000D03*
D29*
X246890000Y-38115000D03*
X245620000Y-38115000D03*
X244350000Y-38115000D03*
D30*
X243080000Y-38115000D03*
D29*
X231890000Y-38115000D03*
X230620000Y-38115000D03*
X229350000Y-38115000D03*
D30*
X228080000Y-38115000D03*
D19*
X224620000Y-38115000D03*
D20*
X222080000Y-38115000D03*
D31*
X205010000Y-101536500D03*
X209010000Y-101536500D03*
G36*
G01*
X238827500Y-71699000D02*
X239327500Y-71699000D01*
G75*
G02*
X239552500Y-71924000I0J-225000D01*
G01*
X239552500Y-72374000D01*
G75*
G02*
X239327500Y-72599000I-225000J0D01*
G01*
X238827500Y-72599000D01*
G75*
G02*
X238602500Y-72374000I0J225000D01*
G01*
X238602500Y-71924000D01*
G75*
G02*
X238827500Y-71699000I225000J0D01*
G01*
G37*
G36*
G01*
X238827500Y-70149000D02*
X239327500Y-70149000D01*
G75*
G02*
X239552500Y-70374000I0J-225000D01*
G01*
X239552500Y-70824000D01*
G75*
G02*
X239327500Y-71049000I-225000J0D01*
G01*
X238827500Y-71049000D01*
G75*
G02*
X238602500Y-70824000I0J225000D01*
G01*
X238602500Y-70374000D01*
G75*
G02*
X238827500Y-70149000I225000J0D01*
G01*
G37*
G36*
G01*
X237707500Y-72226000D02*
X237907500Y-72226000D01*
G75*
G02*
X238007500Y-72326000I0J-100000D01*
G01*
X238007500Y-72586000D01*
G75*
G02*
X237907500Y-72686000I-100000J0D01*
G01*
X237707500Y-72686000D01*
G75*
G02*
X237607500Y-72586000I0J100000D01*
G01*
X237607500Y-72326000D01*
G75*
G02*
X237707500Y-72226000I100000J0D01*
G01*
G37*
G36*
G01*
X237707500Y-71586000D02*
X237907500Y-71586000D01*
G75*
G02*
X238007500Y-71686000I0J-100000D01*
G01*
X238007500Y-71946000D01*
G75*
G02*
X237907500Y-72046000I-100000J0D01*
G01*
X237707500Y-72046000D01*
G75*
G02*
X237607500Y-71946000I0J100000D01*
G01*
X237607500Y-71686000D01*
G75*
G02*
X237707500Y-71586000I100000J0D01*
G01*
G37*
G36*
G01*
X223683500Y-68871000D02*
X223483500Y-68871000D01*
G75*
G02*
X223383500Y-68771000I0J100000D01*
G01*
X223383500Y-68511000D01*
G75*
G02*
X223483500Y-68411000I100000J0D01*
G01*
X223683500Y-68411000D01*
G75*
G02*
X223783500Y-68511000I0J-100000D01*
G01*
X223783500Y-68771000D01*
G75*
G02*
X223683500Y-68871000I-100000J0D01*
G01*
G37*
G36*
G01*
X223683500Y-69511000D02*
X223483500Y-69511000D01*
G75*
G02*
X223383500Y-69411000I0J100000D01*
G01*
X223383500Y-69151000D01*
G75*
G02*
X223483500Y-69051000I100000J0D01*
G01*
X223683500Y-69051000D01*
G75*
G02*
X223783500Y-69151000I0J-100000D01*
G01*
X223783500Y-69411000D01*
G75*
G02*
X223683500Y-69511000I-100000J0D01*
G01*
G37*
G36*
G01*
X225080500Y-63918000D02*
X224880500Y-63918000D01*
G75*
G02*
X224780500Y-63818000I0J100000D01*
G01*
X224780500Y-63558000D01*
G75*
G02*
X224880500Y-63458000I100000J0D01*
G01*
X225080500Y-63458000D01*
G75*
G02*
X225180500Y-63558000I0J-100000D01*
G01*
X225180500Y-63818000D01*
G75*
G02*
X225080500Y-63918000I-100000J0D01*
G01*
G37*
G36*
G01*
X225080500Y-64558000D02*
X224880500Y-64558000D01*
G75*
G02*
X224780500Y-64458000I0J100000D01*
G01*
X224780500Y-64198000D01*
G75*
G02*
X224880500Y-64098000I100000J0D01*
G01*
X225080500Y-64098000D01*
G75*
G02*
X225180500Y-64198000I0J-100000D01*
G01*
X225180500Y-64458000D01*
G75*
G02*
X225080500Y-64558000I-100000J0D01*
G01*
G37*
G36*
G01*
X226404500Y-64098000D02*
X226604500Y-64098000D01*
G75*
G02*
X226704500Y-64198000I0J-100000D01*
G01*
X226704500Y-64458000D01*
G75*
G02*
X226604500Y-64558000I-100000J0D01*
G01*
X226404500Y-64558000D01*
G75*
G02*
X226304500Y-64458000I0J100000D01*
G01*
X226304500Y-64198000D01*
G75*
G02*
X226404500Y-64098000I100000J0D01*
G01*
G37*
G36*
G01*
X226404500Y-63458000D02*
X226604500Y-63458000D01*
G75*
G02*
X226704500Y-63558000I0J-100000D01*
G01*
X226704500Y-63818000D01*
G75*
G02*
X226604500Y-63918000I-100000J0D01*
G01*
X226404500Y-63918000D01*
G75*
G02*
X226304500Y-63818000I0J100000D01*
G01*
X226304500Y-63558000D01*
G75*
G02*
X226404500Y-63458000I100000J0D01*
G01*
G37*
G36*
G01*
X226404500Y-62574000D02*
X226604500Y-62574000D01*
G75*
G02*
X226704500Y-62674000I0J-100000D01*
G01*
X226704500Y-62934000D01*
G75*
G02*
X226604500Y-63034000I-100000J0D01*
G01*
X226404500Y-63034000D01*
G75*
G02*
X226304500Y-62934000I0J100000D01*
G01*
X226304500Y-62674000D01*
G75*
G02*
X226404500Y-62574000I100000J0D01*
G01*
G37*
G36*
G01*
X226404500Y-61934000D02*
X226604500Y-61934000D01*
G75*
G02*
X226704500Y-62034000I0J-100000D01*
G01*
X226704500Y-62294000D01*
G75*
G02*
X226604500Y-62394000I-100000J0D01*
G01*
X226404500Y-62394000D01*
G75*
G02*
X226304500Y-62294000I0J100000D01*
G01*
X226304500Y-62034000D01*
G75*
G02*
X226404500Y-61934000I100000J0D01*
G01*
G37*
G36*
G01*
X228128500Y-62394000D02*
X227928500Y-62394000D01*
G75*
G02*
X227828500Y-62294000I0J100000D01*
G01*
X227828500Y-62034000D01*
G75*
G02*
X227928500Y-61934000I100000J0D01*
G01*
X228128500Y-61934000D01*
G75*
G02*
X228228500Y-62034000I0J-100000D01*
G01*
X228228500Y-62294000D01*
G75*
G02*
X228128500Y-62394000I-100000J0D01*
G01*
G37*
G36*
G01*
X228128500Y-63034000D02*
X227928500Y-63034000D01*
G75*
G02*
X227828500Y-62934000I0J100000D01*
G01*
X227828500Y-62674000D01*
G75*
G02*
X227928500Y-62574000I100000J0D01*
G01*
X228128500Y-62574000D01*
G75*
G02*
X228228500Y-62674000I0J-100000D01*
G01*
X228228500Y-62934000D01*
G75*
G02*
X228128500Y-63034000I-100000J0D01*
G01*
G37*
G36*
G01*
X228128500Y-63918000D02*
X227928500Y-63918000D01*
G75*
G02*
X227828500Y-63818000I0J100000D01*
G01*
X227828500Y-63558000D01*
G75*
G02*
X227928500Y-63458000I100000J0D01*
G01*
X228128500Y-63458000D01*
G75*
G02*
X228228500Y-63558000I0J-100000D01*
G01*
X228228500Y-63818000D01*
G75*
G02*
X228128500Y-63918000I-100000J0D01*
G01*
G37*
G36*
G01*
X228128500Y-64558000D02*
X227928500Y-64558000D01*
G75*
G02*
X227828500Y-64458000I0J100000D01*
G01*
X227828500Y-64198000D01*
G75*
G02*
X227928500Y-64098000I100000J0D01*
G01*
X228128500Y-64098000D01*
G75*
G02*
X228228500Y-64198000I0J-100000D01*
G01*
X228228500Y-64458000D01*
G75*
G02*
X228128500Y-64558000I-100000J0D01*
G01*
G37*
G36*
G01*
X229452500Y-64098000D02*
X229652500Y-64098000D01*
G75*
G02*
X229752500Y-64198000I0J-100000D01*
G01*
X229752500Y-64458000D01*
G75*
G02*
X229652500Y-64558000I-100000J0D01*
G01*
X229452500Y-64558000D01*
G75*
G02*
X229352500Y-64458000I0J100000D01*
G01*
X229352500Y-64198000D01*
G75*
G02*
X229452500Y-64098000I100000J0D01*
G01*
G37*
G36*
G01*
X229452500Y-63458000D02*
X229652500Y-63458000D01*
G75*
G02*
X229752500Y-63558000I0J-100000D01*
G01*
X229752500Y-63818000D01*
G75*
G02*
X229652500Y-63918000I-100000J0D01*
G01*
X229452500Y-63918000D01*
G75*
G02*
X229352500Y-63818000I0J100000D01*
G01*
X229352500Y-63558000D01*
G75*
G02*
X229452500Y-63458000I100000J0D01*
G01*
G37*
G36*
G01*
X229452500Y-62574000D02*
X229652500Y-62574000D01*
G75*
G02*
X229752500Y-62674000I0J-100000D01*
G01*
X229752500Y-62934000D01*
G75*
G02*
X229652500Y-63034000I-100000J0D01*
G01*
X229452500Y-63034000D01*
G75*
G02*
X229352500Y-62934000I0J100000D01*
G01*
X229352500Y-62674000D01*
G75*
G02*
X229452500Y-62574000I100000J0D01*
G01*
G37*
G36*
G01*
X229452500Y-61934000D02*
X229652500Y-61934000D01*
G75*
G02*
X229752500Y-62034000I0J-100000D01*
G01*
X229752500Y-62294000D01*
G75*
G02*
X229652500Y-62394000I-100000J0D01*
G01*
X229452500Y-62394000D01*
G75*
G02*
X229352500Y-62294000I0J100000D01*
G01*
X229352500Y-62034000D01*
G75*
G02*
X229452500Y-61934000I100000J0D01*
G01*
G37*
G36*
G01*
X231176500Y-62394000D02*
X230976500Y-62394000D01*
G75*
G02*
X230876500Y-62294000I0J100000D01*
G01*
X230876500Y-62034000D01*
G75*
G02*
X230976500Y-61934000I100000J0D01*
G01*
X231176500Y-61934000D01*
G75*
G02*
X231276500Y-62034000I0J-100000D01*
G01*
X231276500Y-62294000D01*
G75*
G02*
X231176500Y-62394000I-100000J0D01*
G01*
G37*
G36*
G01*
X231176500Y-63034000D02*
X230976500Y-63034000D01*
G75*
G02*
X230876500Y-62934000I0J100000D01*
G01*
X230876500Y-62674000D01*
G75*
G02*
X230976500Y-62574000I100000J0D01*
G01*
X231176500Y-62574000D01*
G75*
G02*
X231276500Y-62674000I0J-100000D01*
G01*
X231276500Y-62934000D01*
G75*
G02*
X231176500Y-63034000I-100000J0D01*
G01*
G37*
G36*
G01*
X231176500Y-63918000D02*
X230976500Y-63918000D01*
G75*
G02*
X230876500Y-63818000I0J100000D01*
G01*
X230876500Y-63558000D01*
G75*
G02*
X230976500Y-63458000I100000J0D01*
G01*
X231176500Y-63458000D01*
G75*
G02*
X231276500Y-63558000I0J-100000D01*
G01*
X231276500Y-63818000D01*
G75*
G02*
X231176500Y-63918000I-100000J0D01*
G01*
G37*
G36*
G01*
X231176500Y-64558000D02*
X230976500Y-64558000D01*
G75*
G02*
X230876500Y-64458000I0J100000D01*
G01*
X230876500Y-64198000D01*
G75*
G02*
X230976500Y-64098000I100000J0D01*
G01*
X231176500Y-64098000D01*
G75*
G02*
X231276500Y-64198000I0J-100000D01*
G01*
X231276500Y-64458000D01*
G75*
G02*
X231176500Y-64558000I-100000J0D01*
G01*
G37*
G36*
G01*
X232500500Y-64098000D02*
X232700500Y-64098000D01*
G75*
G02*
X232800500Y-64198000I0J-100000D01*
G01*
X232800500Y-64458000D01*
G75*
G02*
X232700500Y-64558000I-100000J0D01*
G01*
X232500500Y-64558000D01*
G75*
G02*
X232400500Y-64458000I0J100000D01*
G01*
X232400500Y-64198000D01*
G75*
G02*
X232500500Y-64098000I100000J0D01*
G01*
G37*
G36*
G01*
X232500500Y-63458000D02*
X232700500Y-63458000D01*
G75*
G02*
X232800500Y-63558000I0J-100000D01*
G01*
X232800500Y-63818000D01*
G75*
G02*
X232700500Y-63918000I-100000J0D01*
G01*
X232500500Y-63918000D01*
G75*
G02*
X232400500Y-63818000I0J100000D01*
G01*
X232400500Y-63558000D01*
G75*
G02*
X232500500Y-63458000I100000J0D01*
G01*
G37*
G36*
G01*
X232500500Y-62574000D02*
X232700500Y-62574000D01*
G75*
G02*
X232800500Y-62674000I0J-100000D01*
G01*
X232800500Y-62934000D01*
G75*
G02*
X232700500Y-63034000I-100000J0D01*
G01*
X232500500Y-63034000D01*
G75*
G02*
X232400500Y-62934000I0J100000D01*
G01*
X232400500Y-62674000D01*
G75*
G02*
X232500500Y-62574000I100000J0D01*
G01*
G37*
G36*
G01*
X232500500Y-61934000D02*
X232700500Y-61934000D01*
G75*
G02*
X232800500Y-62034000I0J-100000D01*
G01*
X232800500Y-62294000D01*
G75*
G02*
X232700500Y-62394000I-100000J0D01*
G01*
X232500500Y-62394000D01*
G75*
G02*
X232400500Y-62294000I0J100000D01*
G01*
X232400500Y-62034000D01*
G75*
G02*
X232500500Y-61934000I100000J0D01*
G01*
G37*
G36*
G01*
X234224500Y-62394000D02*
X234024500Y-62394000D01*
G75*
G02*
X233924500Y-62294000I0J100000D01*
G01*
X233924500Y-62034000D01*
G75*
G02*
X234024500Y-61934000I100000J0D01*
G01*
X234224500Y-61934000D01*
G75*
G02*
X234324500Y-62034000I0J-100000D01*
G01*
X234324500Y-62294000D01*
G75*
G02*
X234224500Y-62394000I-100000J0D01*
G01*
G37*
G36*
G01*
X234224500Y-63034000D02*
X234024500Y-63034000D01*
G75*
G02*
X233924500Y-62934000I0J100000D01*
G01*
X233924500Y-62674000D01*
G75*
G02*
X234024500Y-62574000I100000J0D01*
G01*
X234224500Y-62574000D01*
G75*
G02*
X234324500Y-62674000I0J-100000D01*
G01*
X234324500Y-62934000D01*
G75*
G02*
X234224500Y-63034000I-100000J0D01*
G01*
G37*
G36*
G01*
X234224500Y-63918000D02*
X234024500Y-63918000D01*
G75*
G02*
X233924500Y-63818000I0J100000D01*
G01*
X233924500Y-63558000D01*
G75*
G02*
X234024500Y-63458000I100000J0D01*
G01*
X234224500Y-63458000D01*
G75*
G02*
X234324500Y-63558000I0J-100000D01*
G01*
X234324500Y-63818000D01*
G75*
G02*
X234224500Y-63918000I-100000J0D01*
G01*
G37*
G36*
G01*
X234224500Y-64558000D02*
X234024500Y-64558000D01*
G75*
G02*
X233924500Y-64458000I0J100000D01*
G01*
X233924500Y-64198000D01*
G75*
G02*
X234024500Y-64098000I100000J0D01*
G01*
X234224500Y-64098000D01*
G75*
G02*
X234324500Y-64198000I0J-100000D01*
G01*
X234324500Y-64458000D01*
G75*
G02*
X234224500Y-64558000I-100000J0D01*
G01*
G37*
G36*
G01*
X235548500Y-64098000D02*
X235748500Y-64098000D01*
G75*
G02*
X235848500Y-64198000I0J-100000D01*
G01*
X235848500Y-64458000D01*
G75*
G02*
X235748500Y-64558000I-100000J0D01*
G01*
X235548500Y-64558000D01*
G75*
G02*
X235448500Y-64458000I0J100000D01*
G01*
X235448500Y-64198000D01*
G75*
G02*
X235548500Y-64098000I100000J0D01*
G01*
G37*
G36*
G01*
X235548500Y-63458000D02*
X235748500Y-63458000D01*
G75*
G02*
X235848500Y-63558000I0J-100000D01*
G01*
X235848500Y-63818000D01*
G75*
G02*
X235748500Y-63918000I-100000J0D01*
G01*
X235548500Y-63918000D01*
G75*
G02*
X235448500Y-63818000I0J100000D01*
G01*
X235448500Y-63558000D01*
G75*
G02*
X235548500Y-63458000I100000J0D01*
G01*
G37*
G36*
G01*
X235548500Y-62574000D02*
X235748500Y-62574000D01*
G75*
G02*
X235848500Y-62674000I0J-100000D01*
G01*
X235848500Y-62934000D01*
G75*
G02*
X235748500Y-63034000I-100000J0D01*
G01*
X235548500Y-63034000D01*
G75*
G02*
X235448500Y-62934000I0J100000D01*
G01*
X235448500Y-62674000D01*
G75*
G02*
X235548500Y-62574000I100000J0D01*
G01*
G37*
G36*
G01*
X235548500Y-61934000D02*
X235748500Y-61934000D01*
G75*
G02*
X235848500Y-62034000I0J-100000D01*
G01*
X235848500Y-62294000D01*
G75*
G02*
X235748500Y-62394000I-100000J0D01*
G01*
X235548500Y-62394000D01*
G75*
G02*
X235448500Y-62294000I0J100000D01*
G01*
X235448500Y-62034000D01*
G75*
G02*
X235548500Y-61934000I100000J0D01*
G01*
G37*
G36*
G01*
X237272500Y-62394000D02*
X237072500Y-62394000D01*
G75*
G02*
X236972500Y-62294000I0J100000D01*
G01*
X236972500Y-62034000D01*
G75*
G02*
X237072500Y-61934000I100000J0D01*
G01*
X237272500Y-61934000D01*
G75*
G02*
X237372500Y-62034000I0J-100000D01*
G01*
X237372500Y-62294000D01*
G75*
G02*
X237272500Y-62394000I-100000J0D01*
G01*
G37*
G36*
G01*
X237272500Y-63034000D02*
X237072500Y-63034000D01*
G75*
G02*
X236972500Y-62934000I0J100000D01*
G01*
X236972500Y-62674000D01*
G75*
G02*
X237072500Y-62574000I100000J0D01*
G01*
X237272500Y-62574000D01*
G75*
G02*
X237372500Y-62674000I0J-100000D01*
G01*
X237372500Y-62934000D01*
G75*
G02*
X237272500Y-63034000I-100000J0D01*
G01*
G37*
G36*
G01*
X225080500Y-62394000D02*
X224880500Y-62394000D01*
G75*
G02*
X224780500Y-62294000I0J100000D01*
G01*
X224780500Y-62034000D01*
G75*
G02*
X224880500Y-61934000I100000J0D01*
G01*
X225080500Y-61934000D01*
G75*
G02*
X225180500Y-62034000I0J-100000D01*
G01*
X225180500Y-62294000D01*
G75*
G02*
X225080500Y-62394000I-100000J0D01*
G01*
G37*
G36*
G01*
X225080500Y-63034000D02*
X224880500Y-63034000D01*
G75*
G02*
X224780500Y-62934000I0J100000D01*
G01*
X224780500Y-62674000D01*
G75*
G02*
X224880500Y-62574000I100000J0D01*
G01*
X225080500Y-62574000D01*
G75*
G02*
X225180500Y-62674000I0J-100000D01*
G01*
X225180500Y-62934000D01*
G75*
G02*
X225080500Y-63034000I-100000J0D01*
G01*
G37*
G36*
G01*
X237072500Y-64098000D02*
X237272500Y-64098000D01*
G75*
G02*
X237372500Y-64198000I0J-100000D01*
G01*
X237372500Y-64458000D01*
G75*
G02*
X237272500Y-64558000I-100000J0D01*
G01*
X237072500Y-64558000D01*
G75*
G02*
X236972500Y-64458000I0J100000D01*
G01*
X236972500Y-64198000D01*
G75*
G02*
X237072500Y-64098000I100000J0D01*
G01*
G37*
G36*
G01*
X237072500Y-63458000D02*
X237272500Y-63458000D01*
G75*
G02*
X237372500Y-63558000I0J-100000D01*
G01*
X237372500Y-63818000D01*
G75*
G02*
X237272500Y-63918000I-100000J0D01*
G01*
X237072500Y-63918000D01*
G75*
G02*
X236972500Y-63818000I0J100000D01*
G01*
X236972500Y-63558000D01*
G75*
G02*
X237072500Y-63458000I100000J0D01*
G01*
G37*
G36*
G01*
X237907500Y-75475000D02*
X237707500Y-75475000D01*
G75*
G02*
X237607500Y-75375000I0J100000D01*
G01*
X237607500Y-75115000D01*
G75*
G02*
X237707500Y-75015000I100000J0D01*
G01*
X237907500Y-75015000D01*
G75*
G02*
X238007500Y-75115000I0J-100000D01*
G01*
X238007500Y-75375000D01*
G75*
G02*
X237907500Y-75475000I-100000J0D01*
G01*
G37*
G36*
G01*
X237907500Y-76115000D02*
X237707500Y-76115000D01*
G75*
G02*
X237607500Y-76015000I0J100000D01*
G01*
X237607500Y-75755000D01*
G75*
G02*
X237707500Y-75655000I100000J0D01*
G01*
X237907500Y-75655000D01*
G75*
G02*
X238007500Y-75755000I0J-100000D01*
G01*
X238007500Y-76015000D01*
G75*
G02*
X237907500Y-76115000I-100000J0D01*
G01*
G37*
G36*
G01*
X222276500Y-73696500D02*
X222276500Y-73496500D01*
G75*
G02*
X222376500Y-73396500I100000J0D01*
G01*
X222636500Y-73396500D01*
G75*
G02*
X222736500Y-73496500I0J-100000D01*
G01*
X222736500Y-73696500D01*
G75*
G02*
X222636500Y-73796500I-100000J0D01*
G01*
X222376500Y-73796500D01*
G75*
G02*
X222276500Y-73696500I0J100000D01*
G01*
G37*
G36*
G01*
X221636500Y-73696500D02*
X221636500Y-73496500D01*
G75*
G02*
X221736500Y-73396500I100000J0D01*
G01*
X221996500Y-73396500D01*
G75*
G02*
X222096500Y-73496500I0J-100000D01*
G01*
X222096500Y-73696500D01*
G75*
G02*
X221996500Y-73796500I-100000J0D01*
G01*
X221736500Y-73796500D01*
G75*
G02*
X221636500Y-73696500I0J100000D01*
G01*
G37*
G36*
G01*
X223683500Y-75602000D02*
X223483500Y-75602000D01*
G75*
G02*
X223383500Y-75502000I0J100000D01*
G01*
X223383500Y-75242000D01*
G75*
G02*
X223483500Y-75142000I100000J0D01*
G01*
X223683500Y-75142000D01*
G75*
G02*
X223783500Y-75242000I0J-100000D01*
G01*
X223783500Y-75502000D01*
G75*
G02*
X223683500Y-75602000I-100000J0D01*
G01*
G37*
G36*
G01*
X223683500Y-76242000D02*
X223483500Y-76242000D01*
G75*
G02*
X223383500Y-76142000I0J100000D01*
G01*
X223383500Y-75882000D01*
G75*
G02*
X223483500Y-75782000I100000J0D01*
G01*
X223683500Y-75782000D01*
G75*
G02*
X223783500Y-75882000I0J-100000D01*
G01*
X223783500Y-76142000D01*
G75*
G02*
X223683500Y-76242000I-100000J0D01*
G01*
G37*
G36*
G01*
X222276500Y-72934500D02*
X222276500Y-72734500D01*
G75*
G02*
X222376500Y-72634500I100000J0D01*
G01*
X222636500Y-72634500D01*
G75*
G02*
X222736500Y-72734500I0J-100000D01*
G01*
X222736500Y-72934500D01*
G75*
G02*
X222636500Y-73034500I-100000J0D01*
G01*
X222376500Y-73034500D01*
G75*
G02*
X222276500Y-72934500I0J100000D01*
G01*
G37*
G36*
G01*
X221636500Y-72934500D02*
X221636500Y-72734500D01*
G75*
G02*
X221736500Y-72634500I100000J0D01*
G01*
X221996500Y-72634500D01*
G75*
G02*
X222096500Y-72734500I0J-100000D01*
G01*
X222096500Y-72934500D01*
G75*
G02*
X221996500Y-73034500I-100000J0D01*
G01*
X221736500Y-73034500D01*
G75*
G02*
X221636500Y-72934500I0J100000D01*
G01*
G37*
G36*
G01*
X225398500Y-78386000D02*
X225398500Y-78586000D01*
G75*
G02*
X225298500Y-78686000I-100000J0D01*
G01*
X225038500Y-78686000D01*
G75*
G02*
X224938500Y-78586000I0J100000D01*
G01*
X224938500Y-78386000D01*
G75*
G02*
X225038500Y-78286000I100000J0D01*
G01*
X225298500Y-78286000D01*
G75*
G02*
X225398500Y-78386000I0J-100000D01*
G01*
G37*
G36*
G01*
X226038500Y-78386000D02*
X226038500Y-78586000D01*
G75*
G02*
X225938500Y-78686000I-100000J0D01*
G01*
X225678500Y-78686000D01*
G75*
G02*
X225578500Y-78586000I0J100000D01*
G01*
X225578500Y-78386000D01*
G75*
G02*
X225678500Y-78286000I100000J0D01*
G01*
X225938500Y-78286000D01*
G75*
G02*
X226038500Y-78386000I0J-100000D01*
G01*
G37*
G36*
G01*
X238860500Y-73179000D02*
X238860500Y-73379000D01*
G75*
G02*
X238760500Y-73479000I-100000J0D01*
G01*
X238500500Y-73479000D01*
G75*
G02*
X238400500Y-73379000I0J100000D01*
G01*
X238400500Y-73179000D01*
G75*
G02*
X238500500Y-73079000I100000J0D01*
G01*
X238760500Y-73079000D01*
G75*
G02*
X238860500Y-73179000I0J-100000D01*
G01*
G37*
G36*
G01*
X239500500Y-73179000D02*
X239500500Y-73379000D01*
G75*
G02*
X239400500Y-73479000I-100000J0D01*
G01*
X239140500Y-73479000D01*
G75*
G02*
X239040500Y-73379000I0J100000D01*
G01*
X239040500Y-73179000D01*
G75*
G02*
X239140500Y-73079000I100000J0D01*
G01*
X239400500Y-73079000D01*
G75*
G02*
X239500500Y-73179000I0J-100000D01*
G01*
G37*
G36*
G01*
X223483500Y-71718000D02*
X223683500Y-71718000D01*
G75*
G02*
X223783500Y-71818000I0J-100000D01*
G01*
X223783500Y-72078000D01*
G75*
G02*
X223683500Y-72178000I-100000J0D01*
G01*
X223483500Y-72178000D01*
G75*
G02*
X223383500Y-72078000I0J100000D01*
G01*
X223383500Y-71818000D01*
G75*
G02*
X223483500Y-71718000I100000J0D01*
G01*
G37*
G36*
G01*
X223483500Y-71078000D02*
X223683500Y-71078000D01*
G75*
G02*
X223783500Y-71178000I0J-100000D01*
G01*
X223783500Y-71438000D01*
G75*
G02*
X223683500Y-71538000I-100000J0D01*
G01*
X223483500Y-71538000D01*
G75*
G02*
X223383500Y-71438000I0J100000D01*
G01*
X223383500Y-71178000D01*
G75*
G02*
X223483500Y-71078000I100000J0D01*
G01*
G37*
G36*
G01*
X214847500Y-97118000D02*
X215047500Y-97118000D01*
G75*
G02*
X215147500Y-97218000I0J-100000D01*
G01*
X215147500Y-97478000D01*
G75*
G02*
X215047500Y-97578000I-100000J0D01*
G01*
X214847500Y-97578000D01*
G75*
G02*
X214747500Y-97478000I0J100000D01*
G01*
X214747500Y-97218000D01*
G75*
G02*
X214847500Y-97118000I100000J0D01*
G01*
G37*
G36*
G01*
X214847500Y-96478000D02*
X215047500Y-96478000D01*
G75*
G02*
X215147500Y-96578000I0J-100000D01*
G01*
X215147500Y-96838000D01*
G75*
G02*
X215047500Y-96938000I-100000J0D01*
G01*
X214847500Y-96938000D01*
G75*
G02*
X214747500Y-96838000I0J100000D01*
G01*
X214747500Y-96578000D01*
G75*
G02*
X214847500Y-96478000I100000J0D01*
G01*
G37*
G36*
G01*
X214085500Y-97118000D02*
X214285500Y-97118000D01*
G75*
G02*
X214385500Y-97218000I0J-100000D01*
G01*
X214385500Y-97478000D01*
G75*
G02*
X214285500Y-97578000I-100000J0D01*
G01*
X214085500Y-97578000D01*
G75*
G02*
X213985500Y-97478000I0J100000D01*
G01*
X213985500Y-97218000D01*
G75*
G02*
X214085500Y-97118000I100000J0D01*
G01*
G37*
G36*
G01*
X214085500Y-96478000D02*
X214285500Y-96478000D01*
G75*
G02*
X214385500Y-96578000I0J-100000D01*
G01*
X214385500Y-96838000D01*
G75*
G02*
X214285500Y-96938000I-100000J0D01*
G01*
X214085500Y-96938000D01*
G75*
G02*
X213985500Y-96838000I0J100000D01*
G01*
X213985500Y-96578000D01*
G75*
G02*
X214085500Y-96478000I100000J0D01*
G01*
G37*
G36*
G01*
X214720000Y-98271000D02*
X214720000Y-98071000D01*
G75*
G02*
X214820000Y-97971000I100000J0D01*
G01*
X215080000Y-97971000D01*
G75*
G02*
X215180000Y-98071000I0J-100000D01*
G01*
X215180000Y-98271000D01*
G75*
G02*
X215080000Y-98371000I-100000J0D01*
G01*
X214820000Y-98371000D01*
G75*
G02*
X214720000Y-98271000I0J100000D01*
G01*
G37*
G36*
G01*
X214080000Y-98271000D02*
X214080000Y-98071000D01*
G75*
G02*
X214180000Y-97971000I100000J0D01*
G01*
X214440000Y-97971000D01*
G75*
G02*
X214540000Y-98071000I0J-100000D01*
G01*
X214540000Y-98271000D01*
G75*
G02*
X214440000Y-98371000I-100000J0D01*
G01*
X214180000Y-98371000D01*
G75*
G02*
X214080000Y-98271000I0J100000D01*
G01*
G37*
G36*
G01*
X211618500Y-104431000D02*
X211418500Y-104431000D01*
G75*
G02*
X211318500Y-104331000I0J100000D01*
G01*
X211318500Y-104071000D01*
G75*
G02*
X211418500Y-103971000I100000J0D01*
G01*
X211618500Y-103971000D01*
G75*
G02*
X211718500Y-104071000I0J-100000D01*
G01*
X211718500Y-104331000D01*
G75*
G02*
X211618500Y-104431000I-100000J0D01*
G01*
G37*
G36*
G01*
X211618500Y-105071000D02*
X211418500Y-105071000D01*
G75*
G02*
X211318500Y-104971000I0J100000D01*
G01*
X211318500Y-104711000D01*
G75*
G02*
X211418500Y-104611000I100000J0D01*
G01*
X211618500Y-104611000D01*
G75*
G02*
X211718500Y-104711000I0J-100000D01*
G01*
X211718500Y-104971000D01*
G75*
G02*
X211618500Y-105071000I-100000J0D01*
G01*
G37*
G36*
G01*
X209885500Y-104137000D02*
X210085500Y-104137000D01*
G75*
G02*
X210185500Y-104237000I0J-100000D01*
G01*
X210185500Y-104497000D01*
G75*
G02*
X210085500Y-104597000I-100000J0D01*
G01*
X209885500Y-104597000D01*
G75*
G02*
X209785500Y-104497000I0J100000D01*
G01*
X209785500Y-104237000D01*
G75*
G02*
X209885500Y-104137000I100000J0D01*
G01*
G37*
G36*
G01*
X209885500Y-103497000D02*
X210085500Y-103497000D01*
G75*
G02*
X210185500Y-103597000I0J-100000D01*
G01*
X210185500Y-103857000D01*
G75*
G02*
X210085500Y-103957000I-100000J0D01*
G01*
X209885500Y-103957000D01*
G75*
G02*
X209785500Y-103857000I0J100000D01*
G01*
X209785500Y-103597000D01*
G75*
G02*
X209885500Y-103497000I100000J0D01*
G01*
G37*
G36*
G01*
X210647500Y-104137000D02*
X210847500Y-104137000D01*
G75*
G02*
X210947500Y-104237000I0J-100000D01*
G01*
X210947500Y-104497000D01*
G75*
G02*
X210847500Y-104597000I-100000J0D01*
G01*
X210647500Y-104597000D01*
G75*
G02*
X210547500Y-104497000I0J100000D01*
G01*
X210547500Y-104237000D01*
G75*
G02*
X210647500Y-104137000I100000J0D01*
G01*
G37*
G36*
G01*
X210647500Y-103497000D02*
X210847500Y-103497000D01*
G75*
G02*
X210947500Y-103597000I0J-100000D01*
G01*
X210947500Y-103857000D01*
G75*
G02*
X210847500Y-103957000I-100000J0D01*
G01*
X210647500Y-103957000D01*
G75*
G02*
X210547500Y-103857000I0J100000D01*
G01*
X210547500Y-103597000D01*
G75*
G02*
X210647500Y-103497000I100000J0D01*
G01*
G37*
M02*
