G04 #@! TF.GenerationSoftware,KiCad,Pcbnew,5.1.10*
G04 #@! TF.CreationDate,2021-08-06T13:54:33-04:00*
G04 #@! TF.ProjectId,mist-eeg,6d697374-2d65-4656-972e-6b696361645f,1E*
G04 #@! TF.SameCoordinates,Original*
G04 #@! TF.FileFunction,Paste,Top*
G04 #@! TF.FilePolarity,Positive*
%FSLAX46Y46*%
G04 Gerber Fmt 4.6, Leading zero omitted, Abs format (unit mm)*
G04 Created by KiCad (PCBNEW 5.1.10) date 2021-08-06 13:54:33*
%MOMM*%
%LPD*%
G01*
G04 APERTURE LIST*
%ADD10R,1.350000X1.900000*%
%ADD11R,1.000000X1.200000*%
%ADD12R,1.350000X1.550000*%
%ADD13R,1.800000X1.170000*%
%ADD14R,1.100000X0.850000*%
%ADD15R,1.100000X0.750000*%
%ADD16R,0.900000X0.800000*%
%ADD17R,1.000000X1.700000*%
%ADD18R,0.584200X1.295400*%
%ADD19R,0.711200X0.203200*%
%ADD20R,0.203200X0.711200*%
%ADD21R,0.800000X0.900000*%
G04 APERTURE END LIST*
G36*
G01*
X222815700Y-76285100D02*
X222395700Y-76285100D01*
G75*
G02*
X222225700Y-76115100I0J170000D01*
G01*
X222225700Y-75775100D01*
G75*
G02*
X222395700Y-75605100I170000J0D01*
G01*
X222815700Y-75605100D01*
G75*
G02*
X222985700Y-75775100I0J-170000D01*
G01*
X222985700Y-76115100D01*
G75*
G02*
X222815700Y-76285100I-170000J0D01*
G01*
G37*
G36*
G01*
X221875700Y-76285100D02*
X221455700Y-76285100D01*
G75*
G02*
X221285700Y-76115100I0J170000D01*
G01*
X221285700Y-75775100D01*
G75*
G02*
X221455700Y-75605100I170000J0D01*
G01*
X221875700Y-75605100D01*
G75*
G02*
X222045700Y-75775100I0J-170000D01*
G01*
X222045700Y-76115100D01*
G75*
G02*
X221875700Y-76285100I-170000J0D01*
G01*
G37*
G36*
G01*
X222815700Y-77125100D02*
X222395700Y-77125100D01*
G75*
G02*
X222225700Y-76955100I0J170000D01*
G01*
X222225700Y-76615100D01*
G75*
G02*
X222395700Y-76445100I170000J0D01*
G01*
X222815700Y-76445100D01*
G75*
G02*
X222985700Y-76615100I0J-170000D01*
G01*
X222985700Y-76955100D01*
G75*
G02*
X222815700Y-77125100I-170000J0D01*
G01*
G37*
G36*
G01*
X221875700Y-77125100D02*
X221455700Y-77125100D01*
G75*
G02*
X221285700Y-76955100I0J170000D01*
G01*
X221285700Y-76615100D01*
G75*
G02*
X221455700Y-76445100I170000J0D01*
G01*
X221875700Y-76445100D01*
G75*
G02*
X222045700Y-76615100I0J-170000D01*
G01*
X222045700Y-76955100D01*
G75*
G02*
X221875700Y-77125100I-170000J0D01*
G01*
G37*
G36*
G01*
X221210700Y-74940100D02*
X221060700Y-74940100D01*
G75*
G02*
X220985700Y-74865100I0J75000D01*
G01*
X220985700Y-73565100D01*
G75*
G02*
X221060700Y-73490100I75000J0D01*
G01*
X221210700Y-73490100D01*
G75*
G02*
X221285700Y-73565100I0J-75000D01*
G01*
X221285700Y-74865100D01*
G75*
G02*
X221210700Y-74940100I-75000J0D01*
G01*
G37*
G36*
G01*
X221710700Y-74940100D02*
X221560700Y-74940100D01*
G75*
G02*
X221485700Y-74865100I0J75000D01*
G01*
X221485700Y-73565100D01*
G75*
G02*
X221560700Y-73490100I75000J0D01*
G01*
X221710700Y-73490100D01*
G75*
G02*
X221785700Y-73565100I0J-75000D01*
G01*
X221785700Y-74865100D01*
G75*
G02*
X221710700Y-74940100I-75000J0D01*
G01*
G37*
G36*
G01*
X222210700Y-74940100D02*
X222060700Y-74940100D01*
G75*
G02*
X221985700Y-74865100I0J75000D01*
G01*
X221985700Y-73565100D01*
G75*
G02*
X222060700Y-73490100I75000J0D01*
G01*
X222210700Y-73490100D01*
G75*
G02*
X222285700Y-73565100I0J-75000D01*
G01*
X222285700Y-74865100D01*
G75*
G02*
X222210700Y-74940100I-75000J0D01*
G01*
G37*
G36*
G01*
X222710700Y-74940100D02*
X222560700Y-74940100D01*
G75*
G02*
X222485700Y-74865100I0J75000D01*
G01*
X222485700Y-73565100D01*
G75*
G02*
X222560700Y-73490100I75000J0D01*
G01*
X222710700Y-73490100D01*
G75*
G02*
X222785700Y-73565100I0J-75000D01*
G01*
X222785700Y-74865100D01*
G75*
G02*
X222710700Y-74940100I-75000J0D01*
G01*
G37*
G36*
G01*
X223210700Y-74940100D02*
X223060700Y-74940100D01*
G75*
G02*
X222985700Y-74865100I0J75000D01*
G01*
X222985700Y-73565100D01*
G75*
G02*
X223060700Y-73490100I75000J0D01*
G01*
X223210700Y-73490100D01*
G75*
G02*
X223285700Y-73565100I0J-75000D01*
G01*
X223285700Y-74865100D01*
G75*
G02*
X223210700Y-74940100I-75000J0D01*
G01*
G37*
G36*
G01*
X223210700Y-79240100D02*
X223060700Y-79240100D01*
G75*
G02*
X222985700Y-79165100I0J75000D01*
G01*
X222985700Y-77865100D01*
G75*
G02*
X223060700Y-77790100I75000J0D01*
G01*
X223210700Y-77790100D01*
G75*
G02*
X223285700Y-77865100I0J-75000D01*
G01*
X223285700Y-79165100D01*
G75*
G02*
X223210700Y-79240100I-75000J0D01*
G01*
G37*
G36*
G01*
X222710700Y-79240100D02*
X222560700Y-79240100D01*
G75*
G02*
X222485700Y-79165100I0J75000D01*
G01*
X222485700Y-77865100D01*
G75*
G02*
X222560700Y-77790100I75000J0D01*
G01*
X222710700Y-77790100D01*
G75*
G02*
X222785700Y-77865100I0J-75000D01*
G01*
X222785700Y-79165100D01*
G75*
G02*
X222710700Y-79240100I-75000J0D01*
G01*
G37*
G36*
G01*
X222210700Y-79240100D02*
X222060700Y-79240100D01*
G75*
G02*
X221985700Y-79165100I0J75000D01*
G01*
X221985700Y-77865100D01*
G75*
G02*
X222060700Y-77790100I75000J0D01*
G01*
X222210700Y-77790100D01*
G75*
G02*
X222285700Y-77865100I0J-75000D01*
G01*
X222285700Y-79165100D01*
G75*
G02*
X222210700Y-79240100I-75000J0D01*
G01*
G37*
G36*
G01*
X221710700Y-79240100D02*
X221560700Y-79240100D01*
G75*
G02*
X221485700Y-79165100I0J75000D01*
G01*
X221485700Y-77865100D01*
G75*
G02*
X221560700Y-77790100I75000J0D01*
G01*
X221710700Y-77790100D01*
G75*
G02*
X221785700Y-77865100I0J-75000D01*
G01*
X221785700Y-79165100D01*
G75*
G02*
X221710700Y-79240100I-75000J0D01*
G01*
G37*
G36*
G01*
X221210700Y-79240100D02*
X221060700Y-79240100D01*
G75*
G02*
X220985700Y-79165100I0J75000D01*
G01*
X220985700Y-77865100D01*
G75*
G02*
X221060700Y-77790100I75000J0D01*
G01*
X221210700Y-77790100D01*
G75*
G02*
X221285700Y-77865100I0J-75000D01*
G01*
X221285700Y-79165100D01*
G75*
G02*
X221210700Y-79240100I-75000J0D01*
G01*
G37*
G36*
G01*
X210647000Y-74451500D02*
X210848000Y-74451500D01*
G75*
G02*
X210927500Y-74531000I0J-79500D01*
G01*
X210927500Y-74690000D01*
G75*
G02*
X210848000Y-74769500I-79500J0D01*
G01*
X210647000Y-74769500D01*
G75*
G02*
X210567500Y-74690000I0J79500D01*
G01*
X210567500Y-74531000D01*
G75*
G02*
X210647000Y-74451500I79500J0D01*
G01*
G37*
G36*
G01*
X210647000Y-73761500D02*
X210848000Y-73761500D01*
G75*
G02*
X210927500Y-73841000I0J-79500D01*
G01*
X210927500Y-74000000D01*
G75*
G02*
X210848000Y-74079500I-79500J0D01*
G01*
X210647000Y-74079500D01*
G75*
G02*
X210567500Y-74000000I0J79500D01*
G01*
X210567500Y-73841000D01*
G75*
G02*
X210647000Y-73761500I79500J0D01*
G01*
G37*
G36*
G01*
X212861000Y-73901000D02*
X213346000Y-73901000D01*
G75*
G02*
X213588500Y-74143500I0J-242500D01*
G01*
X213588500Y-74628500D01*
G75*
G02*
X213346000Y-74871000I-242500J0D01*
G01*
X212861000Y-74871000D01*
G75*
G02*
X212618500Y-74628500I0J242500D01*
G01*
X212618500Y-74143500D01*
G75*
G02*
X212861000Y-73901000I242500J0D01*
G01*
G37*
G36*
G01*
X214061000Y-73901000D02*
X214546000Y-73901000D01*
G75*
G02*
X214788500Y-74143500I0J-242500D01*
G01*
X214788500Y-74628500D01*
G75*
G02*
X214546000Y-74871000I-242500J0D01*
G01*
X214061000Y-74871000D01*
G75*
G02*
X213818500Y-74628500I0J242500D01*
G01*
X213818500Y-74143500D01*
G75*
G02*
X214061000Y-73901000I242500J0D01*
G01*
G37*
G36*
G01*
X215261000Y-73901000D02*
X215746000Y-73901000D01*
G75*
G02*
X215988500Y-74143500I0J-242500D01*
G01*
X215988500Y-74628500D01*
G75*
G02*
X215746000Y-74871000I-242500J0D01*
G01*
X215261000Y-74871000D01*
G75*
G02*
X215018500Y-74628500I0J242500D01*
G01*
X215018500Y-74143500D01*
G75*
G02*
X215261000Y-73901000I242500J0D01*
G01*
G37*
G36*
G01*
X212861000Y-72701000D02*
X213346000Y-72701000D01*
G75*
G02*
X213588500Y-72943500I0J-242500D01*
G01*
X213588500Y-73428500D01*
G75*
G02*
X213346000Y-73671000I-242500J0D01*
G01*
X212861000Y-73671000D01*
G75*
G02*
X212618500Y-73428500I0J242500D01*
G01*
X212618500Y-72943500D01*
G75*
G02*
X212861000Y-72701000I242500J0D01*
G01*
G37*
G36*
G01*
X214061000Y-72701000D02*
X214546000Y-72701000D01*
G75*
G02*
X214788500Y-72943500I0J-242500D01*
G01*
X214788500Y-73428500D01*
G75*
G02*
X214546000Y-73671000I-242500J0D01*
G01*
X214061000Y-73671000D01*
G75*
G02*
X213818500Y-73428500I0J242500D01*
G01*
X213818500Y-72943500D01*
G75*
G02*
X214061000Y-72701000I242500J0D01*
G01*
G37*
G36*
G01*
X215261000Y-72701000D02*
X215746000Y-72701000D01*
G75*
G02*
X215988500Y-72943500I0J-242500D01*
G01*
X215988500Y-73428500D01*
G75*
G02*
X215746000Y-73671000I-242500J0D01*
G01*
X215261000Y-73671000D01*
G75*
G02*
X215018500Y-73428500I0J242500D01*
G01*
X215018500Y-72943500D01*
G75*
G02*
X215261000Y-72701000I242500J0D01*
G01*
G37*
G36*
G01*
X212861000Y-71501000D02*
X213346000Y-71501000D01*
G75*
G02*
X213588500Y-71743500I0J-242500D01*
G01*
X213588500Y-72228500D01*
G75*
G02*
X213346000Y-72471000I-242500J0D01*
G01*
X212861000Y-72471000D01*
G75*
G02*
X212618500Y-72228500I0J242500D01*
G01*
X212618500Y-71743500D01*
G75*
G02*
X212861000Y-71501000I242500J0D01*
G01*
G37*
G36*
G01*
X214061000Y-71501000D02*
X214546000Y-71501000D01*
G75*
G02*
X214788500Y-71743500I0J-242500D01*
G01*
X214788500Y-72228500D01*
G75*
G02*
X214546000Y-72471000I-242500J0D01*
G01*
X214061000Y-72471000D01*
G75*
G02*
X213818500Y-72228500I0J242500D01*
G01*
X213818500Y-71743500D01*
G75*
G02*
X214061000Y-71501000I242500J0D01*
G01*
G37*
G36*
G01*
X215261000Y-71501000D02*
X215746000Y-71501000D01*
G75*
G02*
X215988500Y-71743500I0J-242500D01*
G01*
X215988500Y-72228500D01*
G75*
G02*
X215746000Y-72471000I-242500J0D01*
G01*
X215261000Y-72471000D01*
G75*
G02*
X215018500Y-72228500I0J242500D01*
G01*
X215018500Y-71743500D01*
G75*
G02*
X215261000Y-71501000I242500J0D01*
G01*
G37*
G36*
G01*
X216416000Y-71311000D02*
X217091000Y-71311000D01*
G75*
G02*
X217153500Y-71373500I0J-62500D01*
G01*
X217153500Y-71498500D01*
G75*
G02*
X217091000Y-71561000I-62500J0D01*
G01*
X216416000Y-71561000D01*
G75*
G02*
X216353500Y-71498500I0J62500D01*
G01*
X216353500Y-71373500D01*
G75*
G02*
X216416000Y-71311000I62500J0D01*
G01*
G37*
G36*
G01*
X216416000Y-71811000D02*
X217091000Y-71811000D01*
G75*
G02*
X217153500Y-71873500I0J-62500D01*
G01*
X217153500Y-71998500D01*
G75*
G02*
X217091000Y-72061000I-62500J0D01*
G01*
X216416000Y-72061000D01*
G75*
G02*
X216353500Y-71998500I0J62500D01*
G01*
X216353500Y-71873500D01*
G75*
G02*
X216416000Y-71811000I62500J0D01*
G01*
G37*
G36*
G01*
X216416000Y-72311000D02*
X217091000Y-72311000D01*
G75*
G02*
X217153500Y-72373500I0J-62500D01*
G01*
X217153500Y-72498500D01*
G75*
G02*
X217091000Y-72561000I-62500J0D01*
G01*
X216416000Y-72561000D01*
G75*
G02*
X216353500Y-72498500I0J62500D01*
G01*
X216353500Y-72373500D01*
G75*
G02*
X216416000Y-72311000I62500J0D01*
G01*
G37*
G36*
G01*
X216416000Y-72811000D02*
X217091000Y-72811000D01*
G75*
G02*
X217153500Y-72873500I0J-62500D01*
G01*
X217153500Y-72998500D01*
G75*
G02*
X217091000Y-73061000I-62500J0D01*
G01*
X216416000Y-73061000D01*
G75*
G02*
X216353500Y-72998500I0J62500D01*
G01*
X216353500Y-72873500D01*
G75*
G02*
X216416000Y-72811000I62500J0D01*
G01*
G37*
G36*
G01*
X216416000Y-73311000D02*
X217091000Y-73311000D01*
G75*
G02*
X217153500Y-73373500I0J-62500D01*
G01*
X217153500Y-73498500D01*
G75*
G02*
X217091000Y-73561000I-62500J0D01*
G01*
X216416000Y-73561000D01*
G75*
G02*
X216353500Y-73498500I0J62500D01*
G01*
X216353500Y-73373500D01*
G75*
G02*
X216416000Y-73311000I62500J0D01*
G01*
G37*
G36*
G01*
X216416000Y-73811000D02*
X217091000Y-73811000D01*
G75*
G02*
X217153500Y-73873500I0J-62500D01*
G01*
X217153500Y-73998500D01*
G75*
G02*
X217091000Y-74061000I-62500J0D01*
G01*
X216416000Y-74061000D01*
G75*
G02*
X216353500Y-73998500I0J62500D01*
G01*
X216353500Y-73873500D01*
G75*
G02*
X216416000Y-73811000I62500J0D01*
G01*
G37*
G36*
G01*
X216416000Y-74311000D02*
X217091000Y-74311000D01*
G75*
G02*
X217153500Y-74373500I0J-62500D01*
G01*
X217153500Y-74498500D01*
G75*
G02*
X217091000Y-74561000I-62500J0D01*
G01*
X216416000Y-74561000D01*
G75*
G02*
X216353500Y-74498500I0J62500D01*
G01*
X216353500Y-74373500D01*
G75*
G02*
X216416000Y-74311000I62500J0D01*
G01*
G37*
G36*
G01*
X216416000Y-74811000D02*
X217091000Y-74811000D01*
G75*
G02*
X217153500Y-74873500I0J-62500D01*
G01*
X217153500Y-74998500D01*
G75*
G02*
X217091000Y-75061000I-62500J0D01*
G01*
X216416000Y-75061000D01*
G75*
G02*
X216353500Y-74998500I0J62500D01*
G01*
X216353500Y-74873500D01*
G75*
G02*
X216416000Y-74811000I62500J0D01*
G01*
G37*
G36*
G01*
X215991000Y-75236000D02*
X216116000Y-75236000D01*
G75*
G02*
X216178500Y-75298500I0J-62500D01*
G01*
X216178500Y-75973500D01*
G75*
G02*
X216116000Y-76036000I-62500J0D01*
G01*
X215991000Y-76036000D01*
G75*
G02*
X215928500Y-75973500I0J62500D01*
G01*
X215928500Y-75298500D01*
G75*
G02*
X215991000Y-75236000I62500J0D01*
G01*
G37*
G36*
G01*
X215491000Y-75236000D02*
X215616000Y-75236000D01*
G75*
G02*
X215678500Y-75298500I0J-62500D01*
G01*
X215678500Y-75973500D01*
G75*
G02*
X215616000Y-76036000I-62500J0D01*
G01*
X215491000Y-76036000D01*
G75*
G02*
X215428500Y-75973500I0J62500D01*
G01*
X215428500Y-75298500D01*
G75*
G02*
X215491000Y-75236000I62500J0D01*
G01*
G37*
G36*
G01*
X214991000Y-75236000D02*
X215116000Y-75236000D01*
G75*
G02*
X215178500Y-75298500I0J-62500D01*
G01*
X215178500Y-75973500D01*
G75*
G02*
X215116000Y-76036000I-62500J0D01*
G01*
X214991000Y-76036000D01*
G75*
G02*
X214928500Y-75973500I0J62500D01*
G01*
X214928500Y-75298500D01*
G75*
G02*
X214991000Y-75236000I62500J0D01*
G01*
G37*
G36*
G01*
X214491000Y-75236000D02*
X214616000Y-75236000D01*
G75*
G02*
X214678500Y-75298500I0J-62500D01*
G01*
X214678500Y-75973500D01*
G75*
G02*
X214616000Y-76036000I-62500J0D01*
G01*
X214491000Y-76036000D01*
G75*
G02*
X214428500Y-75973500I0J62500D01*
G01*
X214428500Y-75298500D01*
G75*
G02*
X214491000Y-75236000I62500J0D01*
G01*
G37*
G36*
G01*
X213991000Y-75236000D02*
X214116000Y-75236000D01*
G75*
G02*
X214178500Y-75298500I0J-62500D01*
G01*
X214178500Y-75973500D01*
G75*
G02*
X214116000Y-76036000I-62500J0D01*
G01*
X213991000Y-76036000D01*
G75*
G02*
X213928500Y-75973500I0J62500D01*
G01*
X213928500Y-75298500D01*
G75*
G02*
X213991000Y-75236000I62500J0D01*
G01*
G37*
G36*
G01*
X213491000Y-75236000D02*
X213616000Y-75236000D01*
G75*
G02*
X213678500Y-75298500I0J-62500D01*
G01*
X213678500Y-75973500D01*
G75*
G02*
X213616000Y-76036000I-62500J0D01*
G01*
X213491000Y-76036000D01*
G75*
G02*
X213428500Y-75973500I0J62500D01*
G01*
X213428500Y-75298500D01*
G75*
G02*
X213491000Y-75236000I62500J0D01*
G01*
G37*
G36*
G01*
X212991000Y-75236000D02*
X213116000Y-75236000D01*
G75*
G02*
X213178500Y-75298500I0J-62500D01*
G01*
X213178500Y-75973500D01*
G75*
G02*
X213116000Y-76036000I-62500J0D01*
G01*
X212991000Y-76036000D01*
G75*
G02*
X212928500Y-75973500I0J62500D01*
G01*
X212928500Y-75298500D01*
G75*
G02*
X212991000Y-75236000I62500J0D01*
G01*
G37*
G36*
G01*
X212491000Y-75236000D02*
X212616000Y-75236000D01*
G75*
G02*
X212678500Y-75298500I0J-62500D01*
G01*
X212678500Y-75973500D01*
G75*
G02*
X212616000Y-76036000I-62500J0D01*
G01*
X212491000Y-76036000D01*
G75*
G02*
X212428500Y-75973500I0J62500D01*
G01*
X212428500Y-75298500D01*
G75*
G02*
X212491000Y-75236000I62500J0D01*
G01*
G37*
G36*
G01*
X211516000Y-74811000D02*
X212191000Y-74811000D01*
G75*
G02*
X212253500Y-74873500I0J-62500D01*
G01*
X212253500Y-74998500D01*
G75*
G02*
X212191000Y-75061000I-62500J0D01*
G01*
X211516000Y-75061000D01*
G75*
G02*
X211453500Y-74998500I0J62500D01*
G01*
X211453500Y-74873500D01*
G75*
G02*
X211516000Y-74811000I62500J0D01*
G01*
G37*
G36*
G01*
X211516000Y-74311000D02*
X212191000Y-74311000D01*
G75*
G02*
X212253500Y-74373500I0J-62500D01*
G01*
X212253500Y-74498500D01*
G75*
G02*
X212191000Y-74561000I-62500J0D01*
G01*
X211516000Y-74561000D01*
G75*
G02*
X211453500Y-74498500I0J62500D01*
G01*
X211453500Y-74373500D01*
G75*
G02*
X211516000Y-74311000I62500J0D01*
G01*
G37*
G36*
G01*
X211516000Y-73811000D02*
X212191000Y-73811000D01*
G75*
G02*
X212253500Y-73873500I0J-62500D01*
G01*
X212253500Y-73998500D01*
G75*
G02*
X212191000Y-74061000I-62500J0D01*
G01*
X211516000Y-74061000D01*
G75*
G02*
X211453500Y-73998500I0J62500D01*
G01*
X211453500Y-73873500D01*
G75*
G02*
X211516000Y-73811000I62500J0D01*
G01*
G37*
G36*
G01*
X211516000Y-73311000D02*
X212191000Y-73311000D01*
G75*
G02*
X212253500Y-73373500I0J-62500D01*
G01*
X212253500Y-73498500D01*
G75*
G02*
X212191000Y-73561000I-62500J0D01*
G01*
X211516000Y-73561000D01*
G75*
G02*
X211453500Y-73498500I0J62500D01*
G01*
X211453500Y-73373500D01*
G75*
G02*
X211516000Y-73311000I62500J0D01*
G01*
G37*
G36*
G01*
X211516000Y-72811000D02*
X212191000Y-72811000D01*
G75*
G02*
X212253500Y-72873500I0J-62500D01*
G01*
X212253500Y-72998500D01*
G75*
G02*
X212191000Y-73061000I-62500J0D01*
G01*
X211516000Y-73061000D01*
G75*
G02*
X211453500Y-72998500I0J62500D01*
G01*
X211453500Y-72873500D01*
G75*
G02*
X211516000Y-72811000I62500J0D01*
G01*
G37*
G36*
G01*
X211516000Y-72311000D02*
X212191000Y-72311000D01*
G75*
G02*
X212253500Y-72373500I0J-62500D01*
G01*
X212253500Y-72498500D01*
G75*
G02*
X212191000Y-72561000I-62500J0D01*
G01*
X211516000Y-72561000D01*
G75*
G02*
X211453500Y-72498500I0J62500D01*
G01*
X211453500Y-72373500D01*
G75*
G02*
X211516000Y-72311000I62500J0D01*
G01*
G37*
G36*
G01*
X211516000Y-71811000D02*
X212191000Y-71811000D01*
G75*
G02*
X212253500Y-71873500I0J-62500D01*
G01*
X212253500Y-71998500D01*
G75*
G02*
X212191000Y-72061000I-62500J0D01*
G01*
X211516000Y-72061000D01*
G75*
G02*
X211453500Y-71998500I0J62500D01*
G01*
X211453500Y-71873500D01*
G75*
G02*
X211516000Y-71811000I62500J0D01*
G01*
G37*
G36*
G01*
X211516000Y-71311000D02*
X212191000Y-71311000D01*
G75*
G02*
X212253500Y-71373500I0J-62500D01*
G01*
X212253500Y-71498500D01*
G75*
G02*
X212191000Y-71561000I-62500J0D01*
G01*
X211516000Y-71561000D01*
G75*
G02*
X211453500Y-71498500I0J62500D01*
G01*
X211453500Y-71373500D01*
G75*
G02*
X211516000Y-71311000I62500J0D01*
G01*
G37*
G36*
G01*
X212491000Y-70336000D02*
X212616000Y-70336000D01*
G75*
G02*
X212678500Y-70398500I0J-62500D01*
G01*
X212678500Y-71073500D01*
G75*
G02*
X212616000Y-71136000I-62500J0D01*
G01*
X212491000Y-71136000D01*
G75*
G02*
X212428500Y-71073500I0J62500D01*
G01*
X212428500Y-70398500D01*
G75*
G02*
X212491000Y-70336000I62500J0D01*
G01*
G37*
G36*
G01*
X212991000Y-70336000D02*
X213116000Y-70336000D01*
G75*
G02*
X213178500Y-70398500I0J-62500D01*
G01*
X213178500Y-71073500D01*
G75*
G02*
X213116000Y-71136000I-62500J0D01*
G01*
X212991000Y-71136000D01*
G75*
G02*
X212928500Y-71073500I0J62500D01*
G01*
X212928500Y-70398500D01*
G75*
G02*
X212991000Y-70336000I62500J0D01*
G01*
G37*
G36*
G01*
X213491000Y-70336000D02*
X213616000Y-70336000D01*
G75*
G02*
X213678500Y-70398500I0J-62500D01*
G01*
X213678500Y-71073500D01*
G75*
G02*
X213616000Y-71136000I-62500J0D01*
G01*
X213491000Y-71136000D01*
G75*
G02*
X213428500Y-71073500I0J62500D01*
G01*
X213428500Y-70398500D01*
G75*
G02*
X213491000Y-70336000I62500J0D01*
G01*
G37*
G36*
G01*
X213991000Y-70336000D02*
X214116000Y-70336000D01*
G75*
G02*
X214178500Y-70398500I0J-62500D01*
G01*
X214178500Y-71073500D01*
G75*
G02*
X214116000Y-71136000I-62500J0D01*
G01*
X213991000Y-71136000D01*
G75*
G02*
X213928500Y-71073500I0J62500D01*
G01*
X213928500Y-70398500D01*
G75*
G02*
X213991000Y-70336000I62500J0D01*
G01*
G37*
G36*
G01*
X214491000Y-70336000D02*
X214616000Y-70336000D01*
G75*
G02*
X214678500Y-70398500I0J-62500D01*
G01*
X214678500Y-71073500D01*
G75*
G02*
X214616000Y-71136000I-62500J0D01*
G01*
X214491000Y-71136000D01*
G75*
G02*
X214428500Y-71073500I0J62500D01*
G01*
X214428500Y-70398500D01*
G75*
G02*
X214491000Y-70336000I62500J0D01*
G01*
G37*
G36*
G01*
X214991000Y-70336000D02*
X215116000Y-70336000D01*
G75*
G02*
X215178500Y-70398500I0J-62500D01*
G01*
X215178500Y-71073500D01*
G75*
G02*
X215116000Y-71136000I-62500J0D01*
G01*
X214991000Y-71136000D01*
G75*
G02*
X214928500Y-71073500I0J62500D01*
G01*
X214928500Y-70398500D01*
G75*
G02*
X214991000Y-70336000I62500J0D01*
G01*
G37*
G36*
G01*
X215491000Y-70336000D02*
X215616000Y-70336000D01*
G75*
G02*
X215678500Y-70398500I0J-62500D01*
G01*
X215678500Y-71073500D01*
G75*
G02*
X215616000Y-71136000I-62500J0D01*
G01*
X215491000Y-71136000D01*
G75*
G02*
X215428500Y-71073500I0J62500D01*
G01*
X215428500Y-70398500D01*
G75*
G02*
X215491000Y-70336000I62500J0D01*
G01*
G37*
G36*
G01*
X215991000Y-70336000D02*
X216116000Y-70336000D01*
G75*
G02*
X216178500Y-70398500I0J-62500D01*
G01*
X216178500Y-71073500D01*
G75*
G02*
X216116000Y-71136000I-62500J0D01*
G01*
X215991000Y-71136000D01*
G75*
G02*
X215928500Y-71073500I0J62500D01*
G01*
X215928500Y-70398500D01*
G75*
G02*
X215991000Y-70336000I62500J0D01*
G01*
G37*
G36*
G01*
X219277500Y-71935500D02*
X218727500Y-71935500D01*
G75*
G02*
X218527500Y-71735500I0J200000D01*
G01*
X218527500Y-71335500D01*
G75*
G02*
X218727500Y-71135500I200000J0D01*
G01*
X219277500Y-71135500D01*
G75*
G02*
X219477500Y-71335500I0J-200000D01*
G01*
X219477500Y-71735500D01*
G75*
G02*
X219277500Y-71935500I-200000J0D01*
G01*
G37*
G36*
G01*
X219277500Y-73585500D02*
X218727500Y-73585500D01*
G75*
G02*
X218527500Y-73385500I0J200000D01*
G01*
X218527500Y-72985500D01*
G75*
G02*
X218727500Y-72785500I200000J0D01*
G01*
X219277500Y-72785500D01*
G75*
G02*
X219477500Y-72985500I0J-200000D01*
G01*
X219477500Y-73385500D01*
G75*
G02*
X219277500Y-73585500I-200000J0D01*
G01*
G37*
D10*
X247500500Y-94758500D03*
X247500500Y-100728500D03*
D11*
X242825500Y-104228500D03*
X246525500Y-104228500D03*
D12*
X236800500Y-104053500D03*
D13*
X237025500Y-92733500D03*
D14*
X236675500Y-94993500D03*
X236675500Y-96093500D03*
X236675500Y-97193500D03*
X236675500Y-98293500D03*
X236675500Y-99393500D03*
X236675500Y-100493500D03*
D15*
X236675500Y-93943500D03*
D14*
X236675500Y-101593500D03*
G36*
G01*
X222731500Y-95635500D02*
X222530500Y-95635500D01*
G75*
G02*
X222451000Y-95556000I0J79500D01*
G01*
X222451000Y-95397000D01*
G75*
G02*
X222530500Y-95317500I79500J0D01*
G01*
X222731500Y-95317500D01*
G75*
G02*
X222811000Y-95397000I0J-79500D01*
G01*
X222811000Y-95556000D01*
G75*
G02*
X222731500Y-95635500I-79500J0D01*
G01*
G37*
G36*
G01*
X222731500Y-96325500D02*
X222530500Y-96325500D01*
G75*
G02*
X222451000Y-96246000I0J79500D01*
G01*
X222451000Y-96087000D01*
G75*
G02*
X222530500Y-96007500I79500J0D01*
G01*
X222731500Y-96007500D01*
G75*
G02*
X222811000Y-96087000I0J-79500D01*
G01*
X222811000Y-96246000D01*
G75*
G02*
X222731500Y-96325500I-79500J0D01*
G01*
G37*
D16*
X224647000Y-92011500D03*
X222647000Y-92961500D03*
X222647000Y-91061500D03*
G36*
G01*
X221994500Y-72703500D02*
X221994500Y-72203500D01*
G75*
G02*
X222219500Y-71978500I225000J0D01*
G01*
X222669500Y-71978500D01*
G75*
G02*
X222894500Y-72203500I0J-225000D01*
G01*
X222894500Y-72703500D01*
G75*
G02*
X222669500Y-72928500I-225000J0D01*
G01*
X222219500Y-72928500D01*
G75*
G02*
X221994500Y-72703500I0J225000D01*
G01*
G37*
G36*
G01*
X220444500Y-72703500D02*
X220444500Y-72203500D01*
G75*
G02*
X220669500Y-71978500I225000J0D01*
G01*
X221119500Y-71978500D01*
G75*
G02*
X221344500Y-72203500I0J-225000D01*
G01*
X221344500Y-72703500D01*
G75*
G02*
X221119500Y-72928500I-225000J0D01*
G01*
X220669500Y-72928500D01*
G75*
G02*
X220444500Y-72703500I0J225000D01*
G01*
G37*
G36*
G01*
X217411000Y-57206000D02*
X216911000Y-57206000D01*
G75*
G02*
X216686000Y-56981000I0J225000D01*
G01*
X216686000Y-56531000D01*
G75*
G02*
X216911000Y-56306000I225000J0D01*
G01*
X217411000Y-56306000D01*
G75*
G02*
X217636000Y-56531000I0J-225000D01*
G01*
X217636000Y-56981000D01*
G75*
G02*
X217411000Y-57206000I-225000J0D01*
G01*
G37*
G36*
G01*
X217411000Y-58756000D02*
X216911000Y-58756000D01*
G75*
G02*
X216686000Y-58531000I0J225000D01*
G01*
X216686000Y-58081000D01*
G75*
G02*
X216911000Y-57856000I225000J0D01*
G01*
X217411000Y-57856000D01*
G75*
G02*
X217636000Y-58081000I0J-225000D01*
G01*
X217636000Y-58531000D01*
G75*
G02*
X217411000Y-58756000I-225000J0D01*
G01*
G37*
G36*
G01*
X220604200Y-80242600D02*
X220604200Y-80742600D01*
G75*
G02*
X220379200Y-80967600I-225000J0D01*
G01*
X219929200Y-80967600D01*
G75*
G02*
X219704200Y-80742600I0J225000D01*
G01*
X219704200Y-80242600D01*
G75*
G02*
X219929200Y-80017600I225000J0D01*
G01*
X220379200Y-80017600D01*
G75*
G02*
X220604200Y-80242600I0J-225000D01*
G01*
G37*
G36*
G01*
X222154200Y-80242600D02*
X222154200Y-80742600D01*
G75*
G02*
X221929200Y-80967600I-225000J0D01*
G01*
X221479200Y-80967600D01*
G75*
G02*
X221254200Y-80742600I0J225000D01*
G01*
X221254200Y-80242600D01*
G75*
G02*
X221479200Y-80017600I225000J0D01*
G01*
X221929200Y-80017600D01*
G75*
G02*
X222154200Y-80242600I0J-225000D01*
G01*
G37*
G36*
G01*
X216023000Y-61841500D02*
X215523000Y-61841500D01*
G75*
G02*
X215298000Y-61616500I0J225000D01*
G01*
X215298000Y-61166500D01*
G75*
G02*
X215523000Y-60941500I225000J0D01*
G01*
X216023000Y-60941500D01*
G75*
G02*
X216248000Y-61166500I0J-225000D01*
G01*
X216248000Y-61616500D01*
G75*
G02*
X216023000Y-61841500I-225000J0D01*
G01*
G37*
G36*
G01*
X216023000Y-63391500D02*
X215523000Y-63391500D01*
G75*
G02*
X215298000Y-63166500I0J225000D01*
G01*
X215298000Y-62716500D01*
G75*
G02*
X215523000Y-62491500I225000J0D01*
G01*
X216023000Y-62491500D01*
G75*
G02*
X216248000Y-62716500I0J-225000D01*
G01*
X216248000Y-63166500D01*
G75*
G02*
X216023000Y-63391500I-225000J0D01*
G01*
G37*
D17*
X224160000Y-101448000D03*
X224160000Y-95148000D03*
X227960000Y-101448000D03*
X227960000Y-95148000D03*
D18*
X238887000Y-70650100D03*
X240157000Y-70650100D03*
X241427000Y-70650100D03*
X241427000Y-73367900D03*
X240157000Y-73367900D03*
X238887000Y-73367900D03*
D19*
X243740001Y-79909998D03*
X246819999Y-79909998D03*
X243740001Y-79509999D03*
X246819999Y-79509999D03*
X243740001Y-79110000D03*
X246819999Y-79110000D03*
X243740001Y-78709998D03*
X246819999Y-78709998D03*
X243740001Y-78309999D03*
X246819999Y-78309999D03*
X243740001Y-77910000D03*
X246819999Y-77910000D03*
X243740001Y-77510000D03*
X246819999Y-77510000D03*
X243740001Y-77109999D03*
X246819999Y-77109999D03*
X243740001Y-76709999D03*
X246819999Y-76709999D03*
X243740001Y-76310000D03*
X246819999Y-76310000D03*
X243740001Y-75909999D03*
X246819999Y-75909999D03*
X243740001Y-75509999D03*
X246819999Y-75509999D03*
X243740001Y-75110000D03*
X246819999Y-75110000D03*
X243740001Y-74709998D03*
X246819999Y-74709998D03*
X243740001Y-74309999D03*
X246819999Y-74309999D03*
X243740001Y-73910000D03*
X246819999Y-73910000D03*
X243740001Y-73510001D03*
X246819999Y-73510001D03*
X243740001Y-73109999D03*
X246819999Y-73109999D03*
X243740001Y-72710000D03*
X246819999Y-72710000D03*
X243740001Y-72310001D03*
X246819999Y-72310001D03*
X243740001Y-71909999D03*
X246819999Y-71909999D03*
X243740001Y-71510000D03*
X246819999Y-71510000D03*
X243740001Y-71110001D03*
X246819999Y-71110001D03*
X243740001Y-70710001D03*
X246819999Y-70710001D03*
X243740001Y-70310000D03*
X246819999Y-70310000D03*
X243740001Y-69910000D03*
X246819999Y-69910000D03*
X243740001Y-69510001D03*
X246819999Y-69510001D03*
X243740001Y-69109999D03*
X246819999Y-69109999D03*
X243740001Y-68710000D03*
X246819999Y-68710000D03*
X243740001Y-68310001D03*
X246819999Y-68310001D03*
X243740001Y-67909999D03*
X246819999Y-67909999D03*
X243740001Y-67510000D03*
X246819999Y-67510000D03*
X243740001Y-67110001D03*
X246819999Y-67110001D03*
X243740001Y-66710002D03*
X246819999Y-66710002D03*
X243740001Y-66310000D03*
X246819999Y-66310000D03*
X243740001Y-65910001D03*
X246819999Y-65910001D03*
X243740001Y-65510002D03*
X246819999Y-65510002D03*
X243740001Y-65110000D03*
X246819999Y-65110000D03*
X243740001Y-64710001D03*
X246819999Y-64710001D03*
X243740001Y-64310001D03*
X246819999Y-64310001D03*
X243740001Y-63910000D03*
X246819999Y-63910000D03*
X243740001Y-63510001D03*
X246819999Y-63510001D03*
X243740001Y-63110001D03*
X246819999Y-63110001D03*
X243740001Y-62710002D03*
X246819999Y-62710002D03*
X243740001Y-62310000D03*
X246819999Y-62310000D03*
X243740001Y-61910001D03*
X246819999Y-61910001D03*
X243740001Y-61510002D03*
X246819999Y-61510002D03*
X243740001Y-61110000D03*
X246819999Y-61110000D03*
X243740001Y-60710001D03*
X246819999Y-60710001D03*
X243740001Y-60310002D03*
X246819999Y-60310002D03*
D20*
X219950002Y-50590001D03*
X219950002Y-53669999D03*
X220350001Y-50590001D03*
X220350001Y-53669999D03*
X220750000Y-50590001D03*
X220750000Y-53669999D03*
X221150002Y-50590001D03*
X221150002Y-53669999D03*
X221550001Y-50590001D03*
X221550001Y-53669999D03*
X221950000Y-50590001D03*
X221950000Y-53669999D03*
X222350000Y-50590001D03*
X222350000Y-53669999D03*
X222750001Y-50590001D03*
X222750001Y-53669999D03*
X223150001Y-50590001D03*
X223150001Y-53669999D03*
X223550000Y-50590001D03*
X223550000Y-53669999D03*
X223950001Y-50590001D03*
X223950001Y-53669999D03*
X224350001Y-50590001D03*
X224350001Y-53669999D03*
X224750000Y-50590001D03*
X224750000Y-53669999D03*
X225150002Y-50590001D03*
X225150002Y-53669999D03*
X225550001Y-50590001D03*
X225550001Y-53669999D03*
X225950000Y-50590001D03*
X225950000Y-53669999D03*
X226349999Y-50590001D03*
X226349999Y-53669999D03*
X226750001Y-50590001D03*
X226750001Y-53669999D03*
X227150000Y-50590001D03*
X227150000Y-53669999D03*
X227549999Y-50590001D03*
X227549999Y-53669999D03*
X227950001Y-50590001D03*
X227950001Y-53669999D03*
X228350000Y-50590001D03*
X228350000Y-53669999D03*
X228749999Y-50590001D03*
X228749999Y-53669999D03*
X229149999Y-50590001D03*
X229149999Y-53669999D03*
X229550000Y-50590001D03*
X229550000Y-53669999D03*
X229950000Y-50590001D03*
X229950000Y-53669999D03*
X230349999Y-50590001D03*
X230349999Y-53669999D03*
X230750001Y-50590001D03*
X230750001Y-53669999D03*
X231150000Y-50590001D03*
X231150000Y-53669999D03*
X231549999Y-50590001D03*
X231549999Y-53669999D03*
X231950001Y-50590001D03*
X231950001Y-53669999D03*
X232350000Y-50590001D03*
X232350000Y-53669999D03*
X232749999Y-50590001D03*
X232749999Y-53669999D03*
X233149998Y-50590001D03*
X233149998Y-53669999D03*
X233550000Y-50590001D03*
X233550000Y-53669999D03*
X233949999Y-50590001D03*
X233949999Y-53669999D03*
X234349998Y-50590001D03*
X234349998Y-53669999D03*
X234750000Y-50590001D03*
X234750000Y-53669999D03*
X235149999Y-50590001D03*
X235149999Y-53669999D03*
X235549999Y-50590001D03*
X235549999Y-53669999D03*
X235950000Y-50590001D03*
X235950000Y-53669999D03*
X236349999Y-50590001D03*
X236349999Y-53669999D03*
X236749999Y-50590001D03*
X236749999Y-53669999D03*
X237149998Y-50590001D03*
X237149998Y-53669999D03*
X237550000Y-50590001D03*
X237550000Y-53669999D03*
X237949999Y-50590001D03*
X237949999Y-53669999D03*
X238349998Y-50590001D03*
X238349998Y-53669999D03*
X238750000Y-50590001D03*
X238750000Y-53669999D03*
X239149999Y-50590001D03*
X239149999Y-53669999D03*
X239549998Y-50590001D03*
X239549998Y-53669999D03*
D19*
X205440001Y-79909998D03*
X208519999Y-79909998D03*
X205440001Y-79509999D03*
X208519999Y-79509999D03*
X205440001Y-79110000D03*
X208519999Y-79110000D03*
X205440001Y-78709998D03*
X208519999Y-78709998D03*
X205440001Y-78309999D03*
X208519999Y-78309999D03*
X205440001Y-77910000D03*
X208519999Y-77910000D03*
X205440001Y-77510000D03*
X208519999Y-77510000D03*
X205440001Y-77109999D03*
X208519999Y-77109999D03*
X205440001Y-76709999D03*
X208519999Y-76709999D03*
X205440001Y-76310000D03*
X208519999Y-76310000D03*
X205440001Y-75909999D03*
X208519999Y-75909999D03*
X205440001Y-75509999D03*
X208519999Y-75509999D03*
X205440001Y-75110000D03*
X208519999Y-75110000D03*
X205440001Y-74709998D03*
X208519999Y-74709998D03*
X205440001Y-74309999D03*
X208519999Y-74309999D03*
X205440001Y-73910000D03*
X208519999Y-73910000D03*
X205440001Y-73510001D03*
X208519999Y-73510001D03*
X205440001Y-73109999D03*
X208519999Y-73109999D03*
X205440001Y-72710000D03*
X208519999Y-72710000D03*
X205440001Y-72310001D03*
X208519999Y-72310001D03*
X205440001Y-71909999D03*
X208519999Y-71909999D03*
X205440001Y-71510000D03*
X208519999Y-71510000D03*
X205440001Y-71110001D03*
X208519999Y-71110001D03*
X205440001Y-70710001D03*
X208519999Y-70710001D03*
X205440001Y-70310000D03*
X208519999Y-70310000D03*
X205440001Y-69910000D03*
X208519999Y-69910000D03*
X205440001Y-69510001D03*
X208519999Y-69510001D03*
X205440001Y-69109999D03*
X208519999Y-69109999D03*
X205440001Y-68710000D03*
X208519999Y-68710000D03*
X205440001Y-68310001D03*
X208519999Y-68310001D03*
X205440001Y-67909999D03*
X208519999Y-67909999D03*
X205440001Y-67510000D03*
X208519999Y-67510000D03*
X205440001Y-67110001D03*
X208519999Y-67110001D03*
X205440001Y-66710002D03*
X208519999Y-66710002D03*
X205440001Y-66310000D03*
X208519999Y-66310000D03*
X205440001Y-65910001D03*
X208519999Y-65910001D03*
X205440001Y-65510002D03*
X208519999Y-65510002D03*
X205440001Y-65110000D03*
X208519999Y-65110000D03*
X205440001Y-64710001D03*
X208519999Y-64710001D03*
X205440001Y-64310001D03*
X208519999Y-64310001D03*
X205440001Y-63910000D03*
X208519999Y-63910000D03*
X205440001Y-63510001D03*
X208519999Y-63510001D03*
X205440001Y-63110001D03*
X208519999Y-63110001D03*
X205440001Y-62710002D03*
X208519999Y-62710002D03*
X205440001Y-62310000D03*
X208519999Y-62310000D03*
X205440001Y-61910001D03*
X208519999Y-61910001D03*
X205440001Y-61510002D03*
X208519999Y-61510002D03*
X205440001Y-61110000D03*
X208519999Y-61110000D03*
X205440001Y-60710001D03*
X208519999Y-60710001D03*
X205440001Y-60310002D03*
X208519999Y-60310002D03*
G36*
G01*
X245916000Y-107463000D02*
X245916000Y-106913000D01*
G75*
G02*
X246116000Y-106713000I200000J0D01*
G01*
X246516000Y-106713000D01*
G75*
G02*
X246716000Y-106913000I0J-200000D01*
G01*
X246716000Y-107463000D01*
G75*
G02*
X246516000Y-107663000I-200000J0D01*
G01*
X246116000Y-107663000D01*
G75*
G02*
X245916000Y-107463000I0J200000D01*
G01*
G37*
G36*
G01*
X244266000Y-107463000D02*
X244266000Y-106913000D01*
G75*
G02*
X244466000Y-106713000I200000J0D01*
G01*
X244866000Y-106713000D01*
G75*
G02*
X245066000Y-106913000I0J-200000D01*
G01*
X245066000Y-107463000D01*
G75*
G02*
X244866000Y-107663000I-200000J0D01*
G01*
X244466000Y-107663000D01*
G75*
G02*
X244266000Y-107463000I0J200000D01*
G01*
G37*
G36*
G01*
X204674500Y-104082000D02*
X204674500Y-104452000D01*
G75*
G02*
X204539500Y-104587000I-135000J0D01*
G01*
X204269500Y-104587000D01*
G75*
G02*
X204134500Y-104452000I0J135000D01*
G01*
X204134500Y-104082000D01*
G75*
G02*
X204269500Y-103947000I135000J0D01*
G01*
X204539500Y-103947000D01*
G75*
G02*
X204674500Y-104082000I0J-135000D01*
G01*
G37*
G36*
G01*
X205694500Y-104082000D02*
X205694500Y-104452000D01*
G75*
G02*
X205559500Y-104587000I-135000J0D01*
G01*
X205289500Y-104587000D01*
G75*
G02*
X205154500Y-104452000I0J135000D01*
G01*
X205154500Y-104082000D01*
G75*
G02*
X205289500Y-103947000I135000J0D01*
G01*
X205559500Y-103947000D01*
G75*
G02*
X205694500Y-104082000I0J-135000D01*
G01*
G37*
D21*
X205676500Y-105553000D03*
X206626500Y-107553000D03*
X204726500Y-107553000D03*
G36*
G01*
X239390500Y-74840000D02*
X239390500Y-74639000D01*
G75*
G02*
X239470000Y-74559500I79500J0D01*
G01*
X239629000Y-74559500D01*
G75*
G02*
X239708500Y-74639000I0J-79500D01*
G01*
X239708500Y-74840000D01*
G75*
G02*
X239629000Y-74919500I-79500J0D01*
G01*
X239470000Y-74919500D01*
G75*
G02*
X239390500Y-74840000I0J79500D01*
G01*
G37*
G36*
G01*
X238700500Y-74840000D02*
X238700500Y-74639000D01*
G75*
G02*
X238780000Y-74559500I79500J0D01*
G01*
X238939000Y-74559500D01*
G75*
G02*
X239018500Y-74639000I0J-79500D01*
G01*
X239018500Y-74840000D01*
G75*
G02*
X238939000Y-74919500I-79500J0D01*
G01*
X238780000Y-74919500D01*
G75*
G02*
X238700500Y-74840000I0J79500D01*
G01*
G37*
G36*
G01*
X222167000Y-105367500D02*
X222167000Y-104817500D01*
G75*
G02*
X222367000Y-104617500I200000J0D01*
G01*
X222767000Y-104617500D01*
G75*
G02*
X222967000Y-104817500I0J-200000D01*
G01*
X222967000Y-105367500D01*
G75*
G02*
X222767000Y-105567500I-200000J0D01*
G01*
X222367000Y-105567500D01*
G75*
G02*
X222167000Y-105367500I0J200000D01*
G01*
G37*
G36*
G01*
X220517000Y-105367500D02*
X220517000Y-104817500D01*
G75*
G02*
X220717000Y-104617500I200000J0D01*
G01*
X221117000Y-104617500D01*
G75*
G02*
X221317000Y-104817500I0J-200000D01*
G01*
X221317000Y-105367500D01*
G75*
G02*
X221117000Y-105567500I-200000J0D01*
G01*
X220717000Y-105567500D01*
G75*
G02*
X220517000Y-105367500I0J200000D01*
G01*
G37*
G36*
G01*
X245152500Y-83673500D02*
X245702500Y-83673500D01*
G75*
G02*
X245902500Y-83873500I0J-200000D01*
G01*
X245902500Y-84273500D01*
G75*
G02*
X245702500Y-84473500I-200000J0D01*
G01*
X245152500Y-84473500D01*
G75*
G02*
X244952500Y-84273500I0J200000D01*
G01*
X244952500Y-83873500D01*
G75*
G02*
X245152500Y-83673500I200000J0D01*
G01*
G37*
G36*
G01*
X245152500Y-82023500D02*
X245702500Y-82023500D01*
G75*
G02*
X245902500Y-82223500I0J-200000D01*
G01*
X245902500Y-82623500D01*
G75*
G02*
X245702500Y-82823500I-200000J0D01*
G01*
X245152500Y-82823500D01*
G75*
G02*
X244952500Y-82623500I0J200000D01*
G01*
X244952500Y-82223500D01*
G75*
G02*
X245152500Y-82023500I200000J0D01*
G01*
G37*
G36*
G01*
X243628500Y-83673500D02*
X244178500Y-83673500D01*
G75*
G02*
X244378500Y-83873500I0J-200000D01*
G01*
X244378500Y-84273500D01*
G75*
G02*
X244178500Y-84473500I-200000J0D01*
G01*
X243628500Y-84473500D01*
G75*
G02*
X243428500Y-84273500I0J200000D01*
G01*
X243428500Y-83873500D01*
G75*
G02*
X243628500Y-83673500I200000J0D01*
G01*
G37*
G36*
G01*
X243628500Y-82023500D02*
X244178500Y-82023500D01*
G75*
G02*
X244378500Y-82223500I0J-200000D01*
G01*
X244378500Y-82623500D01*
G75*
G02*
X244178500Y-82823500I-200000J0D01*
G01*
X243628500Y-82823500D01*
G75*
G02*
X243428500Y-82623500I0J200000D01*
G01*
X243428500Y-82223500D01*
G75*
G02*
X243628500Y-82023500I200000J0D01*
G01*
G37*
G36*
G01*
X223864000Y-105215000D02*
X224065000Y-105215000D01*
G75*
G02*
X224144500Y-105294500I0J-79500D01*
G01*
X224144500Y-105453500D01*
G75*
G02*
X224065000Y-105533000I-79500J0D01*
G01*
X223864000Y-105533000D01*
G75*
G02*
X223784500Y-105453500I0J79500D01*
G01*
X223784500Y-105294500D01*
G75*
G02*
X223864000Y-105215000I79500J0D01*
G01*
G37*
G36*
G01*
X223864000Y-104525000D02*
X224065000Y-104525000D01*
G75*
G02*
X224144500Y-104604500I0J-79500D01*
G01*
X224144500Y-104763500D01*
G75*
G02*
X224065000Y-104843000I-79500J0D01*
G01*
X223864000Y-104843000D01*
G75*
G02*
X223784500Y-104763500I0J79500D01*
G01*
X223784500Y-104604500D01*
G75*
G02*
X223864000Y-104525000I79500J0D01*
G01*
G37*
G36*
G01*
X221556000Y-81560500D02*
X221556000Y-81761500D01*
G75*
G02*
X221476500Y-81841000I-79500J0D01*
G01*
X221317500Y-81841000D01*
G75*
G02*
X221238000Y-81761500I0J79500D01*
G01*
X221238000Y-81560500D01*
G75*
G02*
X221317500Y-81481000I79500J0D01*
G01*
X221476500Y-81481000D01*
G75*
G02*
X221556000Y-81560500I0J-79500D01*
G01*
G37*
G36*
G01*
X222246000Y-81560500D02*
X222246000Y-81761500D01*
G75*
G02*
X222166500Y-81841000I-79500J0D01*
G01*
X222007500Y-81841000D01*
G75*
G02*
X221928000Y-81761500I0J79500D01*
G01*
X221928000Y-81560500D01*
G75*
G02*
X222007500Y-81481000I79500J0D01*
G01*
X222166500Y-81481000D01*
G75*
G02*
X222246000Y-81560500I0J-79500D01*
G01*
G37*
D16*
X225123500Y-104457500D03*
X227123500Y-103507500D03*
X227123500Y-105407500D03*
D21*
X227203000Y-91075000D03*
X228153000Y-93075000D03*
X226253000Y-93075000D03*
G36*
G01*
X240034500Y-69178000D02*
X240034500Y-69379000D01*
G75*
G02*
X239955000Y-69458500I-79500J0D01*
G01*
X239796000Y-69458500D01*
G75*
G02*
X239716500Y-69379000I0J79500D01*
G01*
X239716500Y-69178000D01*
G75*
G02*
X239796000Y-69098500I79500J0D01*
G01*
X239955000Y-69098500D01*
G75*
G02*
X240034500Y-69178000I0J-79500D01*
G01*
G37*
G36*
G01*
X240724500Y-69178000D02*
X240724500Y-69379000D01*
G75*
G02*
X240645000Y-69458500I-79500J0D01*
G01*
X240486000Y-69458500D01*
G75*
G02*
X240406500Y-69379000I0J79500D01*
G01*
X240406500Y-69178000D01*
G75*
G02*
X240486000Y-69098500I79500J0D01*
G01*
X240645000Y-69098500D01*
G75*
G02*
X240724500Y-69178000I0J-79500D01*
G01*
G37*
G36*
G01*
X206633500Y-38888500D02*
X206633500Y-39089500D01*
G75*
G02*
X206554000Y-39169000I-79500J0D01*
G01*
X206395000Y-39169000D01*
G75*
G02*
X206315500Y-39089500I0J79500D01*
G01*
X206315500Y-38888500D01*
G75*
G02*
X206395000Y-38809000I79500J0D01*
G01*
X206554000Y-38809000D01*
G75*
G02*
X206633500Y-38888500I0J-79500D01*
G01*
G37*
G36*
G01*
X207323500Y-38888500D02*
X207323500Y-39089500D01*
G75*
G02*
X207244000Y-39169000I-79500J0D01*
G01*
X207085000Y-39169000D01*
G75*
G02*
X207005500Y-39089500I0J79500D01*
G01*
X207005500Y-38888500D01*
G75*
G02*
X207085000Y-38809000I79500J0D01*
G01*
X207244000Y-38809000D01*
G75*
G02*
X207323500Y-38888500I0J-79500D01*
G01*
G37*
G36*
G01*
X213673000Y-76641500D02*
X213673000Y-76842500D01*
G75*
G02*
X213593500Y-76922000I-79500J0D01*
G01*
X213434500Y-76922000D01*
G75*
G02*
X213355000Y-76842500I0J79500D01*
G01*
X213355000Y-76641500D01*
G75*
G02*
X213434500Y-76562000I79500J0D01*
G01*
X213593500Y-76562000D01*
G75*
G02*
X213673000Y-76641500I0J-79500D01*
G01*
G37*
G36*
G01*
X214363000Y-76641500D02*
X214363000Y-76842500D01*
G75*
G02*
X214283500Y-76922000I-79500J0D01*
G01*
X214124500Y-76922000D01*
G75*
G02*
X214045000Y-76842500I0J79500D01*
G01*
X214045000Y-76641500D01*
G75*
G02*
X214124500Y-76562000I79500J0D01*
G01*
X214283500Y-76562000D01*
G75*
G02*
X214363000Y-76641500I0J-79500D01*
G01*
G37*
G36*
G01*
X238335000Y-106913000D02*
X238335000Y-107463000D01*
G75*
G02*
X238135000Y-107663000I-200000J0D01*
G01*
X237735000Y-107663000D01*
G75*
G02*
X237535000Y-107463000I0J200000D01*
G01*
X237535000Y-106913000D01*
G75*
G02*
X237735000Y-106713000I200000J0D01*
G01*
X238135000Y-106713000D01*
G75*
G02*
X238335000Y-106913000I0J-200000D01*
G01*
G37*
G36*
G01*
X239985000Y-106913000D02*
X239985000Y-107463000D01*
G75*
G02*
X239785000Y-107663000I-200000J0D01*
G01*
X239385000Y-107663000D01*
G75*
G02*
X239185000Y-107463000I0J200000D01*
G01*
X239185000Y-106913000D01*
G75*
G02*
X239385000Y-106713000I200000J0D01*
G01*
X239785000Y-106713000D01*
G75*
G02*
X239985000Y-106913000I0J-200000D01*
G01*
G37*
G36*
G01*
X233572500Y-93514500D02*
X233572500Y-94064500D01*
G75*
G02*
X233372500Y-94264500I-200000J0D01*
G01*
X232972500Y-94264500D01*
G75*
G02*
X232772500Y-94064500I0J200000D01*
G01*
X232772500Y-93514500D01*
G75*
G02*
X232972500Y-93314500I200000J0D01*
G01*
X233372500Y-93314500D01*
G75*
G02*
X233572500Y-93514500I0J-200000D01*
G01*
G37*
G36*
G01*
X235222500Y-93514500D02*
X235222500Y-94064500D01*
G75*
G02*
X235022500Y-94264500I-200000J0D01*
G01*
X234622500Y-94264500D01*
G75*
G02*
X234422500Y-94064500I0J200000D01*
G01*
X234422500Y-93514500D01*
G75*
G02*
X234622500Y-93314500I200000J0D01*
G01*
X235022500Y-93314500D01*
G75*
G02*
X235222500Y-93514500I0J-200000D01*
G01*
G37*
G36*
G01*
X233572500Y-95038500D02*
X233572500Y-95588500D01*
G75*
G02*
X233372500Y-95788500I-200000J0D01*
G01*
X232972500Y-95788500D01*
G75*
G02*
X232772500Y-95588500I0J200000D01*
G01*
X232772500Y-95038500D01*
G75*
G02*
X232972500Y-94838500I200000J0D01*
G01*
X233372500Y-94838500D01*
G75*
G02*
X233572500Y-95038500I0J-200000D01*
G01*
G37*
G36*
G01*
X235222500Y-95038500D02*
X235222500Y-95588500D01*
G75*
G02*
X235022500Y-95788500I-200000J0D01*
G01*
X234622500Y-95788500D01*
G75*
G02*
X234422500Y-95588500I0J200000D01*
G01*
X234422500Y-95038500D01*
G75*
G02*
X234622500Y-94838500I200000J0D01*
G01*
X235022500Y-94838500D01*
G75*
G02*
X235222500Y-95038500I0J-200000D01*
G01*
G37*
G36*
G01*
X233636000Y-96880000D02*
X233636000Y-97430000D01*
G75*
G02*
X233436000Y-97630000I-200000J0D01*
G01*
X233036000Y-97630000D01*
G75*
G02*
X232836000Y-97430000I0J200000D01*
G01*
X232836000Y-96880000D01*
G75*
G02*
X233036000Y-96680000I200000J0D01*
G01*
X233436000Y-96680000D01*
G75*
G02*
X233636000Y-96880000I0J-200000D01*
G01*
G37*
G36*
G01*
X235286000Y-96880000D02*
X235286000Y-97430000D01*
G75*
G02*
X235086000Y-97630000I-200000J0D01*
G01*
X234686000Y-97630000D01*
G75*
G02*
X234486000Y-97430000I0J200000D01*
G01*
X234486000Y-96880000D01*
G75*
G02*
X234686000Y-96680000I200000J0D01*
G01*
X235086000Y-96680000D01*
G75*
G02*
X235286000Y-96880000I0J-200000D01*
G01*
G37*
G36*
G01*
X233636000Y-99166000D02*
X233636000Y-99716000D01*
G75*
G02*
X233436000Y-99916000I-200000J0D01*
G01*
X233036000Y-99916000D01*
G75*
G02*
X232836000Y-99716000I0J200000D01*
G01*
X232836000Y-99166000D01*
G75*
G02*
X233036000Y-98966000I200000J0D01*
G01*
X233436000Y-98966000D01*
G75*
G02*
X233636000Y-99166000I0J-200000D01*
G01*
G37*
G36*
G01*
X235286000Y-99166000D02*
X235286000Y-99716000D01*
G75*
G02*
X235086000Y-99916000I-200000J0D01*
G01*
X234686000Y-99916000D01*
G75*
G02*
X234486000Y-99716000I0J200000D01*
G01*
X234486000Y-99166000D01*
G75*
G02*
X234686000Y-98966000I200000J0D01*
G01*
X235086000Y-98966000D01*
G75*
G02*
X235286000Y-99166000I0J-200000D01*
G01*
G37*
G36*
G01*
X233636000Y-100690000D02*
X233636000Y-101240000D01*
G75*
G02*
X233436000Y-101440000I-200000J0D01*
G01*
X233036000Y-101440000D01*
G75*
G02*
X232836000Y-101240000I0J200000D01*
G01*
X232836000Y-100690000D01*
G75*
G02*
X233036000Y-100490000I200000J0D01*
G01*
X233436000Y-100490000D01*
G75*
G02*
X233636000Y-100690000I0J-200000D01*
G01*
G37*
G36*
G01*
X235286000Y-100690000D02*
X235286000Y-101240000D01*
G75*
G02*
X235086000Y-101440000I-200000J0D01*
G01*
X234686000Y-101440000D01*
G75*
G02*
X234486000Y-101240000I0J200000D01*
G01*
X234486000Y-100690000D01*
G75*
G02*
X234686000Y-100490000I200000J0D01*
G01*
X235086000Y-100490000D01*
G75*
G02*
X235286000Y-100690000I0J-200000D01*
G01*
G37*
G36*
G01*
X233636000Y-102214000D02*
X233636000Y-102764000D01*
G75*
G02*
X233436000Y-102964000I-200000J0D01*
G01*
X233036000Y-102964000D01*
G75*
G02*
X232836000Y-102764000I0J200000D01*
G01*
X232836000Y-102214000D01*
G75*
G02*
X233036000Y-102014000I200000J0D01*
G01*
X233436000Y-102014000D01*
G75*
G02*
X233636000Y-102214000I0J-200000D01*
G01*
G37*
G36*
G01*
X235286000Y-102214000D02*
X235286000Y-102764000D01*
G75*
G02*
X235086000Y-102964000I-200000J0D01*
G01*
X234686000Y-102964000D01*
G75*
G02*
X234486000Y-102764000I0J200000D01*
G01*
X234486000Y-102214000D01*
G75*
G02*
X234686000Y-102014000I200000J0D01*
G01*
X235086000Y-102014000D01*
G75*
G02*
X235286000Y-102214000I0J-200000D01*
G01*
G37*
G36*
G01*
X222484500Y-60981000D02*
X222484500Y-60431000D01*
G75*
G02*
X222684500Y-60231000I200000J0D01*
G01*
X223084500Y-60231000D01*
G75*
G02*
X223284500Y-60431000I0J-200000D01*
G01*
X223284500Y-60981000D01*
G75*
G02*
X223084500Y-61181000I-200000J0D01*
G01*
X222684500Y-61181000D01*
G75*
G02*
X222484500Y-60981000I0J200000D01*
G01*
G37*
G36*
G01*
X220834500Y-60981000D02*
X220834500Y-60431000D01*
G75*
G02*
X221034500Y-60231000I200000J0D01*
G01*
X221434500Y-60231000D01*
G75*
G02*
X221634500Y-60431000I0J-200000D01*
G01*
X221634500Y-60981000D01*
G75*
G02*
X221434500Y-61181000I-200000J0D01*
G01*
X221034500Y-61181000D01*
G75*
G02*
X220834500Y-60981000I0J200000D01*
G01*
G37*
G36*
G01*
X221634500Y-58907000D02*
X221634500Y-59457000D01*
G75*
G02*
X221434500Y-59657000I-200000J0D01*
G01*
X221034500Y-59657000D01*
G75*
G02*
X220834500Y-59457000I0J200000D01*
G01*
X220834500Y-58907000D01*
G75*
G02*
X221034500Y-58707000I200000J0D01*
G01*
X221434500Y-58707000D01*
G75*
G02*
X221634500Y-58907000I0J-200000D01*
G01*
G37*
G36*
G01*
X223284500Y-58907000D02*
X223284500Y-59457000D01*
G75*
G02*
X223084500Y-59657000I-200000J0D01*
G01*
X222684500Y-59657000D01*
G75*
G02*
X222484500Y-59457000I0J200000D01*
G01*
X222484500Y-58907000D01*
G75*
G02*
X222684500Y-58707000I200000J0D01*
G01*
X223084500Y-58707000D01*
G75*
G02*
X223284500Y-58907000I0J-200000D01*
G01*
G37*
G36*
G01*
X225926200Y-74481100D02*
X225926200Y-73931100D01*
G75*
G02*
X226126200Y-73731100I200000J0D01*
G01*
X226526200Y-73731100D01*
G75*
G02*
X226726200Y-73931100I0J-200000D01*
G01*
X226726200Y-74481100D01*
G75*
G02*
X226526200Y-74681100I-200000J0D01*
G01*
X226126200Y-74681100D01*
G75*
G02*
X225926200Y-74481100I0J200000D01*
G01*
G37*
G36*
G01*
X224276200Y-74481100D02*
X224276200Y-73931100D01*
G75*
G02*
X224476200Y-73731100I200000J0D01*
G01*
X224876200Y-73731100D01*
G75*
G02*
X225076200Y-73931100I0J-200000D01*
G01*
X225076200Y-74481100D01*
G75*
G02*
X224876200Y-74681100I-200000J0D01*
G01*
X224476200Y-74681100D01*
G75*
G02*
X224276200Y-74481100I0J200000D01*
G01*
G37*
G36*
G01*
X225076200Y-72343600D02*
X225076200Y-72893600D01*
G75*
G02*
X224876200Y-73093600I-200000J0D01*
G01*
X224476200Y-73093600D01*
G75*
G02*
X224276200Y-72893600I0J200000D01*
G01*
X224276200Y-72343600D01*
G75*
G02*
X224476200Y-72143600I200000J0D01*
G01*
X224876200Y-72143600D01*
G75*
G02*
X225076200Y-72343600I0J-200000D01*
G01*
G37*
G36*
G01*
X226726200Y-72343600D02*
X226726200Y-72893600D01*
G75*
G02*
X226526200Y-73093600I-200000J0D01*
G01*
X226126200Y-73093600D01*
G75*
G02*
X225926200Y-72893600I0J200000D01*
G01*
X225926200Y-72343600D01*
G75*
G02*
X226126200Y-72143600I200000J0D01*
G01*
X226526200Y-72143600D01*
G75*
G02*
X226726200Y-72343600I0J-200000D01*
G01*
G37*
G36*
G01*
X222484500Y-64664000D02*
X222484500Y-64114000D01*
G75*
G02*
X222684500Y-63914000I200000J0D01*
G01*
X223084500Y-63914000D01*
G75*
G02*
X223284500Y-64114000I0J-200000D01*
G01*
X223284500Y-64664000D01*
G75*
G02*
X223084500Y-64864000I-200000J0D01*
G01*
X222684500Y-64864000D01*
G75*
G02*
X222484500Y-64664000I0J200000D01*
G01*
G37*
G36*
G01*
X220834500Y-64664000D02*
X220834500Y-64114000D01*
G75*
G02*
X221034500Y-63914000I200000J0D01*
G01*
X221434500Y-63914000D01*
G75*
G02*
X221634500Y-64114000I0J-200000D01*
G01*
X221634500Y-64664000D01*
G75*
G02*
X221434500Y-64864000I-200000J0D01*
G01*
X221034500Y-64864000D01*
G75*
G02*
X220834500Y-64664000I0J200000D01*
G01*
G37*
G36*
G01*
X225926200Y-78799100D02*
X225926200Y-78249100D01*
G75*
G02*
X226126200Y-78049100I200000J0D01*
G01*
X226526200Y-78049100D01*
G75*
G02*
X226726200Y-78249100I0J-200000D01*
G01*
X226726200Y-78799100D01*
G75*
G02*
X226526200Y-78999100I-200000J0D01*
G01*
X226126200Y-78999100D01*
G75*
G02*
X225926200Y-78799100I0J200000D01*
G01*
G37*
G36*
G01*
X224276200Y-78799100D02*
X224276200Y-78249100D01*
G75*
G02*
X224476200Y-78049100I200000J0D01*
G01*
X224876200Y-78049100D01*
G75*
G02*
X225076200Y-78249100I0J-200000D01*
G01*
X225076200Y-78799100D01*
G75*
G02*
X224876200Y-78999100I-200000J0D01*
G01*
X224476200Y-78999100D01*
G75*
G02*
X224276200Y-78799100I0J200000D01*
G01*
G37*
G36*
G01*
X219158000Y-57256000D02*
X219158000Y-57806000D01*
G75*
G02*
X218958000Y-58006000I-200000J0D01*
G01*
X218558000Y-58006000D01*
G75*
G02*
X218358000Y-57806000I0J200000D01*
G01*
X218358000Y-57256000D01*
G75*
G02*
X218558000Y-57056000I200000J0D01*
G01*
X218958000Y-57056000D01*
G75*
G02*
X219158000Y-57256000I0J-200000D01*
G01*
G37*
G36*
G01*
X220808000Y-57256000D02*
X220808000Y-57806000D01*
G75*
G02*
X220608000Y-58006000I-200000J0D01*
G01*
X220208000Y-58006000D01*
G75*
G02*
X220008000Y-57806000I0J200000D01*
G01*
X220008000Y-57256000D01*
G75*
G02*
X220208000Y-57056000I200000J0D01*
G01*
X220608000Y-57056000D01*
G75*
G02*
X220808000Y-57256000I0J-200000D01*
G01*
G37*
G36*
G01*
X221964700Y-70527500D02*
X221964700Y-71077500D01*
G75*
G02*
X221764700Y-71277500I-200000J0D01*
G01*
X221364700Y-71277500D01*
G75*
G02*
X221164700Y-71077500I0J200000D01*
G01*
X221164700Y-70527500D01*
G75*
G02*
X221364700Y-70327500I200000J0D01*
G01*
X221764700Y-70327500D01*
G75*
G02*
X221964700Y-70527500I0J-200000D01*
G01*
G37*
G36*
G01*
X223614700Y-70527500D02*
X223614700Y-71077500D01*
G75*
G02*
X223414700Y-71277500I-200000J0D01*
G01*
X223014700Y-71277500D01*
G75*
G02*
X222814700Y-71077500I0J200000D01*
G01*
X222814700Y-70527500D01*
G75*
G02*
X223014700Y-70327500I200000J0D01*
G01*
X223414700Y-70327500D01*
G75*
G02*
X223614700Y-70527500I0J-200000D01*
G01*
G37*
G36*
G01*
X242003000Y-45492500D02*
X242003000Y-45693500D01*
G75*
G02*
X241923500Y-45773000I-79500J0D01*
G01*
X241764500Y-45773000D01*
G75*
G02*
X241685000Y-45693500I0J79500D01*
G01*
X241685000Y-45492500D01*
G75*
G02*
X241764500Y-45413000I79500J0D01*
G01*
X241923500Y-45413000D01*
G75*
G02*
X242003000Y-45492500I0J-79500D01*
G01*
G37*
G36*
G01*
X242693000Y-45492500D02*
X242693000Y-45693500D01*
G75*
G02*
X242613500Y-45773000I-79500J0D01*
G01*
X242454500Y-45773000D01*
G75*
G02*
X242375000Y-45693500I0J79500D01*
G01*
X242375000Y-45492500D01*
G75*
G02*
X242454500Y-45413000I79500J0D01*
G01*
X242613500Y-45413000D01*
G75*
G02*
X242693000Y-45492500I0J-79500D01*
G01*
G37*
G36*
G01*
X237940000Y-42658000D02*
X238310000Y-42658000D01*
G75*
G02*
X238445000Y-42793000I0J-135000D01*
G01*
X238445000Y-43063000D01*
G75*
G02*
X238310000Y-43198000I-135000J0D01*
G01*
X237940000Y-43198000D01*
G75*
G02*
X237805000Y-43063000I0J135000D01*
G01*
X237805000Y-42793000D01*
G75*
G02*
X237940000Y-42658000I135000J0D01*
G01*
G37*
G36*
G01*
X237940000Y-41638000D02*
X238310000Y-41638000D01*
G75*
G02*
X238445000Y-41773000I0J-135000D01*
G01*
X238445000Y-42043000D01*
G75*
G02*
X238310000Y-42178000I-135000J0D01*
G01*
X237940000Y-42178000D01*
G75*
G02*
X237805000Y-42043000I0J135000D01*
G01*
X237805000Y-41773000D01*
G75*
G02*
X237940000Y-41638000I135000J0D01*
G01*
G37*
G36*
G01*
X236670000Y-42658000D02*
X237040000Y-42658000D01*
G75*
G02*
X237175000Y-42793000I0J-135000D01*
G01*
X237175000Y-43063000D01*
G75*
G02*
X237040000Y-43198000I-135000J0D01*
G01*
X236670000Y-43198000D01*
G75*
G02*
X236535000Y-43063000I0J135000D01*
G01*
X236535000Y-42793000D01*
G75*
G02*
X236670000Y-42658000I135000J0D01*
G01*
G37*
G36*
G01*
X236670000Y-41638000D02*
X237040000Y-41638000D01*
G75*
G02*
X237175000Y-41773000I0J-135000D01*
G01*
X237175000Y-42043000D01*
G75*
G02*
X237040000Y-42178000I-135000J0D01*
G01*
X236670000Y-42178000D01*
G75*
G02*
X236535000Y-42043000I0J135000D01*
G01*
X236535000Y-41773000D01*
G75*
G02*
X236670000Y-41638000I135000J0D01*
G01*
G37*
G36*
G01*
X235400000Y-42658000D02*
X235770000Y-42658000D01*
G75*
G02*
X235905000Y-42793000I0J-135000D01*
G01*
X235905000Y-43063000D01*
G75*
G02*
X235770000Y-43198000I-135000J0D01*
G01*
X235400000Y-43198000D01*
G75*
G02*
X235265000Y-43063000I0J135000D01*
G01*
X235265000Y-42793000D01*
G75*
G02*
X235400000Y-42658000I135000J0D01*
G01*
G37*
G36*
G01*
X235400000Y-41638000D02*
X235770000Y-41638000D01*
G75*
G02*
X235905000Y-41773000I0J-135000D01*
G01*
X235905000Y-42043000D01*
G75*
G02*
X235770000Y-42178000I-135000J0D01*
G01*
X235400000Y-42178000D01*
G75*
G02*
X235265000Y-42043000I0J135000D01*
G01*
X235265000Y-41773000D01*
G75*
G02*
X235400000Y-41638000I135000J0D01*
G01*
G37*
G36*
G01*
X245433000Y-42658000D02*
X245803000Y-42658000D01*
G75*
G02*
X245938000Y-42793000I0J-135000D01*
G01*
X245938000Y-43063000D01*
G75*
G02*
X245803000Y-43198000I-135000J0D01*
G01*
X245433000Y-43198000D01*
G75*
G02*
X245298000Y-43063000I0J135000D01*
G01*
X245298000Y-42793000D01*
G75*
G02*
X245433000Y-42658000I135000J0D01*
G01*
G37*
G36*
G01*
X245433000Y-41638000D02*
X245803000Y-41638000D01*
G75*
G02*
X245938000Y-41773000I0J-135000D01*
G01*
X245938000Y-42043000D01*
G75*
G02*
X245803000Y-42178000I-135000J0D01*
G01*
X245433000Y-42178000D01*
G75*
G02*
X245298000Y-42043000I0J135000D01*
G01*
X245298000Y-41773000D01*
G75*
G02*
X245433000Y-41638000I135000J0D01*
G01*
G37*
G36*
G01*
X244163000Y-42658000D02*
X244533000Y-42658000D01*
G75*
G02*
X244668000Y-42793000I0J-135000D01*
G01*
X244668000Y-43063000D01*
G75*
G02*
X244533000Y-43198000I-135000J0D01*
G01*
X244163000Y-43198000D01*
G75*
G02*
X244028000Y-43063000I0J135000D01*
G01*
X244028000Y-42793000D01*
G75*
G02*
X244163000Y-42658000I135000J0D01*
G01*
G37*
G36*
G01*
X244163000Y-41638000D02*
X244533000Y-41638000D01*
G75*
G02*
X244668000Y-41773000I0J-135000D01*
G01*
X244668000Y-42043000D01*
G75*
G02*
X244533000Y-42178000I-135000J0D01*
G01*
X244163000Y-42178000D01*
G75*
G02*
X244028000Y-42043000I0J135000D01*
G01*
X244028000Y-41773000D01*
G75*
G02*
X244163000Y-41638000I135000J0D01*
G01*
G37*
G36*
G01*
X242893000Y-42658000D02*
X243263000Y-42658000D01*
G75*
G02*
X243398000Y-42793000I0J-135000D01*
G01*
X243398000Y-43063000D01*
G75*
G02*
X243263000Y-43198000I-135000J0D01*
G01*
X242893000Y-43198000D01*
G75*
G02*
X242758000Y-43063000I0J135000D01*
G01*
X242758000Y-42793000D01*
G75*
G02*
X242893000Y-42658000I135000J0D01*
G01*
G37*
G36*
G01*
X242893000Y-41638000D02*
X243263000Y-41638000D01*
G75*
G02*
X243398000Y-41773000I0J-135000D01*
G01*
X243398000Y-42043000D01*
G75*
G02*
X243263000Y-42178000I-135000J0D01*
G01*
X242893000Y-42178000D01*
G75*
G02*
X242758000Y-42043000I0J135000D01*
G01*
X242758000Y-41773000D01*
G75*
G02*
X242893000Y-41638000I135000J0D01*
G01*
G37*
G36*
G01*
X230447000Y-42721500D02*
X230817000Y-42721500D01*
G75*
G02*
X230952000Y-42856500I0J-135000D01*
G01*
X230952000Y-43126500D01*
G75*
G02*
X230817000Y-43261500I-135000J0D01*
G01*
X230447000Y-43261500D01*
G75*
G02*
X230312000Y-43126500I0J135000D01*
G01*
X230312000Y-42856500D01*
G75*
G02*
X230447000Y-42721500I135000J0D01*
G01*
G37*
G36*
G01*
X230447000Y-41701500D02*
X230817000Y-41701500D01*
G75*
G02*
X230952000Y-41836500I0J-135000D01*
G01*
X230952000Y-42106500D01*
G75*
G02*
X230817000Y-42241500I-135000J0D01*
G01*
X230447000Y-42241500D01*
G75*
G02*
X230312000Y-42106500I0J135000D01*
G01*
X230312000Y-41836500D01*
G75*
G02*
X230447000Y-41701500I135000J0D01*
G01*
G37*
G36*
G01*
X229177000Y-42721500D02*
X229547000Y-42721500D01*
G75*
G02*
X229682000Y-42856500I0J-135000D01*
G01*
X229682000Y-43126500D01*
G75*
G02*
X229547000Y-43261500I-135000J0D01*
G01*
X229177000Y-43261500D01*
G75*
G02*
X229042000Y-43126500I0J135000D01*
G01*
X229042000Y-42856500D01*
G75*
G02*
X229177000Y-42721500I135000J0D01*
G01*
G37*
G36*
G01*
X229177000Y-41701500D02*
X229547000Y-41701500D01*
G75*
G02*
X229682000Y-41836500I0J-135000D01*
G01*
X229682000Y-42106500D01*
G75*
G02*
X229547000Y-42241500I-135000J0D01*
G01*
X229177000Y-42241500D01*
G75*
G02*
X229042000Y-42106500I0J135000D01*
G01*
X229042000Y-41836500D01*
G75*
G02*
X229177000Y-41701500I135000J0D01*
G01*
G37*
G36*
G01*
X227907000Y-42721500D02*
X228277000Y-42721500D01*
G75*
G02*
X228412000Y-42856500I0J-135000D01*
G01*
X228412000Y-43126500D01*
G75*
G02*
X228277000Y-43261500I-135000J0D01*
G01*
X227907000Y-43261500D01*
G75*
G02*
X227772000Y-43126500I0J135000D01*
G01*
X227772000Y-42856500D01*
G75*
G02*
X227907000Y-42721500I135000J0D01*
G01*
G37*
G36*
G01*
X227907000Y-41701500D02*
X228277000Y-41701500D01*
G75*
G02*
X228412000Y-41836500I0J-135000D01*
G01*
X228412000Y-42106500D01*
G75*
G02*
X228277000Y-42241500I-135000J0D01*
G01*
X227907000Y-42241500D01*
G75*
G02*
X227772000Y-42106500I0J135000D01*
G01*
X227772000Y-41836500D01*
G75*
G02*
X227907000Y-41701500I135000J0D01*
G01*
G37*
G36*
G01*
X224414500Y-41705500D02*
X224784500Y-41705500D01*
G75*
G02*
X224919500Y-41840500I0J-135000D01*
G01*
X224919500Y-42110500D01*
G75*
G02*
X224784500Y-42245500I-135000J0D01*
G01*
X224414500Y-42245500D01*
G75*
G02*
X224279500Y-42110500I0J135000D01*
G01*
X224279500Y-41840500D01*
G75*
G02*
X224414500Y-41705500I135000J0D01*
G01*
G37*
G36*
G01*
X224414500Y-40685500D02*
X224784500Y-40685500D01*
G75*
G02*
X224919500Y-40820500I0J-135000D01*
G01*
X224919500Y-41090500D01*
G75*
G02*
X224784500Y-41225500I-135000J0D01*
G01*
X224414500Y-41225500D01*
G75*
G02*
X224279500Y-41090500I0J135000D01*
G01*
X224279500Y-40820500D01*
G75*
G02*
X224414500Y-40685500I135000J0D01*
G01*
G37*
G36*
G01*
X220649000Y-55570000D02*
X220649000Y-55369000D01*
G75*
G02*
X220728500Y-55289500I79500J0D01*
G01*
X220887500Y-55289500D01*
G75*
G02*
X220967000Y-55369000I0J-79500D01*
G01*
X220967000Y-55570000D01*
G75*
G02*
X220887500Y-55649500I-79500J0D01*
G01*
X220728500Y-55649500D01*
G75*
G02*
X220649000Y-55570000I0J79500D01*
G01*
G37*
G36*
G01*
X219959000Y-55570000D02*
X219959000Y-55369000D01*
G75*
G02*
X220038500Y-55289500I79500J0D01*
G01*
X220197500Y-55289500D01*
G75*
G02*
X220277000Y-55369000I0J-79500D01*
G01*
X220277000Y-55570000D01*
G75*
G02*
X220197500Y-55649500I-79500J0D01*
G01*
X220038500Y-55649500D01*
G75*
G02*
X219959000Y-55570000I0J79500D01*
G01*
G37*
G36*
G01*
X220649000Y-54808000D02*
X220649000Y-54607000D01*
G75*
G02*
X220728500Y-54527500I79500J0D01*
G01*
X220887500Y-54527500D01*
G75*
G02*
X220967000Y-54607000I0J-79500D01*
G01*
X220967000Y-54808000D01*
G75*
G02*
X220887500Y-54887500I-79500J0D01*
G01*
X220728500Y-54887500D01*
G75*
G02*
X220649000Y-54808000I0J79500D01*
G01*
G37*
G36*
G01*
X219959000Y-54808000D02*
X219959000Y-54607000D01*
G75*
G02*
X220038500Y-54527500I79500J0D01*
G01*
X220197500Y-54527500D01*
G75*
G02*
X220277000Y-54607000I0J-79500D01*
G01*
X220277000Y-54808000D01*
G75*
G02*
X220197500Y-54887500I-79500J0D01*
G01*
X220038500Y-54887500D01*
G75*
G02*
X219959000Y-54808000I0J79500D01*
G01*
G37*
G36*
G01*
X239336000Y-108255900D02*
X239336000Y-108456900D01*
G75*
G02*
X239256500Y-108536400I-79500J0D01*
G01*
X239097500Y-108536400D01*
G75*
G02*
X239018000Y-108456900I0J79500D01*
G01*
X239018000Y-108255900D01*
G75*
G02*
X239097500Y-108176400I79500J0D01*
G01*
X239256500Y-108176400D01*
G75*
G02*
X239336000Y-108255900I0J-79500D01*
G01*
G37*
G36*
G01*
X240026000Y-108255900D02*
X240026000Y-108456900D01*
G75*
G02*
X239946500Y-108536400I-79500J0D01*
G01*
X239787500Y-108536400D01*
G75*
G02*
X239708000Y-108456900I0J79500D01*
G01*
X239708000Y-108255900D01*
G75*
G02*
X239787500Y-108176400I79500J0D01*
G01*
X239946500Y-108176400D01*
G75*
G02*
X240026000Y-108255900I0J-79500D01*
G01*
G37*
G36*
G01*
X210647000Y-72483000D02*
X210848000Y-72483000D01*
G75*
G02*
X210927500Y-72562500I0J-79500D01*
G01*
X210927500Y-72721500D01*
G75*
G02*
X210848000Y-72801000I-79500J0D01*
G01*
X210647000Y-72801000D01*
G75*
G02*
X210567500Y-72721500I0J79500D01*
G01*
X210567500Y-72562500D01*
G75*
G02*
X210647000Y-72483000I79500J0D01*
G01*
G37*
G36*
G01*
X210647000Y-71793000D02*
X210848000Y-71793000D01*
G75*
G02*
X210927500Y-71872500I0J-79500D01*
G01*
X210927500Y-72031500D01*
G75*
G02*
X210848000Y-72111000I-79500J0D01*
G01*
X210647000Y-72111000D01*
G75*
G02*
X210567500Y-72031500I0J79500D01*
G01*
X210567500Y-71872500D01*
G75*
G02*
X210647000Y-71793000I79500J0D01*
G01*
G37*
G36*
G01*
X217960000Y-71984000D02*
X217759000Y-71984000D01*
G75*
G02*
X217679500Y-71904500I0J79500D01*
G01*
X217679500Y-71745500D01*
G75*
G02*
X217759000Y-71666000I79500J0D01*
G01*
X217960000Y-71666000D01*
G75*
G02*
X218039500Y-71745500I0J-79500D01*
G01*
X218039500Y-71904500D01*
G75*
G02*
X217960000Y-71984000I-79500J0D01*
G01*
G37*
G36*
G01*
X217960000Y-72674000D02*
X217759000Y-72674000D01*
G75*
G02*
X217679500Y-72594500I0J79500D01*
G01*
X217679500Y-72435500D01*
G75*
G02*
X217759000Y-72356000I79500J0D01*
G01*
X217960000Y-72356000D01*
G75*
G02*
X218039500Y-72435500I0J-79500D01*
G01*
X218039500Y-72594500D01*
G75*
G02*
X217960000Y-72674000I-79500J0D01*
G01*
G37*
G36*
G01*
X214743500Y-69349500D02*
X214743500Y-69148500D01*
G75*
G02*
X214823000Y-69069000I79500J0D01*
G01*
X214982000Y-69069000D01*
G75*
G02*
X215061500Y-69148500I0J-79500D01*
G01*
X215061500Y-69349500D01*
G75*
G02*
X214982000Y-69429000I-79500J0D01*
G01*
X214823000Y-69429000D01*
G75*
G02*
X214743500Y-69349500I0J79500D01*
G01*
G37*
G36*
G01*
X214053500Y-69349500D02*
X214053500Y-69148500D01*
G75*
G02*
X214133000Y-69069000I79500J0D01*
G01*
X214292000Y-69069000D01*
G75*
G02*
X214371500Y-69148500I0J-79500D01*
G01*
X214371500Y-69349500D01*
G75*
G02*
X214292000Y-69429000I-79500J0D01*
G01*
X214133000Y-69429000D01*
G75*
G02*
X214053500Y-69349500I0J79500D01*
G01*
G37*
G36*
G01*
X219028200Y-78531600D02*
X219528200Y-78531600D01*
G75*
G02*
X219753200Y-78756600I0J-225000D01*
G01*
X219753200Y-79206600D01*
G75*
G02*
X219528200Y-79431600I-225000J0D01*
G01*
X219028200Y-79431600D01*
G75*
G02*
X218803200Y-79206600I0J225000D01*
G01*
X218803200Y-78756600D01*
G75*
G02*
X219028200Y-78531600I225000J0D01*
G01*
G37*
G36*
G01*
X219028200Y-76981600D02*
X219528200Y-76981600D01*
G75*
G02*
X219753200Y-77206600I0J-225000D01*
G01*
X219753200Y-77656600D01*
G75*
G02*
X219528200Y-77881600I-225000J0D01*
G01*
X219028200Y-77881600D01*
G75*
G02*
X218803200Y-77656600I0J225000D01*
G01*
X218803200Y-77206600D01*
G75*
G02*
X219028200Y-76981600I225000J0D01*
G01*
G37*
G36*
G01*
X213407000Y-77635000D02*
X213407000Y-78135000D01*
G75*
G02*
X213182000Y-78360000I-225000J0D01*
G01*
X212732000Y-78360000D01*
G75*
G02*
X212507000Y-78135000I0J225000D01*
G01*
X212507000Y-77635000D01*
G75*
G02*
X212732000Y-77410000I225000J0D01*
G01*
X213182000Y-77410000D01*
G75*
G02*
X213407000Y-77635000I0J-225000D01*
G01*
G37*
G36*
G01*
X214957000Y-77635000D02*
X214957000Y-78135000D01*
G75*
G02*
X214732000Y-78360000I-225000J0D01*
G01*
X214282000Y-78360000D01*
G75*
G02*
X214057000Y-78135000I0J225000D01*
G01*
X214057000Y-77635000D01*
G75*
G02*
X214282000Y-77410000I225000J0D01*
G01*
X214732000Y-77410000D01*
G75*
G02*
X214957000Y-77635000I0J-225000D01*
G01*
G37*
G36*
G01*
X234637000Y-98197500D02*
X234637000Y-98398500D01*
G75*
G02*
X234557500Y-98478000I-79500J0D01*
G01*
X234398500Y-98478000D01*
G75*
G02*
X234319000Y-98398500I0J79500D01*
G01*
X234319000Y-98197500D01*
G75*
G02*
X234398500Y-98118000I79500J0D01*
G01*
X234557500Y-98118000D01*
G75*
G02*
X234637000Y-98197500I0J-79500D01*
G01*
G37*
G36*
G01*
X235327000Y-98197500D02*
X235327000Y-98398500D01*
G75*
G02*
X235247500Y-98478000I-79500J0D01*
G01*
X235088500Y-98478000D01*
G75*
G02*
X235009000Y-98398500I0J79500D01*
G01*
X235009000Y-98197500D01*
G75*
G02*
X235088500Y-98118000I79500J0D01*
G01*
X235247500Y-98118000D01*
G75*
G02*
X235327000Y-98197500I0J-79500D01*
G01*
G37*
G36*
G01*
X218635000Y-58573500D02*
X218635000Y-58774500D01*
G75*
G02*
X218555500Y-58854000I-79500J0D01*
G01*
X218396500Y-58854000D01*
G75*
G02*
X218317000Y-58774500I0J79500D01*
G01*
X218317000Y-58573500D01*
G75*
G02*
X218396500Y-58494000I79500J0D01*
G01*
X218555500Y-58494000D01*
G75*
G02*
X218635000Y-58573500I0J-79500D01*
G01*
G37*
G36*
G01*
X219325000Y-58573500D02*
X219325000Y-58774500D01*
G75*
G02*
X219245500Y-58854000I-79500J0D01*
G01*
X219086500Y-58854000D01*
G75*
G02*
X219007000Y-58774500I0J79500D01*
G01*
X219007000Y-58573500D01*
G75*
G02*
X219086500Y-58494000I79500J0D01*
G01*
X219245500Y-58494000D01*
G75*
G02*
X219325000Y-58573500I0J-79500D01*
G01*
G37*
G36*
G01*
X223474000Y-72576000D02*
X223675000Y-72576000D01*
G75*
G02*
X223754500Y-72655500I0J-79500D01*
G01*
X223754500Y-72814500D01*
G75*
G02*
X223675000Y-72894000I-79500J0D01*
G01*
X223474000Y-72894000D01*
G75*
G02*
X223394500Y-72814500I0J79500D01*
G01*
X223394500Y-72655500D01*
G75*
G02*
X223474000Y-72576000I79500J0D01*
G01*
G37*
G36*
G01*
X223474000Y-71886000D02*
X223675000Y-71886000D01*
G75*
G02*
X223754500Y-71965500I0J-79500D01*
G01*
X223754500Y-72124500D01*
G75*
G02*
X223675000Y-72204000I-79500J0D01*
G01*
X223474000Y-72204000D01*
G75*
G02*
X223394500Y-72124500I0J79500D01*
G01*
X223394500Y-71965500D01*
G75*
G02*
X223474000Y-71886000I79500J0D01*
G01*
G37*
G36*
G01*
X219056500Y-62150000D02*
X218636500Y-62150000D01*
G75*
G02*
X218466500Y-61980000I0J170000D01*
G01*
X218466500Y-61640000D01*
G75*
G02*
X218636500Y-61470000I170000J0D01*
G01*
X219056500Y-61470000D01*
G75*
G02*
X219226500Y-61640000I0J-170000D01*
G01*
X219226500Y-61980000D01*
G75*
G02*
X219056500Y-62150000I-170000J0D01*
G01*
G37*
G36*
G01*
X218116500Y-62150000D02*
X217696500Y-62150000D01*
G75*
G02*
X217526500Y-61980000I0J170000D01*
G01*
X217526500Y-61640000D01*
G75*
G02*
X217696500Y-61470000I170000J0D01*
G01*
X218116500Y-61470000D01*
G75*
G02*
X218286500Y-61640000I0J-170000D01*
G01*
X218286500Y-61980000D01*
G75*
G02*
X218116500Y-62150000I-170000J0D01*
G01*
G37*
G36*
G01*
X219056500Y-62990000D02*
X218636500Y-62990000D01*
G75*
G02*
X218466500Y-62820000I0J170000D01*
G01*
X218466500Y-62480000D01*
G75*
G02*
X218636500Y-62310000I170000J0D01*
G01*
X219056500Y-62310000D01*
G75*
G02*
X219226500Y-62480000I0J-170000D01*
G01*
X219226500Y-62820000D01*
G75*
G02*
X219056500Y-62990000I-170000J0D01*
G01*
G37*
G36*
G01*
X218116500Y-62990000D02*
X217696500Y-62990000D01*
G75*
G02*
X217526500Y-62820000I0J170000D01*
G01*
X217526500Y-62480000D01*
G75*
G02*
X217696500Y-62310000I170000J0D01*
G01*
X218116500Y-62310000D01*
G75*
G02*
X218286500Y-62480000I0J-170000D01*
G01*
X218286500Y-62820000D01*
G75*
G02*
X218116500Y-62990000I-170000J0D01*
G01*
G37*
G36*
G01*
X217451500Y-60805000D02*
X217301500Y-60805000D01*
G75*
G02*
X217226500Y-60730000I0J75000D01*
G01*
X217226500Y-59430000D01*
G75*
G02*
X217301500Y-59355000I75000J0D01*
G01*
X217451500Y-59355000D01*
G75*
G02*
X217526500Y-59430000I0J-75000D01*
G01*
X217526500Y-60730000D01*
G75*
G02*
X217451500Y-60805000I-75000J0D01*
G01*
G37*
G36*
G01*
X217951500Y-60805000D02*
X217801500Y-60805000D01*
G75*
G02*
X217726500Y-60730000I0J75000D01*
G01*
X217726500Y-59430000D01*
G75*
G02*
X217801500Y-59355000I75000J0D01*
G01*
X217951500Y-59355000D01*
G75*
G02*
X218026500Y-59430000I0J-75000D01*
G01*
X218026500Y-60730000D01*
G75*
G02*
X217951500Y-60805000I-75000J0D01*
G01*
G37*
G36*
G01*
X218451500Y-60805000D02*
X218301500Y-60805000D01*
G75*
G02*
X218226500Y-60730000I0J75000D01*
G01*
X218226500Y-59430000D01*
G75*
G02*
X218301500Y-59355000I75000J0D01*
G01*
X218451500Y-59355000D01*
G75*
G02*
X218526500Y-59430000I0J-75000D01*
G01*
X218526500Y-60730000D01*
G75*
G02*
X218451500Y-60805000I-75000J0D01*
G01*
G37*
G36*
G01*
X218951500Y-60805000D02*
X218801500Y-60805000D01*
G75*
G02*
X218726500Y-60730000I0J75000D01*
G01*
X218726500Y-59430000D01*
G75*
G02*
X218801500Y-59355000I75000J0D01*
G01*
X218951500Y-59355000D01*
G75*
G02*
X219026500Y-59430000I0J-75000D01*
G01*
X219026500Y-60730000D01*
G75*
G02*
X218951500Y-60805000I-75000J0D01*
G01*
G37*
G36*
G01*
X219451500Y-60805000D02*
X219301500Y-60805000D01*
G75*
G02*
X219226500Y-60730000I0J75000D01*
G01*
X219226500Y-59430000D01*
G75*
G02*
X219301500Y-59355000I75000J0D01*
G01*
X219451500Y-59355000D01*
G75*
G02*
X219526500Y-59430000I0J-75000D01*
G01*
X219526500Y-60730000D01*
G75*
G02*
X219451500Y-60805000I-75000J0D01*
G01*
G37*
G36*
G01*
X219451500Y-65105000D02*
X219301500Y-65105000D01*
G75*
G02*
X219226500Y-65030000I0J75000D01*
G01*
X219226500Y-63730000D01*
G75*
G02*
X219301500Y-63655000I75000J0D01*
G01*
X219451500Y-63655000D01*
G75*
G02*
X219526500Y-63730000I0J-75000D01*
G01*
X219526500Y-65030000D01*
G75*
G02*
X219451500Y-65105000I-75000J0D01*
G01*
G37*
G36*
G01*
X218951500Y-65105000D02*
X218801500Y-65105000D01*
G75*
G02*
X218726500Y-65030000I0J75000D01*
G01*
X218726500Y-63730000D01*
G75*
G02*
X218801500Y-63655000I75000J0D01*
G01*
X218951500Y-63655000D01*
G75*
G02*
X219026500Y-63730000I0J-75000D01*
G01*
X219026500Y-65030000D01*
G75*
G02*
X218951500Y-65105000I-75000J0D01*
G01*
G37*
G36*
G01*
X218451500Y-65105000D02*
X218301500Y-65105000D01*
G75*
G02*
X218226500Y-65030000I0J75000D01*
G01*
X218226500Y-63730000D01*
G75*
G02*
X218301500Y-63655000I75000J0D01*
G01*
X218451500Y-63655000D01*
G75*
G02*
X218526500Y-63730000I0J-75000D01*
G01*
X218526500Y-65030000D01*
G75*
G02*
X218451500Y-65105000I-75000J0D01*
G01*
G37*
G36*
G01*
X217951500Y-65105000D02*
X217801500Y-65105000D01*
G75*
G02*
X217726500Y-65030000I0J75000D01*
G01*
X217726500Y-63730000D01*
G75*
G02*
X217801500Y-63655000I75000J0D01*
G01*
X217951500Y-63655000D01*
G75*
G02*
X218026500Y-63730000I0J-75000D01*
G01*
X218026500Y-65030000D01*
G75*
G02*
X217951500Y-65105000I-75000J0D01*
G01*
G37*
G36*
G01*
X217451500Y-65105000D02*
X217301500Y-65105000D01*
G75*
G02*
X217226500Y-65030000I0J75000D01*
G01*
X217226500Y-63730000D01*
G75*
G02*
X217301500Y-63655000I75000J0D01*
G01*
X217451500Y-63655000D01*
G75*
G02*
X217526500Y-63730000I0J-75000D01*
G01*
X217526500Y-65030000D01*
G75*
G02*
X217451500Y-65105000I-75000J0D01*
G01*
G37*
M02*
