M48
; DRILL file {KiCad 9.0.6} date 2025-12-10T21:10:49-0500
; FORMAT={-:-/ absolute / metric / decimal}
; #@! TF.CreationDate,2025-12-10T21:10:49-05:00
; #@! TF.GenerationSoftware,Kicad,Pcbnew,9.0.6
; #@! TF.FileFunction,Plated,1,2,PTH
FMAT,2
METRIC
; #@! TA.AperFunction,Plated,PTH,ComponentDrill
T1C0.300
; #@! TA.AperFunction,Plated,PTH,ViaDrill
T2C0.500
; #@! TA.AperFunction,Plated,PTH,ComponentDrill
T3C0.800
; #@! TA.AperFunction,Plated,PTH,ComponentDrill
T4C1.100
; #@! TA.AperFunction,Plated,PTH,ComponentDrill
T5C3.150
%
G90
G05
T1
X72.12Y-40.638
X72.12Y-82.638
X72.705Y-39.223
X72.705Y-42.052
X72.705Y-81.223
X72.705Y-84.052
X74.12Y-38.638
X74.12Y-42.638
X74.12Y-80.638
X74.12Y-84.638
X75.534Y-39.223
X75.534Y-42.052
X75.534Y-81.223
X75.534Y-84.052
X76.12Y-40.638
X76.12Y-82.638
X130.12Y-40.638
X130.12Y-82.638
X130.705Y-39.223
X130.705Y-42.052
X130.705Y-81.223
X130.705Y-84.052
X132.12Y-38.638
X132.12Y-42.638
X132.12Y-80.638
X132.12Y-84.638
X133.534Y-39.223
X133.534Y-42.052
X133.534Y-81.223
X133.534Y-84.052
X134.12Y-40.638
X134.12Y-82.638
T2
X73.402Y-48.367
X80.37Y-44.351
X84.0Y-83.7
X85.702Y-55.767
X88.298Y-61.474
X88.3Y-63.826
X88.3Y-65.828
X88.3Y-67.828
X88.3Y-69.828
X88.3Y-71.827
X88.3Y-73.828
X88.3Y-75.828
X88.3Y-77.828
X88.502Y-83.267
X90.0Y-83.7
X90.838Y-60.585
X91.002Y-81.467
X91.092Y-48.774
X96.0Y-83.7
X97.95Y-52.965
X98.12Y-69.638
X98.12Y-73.638
X99.601Y-63.379
X100.42Y-57.301
X102.0Y-83.7
X102.12Y-69.638
X102.12Y-73.638
X105.697Y-51.441
X106.205Y-58.426
X106.3Y-64.481
X107.729Y-74.809
X108.684Y-69.817
X110.102Y-73.467
X110.777Y-75.317
X111.412Y-73.793
X111.502Y-67.748
X111.602Y-69.667
X114.714Y-76.968
X115.12Y-63.401
X118.618Y-54.234
X118.7Y-44.0
X118.7Y-49.0
X119.0Y-73.0
X119.0Y-78.0
X119.0Y-83.0
X132.0Y-45.5
T3
X91.854Y-51.06
X103.157Y-53.738
X111.158Y-62.617
T4
X79.151Y-39.323
X79.151Y-41.863
X81.691Y-39.323
X81.691Y-41.863
X81.938Y-55.204
X81.938Y-57.744
X81.938Y-60.284
X81.938Y-62.824
X81.938Y-65.364
X81.938Y-67.904
X81.938Y-70.444
X81.938Y-72.984
X81.938Y-75.524
X81.938Y-78.064
X84.231Y-39.323
X84.231Y-41.863
X86.771Y-39.323
X86.771Y-41.863
X89.311Y-39.323
X89.311Y-41.863
X91.851Y-39.323
X91.851Y-41.863
X94.391Y-39.323
X94.391Y-41.863
X96.931Y-39.323
X96.931Y-41.863
X99.471Y-39.323
X99.471Y-41.863
X102.011Y-39.323
X102.011Y-41.863
X104.551Y-39.323
X104.551Y-41.863
X107.091Y-39.323
X107.091Y-41.863
X109.631Y-39.323
X109.631Y-41.863
X112.171Y-39.323
X112.171Y-41.863
X114.711Y-39.323
X114.711Y-41.863
X117.251Y-39.323
X117.251Y-41.863
X119.791Y-39.323
X119.791Y-41.863
X122.331Y-39.323
X122.331Y-41.863
X124.098Y-48.364
X124.098Y-50.904
X124.098Y-55.364
X124.098Y-57.904
X124.098Y-62.364
X124.098Y-64.904
X124.871Y-39.323
X124.871Y-41.863
X127.411Y-39.323
X127.411Y-41.863
T5
X74.12Y-40.638
X74.12Y-82.638
X132.12Y-40.638
X132.12Y-82.638
M30
