%TF.GenerationSoftware,KiCad,Pcbnew,9.0.6*%
%TF.CreationDate,2025-12-10T21:10:52-05:00*%
%TF.ProjectId,portiloop,706f7274-696c-46f6-9f70-2e6b69636164,2.3*%
%TF.SameCoordinates,Original*%
%TF.FileFunction,Legend,Bot*%
%TF.FilePolarity,Positive*%
%FSLAX46Y46*%
G04 Gerber Fmt 4.6, Leading zero omitted, Abs format (unit mm)*
G04 Created by KiCad (PCBNEW 9.0.6) date 2025-12-10 21:10:52*
%MOMM*%
%LPD*%
G01*
G04 APERTURE LIST*
%ADD10C,0.150000*%
%ADD11C,0.200000*%
%ADD12C,0.250000*%
G04 APERTURE END LIST*
D10*
X83481805Y-76290652D02*
X84053233Y-76290652D01*
X84053233Y-76290652D02*
X84167519Y-76252557D01*
X84167519Y-76252557D02*
X84243710Y-76176366D01*
X84243710Y-76176366D02*
X84281805Y-76062081D01*
X84281805Y-76062081D02*
X84281805Y-75985890D01*
X83557995Y-76633509D02*
X83519900Y-76671605D01*
X83519900Y-76671605D02*
X83481805Y-76747795D01*
X83481805Y-76747795D02*
X83481805Y-76938271D01*
X83481805Y-76938271D02*
X83519900Y-77014462D01*
X83519900Y-77014462D02*
X83557995Y-77052557D01*
X83557995Y-77052557D02*
X83634186Y-77090652D01*
X83634186Y-77090652D02*
X83710376Y-77090652D01*
X83710376Y-77090652D02*
X83824662Y-77052557D01*
X83824662Y-77052557D02*
X84281805Y-76595414D01*
X84281805Y-76595414D02*
X84281805Y-77090652D01*
X83977043Y-77433510D02*
X83977043Y-78043034D01*
X84281805Y-78881129D02*
X83900852Y-78614462D01*
X84281805Y-78423986D02*
X83481805Y-78423986D01*
X83481805Y-78423986D02*
X83481805Y-78728748D01*
X83481805Y-78728748D02*
X83519900Y-78804938D01*
X83519900Y-78804938D02*
X83557995Y-78843033D01*
X83557995Y-78843033D02*
X83634186Y-78881129D01*
X83634186Y-78881129D02*
X83748471Y-78881129D01*
X83748471Y-78881129D02*
X83824662Y-78843033D01*
X83824662Y-78843033D02*
X83862757Y-78804938D01*
X83862757Y-78804938D02*
X83900852Y-78728748D01*
X83900852Y-78728748D02*
X83900852Y-78423986D01*
X84281805Y-79643033D02*
X84281805Y-79185890D01*
X84281805Y-79414462D02*
X83481805Y-79414462D01*
X83481805Y-79414462D02*
X83596090Y-79338271D01*
X83596090Y-79338271D02*
X83672281Y-79262081D01*
X83672281Y-79262081D02*
X83710376Y-79185890D01*
X79505224Y-43663145D02*
X79505224Y-44234573D01*
X79505224Y-44234573D02*
X79543319Y-44348859D01*
X79543319Y-44348859D02*
X79619510Y-44425050D01*
X79619510Y-44425050D02*
X79733795Y-44463145D01*
X79733795Y-44463145D02*
X79809986Y-44463145D01*
X78705224Y-44463145D02*
X79162367Y-44463145D01*
X78933795Y-44463145D02*
X78933795Y-43663145D01*
X78933795Y-43663145D02*
X79009986Y-43777430D01*
X79009986Y-43777430D02*
X79086176Y-43853621D01*
X79086176Y-43853621D02*
X79162367Y-43891716D01*
X78362366Y-44158383D02*
X77752843Y-44158383D01*
X77409986Y-44234573D02*
X77029033Y-44234573D01*
X77486176Y-44463145D02*
X77219509Y-43663145D01*
X77219509Y-43663145D02*
X76952843Y-44463145D01*
X76267129Y-44463145D02*
X76724272Y-44463145D01*
X76495700Y-44463145D02*
X76495700Y-43663145D01*
X76495700Y-43663145D02*
X76571891Y-43777430D01*
X76571891Y-43777430D02*
X76648081Y-43853621D01*
X76648081Y-43853621D02*
X76724272Y-43891716D01*
D11*
%TO.C,J1-A1*%
X77501030Y-43132550D02*
X77501030Y-38052550D01*
X129061030Y-38052550D02*
X77501030Y-38052550D01*
X129061030Y-43132550D02*
X77501030Y-43132550D01*
X129061030Y-43132550D02*
X129061030Y-38052550D01*
D12*
X77026030Y-41862550D02*
G75*
G02*
X76776030Y-41862550I-125000J0D01*
G01*
X76776030Y-41862550D02*
G75*
G02*
X77026030Y-41862550I125000J0D01*
G01*
%TD*%
M02*
