%TF.GenerationSoftware,KiCad,Pcbnew,9.0.6*%
%TF.CreationDate,2025-12-10T21:10:53-05:00*%
%TF.ProjectId,portiloop,706f7274-696c-46f6-9f70-2e6b69636164,2.3*%
%TF.SameCoordinates,Original*%
%TF.FileFunction,Soldermask,Bot*%
%TF.FilePolarity,Negative*%
%FSLAX46Y46*%
G04 Gerber Fmt 4.6, Leading zero omitted, Abs format (unit mm)*
G04 Created by KiCad (PCBNEW 9.0.6) date 2025-12-10 21:10:53*
%MOMM*%
%LPD*%
G01*
G04 APERTURE LIST*
%ADD10C,0.600000*%
%ADD11C,5.200000*%
%ADD12C,1.500000*%
%ADD13R,1.800000X1.800000*%
%ADD14C,1.800000*%
%ADD15R,1.500000X1.500000*%
%ADD16O,1.500000X1.900000*%
G04 APERTURE END LIST*
D10*
%TO.C,M2*%
X72119520Y-82637510D03*
X72705310Y-81223300D03*
X72705310Y-84051720D03*
X74119520Y-80637510D03*
D11*
X74119520Y-82637510D03*
D10*
X74119520Y-84637510D03*
X75533730Y-81223300D03*
X75533730Y-84051720D03*
X76119520Y-82637510D03*
%TD*%
D12*
%TO.C,TP3*%
X91853520Y-51059510D03*
%TD*%
D13*
%TO.C,JMP1-R1*%
X124097990Y-48364340D03*
D14*
X124097990Y-50904340D03*
%TD*%
D12*
%TO.C,TP1*%
X103156520Y-53737510D03*
%TD*%
D10*
%TO.C,M4*%
X72119520Y-40637510D03*
X72705310Y-39223300D03*
X72705310Y-42051720D03*
X74119520Y-38637510D03*
D11*
X74119520Y-40637510D03*
D10*
X74119520Y-42637510D03*
X75533730Y-39223300D03*
X75533730Y-42051720D03*
X76119520Y-40637510D03*
%TD*%
D13*
%TO.C,JMP2-R1*%
X124097990Y-55364340D03*
D14*
X124097990Y-57904340D03*
%TD*%
D10*
%TO.C,M3*%
X130119520Y-40637510D03*
X130705310Y-39223300D03*
X130705310Y-42051720D03*
X132119520Y-38637510D03*
D11*
X132119520Y-40637510D03*
D10*
X132119520Y-42637510D03*
X133533730Y-39223300D03*
X133533730Y-42051720D03*
X134119520Y-40637510D03*
%TD*%
%TO.C,M1*%
X130119520Y-82637510D03*
X130705310Y-81223300D03*
X130705310Y-84051720D03*
X132119520Y-80637510D03*
D11*
X132119520Y-82637510D03*
D10*
X132119520Y-84637510D03*
X133533730Y-81223300D03*
X133533730Y-84051720D03*
X134119520Y-82637510D03*
%TD*%
D13*
%TO.C,JMP3-R1*%
X124097990Y-62364340D03*
D14*
X124097990Y-64904340D03*
%TD*%
D13*
%TO.C,J2-R1*%
X81937990Y-78064340D03*
D14*
X81937990Y-75524340D03*
X81937990Y-72984340D03*
X81937990Y-70444340D03*
X81937990Y-67904340D03*
X81937990Y-65364340D03*
X81937990Y-62824340D03*
X81937990Y-60284340D03*
X81937990Y-57744340D03*
X81937990Y-55204340D03*
%TD*%
D12*
%TO.C,TP2*%
X111157520Y-62616510D03*
%TD*%
D15*
%TO.C,J1-A1*%
X79151030Y-41862550D03*
D14*
X79151030Y-39322550D03*
D12*
X81691030Y-41862550D03*
D14*
X81691030Y-39322550D03*
D12*
X84231030Y-41862550D03*
D14*
X84231030Y-39322550D03*
X86771030Y-41862550D03*
D12*
X86771030Y-39322550D03*
D14*
X89311030Y-41862550D03*
D12*
X89311030Y-39322550D03*
D14*
X91851030Y-41862550D03*
D12*
X91851030Y-39322550D03*
D14*
X94391030Y-41862550D03*
X94391030Y-39322550D03*
D12*
X96931030Y-41862550D03*
X96931030Y-39322550D03*
X99471030Y-41862550D03*
X99471030Y-39322550D03*
D14*
X102011030Y-41862550D03*
X102011030Y-39322550D03*
X104551030Y-41862550D03*
D12*
X104551030Y-39322550D03*
D16*
X107091030Y-41862550D03*
D14*
X107091030Y-39322550D03*
D16*
X109631030Y-41862550D03*
D12*
X109631030Y-39322550D03*
X112171030Y-41862550D03*
X112171030Y-39322550D03*
D14*
X114711030Y-41862550D03*
X114711030Y-39322550D03*
X117251030Y-41862550D03*
D12*
X117251030Y-39322550D03*
D14*
X119791030Y-41862550D03*
X119791030Y-39322550D03*
X122331030Y-41862550D03*
D12*
X122331030Y-39322550D03*
D14*
X124871030Y-41862550D03*
D12*
X124871030Y-39322550D03*
D14*
X127411030Y-41862550D03*
D12*
X127411030Y-39322550D03*
%TD*%
M02*
