%TF.GenerationSoftware,KiCad,Pcbnew,9.0.6*%
%TF.CreationDate,2025-12-10T21:10:52-05:00*%
%TF.ProjectId,portiloop,706f7274-696c-46f6-9f70-2e6b69636164,2.3*%
%TF.SameCoordinates,Original*%
%TF.FileFunction,Copper,L2,Bot*%
%TF.FilePolarity,Positive*%
%FSLAX46Y46*%
G04 Gerber Fmt 4.6, Leading zero omitted, Abs format (unit mm)*
G04 Created by KiCad (PCBNEW 9.0.6) date 2025-12-10 21:10:52*
%MOMM*%
%LPD*%
G01*
G04 APERTURE LIST*
%TA.AperFunction,ComponentPad*%
%ADD10C,0.600000*%
%TD*%
%TA.AperFunction,ComponentPad*%
%ADD11C,5.000000*%
%TD*%
%TA.AperFunction,ComponentPad*%
%ADD12C,1.500000*%
%TD*%
%TA.AperFunction,ComponentPad*%
%ADD13R,1.800000X1.800000*%
%TD*%
%TA.AperFunction,ComponentPad*%
%ADD14C,1.800000*%
%TD*%
%TA.AperFunction,ComponentPad*%
%ADD15R,1.500000X1.500000*%
%TD*%
%TA.AperFunction,ComponentPad*%
%ADD16O,1.500000X1.900000*%
%TD*%
%TA.AperFunction,ViaPad*%
%ADD17C,0.900000*%
%TD*%
%TA.AperFunction,Conductor*%
%ADD18C,0.300000*%
%TD*%
%TA.AperFunction,Conductor*%
%ADD19C,0.200000*%
%TD*%
%TA.AperFunction,Conductor*%
%ADD20C,0.400000*%
%TD*%
G04 APERTURE END LIST*
D10*
%TO.P,M2,S,S*%
%TO.N,unconnected-(M2-PadS)_1*%
X72119520Y-82637510D03*
%TO.N,unconnected-(M2-PadS)_3*%
X72705310Y-81223300D03*
%TO.N,unconnected-(M2-PadS)_6*%
X72705310Y-84051720D03*
%TO.N,unconnected-(M2-PadS)_4*%
X74119520Y-80637510D03*
D11*
%TO.N,unconnected-(M2-PadS)_2*%
X74119520Y-82637510D03*
D10*
%TO.N,unconnected-(M2-PadS)*%
X74119520Y-84637510D03*
%TO.N,unconnected-(M2-PadS)_7*%
X75533730Y-81223300D03*
%TO.N,unconnected-(M2-PadS)_8*%
X75533730Y-84051720D03*
%TO.N,unconnected-(M2-PadS)_5*%
X76119520Y-82637510D03*
%TD*%
D12*
%TO.P,TP3,1,T*%
%TO.N,+2V5*%
X91853520Y-51059510D03*
%TD*%
D13*
%TO.P,JMP1-R1,1,1*%
%TO.N,GND*%
X124097990Y-48364340D03*
D14*
%TO.P,JMP1-R1,2,2*%
%TO.N,/GPIO25{slash}PWM_B*%
X124097990Y-50904340D03*
%TD*%
D12*
%TO.P,TP1,1,T*%
%TO.N,-2V5*%
X103156520Y-53737510D03*
%TD*%
D10*
%TO.P,M4,S,S*%
%TO.N,unconnected-(M4-PadS)*%
X72119520Y-40637510D03*
%TO.N,unconnected-(M4-PadS)_3*%
X72705310Y-39223300D03*
%TO.N,unconnected-(M4-PadS)_6*%
X72705310Y-42051720D03*
%TO.N,unconnected-(M4-PadS)_7*%
X74119520Y-38637510D03*
D11*
%TO.N,unconnected-(M4-PadS)_8*%
X74119520Y-40637510D03*
D10*
%TO.N,unconnected-(M4-PadS)_2*%
X74119520Y-42637510D03*
%TO.N,unconnected-(M4-PadS)_5*%
X75533730Y-39223300D03*
%TO.N,unconnected-(M4-PadS)_4*%
X75533730Y-42051720D03*
%TO.N,unconnected-(M4-PadS)_1*%
X76119520Y-40637510D03*
%TD*%
D13*
%TO.P,JMP2-R1,1,1*%
%TO.N,GND*%
X124097990Y-55364340D03*
D14*
%TO.P,JMP2-R1,2,2*%
%TO.N,/GPIO64{slash}UART1_RX*%
X124097990Y-57904340D03*
%TD*%
D10*
%TO.P,M3,S,S*%
%TO.N,unconnected-(M3-PadS)_4*%
X130119520Y-40637510D03*
%TO.N,unconnected-(M3-PadS)*%
X130705310Y-39223300D03*
%TO.N,unconnected-(M3-PadS)_7*%
X130705310Y-42051720D03*
%TO.N,unconnected-(M3-PadS)_6*%
X132119520Y-38637510D03*
D11*
%TO.N,unconnected-(M3-PadS)_3*%
X132119520Y-40637510D03*
D10*
%TO.N,unconnected-(M3-PadS)_1*%
X132119520Y-42637510D03*
%TO.N,unconnected-(M3-PadS)_8*%
X133533730Y-39223300D03*
%TO.N,unconnected-(M3-PadS)_5*%
X133533730Y-42051720D03*
%TO.N,unconnected-(M3-PadS)_2*%
X134119520Y-40637510D03*
%TD*%
%TO.P,M1,S,S*%
%TO.N,unconnected-(M1-PadS)_3*%
X130119520Y-82637510D03*
%TO.N,unconnected-(M1-PadS)_5*%
X130705310Y-81223300D03*
%TO.N,unconnected-(M1-PadS)_2*%
X130705310Y-84051720D03*
%TO.N,unconnected-(M1-PadS)_1*%
X132119520Y-80637510D03*
D11*
%TO.N,unconnected-(M1-PadS)_4*%
X132119520Y-82637510D03*
D10*
%TO.N,unconnected-(M1-PadS)*%
X132119520Y-84637510D03*
%TO.N,unconnected-(M1-PadS)_8*%
X133533730Y-81223300D03*
%TO.N,unconnected-(M1-PadS)_6*%
X133533730Y-84051720D03*
%TO.N,unconnected-(M1-PadS)_7*%
X134119520Y-82637510D03*
%TD*%
D13*
%TO.P,JMP3-R1,1,1*%
%TO.N,GND*%
X124097990Y-62364340D03*
D14*
%TO.P,JMP3-R1,2,2*%
%TO.N,/GPIO65{slash}UART1_TX*%
X124097990Y-64904340D03*
%TD*%
D13*
%TO.P,J2-R1,1,1*%
%TO.N,/E1*%
X81937990Y-78064340D03*
D14*
%TO.P,J2-R1,2,2*%
%TO.N,/E2*%
X81937990Y-75524340D03*
%TO.P,J2-R1,3,3*%
%TO.N,/E3*%
X81937990Y-72984340D03*
%TO.P,J2-R1,4,4*%
%TO.N,/E4*%
X81937990Y-70444340D03*
%TO.P,J2-R1,5,5*%
%TO.N,/E5*%
X81937990Y-67904340D03*
%TO.P,J2-R1,6,6*%
%TO.N,/E6*%
X81937990Y-65364340D03*
%TO.P,J2-R1,7,7*%
%TO.N,/E7*%
X81937990Y-62824340D03*
%TO.P,J2-R1,8,8*%
%TO.N,/E8*%
X81937990Y-60284340D03*
%TO.P,J2-R1,9,9*%
%TO.N,/BiasOut*%
X81937990Y-57744340D03*
%TO.P,J2-R1,10,10*%
%TO.N,/Ref*%
X81937990Y-55204340D03*
%TD*%
D12*
%TO.P,TP2,1,T*%
%TO.N,+3.3V*%
X111157520Y-62616510D03*
%TD*%
D15*
%TO.P,J1-A1,1,1*%
%TO.N,unconnected-(J1-A1-Pad1)*%
X79151030Y-41862550D03*
D14*
%TO.P,J1-A1,2,2*%
%TO.N,+5V*%
X79151030Y-39322550D03*
D12*
%TO.P,J1-A1,3,3*%
%TO.N,unconnected-(J1-A1-Pad3)*%
X81691030Y-41862550D03*
D14*
%TO.P,J1-A1,4,4*%
%TO.N,+5V*%
X81691030Y-39322550D03*
D12*
%TO.P,J1-A1,5,5*%
%TO.N,unconnected-(J1-A1-Pad5)*%
X84231030Y-41862550D03*
D14*
%TO.P,J1-A1,6,6*%
%TO.N,GND*%
X84231030Y-39322550D03*
%TO.P,J1-A1,7,7*%
%TO.N,/GPIO22{slash}LED_R*%
X86771030Y-41862550D03*
D12*
%TO.P,J1-A1,8,8*%
%TO.N,unconnected-(J1-A1-Pad8)*%
X86771030Y-39322550D03*
D14*
%TO.P,J1-A1,9,9*%
%TO.N,GND*%
X89311030Y-41862550D03*
D12*
%TO.P,J1-A1,10,10*%
%TO.N,unconnected-(J1-A1-Pad10)*%
X89311030Y-39322550D03*
D14*
%TO.P,J1-A1,11,11*%
%TO.N,/GPIO9{slash}LED_G*%
X91851030Y-41862550D03*
D12*
%TO.P,J1-A1,12,12*%
%TO.N,unconnected-(J1-A1-Pad12)*%
X91851030Y-39322550D03*
D14*
%TO.P,J1-A1,13,13*%
%TO.N,/GPIO10{slash}LED_B*%
X94391030Y-41862550D03*
%TO.P,J1-A1,14,14*%
%TO.N,GND*%
X94391030Y-39322550D03*
D12*
%TO.P,J1-A1,15,15*%
%TO.N,unconnected-(J1-A1-Pad15)*%
X96931030Y-41862550D03*
%TO.P,J1-A1,16,16*%
%TO.N,unconnected-(J1-A1-Pad16)*%
X96931030Y-39322550D03*
%TO.P,J1-A1,17,17*%
%TO.N,unconnected-(J1-A1-Pad17)*%
X99471030Y-41862550D03*
%TO.P,J1-A1,18,18*%
%TO.N,unconnected-(J1-A1-Pad18)*%
X99471030Y-39322550D03*
D14*
%TO.P,J1-A1,19,19*%
%TO.N,/MOSI*%
X102011030Y-41862550D03*
%TO.P,J1-A1,20,20*%
%TO.N,GND*%
X102011030Y-39322550D03*
%TO.P,J1-A1,21,21*%
%TO.N,/MISO*%
X104551030Y-41862550D03*
D12*
%TO.P,J1-A1,22,22*%
%TO.N,unconnected-(J1-A1-Pad22)*%
X104551030Y-39322550D03*
D16*
%TO.P,J1-A1,23,23*%
%TO.N,/SCLK*%
X107091030Y-41862550D03*
D14*
%TO.P,J1-A1,24,24*%
%TO.N,/CS*%
X107091030Y-39322550D03*
D16*
%TO.P,J1-A1,25,25*%
%TO.N,GND*%
X109631030Y-41862550D03*
D12*
%TO.P,J1-A1,26,26*%
%TO.N,unconnected-(J1-A1-Pad26)*%
X109631030Y-39322550D03*
%TO.P,J1-A1,27,27*%
%TO.N,unconnected-(J1-A1-Pad27)*%
X112171030Y-41862550D03*
%TO.P,J1-A1,28,28*%
%TO.N,unconnected-(J1-A1-Pad28)*%
X112171030Y-39322550D03*
D14*
%TO.P,J1-A1,29,29*%
%TO.N,/GPIO65{slash}UART1_TX*%
X114711030Y-41862550D03*
%TO.P,J1-A1,30,30*%
%TO.N,GND*%
X114711030Y-39322550D03*
%TO.P,J1-A1,31,31*%
%TO.N,/GPIO64{slash}UART1_RX*%
X117251030Y-41862550D03*
D12*
%TO.P,J1-A1,32,32*%
%TO.N,unconnected-(J1-A1-Pad32)*%
X117251030Y-39322550D03*
D14*
%TO.P,J1-A1,33,33*%
%TO.N,/GPIO25{slash}PWM_B*%
X119791030Y-41862550D03*
%TO.P,J1-A1,34,34*%
%TO.N,GND*%
X119791030Y-39322550D03*
%TO.P,J1-A1,35,35*%
%TO.N,/GPIO37*%
X122331030Y-41862550D03*
D12*
%TO.P,J1-A1,36,36*%
%TO.N,unconnected-(J1-A1-Pad36)*%
X122331030Y-39322550D03*
D14*
%TO.P,J1-A1,37,37*%
%TO.N,/DRDY*%
X124871030Y-41862550D03*
D12*
%TO.P,J1-A1,38,38*%
%TO.N,unconnected-(J1-A1-Pad38)*%
X124871030Y-39322550D03*
D14*
%TO.P,J1-A1,39,39*%
%TO.N,GND*%
X127411030Y-41862550D03*
D12*
%TO.P,J1-A1,40,40*%
%TO.N,/GPIO39{slash}LEDCTL*%
X127411030Y-39322550D03*
%TD*%
D17*
%TO.N,GND*%
X96000000Y-83700000D03*
X118700000Y-44000000D03*
X106299510Y-64480850D03*
X111601520Y-69666510D03*
X114713520Y-76967510D03*
X102000000Y-83700000D03*
X132000000Y-45500000D03*
X118617990Y-54234340D03*
X119000000Y-78000000D03*
X100419510Y-57300850D03*
X90837520Y-60584510D03*
X102119520Y-69637510D03*
X98119520Y-69637510D03*
X80369510Y-44350850D03*
X98119520Y-73637510D03*
X85701520Y-55766510D03*
X102119520Y-73637510D03*
X119000000Y-83000000D03*
X91091520Y-48773510D03*
X118700000Y-49000000D03*
X106204520Y-58425510D03*
X105696520Y-51440510D03*
X84000000Y-83700000D03*
X115119510Y-63400850D03*
X90000000Y-83700000D03*
X119000000Y-73000000D03*
%TO.N,+2V5*%
X99600520Y-63378510D03*
%TO.N,/CS*%
X111411520Y-73792510D03*
%TO.N,/SCLK*%
X110101520Y-73466510D03*
%TO.N,/DRDY*%
X111501520Y-67748430D03*
%TO.N,/MISO*%
X108684004Y-69816737D03*
%TO.N,/START*%
X110776520Y-75316510D03*
X97949520Y-52964510D03*
%TO.N,Net-(U5A-SRB1)*%
X88299510Y-63825510D03*
X88299510Y-67827510D03*
X88299510Y-69827510D03*
X88299510Y-77827510D03*
X88297520Y-61473510D03*
X88299510Y-71826510D03*
X88299510Y-75827510D03*
X88299510Y-73827510D03*
X88299510Y-65827510D03*
%TO.N,/MOSI*%
X107728520Y-74808510D03*
%TO.N,/LEDGNDCTL*%
X73401520Y-48366510D03*
X88501520Y-83266510D03*
%TO.N,/GPIO39{slash}LEDCTL*%
X91001520Y-81466510D03*
%TD*%
D18*
%TO.N,/CS*%
X107091030Y-39322550D02*
X107091030Y-39656020D01*
X109201520Y-68266510D02*
X110201520Y-69266510D01*
X107091030Y-39656020D02*
X108363520Y-40928510D01*
X108363520Y-40928510D02*
X108363520Y-43678510D01*
X108363520Y-43678510D02*
X109201520Y-44516510D01*
X110201520Y-69266510D02*
X110201520Y-72166510D01*
X109201520Y-44516510D02*
X109201520Y-68266510D01*
X110201520Y-72166510D02*
X111411520Y-73376510D01*
X111411520Y-73376510D02*
X111411520Y-73792510D01*
%TO.N,/MOSI*%
X107728520Y-74808510D02*
X107401520Y-74481510D01*
X107401520Y-74481510D02*
X107401520Y-46866510D01*
X107401520Y-46866510D02*
X102397560Y-41862550D01*
X102397560Y-41862550D02*
X102011030Y-41862550D01*
%TO.N,/SCLK*%
X107091030Y-41862550D02*
X106901520Y-42052060D01*
X106901520Y-43266510D02*
X108601520Y-44966510D01*
X106901520Y-42052060D02*
X106901520Y-43266510D01*
X108601520Y-68516510D02*
X109601520Y-69516510D01*
X108601520Y-44966510D02*
X108601520Y-68516510D01*
X109601520Y-69516510D02*
X109601520Y-72966510D01*
X109601520Y-72966510D02*
X110101520Y-73466510D01*
%TO.N,/MISO*%
X108684004Y-69816737D02*
X108451747Y-69816737D01*
X108451747Y-69816737D02*
X108001520Y-69366510D01*
X104551030Y-42216020D02*
X104551030Y-41862550D01*
X108001520Y-69366510D02*
X108001520Y-45666510D01*
X108001520Y-45666510D02*
X104551030Y-42216020D01*
%TO.N,/DRDY*%
X111501520Y-67748430D02*
X125619600Y-67748430D01*
X125619600Y-67748430D02*
X127001520Y-66366510D01*
X127001520Y-66366510D02*
X127001520Y-45766510D01*
X127001520Y-45766510D02*
X124871030Y-43636020D01*
X124871030Y-43636020D02*
X124871030Y-41862550D01*
%TO.N,/GPIO39{slash}LEDCTL*%
X91001520Y-81466510D02*
X123501520Y-81466510D01*
X123501520Y-81466510D02*
X130401520Y-74566510D01*
X130401520Y-74566510D02*
X130401520Y-44766510D01*
X130401520Y-44766510D02*
X128801520Y-43166510D01*
X128801520Y-43166510D02*
X128801520Y-41266510D01*
X128801520Y-41266510D02*
X127411030Y-39876020D01*
X127411030Y-39876020D02*
X127411030Y-39322550D01*
%TO.N,GND*%
X106204520Y-58425510D02*
X106204520Y-52110870D01*
D19*
X98219510Y-57300850D02*
X95019510Y-54100850D01*
D18*
X105696520Y-51602870D02*
X106204520Y-52110870D01*
D19*
X100419510Y-57300850D02*
X98219510Y-57300850D01*
D18*
X106299510Y-64480850D02*
X106204520Y-64385860D01*
D19*
X95019510Y-50400850D02*
X93392170Y-48773510D01*
X93392170Y-48773510D02*
X91091520Y-48773510D01*
D18*
X106204520Y-64385860D02*
X106204520Y-58425510D01*
D19*
X95019510Y-54100850D02*
X95019510Y-50400850D01*
D18*
X105696520Y-51602870D02*
X105696520Y-51440510D01*
%TO.N,+2V5*%
X91853520Y-55631510D02*
X91853520Y-51059510D01*
X91853520Y-55631510D02*
X99600520Y-63378510D01*
%TO.N,/START*%
X97949520Y-53010860D02*
X97949520Y-52964510D01*
X106601520Y-67866510D02*
X102239510Y-63504500D01*
X110426520Y-75666510D02*
X107201520Y-75666510D01*
X107201520Y-75666510D02*
X106601520Y-75066510D01*
X102239510Y-63504500D02*
X102239510Y-57300850D01*
X110776520Y-75316510D02*
X110426520Y-75666510D01*
X106601520Y-75066510D02*
X106601520Y-67866510D01*
X102239510Y-57300850D02*
X97949520Y-53010860D01*
%TO.N,Net-(U5A-SRB1)*%
X88299510Y-77827510D02*
X88299510Y-75827510D01*
X88298520Y-63824510D02*
X88299510Y-63825510D01*
X88298520Y-63824510D02*
X88298520Y-61474510D01*
X88299510Y-65827510D02*
X88299510Y-63825510D01*
X88299510Y-69827510D02*
X88299510Y-67827510D01*
X88299510Y-75827510D02*
X88299510Y-73827510D01*
X88299510Y-67827510D02*
X88299510Y-65827510D01*
X88297520Y-61473510D02*
X88298520Y-61474510D01*
X88299510Y-73827510D02*
X88299510Y-71826510D01*
X88299510Y-71826510D02*
X88299510Y-69827510D01*
%TO.N,/GPIO25{slash}PWM_B*%
X123956170Y-50907510D02*
X120339510Y-47290850D01*
X120339510Y-47290850D02*
X120339510Y-42411030D01*
X120339510Y-42411030D02*
X119791030Y-41862550D01*
X124119520Y-50907510D02*
X123956170Y-50907510D01*
%TO.N,/GPIO65{slash}UART1_TX*%
X114711030Y-41862550D02*
X115169510Y-42321030D01*
X123928740Y-64716730D02*
X124119520Y-64907510D01*
X115169510Y-59170850D02*
X120715390Y-64716730D01*
X120715390Y-64716730D02*
X123928740Y-64716730D01*
X115169510Y-42321030D02*
X115169510Y-59170850D01*
%TO.N,/GPIO64{slash}UART1_RX*%
X115909510Y-43204070D02*
X115909510Y-49900850D01*
X117251030Y-41862550D02*
X115909510Y-43204070D01*
X123402080Y-57533730D02*
X123775860Y-57907510D01*
X123775860Y-57907510D02*
X124119520Y-57907510D01*
X123402080Y-57393420D02*
X123402080Y-57533730D01*
X115909510Y-49900850D02*
X123402080Y-57393420D01*
D20*
%TO.N,/LEDGNDCTL*%
X88201520Y-83266510D02*
X87101520Y-82166510D01*
X87101520Y-54966510D02*
X80501520Y-48366510D01*
X87101520Y-82166510D02*
X87101520Y-54966510D01*
X80501520Y-48366510D02*
X73401520Y-48366510D01*
X88501520Y-83266510D02*
X88201520Y-83266510D01*
%TD*%
%TA.AperFunction,Conductor*%
%TO.N,GND*%
G36*
X78842683Y-37907732D02*
G01*
X78895391Y-37960440D01*
X78914683Y-38032440D01*
X78895391Y-38104440D01*
X78842683Y-38157148D01*
X78815183Y-38169392D01*
X78690197Y-38210003D01*
X78690196Y-38210003D01*
X78521827Y-38295792D01*
X78521824Y-38295794D01*
X78368958Y-38406857D01*
X78235337Y-38540478D01*
X78124274Y-38693344D01*
X78124272Y-38693347D01*
X78038483Y-38861716D01*
X78038480Y-38861724D01*
X77980090Y-39041431D01*
X77980089Y-39041435D01*
X77950530Y-39228066D01*
X77950530Y-39417033D01*
X77980089Y-39603664D01*
X77980090Y-39603668D01*
X78038480Y-39783375D01*
X78038483Y-39783383D01*
X78124272Y-39951752D01*
X78124274Y-39951755D01*
X78235337Y-40104621D01*
X78368958Y-40238242D01*
X78498942Y-40332680D01*
X78521831Y-40349310D01*
X78690198Y-40435097D01*
X78869912Y-40493490D01*
X79056549Y-40523050D01*
X79056552Y-40523050D01*
X79245508Y-40523050D01*
X79245511Y-40523050D01*
X79432148Y-40493490D01*
X79611862Y-40435097D01*
X79780229Y-40349310D01*
X79912112Y-40253491D01*
X79933101Y-40238242D01*
X80066722Y-40104621D01*
X80159873Y-39976409D01*
X80177790Y-39951749D01*
X80263577Y-39783382D01*
X80284078Y-39720287D01*
X80324675Y-39657772D01*
X80391090Y-39623932D01*
X80465528Y-39627833D01*
X80528043Y-39668430D01*
X80557982Y-39720287D01*
X80578480Y-39783375D01*
X80578483Y-39783383D01*
X80664272Y-39951752D01*
X80664274Y-39951755D01*
X80775337Y-40104621D01*
X80908958Y-40238242D01*
X81038942Y-40332680D01*
X81061831Y-40349310D01*
X81230198Y-40435097D01*
X81409912Y-40493490D01*
X81596549Y-40523050D01*
X81596552Y-40523050D01*
X81785508Y-40523050D01*
X81785511Y-40523050D01*
X81972148Y-40493490D01*
X82151862Y-40435097D01*
X82320229Y-40349310D01*
X82452112Y-40253491D01*
X82473101Y-40238242D01*
X82606722Y-40104621D01*
X82699873Y-39976409D01*
X82717790Y-39951749D01*
X82803577Y-39783382D01*
X82861970Y-39603668D01*
X82891530Y-39417031D01*
X82891530Y-39228069D01*
X82890107Y-39219085D01*
X85720530Y-39219085D01*
X85720530Y-39426014D01*
X85760900Y-39628972D01*
X85840088Y-39820147D01*
X85955054Y-39992207D01*
X86101372Y-40138525D01*
X86273432Y-40253491D01*
X86464607Y-40332679D01*
X86464609Y-40332679D01*
X86464610Y-40332680D01*
X86667565Y-40373050D01*
X86874495Y-40373050D01*
X87077450Y-40332680D01*
X87268628Y-40253491D01*
X87440685Y-40138527D01*
X87587007Y-39992205D01*
X87701971Y-39820148D01*
X87781160Y-39628970D01*
X87821530Y-39426015D01*
X87821530Y-39219085D01*
X88260530Y-39219085D01*
X88260530Y-39426014D01*
X88300900Y-39628972D01*
X88380088Y-39820147D01*
X88495054Y-39992207D01*
X88641372Y-40138525D01*
X88813432Y-40253491D01*
X89004607Y-40332679D01*
X89004609Y-40332679D01*
X89004610Y-40332680D01*
X89207565Y-40373050D01*
X89414495Y-40373050D01*
X89617450Y-40332680D01*
X89808628Y-40253491D01*
X89980685Y-40138527D01*
X90127007Y-39992205D01*
X90241971Y-39820148D01*
X90321160Y-39628970D01*
X90361530Y-39426015D01*
X90361530Y-39219085D01*
X90800530Y-39219085D01*
X90800530Y-39426014D01*
X90840900Y-39628972D01*
X90920088Y-39820147D01*
X91035054Y-39992207D01*
X91181372Y-40138525D01*
X91353432Y-40253491D01*
X91544607Y-40332679D01*
X91544609Y-40332679D01*
X91544610Y-40332680D01*
X91747565Y-40373050D01*
X91954495Y-40373050D01*
X92157450Y-40332680D01*
X92348628Y-40253491D01*
X92520685Y-40138527D01*
X92667007Y-39992205D01*
X92781971Y-39820148D01*
X92861160Y-39628970D01*
X92901530Y-39426015D01*
X92901530Y-39219085D01*
X95880530Y-39219085D01*
X95880530Y-39426014D01*
X95920900Y-39628972D01*
X96000088Y-39820147D01*
X96115054Y-39992207D01*
X96261372Y-40138525D01*
X96433432Y-40253491D01*
X96624607Y-40332679D01*
X96624609Y-40332679D01*
X96624610Y-40332680D01*
X96827565Y-40373050D01*
X97034495Y-40373050D01*
X97237450Y-40332680D01*
X97428628Y-40253491D01*
X97600685Y-40138527D01*
X97747007Y-39992205D01*
X97861971Y-39820148D01*
X97941160Y-39628970D01*
X97981530Y-39426015D01*
X97981530Y-39219085D01*
X98420530Y-39219085D01*
X98420530Y-39426014D01*
X98460900Y-39628972D01*
X98540088Y-39820147D01*
X98655054Y-39992207D01*
X98801372Y-40138525D01*
X98973432Y-40253491D01*
X99164607Y-40332679D01*
X99164609Y-40332679D01*
X99164610Y-40332680D01*
X99367565Y-40373050D01*
X99574495Y-40373050D01*
X99777450Y-40332680D01*
X99968628Y-40253491D01*
X100140685Y-40138527D01*
X100287007Y-39992205D01*
X100401971Y-39820148D01*
X100481160Y-39628970D01*
X100521530Y-39426015D01*
X100521530Y-39219085D01*
X103500530Y-39219085D01*
X103500530Y-39426014D01*
X103540900Y-39628972D01*
X103620088Y-39820147D01*
X103735054Y-39992207D01*
X103881372Y-40138525D01*
X104053432Y-40253491D01*
X104244607Y-40332679D01*
X104244609Y-40332679D01*
X104244610Y-40332680D01*
X104447565Y-40373050D01*
X104654495Y-40373050D01*
X104857450Y-40332680D01*
X105048628Y-40253491D01*
X105220685Y-40138527D01*
X105367007Y-39992205D01*
X105481971Y-39820148D01*
X105561160Y-39628970D01*
X105601530Y-39426015D01*
X105601530Y-39219085D01*
X105561160Y-39016130D01*
X105549229Y-38987327D01*
X105481971Y-38824952D01*
X105367005Y-38652892D01*
X105220687Y-38506574D01*
X105048627Y-38391608D01*
X104857452Y-38312420D01*
X104857453Y-38312420D01*
X104654495Y-38272050D01*
X104447565Y-38272050D01*
X104244607Y-38312420D01*
X104053432Y-38391608D01*
X103881372Y-38506574D01*
X103735054Y-38652892D01*
X103620088Y-38824952D01*
X103540900Y-39016127D01*
X103500530Y-39219085D01*
X100521530Y-39219085D01*
X100481160Y-39016130D01*
X100469229Y-38987327D01*
X100401971Y-38824952D01*
X100287005Y-38652892D01*
X100140687Y-38506574D01*
X99968627Y-38391608D01*
X99777452Y-38312420D01*
X99777453Y-38312420D01*
X99574495Y-38272050D01*
X99367565Y-38272050D01*
X99164607Y-38312420D01*
X98973432Y-38391608D01*
X98801372Y-38506574D01*
X98655054Y-38652892D01*
X98540088Y-38824952D01*
X98460900Y-39016127D01*
X98420530Y-39219085D01*
X97981530Y-39219085D01*
X97941160Y-39016130D01*
X97929229Y-38987327D01*
X97861971Y-38824952D01*
X97747005Y-38652892D01*
X97600687Y-38506574D01*
X97428627Y-38391608D01*
X97237452Y-38312420D01*
X97237453Y-38312420D01*
X97034495Y-38272050D01*
X96827565Y-38272050D01*
X96624607Y-38312420D01*
X96433432Y-38391608D01*
X96261372Y-38506574D01*
X96115054Y-38652892D01*
X96000088Y-38824952D01*
X95920900Y-39016127D01*
X95880530Y-39219085D01*
X92901530Y-39219085D01*
X92861160Y-39016130D01*
X92849229Y-38987327D01*
X92781971Y-38824952D01*
X92667005Y-38652892D01*
X92520687Y-38506574D01*
X92348627Y-38391608D01*
X92157452Y-38312420D01*
X92157453Y-38312420D01*
X91954495Y-38272050D01*
X91747565Y-38272050D01*
X91544607Y-38312420D01*
X91353432Y-38391608D01*
X91181372Y-38506574D01*
X91035054Y-38652892D01*
X90920088Y-38824952D01*
X90840900Y-39016127D01*
X90800530Y-39219085D01*
X90361530Y-39219085D01*
X90321160Y-39016130D01*
X90309229Y-38987327D01*
X90241971Y-38824952D01*
X90127005Y-38652892D01*
X89980687Y-38506574D01*
X89808627Y-38391608D01*
X89617452Y-38312420D01*
X89617453Y-38312420D01*
X89414495Y-38272050D01*
X89207565Y-38272050D01*
X89004607Y-38312420D01*
X88813432Y-38391608D01*
X88641372Y-38506574D01*
X88495054Y-38652892D01*
X88380088Y-38824952D01*
X88300900Y-39016127D01*
X88260530Y-39219085D01*
X87821530Y-39219085D01*
X87781160Y-39016130D01*
X87769229Y-38987327D01*
X87701971Y-38824952D01*
X87587005Y-38652892D01*
X87440687Y-38506574D01*
X87268627Y-38391608D01*
X87077452Y-38312420D01*
X87077453Y-38312420D01*
X86874495Y-38272050D01*
X86667565Y-38272050D01*
X86464607Y-38312420D01*
X86273432Y-38391608D01*
X86101372Y-38506574D01*
X85955054Y-38652892D01*
X85840088Y-38824952D01*
X85760900Y-39016127D01*
X85720530Y-39219085D01*
X82890107Y-39219085D01*
X82861970Y-39041432D01*
X82803577Y-38861718D01*
X82717790Y-38693351D01*
X82671213Y-38629243D01*
X82606722Y-38540478D01*
X82473101Y-38406857D01*
X82320235Y-38295794D01*
X82320232Y-38295792D01*
X82320231Y-38295791D01*
X82320229Y-38295790D01*
X82239316Y-38254563D01*
X82151863Y-38210003D01*
X82151859Y-38210001D01*
X82026876Y-38169392D01*
X81964362Y-38128794D01*
X81930522Y-38062379D01*
X81934423Y-37987941D01*
X81975021Y-37925427D01*
X82041436Y-37891587D01*
X82071366Y-37888440D01*
X106710686Y-37888440D01*
X106782685Y-37907732D01*
X106835393Y-37960440D01*
X106854685Y-38032440D01*
X106835393Y-38104440D01*
X106782685Y-38157148D01*
X106755184Y-38169392D01*
X106630200Y-38210001D01*
X106630196Y-38210003D01*
X106461827Y-38295792D01*
X106461824Y-38295794D01*
X106308958Y-38406857D01*
X106175337Y-38540478D01*
X106064274Y-38693344D01*
X106064272Y-38693347D01*
X105978483Y-38861716D01*
X105978480Y-38861724D01*
X105920090Y-39041431D01*
X105920089Y-39041435D01*
X105890530Y-39228066D01*
X105890530Y-39417033D01*
X105920089Y-39603664D01*
X105920090Y-39603668D01*
X105978480Y-39783375D01*
X105978483Y-39783383D01*
X106064272Y-39951752D01*
X106064274Y-39951755D01*
X106175337Y-40104621D01*
X106308953Y-40238237D01*
X106308956Y-40238239D01*
X106308957Y-40238240D01*
X106421372Y-40319915D01*
X106438915Y-40336090D01*
X106566153Y-40415873D01*
X106574176Y-40420734D01*
X106574805Y-40421102D01*
X106583227Y-40425852D01*
X106645790Y-40459844D01*
X106649634Y-40462259D01*
X106671994Y-40486353D01*
X106695833Y-40508988D01*
X106697159Y-40513469D01*
X106700339Y-40516896D01*
X106707656Y-40548943D01*
X106716984Y-40580464D01*
X106715891Y-40585009D01*
X106716932Y-40589566D01*
X106707246Y-40620976D01*
X106699563Y-40652940D01*
X106696344Y-40656330D01*
X106694967Y-40660796D01*
X106670872Y-40683156D01*
X106648238Y-40706995D01*
X106641471Y-40710441D01*
X106640330Y-40711501D01*
X106638629Y-40711889D01*
X106628141Y-40717232D01*
X106593429Y-40731610D01*
X106421372Y-40846574D01*
X106275054Y-40992892D01*
X106160088Y-41164952D01*
X106080900Y-41356127D01*
X106040530Y-41559085D01*
X106040530Y-41747171D01*
X106033981Y-41771612D01*
X106031702Y-41796816D01*
X106024482Y-41807062D01*
X106021238Y-41819171D01*
X106003343Y-41837065D01*
X105988769Y-41857751D01*
X105977393Y-41863015D01*
X105968530Y-41871879D01*
X105944087Y-41878428D01*
X105921122Y-41889056D01*
X105908636Y-41887927D01*
X105896530Y-41891171D01*
X105872088Y-41884622D01*
X105846885Y-41882343D01*
X105836638Y-41875123D01*
X105824530Y-41871879D01*
X105806635Y-41853984D01*
X105785950Y-41839410D01*
X105781041Y-41828390D01*
X105771822Y-41819171D01*
X105754645Y-41771763D01*
X105754292Y-41769727D01*
X105737879Y-41655663D01*
X105736591Y-41647500D01*
X105736487Y-41646894D01*
X105733624Y-41632338D01*
X105728329Y-41619932D01*
X105725467Y-41603417D01*
X105725527Y-41602749D01*
X105725124Y-41601348D01*
X105721970Y-41581435D01*
X105721970Y-41581432D01*
X105684078Y-41464813D01*
X105663578Y-41401720D01*
X105663576Y-41401716D01*
X105640347Y-41356127D01*
X105577790Y-41233351D01*
X105577785Y-41233344D01*
X105466722Y-41080478D01*
X105333101Y-40946857D01*
X105180235Y-40835794D01*
X105180232Y-40835792D01*
X105180231Y-40835791D01*
X105180229Y-40835790D01*
X105099316Y-40794563D01*
X105011863Y-40750003D01*
X105011855Y-40750000D01*
X104832148Y-40691610D01*
X104832144Y-40691609D01*
X104645513Y-40662050D01*
X104645511Y-40662050D01*
X104456549Y-40662050D01*
X104456546Y-40662050D01*
X104269915Y-40691609D01*
X104269911Y-40691610D01*
X104090204Y-40750000D01*
X104090196Y-40750003D01*
X103921827Y-40835792D01*
X103921824Y-40835794D01*
X103768958Y-40946857D01*
X103635337Y-41080478D01*
X103524274Y-41233344D01*
X103524272Y-41233347D01*
X103438483Y-41401716D01*
X103438483Y-41401717D01*
X103430733Y-41425570D01*
X103390135Y-41488084D01*
X103323719Y-41521924D01*
X103249281Y-41518022D01*
X103186767Y-41477424D01*
X103164654Y-41444806D01*
X103159017Y-41433385D01*
X103152674Y-41421229D01*
X103152169Y-41420312D01*
X103145331Y-41408525D01*
X103026463Y-41213772D01*
X103023247Y-41208620D01*
X103022995Y-41208225D01*
X103022310Y-41207201D01*
X103015664Y-41197262D01*
X103015662Y-41197260D01*
X103010106Y-41191819D01*
X102994366Y-41173584D01*
X102926720Y-41080477D01*
X102926717Y-41080474D01*
X102926711Y-41080467D01*
X102793101Y-40946857D01*
X102640235Y-40835794D01*
X102640232Y-40835792D01*
X102640231Y-40835791D01*
X102640229Y-40835790D01*
X102559316Y-40794563D01*
X102471863Y-40750003D01*
X102471855Y-40750000D01*
X102292148Y-40691610D01*
X102292144Y-40691609D01*
X102105513Y-40662050D01*
X102105511Y-40662050D01*
X101916549Y-40662050D01*
X101916546Y-40662050D01*
X101729915Y-40691609D01*
X101729911Y-40691610D01*
X101550204Y-40750000D01*
X101550196Y-40750003D01*
X101381827Y-40835792D01*
X101381824Y-40835794D01*
X101228958Y-40946857D01*
X101095337Y-41080478D01*
X100984274Y-41233344D01*
X100984272Y-41233347D01*
X100898483Y-41401716D01*
X100898480Y-41401724D01*
X100840090Y-41581431D01*
X100840089Y-41581435D01*
X100810530Y-41768066D01*
X100810530Y-41957033D01*
X100840089Y-42143664D01*
X100840090Y-42143668D01*
X100898480Y-42323375D01*
X100898483Y-42323383D01*
X100932874Y-42390879D01*
X100984268Y-42491746D01*
X100984272Y-42491752D01*
X100984274Y-42491755D01*
X101095337Y-42644621D01*
X101228958Y-42778242D01*
X101367225Y-42878698D01*
X101381831Y-42889310D01*
X101550198Y-42975097D01*
X101729912Y-43033490D01*
X101768415Y-43039588D01*
X101775202Y-43040663D01*
X101796678Y-43045777D01*
X101809578Y-43049918D01*
X102044456Y-43079612D01*
X102066430Y-43081587D01*
X102068110Y-43081677D01*
X102090002Y-43082064D01*
X102322633Y-43077838D01*
X102338076Y-43077166D01*
X102338949Y-43077105D01*
X102339255Y-43077085D01*
X102346885Y-43076366D01*
X102354518Y-43075648D01*
X102550638Y-43052205D01*
X102551630Y-43052091D01*
X102723293Y-43033103D01*
X102739912Y-43032233D01*
X102778134Y-43032446D01*
X102797779Y-43033903D01*
X102815688Y-43036472D01*
X102825678Y-43037905D01*
X102848707Y-43043167D01*
X102874983Y-43051489D01*
X102897074Y-43060562D01*
X102936041Y-43080491D01*
X102954059Y-43091440D01*
X103013909Y-43134104D01*
X103027135Y-43144763D01*
X103116519Y-43225943D01*
X103116523Y-43225945D01*
X103121365Y-43228934D01*
X103147557Y-43249650D01*
X106908843Y-47010936D01*
X106946113Y-47075489D01*
X106951020Y-47112759D01*
X106951020Y-67231260D01*
X106931728Y-67303260D01*
X106879020Y-67355968D01*
X106807020Y-67375260D01*
X106735020Y-67355968D01*
X106705197Y-67333083D01*
X102732187Y-63360073D01*
X102694917Y-63295520D01*
X102690010Y-63258250D01*
X102690010Y-57241542D01*
X102690009Y-57241538D01*
X102686888Y-57229892D01*
X102659309Y-57126964D01*
X102659309Y-57126963D01*
X102599999Y-57024236D01*
X102599996Y-57024233D01*
X102599994Y-57024230D01*
X99304557Y-53728794D01*
X99209808Y-53634045D01*
X102106020Y-53634045D01*
X102106020Y-53840974D01*
X102146390Y-54043932D01*
X102225578Y-54235107D01*
X102340544Y-54407167D01*
X102486862Y-54553485D01*
X102658922Y-54668451D01*
X102850097Y-54747639D01*
X102850099Y-54747639D01*
X102850100Y-54747640D01*
X103053055Y-54788010D01*
X103259985Y-54788010D01*
X103462940Y-54747640D01*
X103654118Y-54668451D01*
X103826175Y-54553487D01*
X103972497Y-54407165D01*
X104087461Y-54235108D01*
X104166650Y-54043930D01*
X104207020Y-53840975D01*
X104207020Y-53634045D01*
X104166650Y-53431090D01*
X104120638Y-53320009D01*
X104087461Y-53239912D01*
X103972495Y-53067852D01*
X103826177Y-52921534D01*
X103654117Y-52806568D01*
X103462942Y-52727380D01*
X103462943Y-52727380D01*
X103259985Y-52687010D01*
X103053055Y-52687010D01*
X102850097Y-52727380D01*
X102658922Y-52806568D01*
X102486862Y-52921534D01*
X102340544Y-53067852D01*
X102225578Y-53239912D01*
X102146390Y-53431087D01*
X102106020Y-53634045D01*
X99209808Y-53634045D01*
X98905084Y-53329321D01*
X98896785Y-53320284D01*
X98889914Y-53312129D01*
X98881391Y-53298300D01*
X98837874Y-53250366D01*
X98836161Y-53248333D01*
X98835796Y-53247556D01*
X98829338Y-53239570D01*
X98821592Y-53228789D01*
X98807536Y-53204555D01*
X98792681Y-53172007D01*
X98782244Y-53139258D01*
X98766419Y-53056483D01*
X98765479Y-53050994D01*
X98754244Y-52976771D01*
X98752000Y-52963829D01*
X98751808Y-52962847D01*
X98748944Y-52949741D01*
X98748941Y-52949726D01*
X98727390Y-52860548D01*
X98721720Y-52840197D01*
X98721233Y-52838657D01*
X98714199Y-52818818D01*
X98674930Y-52719113D01*
X98665887Y-52698428D01*
X98665884Y-52698422D01*
X98665878Y-52698408D01*
X98665146Y-52696890D01*
X98665139Y-52696876D01*
X98654651Y-52677017D01*
X98594625Y-52572818D01*
X98589586Y-52564387D01*
X98589190Y-52563748D01*
X98579925Y-52549678D01*
X98576095Y-52545919D01*
X98557233Y-52523153D01*
X98532468Y-52486090D01*
X98427940Y-52381562D01*
X98427935Y-52381558D01*
X98305019Y-52299428D01*
X98305017Y-52299426D01*
X98168434Y-52242852D01*
X98023438Y-52214010D01*
X97875602Y-52214010D01*
X97730605Y-52242852D01*
X97594022Y-52299426D01*
X97594020Y-52299428D01*
X97471104Y-52381558D01*
X97471099Y-52381562D01*
X97366572Y-52486089D01*
X97366568Y-52486094D01*
X97284438Y-52609010D01*
X97284436Y-52609012D01*
X97227862Y-52745595D01*
X97213297Y-52818818D01*
X97199020Y-52890592D01*
X97199020Y-53038428D01*
X97204873Y-53067852D01*
X97227862Y-53183424D01*
X97284436Y-53320007D01*
X97284438Y-53320009D01*
X97366568Y-53442925D01*
X97366572Y-53442930D01*
X97471100Y-53547458D01*
X97520198Y-53580265D01*
X97536483Y-53592922D01*
X97550832Y-53605827D01*
X97550834Y-53605828D01*
X97550836Y-53605830D01*
X97634971Y-53657142D01*
X97634980Y-53657147D01*
X97647133Y-53664180D01*
X97648061Y-53664689D01*
X97660127Y-53670962D01*
X97742430Y-53711449D01*
X97760424Y-53719590D01*
X97761825Y-53720170D01*
X97780435Y-53727173D01*
X97938912Y-53780997D01*
X97948208Y-53783990D01*
X97948921Y-53784207D01*
X97958243Y-53786883D01*
X97975500Y-53791541D01*
X97977929Y-53792221D01*
X98038678Y-53809843D01*
X98053839Y-53815177D01*
X98083181Y-53827380D01*
X98085129Y-53828190D01*
X98106931Y-53839528D01*
X98142824Y-53862282D01*
X98161018Y-53875945D01*
X98240144Y-53945789D01*
X98240145Y-53945790D01*
X98240148Y-53945792D01*
X98243204Y-53947633D01*
X98270705Y-53969148D01*
X101746833Y-57445276D01*
X101784103Y-57509829D01*
X101789010Y-57547099D01*
X101789010Y-63563811D01*
X101789155Y-63564351D01*
X101803019Y-63616091D01*
X101805846Y-63626640D01*
X101819711Y-63678389D01*
X101879021Y-63781114D01*
X101879025Y-63781119D01*
X106108843Y-68010936D01*
X106146113Y-68075489D01*
X106151020Y-68112759D01*
X106151020Y-75125821D01*
X106174103Y-75211966D01*
X106174104Y-75211969D01*
X106181720Y-75240397D01*
X106241031Y-75343124D01*
X106241035Y-75343129D01*
X106924900Y-76026994D01*
X106924905Y-76026998D01*
X106924906Y-76026999D01*
X107027633Y-76086309D01*
X107037005Y-76088820D01*
X107142211Y-76117010D01*
X109999200Y-76117010D01*
X110026860Y-76119691D01*
X110039148Y-76122097D01*
X110241436Y-76123815D01*
X110246033Y-76123819D01*
X110246338Y-76123817D01*
X110249701Y-76123777D01*
X110520811Y-76119014D01*
X110542318Y-76117877D01*
X110543960Y-76117732D01*
X110565351Y-76115079D01*
X110900603Y-76061441D01*
X110905891Y-76060548D01*
X110906301Y-76060475D01*
X110918619Y-76058019D01*
X110925126Y-76055251D01*
X110953387Y-76046531D01*
X110995433Y-76038168D01*
X111132015Y-75981594D01*
X111254936Y-75899461D01*
X111359471Y-75794926D01*
X111441604Y-75672005D01*
X111498178Y-75535423D01*
X111527020Y-75390428D01*
X111527020Y-75242592D01*
X111498178Y-75097597D01*
X111469111Y-75027423D01*
X111441603Y-74961012D01*
X111441601Y-74961010D01*
X111359471Y-74838094D01*
X111359467Y-74838089D01*
X111310211Y-74788833D01*
X111272941Y-74724280D01*
X111272941Y-74649740D01*
X111310211Y-74585187D01*
X111374764Y-74547917D01*
X111412034Y-74543010D01*
X111485438Y-74543010D01*
X111630433Y-74514168D01*
X111767015Y-74457594D01*
X111767015Y-74457593D01*
X111767017Y-74457593D01*
X111767019Y-74457591D01*
X111889936Y-74375461D01*
X111994471Y-74270926D01*
X112076604Y-74148005D01*
X112133178Y-74011423D01*
X112162020Y-73866428D01*
X112162020Y-73718592D01*
X112133178Y-73573597D01*
X112079980Y-73445165D01*
X112076605Y-73437017D01*
X112076599Y-73437006D01*
X112046077Y-73391328D01*
X112035147Y-73371853D01*
X112027593Y-73355546D01*
X112027591Y-73355543D01*
X112027591Y-73355542D01*
X111941270Y-73234276D01*
X111934029Y-73224521D01*
X111933462Y-73223788D01*
X111925897Y-73214397D01*
X111847456Y-73120865D01*
X111834007Y-73105863D01*
X111832941Y-73104750D01*
X111818562Y-73090693D01*
X111818552Y-73090683D01*
X111680568Y-72964405D01*
X111672846Y-72957574D01*
X111672249Y-72957063D01*
X111664488Y-72950646D01*
X111664478Y-72950638D01*
X111664449Y-72950614D01*
X111633713Y-72926046D01*
X111632265Y-72924873D01*
X111615677Y-72911242D01*
X111529824Y-72840693D01*
X111523013Y-72834726D01*
X111390752Y-72711274D01*
X111389435Y-72710052D01*
X111389433Y-72710050D01*
X111389429Y-72710047D01*
X111383708Y-72706458D01*
X111358413Y-72686300D01*
X110694197Y-72022084D01*
X110656927Y-71957531D01*
X110652020Y-71920261D01*
X110652020Y-69207202D01*
X110652019Y-69207198D01*
X110650540Y-69201680D01*
X110621319Y-69092624D01*
X110612304Y-69077010D01*
X110562010Y-68989897D01*
X109694197Y-68122084D01*
X109656927Y-68057531D01*
X109652020Y-68020261D01*
X109652020Y-67674512D01*
X110751020Y-67674512D01*
X110751020Y-67822347D01*
X110779862Y-67967344D01*
X110836436Y-68103927D01*
X110836438Y-68103929D01*
X110918568Y-68226845D01*
X110918572Y-68226850D01*
X111023099Y-68331377D01*
X111023104Y-68331381D01*
X111146020Y-68413511D01*
X111146022Y-68413513D01*
X111217042Y-68442930D01*
X111282607Y-68470088D01*
X111427602Y-68498930D01*
X111575436Y-68498930D01*
X111575438Y-68498930D01*
X111634502Y-68487180D01*
X111654507Y-68484641D01*
X111674072Y-68483542D01*
X111762834Y-68461729D01*
X111777344Y-68457782D01*
X111778439Y-68457455D01*
X111792519Y-68452876D01*
X111874460Y-68424013D01*
X111895198Y-68415846D01*
X111895204Y-68415843D01*
X111895210Y-68415841D01*
X111896769Y-68415160D01*
X111900192Y-68413513D01*
X111917006Y-68405424D01*
X112055889Y-68332204D01*
X112068630Y-68325093D01*
X112069598Y-68324522D01*
X112082118Y-68316723D01*
X112126429Y-68287613D01*
X112128163Y-68286492D01*
X112147741Y-68274031D01*
X112180827Y-68252972D01*
X112196334Y-68244396D01*
X112220889Y-68232730D01*
X112246812Y-68223339D01*
X112278371Y-68215224D01*
X112303960Y-68211056D01*
X112403766Y-68203930D01*
X112405847Y-68203398D01*
X112441443Y-68198930D01*
X125678908Y-68198930D01*
X125678909Y-68198930D01*
X125773023Y-68173712D01*
X125793487Y-68168229D01*
X125896214Y-68108919D01*
X127362009Y-66643124D01*
X127421319Y-66540397D01*
X127428310Y-66514306D01*
X127452020Y-66425819D01*
X127452020Y-45707201D01*
X127421319Y-45592624D01*
X127421319Y-45592623D01*
X127362010Y-45489896D01*
X125363707Y-43491593D01*
X125354229Y-43475177D01*
X125340822Y-43461770D01*
X125335914Y-43443456D01*
X125326437Y-43427040D01*
X125321530Y-43389770D01*
X125321530Y-43159387D01*
X125340822Y-43087387D01*
X125370813Y-43050922D01*
X125600567Y-42850304D01*
X125610946Y-42840812D01*
X125611728Y-42840063D01*
X125621760Y-42829997D01*
X125735838Y-42710074D01*
X125746872Y-42697829D01*
X125747687Y-42696874D01*
X125757939Y-42684190D01*
X125854408Y-42558098D01*
X125860093Y-42550422D01*
X125860528Y-42549815D01*
X125870037Y-42535735D01*
X125870041Y-42535724D01*
X125873624Y-42528971D01*
X125874172Y-42529261D01*
X125885719Y-42508361D01*
X125897790Y-42491749D01*
X125983577Y-42323382D01*
X126041970Y-42143668D01*
X126071530Y-41957031D01*
X126071530Y-41768069D01*
X126041970Y-41581432D01*
X125983577Y-41401718D01*
X125897790Y-41233351D01*
X125897785Y-41233344D01*
X125786722Y-41080478D01*
X125653101Y-40946857D01*
X125500235Y-40835794D01*
X125500232Y-40835792D01*
X125500231Y-40835791D01*
X125500229Y-40835790D01*
X125419316Y-40794563D01*
X125331863Y-40750003D01*
X125331855Y-40750000D01*
X125152148Y-40691610D01*
X125152144Y-40691609D01*
X124965513Y-40662050D01*
X124965511Y-40662050D01*
X124776549Y-40662050D01*
X124776546Y-40662050D01*
X124589915Y-40691609D01*
X124589911Y-40691610D01*
X124410204Y-40750000D01*
X124410196Y-40750003D01*
X124241827Y-40835792D01*
X124241824Y-40835794D01*
X124088958Y-40946857D01*
X123955337Y-41080478D01*
X123844274Y-41233344D01*
X123844272Y-41233347D01*
X123758483Y-41401716D01*
X123758482Y-41401720D01*
X123737982Y-41464813D01*
X123697385Y-41527327D01*
X123630969Y-41561167D01*
X123556531Y-41557266D01*
X123494017Y-41516669D01*
X123464078Y-41464813D01*
X123451327Y-41425570D01*
X123443577Y-41401718D01*
X123357790Y-41233351D01*
X123357785Y-41233344D01*
X123246722Y-41080478D01*
X123113101Y-40946857D01*
X122960235Y-40835794D01*
X122960232Y-40835792D01*
X122960231Y-40835791D01*
X122960229Y-40835790D01*
X122879316Y-40794563D01*
X122791863Y-40750003D01*
X122791855Y-40750000D01*
X122612148Y-40691610D01*
X122612144Y-40691609D01*
X122425513Y-40662050D01*
X122425511Y-40662050D01*
X122236549Y-40662050D01*
X122236546Y-40662050D01*
X122049915Y-40691609D01*
X122049911Y-40691610D01*
X121870204Y-40750000D01*
X121870196Y-40750003D01*
X121701827Y-40835792D01*
X121701824Y-40835794D01*
X121548958Y-40946857D01*
X121415337Y-41080478D01*
X121304274Y-41233344D01*
X121304272Y-41233347D01*
X121218483Y-41401716D01*
X121218482Y-41401720D01*
X121197982Y-41464813D01*
X121157385Y-41527327D01*
X121090969Y-41561167D01*
X121016531Y-41557266D01*
X120954017Y-41516669D01*
X120924078Y-41464813D01*
X120911327Y-41425570D01*
X120903577Y-41401718D01*
X120817790Y-41233351D01*
X120817785Y-41233344D01*
X120706722Y-41080478D01*
X120573101Y-40946857D01*
X120420235Y-40835794D01*
X120420232Y-40835792D01*
X120420231Y-40835791D01*
X120420229Y-40835790D01*
X120339316Y-40794563D01*
X120251863Y-40750003D01*
X120251855Y-40750000D01*
X120072148Y-40691610D01*
X120072144Y-40691609D01*
X119885513Y-40662050D01*
X119885511Y-40662050D01*
X119696549Y-40662050D01*
X119696546Y-40662050D01*
X119509915Y-40691609D01*
X119509911Y-40691610D01*
X119330204Y-40750000D01*
X119330196Y-40750003D01*
X119161827Y-40835792D01*
X119161824Y-40835794D01*
X119008958Y-40946857D01*
X118875337Y-41080478D01*
X118764274Y-41233344D01*
X118764272Y-41233347D01*
X118678483Y-41401716D01*
X118678482Y-41401720D01*
X118657982Y-41464813D01*
X118617385Y-41527327D01*
X118550969Y-41561167D01*
X118476531Y-41557266D01*
X118414017Y-41516669D01*
X118384078Y-41464813D01*
X118371327Y-41425570D01*
X118363577Y-41401718D01*
X118277790Y-41233351D01*
X118277785Y-41233344D01*
X118166722Y-41080478D01*
X118033101Y-40946857D01*
X117880235Y-40835794D01*
X117880232Y-40835792D01*
X117880231Y-40835791D01*
X117880229Y-40835790D01*
X117799316Y-40794563D01*
X117711863Y-40750003D01*
X117711855Y-40750000D01*
X117532148Y-40691610D01*
X117532144Y-40691609D01*
X117345513Y-40662050D01*
X117345511Y-40662050D01*
X117156549Y-40662050D01*
X117156546Y-40662050D01*
X116969915Y-40691609D01*
X116969911Y-40691610D01*
X116790204Y-40750000D01*
X116790196Y-40750003D01*
X116621827Y-40835792D01*
X116621824Y-40835794D01*
X116468958Y-40946857D01*
X116335337Y-41080478D01*
X116224274Y-41233344D01*
X116224272Y-41233347D01*
X116138483Y-41401716D01*
X116138482Y-41401720D01*
X116117982Y-41464813D01*
X116077385Y-41527327D01*
X116010969Y-41561167D01*
X115936531Y-41557266D01*
X115874017Y-41516669D01*
X115844078Y-41464813D01*
X115831327Y-41425570D01*
X115823577Y-41401718D01*
X115737790Y-41233351D01*
X115737785Y-41233344D01*
X115626722Y-41080478D01*
X115493101Y-40946857D01*
X115340235Y-40835794D01*
X115340232Y-40835792D01*
X115340231Y-40835791D01*
X115340229Y-40835790D01*
X115259316Y-40794563D01*
X115171863Y-40750003D01*
X115171855Y-40750000D01*
X114992148Y-40691610D01*
X114992144Y-40691609D01*
X114805513Y-40662050D01*
X114805511Y-40662050D01*
X114616549Y-40662050D01*
X114616546Y-40662050D01*
X114429915Y-40691609D01*
X114429911Y-40691610D01*
X114250204Y-40750000D01*
X114250196Y-40750003D01*
X114081827Y-40835792D01*
X114081824Y-40835794D01*
X113928958Y-40946857D01*
X113795337Y-41080478D01*
X113684274Y-41233344D01*
X113684272Y-41233347D01*
X113598483Y-41401716D01*
X113598480Y-41401724D01*
X113540090Y-41581431D01*
X113540089Y-41581435D01*
X113510530Y-41768066D01*
X113510530Y-41957033D01*
X113540089Y-42143664D01*
X113540090Y-42143668D01*
X113598480Y-42323375D01*
X113598486Y-42323388D01*
X113684268Y-42491746D01*
X113684272Y-42491752D01*
X113714256Y-42533023D01*
X113720200Y-42541204D01*
X113731731Y-42562918D01*
X113779731Y-42623141D01*
X113781623Y-42625745D01*
X113781631Y-42625756D01*
X113786870Y-42632966D01*
X113795340Y-42644623D01*
X113795347Y-42644630D01*
X113797057Y-42646340D01*
X113807839Y-42658405D01*
X113858794Y-42722335D01*
X113858801Y-42722343D01*
X113858805Y-42722348D01*
X113876287Y-42742420D01*
X113877700Y-42743906D01*
X113897049Y-42762543D01*
X114048072Y-42895723D01*
X114048080Y-42895729D01*
X114048084Y-42895733D01*
X114067132Y-42911216D01*
X114068633Y-42912339D01*
X114088758Y-42926176D01*
X114266476Y-43038182D01*
X114277696Y-43044922D01*
X114278572Y-43045423D01*
X114290228Y-43051758D01*
X114415854Y-43116536D01*
X114418109Y-43117726D01*
X114569561Y-43199425D01*
X114584887Y-43208980D01*
X114611671Y-43228114D01*
X114628747Y-43242434D01*
X114636110Y-43249650D01*
X114640313Y-43253769D01*
X114658348Y-43275275D01*
X114663194Y-43282355D01*
X114677308Y-43308355D01*
X114685588Y-43328248D01*
X114693501Y-43353665D01*
X114696755Y-43368985D01*
X114704447Y-43405199D01*
X114707328Y-43426450D01*
X114713900Y-43535465D01*
X114714830Y-43539238D01*
X114719010Y-43573681D01*
X114719010Y-59230161D01*
X114743223Y-59320523D01*
X114743224Y-59320526D01*
X114749710Y-59344736D01*
X114809021Y-59447464D01*
X114809025Y-59447469D01*
X117624718Y-62263162D01*
X120438776Y-65077220D01*
X120492318Y-65108132D01*
X120541505Y-65136530D01*
X120557145Y-65140721D01*
X120557151Y-65140721D01*
X120557152Y-65140722D01*
X120656081Y-65167230D01*
X122281682Y-65167230D01*
X122290617Y-65167507D01*
X122301967Y-65168212D01*
X122320880Y-65172437D01*
X122432964Y-65176356D01*
X122434883Y-65176476D01*
X122435312Y-65176620D01*
X122442982Y-65177210D01*
X122522383Y-65186673D01*
X122536379Y-65189046D01*
X122586664Y-65200151D01*
X122601908Y-65204408D01*
X122624498Y-65212081D01*
X122647630Y-65222283D01*
X122708664Y-65255890D01*
X122733878Y-65273528D01*
X122808361Y-65338526D01*
X122819138Y-65348970D01*
X122877736Y-65412023D01*
X122903328Y-65439561D01*
X122905324Y-65441687D01*
X122905355Y-65441720D01*
X122905428Y-65441797D01*
X122906859Y-65443296D01*
X123098649Y-65642866D01*
X123108328Y-65652497D01*
X123109071Y-65653204D01*
X123114540Y-65658179D01*
X123119223Y-65662439D01*
X123119234Y-65662448D01*
X123119240Y-65662454D01*
X123243459Y-65770434D01*
X123243463Y-65770437D01*
X123253150Y-65778512D01*
X123253921Y-65779128D01*
X123264244Y-65787025D01*
X123407761Y-65892029D01*
X123413327Y-65896006D01*
X123413357Y-65896027D01*
X123413360Y-65896029D01*
X123413760Y-65896308D01*
X123413791Y-65896328D01*
X123413803Y-65896337D01*
X123419139Y-65899894D01*
X123424482Y-65903456D01*
X123424492Y-65903460D01*
X123431052Y-65906918D01*
X123430825Y-65907347D01*
X123452905Y-65919558D01*
X123468791Y-65931100D01*
X123637158Y-66016887D01*
X123816872Y-66075280D01*
X124003509Y-66104840D01*
X124003512Y-66104840D01*
X124192468Y-66104840D01*
X124192471Y-66104840D01*
X124379108Y-66075280D01*
X124558822Y-66016887D01*
X124727189Y-65931100D01*
X124809665Y-65871176D01*
X124880061Y-65820032D01*
X125013682Y-65686411D01*
X125101024Y-65566195D01*
X125124750Y-65533539D01*
X125210537Y-65365172D01*
X125268930Y-65185458D01*
X125298490Y-64998821D01*
X125298490Y-64809859D01*
X125268930Y-64623222D01*
X125210537Y-64443508D01*
X125124750Y-64275141D01*
X125122493Y-64272034D01*
X125013682Y-64122268D01*
X124880061Y-63988647D01*
X124727195Y-63877584D01*
X124727192Y-63877582D01*
X124727191Y-63877581D01*
X124727189Y-63877580D01*
X124646276Y-63836353D01*
X124558823Y-63791793D01*
X124558815Y-63791790D01*
X124379108Y-63733400D01*
X124379104Y-63733399D01*
X124192473Y-63703840D01*
X124192471Y-63703840D01*
X124003509Y-63703840D01*
X124003504Y-63703840D01*
X123873943Y-63724360D01*
X123857451Y-63726007D01*
X123842013Y-63726654D01*
X123784008Y-63740032D01*
X123701889Y-63758971D01*
X123701871Y-63758975D01*
X123701860Y-63758978D01*
X123691902Y-63761451D01*
X123691242Y-63761627D01*
X123681954Y-63764259D01*
X123550933Y-63803626D01*
X123550915Y-63803632D01*
X123537730Y-63807969D01*
X123535875Y-63808579D01*
X123534804Y-63808962D01*
X123520150Y-63814634D01*
X123294098Y-63908874D01*
X123276667Y-63916789D01*
X123275380Y-63917423D01*
X123258283Y-63926523D01*
X123033990Y-64055180D01*
X123030995Y-64056920D01*
X122894226Y-64137453D01*
X122879227Y-64145140D01*
X122752086Y-64201164D01*
X122734298Y-64207642D01*
X122677467Y-64224199D01*
X122664532Y-64227327D01*
X122583065Y-64243083D01*
X122570952Y-64244895D01*
X122562063Y-64245840D01*
X122552946Y-64246810D01*
X122552945Y-64246809D01*
X122552904Y-64246814D01*
X122466788Y-64255973D01*
X122456181Y-64256707D01*
X122321836Y-64261021D01*
X122319615Y-64261101D01*
X122312892Y-64262633D01*
X122280909Y-64266230D01*
X120961640Y-64266230D01*
X120889640Y-64246938D01*
X120859817Y-64224053D01*
X115662187Y-59026423D01*
X115624917Y-58961870D01*
X115620010Y-58924600D01*
X115620010Y-50596099D01*
X115639302Y-50524099D01*
X115692010Y-50471391D01*
X115764010Y-50452099D01*
X115836010Y-50471391D01*
X115865833Y-50494276D01*
X122399591Y-57028034D01*
X122405335Y-57034121D01*
X122412966Y-57042695D01*
X122423694Y-57059500D01*
X122507781Y-57149228D01*
X122508998Y-57150595D01*
X122509159Y-57150916D01*
X122513476Y-57155877D01*
X122573228Y-57229892D01*
X122580382Y-57239553D01*
X122622144Y-57301167D01*
X122628939Y-57312235D01*
X122653501Y-57356619D01*
X122661891Y-57374605D01*
X122706713Y-57491022D01*
X122713077Y-57512330D01*
X122754530Y-57704053D01*
X122755107Y-57706856D01*
X122785641Y-57863047D01*
X122788169Y-57874757D01*
X122788308Y-57875342D01*
X122788377Y-57875634D01*
X122791413Y-57887419D01*
X122840051Y-58061764D01*
X122845735Y-58079934D01*
X122846195Y-58081258D01*
X122852994Y-58099028D01*
X122935049Y-58294995D01*
X122943518Y-58313472D01*
X122944200Y-58314837D01*
X122953806Y-58332587D01*
X123068574Y-58528858D01*
X123068575Y-58528861D01*
X123070684Y-58532468D01*
X123071230Y-58533539D01*
X123071643Y-58534109D01*
X123073754Y-58537718D01*
X123073755Y-58537720D01*
X123079652Y-58547804D01*
X123079680Y-58547850D01*
X123084340Y-58555555D01*
X123084705Y-58556139D01*
X123084715Y-58556154D01*
X123093549Y-58569498D01*
X123093553Y-58569503D01*
X123098101Y-58573956D01*
X123113848Y-58592199D01*
X123182297Y-58686411D01*
X123315918Y-58820032D01*
X123468784Y-58931095D01*
X123468791Y-58931100D01*
X123637158Y-59016887D01*
X123816872Y-59075280D01*
X124003509Y-59104840D01*
X124003512Y-59104840D01*
X124192468Y-59104840D01*
X124192471Y-59104840D01*
X124379108Y-59075280D01*
X124558822Y-59016887D01*
X124727189Y-58931100D01*
X124829334Y-58856887D01*
X124880061Y-58820032D01*
X125013682Y-58686411D01*
X125082131Y-58592199D01*
X125124750Y-58533539D01*
X125210537Y-58365172D01*
X125268930Y-58185458D01*
X125298490Y-57998821D01*
X125298490Y-57809859D01*
X125268930Y-57623222D01*
X125214600Y-57456014D01*
X125210539Y-57443514D01*
X125210536Y-57443506D01*
X125175429Y-57374605D01*
X125124750Y-57275141D01*
X125098894Y-57239553D01*
X125013682Y-57122268D01*
X124880061Y-56988647D01*
X124727195Y-56877584D01*
X124727192Y-56877582D01*
X124727191Y-56877581D01*
X124727189Y-56877580D01*
X124631152Y-56828647D01*
X124558823Y-56791793D01*
X124558815Y-56791790D01*
X124379108Y-56733400D01*
X124379109Y-56733400D01*
X124338577Y-56726980D01*
X124315288Y-56721269D01*
X124303665Y-56717368D01*
X124303657Y-56717366D01*
X124027915Y-56678773D01*
X124011369Y-56676915D01*
X124010119Y-56676809D01*
X123993596Y-56675859D01*
X123697919Y-56666891D01*
X123697919Y-56666890D01*
X123692283Y-56666720D01*
X123692172Y-56666717D01*
X123691209Y-56666687D01*
X123690852Y-56666684D01*
X123508026Y-56661997D01*
X123492965Y-56660818D01*
X123447052Y-56654788D01*
X123429814Y-56651444D01*
X123391649Y-56641593D01*
X123372283Y-56635098D01*
X123332855Y-56618680D01*
X123314966Y-56609726D01*
X123266939Y-56581353D01*
X123262184Y-56578544D01*
X123247940Y-56568937D01*
X123189546Y-56524261D01*
X123175284Y-56513349D01*
X123164902Y-56504599D01*
X123067047Y-56413909D01*
X123066006Y-56412948D01*
X123060462Y-56409484D01*
X123034956Y-56389193D01*
X116402187Y-49756424D01*
X116364917Y-49691871D01*
X116360010Y-49654601D01*
X116360010Y-43462614D01*
X116365438Y-43442355D01*
X116366036Y-43421394D01*
X116374918Y-43406975D01*
X116379302Y-43390614D01*
X116405129Y-43357931D01*
X116421374Y-43342587D01*
X116429316Y-43335621D01*
X116513958Y-43266724D01*
X116524480Y-43258929D01*
X116578973Y-43222283D01*
X116591566Y-43214719D01*
X116625323Y-43196725D01*
X116646490Y-43187540D01*
X116740891Y-43155296D01*
X116764931Y-43149337D01*
X116927169Y-43123679D01*
X116934023Y-43122765D01*
X116995259Y-43116108D01*
X116997848Y-43115816D01*
X117205395Y-43091458D01*
X117212536Y-43090534D01*
X117213095Y-43090455D01*
X117220561Y-43089306D01*
X117464931Y-43048584D01*
X117469819Y-43047728D01*
X117470168Y-43047664D01*
X117481294Y-43045410D01*
X117481299Y-43045407D01*
X117488294Y-43043232D01*
X117488420Y-43043637D01*
X117513303Y-43036474D01*
X117532148Y-43033490D01*
X117711862Y-42975097D01*
X117880229Y-42889310D01*
X117962705Y-42829386D01*
X118033101Y-42778242D01*
X118166722Y-42644621D01*
X118241860Y-42541202D01*
X118277790Y-42491749D01*
X118363577Y-42323382D01*
X118384078Y-42260287D01*
X118424675Y-42197772D01*
X118491090Y-42163932D01*
X118565528Y-42167833D01*
X118628043Y-42208430D01*
X118657982Y-42260287D01*
X118678480Y-42323375D01*
X118678483Y-42323383D01*
X118712874Y-42390879D01*
X118764268Y-42491746D01*
X118764272Y-42491752D01*
X118764274Y-42491755D01*
X118875337Y-42644621D01*
X119008947Y-42778231D01*
X119008954Y-42778237D01*
X119008957Y-42778240D01*
X119136173Y-42870668D01*
X119148922Y-42881603D01*
X119160178Y-42888109D01*
X119161822Y-42889304D01*
X119161824Y-42889305D01*
X119161831Y-42889310D01*
X119161835Y-42889312D01*
X119161994Y-42889393D01*
X119168684Y-42893026D01*
X119331668Y-42987246D01*
X119356235Y-43001448D01*
X119369400Y-43008634D01*
X119370381Y-43009138D01*
X119370422Y-43009159D01*
X119383774Y-43015620D01*
X119594541Y-43111372D01*
X119595401Y-43111767D01*
X119760614Y-43188392D01*
X119776605Y-43197077D01*
X119800815Y-43212285D01*
X119819802Y-43226522D01*
X119820389Y-43227043D01*
X119857175Y-43278059D01*
X119858135Y-43280301D01*
X119866648Y-43307209D01*
X119875181Y-43347587D01*
X119878049Y-43368985D01*
X119883884Y-43469148D01*
X119883886Y-43469161D01*
X119884882Y-43473228D01*
X119889010Y-43507459D01*
X119889010Y-47350161D01*
X119913223Y-47440523D01*
X119913224Y-47440526D01*
X119919710Y-47464736D01*
X119979021Y-47567464D01*
X119979025Y-47567469D01*
X122419438Y-50007882D01*
X122425303Y-50014106D01*
X122432901Y-50022665D01*
X122443522Y-50039330D01*
X122524959Y-50126364D01*
X122526221Y-50127786D01*
X122526387Y-50128119D01*
X122530791Y-50133195D01*
X122588273Y-50204742D01*
X122595533Y-50214611D01*
X122635547Y-50274152D01*
X122642413Y-50285458D01*
X122665447Y-50327639D01*
X122673897Y-50346100D01*
X122715267Y-50456440D01*
X122721811Y-50479641D01*
X122761263Y-50683551D01*
X122761887Y-50687001D01*
X122788588Y-50845630D01*
X122791001Y-50858315D01*
X122791214Y-50859319D01*
X122793997Y-50871209D01*
X122794092Y-50871614D01*
X122815708Y-50956045D01*
X122839559Y-51049206D01*
X122845241Y-51068679D01*
X122845725Y-51070154D01*
X122852685Y-51089205D01*
X122932986Y-51288244D01*
X122941763Y-51307961D01*
X122942499Y-51309469D01*
X122952688Y-51328587D01*
X122973887Y-51365173D01*
X123069681Y-51530498D01*
X123071230Y-51533539D01*
X123072279Y-51534983D01*
X123079088Y-51546734D01*
X123082356Y-51552178D01*
X123083980Y-51554883D01*
X123084375Y-51555518D01*
X123093590Y-51569470D01*
X123093592Y-51569473D01*
X123093595Y-51569476D01*
X123093596Y-51569477D01*
X123097939Y-51573731D01*
X123113678Y-51591965D01*
X123151145Y-51643532D01*
X123182300Y-51686413D01*
X123182303Y-51686416D01*
X123182309Y-51686423D01*
X123315918Y-51820032D01*
X123468784Y-51931095D01*
X123468791Y-51931100D01*
X123637158Y-52016887D01*
X123816872Y-52075280D01*
X124003509Y-52104840D01*
X124003512Y-52104840D01*
X124192468Y-52104840D01*
X124192471Y-52104840D01*
X124379108Y-52075280D01*
X124558822Y-52016887D01*
X124727189Y-51931100D01*
X124809665Y-51871176D01*
X124880061Y-51820032D01*
X125013682Y-51686411D01*
X125089404Y-51582188D01*
X125124750Y-51533539D01*
X125210537Y-51365172D01*
X125268930Y-51185458D01*
X125298490Y-50998821D01*
X125298490Y-50809859D01*
X125268930Y-50623222D01*
X125210537Y-50443508D01*
X125124750Y-50275141D01*
X125124745Y-50275134D01*
X125013682Y-50122268D01*
X124880061Y-49988647D01*
X124727195Y-49877584D01*
X124727192Y-49877582D01*
X124727191Y-49877581D01*
X124727189Y-49877580D01*
X124646276Y-49836353D01*
X124558823Y-49791793D01*
X124558815Y-49791790D01*
X124379108Y-49733400D01*
X124379109Y-49733400D01*
X124339518Y-49727129D01*
X124315859Y-49721294D01*
X124304519Y-49717453D01*
X124019449Y-49676760D01*
X124004885Y-49675038D01*
X124003803Y-49674936D01*
X123994613Y-49674288D01*
X123989591Y-49673934D01*
X123824897Y-49666177D01*
X123824893Y-49666177D01*
X123824891Y-49666176D01*
X123726291Y-49661533D01*
X123721166Y-49661292D01*
X123721164Y-49661291D01*
X123721146Y-49661285D01*
X123720942Y-49661281D01*
X123535564Y-49652263D01*
X123520831Y-49650784D01*
X123473560Y-49643568D01*
X123456745Y-49639962D01*
X123417035Y-49628930D01*
X123398263Y-49622286D01*
X123356954Y-49604359D01*
X123339751Y-49595473D01*
X123284968Y-49562322D01*
X123271336Y-49552962D01*
X123231643Y-49522211D01*
X123196650Y-49495100D01*
X123186768Y-49486705D01*
X123087215Y-49394095D01*
X123087215Y-49394094D01*
X123086226Y-49393179D01*
X123086221Y-49393175D01*
X123080573Y-49389638D01*
X123055185Y-49369421D01*
X120832187Y-47146423D01*
X120794917Y-47081870D01*
X120790010Y-47044600D01*
X120790010Y-43495404D01*
X120792888Y-43466760D01*
X120794337Y-43459621D01*
X120795151Y-43455611D01*
X120800159Y-43131708D01*
X120800506Y-43123720D01*
X120800548Y-43123138D01*
X120815747Y-42909629D01*
X120817383Y-42895937D01*
X120817419Y-42895723D01*
X120864977Y-42613388D01*
X120866162Y-42607198D01*
X120893538Y-42479343D01*
X120893810Y-42478058D01*
X120913165Y-42385550D01*
X120929906Y-42305531D01*
X120963534Y-42239008D01*
X121025918Y-42198211D01*
X121100343Y-42194072D01*
X121166866Y-42227700D01*
X121207663Y-42290084D01*
X121207806Y-42290522D01*
X121218480Y-42323376D01*
X121218483Y-42323383D01*
X121252874Y-42390879D01*
X121304268Y-42491746D01*
X121304272Y-42491752D01*
X121304274Y-42491755D01*
X121415337Y-42644621D01*
X121548958Y-42778242D01*
X121687225Y-42878698D01*
X121701831Y-42889310D01*
X121870198Y-42975097D01*
X122049912Y-43033490D01*
X122236549Y-43063050D01*
X122236552Y-43063050D01*
X122425508Y-43063050D01*
X122425511Y-43063050D01*
X122612148Y-43033490D01*
X122791862Y-42975097D01*
X122960229Y-42889310D01*
X123042705Y-42829386D01*
X123113101Y-42778242D01*
X123246722Y-42644621D01*
X123321860Y-42541202D01*
X123357790Y-42491749D01*
X123443577Y-42323382D01*
X123464078Y-42260287D01*
X123504675Y-42197772D01*
X123571090Y-42163932D01*
X123645528Y-42167833D01*
X123708043Y-42208430D01*
X123737982Y-42260287D01*
X123758480Y-42323375D01*
X123758483Y-42323383D01*
X123792874Y-42390879D01*
X123844268Y-42491746D01*
X123844272Y-42491752D01*
X123852042Y-42502446D01*
X123859024Y-42513001D01*
X123865316Y-42523488D01*
X123869154Y-42533353D01*
X123930430Y-42632008D01*
X123931005Y-42632966D01*
X123931076Y-42633216D01*
X123934982Y-42640039D01*
X123974004Y-42714253D01*
X123980773Y-42729116D01*
X124041413Y-42885182D01*
X124047319Y-42904174D01*
X124094266Y-43102562D01*
X124094692Y-43104420D01*
X124130224Y-43264069D01*
X124133083Y-43275275D01*
X124134882Y-43282323D01*
X124135285Y-43283724D01*
X124141043Y-43301607D01*
X124195907Y-43455617D01*
X124199504Y-43465715D01*
X124207399Y-43485637D01*
X124208053Y-43487132D01*
X124217087Y-43505976D01*
X124217222Y-43506256D01*
X124262206Y-43592294D01*
X124269531Y-43605497D01*
X124270122Y-43606503D01*
X124278053Y-43619272D01*
X124278056Y-43619276D01*
X124337947Y-43710592D01*
X124337959Y-43710609D01*
X124345747Y-43721921D01*
X124346359Y-43722768D01*
X124354874Y-43734002D01*
X124432687Y-43831888D01*
X124440561Y-43841391D01*
X124441182Y-43842110D01*
X124449076Y-43850904D01*
X124449092Y-43850921D01*
X124539896Y-43948211D01*
X124543456Y-43951962D01*
X124543499Y-43952007D01*
X124543741Y-43952258D01*
X124552486Y-43960954D01*
X124552534Y-43961002D01*
X124558247Y-43964725D01*
X124581456Y-43983549D01*
X126508843Y-45910936D01*
X126546113Y-45975489D01*
X126551020Y-46012759D01*
X126551020Y-66120261D01*
X126531728Y-66192261D01*
X126508843Y-66222084D01*
X125475174Y-67255753D01*
X125410621Y-67293023D01*
X125373351Y-67297930D01*
X112434453Y-67297930D01*
X112422804Y-67297458D01*
X112412057Y-67296585D01*
X112395659Y-67292738D01*
X112324645Y-67289491D01*
X112322091Y-67289284D01*
X112321359Y-67289022D01*
X112311569Y-67288039D01*
X112291675Y-67284939D01*
X112265741Y-67278383D01*
X112218453Y-67261623D01*
X112191665Y-67248888D01*
X112120249Y-67205401D01*
X112117058Y-67203485D01*
X111970398Y-67116684D01*
X111949600Y-67105437D01*
X111947973Y-67104638D01*
X111926475Y-67095077D01*
X111829373Y-67056303D01*
X111811110Y-67049676D01*
X111809702Y-67049215D01*
X111791350Y-67043840D01*
X111677877Y-67014436D01*
X111669645Y-67012425D01*
X111669008Y-67012279D01*
X111657128Y-67009864D01*
X111653967Y-67009222D01*
X111653966Y-67009222D01*
X111648034Y-67009277D01*
X111618610Y-67006517D01*
X111575438Y-66997930D01*
X111427602Y-66997930D01*
X111282605Y-67026772D01*
X111146022Y-67083346D01*
X111146020Y-67083348D01*
X111023104Y-67165478D01*
X111023099Y-67165482D01*
X110918572Y-67270009D01*
X110918568Y-67270014D01*
X110836438Y-67392930D01*
X110836436Y-67392932D01*
X110779862Y-67529515D01*
X110751020Y-67674512D01*
X109652020Y-67674512D01*
X109652020Y-62513045D01*
X110107020Y-62513045D01*
X110107020Y-62719975D01*
X110108986Y-62729859D01*
X110147390Y-62922932D01*
X110226578Y-63114107D01*
X110341544Y-63286167D01*
X110487862Y-63432485D01*
X110659922Y-63547451D01*
X110851097Y-63626639D01*
X110851099Y-63626639D01*
X110851100Y-63626640D01*
X111054055Y-63667010D01*
X111260985Y-63667010D01*
X111463940Y-63626640D01*
X111655118Y-63547451D01*
X111827175Y-63432487D01*
X111973497Y-63286165D01*
X112088461Y-63114108D01*
X112167650Y-62922930D01*
X112208020Y-62719975D01*
X112208020Y-62513045D01*
X112167650Y-62310090D01*
X112124446Y-62205788D01*
X112088461Y-62118912D01*
X111973495Y-61946852D01*
X111827177Y-61800534D01*
X111655117Y-61685568D01*
X111463942Y-61606380D01*
X111463943Y-61606380D01*
X111260985Y-61566010D01*
X111054055Y-61566010D01*
X110851097Y-61606380D01*
X110659922Y-61685568D01*
X110487862Y-61800534D01*
X110341544Y-61946852D01*
X110226578Y-62118912D01*
X110147390Y-62310087D01*
X110111108Y-62492494D01*
X110107020Y-62513045D01*
X109652020Y-62513045D01*
X109652020Y-44457202D01*
X109652019Y-44457198D01*
X109626226Y-44360937D01*
X109626144Y-44360634D01*
X109621319Y-44342624D01*
X109621319Y-44342623D01*
X109562009Y-44239896D01*
X109562006Y-44239893D01*
X109562004Y-44239890D01*
X108856197Y-43534083D01*
X108818927Y-43469530D01*
X108814020Y-43432260D01*
X108814020Y-41759085D01*
X111120530Y-41759085D01*
X111120530Y-41966015D01*
X111129989Y-42013567D01*
X111160900Y-42168972D01*
X111240088Y-42360147D01*
X111355054Y-42532207D01*
X111501372Y-42678525D01*
X111673432Y-42793491D01*
X111864607Y-42872679D01*
X111864609Y-42872679D01*
X111864610Y-42872680D01*
X112067565Y-42913050D01*
X112274495Y-42913050D01*
X112477450Y-42872680D01*
X112668628Y-42793491D01*
X112840685Y-42678527D01*
X112987007Y-42532205D01*
X113101971Y-42360148D01*
X113181160Y-42168970D01*
X113221530Y-41966015D01*
X113221530Y-41759085D01*
X113181160Y-41556130D01*
X113169229Y-41527327D01*
X113101971Y-41364952D01*
X112987005Y-41192892D01*
X112840687Y-41046574D01*
X112668627Y-40931608D01*
X112477452Y-40852420D01*
X112477453Y-40852420D01*
X112274495Y-40812050D01*
X112067565Y-40812050D01*
X111864607Y-40852420D01*
X111673432Y-40931608D01*
X111501372Y-41046574D01*
X111355054Y-41192892D01*
X111240088Y-41364952D01*
X111160900Y-41556127D01*
X111133022Y-41696282D01*
X111120530Y-41759085D01*
X108814020Y-41759085D01*
X108814020Y-40869202D01*
X108814019Y-40869198D01*
X108812675Y-40864181D01*
X108783319Y-40754624D01*
X108775155Y-40740484D01*
X108724010Y-40651896D01*
X108513392Y-40441278D01*
X108507008Y-40434464D01*
X108499557Y-40425976D01*
X108489414Y-40409936D01*
X108418251Y-40333348D01*
X108416905Y-40331814D01*
X108416688Y-40331375D01*
X108411505Y-40325285D01*
X108366711Y-40267753D01*
X108358277Y-40255697D01*
X108333711Y-40216455D01*
X108325830Y-40202113D01*
X108317786Y-40185269D01*
X108308708Y-40160749D01*
X108306188Y-40151416D01*
X108292865Y-40102063D01*
X108287997Y-40070142D01*
X108284959Y-39992207D01*
X108284683Y-39985133D01*
X108285060Y-39967703D01*
X108296216Y-39832334D01*
X108296390Y-39830129D01*
X108296406Y-39829916D01*
X108296640Y-39826551D01*
X108314868Y-39541819D01*
X108338721Y-39471202D01*
X108394688Y-39421969D01*
X108467774Y-39407316D01*
X108538394Y-39431169D01*
X108587627Y-39487136D01*
X108599807Y-39522929D01*
X108620900Y-39628972D01*
X108700088Y-39820147D01*
X108815054Y-39992207D01*
X108961372Y-40138525D01*
X109133432Y-40253491D01*
X109324607Y-40332679D01*
X109324609Y-40332679D01*
X109324610Y-40332680D01*
X109527565Y-40373050D01*
X109734495Y-40373050D01*
X109937450Y-40332680D01*
X110128628Y-40253491D01*
X110300685Y-40138527D01*
X110447007Y-39992205D01*
X110561971Y-39820148D01*
X110641160Y-39628970D01*
X110681530Y-39426015D01*
X110681530Y-39219085D01*
X111120530Y-39219085D01*
X111120530Y-39426014D01*
X111160900Y-39628972D01*
X111240088Y-39820147D01*
X111355054Y-39992207D01*
X111501372Y-40138525D01*
X111673432Y-40253491D01*
X111864607Y-40332679D01*
X111864609Y-40332679D01*
X111864610Y-40332680D01*
X112067565Y-40373050D01*
X112274495Y-40373050D01*
X112477450Y-40332680D01*
X112668628Y-40253491D01*
X112840685Y-40138527D01*
X112987007Y-39992205D01*
X113101971Y-39820148D01*
X113181160Y-39628970D01*
X113221530Y-39426015D01*
X113221530Y-39219085D01*
X116200530Y-39219085D01*
X116200530Y-39426014D01*
X116240900Y-39628972D01*
X116320088Y-39820147D01*
X116435054Y-39992207D01*
X116581372Y-40138525D01*
X116753432Y-40253491D01*
X116944607Y-40332679D01*
X116944609Y-40332679D01*
X116944610Y-40332680D01*
X117147565Y-40373050D01*
X117354495Y-40373050D01*
X117557450Y-40332680D01*
X117748628Y-40253491D01*
X117920685Y-40138527D01*
X118067007Y-39992205D01*
X118181971Y-39820148D01*
X118261160Y-39628970D01*
X118301530Y-39426015D01*
X118301530Y-39219085D01*
X121280530Y-39219085D01*
X121280530Y-39426014D01*
X121320900Y-39628972D01*
X121400088Y-39820147D01*
X121515054Y-39992207D01*
X121661372Y-40138525D01*
X121833432Y-40253491D01*
X122024607Y-40332679D01*
X122024609Y-40332679D01*
X122024610Y-40332680D01*
X122227565Y-40373050D01*
X122434495Y-40373050D01*
X122637450Y-40332680D01*
X122828628Y-40253491D01*
X123000685Y-40138527D01*
X123147007Y-39992205D01*
X123261971Y-39820148D01*
X123341160Y-39628970D01*
X123381530Y-39426015D01*
X123381530Y-39219085D01*
X123820530Y-39219085D01*
X123820530Y-39426014D01*
X123860900Y-39628972D01*
X123940088Y-39820147D01*
X124055054Y-39992207D01*
X124201372Y-40138525D01*
X124373432Y-40253491D01*
X124564607Y-40332679D01*
X124564609Y-40332679D01*
X124564610Y-40332680D01*
X124767565Y-40373050D01*
X124974495Y-40373050D01*
X125177450Y-40332680D01*
X125368628Y-40253491D01*
X125540685Y-40138527D01*
X125687007Y-39992205D01*
X125801971Y-39820148D01*
X125881160Y-39628970D01*
X125921530Y-39426015D01*
X125921530Y-39219085D01*
X125881160Y-39016130D01*
X125869229Y-38987327D01*
X125801971Y-38824952D01*
X125687005Y-38652892D01*
X125540687Y-38506574D01*
X125368627Y-38391608D01*
X125177452Y-38312420D01*
X125177453Y-38312420D01*
X124974495Y-38272050D01*
X124767565Y-38272050D01*
X124564607Y-38312420D01*
X124373432Y-38391608D01*
X124201372Y-38506574D01*
X124055054Y-38652892D01*
X123940088Y-38824952D01*
X123860900Y-39016127D01*
X123820530Y-39219085D01*
X123381530Y-39219085D01*
X123341160Y-39016130D01*
X123329229Y-38987327D01*
X123261971Y-38824952D01*
X123147005Y-38652892D01*
X123000687Y-38506574D01*
X122828627Y-38391608D01*
X122637452Y-38312420D01*
X122637453Y-38312420D01*
X122434495Y-38272050D01*
X122227565Y-38272050D01*
X122024607Y-38312420D01*
X121833432Y-38391608D01*
X121661372Y-38506574D01*
X121515054Y-38652892D01*
X121400088Y-38824952D01*
X121320900Y-39016127D01*
X121280530Y-39219085D01*
X118301530Y-39219085D01*
X118261160Y-39016130D01*
X118249229Y-38987327D01*
X118181971Y-38824952D01*
X118067005Y-38652892D01*
X117920687Y-38506574D01*
X117748627Y-38391608D01*
X117557452Y-38312420D01*
X117557453Y-38312420D01*
X117354495Y-38272050D01*
X117147565Y-38272050D01*
X116944607Y-38312420D01*
X116753432Y-38391608D01*
X116581372Y-38506574D01*
X116435054Y-38652892D01*
X116320088Y-38824952D01*
X116240900Y-39016127D01*
X116200530Y-39219085D01*
X113221530Y-39219085D01*
X113181160Y-39016130D01*
X113169229Y-38987327D01*
X113101971Y-38824952D01*
X112987005Y-38652892D01*
X112840687Y-38506574D01*
X112668627Y-38391608D01*
X112477452Y-38312420D01*
X112477453Y-38312420D01*
X112274495Y-38272050D01*
X112067565Y-38272050D01*
X111864607Y-38312420D01*
X111673432Y-38391608D01*
X111501372Y-38506574D01*
X111355054Y-38652892D01*
X111240088Y-38824952D01*
X111160900Y-39016127D01*
X111120530Y-39219085D01*
X110681530Y-39219085D01*
X110641160Y-39016130D01*
X110629229Y-38987327D01*
X110561971Y-38824952D01*
X110447005Y-38652892D01*
X110300687Y-38506574D01*
X110128627Y-38391608D01*
X109937452Y-38312420D01*
X109937453Y-38312420D01*
X109734495Y-38272050D01*
X109527565Y-38272050D01*
X109324607Y-38312420D01*
X109133432Y-38391608D01*
X108961372Y-38506574D01*
X108815054Y-38652892D01*
X108700088Y-38824952D01*
X108620900Y-39016127D01*
X108580529Y-39219086D01*
X108580247Y-39221956D01*
X108579636Y-39223578D01*
X108579150Y-39226023D01*
X108578746Y-39225942D01*
X108573810Y-39239054D01*
X108572196Y-39257252D01*
X108560908Y-39273330D01*
X108553987Y-39291717D01*
X108539864Y-39303306D01*
X108529367Y-39318259D01*
X108511551Y-39326539D01*
X108496365Y-39339002D01*
X108478339Y-39341977D01*
X108461772Y-39349678D01*
X108442203Y-39347941D01*
X108422820Y-39351141D01*
X108405721Y-39344704D01*
X108387524Y-39343090D01*
X108371445Y-39331802D01*
X108353059Y-39324881D01*
X108341469Y-39310758D01*
X108326517Y-39300261D01*
X108318897Y-39283251D01*
X108305774Y-39267259D01*
X108295098Y-39232666D01*
X108294752Y-39230692D01*
X108277795Y-39114879D01*
X108276531Y-39106970D01*
X108276431Y-39106393D01*
X108273653Y-39092332D01*
X108268359Y-39079926D01*
X108265490Y-39063538D01*
X108265555Y-39062795D01*
X108265106Y-39061232D01*
X108261970Y-39041433D01*
X108261969Y-39041429D01*
X108203578Y-38861720D01*
X108203576Y-38861716D01*
X108184844Y-38824952D01*
X108117790Y-38693351D01*
X108071213Y-38629243D01*
X108006722Y-38540478D01*
X107873101Y-38406857D01*
X107720235Y-38295794D01*
X107720232Y-38295792D01*
X107720231Y-38295791D01*
X107720229Y-38295790D01*
X107639316Y-38254563D01*
X107551863Y-38210003D01*
X107551859Y-38210002D01*
X107426875Y-38169392D01*
X107364361Y-38128795D01*
X107330521Y-38062379D01*
X107334422Y-37987941D01*
X107375019Y-37925427D01*
X107441435Y-37891587D01*
X107471369Y-37888440D01*
X130742623Y-37888440D01*
X130814623Y-37907732D01*
X130867331Y-37960440D01*
X130886623Y-38032440D01*
X130867331Y-38104440D01*
X130814623Y-38157148D01*
X130805109Y-38162175D01*
X130762731Y-38182584D01*
X130762729Y-38182585D01*
X130762719Y-38182590D01*
X130496401Y-38349929D01*
X130250468Y-38546055D01*
X130028065Y-38768458D01*
X129831939Y-39014391D01*
X129664600Y-39280709D01*
X129664595Y-39280719D01*
X129528117Y-39564115D01*
X129424231Y-39861006D01*
X129358950Y-40147024D01*
X129354238Y-40167670D01*
X129341892Y-40277243D01*
X129319020Y-40480235D01*
X129319020Y-40798823D01*
X129317231Y-40798823D01*
X129303594Y-40864181D01*
X129253925Y-40919761D01*
X129183120Y-40943059D01*
X129110151Y-40927834D01*
X129073223Y-40901109D01*
X128461215Y-40289102D01*
X128453180Y-40280377D01*
X128446210Y-40272152D01*
X128437488Y-40258038D01*
X128390430Y-40206330D01*
X128388797Y-40204403D01*
X128388448Y-40203664D01*
X128382002Y-40195732D01*
X128361726Y-40167714D01*
X128351630Y-40151624D01*
X128351515Y-40151410D01*
X128335352Y-40100609D01*
X128335117Y-40098684D01*
X128335639Y-40059850D01*
X128342046Y-40017087D01*
X128346485Y-39997194D01*
X128360064Y-39951755D01*
X128377570Y-39893174D01*
X128416963Y-39764054D01*
X128420465Y-39751640D01*
X128420711Y-39750692D01*
X128423642Y-39738347D01*
X128454594Y-39594791D01*
X128458476Y-39572975D01*
X128458712Y-39571298D01*
X128460998Y-39549316D01*
X128471977Y-39386795D01*
X128472608Y-39359974D01*
X128472566Y-39357915D01*
X128470826Y-39330995D01*
X128461530Y-39245830D01*
X128461530Y-39219085D01*
X128455060Y-39186559D01*
X128451699Y-39155765D01*
X128449989Y-39142711D01*
X128449836Y-39141711D01*
X128446095Y-39121731D01*
X128446095Y-39121730D01*
X128446095Y-39121729D01*
X128444593Y-39118208D01*
X128435815Y-39089806D01*
X128426193Y-39041433D01*
X128421160Y-39016130D01*
X128409229Y-38987327D01*
X128341971Y-38824952D01*
X128227005Y-38652892D01*
X128080687Y-38506574D01*
X127908627Y-38391608D01*
X127717452Y-38312420D01*
X127717453Y-38312420D01*
X127514495Y-38272050D01*
X127307565Y-38272050D01*
X127104607Y-38312420D01*
X126913432Y-38391608D01*
X126741372Y-38506574D01*
X126595054Y-38652892D01*
X126480088Y-38824952D01*
X126400900Y-39016127D01*
X126360530Y-39219085D01*
X126360530Y-39426014D01*
X126400900Y-39628972D01*
X126480088Y-39820147D01*
X126595054Y-39992207D01*
X126741370Y-40138523D01*
X126741373Y-40138525D01*
X126741375Y-40138527D01*
X126793608Y-40173428D01*
X126811449Y-40185349D01*
X126829069Y-40199223D01*
X126842219Y-40211350D01*
X126842220Y-40211351D01*
X126842225Y-40211355D01*
X127210276Y-40442180D01*
X127210474Y-40442303D01*
X127210473Y-40442303D01*
X127211662Y-40443044D01*
X127211827Y-40443146D01*
X127211927Y-40443208D01*
X127212058Y-40443289D01*
X127213829Y-40444375D01*
X127348260Y-40526238D01*
X127355431Y-40530903D01*
X127465167Y-40607044D01*
X127475189Y-40614669D01*
X127602311Y-40720477D01*
X127609661Y-40727032D01*
X127787628Y-40897048D01*
X127790222Y-40899498D01*
X127796544Y-40903515D01*
X127821135Y-40923229D01*
X128074471Y-41176565D01*
X128308843Y-41410936D01*
X128346113Y-41475489D01*
X128351020Y-41512759D01*
X128351020Y-43225821D01*
X128368361Y-43290536D01*
X128373107Y-43308249D01*
X128374520Y-43313523D01*
X128381720Y-43340397D01*
X128441031Y-43443124D01*
X128441035Y-43443129D01*
X129908843Y-44910936D01*
X129946113Y-44975489D01*
X129951020Y-45012759D01*
X129951020Y-74320260D01*
X129931728Y-74392260D01*
X129908843Y-74422083D01*
X123357094Y-80973833D01*
X123292541Y-81011103D01*
X123255271Y-81016010D01*
X91934453Y-81016010D01*
X91922804Y-81015538D01*
X91912057Y-81014665D01*
X91895659Y-81010818D01*
X91824645Y-81007571D01*
X91822091Y-81007364D01*
X91821359Y-81007102D01*
X91811569Y-81006119D01*
X91791675Y-81003019D01*
X91765741Y-80996463D01*
X91718453Y-80979703D01*
X91691665Y-80966968D01*
X91620249Y-80923481D01*
X91617058Y-80921565D01*
X91470398Y-80834764D01*
X91449600Y-80823517D01*
X91447973Y-80822718D01*
X91426475Y-80813157D01*
X91329373Y-80774383D01*
X91311110Y-80767756D01*
X91309702Y-80767295D01*
X91291350Y-80761920D01*
X91177877Y-80732516D01*
X91169645Y-80730505D01*
X91169008Y-80730359D01*
X91154921Y-80727496D01*
X91153967Y-80727302D01*
X91153966Y-80727302D01*
X91148034Y-80727357D01*
X91118610Y-80724597D01*
X91075438Y-80716010D01*
X90927602Y-80716010D01*
X90782605Y-80744852D01*
X90646022Y-80801426D01*
X90646020Y-80801428D01*
X90523104Y-80883558D01*
X90523099Y-80883562D01*
X90418572Y-80988089D01*
X90418568Y-80988094D01*
X90336438Y-81111010D01*
X90336436Y-81111012D01*
X90279862Y-81247595D01*
X90251020Y-81392592D01*
X90251020Y-81540427D01*
X90279862Y-81685424D01*
X90336436Y-81822007D01*
X90336438Y-81822009D01*
X90418568Y-81944925D01*
X90418572Y-81944930D01*
X90523099Y-82049457D01*
X90523104Y-82049461D01*
X90646020Y-82131591D01*
X90646022Y-82131593D01*
X90726029Y-82164733D01*
X90782607Y-82188168D01*
X90927602Y-82217010D01*
X91075436Y-82217010D01*
X91075438Y-82217010D01*
X91134502Y-82205260D01*
X91154507Y-82202721D01*
X91174072Y-82201622D01*
X91262834Y-82179809D01*
X91277344Y-82175862D01*
X91278439Y-82175535D01*
X91292519Y-82170956D01*
X91374460Y-82142093D01*
X91395198Y-82133926D01*
X91395204Y-82133923D01*
X91395210Y-82133921D01*
X91396769Y-82133240D01*
X91400192Y-82131593D01*
X91417006Y-82123504D01*
X91555889Y-82050284D01*
X91568630Y-82043173D01*
X91569598Y-82042602D01*
X91582118Y-82034803D01*
X91626429Y-82005693D01*
X91628163Y-82004572D01*
X91633189Y-82001373D01*
X91680827Y-81971052D01*
X91696334Y-81962476D01*
X91720889Y-81950810D01*
X91746812Y-81941419D01*
X91778371Y-81933304D01*
X91803960Y-81929136D01*
X91903766Y-81922010D01*
X91905847Y-81921478D01*
X91941443Y-81917010D01*
X123560828Y-81917010D01*
X123560829Y-81917010D01*
X123654943Y-81891792D01*
X123675407Y-81886309D01*
X123778134Y-81826999D01*
X130762010Y-74843124D01*
X130821319Y-74740396D01*
X130852020Y-74625819D01*
X130852020Y-44707201D01*
X130821319Y-44592624D01*
X130821319Y-44592623D01*
X130762010Y-44489896D01*
X129294197Y-43022083D01*
X129256927Y-42957530D01*
X129252020Y-42920260D01*
X129252020Y-41768282D01*
X129271312Y-41696282D01*
X129324020Y-41643574D01*
X129396020Y-41624282D01*
X129468020Y-41643574D01*
X129520728Y-41696282D01*
X129526185Y-41707349D01*
X129526364Y-41707263D01*
X129569491Y-41796816D01*
X129664594Y-41994299D01*
X129664596Y-41994302D01*
X129664600Y-41994310D01*
X129831939Y-42260628D01*
X129831943Y-42260633D01*
X130016257Y-42491755D01*
X130028065Y-42506561D01*
X130250468Y-42728964D01*
X130250472Y-42728967D01*
X130250476Y-42728971D01*
X130480409Y-42912337D01*
X130496401Y-42925090D01*
X130762719Y-43092429D01*
X130762723Y-43092431D01*
X130762731Y-43092436D01*
X131046126Y-43228912D01*
X131046125Y-43228912D01*
X131343016Y-43332798D01*
X131343019Y-43332798D01*
X131343020Y-43332799D01*
X131649680Y-43402792D01*
X131962247Y-43438010D01*
X131962255Y-43438010D01*
X132276785Y-43438010D01*
X132276793Y-43438010D01*
X132589360Y-43402792D01*
X132896020Y-43332799D01*
X132965878Y-43308355D01*
X133192914Y-43228912D01*
X133199079Y-43225943D01*
X133476309Y-43092436D01*
X133742643Y-42925087D01*
X133988564Y-42728971D01*
X134210981Y-42506554D01*
X134407097Y-42260633D01*
X134574446Y-41994299D01*
X134595257Y-41951084D01*
X134643874Y-41894589D01*
X134714231Y-41869969D01*
X134787472Y-41883826D01*
X134843971Y-41932446D01*
X134868591Y-42002803D01*
X134868994Y-42013567D01*
X134868603Y-81260641D01*
X134849310Y-81332641D01*
X134796602Y-81385348D01*
X134724602Y-81404640D01*
X134652602Y-81385347D01*
X134599895Y-81332639D01*
X134594864Y-81323120D01*
X134574446Y-81280721D01*
X134574441Y-81280713D01*
X134574439Y-81280709D01*
X134407100Y-81014391D01*
X134401496Y-81007364D01*
X134210981Y-80768466D01*
X134210977Y-80768462D01*
X134210974Y-80768458D01*
X133988571Y-80546055D01*
X133988566Y-80546051D01*
X133988564Y-80546049D01*
X133742643Y-80349933D01*
X133742638Y-80349929D01*
X133476320Y-80182590D01*
X133476312Y-80182586D01*
X133476309Y-80182584D01*
X133334611Y-80114346D01*
X133192913Y-80046107D01*
X133192914Y-80046107D01*
X132896023Y-79942221D01*
X132589364Y-79872229D01*
X132589360Y-79872228D01*
X132329995Y-79843004D01*
X132276794Y-79837010D01*
X132276793Y-79837010D01*
X131962247Y-79837010D01*
X131962245Y-79837010D01*
X131855841Y-79848999D01*
X131649680Y-79872228D01*
X131649676Y-79872228D01*
X131649675Y-79872229D01*
X131343016Y-79942221D01*
X131046125Y-80046107D01*
X130762729Y-80182585D01*
X130762719Y-80182590D01*
X130496401Y-80349929D01*
X130250468Y-80546055D01*
X130028065Y-80768458D01*
X129831939Y-81014391D01*
X129664600Y-81280709D01*
X129664595Y-81280719D01*
X129528117Y-81564115D01*
X129424231Y-81861006D01*
X129362473Y-82131591D01*
X129354238Y-82167670D01*
X129332602Y-82359696D01*
X129319743Y-82473824D01*
X129319020Y-82480237D01*
X129319020Y-82794783D01*
X129354238Y-83107350D01*
X129354239Y-83107354D01*
X129424231Y-83414013D01*
X129528117Y-83710904D01*
X129617998Y-83897542D01*
X129664594Y-83994299D01*
X129664595Y-83994300D01*
X129664600Y-83994310D01*
X129831939Y-84260628D01*
X129831943Y-84260633D01*
X129951012Y-84409941D01*
X130028065Y-84506561D01*
X130250468Y-84728964D01*
X130250472Y-84728967D01*
X130250476Y-84728971D01*
X130364377Y-84819804D01*
X130496401Y-84925090D01*
X130762719Y-85092429D01*
X130762721Y-85092430D01*
X130762731Y-85092436D01*
X130806545Y-85113535D01*
X130863041Y-85162155D01*
X130887660Y-85232511D01*
X130873803Y-85305752D01*
X130825181Y-85362251D01*
X130754825Y-85386870D01*
X130744063Y-85387273D01*
X75494642Y-85387434D01*
X75422642Y-85368142D01*
X75369935Y-85315434D01*
X75350642Y-85243434D01*
X75369934Y-85171434D01*
X75422642Y-85118727D01*
X75432139Y-85113706D01*
X75476309Y-85092436D01*
X75742643Y-84925087D01*
X75988564Y-84728971D01*
X76210981Y-84506554D01*
X76407097Y-84260633D01*
X76574446Y-83994299D01*
X76710922Y-83710904D01*
X76720768Y-83682766D01*
X76814808Y-83414013D01*
X76814809Y-83414010D01*
X76884802Y-83107350D01*
X76920020Y-82794783D01*
X76920020Y-82480237D01*
X76884802Y-82167670D01*
X76814809Y-81861010D01*
X76802908Y-81826999D01*
X76710922Y-81564115D01*
X76628320Y-81392592D01*
X76574446Y-81280721D01*
X76574441Y-81280713D01*
X76574439Y-81280709D01*
X76407100Y-81014391D01*
X76401496Y-81007364D01*
X76210981Y-80768466D01*
X76210977Y-80768462D01*
X76210974Y-80768458D01*
X75988571Y-80546055D01*
X75988566Y-80546051D01*
X75988564Y-80546049D01*
X75742643Y-80349933D01*
X75742638Y-80349929D01*
X75476320Y-80182590D01*
X75476312Y-80182586D01*
X75476309Y-80182584D01*
X75334611Y-80114346D01*
X75192913Y-80046107D01*
X75192914Y-80046107D01*
X74896023Y-79942221D01*
X74589364Y-79872229D01*
X74589360Y-79872228D01*
X74329995Y-79843004D01*
X74276794Y-79837010D01*
X74276793Y-79837010D01*
X73962247Y-79837010D01*
X73962245Y-79837010D01*
X73855841Y-79848999D01*
X73649680Y-79872228D01*
X73649676Y-79872228D01*
X73649675Y-79872229D01*
X73343016Y-79942221D01*
X73046125Y-80046107D01*
X72762729Y-80182585D01*
X72762719Y-80182590D01*
X72496401Y-80349929D01*
X72250468Y-80546055D01*
X72028065Y-80768458D01*
X71831939Y-81014391D01*
X71664600Y-81280709D01*
X71664597Y-81280714D01*
X71643330Y-81324875D01*
X71594707Y-81381373D01*
X71524349Y-81405990D01*
X71451109Y-81392130D01*
X71394611Y-81343507D01*
X71369994Y-81273149D01*
X71369592Y-81262417D01*
X71369590Y-55109856D01*
X80737490Y-55109856D01*
X80737490Y-55298823D01*
X80767049Y-55485454D01*
X80767050Y-55485458D01*
X80825440Y-55665165D01*
X80825443Y-55665173D01*
X80870003Y-55752626D01*
X80896890Y-55805396D01*
X80911232Y-55833542D01*
X80911234Y-55833545D01*
X81022297Y-55986411D01*
X81155918Y-56120032D01*
X81308784Y-56231095D01*
X81308791Y-56231100D01*
X81477158Y-56316887D01*
X81535103Y-56335714D01*
X81540253Y-56337388D01*
X81602767Y-56377985D01*
X81636607Y-56444401D01*
X81632706Y-56518839D01*
X81592109Y-56581353D01*
X81540253Y-56611292D01*
X81477160Y-56631792D01*
X81477156Y-56631793D01*
X81308787Y-56717582D01*
X81308784Y-56717584D01*
X81155918Y-56828647D01*
X81022297Y-56962268D01*
X80911234Y-57115134D01*
X80911232Y-57115137D01*
X80825443Y-57283506D01*
X80825440Y-57283514D01*
X80767050Y-57463221D01*
X80767049Y-57463225D01*
X80737490Y-57649856D01*
X80737490Y-57838823D01*
X80767049Y-58025454D01*
X80767050Y-58025458D01*
X80825440Y-58205165D01*
X80825443Y-58205173D01*
X80870003Y-58292626D01*
X80906967Y-58365173D01*
X80911232Y-58373542D01*
X80911234Y-58373545D01*
X81022297Y-58526411D01*
X81155918Y-58660032D01*
X81308784Y-58771095D01*
X81308791Y-58771100D01*
X81477158Y-58856887D01*
X81535103Y-58875714D01*
X81540253Y-58877388D01*
X81602767Y-58917985D01*
X81636607Y-58984401D01*
X81632706Y-59058839D01*
X81592109Y-59121353D01*
X81540253Y-59151292D01*
X81477160Y-59171792D01*
X81477156Y-59171793D01*
X81308787Y-59257582D01*
X81308784Y-59257584D01*
X81155918Y-59368647D01*
X81022297Y-59502268D01*
X80911234Y-59655134D01*
X80911232Y-59655137D01*
X80825443Y-59823506D01*
X80825440Y-59823514D01*
X80767050Y-60003221D01*
X80767049Y-60003225D01*
X80737490Y-60189856D01*
X80737490Y-60378823D01*
X80767049Y-60565454D01*
X80767050Y-60565458D01*
X80825440Y-60745165D01*
X80825443Y-60745173D01*
X80857672Y-60808425D01*
X80909374Y-60909897D01*
X80911232Y-60913542D01*
X80911234Y-60913545D01*
X81022297Y-61066411D01*
X81155918Y-61200032D01*
X81308784Y-61311095D01*
X81308791Y-61311100D01*
X81477158Y-61396887D01*
X81535103Y-61415714D01*
X81540253Y-61417388D01*
X81602767Y-61457985D01*
X81636607Y-61524401D01*
X81632706Y-61598839D01*
X81592109Y-61661353D01*
X81540253Y-61691292D01*
X81477160Y-61711792D01*
X81477156Y-61711793D01*
X81308787Y-61797582D01*
X81308784Y-61797584D01*
X81155918Y-61908647D01*
X81022297Y-62042268D01*
X80911234Y-62195134D01*
X80911232Y-62195137D01*
X80825443Y-62363506D01*
X80825440Y-62363514D01*
X80767050Y-62543221D01*
X80767049Y-62543225D01*
X80737490Y-62729856D01*
X80737490Y-62918823D01*
X80767049Y-63105454D01*
X80767050Y-63105458D01*
X80825440Y-63285165D01*
X80825443Y-63285173D01*
X80862147Y-63357208D01*
X80910849Y-63452792D01*
X80911232Y-63453542D01*
X80911234Y-63453545D01*
X81022297Y-63606411D01*
X81155918Y-63740032D01*
X81308784Y-63851095D01*
X81308791Y-63851100D01*
X81477158Y-63936887D01*
X81535103Y-63955714D01*
X81540253Y-63957388D01*
X81602767Y-63997985D01*
X81636607Y-64064401D01*
X81632706Y-64138839D01*
X81592109Y-64201353D01*
X81540253Y-64231292D01*
X81477160Y-64251792D01*
X81477156Y-64251793D01*
X81308787Y-64337582D01*
X81308784Y-64337584D01*
X81155918Y-64448647D01*
X81022297Y-64582268D01*
X80911234Y-64735134D01*
X80911232Y-64735137D01*
X80825443Y-64903506D01*
X80825440Y-64903514D01*
X80767050Y-65083221D01*
X80767049Y-65083225D01*
X80737490Y-65269856D01*
X80737490Y-65458823D01*
X80767049Y-65645454D01*
X80767050Y-65645458D01*
X80825440Y-65825165D01*
X80825443Y-65825173D01*
X80859508Y-65892029D01*
X80904311Y-65979960D01*
X80911232Y-65993542D01*
X80911234Y-65993545D01*
X81022297Y-66146411D01*
X81155918Y-66280032D01*
X81296095Y-66381876D01*
X81308791Y-66391100D01*
X81477158Y-66476887D01*
X81535103Y-66495714D01*
X81540253Y-66497388D01*
X81602767Y-66537985D01*
X81636607Y-66604401D01*
X81632706Y-66678839D01*
X81592109Y-66741353D01*
X81540253Y-66771292D01*
X81477160Y-66791792D01*
X81477156Y-66791793D01*
X81308787Y-66877582D01*
X81308784Y-66877584D01*
X81155918Y-66988647D01*
X81022297Y-67122268D01*
X80911234Y-67275134D01*
X80911232Y-67275137D01*
X80825443Y-67443506D01*
X80825440Y-67443514D01*
X80767050Y-67623221D01*
X80767049Y-67623225D01*
X80737490Y-67809856D01*
X80737490Y-67998823D01*
X80767049Y-68185454D01*
X80767050Y-68185458D01*
X80825440Y-68365165D01*
X80825443Y-68365173D01*
X80865073Y-68442950D01*
X80901430Y-68514306D01*
X80911232Y-68533542D01*
X80911234Y-68533545D01*
X81022297Y-68686411D01*
X81155918Y-68820032D01*
X81248899Y-68887586D01*
X81308791Y-68931100D01*
X81477158Y-69016887D01*
X81535103Y-69035714D01*
X81540253Y-69037388D01*
X81602767Y-69077985D01*
X81636607Y-69144401D01*
X81632706Y-69218839D01*
X81592109Y-69281353D01*
X81540253Y-69311292D01*
X81477160Y-69331792D01*
X81477156Y-69331793D01*
X81308787Y-69417582D01*
X81308784Y-69417584D01*
X81155918Y-69528647D01*
X81022297Y-69662268D01*
X80911234Y-69815134D01*
X80911232Y-69815137D01*
X80825443Y-69983506D01*
X80825440Y-69983514D01*
X80767050Y-70163221D01*
X80767049Y-70163225D01*
X80737490Y-70349856D01*
X80737490Y-70538823D01*
X80767049Y-70725454D01*
X80767050Y-70725458D01*
X80825440Y-70905165D01*
X80825443Y-70905173D01*
X80839301Y-70932370D01*
X80899068Y-71049670D01*
X80911232Y-71073542D01*
X80911234Y-71073545D01*
X81022297Y-71226411D01*
X81155918Y-71360032D01*
X81256118Y-71432831D01*
X81308791Y-71471100D01*
X81477158Y-71556887D01*
X81535103Y-71575714D01*
X81540253Y-71577388D01*
X81602767Y-71617985D01*
X81636607Y-71684401D01*
X81632706Y-71758839D01*
X81592109Y-71821353D01*
X81540253Y-71851292D01*
X81477160Y-71871792D01*
X81477156Y-71871793D01*
X81308787Y-71957582D01*
X81308784Y-71957584D01*
X81155918Y-72068647D01*
X81022297Y-72202268D01*
X80911234Y-72355134D01*
X80911232Y-72355137D01*
X80825443Y-72523506D01*
X80825440Y-72523514D01*
X80767050Y-72703221D01*
X80767049Y-72703225D01*
X80737490Y-72889856D01*
X80737490Y-73078823D01*
X80767049Y-73265454D01*
X80767050Y-73265458D01*
X80825440Y-73445165D01*
X80825443Y-73445173D01*
X80828601Y-73451370D01*
X80879713Y-73551684D01*
X80911232Y-73613542D01*
X80911234Y-73613545D01*
X81022297Y-73766411D01*
X81155918Y-73900032D01*
X81298881Y-74003900D01*
X81308791Y-74011100D01*
X81477158Y-74096887D01*
X81533753Y-74115276D01*
X81540253Y-74117388D01*
X81602767Y-74157985D01*
X81636607Y-74224401D01*
X81632706Y-74298839D01*
X81592109Y-74361353D01*
X81540253Y-74391292D01*
X81477160Y-74411792D01*
X81477156Y-74411793D01*
X81308787Y-74497582D01*
X81308784Y-74497584D01*
X81155918Y-74608647D01*
X81022297Y-74742268D01*
X80911234Y-74895134D01*
X80911232Y-74895137D01*
X80825443Y-75063506D01*
X80825440Y-75063514D01*
X80767050Y-75243221D01*
X80767049Y-75243225D01*
X80737490Y-75429856D01*
X80737490Y-75618823D01*
X80767049Y-75805454D01*
X80767050Y-75805458D01*
X80825440Y-75985165D01*
X80825443Y-75985173D01*
X80830781Y-75995649D01*
X80896086Y-76123818D01*
X80911232Y-76153542D01*
X80911234Y-76153545D01*
X81022297Y-76306411D01*
X81155918Y-76440032D01*
X81299624Y-76544440D01*
X81308791Y-76551100D01*
X81388150Y-76591535D01*
X81443544Y-76641411D01*
X81466579Y-76712303D01*
X81451081Y-76785214D01*
X81401205Y-76840608D01*
X81330313Y-76863643D01*
X81322776Y-76863840D01*
X80993130Y-76863840D01*
X80993121Y-76863841D01*
X80968000Y-76866754D01*
X80967992Y-76866757D01*
X80865230Y-76912130D01*
X80865220Y-76912137D01*
X80785787Y-76991570D01*
X80785783Y-76991575D01*
X80765262Y-77038053D01*
X80740409Y-77094342D01*
X80740405Y-77094350D01*
X80740404Y-77094353D01*
X80737490Y-77119467D01*
X80737490Y-79009199D01*
X80737491Y-79009208D01*
X80740404Y-79034329D01*
X80740407Y-79034337D01*
X80785780Y-79137099D01*
X80785787Y-79137109D01*
X80865220Y-79216542D01*
X80865225Y-79216546D01*
X80967999Y-79261925D01*
X80993125Y-79264840D01*
X82882854Y-79264839D01*
X82907981Y-79261925D01*
X82959368Y-79239235D01*
X83010749Y-79216549D01*
X83010750Y-79216548D01*
X83010755Y-79216546D01*
X83090196Y-79137105D01*
X83135575Y-79034331D01*
X83138490Y-79009205D01*
X83138489Y-77119476D01*
X83135575Y-77094349D01*
X83135572Y-77094342D01*
X83090199Y-76991580D01*
X83090196Y-76991576D01*
X83090196Y-76991575D01*
X83090194Y-76991573D01*
X83090192Y-76991570D01*
X83010759Y-76912137D01*
X83010754Y-76912133D01*
X82970938Y-76894553D01*
X82907981Y-76866755D01*
X82907977Y-76866754D01*
X82907976Y-76866754D01*
X82882862Y-76863840D01*
X82553204Y-76863840D01*
X82481204Y-76844548D01*
X82428496Y-76791840D01*
X82409204Y-76719840D01*
X82428496Y-76647840D01*
X82481204Y-76595132D01*
X82487820Y-76591539D01*
X82567189Y-76551100D01*
X82649665Y-76491176D01*
X82720061Y-76440032D01*
X82853682Y-76306411D01*
X82930658Y-76200462D01*
X82964750Y-76153539D01*
X83050537Y-75985172D01*
X83108930Y-75805458D01*
X83138490Y-75618821D01*
X83138490Y-75429859D01*
X83108930Y-75243222D01*
X83054578Y-75075945D01*
X83050539Y-75063514D01*
X83050536Y-75063506D01*
X83023124Y-75009707D01*
X82964750Y-74895141D01*
X82959261Y-74887586D01*
X82853682Y-74742268D01*
X82720061Y-74608647D01*
X82567195Y-74497584D01*
X82567192Y-74497582D01*
X82567191Y-74497581D01*
X82567189Y-74497580D01*
X82466556Y-74446305D01*
X82398823Y-74411793D01*
X82398815Y-74411790D01*
X82335727Y-74391292D01*
X82273212Y-74350695D01*
X82239372Y-74284280D01*
X82243273Y-74209842D01*
X82283870Y-74147327D01*
X82335727Y-74117388D01*
X82346694Y-74113824D01*
X82398822Y-74096887D01*
X82567189Y-74011100D01*
X82667703Y-73938072D01*
X82720061Y-73900032D01*
X82853682Y-73766411D01*
X82912530Y-73685413D01*
X82964750Y-73613539D01*
X83050537Y-73445172D01*
X83108930Y-73265458D01*
X83138490Y-73078821D01*
X83138490Y-72889859D01*
X83108930Y-72703222D01*
X83050537Y-72523508D01*
X82964750Y-72355141D01*
X82964745Y-72355134D01*
X82853682Y-72202268D01*
X82720061Y-72068647D01*
X82567195Y-71957584D01*
X82567192Y-71957582D01*
X82567191Y-71957581D01*
X82567189Y-71957580D01*
X82486276Y-71916353D01*
X82398823Y-71871793D01*
X82398815Y-71871790D01*
X82335727Y-71851292D01*
X82273212Y-71810695D01*
X82239372Y-71744280D01*
X82243273Y-71669842D01*
X82283870Y-71607327D01*
X82335727Y-71577388D01*
X82346694Y-71573824D01*
X82398822Y-71556887D01*
X82567189Y-71471100D01*
X82649889Y-71411015D01*
X82720061Y-71360032D01*
X82853682Y-71226411D01*
X82916665Y-71139722D01*
X82964750Y-71073539D01*
X83050537Y-70905172D01*
X83108930Y-70725458D01*
X83138490Y-70538821D01*
X83138490Y-70349859D01*
X83108930Y-70163222D01*
X83050537Y-69983508D01*
X82964750Y-69815141D01*
X82920032Y-69753592D01*
X82853682Y-69662268D01*
X82720061Y-69528647D01*
X82567195Y-69417584D01*
X82567192Y-69417582D01*
X82567191Y-69417581D01*
X82567189Y-69417580D01*
X82451489Y-69358628D01*
X82398823Y-69331793D01*
X82398815Y-69331790D01*
X82335727Y-69311292D01*
X82273212Y-69270695D01*
X82239372Y-69204280D01*
X82243273Y-69129842D01*
X82283870Y-69067327D01*
X82335727Y-69037388D01*
X82373659Y-69025063D01*
X82398822Y-69016887D01*
X82567189Y-68931100D01*
X82649665Y-68871176D01*
X82720061Y-68820032D01*
X82853682Y-68686411D01*
X82922471Y-68591731D01*
X82964750Y-68533539D01*
X83050537Y-68365172D01*
X83108930Y-68185458D01*
X83138490Y-67998821D01*
X83138490Y-67809859D01*
X83108930Y-67623222D01*
X83050537Y-67443508D01*
X82964750Y-67275141D01*
X82964745Y-67275134D01*
X82853682Y-67122268D01*
X82720061Y-66988647D01*
X82567195Y-66877584D01*
X82567192Y-66877582D01*
X82567191Y-66877581D01*
X82567189Y-66877580D01*
X82486276Y-66836353D01*
X82398823Y-66791793D01*
X82398815Y-66791790D01*
X82335727Y-66771292D01*
X82273212Y-66730695D01*
X82239372Y-66664280D01*
X82243273Y-66589842D01*
X82283870Y-66527327D01*
X82335727Y-66497388D01*
X82346694Y-66493824D01*
X82398822Y-66476887D01*
X82567189Y-66391100D01*
X82649665Y-66331176D01*
X82720061Y-66280032D01*
X82853682Y-66146411D01*
X82947785Y-66016889D01*
X82964750Y-65993539D01*
X83050537Y-65825172D01*
X83108930Y-65645458D01*
X83138490Y-65458821D01*
X83138490Y-65269859D01*
X83108930Y-65083222D01*
X83050537Y-64903508D01*
X82964750Y-64735141D01*
X82900047Y-64646085D01*
X82853682Y-64582268D01*
X82720061Y-64448647D01*
X82567195Y-64337584D01*
X82567192Y-64337582D01*
X82567191Y-64337581D01*
X82567189Y-64337580D01*
X82486276Y-64296353D01*
X82398823Y-64251793D01*
X82398815Y-64251790D01*
X82335727Y-64231292D01*
X82273212Y-64190695D01*
X82239372Y-64124280D01*
X82243273Y-64049842D01*
X82283870Y-63987327D01*
X82335727Y-63957388D01*
X82381239Y-63942600D01*
X82398822Y-63936887D01*
X82567189Y-63851100D01*
X82690335Y-63761629D01*
X82720061Y-63740032D01*
X82853682Y-63606411D01*
X82922016Y-63512357D01*
X82964750Y-63453539D01*
X83050537Y-63285172D01*
X83108930Y-63105458D01*
X83138490Y-62918821D01*
X83138490Y-62729859D01*
X83108930Y-62543222D01*
X83050537Y-62363508D01*
X82964750Y-62195141D01*
X82960712Y-62189583D01*
X82853682Y-62042268D01*
X82720061Y-61908647D01*
X82567195Y-61797584D01*
X82567192Y-61797582D01*
X82567191Y-61797581D01*
X82567189Y-61797580D01*
X82486276Y-61756353D01*
X82398823Y-61711793D01*
X82398815Y-61711790D01*
X82335727Y-61691292D01*
X82273212Y-61650695D01*
X82239372Y-61584280D01*
X82243273Y-61509842D01*
X82283870Y-61447327D01*
X82335727Y-61417388D01*
X82346694Y-61413824D01*
X82398822Y-61396887D01*
X82567189Y-61311100D01*
X82649665Y-61251176D01*
X82720061Y-61200032D01*
X82853682Y-61066411D01*
X82905500Y-60995089D01*
X82964750Y-60913539D01*
X83050537Y-60745172D01*
X83108930Y-60565458D01*
X83138490Y-60378821D01*
X83138490Y-60189859D01*
X83108930Y-60003222D01*
X83050537Y-59823508D01*
X82964750Y-59655141D01*
X82964745Y-59655134D01*
X82853682Y-59502268D01*
X82720061Y-59368647D01*
X82567195Y-59257584D01*
X82567192Y-59257582D01*
X82567191Y-59257581D01*
X82567189Y-59257580D01*
X82486276Y-59216353D01*
X82398823Y-59171793D01*
X82398815Y-59171790D01*
X82335727Y-59151292D01*
X82273212Y-59110695D01*
X82239372Y-59044280D01*
X82243273Y-58969842D01*
X82283870Y-58907327D01*
X82335727Y-58877388D01*
X82346694Y-58873824D01*
X82398822Y-58856887D01*
X82567189Y-58771100D01*
X82683753Y-58686411D01*
X82720061Y-58660032D01*
X82853682Y-58526411D01*
X82904826Y-58456015D01*
X82964750Y-58373539D01*
X83050537Y-58205172D01*
X83108930Y-58025458D01*
X83138490Y-57838821D01*
X83138490Y-57649859D01*
X83108930Y-57463222D01*
X83050537Y-57283508D01*
X82964750Y-57115141D01*
X82964745Y-57115134D01*
X82853682Y-56962268D01*
X82720061Y-56828647D01*
X82567195Y-56717584D01*
X82567192Y-56717582D01*
X82567191Y-56717581D01*
X82567189Y-56717580D01*
X82467425Y-56666748D01*
X82398823Y-56631793D01*
X82398815Y-56631790D01*
X82335727Y-56611292D01*
X82273212Y-56570695D01*
X82239372Y-56504280D01*
X82243273Y-56429842D01*
X82283870Y-56367327D01*
X82335727Y-56337388D01*
X82346694Y-56333824D01*
X82398822Y-56316887D01*
X82567189Y-56231100D01*
X82649665Y-56171176D01*
X82720061Y-56120032D01*
X82853682Y-55986411D01*
X82910561Y-55908124D01*
X82964750Y-55833539D01*
X83050537Y-55665172D01*
X83108930Y-55485458D01*
X83138490Y-55298821D01*
X83138490Y-55109859D01*
X83108930Y-54923222D01*
X83050537Y-54743508D01*
X82964750Y-54575141D01*
X82958116Y-54566010D01*
X82853682Y-54422268D01*
X82720061Y-54288647D01*
X82567195Y-54177584D01*
X82567192Y-54177582D01*
X82567191Y-54177581D01*
X82567189Y-54177580D01*
X82486276Y-54136353D01*
X82398823Y-54091793D01*
X82398815Y-54091790D01*
X82219108Y-54033400D01*
X82219104Y-54033399D01*
X82032473Y-54003840D01*
X82032471Y-54003840D01*
X81843509Y-54003840D01*
X81843506Y-54003840D01*
X81656875Y-54033399D01*
X81656871Y-54033400D01*
X81477164Y-54091790D01*
X81477156Y-54091793D01*
X81308787Y-54177582D01*
X81308784Y-54177584D01*
X81155918Y-54288647D01*
X81022297Y-54422268D01*
X80911234Y-54575134D01*
X80911232Y-54575137D01*
X80825443Y-54743506D01*
X80825440Y-54743514D01*
X80767050Y-54923221D01*
X80767049Y-54923225D01*
X80737490Y-55109856D01*
X71369590Y-55109856D01*
X71369590Y-48292592D01*
X72651020Y-48292592D01*
X72651020Y-48440427D01*
X72679862Y-48585424D01*
X72736436Y-48722007D01*
X72736438Y-48722009D01*
X72818568Y-48844925D01*
X72818572Y-48844930D01*
X72923099Y-48949457D01*
X72923104Y-48949461D01*
X73046020Y-49031591D01*
X73046022Y-49031593D01*
X73067335Y-49040421D01*
X73182607Y-49088168D01*
X73327602Y-49117010D01*
X73475436Y-49117010D01*
X73475438Y-49117010D01*
X73532706Y-49105618D01*
X73553438Y-49103040D01*
X73572508Y-49102066D01*
X73672848Y-49077951D01*
X73685426Y-49074643D01*
X73686395Y-49074366D01*
X73699110Y-49070430D01*
X73699126Y-49070424D01*
X73699141Y-49070420D01*
X73722111Y-49062756D01*
X73789060Y-49040421D01*
X73798567Y-49036930D01*
X73806156Y-49034145D01*
X73806172Y-49034138D01*
X73806179Y-49034136D01*
X73807467Y-49033619D01*
X73823992Y-49026413D01*
X73982626Y-48951590D01*
X73986680Y-48949641D01*
X73986974Y-48949497D01*
X73990595Y-48947694D01*
X74051602Y-48916803D01*
X74065470Y-48910677D01*
X74069389Y-48909187D01*
X74100797Y-48897246D01*
X74122819Y-48890828D01*
X74169844Y-48881113D01*
X74190697Y-48878376D01*
X74299347Y-48872141D01*
X74299351Y-48872140D01*
X74303548Y-48871116D01*
X74337688Y-48867010D01*
X80234560Y-48867010D01*
X80306560Y-48886302D01*
X80336383Y-48909187D01*
X86558843Y-55131647D01*
X86596113Y-55196200D01*
X86601020Y-55233470D01*
X86601020Y-82100618D01*
X86601020Y-82232402D01*
X86621484Y-82308778D01*
X86635128Y-82359698D01*
X86701018Y-82473821D01*
X86701024Y-82473829D01*
X87138206Y-82911010D01*
X87398426Y-83171230D01*
X87415662Y-83194820D01*
X87523336Y-83296140D01*
X87763659Y-83536463D01*
X87773642Y-83547538D01*
X87786609Y-83563515D01*
X87792616Y-83571467D01*
X87870817Y-83682790D01*
X87872647Y-83685367D01*
X87878219Y-83690698D01*
X87898400Y-83714741D01*
X87912359Y-83735632D01*
X87918570Y-83744928D01*
X88023099Y-83849457D01*
X88023104Y-83849461D01*
X88146020Y-83931591D01*
X88146022Y-83931593D01*
X88226029Y-83964733D01*
X88282607Y-83988168D01*
X88427602Y-84017010D01*
X88575438Y-84017010D01*
X88720433Y-83988168D01*
X88857015Y-83931594D01*
X88857015Y-83931593D01*
X88857017Y-83931593D01*
X88857019Y-83931591D01*
X88979936Y-83849461D01*
X89084471Y-83744926D01*
X89166604Y-83622005D01*
X89223178Y-83485423D01*
X89252020Y-83340428D01*
X89252020Y-83192592D01*
X89223178Y-83047597D01*
X89166604Y-82911015D01*
X89166603Y-82911012D01*
X89166601Y-82911010D01*
X89084471Y-82788094D01*
X89084467Y-82788089D01*
X88979940Y-82683562D01*
X88979935Y-82683558D01*
X88857019Y-82601428D01*
X88857017Y-82601426D01*
X88720436Y-82544852D01*
X88639794Y-82528811D01*
X88639794Y-82528810D01*
X88633403Y-82527538D01*
X88607603Y-82519934D01*
X88582025Y-82517319D01*
X88575441Y-82516010D01*
X88574248Y-82515892D01*
X88561911Y-82515264D01*
X88450445Y-82503871D01*
X88426385Y-82502368D01*
X88424559Y-82502326D01*
X88400487Y-82502724D01*
X88269593Y-82510056D01*
X88269578Y-82510056D01*
X88265685Y-82510275D01*
X88265028Y-82510341D01*
X88263418Y-82510442D01*
X88263243Y-82510421D01*
X88236675Y-82512114D01*
X88235773Y-82512171D01*
X88235441Y-82512193D01*
X88235439Y-82512192D01*
X88235275Y-82512203D01*
X88199055Y-82504886D01*
X88162360Y-82497518D01*
X88162261Y-82497454D01*
X88162211Y-82497444D01*
X88162114Y-82497358D01*
X88134577Y-82479506D01*
X88101834Y-82452460D01*
X88096725Y-82448934D01*
X88097033Y-82448486D01*
X88072908Y-82430084D01*
X87644197Y-82001373D01*
X87606927Y-81936820D01*
X87602020Y-81899550D01*
X87602020Y-78533485D01*
X87621312Y-78461485D01*
X87674020Y-78408777D01*
X87746020Y-78389485D01*
X87818020Y-78408777D01*
X87826022Y-78413754D01*
X87944010Y-78492591D01*
X87944012Y-78492593D01*
X88024019Y-78525733D01*
X88080597Y-78549168D01*
X88225592Y-78578010D01*
X88373428Y-78578010D01*
X88518423Y-78549168D01*
X88655005Y-78492594D01*
X88655005Y-78492593D01*
X88655007Y-78492593D01*
X88655009Y-78492591D01*
X88777926Y-78410461D01*
X88882461Y-78305926D01*
X88964594Y-78183005D01*
X89021168Y-78046423D01*
X89050010Y-77901428D01*
X89050010Y-77753592D01*
X89038260Y-77694528D01*
X89035721Y-77674517D01*
X89034622Y-77654958D01*
X89012809Y-77566195D01*
X89008862Y-77551684D01*
X89008535Y-77550589D01*
X89003955Y-77536508D01*
X88975092Y-77454568D01*
X88975091Y-77454566D01*
X88975087Y-77454554D01*
X88966924Y-77433826D01*
X88966243Y-77432265D01*
X88956500Y-77412015D01*
X88883290Y-77273150D01*
X88876185Y-77260420D01*
X88876173Y-77260399D01*
X88875602Y-77259431D01*
X88867804Y-77246912D01*
X88844884Y-77212022D01*
X88838636Y-77202510D01*
X88837562Y-77200851D01*
X88804064Y-77148219D01*
X88795480Y-77132697D01*
X88783810Y-77108132D01*
X88774417Y-77082209D01*
X88766304Y-77050657D01*
X88762136Y-77025063D01*
X88759744Y-76991570D01*
X88755010Y-76925264D01*
X88754478Y-76923178D01*
X88750010Y-76887586D01*
X88750010Y-76760442D01*
X88753818Y-76727544D01*
X88755201Y-76721651D01*
X88758332Y-76653148D01*
X88759899Y-76637561D01*
X88762999Y-76617666D01*
X88769555Y-76591731D01*
X88769625Y-76591535D01*
X88786316Y-76544439D01*
X88799050Y-76517654D01*
X88842539Y-76446236D01*
X88844511Y-76442950D01*
X88931251Y-76296393D01*
X88942469Y-76275654D01*
X88943266Y-76274034D01*
X88952861Y-76252465D01*
X88991629Y-76155378D01*
X88998227Y-76137204D01*
X88998687Y-76135800D01*
X89004104Y-76117315D01*
X89033493Y-76003900D01*
X89035509Y-75995649D01*
X89035653Y-75995022D01*
X89038716Y-75979957D01*
X89038660Y-75974047D01*
X89041422Y-75944600D01*
X89050010Y-75901429D01*
X89050010Y-75753593D01*
X89038261Y-75694531D01*
X89035721Y-75674517D01*
X89035580Y-75672005D01*
X89034622Y-75654958D01*
X89012809Y-75566195D01*
X89008862Y-75551684D01*
X89008535Y-75550589D01*
X89003955Y-75536508D01*
X88975092Y-75454568D01*
X88975091Y-75454566D01*
X88975087Y-75454554D01*
X88966924Y-75433826D01*
X88966243Y-75432265D01*
X88956500Y-75412015D01*
X88883290Y-75273150D01*
X88876185Y-75260420D01*
X88876173Y-75260399D01*
X88875602Y-75259431D01*
X88867804Y-75246912D01*
X88846081Y-75213844D01*
X88838636Y-75202510D01*
X88837562Y-75200851D01*
X88804064Y-75148219D01*
X88795480Y-75132697D01*
X88783810Y-75108132D01*
X88774417Y-75082209D01*
X88766304Y-75050657D01*
X88762136Y-75025063D01*
X88757562Y-74961012D01*
X88755010Y-74925264D01*
X88754478Y-74923178D01*
X88750010Y-74887586D01*
X88750010Y-74760442D01*
X88753818Y-74727544D01*
X88755201Y-74721650D01*
X88758332Y-74653156D01*
X88759899Y-74637561D01*
X88763000Y-74617661D01*
X88769555Y-74591731D01*
X88770312Y-74589597D01*
X88786316Y-74544439D01*
X88799050Y-74517654D01*
X88842539Y-74446236D01*
X88844511Y-74442950D01*
X88931251Y-74296393D01*
X88942469Y-74275654D01*
X88943266Y-74274034D01*
X88952861Y-74252465D01*
X88991629Y-74155378D01*
X88998227Y-74137204D01*
X88998687Y-74135800D01*
X89004104Y-74117315D01*
X89033493Y-74003900D01*
X89035509Y-73995649D01*
X89035653Y-73995022D01*
X89038716Y-73979957D01*
X89038660Y-73974047D01*
X89041422Y-73944600D01*
X89050010Y-73901429D01*
X89050010Y-73753593D01*
X89043047Y-73718592D01*
X89038260Y-73694528D01*
X89035721Y-73674517D01*
X89034622Y-73654958D01*
X89012809Y-73566195D01*
X89008862Y-73551684D01*
X89008535Y-73550589D01*
X89003955Y-73536508D01*
X88975092Y-73454568D01*
X88975091Y-73454566D01*
X88975087Y-73454554D01*
X88966924Y-73433826D01*
X88966243Y-73432265D01*
X88956500Y-73412015D01*
X88883290Y-73273150D01*
X88876185Y-73260420D01*
X88876173Y-73260399D01*
X88875602Y-73259431D01*
X88867804Y-73246912D01*
X88852634Y-73223819D01*
X88838636Y-73202510D01*
X88837562Y-73200851D01*
X88804064Y-73148219D01*
X88795480Y-73132697D01*
X88783810Y-73108132D01*
X88774417Y-73082209D01*
X88766304Y-73050657D01*
X88762136Y-73025063D01*
X88757280Y-72957063D01*
X88755010Y-72925264D01*
X88754478Y-72923178D01*
X88750010Y-72887586D01*
X88750010Y-72759442D01*
X88750482Y-72747796D01*
X88751354Y-72737042D01*
X88755201Y-72720651D01*
X88758448Y-72649617D01*
X88758654Y-72647085D01*
X88758915Y-72646353D01*
X88759899Y-72636561D01*
X88762999Y-72616666D01*
X88769555Y-72590731D01*
X88786316Y-72543440D01*
X88799050Y-72516654D01*
X88842539Y-72445236D01*
X88844511Y-72441950D01*
X88931251Y-72295393D01*
X88942469Y-72274654D01*
X88943266Y-72273034D01*
X88952861Y-72251465D01*
X88991629Y-72154378D01*
X88998227Y-72136204D01*
X88998687Y-72134800D01*
X89004104Y-72116315D01*
X89033493Y-72002900D01*
X89035509Y-71994649D01*
X89035653Y-71994022D01*
X89038716Y-71978957D01*
X89038660Y-71973047D01*
X89041422Y-71943600D01*
X89050010Y-71900429D01*
X89050010Y-71752593D01*
X89048356Y-71744280D01*
X89038260Y-71693528D01*
X89035721Y-71673517D01*
X89034622Y-71653958D01*
X89012809Y-71565195D01*
X89008862Y-71550684D01*
X89008535Y-71549589D01*
X89003955Y-71535508D01*
X88975092Y-71453568D01*
X88975091Y-71453566D01*
X88975087Y-71453554D01*
X88966924Y-71432826D01*
X88966243Y-71431265D01*
X88956500Y-71411015D01*
X88883290Y-71272150D01*
X88876185Y-71259420D01*
X88876173Y-71259399D01*
X88875602Y-71258431D01*
X88867804Y-71245912D01*
X88854995Y-71226413D01*
X88838636Y-71201510D01*
X88837562Y-71199851D01*
X88804064Y-71147219D01*
X88795480Y-71131697D01*
X88783810Y-71107132D01*
X88774417Y-71081209D01*
X88766304Y-71049657D01*
X88762136Y-71024063D01*
X88755010Y-70924266D01*
X88755009Y-70924261D01*
X88754478Y-70922178D01*
X88750010Y-70886586D01*
X88750010Y-70760442D01*
X88753818Y-70727544D01*
X88755201Y-70721651D01*
X88758332Y-70653148D01*
X88759899Y-70637561D01*
X88762999Y-70617666D01*
X88769555Y-70591731D01*
X88786316Y-70544440D01*
X88799050Y-70517654D01*
X88842539Y-70446236D01*
X88844511Y-70442950D01*
X88931251Y-70296393D01*
X88942469Y-70275654D01*
X88943266Y-70274034D01*
X88952861Y-70252465D01*
X88991629Y-70155378D01*
X88998227Y-70137204D01*
X88998687Y-70135800D01*
X89004104Y-70117315D01*
X89033493Y-70003900D01*
X89035509Y-69995649D01*
X89035653Y-69995022D01*
X89038716Y-69979957D01*
X89038660Y-69974047D01*
X89041422Y-69944600D01*
X89050010Y-69901429D01*
X89050010Y-69753593D01*
X89038261Y-69694531D01*
X89035721Y-69674517D01*
X89034622Y-69654958D01*
X89012809Y-69566195D01*
X89008862Y-69551684D01*
X89008535Y-69550589D01*
X89003955Y-69536508D01*
X88975092Y-69454568D01*
X88975091Y-69454566D01*
X88975087Y-69454554D01*
X88966924Y-69433826D01*
X88966243Y-69432265D01*
X88956500Y-69412015D01*
X88883290Y-69273150D01*
X88876185Y-69260420D01*
X88876173Y-69260399D01*
X88875602Y-69259431D01*
X88867804Y-69246912D01*
X88860879Y-69236371D01*
X88838636Y-69202510D01*
X88837562Y-69200851D01*
X88804064Y-69148219D01*
X88795480Y-69132697D01*
X88783810Y-69108132D01*
X88774417Y-69082209D01*
X88766304Y-69050657D01*
X88762136Y-69025063D01*
X88761552Y-69016889D01*
X88755010Y-68925264D01*
X88754478Y-68923178D01*
X88750010Y-68887586D01*
X88750010Y-68760442D01*
X88753818Y-68727544D01*
X88755201Y-68721650D01*
X88758332Y-68653156D01*
X88759899Y-68637561D01*
X88762999Y-68617666D01*
X88769555Y-68591731D01*
X88786316Y-68544440D01*
X88799050Y-68517654D01*
X88842539Y-68446236D01*
X88844511Y-68442950D01*
X88931251Y-68296393D01*
X88942469Y-68275654D01*
X88943266Y-68274034D01*
X88952861Y-68252465D01*
X88991629Y-68155378D01*
X88998227Y-68137204D01*
X88998687Y-68135800D01*
X89004104Y-68117315D01*
X89033493Y-68003900D01*
X89035509Y-67995649D01*
X89035653Y-67995022D01*
X89038716Y-67979957D01*
X89038660Y-67974047D01*
X89041422Y-67944600D01*
X89050010Y-67901429D01*
X89050010Y-67753593D01*
X89038261Y-67694531D01*
X89035721Y-67674517D01*
X89035721Y-67674512D01*
X89034622Y-67654958D01*
X89012809Y-67566195D01*
X89008862Y-67551684D01*
X89008535Y-67550589D01*
X89003955Y-67536508D01*
X88975092Y-67454568D01*
X88975091Y-67454566D01*
X88975087Y-67454554D01*
X88966924Y-67433826D01*
X88966243Y-67432265D01*
X88956500Y-67412015D01*
X88883290Y-67273150D01*
X88876185Y-67260420D01*
X88876173Y-67260399D01*
X88875602Y-67259431D01*
X88867804Y-67246912D01*
X88844884Y-67212022D01*
X88838636Y-67202510D01*
X88837562Y-67200851D01*
X88804064Y-67148219D01*
X88795480Y-67132697D01*
X88783810Y-67108132D01*
X88774417Y-67082209D01*
X88766304Y-67050657D01*
X88762136Y-67025063D01*
X88761377Y-67014438D01*
X88755010Y-66925264D01*
X88754478Y-66923178D01*
X88750010Y-66887586D01*
X88750010Y-66760442D01*
X88753818Y-66727544D01*
X88755201Y-66721650D01*
X88757158Y-66678839D01*
X88758332Y-66653148D01*
X88759899Y-66637561D01*
X88762999Y-66617666D01*
X88769555Y-66591731D01*
X88786316Y-66544440D01*
X88799050Y-66517654D01*
X88842539Y-66446236D01*
X88844511Y-66442950D01*
X88931251Y-66296393D01*
X88942469Y-66275654D01*
X88943266Y-66274034D01*
X88952861Y-66252465D01*
X88991629Y-66155378D01*
X88998227Y-66137204D01*
X88998687Y-66135800D01*
X89004104Y-66117315D01*
X89033493Y-66003900D01*
X89035509Y-65995649D01*
X89035653Y-65995022D01*
X89038716Y-65979957D01*
X89038660Y-65974047D01*
X89041422Y-65944600D01*
X89050010Y-65901429D01*
X89050010Y-65753593D01*
X89038261Y-65694531D01*
X89035721Y-65674517D01*
X89035042Y-65662439D01*
X89034622Y-65654958D01*
X89012809Y-65566195D01*
X89008862Y-65551684D01*
X89008535Y-65550589D01*
X89003955Y-65536508D01*
X88975092Y-65454568D01*
X88975091Y-65454566D01*
X88975087Y-65454554D01*
X88966924Y-65433826D01*
X88966243Y-65432265D01*
X88956500Y-65412015D01*
X88883290Y-65273150D01*
X88876185Y-65260420D01*
X88876173Y-65260399D01*
X88875602Y-65259431D01*
X88867804Y-65246912D01*
X88851626Y-65222285D01*
X88838636Y-65202510D01*
X88837562Y-65200851D01*
X88804064Y-65148219D01*
X88795480Y-65132697D01*
X88783810Y-65108132D01*
X88774417Y-65082209D01*
X88766304Y-65050657D01*
X88762136Y-65025063D01*
X88760262Y-64998823D01*
X88755010Y-64925264D01*
X88754478Y-64923178D01*
X88750010Y-64887586D01*
X88750010Y-64758442D01*
X88750482Y-64746796D01*
X88751354Y-64736042D01*
X88755201Y-64719651D01*
X88758448Y-64648617D01*
X88758654Y-64646085D01*
X88758915Y-64645353D01*
X88759899Y-64635561D01*
X88762999Y-64615666D01*
X88769555Y-64589731D01*
X88772201Y-64582267D01*
X88786316Y-64542439D01*
X88799050Y-64515654D01*
X88842539Y-64444236D01*
X88844511Y-64440950D01*
X88931251Y-64294393D01*
X88942469Y-64273654D01*
X88943266Y-64272034D01*
X88952861Y-64250465D01*
X88991629Y-64153378D01*
X88998227Y-64135204D01*
X88998687Y-64133800D01*
X89004104Y-64115315D01*
X89033493Y-64001900D01*
X89035509Y-63993649D01*
X89035653Y-63993022D01*
X89038716Y-63977957D01*
X89038660Y-63972047D01*
X89041422Y-63942600D01*
X89050010Y-63899429D01*
X89050010Y-63751595D01*
X89050010Y-63751592D01*
X89038252Y-63692486D01*
X89035717Y-63672518D01*
X89034615Y-63652932D01*
X89012839Y-63564352D01*
X89008890Y-63549841D01*
X89008562Y-63548743D01*
X89003959Y-63534598D01*
X89003955Y-63534585D01*
X88989526Y-63493665D01*
X88975115Y-63452792D01*
X88966898Y-63431957D01*
X88966210Y-63430384D01*
X88961721Y-63421069D01*
X88956460Y-63410150D01*
X88939366Y-63377784D01*
X88883254Y-63271536D01*
X88876046Y-63258652D01*
X88875468Y-63257675D01*
X88867580Y-63245055D01*
X88867569Y-63245038D01*
X88837878Y-63200009D01*
X88836759Y-63198286D01*
X88803140Y-63145683D01*
X88794505Y-63130133D01*
X88782887Y-63105777D01*
X88773429Y-63079776D01*
X88765358Y-63048505D01*
X88761160Y-63022832D01*
X88754017Y-62923177D01*
X88753497Y-62921144D01*
X88749020Y-62885513D01*
X88749020Y-62406418D01*
X88749490Y-62394792D01*
X88750360Y-62384040D01*
X88754212Y-62367622D01*
X88757463Y-62296349D01*
X88757666Y-62293851D01*
X88757927Y-62293118D01*
X88758908Y-62283340D01*
X88762041Y-62263201D01*
X88768572Y-62237321D01*
X88785463Y-62189582D01*
X88798104Y-62162921D01*
X88841261Y-62091799D01*
X88842228Y-62090194D01*
X88842304Y-62090067D01*
X88843329Y-62088341D01*
X88929717Y-61941806D01*
X88940840Y-61921168D01*
X88941631Y-61919555D01*
X88951160Y-61898069D01*
X88989809Y-61801015D01*
X88996345Y-61782975D01*
X88996802Y-61781578D01*
X89002197Y-61763144D01*
X89031530Y-61649816D01*
X89033557Y-61641506D01*
X89033700Y-61640882D01*
X89036730Y-61625958D01*
X89036674Y-61620028D01*
X89039434Y-61590588D01*
X89048020Y-61547428D01*
X89048020Y-61399592D01*
X89019178Y-61254597D01*
X88962604Y-61118015D01*
X88962603Y-61118012D01*
X88962601Y-61118010D01*
X88880471Y-60995094D01*
X88880467Y-60995089D01*
X88775940Y-60890562D01*
X88775935Y-60890558D01*
X88653019Y-60808428D01*
X88653017Y-60808426D01*
X88516434Y-60751852D01*
X88371438Y-60723010D01*
X88223602Y-60723010D01*
X88078605Y-60751852D01*
X87942025Y-60808425D01*
X87861985Y-60861906D01*
X87826020Y-60885937D01*
X87755438Y-60909897D01*
X87682330Y-60895355D01*
X87626288Y-60846207D01*
X87602328Y-60775623D01*
X87602020Y-60766205D01*
X87602020Y-54900620D01*
X87602020Y-54900618D01*
X87567912Y-54773324D01*
X87567911Y-54773323D01*
X87567911Y-54773321D01*
X87502021Y-54659198D01*
X87502019Y-54659195D01*
X87408834Y-54566010D01*
X85661642Y-52818818D01*
X83893619Y-51050794D01*
X83798870Y-50956045D01*
X90803020Y-50956045D01*
X90803020Y-51162974D01*
X90843390Y-51365932D01*
X90908993Y-51524310D01*
X90921920Y-51555518D01*
X90922580Y-51557110D01*
X90971569Y-51630429D01*
X90981846Y-51648512D01*
X90990090Y-51665823D01*
X91102346Y-51820030D01*
X91193850Y-51945731D01*
X91194988Y-51947284D01*
X91296834Y-52085356D01*
X91299168Y-52088519D01*
X91306568Y-52099588D01*
X91328298Y-52135590D01*
X91335695Y-52149517D01*
X91350180Y-52180813D01*
X91356718Y-52197629D01*
X91368450Y-52234495D01*
X91372623Y-52250884D01*
X91382010Y-52299538D01*
X91384377Y-52318488D01*
X91397891Y-52551743D01*
X91397892Y-52551746D01*
X91398901Y-52555875D01*
X91403020Y-52590068D01*
X91403020Y-55690821D01*
X91427233Y-55781183D01*
X91427234Y-55781186D01*
X91433720Y-55805396D01*
X91493031Y-55908124D01*
X91493035Y-55908129D01*
X98622283Y-63037376D01*
X98630187Y-63045946D01*
X98637167Y-63054159D01*
X98646044Y-63068479D01*
X98693985Y-63121014D01*
X98695624Y-63122943D01*
X98695957Y-63123646D01*
X98702186Y-63131267D01*
X98714059Y-63147524D01*
X98727758Y-63170492D01*
X98741006Y-63198286D01*
X98749344Y-63215777D01*
X98759282Y-63243727D01*
X98779025Y-63324954D01*
X98779942Y-63328622D01*
X98822259Y-63493665D01*
X98823554Y-63498013D01*
X98828996Y-63516276D01*
X98829578Y-63517985D01*
X98838042Y-63540010D01*
X98866546Y-63606411D01*
X98879276Y-63636065D01*
X98887379Y-63653422D01*
X98888050Y-63654747D01*
X98897370Y-63671807D01*
X98951767Y-63764257D01*
X98956798Y-63772806D01*
X98961119Y-63779926D01*
X98961135Y-63779951D01*
X98961460Y-63780472D01*
X98970012Y-63793398D01*
X98970020Y-63793407D01*
X98974252Y-63797561D01*
X98993112Y-63820325D01*
X99017569Y-63856926D01*
X99017572Y-63856930D01*
X99122099Y-63961457D01*
X99122104Y-63961461D01*
X99245020Y-64043591D01*
X99245022Y-64043593D01*
X99325029Y-64076733D01*
X99381607Y-64100168D01*
X99526602Y-64129010D01*
X99674438Y-64129010D01*
X99819433Y-64100168D01*
X99956015Y-64043594D01*
X99956015Y-64043593D01*
X99956017Y-64043593D01*
X99956019Y-64043591D01*
X99984082Y-64024840D01*
X100078936Y-63961461D01*
X100183471Y-63856926D01*
X100265604Y-63734005D01*
X100322178Y-63597423D01*
X100351020Y-63452428D01*
X100351020Y-63304592D01*
X100322178Y-63159597D01*
X100276391Y-63049057D01*
X100265603Y-63023012D01*
X100265601Y-63023010D01*
X100183471Y-62900094D01*
X100183467Y-62900089D01*
X100078935Y-62795557D01*
X100028875Y-62762109D01*
X100012928Y-62749755D01*
X99998314Y-62736696D01*
X99920132Y-62689359D01*
X99907347Y-62682034D01*
X99907344Y-62682032D01*
X99906360Y-62681499D01*
X99892866Y-62674619D01*
X99814506Y-62637082D01*
X99794084Y-62628201D01*
X99794066Y-62628194D01*
X99794057Y-62628190D01*
X99792481Y-62627572D01*
X99792478Y-62627571D01*
X99792468Y-62627567D01*
X99771312Y-62620155D01*
X99621303Y-62573715D01*
X99606920Y-62569646D01*
X99605809Y-62569361D01*
X99595059Y-62566870D01*
X99591815Y-62566119D01*
X99588710Y-62565476D01*
X99539913Y-62555371D01*
X99537887Y-62554936D01*
X99476947Y-62541399D01*
X99459895Y-62536491D01*
X99449272Y-62532710D01*
X99434308Y-62527385D01*
X99409335Y-62515695D01*
X99381283Y-62499119D01*
X99360232Y-62483967D01*
X99284619Y-62418435D01*
X99282762Y-62417332D01*
X99254440Y-62395327D01*
X92346197Y-55487084D01*
X92308927Y-55422531D01*
X92304020Y-55385261D01*
X92304020Y-52582317D01*
X92304228Y-52574584D01*
X92304852Y-52562970D01*
X92309224Y-52542943D01*
X92313411Y-52403811D01*
X92313502Y-52402128D01*
X92313628Y-52401739D01*
X92314194Y-52393793D01*
X92324748Y-52299920D01*
X92327187Y-52285179D01*
X92337433Y-52238490D01*
X92341865Y-52222674D01*
X92349366Y-52200802D01*
X92359148Y-52178592D01*
X92405265Y-52094031D01*
X92415878Y-52077399D01*
X92417445Y-52075280D01*
X92440650Y-52043884D01*
X92511700Y-51947760D01*
X92513323Y-51945548D01*
X92716942Y-51665831D01*
X92720353Y-51661049D01*
X92720393Y-51660993D01*
X92720655Y-51660618D01*
X92727904Y-51649755D01*
X92730411Y-51643516D01*
X92744276Y-51617247D01*
X92784461Y-51557108D01*
X92863650Y-51365930D01*
X92904020Y-51162975D01*
X92904020Y-50956045D01*
X92863650Y-50753090D01*
X92784461Y-50561912D01*
X92669497Y-50389855D01*
X92669495Y-50389852D01*
X92523177Y-50243534D01*
X92351117Y-50128568D01*
X92159942Y-50049380D01*
X92159943Y-50049380D01*
X91956985Y-50009010D01*
X91750055Y-50009010D01*
X91547097Y-50049380D01*
X91355922Y-50128568D01*
X91183862Y-50243534D01*
X91037544Y-50389852D01*
X90922578Y-50561912D01*
X90843390Y-50753087D01*
X90803020Y-50956045D01*
X83798870Y-50956045D01*
X80808839Y-47966014D01*
X80808831Y-47966008D01*
X80694708Y-47900118D01*
X80631059Y-47883064D01*
X80567412Y-47866010D01*
X80567410Y-47866010D01*
X74333169Y-47866010D01*
X74322619Y-47865623D01*
X74311645Y-47864816D01*
X74294189Y-47860806D01*
X74209951Y-47857346D01*
X74207619Y-47857175D01*
X74207006Y-47856961D01*
X74197948Y-47856135D01*
X74182982Y-47854012D01*
X74164925Y-47851451D01*
X74141063Y-47845963D01*
X74069160Y-47822839D01*
X74048671Y-47814462D01*
X74015266Y-47797702D01*
X73989428Y-47784737D01*
X73986978Y-47783523D01*
X73986559Y-47783317D01*
X73984453Y-47782297D01*
X73838750Y-47712525D01*
X73823098Y-47705564D01*
X73823091Y-47705561D01*
X73823084Y-47705558D01*
X73821852Y-47705051D01*
X73821839Y-47705046D01*
X73821834Y-47705044D01*
X73805292Y-47698790D01*
X73710288Y-47665992D01*
X73696500Y-47661596D01*
X73695443Y-47661287D01*
X73695432Y-47661284D01*
X73695425Y-47661282D01*
X73681921Y-47657661D01*
X73573471Y-47631226D01*
X73573462Y-47631224D01*
X73573446Y-47631220D01*
X73567310Y-47629792D01*
X73566874Y-47629695D01*
X73554005Y-47627128D01*
X73554000Y-47627127D01*
X73547200Y-47627191D01*
X73517776Y-47624431D01*
X73475438Y-47616010D01*
X73327602Y-47616010D01*
X73182605Y-47644852D01*
X73046022Y-47701426D01*
X73046020Y-47701428D01*
X72923104Y-47783558D01*
X72923099Y-47783562D01*
X72818572Y-47888089D01*
X72818568Y-47888094D01*
X72736438Y-48011010D01*
X72736436Y-48011012D01*
X72679862Y-48147595D01*
X72651020Y-48292592D01*
X71369590Y-48292592D01*
X71369590Y-42012620D01*
X71388882Y-41940621D01*
X71441590Y-41887913D01*
X71513590Y-41868621D01*
X71585590Y-41887913D01*
X71638298Y-41940621D01*
X71643324Y-41950132D01*
X71664594Y-41994299D01*
X71664596Y-41994302D01*
X71664600Y-41994310D01*
X71831939Y-42260628D01*
X71831943Y-42260633D01*
X72016257Y-42491755D01*
X72028065Y-42506561D01*
X72250468Y-42728964D01*
X72250472Y-42728967D01*
X72250476Y-42728971D01*
X72480409Y-42912337D01*
X72496401Y-42925090D01*
X72762719Y-43092429D01*
X72762723Y-43092431D01*
X72762731Y-43092436D01*
X73046126Y-43228912D01*
X73046125Y-43228912D01*
X73343016Y-43332798D01*
X73343019Y-43332798D01*
X73343020Y-43332799D01*
X73649680Y-43402792D01*
X73962247Y-43438010D01*
X73962255Y-43438010D01*
X74276785Y-43438010D01*
X74276793Y-43438010D01*
X74589360Y-43402792D01*
X74896020Y-43332799D01*
X74965878Y-43308355D01*
X75192914Y-43228912D01*
X75199079Y-43225943D01*
X75476309Y-43092436D01*
X75742643Y-42925087D01*
X75988564Y-42728971D01*
X76210981Y-42506554D01*
X76407097Y-42260633D01*
X76574446Y-41994299D01*
X76710922Y-41710904D01*
X76808029Y-41433385D01*
X76814808Y-41414013D01*
X76814809Y-41414010D01*
X76884802Y-41107350D01*
X76889272Y-41067677D01*
X78100530Y-41067677D01*
X78100530Y-42657409D01*
X78100531Y-42657418D01*
X78103444Y-42682539D01*
X78103447Y-42682547D01*
X78148820Y-42785309D01*
X78148827Y-42785319D01*
X78228260Y-42864752D01*
X78228265Y-42864756D01*
X78331039Y-42910135D01*
X78356165Y-42913050D01*
X79945894Y-42913049D01*
X79971021Y-42910135D01*
X80035640Y-42881603D01*
X80073789Y-42864759D01*
X80073790Y-42864758D01*
X80073795Y-42864756D01*
X80153236Y-42785315D01*
X80198615Y-42682541D01*
X80201530Y-42657415D01*
X80201529Y-41759085D01*
X80640530Y-41759085D01*
X80640530Y-41966015D01*
X80649989Y-42013567D01*
X80680900Y-42168972D01*
X80760088Y-42360147D01*
X80875054Y-42532207D01*
X81021372Y-42678525D01*
X81193432Y-42793491D01*
X81384607Y-42872679D01*
X81384609Y-42872679D01*
X81384610Y-42872680D01*
X81587565Y-42913050D01*
X81794495Y-42913050D01*
X81997450Y-42872680D01*
X82188628Y-42793491D01*
X82360685Y-42678527D01*
X82507007Y-42532205D01*
X82621971Y-42360148D01*
X82701160Y-42168970D01*
X82741530Y-41966015D01*
X82741530Y-41759085D01*
X83180530Y-41759085D01*
X83180530Y-41966015D01*
X83189989Y-42013567D01*
X83220900Y-42168972D01*
X83300088Y-42360147D01*
X83415054Y-42532207D01*
X83561372Y-42678525D01*
X83733432Y-42793491D01*
X83924607Y-42872679D01*
X83924609Y-42872679D01*
X83924610Y-42872680D01*
X84127565Y-42913050D01*
X84334495Y-42913050D01*
X84537450Y-42872680D01*
X84728628Y-42793491D01*
X84900685Y-42678527D01*
X85047007Y-42532205D01*
X85161971Y-42360148D01*
X85241160Y-42168970D01*
X85281530Y-41966015D01*
X85281530Y-41768066D01*
X85570530Y-41768066D01*
X85570530Y-41957033D01*
X85600089Y-42143664D01*
X85600090Y-42143668D01*
X85658480Y-42323375D01*
X85658483Y-42323383D01*
X85692874Y-42390879D01*
X85744268Y-42491746D01*
X85744272Y-42491752D01*
X85744274Y-42491755D01*
X85855337Y-42644621D01*
X85988958Y-42778242D01*
X86127225Y-42878698D01*
X86141831Y-42889310D01*
X86310198Y-42975097D01*
X86489912Y-43033490D01*
X86676549Y-43063050D01*
X86676552Y-43063050D01*
X86865508Y-43063050D01*
X86865511Y-43063050D01*
X87052148Y-43033490D01*
X87231862Y-42975097D01*
X87400229Y-42889310D01*
X87482705Y-42829386D01*
X87553101Y-42778242D01*
X87686722Y-42644621D01*
X87761860Y-42541202D01*
X87797790Y-42491749D01*
X87883577Y-42323382D01*
X87941970Y-42143668D01*
X87971530Y-41957031D01*
X87971530Y-41768069D01*
X87971530Y-41768066D01*
X90650530Y-41768066D01*
X90650530Y-41957033D01*
X90680089Y-42143664D01*
X90680090Y-42143668D01*
X90738480Y-42323375D01*
X90738483Y-42323383D01*
X90772874Y-42390879D01*
X90824268Y-42491746D01*
X90824272Y-42491752D01*
X90824274Y-42491755D01*
X90935337Y-42644621D01*
X91068958Y-42778242D01*
X91207225Y-42878698D01*
X91221831Y-42889310D01*
X91390198Y-42975097D01*
X91569912Y-43033490D01*
X91756549Y-43063050D01*
X91756552Y-43063050D01*
X91945508Y-43063050D01*
X91945511Y-43063050D01*
X92132148Y-43033490D01*
X92311862Y-42975097D01*
X92480229Y-42889310D01*
X92562705Y-42829386D01*
X92633101Y-42778242D01*
X92766722Y-42644621D01*
X92841860Y-42541202D01*
X92877790Y-42491749D01*
X92963577Y-42323382D01*
X92984078Y-42260287D01*
X93024675Y-42197772D01*
X93091090Y-42163932D01*
X93165528Y-42167833D01*
X93228043Y-42208430D01*
X93257982Y-42260287D01*
X93278480Y-42323375D01*
X93278483Y-42323383D01*
X93312874Y-42390879D01*
X93364268Y-42491746D01*
X93364272Y-42491752D01*
X93364274Y-42491755D01*
X93475337Y-42644621D01*
X93608958Y-42778242D01*
X93747225Y-42878698D01*
X93761831Y-42889310D01*
X93930198Y-42975097D01*
X94109912Y-43033490D01*
X94296549Y-43063050D01*
X94296552Y-43063050D01*
X94485508Y-43063050D01*
X94485511Y-43063050D01*
X94672148Y-43033490D01*
X94851862Y-42975097D01*
X95020229Y-42889310D01*
X95102705Y-42829386D01*
X95173101Y-42778242D01*
X95306722Y-42644621D01*
X95381860Y-42541202D01*
X95417790Y-42491749D01*
X95503577Y-42323382D01*
X95561970Y-42143668D01*
X95591530Y-41957031D01*
X95591530Y-41768069D01*
X95590107Y-41759085D01*
X95880530Y-41759085D01*
X95880530Y-41966015D01*
X95889989Y-42013567D01*
X95920900Y-42168972D01*
X96000088Y-42360147D01*
X96115054Y-42532207D01*
X96261372Y-42678525D01*
X96433432Y-42793491D01*
X96624607Y-42872679D01*
X96624609Y-42872679D01*
X96624610Y-42872680D01*
X96827565Y-42913050D01*
X97034495Y-42913050D01*
X97237450Y-42872680D01*
X97428628Y-42793491D01*
X97600685Y-42678527D01*
X97747007Y-42532205D01*
X97861971Y-42360148D01*
X97941160Y-42168970D01*
X97981530Y-41966015D01*
X97981530Y-41759085D01*
X98420530Y-41759085D01*
X98420530Y-41966015D01*
X98429989Y-42013567D01*
X98460900Y-42168972D01*
X98540088Y-42360147D01*
X98655054Y-42532207D01*
X98801372Y-42678525D01*
X98973432Y-42793491D01*
X99164607Y-42872679D01*
X99164609Y-42872679D01*
X99164610Y-42872680D01*
X99367565Y-42913050D01*
X99574495Y-42913050D01*
X99777450Y-42872680D01*
X99968628Y-42793491D01*
X100140685Y-42678527D01*
X100287007Y-42532205D01*
X100401971Y-42360148D01*
X100481160Y-42168970D01*
X100521530Y-41966015D01*
X100521530Y-41759085D01*
X100481160Y-41556130D01*
X100469229Y-41527327D01*
X100401971Y-41364952D01*
X100287005Y-41192892D01*
X100140687Y-41046574D01*
X99968627Y-40931608D01*
X99777452Y-40852420D01*
X99777453Y-40852420D01*
X99574495Y-40812050D01*
X99367565Y-40812050D01*
X99164607Y-40852420D01*
X98973432Y-40931608D01*
X98801372Y-41046574D01*
X98655054Y-41192892D01*
X98540088Y-41364952D01*
X98460900Y-41556127D01*
X98433022Y-41696282D01*
X98420530Y-41759085D01*
X97981530Y-41759085D01*
X97941160Y-41556130D01*
X97929229Y-41527327D01*
X97861971Y-41364952D01*
X97747005Y-41192892D01*
X97600687Y-41046574D01*
X97428627Y-40931608D01*
X97237452Y-40852420D01*
X97237453Y-40852420D01*
X97034495Y-40812050D01*
X96827565Y-40812050D01*
X96624607Y-40852420D01*
X96433432Y-40931608D01*
X96261372Y-41046574D01*
X96115054Y-41192892D01*
X96000088Y-41364952D01*
X95920900Y-41556127D01*
X95893022Y-41696282D01*
X95880530Y-41759085D01*
X95590107Y-41759085D01*
X95561970Y-41581432D01*
X95503577Y-41401718D01*
X95417790Y-41233351D01*
X95417785Y-41233344D01*
X95306722Y-41080478D01*
X95173101Y-40946857D01*
X95020235Y-40835794D01*
X95020232Y-40835792D01*
X95020231Y-40835791D01*
X95020229Y-40835790D01*
X94939316Y-40794563D01*
X94851863Y-40750003D01*
X94851855Y-40750000D01*
X94672148Y-40691610D01*
X94672144Y-40691609D01*
X94485513Y-40662050D01*
X94485511Y-40662050D01*
X94296549Y-40662050D01*
X94296546Y-40662050D01*
X94109915Y-40691609D01*
X94109911Y-40691610D01*
X93930204Y-40750000D01*
X93930196Y-40750003D01*
X93761827Y-40835792D01*
X93761824Y-40835794D01*
X93608958Y-40946857D01*
X93475337Y-41080478D01*
X93364274Y-41233344D01*
X93364272Y-41233347D01*
X93278483Y-41401716D01*
X93278482Y-41401720D01*
X93257982Y-41464813D01*
X93217385Y-41527327D01*
X93150969Y-41561167D01*
X93076531Y-41557266D01*
X93014017Y-41516669D01*
X92984078Y-41464813D01*
X92971327Y-41425570D01*
X92963577Y-41401718D01*
X92877790Y-41233351D01*
X92877785Y-41233344D01*
X92766722Y-41080478D01*
X92633101Y-40946857D01*
X92480235Y-40835794D01*
X92480232Y-40835792D01*
X92480231Y-40835791D01*
X92480229Y-40835790D01*
X92399316Y-40794563D01*
X92311863Y-40750003D01*
X92311855Y-40750000D01*
X92132148Y-40691610D01*
X92132144Y-40691609D01*
X91945513Y-40662050D01*
X91945511Y-40662050D01*
X91756549Y-40662050D01*
X91756546Y-40662050D01*
X91569915Y-40691609D01*
X91569911Y-40691610D01*
X91390204Y-40750000D01*
X91390196Y-40750003D01*
X91221827Y-40835792D01*
X91221824Y-40835794D01*
X91068958Y-40946857D01*
X90935337Y-41080478D01*
X90824274Y-41233344D01*
X90824272Y-41233347D01*
X90738483Y-41401716D01*
X90738480Y-41401724D01*
X90680090Y-41581431D01*
X90680089Y-41581435D01*
X90650530Y-41768066D01*
X87971530Y-41768066D01*
X87941970Y-41581432D01*
X87883577Y-41401718D01*
X87797790Y-41233351D01*
X87797785Y-41233344D01*
X87686722Y-41080478D01*
X87553101Y-40946857D01*
X87400235Y-40835794D01*
X87400232Y-40835792D01*
X87400231Y-40835791D01*
X87400229Y-40835790D01*
X87319316Y-40794563D01*
X87231863Y-40750003D01*
X87231855Y-40750000D01*
X87052148Y-40691610D01*
X87052144Y-40691609D01*
X86865513Y-40662050D01*
X86865511Y-40662050D01*
X86676549Y-40662050D01*
X86676546Y-40662050D01*
X86489915Y-40691609D01*
X86489911Y-40691610D01*
X86310204Y-40750000D01*
X86310196Y-40750003D01*
X86141827Y-40835792D01*
X86141824Y-40835794D01*
X85988958Y-40946857D01*
X85855337Y-41080478D01*
X85744274Y-41233344D01*
X85744272Y-41233347D01*
X85658483Y-41401716D01*
X85658480Y-41401724D01*
X85600090Y-41581431D01*
X85600089Y-41581435D01*
X85570530Y-41768066D01*
X85281530Y-41768066D01*
X85281530Y-41759085D01*
X85241160Y-41556130D01*
X85229229Y-41527327D01*
X85161971Y-41364952D01*
X85047005Y-41192892D01*
X84900687Y-41046574D01*
X84728627Y-40931608D01*
X84537452Y-40852420D01*
X84537453Y-40852420D01*
X84334495Y-40812050D01*
X84127565Y-40812050D01*
X83924607Y-40852420D01*
X83733432Y-40931608D01*
X83561372Y-41046574D01*
X83415054Y-41192892D01*
X83300088Y-41364952D01*
X83220900Y-41556127D01*
X83193022Y-41696282D01*
X83180530Y-41759085D01*
X82741530Y-41759085D01*
X82701160Y-41556130D01*
X82689229Y-41527327D01*
X82621971Y-41364952D01*
X82507005Y-41192892D01*
X82360687Y-41046574D01*
X82188627Y-40931608D01*
X81997452Y-40852420D01*
X81997453Y-40852420D01*
X81794495Y-40812050D01*
X81587565Y-40812050D01*
X81384607Y-40852420D01*
X81193432Y-40931608D01*
X81021372Y-41046574D01*
X80875054Y-41192892D01*
X80760088Y-41364952D01*
X80680900Y-41556127D01*
X80653022Y-41696282D01*
X80640530Y-41759085D01*
X80201529Y-41759085D01*
X80201529Y-41067686D01*
X80198615Y-41042559D01*
X80198612Y-41042552D01*
X80153239Y-40939790D01*
X80153236Y-40939786D01*
X80153236Y-40939785D01*
X80153234Y-40939783D01*
X80153232Y-40939780D01*
X80073799Y-40860347D01*
X80073794Y-40860343D01*
X80018194Y-40835794D01*
X79971021Y-40814965D01*
X79971017Y-40814964D01*
X79971016Y-40814964D01*
X79945899Y-40812050D01*
X78356170Y-40812050D01*
X78356161Y-40812051D01*
X78331040Y-40814964D01*
X78331032Y-40814967D01*
X78228270Y-40860340D01*
X78228260Y-40860347D01*
X78148827Y-40939780D01*
X78148823Y-40939785D01*
X78117344Y-41011080D01*
X78103449Y-41042552D01*
X78103445Y-41042560D01*
X78103444Y-41042563D01*
X78100530Y-41067677D01*
X76889272Y-41067677D01*
X76920020Y-40794783D01*
X76920020Y-40480237D01*
X76884802Y-40167670D01*
X76814809Y-39861010D01*
X76804687Y-39832084D01*
X76710922Y-39564115D01*
X76644416Y-39426015D01*
X76574446Y-39280721D01*
X76574441Y-39280713D01*
X76574439Y-39280709D01*
X76407100Y-39014391D01*
X76335664Y-38924813D01*
X76210981Y-38768466D01*
X76210977Y-38768462D01*
X76210974Y-38768458D01*
X75988571Y-38546055D01*
X75988566Y-38546051D01*
X75988564Y-38546049D01*
X75742643Y-38349933D01*
X75742638Y-38349929D01*
X75476320Y-38182590D01*
X75476316Y-38182588D01*
X75476313Y-38182586D01*
X75476309Y-38182584D01*
X75433936Y-38162178D01*
X75377439Y-38113557D01*
X75352821Y-38043199D01*
X75366679Y-37969959D01*
X75415301Y-37913461D01*
X75485659Y-37888843D01*
X75496391Y-37888440D01*
X78770686Y-37888440D01*
X78842683Y-37907732D01*
G37*
%TD.AperFunction*%
%TD*%
%TA.AperFunction,Conductor*%
%TO.N,/CS*%
G36*
X107970450Y-39151112D02*
G01*
X107975418Y-39158562D01*
X107975518Y-39159139D01*
X108002559Y-39343819D01*
X108002671Y-39344995D01*
X108010287Y-39516643D01*
X108010274Y-39517910D01*
X107991764Y-39807032D01*
X107991748Y-39807245D01*
X107978354Y-39969789D01*
X107984397Y-40124835D01*
X107984705Y-40132724D01*
X108009725Y-40225402D01*
X108024449Y-40279939D01*
X108024451Y-40279946D01*
X108061180Y-40356854D01*
X108061184Y-40356861D01*
X108096587Y-40413415D01*
X108111533Y-40437290D01*
X108182488Y-40528423D01*
X108265611Y-40617884D01*
X108268732Y-40626276D01*
X108265313Y-40634120D01*
X108069190Y-40830243D01*
X108060917Y-40833670D01*
X108052889Y-40830481D01*
X107944078Y-40727851D01*
X107836588Y-40639347D01*
X107836581Y-40639342D01*
X107736938Y-40569552D01*
X107736923Y-40569542D01*
X107643264Y-40515164D01*
X107643258Y-40515161D01*
X107466804Y-40439689D01*
X107292820Y-40386885D01*
X107292821Y-40386881D01*
X107292794Y-40386877D01*
X107088681Y-40324428D01*
X107087547Y-40324016D01*
X106854325Y-40225402D01*
X106853296Y-40224907D01*
X106729076Y-40157415D01*
X106728447Y-40157047D01*
X106661748Y-40115224D01*
X106601209Y-40077264D01*
X106596021Y-40069966D01*
X106597512Y-40061137D01*
X106597690Y-40060862D01*
X106766752Y-39807245D01*
X107087628Y-39325884D01*
X107095065Y-39320904D01*
X107961671Y-39149357D01*
X107970450Y-39151112D01*
G37*
%TD.AperFunction*%
%TD*%
%TA.AperFunction,Conductor*%
%TO.N,/CS*%
G36*
X111182296Y-72934604D02*
G01*
X111324900Y-73067710D01*
X111324916Y-73067725D01*
X111440648Y-73162827D01*
X111473707Y-73189251D01*
X111474301Y-73189759D01*
X111612312Y-73316062D01*
X111613378Y-73317175D01*
X111691819Y-73410707D01*
X111692386Y-73411440D01*
X111778707Y-73532706D01*
X111780713Y-73541433D01*
X111775960Y-73549023D01*
X111775696Y-73549205D01*
X111414178Y-73791906D01*
X111409918Y-73793671D01*
X110982823Y-73877807D01*
X110974044Y-73876044D01*
X110969083Y-73868589D01*
X110968917Y-73867462D01*
X110959555Y-73771286D01*
X110959561Y-73768964D01*
X110969234Y-73675399D01*
X110969578Y-73673550D01*
X110992113Y-73590781D01*
X110992431Y-73589795D01*
X111020619Y-73514545D01*
X111052294Y-73426783D01*
X111065430Y-73334769D01*
X111059043Y-73291117D01*
X111042183Y-73245743D01*
X111010305Y-73194267D01*
X110969119Y-73147261D01*
X110966245Y-73138783D01*
X110969646Y-73131281D01*
X111166043Y-72934884D01*
X111174315Y-72931458D01*
X111182296Y-72934604D01*
G37*
%TD.AperFunction*%
%TD*%
%TA.AperFunction,Conductor*%
%TO.N,/MOSI*%
G36*
X107549530Y-74056031D02*
G01*
X107552857Y-74062780D01*
X107567009Y-74170499D01*
X107567009Y-74170500D01*
X107567010Y-74170502D01*
X107585615Y-74212157D01*
X107610788Y-74245042D01*
X107678818Y-74292784D01*
X107767064Y-74330288D01*
X107838635Y-74359301D01*
X107839755Y-74359827D01*
X107961732Y-74425330D01*
X107967190Y-74428261D01*
X107972858Y-74435194D01*
X107971963Y-74444104D01*
X107971391Y-74445057D01*
X107731220Y-74805457D01*
X107723781Y-74810441D01*
X107723742Y-74810449D01*
X107298883Y-74893997D01*
X107290104Y-74892231D01*
X107285145Y-74884775D01*
X107285101Y-74884541D01*
X107255248Y-74714616D01*
X107255140Y-74713842D01*
X107240875Y-74580110D01*
X107240810Y-74578743D01*
X107242362Y-74434349D01*
X107243262Y-74350639D01*
X107251205Y-74063980D01*
X107254860Y-74055805D01*
X107262901Y-74052604D01*
X107541257Y-74052604D01*
X107549530Y-74056031D01*
G37*
%TD.AperFunction*%
%TD*%
%TA.AperFunction,Conductor*%
%TO.N,/MOSI*%
G36*
X102765445Y-41372536D02*
G01*
X102765697Y-41372931D01*
X102884565Y-41567684D01*
X102885070Y-41568601D01*
X102971847Y-41744411D01*
X102972242Y-41745305D01*
X103018056Y-41861843D01*
X103032842Y-41899453D01*
X103033056Y-41900044D01*
X103079454Y-42039882D01*
X103109115Y-42129030D01*
X103123988Y-42173729D01*
X103207715Y-42365812D01*
X103207717Y-42365817D01*
X103263160Y-42460090D01*
X103263171Y-42460107D01*
X103334141Y-42560779D01*
X103426367Y-42672412D01*
X103426369Y-42672413D01*
X103426371Y-42672416D01*
X103534491Y-42786890D01*
X103537680Y-42795258D01*
X103534258Y-42803197D01*
X103338051Y-42999404D01*
X103329778Y-43002831D01*
X103321912Y-42999792D01*
X103212863Y-42900753D01*
X103212855Y-42900747D01*
X103104530Y-42823528D01*
X103104528Y-42823527D01*
X103104524Y-42823524D01*
X103002881Y-42771539D01*
X103002876Y-42771537D01*
X102905679Y-42740755D01*
X102905680Y-42740755D01*
X102810663Y-42727123D01*
X102810665Y-42727123D01*
X102715583Y-42726594D01*
X102546854Y-42745257D01*
X102516168Y-42748651D01*
X102516154Y-42748652D01*
X102516151Y-42748653D01*
X102318260Y-42772307D01*
X102317084Y-42772388D01*
X102084453Y-42776614D01*
X102082773Y-42776524D01*
X101847895Y-42746830D01*
X101840117Y-42742392D01*
X101837754Y-42733755D01*
X101837885Y-42732950D01*
X101839038Y-42727124D01*
X102009379Y-41866609D01*
X102014346Y-41859161D01*
X102749221Y-41369290D01*
X102758005Y-41367553D01*
X102765445Y-41372536D01*
G37*
%TD.AperFunction*%
%TD*%
%TA.AperFunction,Conductor*%
%TO.N,/SCLK*%
G36*
X107098557Y-41869986D02*
G01*
X107542860Y-42309361D01*
X107702030Y-42466766D01*
X107705503Y-42475020D01*
X107702122Y-42483312D01*
X107698220Y-42485919D01*
X107669984Y-42497431D01*
X107669976Y-42497435D01*
X107588644Y-42539896D01*
X107588641Y-42539897D01*
X107588641Y-42539898D01*
X107514519Y-42590654D01*
X107514506Y-42590664D01*
X107441970Y-42653964D01*
X107378122Y-42723989D01*
X107319287Y-42804849D01*
X107270692Y-42889495D01*
X107231644Y-42977913D01*
X107203497Y-43065979D01*
X107180378Y-43224758D01*
X107193448Y-43341339D01*
X107190964Y-43349942D01*
X107190094Y-43350915D01*
X106995680Y-43545329D01*
X106987407Y-43548756D01*
X106979134Y-43545329D01*
X106976226Y-43540502D01*
X106906105Y-43312835D01*
X106774702Y-42964190D01*
X106653176Y-42713657D01*
X106653175Y-42713656D01*
X106653174Y-42713653D01*
X106550923Y-42559874D01*
X106530239Y-42539896D01*
X106476026Y-42487533D01*
X106472458Y-42479323D01*
X106475740Y-42470992D01*
X106475863Y-42470866D01*
X107082098Y-41869995D01*
X107090384Y-41866606D01*
X107098557Y-41869986D01*
G37*
%TD.AperFunction*%
%TD*%
%TA.AperFunction,Conductor*%
%TO.N,/SCLK*%
G36*
X109748951Y-72785690D02*
G01*
X109752343Y-72793073D01*
X109753238Y-72804823D01*
X109756527Y-72848004D01*
X109756529Y-72848014D01*
X109770989Y-72898177D01*
X109770992Y-72898184D01*
X109774290Y-72903453D01*
X109794061Y-72935034D01*
X109824892Y-72960830D01*
X109906452Y-72988300D01*
X110008901Y-72998683D01*
X110098547Y-73006531D01*
X110099960Y-73006742D01*
X110233659Y-73035226D01*
X110236351Y-73036154D01*
X110339500Y-73086481D01*
X110345433Y-73093188D01*
X110344885Y-73102126D01*
X110344106Y-73103484D01*
X110104220Y-73463457D01*
X110096781Y-73468441D01*
X110096742Y-73468449D01*
X109670843Y-73552201D01*
X109662064Y-73550435D01*
X109657299Y-73543804D01*
X109636457Y-73467510D01*
X109604564Y-73350760D01*
X109572373Y-73275231D01*
X109545290Y-73211683D01*
X109514572Y-73143707D01*
X109514060Y-73142359D01*
X109498790Y-73093188D01*
X109469691Y-72999484D01*
X109469275Y-72997608D01*
X109467996Y-72988300D01*
X109456331Y-72903439D01*
X109456234Y-72902332D01*
X109451997Y-72794421D01*
X109455097Y-72786021D01*
X109463229Y-72782272D01*
X109463688Y-72782263D01*
X109740678Y-72782263D01*
X109748951Y-72785690D01*
G37*
%TD.AperFunction*%
%TD*%
%TA.AperFunction,Conductor*%
%TO.N,/MISO*%
G36*
X108149040Y-69311193D02*
G01*
X108152425Y-69318481D01*
X108156547Y-69367262D01*
X108159389Y-69375384D01*
X108171111Y-69408886D01*
X108194426Y-69435022D01*
X108225708Y-69448060D01*
X108309041Y-69444390D01*
X108414845Y-69416978D01*
X108421041Y-69415277D01*
X108427639Y-69413465D01*
X108498410Y-69394034D01*
X108499503Y-69393790D01*
X108646037Y-69368613D01*
X108648665Y-69368463D01*
X108758356Y-69374628D01*
X108766422Y-69378514D01*
X108769380Y-69386967D01*
X108769174Y-69388588D01*
X108684950Y-69812968D01*
X108679978Y-69820415D01*
X108679956Y-69820430D01*
X108318837Y-70060758D01*
X108310051Y-70062489D01*
X108303161Y-70058255D01*
X108181189Y-69903295D01*
X108065422Y-69789691D01*
X108029357Y-69755127D01*
X107995303Y-69722489D01*
X107994182Y-69721249D01*
X107918819Y-69624877D01*
X107917506Y-69622770D01*
X107891381Y-69568827D01*
X107890734Y-69567186D01*
X107870769Y-69502672D01*
X107870400Y-69501100D01*
X107856502Y-69415273D01*
X107856365Y-69413940D01*
X107852078Y-69319998D01*
X107855124Y-69311579D01*
X107863233Y-69307778D01*
X107863766Y-69307766D01*
X108140767Y-69307766D01*
X108149040Y-69311193D01*
G37*
%TD.AperFunction*%
%TD*%
%TA.AperFunction,Conductor*%
%TO.N,/MISO*%
G36*
X105430421Y-41691118D02*
G01*
X105435389Y-41698568D01*
X105435493Y-41699174D01*
X105462415Y-41886270D01*
X105462526Y-41887505D01*
X105468930Y-42061302D01*
X105468922Y-42062338D01*
X105460959Y-42216038D01*
X105460911Y-42216656D01*
X105446365Y-42355026D01*
X105430346Y-42522307D01*
X105430346Y-42522317D01*
X105435288Y-42683301D01*
X105473897Y-42829382D01*
X105492174Y-42868003D01*
X105510000Y-42905672D01*
X105548230Y-42967082D01*
X105559650Y-42985425D01*
X105559654Y-42985430D01*
X105629590Y-43075525D01*
X105629592Y-43075528D01*
X105711476Y-43163742D01*
X105714593Y-43172137D01*
X105711174Y-43179975D01*
X105515055Y-43376094D01*
X105506782Y-43379521D01*
X105498747Y-43376325D01*
X105390274Y-43273836D01*
X105390266Y-43273829D01*
X105283291Y-43185242D01*
X105283289Y-43185240D01*
X105283280Y-43185233D01*
X105184215Y-43115106D01*
X105091246Y-43060223D01*
X105091243Y-43060221D01*
X104916273Y-42983268D01*
X104743728Y-42928532D01*
X104553979Y-42868394D01*
X104552923Y-42868003D01*
X104317360Y-42767513D01*
X104316351Y-42767024D01*
X104190886Y-42698635D01*
X104190266Y-42698272D01*
X104149084Y-42672424D01*
X104061201Y-42617265D01*
X104056017Y-42609965D01*
X104057512Y-42601136D01*
X104057662Y-42600903D01*
X104547628Y-41865884D01*
X104555065Y-41860904D01*
X105421641Y-41689363D01*
X105430421Y-41691118D01*
G37*
%TD.AperFunction*%
%TD*%
%TA.AperFunction,Conductor*%
%TO.N,/DRDY*%
G36*
X111601251Y-67310171D02*
G01*
X111714705Y-67339570D01*
X111716083Y-67340021D01*
X111813183Y-67378795D01*
X111814802Y-67379591D01*
X111961404Y-67466358D01*
X112072532Y-67534027D01*
X112203202Y-67580339D01*
X112203205Y-67580339D01*
X112203207Y-67580340D01*
X112288716Y-67593666D01*
X112288719Y-67593666D01*
X112288736Y-67593669D01*
X112381708Y-67597919D01*
X112389815Y-67601720D01*
X112392873Y-67609607D01*
X112392873Y-67887536D01*
X112389446Y-67895809D01*
X112382006Y-67899206D01*
X112241658Y-67909228D01*
X112128859Y-67938231D01*
X112128857Y-67938232D01*
X112040187Y-67980358D01*
X112040184Y-67980359D01*
X111961443Y-68030475D01*
X111914383Y-68061390D01*
X111913415Y-68061961D01*
X111774532Y-68135181D01*
X111772963Y-68135866D01*
X111691022Y-68164729D01*
X111689927Y-68165056D01*
X111601165Y-68186869D01*
X111592313Y-68185515D01*
X111587011Y-68178299D01*
X111586903Y-68177815D01*
X111584309Y-68164921D01*
X111500984Y-67750736D01*
X111500984Y-67746122D01*
X111528448Y-67609607D01*
X111586873Y-67319192D01*
X111591863Y-67311761D01*
X111600650Y-67310033D01*
X111601251Y-67310171D01*
G37*
%TD.AperFunction*%
%TD*%
%TA.AperFunction,Conductor*%
%TO.N,/DRDY*%
G36*
X124876828Y-41866192D02*
G01*
X125608984Y-42355631D01*
X125613958Y-42363078D01*
X125612209Y-42371860D01*
X125611774Y-42372467D01*
X125515305Y-42498559D01*
X125514490Y-42499514D01*
X125400412Y-42619437D01*
X125399630Y-42620186D01*
X125164072Y-42825873D01*
X125164072Y-42825874D01*
X125075006Y-42903671D01*
X124973040Y-42992737D01*
X124973038Y-42992740D01*
X124880796Y-43102079D01*
X124880795Y-43102080D01*
X124837842Y-43196511D01*
X124833604Y-43291207D01*
X124833604Y-43291213D01*
X124847727Y-43344135D01*
X124847728Y-43344138D01*
X124847729Y-43344140D01*
X124874329Y-43399832D01*
X124874330Y-43399834D01*
X124874331Y-43399835D01*
X124919953Y-43465857D01*
X124919956Y-43465860D01*
X124976188Y-43528234D01*
X124979182Y-43536673D01*
X124975771Y-43544341D01*
X124780059Y-43740053D01*
X124771786Y-43743480D01*
X124763513Y-43740053D01*
X124763233Y-43739763D01*
X124672429Y-43642473D01*
X124671823Y-43641771D01*
X124594029Y-43543910D01*
X124593405Y-43543046D01*
X124533514Y-43451730D01*
X124532934Y-43450743D01*
X124487943Y-43364692D01*
X124487289Y-43363197D01*
X124428827Y-43199085D01*
X124428428Y-43197701D01*
X124407146Y-43102079D01*
X124392258Y-43035182D01*
X124337442Y-42803540D01*
X124256287Y-42594675D01*
X124197874Y-42483583D01*
X124128670Y-42372164D01*
X124127217Y-42363330D01*
X124132098Y-42356273D01*
X124863819Y-41866198D01*
X124872599Y-41864442D01*
X124876828Y-41866192D01*
G37*
%TD.AperFunction*%
%TD*%
%TA.AperFunction,Conductor*%
%TO.N,/GPIO39{slash}LEDCTL*%
G36*
X91101251Y-81028251D02*
G01*
X91214705Y-81057650D01*
X91216083Y-81058101D01*
X91313183Y-81096875D01*
X91314802Y-81097671D01*
X91461404Y-81184438D01*
X91572532Y-81252107D01*
X91703202Y-81298419D01*
X91703205Y-81298419D01*
X91703207Y-81298420D01*
X91788716Y-81311746D01*
X91788719Y-81311746D01*
X91788736Y-81311749D01*
X91881708Y-81315999D01*
X91889815Y-81319800D01*
X91892873Y-81327687D01*
X91892873Y-81605616D01*
X91889446Y-81613889D01*
X91882006Y-81617286D01*
X91741658Y-81627308D01*
X91628859Y-81656311D01*
X91628857Y-81656312D01*
X91540187Y-81698438D01*
X91540184Y-81698439D01*
X91461443Y-81748555D01*
X91414383Y-81779470D01*
X91413415Y-81780041D01*
X91274532Y-81853261D01*
X91272963Y-81853946D01*
X91191022Y-81882809D01*
X91189927Y-81883136D01*
X91101165Y-81904949D01*
X91092313Y-81903595D01*
X91087011Y-81896379D01*
X91086903Y-81895895D01*
X91084309Y-81883001D01*
X91000984Y-81468816D01*
X91000984Y-81464202D01*
X91028448Y-81327687D01*
X91086873Y-81037272D01*
X91091863Y-81029841D01*
X91100650Y-81028113D01*
X91101251Y-81028251D01*
G37*
%TD.AperFunction*%
%TD*%
%TA.AperFunction,Conductor*%
%TO.N,/GPIO39{slash}LEDCTL*%
G36*
X128142883Y-39180464D02*
G01*
X128147850Y-39187915D01*
X128148003Y-39188915D01*
X128167130Y-39364145D01*
X128167172Y-39366204D01*
X128156193Y-39528725D01*
X128155957Y-39530402D01*
X128125005Y-39673958D01*
X128124759Y-39674906D01*
X128085129Y-39804803D01*
X128044642Y-39940288D01*
X128024453Y-40075055D01*
X128024452Y-40075060D01*
X128039219Y-40195806D01*
X128039220Y-40195808D01*
X128061937Y-40258102D01*
X128061944Y-40258117D01*
X128096904Y-40322868D01*
X128096909Y-40322878D01*
X128149269Y-40395230D01*
X128211546Y-40463661D01*
X128214580Y-40472086D01*
X128211166Y-40479809D01*
X128015013Y-40675962D01*
X128006740Y-40679389D01*
X127998658Y-40676149D01*
X127931213Y-40611717D01*
X127809562Y-40495501D01*
X127655505Y-40367275D01*
X127655503Y-40367274D01*
X127655500Y-40367271D01*
X127518600Y-40272281D01*
X127518592Y-40272276D01*
X127435600Y-40221737D01*
X127372723Y-40183448D01*
X127372592Y-40183367D01*
X127004541Y-39952542D01*
X126999353Y-39945243D01*
X127000845Y-39936414D01*
X127000991Y-39936186D01*
X127407626Y-39325889D01*
X127415064Y-39320905D01*
X128134102Y-39178707D01*
X128142883Y-39180464D01*
G37*
%TD.AperFunction*%
%TD*%
%TA.AperFunction,Conductor*%
%TO.N,GND*%
G36*
X106365319Y-57685373D02*
G01*
X106394324Y-57798175D01*
X106436445Y-57886836D01*
X106486591Y-57965625D01*
X106517788Y-58013114D01*
X106591670Y-58153254D01*
X106621011Y-58236550D01*
X106645873Y-58337719D01*
X106204520Y-58426510D01*
X105763167Y-58337719D01*
X105795844Y-58211619D01*
X105835221Y-58113005D01*
X105922449Y-57965625D01*
X105990117Y-57854497D01*
X106036429Y-57723828D01*
X106049759Y-57638293D01*
X106054520Y-57534157D01*
X106354520Y-57534157D01*
X106365319Y-57685373D01*
G37*
%TD.AperFunction*%
%TD*%
%TA.AperFunction,Conductor*%
%TO.N,GND*%
G36*
X106195669Y-51564753D02*
G01*
X106257167Y-51709726D01*
X106291553Y-51786582D01*
X106336590Y-51935406D01*
X106349779Y-52033996D01*
X106354520Y-52157806D01*
X106054520Y-52157806D01*
X106049372Y-52088537D01*
X106034498Y-52035211D01*
X106010755Y-51995488D01*
X105978999Y-51967029D01*
X105894879Y-51934549D01*
X105788989Y-51919056D01*
X105710730Y-51909082D01*
X105568623Y-51875392D01*
X105446513Y-51814671D01*
X105696520Y-51439510D01*
X106137873Y-51352719D01*
X106195669Y-51564753D01*
G37*
%TD.AperFunction*%
%TD*%
%TA.AperFunction,Conductor*%
%TO.N,GND*%
G36*
X100420510Y-57300850D02*
G01*
X100169503Y-57675011D01*
X100006831Y-57558544D01*
X99879528Y-57470148D01*
X99822592Y-57442174D01*
X99758445Y-57421636D01*
X99659152Y-57405948D01*
X99528157Y-57400850D01*
X99528157Y-57200850D01*
X99695446Y-57191697D01*
X99812973Y-57163300D01*
X99907760Y-57114255D01*
X100006830Y-57043156D01*
X100169503Y-56926689D01*
X100420510Y-57300850D01*
G37*
%TD.AperFunction*%
%TD*%
%TA.AperFunction,Conductor*%
%TO.N,GND*%
G36*
X91504199Y-48515815D02*
G01*
X91631502Y-48604212D01*
X91688438Y-48632186D01*
X91752586Y-48652724D01*
X91851879Y-48668412D01*
X91982873Y-48673510D01*
X91982873Y-48873510D01*
X91815583Y-48882663D01*
X91698055Y-48911060D01*
X91603268Y-48960106D01*
X91504197Y-49031205D01*
X91341527Y-49147671D01*
X91090520Y-48773510D01*
X91341527Y-48399349D01*
X91504199Y-48515815D01*
G37*
%TD.AperFunction*%
%TD*%
%TA.AperFunction,Conductor*%
%TO.N,GND*%
G36*
X106645873Y-58513301D02*
G01*
X106613196Y-58639400D01*
X106573819Y-58738014D01*
X106486592Y-58885393D01*
X106418923Y-58996522D01*
X106372611Y-59127191D01*
X106359281Y-59212726D01*
X106354520Y-59316863D01*
X106054520Y-59316863D01*
X106043721Y-59165647D01*
X106014716Y-59052844D01*
X105972595Y-58964183D01*
X105922448Y-58885394D01*
X105891251Y-58837905D01*
X105817370Y-58697766D01*
X105788028Y-58614469D01*
X105763167Y-58513301D01*
X106204520Y-58424510D01*
X106645873Y-58513301D01*
G37*
%TD.AperFunction*%
%TD*%
%TA.AperFunction,Conductor*%
%TO.N,GND*%
G36*
X106365305Y-63748772D02*
G01*
X106396740Y-63858987D01*
X106447440Y-63944846D01*
X106516024Y-64028072D01*
X106541412Y-64057566D01*
X106673671Y-64230843D01*
X106299510Y-64481850D01*
X105858157Y-64393059D01*
X105911710Y-64187317D01*
X105966297Y-64045013D01*
X105991900Y-63981960D01*
X106036609Y-63826830D01*
X106049781Y-63723724D01*
X106054520Y-63592479D01*
X106354520Y-63592479D01*
X106365305Y-63748772D01*
G37*
%TD.AperFunction*%
%TD*%
%TA.AperFunction,Conductor*%
%TO.N,+2V5*%
G36*
X91860027Y-51062868D02*
G01*
X92467013Y-51469417D01*
X92471980Y-51476868D01*
X92470223Y-51485649D01*
X92469961Y-51486024D01*
X92266218Y-51765910D01*
X92266168Y-51765978D01*
X92151841Y-51920656D01*
X92072733Y-52065707D01*
X92072731Y-52065711D01*
X92044547Y-52147888D01*
X92023776Y-52242545D01*
X92008553Y-52377937D01*
X92008552Y-52377947D01*
X92003862Y-52533751D01*
X92000187Y-52541917D01*
X91992167Y-52545099D01*
X91714561Y-52545099D01*
X91706288Y-52541672D01*
X91702881Y-52534076D01*
X91702862Y-52533751D01*
X91687639Y-52270996D01*
X91682149Y-52242541D01*
X91667589Y-52167068D01*
X91667588Y-52167066D01*
X91667586Y-52167053D01*
X91639279Y-52078101D01*
X91602586Y-51998825D01*
X91557370Y-51923914D01*
X91440839Y-51765935D01*
X91237077Y-51486023D01*
X91234979Y-51477318D01*
X91239651Y-51469679D01*
X91239997Y-51469437D01*
X91847011Y-51062869D01*
X91855790Y-51061113D01*
X91860027Y-51062868D01*
G37*
%TD.AperFunction*%
%TD*%
%TA.AperFunction,Conductor*%
%TO.N,+2V5*%
G36*
X99084536Y-62649297D02*
G01*
X99190864Y-62741450D01*
X99190866Y-62741451D01*
X99291139Y-62800705D01*
X99291142Y-62800706D01*
X99291141Y-62800706D01*
X99324576Y-62812604D01*
X99383615Y-62833614D01*
X99474787Y-62853867D01*
X99529873Y-62865273D01*
X99530960Y-62865552D01*
X99680953Y-62911987D01*
X99682529Y-62912605D01*
X99760900Y-62950147D01*
X99761903Y-62950690D01*
X99840085Y-62998027D01*
X99845387Y-63005242D01*
X99844033Y-63014094D01*
X99843767Y-63014513D01*
X99602530Y-63377257D01*
X99599267Y-63380520D01*
X99236652Y-63621671D01*
X99227865Y-63623399D01*
X99220431Y-63618408D01*
X99220100Y-63617879D01*
X99160671Y-63516878D01*
X99160006Y-63515563D01*
X99118769Y-63419501D01*
X99118187Y-63417792D01*
X99107794Y-63377257D01*
X99075877Y-63252777D01*
X99045147Y-63126348D01*
X98985497Y-63001204D01*
X98985495Y-63001201D01*
X98985489Y-63001192D01*
X98934457Y-62931316D01*
X98934440Y-62931295D01*
X98916818Y-62911984D01*
X98871705Y-62862549D01*
X98868660Y-62854129D01*
X98872074Y-62846391D01*
X99068601Y-62649864D01*
X99076873Y-62646438D01*
X99084536Y-62649297D01*
G37*
%TD.AperFunction*%
%TD*%
%TA.AperFunction,Conductor*%
%TO.N,/START*%
G36*
X110412117Y-75073081D02*
G01*
X110413155Y-75073698D01*
X110773467Y-75313809D01*
X110778451Y-75321248D01*
X110778459Y-75321287D01*
X110861971Y-75745967D01*
X110860205Y-75754746D01*
X110852749Y-75759705D01*
X110852339Y-75759778D01*
X110517087Y-75813416D01*
X110515445Y-75813561D01*
X110244335Y-75818324D01*
X110244030Y-75818326D01*
X110041742Y-75816608D01*
X110033498Y-75813111D01*
X110030141Y-75804908D01*
X110030141Y-75526710D01*
X110033568Y-75518437D01*
X110040244Y-75515119D01*
X110146482Y-75500503D01*
X110187091Y-75481350D01*
X110218729Y-75455523D01*
X110263314Y-75386134D01*
X110296666Y-75296895D01*
X110331640Y-75201061D01*
X110332267Y-75199645D01*
X110396315Y-75077982D01*
X110403200Y-75072259D01*
X110412117Y-75073081D01*
G37*
%TD.AperFunction*%
%TD*%
%TA.AperFunction,Conductor*%
%TO.N,/START*%
G36*
X98329512Y-52724675D02*
G01*
X98329908Y-52725314D01*
X98389934Y-52829513D01*
X98390682Y-52831065D01*
X98429951Y-52930770D01*
X98430438Y-52932310D01*
X98451989Y-53021488D01*
X98452184Y-53022485D01*
X98464720Y-53105304D01*
X98492326Y-53249698D01*
X98492326Y-53249699D01*
X98547860Y-53371376D01*
X98547861Y-53371377D01*
X98596219Y-53438680D01*
X98655199Y-53503647D01*
X98658222Y-53512076D01*
X98654809Y-53519784D01*
X98458335Y-53716258D01*
X98450062Y-53719685D01*
X98442319Y-53716757D01*
X98336482Y-53623334D01*
X98237991Y-53560897D01*
X98237987Y-53560895D01*
X98147937Y-53523444D01*
X98059117Y-53497679D01*
X98037871Y-53491943D01*
X98037158Y-53491726D01*
X97878681Y-53437902D01*
X97877280Y-53437322D01*
X97794977Y-53396835D01*
X97794049Y-53396326D01*
X97709901Y-53345006D01*
X97704622Y-53337773D01*
X97706004Y-53328925D01*
X97706232Y-53328567D01*
X97947512Y-52965758D01*
X97950768Y-52962502D01*
X98313292Y-52721411D01*
X98322078Y-52719684D01*
X98329512Y-52724675D01*
G37*
%TD.AperFunction*%
%TD*%
%TA.AperFunction,Conductor*%
%TO.N,Net-(U5A-SRB1)*%
G36*
X88728744Y-75912863D02*
G01*
X88736177Y-75917853D01*
X88737905Y-75926640D01*
X88737761Y-75927267D01*
X88708372Y-76040682D01*
X88707912Y-76042086D01*
X88669144Y-76139173D01*
X88668347Y-76140793D01*
X88581607Y-76287350D01*
X88581531Y-76287476D01*
X88513913Y-76398521D01*
X88467599Y-76529196D01*
X88454273Y-76614706D01*
X88454271Y-76614722D01*
X88454271Y-76614726D01*
X88450020Y-76707698D01*
X88446220Y-76715805D01*
X88438333Y-76718863D01*
X88160404Y-76718863D01*
X88152131Y-76715436D01*
X88148734Y-76707996D01*
X88138711Y-76567648D01*
X88109708Y-76454849D01*
X88109707Y-76454847D01*
X88109706Y-76454844D01*
X88067585Y-76366183D01*
X88067580Y-76366176D01*
X88067580Y-76366174D01*
X88017464Y-76287434D01*
X87986548Y-76240372D01*
X87985977Y-76239404D01*
X87933989Y-76140793D01*
X87912755Y-76100515D01*
X87912076Y-76098960D01*
X87883207Y-76017006D01*
X87882882Y-76015917D01*
X87861070Y-75927155D01*
X87862424Y-75918303D01*
X87869640Y-75913001D01*
X87870101Y-75912897D01*
X88297204Y-75826974D01*
X88301816Y-75826974D01*
X88728744Y-75912863D01*
G37*
%TD.AperFunction*%
%TD*%
%TA.AperFunction,Conductor*%
%TO.N,Net-(U5A-SRB1)*%
G36*
X88446889Y-76939584D02*
G01*
X88450286Y-76947024D01*
X88460308Y-77087371D01*
X88489310Y-77200164D01*
X88489313Y-77200173D01*
X88489314Y-77200175D01*
X88531435Y-77288836D01*
X88531437Y-77288839D01*
X88531438Y-77288841D01*
X88531439Y-77288844D01*
X88581554Y-77367584D01*
X88612470Y-77414646D01*
X88613041Y-77415614D01*
X88686261Y-77554497D01*
X88686946Y-77556066D01*
X88715809Y-77638006D01*
X88716136Y-77639101D01*
X88737949Y-77727864D01*
X88736595Y-77736716D01*
X88729379Y-77742018D01*
X88728895Y-77742126D01*
X88301818Y-77828045D01*
X88297202Y-77828045D01*
X87870276Y-77742157D01*
X87862842Y-77737166D01*
X87861114Y-77728379D01*
X87861258Y-77727752D01*
X87890652Y-77614318D01*
X87891100Y-77612950D01*
X87929878Y-77515838D01*
X87930668Y-77514231D01*
X88017439Y-77367625D01*
X88085107Y-77256497D01*
X88131419Y-77125828D01*
X88144749Y-77040293D01*
X88148999Y-76947321D01*
X88152800Y-76939215D01*
X88160687Y-76936157D01*
X88438616Y-76936157D01*
X88446889Y-76939584D01*
G37*
%TD.AperFunction*%
%TD*%
%TA.AperFunction,Conductor*%
%TO.N,Net-(U5A-SRB1)*%
G36*
X88726758Y-61558863D02*
G01*
X88734191Y-61563854D01*
X88735919Y-61572641D01*
X88735776Y-61573265D01*
X88706443Y-61686593D01*
X88705986Y-61687990D01*
X88667337Y-61785044D01*
X88666546Y-61786657D01*
X88580158Y-61933192D01*
X88580082Y-61933319D01*
X88512906Y-62044026D01*
X88512905Y-62044028D01*
X88492791Y-62100878D01*
X88466609Y-62174879D01*
X88453281Y-62260536D01*
X88449030Y-62353696D01*
X88445229Y-62361805D01*
X88437342Y-62364863D01*
X88159411Y-62364863D01*
X88151138Y-62361436D01*
X88147741Y-62354000D01*
X88137680Y-62213659D01*
X88137680Y-62213656D01*
X88108568Y-62100878D01*
X88108566Y-62100875D01*
X88108566Y-62100872D01*
X88066296Y-62012260D01*
X88066295Y-62012258D01*
X88016007Y-61933576D01*
X87984493Y-61885784D01*
X87983915Y-61884807D01*
X87910716Y-61746209D01*
X87910028Y-61744635D01*
X87889815Y-61687306D01*
X87881182Y-61662820D01*
X87880860Y-61661743D01*
X87859081Y-61573154D01*
X87860434Y-61564304D01*
X87867650Y-61559001D01*
X87868121Y-61558895D01*
X88295214Y-61472974D01*
X88299826Y-61472974D01*
X88726758Y-61558863D01*
G37*
%TD.AperFunction*%
%TD*%
%TA.AperFunction,Conductor*%
%TO.N,Net-(U5A-SRB1)*%
G36*
X88445902Y-62937584D02*
G01*
X88449299Y-62945020D01*
X88459359Y-63085360D01*
X88459360Y-63085364D01*
X88488471Y-63198143D01*
X88488473Y-63198147D01*
X88530738Y-63286755D01*
X88530741Y-63286761D01*
X88571507Y-63350547D01*
X88581060Y-63365494D01*
X88612535Y-63413228D01*
X88613113Y-63414205D01*
X88686312Y-63552806D01*
X88687000Y-63554379D01*
X88715844Y-63636185D01*
X88716172Y-63637283D01*
X88737948Y-63725863D01*
X88736595Y-63734715D01*
X88729379Y-63740018D01*
X88728894Y-63740126D01*
X88301818Y-63826045D01*
X88297202Y-63826045D01*
X87870272Y-63740156D01*
X87862838Y-63735165D01*
X87861110Y-63726378D01*
X87861245Y-63725787D01*
X87890590Y-63612414D01*
X87891040Y-63611039D01*
X87929694Y-63513974D01*
X87930485Y-63512362D01*
X88016914Y-63365764D01*
X88084134Y-63254987D01*
X88130431Y-63124138D01*
X88143759Y-63038477D01*
X88148010Y-62945323D01*
X88151811Y-62937215D01*
X88159698Y-62934157D01*
X88437629Y-62934157D01*
X88445902Y-62937584D01*
G37*
%TD.AperFunction*%
%TD*%
%TA.AperFunction,Conductor*%
%TO.N,Net-(U5A-SRB1)*%
G36*
X88446889Y-64939584D02*
G01*
X88450286Y-64947024D01*
X88460308Y-65087371D01*
X88489310Y-65200164D01*
X88489313Y-65200173D01*
X88489314Y-65200175D01*
X88531435Y-65288836D01*
X88531437Y-65288839D01*
X88531438Y-65288841D01*
X88531439Y-65288844D01*
X88581554Y-65367584D01*
X88612470Y-65414646D01*
X88613041Y-65415614D01*
X88686261Y-65554497D01*
X88686946Y-65556066D01*
X88715809Y-65638006D01*
X88716136Y-65639101D01*
X88737949Y-65727864D01*
X88736595Y-65736716D01*
X88729379Y-65742018D01*
X88728895Y-65742126D01*
X88301818Y-65828045D01*
X88297202Y-65828045D01*
X87870276Y-65742157D01*
X87862842Y-65737166D01*
X87861114Y-65728379D01*
X87861258Y-65727752D01*
X87890652Y-65614318D01*
X87891100Y-65612950D01*
X87929878Y-65515838D01*
X87930668Y-65514231D01*
X88017439Y-65367625D01*
X88085107Y-65256497D01*
X88131419Y-65125828D01*
X88144749Y-65040293D01*
X88148999Y-64947321D01*
X88152800Y-64939215D01*
X88160687Y-64936157D01*
X88438616Y-64936157D01*
X88446889Y-64939584D01*
G37*
%TD.AperFunction*%
%TD*%
%TA.AperFunction,Conductor*%
%TO.N,Net-(U5A-SRB1)*%
G36*
X88728744Y-63910863D02*
G01*
X88736177Y-63915853D01*
X88737905Y-63924640D01*
X88737761Y-63925267D01*
X88708372Y-64038682D01*
X88707912Y-64040086D01*
X88669144Y-64137173D01*
X88668347Y-64138793D01*
X88581607Y-64285350D01*
X88581531Y-64285476D01*
X88513913Y-64396521D01*
X88467599Y-64527196D01*
X88454273Y-64612706D01*
X88454271Y-64612722D01*
X88454271Y-64612726D01*
X88450020Y-64705698D01*
X88446220Y-64713805D01*
X88438333Y-64716863D01*
X88160404Y-64716863D01*
X88152131Y-64713436D01*
X88148734Y-64705996D01*
X88138711Y-64565648D01*
X88109708Y-64452849D01*
X88109707Y-64452847D01*
X88109706Y-64452844D01*
X88067585Y-64364183D01*
X88067580Y-64364176D01*
X88067580Y-64364174D01*
X88017464Y-64285434D01*
X87986548Y-64238372D01*
X87985977Y-64237404D01*
X87933989Y-64138793D01*
X87912755Y-64098515D01*
X87912076Y-64096960D01*
X87883207Y-64015006D01*
X87882882Y-64013917D01*
X87861070Y-63925155D01*
X87862424Y-63916303D01*
X87869640Y-63911001D01*
X87870101Y-63910897D01*
X88297204Y-63824974D01*
X88301816Y-63824974D01*
X88728744Y-63910863D01*
G37*
%TD.AperFunction*%
%TD*%
%TA.AperFunction,Conductor*%
%TO.N,Net-(U5A-SRB1)*%
G36*
X88446889Y-68939584D02*
G01*
X88450286Y-68947024D01*
X88460308Y-69087371D01*
X88489310Y-69200164D01*
X88489313Y-69200173D01*
X88489314Y-69200175D01*
X88531435Y-69288836D01*
X88531437Y-69288839D01*
X88531438Y-69288841D01*
X88531439Y-69288844D01*
X88581554Y-69367584D01*
X88612470Y-69414646D01*
X88613041Y-69415614D01*
X88686261Y-69554497D01*
X88686946Y-69556066D01*
X88715809Y-69638006D01*
X88716136Y-69639101D01*
X88737949Y-69727864D01*
X88736595Y-69736716D01*
X88729379Y-69742018D01*
X88728895Y-69742126D01*
X88301818Y-69828045D01*
X88297202Y-69828045D01*
X87870276Y-69742157D01*
X87862842Y-69737166D01*
X87861114Y-69728379D01*
X87861258Y-69727752D01*
X87890652Y-69614318D01*
X87891100Y-69612950D01*
X87929878Y-69515838D01*
X87930668Y-69514231D01*
X88017439Y-69367625D01*
X88085107Y-69256497D01*
X88131419Y-69125828D01*
X88144749Y-69040293D01*
X88148999Y-68947321D01*
X88152800Y-68939215D01*
X88160687Y-68936157D01*
X88438616Y-68936157D01*
X88446889Y-68939584D01*
G37*
%TD.AperFunction*%
%TD*%
%TA.AperFunction,Conductor*%
%TO.N,Net-(U5A-SRB1)*%
G36*
X88728744Y-67912863D02*
G01*
X88736177Y-67917853D01*
X88737905Y-67926640D01*
X88737761Y-67927267D01*
X88708372Y-68040682D01*
X88707912Y-68042086D01*
X88669144Y-68139173D01*
X88668347Y-68140793D01*
X88581607Y-68287350D01*
X88581531Y-68287476D01*
X88513913Y-68398521D01*
X88467599Y-68529196D01*
X88454273Y-68614706D01*
X88454271Y-68614722D01*
X88454271Y-68614726D01*
X88450020Y-68707698D01*
X88446220Y-68715805D01*
X88438333Y-68718863D01*
X88160404Y-68718863D01*
X88152131Y-68715436D01*
X88148734Y-68707996D01*
X88138711Y-68567648D01*
X88109708Y-68454849D01*
X88109707Y-68454847D01*
X88109706Y-68454844D01*
X88067585Y-68366183D01*
X88067580Y-68366176D01*
X88067580Y-68366174D01*
X88017464Y-68287434D01*
X87986548Y-68240372D01*
X87985977Y-68239404D01*
X87933989Y-68140793D01*
X87912755Y-68100515D01*
X87912076Y-68098960D01*
X87883207Y-68017006D01*
X87882882Y-68015917D01*
X87861070Y-67927155D01*
X87862424Y-67918303D01*
X87869640Y-67913001D01*
X87870101Y-67912897D01*
X88297204Y-67826974D01*
X88301816Y-67826974D01*
X88728744Y-67912863D01*
G37*
%TD.AperFunction*%
%TD*%
%TA.AperFunction,Conductor*%
%TO.N,Net-(U5A-SRB1)*%
G36*
X88446889Y-74939584D02*
G01*
X88450286Y-74947024D01*
X88460308Y-75087371D01*
X88489310Y-75200164D01*
X88489313Y-75200173D01*
X88489314Y-75200175D01*
X88531435Y-75288836D01*
X88531437Y-75288839D01*
X88531438Y-75288841D01*
X88531439Y-75288844D01*
X88581554Y-75367584D01*
X88612470Y-75414646D01*
X88613041Y-75415614D01*
X88686261Y-75554497D01*
X88686946Y-75556066D01*
X88715809Y-75638006D01*
X88716136Y-75639101D01*
X88737949Y-75727864D01*
X88736595Y-75736716D01*
X88729379Y-75742018D01*
X88728895Y-75742126D01*
X88301818Y-75828045D01*
X88297202Y-75828045D01*
X87870276Y-75742157D01*
X87862842Y-75737166D01*
X87861114Y-75728379D01*
X87861258Y-75727752D01*
X87890652Y-75614318D01*
X87891100Y-75612950D01*
X87929878Y-75515838D01*
X87930668Y-75514231D01*
X88017439Y-75367625D01*
X88085107Y-75256497D01*
X88131419Y-75125828D01*
X88144749Y-75040293D01*
X88148999Y-74947321D01*
X88152800Y-74939215D01*
X88160687Y-74936157D01*
X88438616Y-74936157D01*
X88446889Y-74939584D01*
G37*
%TD.AperFunction*%
%TD*%
%TA.AperFunction,Conductor*%
%TO.N,Net-(U5A-SRB1)*%
G36*
X88728744Y-73912863D02*
G01*
X88736177Y-73917853D01*
X88737905Y-73926640D01*
X88737761Y-73927267D01*
X88708372Y-74040682D01*
X88707912Y-74042086D01*
X88669144Y-74139173D01*
X88668347Y-74140793D01*
X88581607Y-74287350D01*
X88581531Y-74287476D01*
X88513913Y-74398521D01*
X88467599Y-74529196D01*
X88454273Y-74614706D01*
X88454271Y-74614722D01*
X88454271Y-74614726D01*
X88450020Y-74707698D01*
X88446220Y-74715805D01*
X88438333Y-74718863D01*
X88160404Y-74718863D01*
X88152131Y-74715436D01*
X88148734Y-74707996D01*
X88138711Y-74567648D01*
X88109708Y-74454849D01*
X88109707Y-74454847D01*
X88109706Y-74454844D01*
X88067585Y-74366183D01*
X88067580Y-74366176D01*
X88067580Y-74366174D01*
X88017464Y-74287434D01*
X87986548Y-74240372D01*
X87985977Y-74239404D01*
X87933989Y-74140793D01*
X87912755Y-74100515D01*
X87912076Y-74098960D01*
X87883207Y-74017006D01*
X87882882Y-74015917D01*
X87861070Y-73927155D01*
X87862424Y-73918303D01*
X87869640Y-73913001D01*
X87870101Y-73912897D01*
X88297204Y-73826974D01*
X88301816Y-73826974D01*
X88728744Y-73912863D01*
G37*
%TD.AperFunction*%
%TD*%
%TA.AperFunction,Conductor*%
%TO.N,Net-(U5A-SRB1)*%
G36*
X88446889Y-66939584D02*
G01*
X88450286Y-66947024D01*
X88460308Y-67087371D01*
X88489310Y-67200164D01*
X88489313Y-67200173D01*
X88489314Y-67200175D01*
X88531435Y-67288836D01*
X88531437Y-67288839D01*
X88531438Y-67288841D01*
X88531439Y-67288844D01*
X88581554Y-67367584D01*
X88612470Y-67414646D01*
X88613041Y-67415614D01*
X88686261Y-67554497D01*
X88686946Y-67556066D01*
X88715809Y-67638006D01*
X88716136Y-67639101D01*
X88737949Y-67727864D01*
X88736595Y-67736716D01*
X88729379Y-67742018D01*
X88728895Y-67742126D01*
X88301818Y-67828045D01*
X88297202Y-67828045D01*
X87870276Y-67742157D01*
X87862842Y-67737166D01*
X87861114Y-67728379D01*
X87861258Y-67727752D01*
X87890652Y-67614318D01*
X87891100Y-67612950D01*
X87929878Y-67515838D01*
X87930668Y-67514231D01*
X88017439Y-67367625D01*
X88085107Y-67256497D01*
X88131419Y-67125828D01*
X88144749Y-67040293D01*
X88148999Y-66947321D01*
X88152800Y-66939215D01*
X88160687Y-66936157D01*
X88438616Y-66936157D01*
X88446889Y-66939584D01*
G37*
%TD.AperFunction*%
%TD*%
%TA.AperFunction,Conductor*%
%TO.N,Net-(U5A-SRB1)*%
G36*
X88728744Y-65912863D02*
G01*
X88736177Y-65917853D01*
X88737905Y-65926640D01*
X88737761Y-65927267D01*
X88708372Y-66040682D01*
X88707912Y-66042086D01*
X88669144Y-66139173D01*
X88668347Y-66140793D01*
X88581607Y-66287350D01*
X88581531Y-66287476D01*
X88513913Y-66398521D01*
X88467599Y-66529196D01*
X88454273Y-66614706D01*
X88454271Y-66614722D01*
X88454271Y-66614726D01*
X88450020Y-66707698D01*
X88446220Y-66715805D01*
X88438333Y-66718863D01*
X88160404Y-66718863D01*
X88152131Y-66715436D01*
X88148734Y-66707996D01*
X88138711Y-66567648D01*
X88109708Y-66454849D01*
X88109707Y-66454847D01*
X88109706Y-66454844D01*
X88067585Y-66366183D01*
X88067580Y-66366176D01*
X88067580Y-66366174D01*
X88017464Y-66287434D01*
X87986548Y-66240372D01*
X87985977Y-66239404D01*
X87933989Y-66140793D01*
X87912755Y-66100515D01*
X87912076Y-66098960D01*
X87883207Y-66017006D01*
X87882882Y-66015917D01*
X87861070Y-65927155D01*
X87862424Y-65918303D01*
X87869640Y-65913001D01*
X87870101Y-65912897D01*
X88297204Y-65826974D01*
X88301816Y-65826974D01*
X88728744Y-65912863D01*
G37*
%TD.AperFunction*%
%TD*%
%TA.AperFunction,Conductor*%
%TO.N,Net-(U5A-SRB1)*%
G36*
X88446889Y-72939584D02*
G01*
X88450286Y-72947024D01*
X88460308Y-73087371D01*
X88489310Y-73200164D01*
X88489313Y-73200173D01*
X88489314Y-73200175D01*
X88531435Y-73288836D01*
X88531437Y-73288839D01*
X88531438Y-73288841D01*
X88531439Y-73288844D01*
X88581554Y-73367584D01*
X88612470Y-73414646D01*
X88613041Y-73415614D01*
X88686261Y-73554497D01*
X88686946Y-73556066D01*
X88715809Y-73638006D01*
X88716136Y-73639101D01*
X88737949Y-73727864D01*
X88736595Y-73736716D01*
X88729379Y-73742018D01*
X88728895Y-73742126D01*
X88301818Y-73828045D01*
X88297202Y-73828045D01*
X87870276Y-73742157D01*
X87862842Y-73737166D01*
X87861114Y-73728379D01*
X87861258Y-73727752D01*
X87890652Y-73614318D01*
X87891100Y-73612950D01*
X87929878Y-73515838D01*
X87930668Y-73514231D01*
X88017439Y-73367625D01*
X88085107Y-73256497D01*
X88131419Y-73125828D01*
X88144749Y-73040293D01*
X88148999Y-72947321D01*
X88152800Y-72939215D01*
X88160687Y-72936157D01*
X88438616Y-72936157D01*
X88446889Y-72939584D01*
G37*
%TD.AperFunction*%
%TD*%
%TA.AperFunction,Conductor*%
%TO.N,Net-(U5A-SRB1)*%
G36*
X88728744Y-71911863D02*
G01*
X88736177Y-71916853D01*
X88737905Y-71925640D01*
X88737761Y-71926267D01*
X88708372Y-72039682D01*
X88707912Y-72041086D01*
X88669144Y-72138173D01*
X88668347Y-72139793D01*
X88581607Y-72286350D01*
X88581531Y-72286476D01*
X88513913Y-72397521D01*
X88467599Y-72528196D01*
X88454273Y-72613706D01*
X88454271Y-72613722D01*
X88454271Y-72613726D01*
X88450020Y-72706698D01*
X88446220Y-72714805D01*
X88438333Y-72717863D01*
X88160404Y-72717863D01*
X88152131Y-72714436D01*
X88148734Y-72706996D01*
X88138711Y-72566648D01*
X88109708Y-72453849D01*
X88109707Y-72453847D01*
X88109706Y-72453844D01*
X88067585Y-72365183D01*
X88067580Y-72365176D01*
X88067580Y-72365174D01*
X88017464Y-72286434D01*
X87986548Y-72239372D01*
X87985977Y-72238404D01*
X87933989Y-72139793D01*
X87912755Y-72099515D01*
X87912076Y-72097960D01*
X87883207Y-72016006D01*
X87882882Y-72014917D01*
X87861070Y-71926155D01*
X87862424Y-71917303D01*
X87869640Y-71912001D01*
X87870101Y-71911897D01*
X88297204Y-71825974D01*
X88301816Y-71825974D01*
X88728744Y-71911863D01*
G37*
%TD.AperFunction*%
%TD*%
%TA.AperFunction,Conductor*%
%TO.N,Net-(U5A-SRB1)*%
G36*
X88728744Y-69912863D02*
G01*
X88736177Y-69917853D01*
X88737905Y-69926640D01*
X88737761Y-69927267D01*
X88708372Y-70040682D01*
X88707912Y-70042086D01*
X88669144Y-70139173D01*
X88668347Y-70140793D01*
X88581607Y-70287350D01*
X88581531Y-70287476D01*
X88513913Y-70398521D01*
X88467599Y-70529196D01*
X88454273Y-70614706D01*
X88454271Y-70614722D01*
X88454271Y-70614726D01*
X88450020Y-70707698D01*
X88446220Y-70715805D01*
X88438333Y-70718863D01*
X88160404Y-70718863D01*
X88152131Y-70715436D01*
X88148734Y-70707996D01*
X88138711Y-70567648D01*
X88109708Y-70454849D01*
X88109707Y-70454847D01*
X88109706Y-70454844D01*
X88067585Y-70366183D01*
X88067580Y-70366176D01*
X88067580Y-70366174D01*
X88017464Y-70287434D01*
X87986548Y-70240372D01*
X87985977Y-70239404D01*
X87933989Y-70140793D01*
X87912755Y-70100515D01*
X87912076Y-70098960D01*
X87883207Y-70017006D01*
X87882882Y-70015917D01*
X87861070Y-69927155D01*
X87862424Y-69918303D01*
X87869640Y-69913001D01*
X87870101Y-69912897D01*
X88297204Y-69826974D01*
X88301816Y-69826974D01*
X88728744Y-69912863D01*
G37*
%TD.AperFunction*%
%TD*%
%TA.AperFunction,Conductor*%
%TO.N,Net-(U5A-SRB1)*%
G36*
X88446889Y-70938584D02*
G01*
X88450286Y-70946024D01*
X88460308Y-71086371D01*
X88489310Y-71199164D01*
X88489313Y-71199173D01*
X88489314Y-71199175D01*
X88531435Y-71287836D01*
X88531437Y-71287839D01*
X88531438Y-71287841D01*
X88531439Y-71287844D01*
X88581554Y-71366584D01*
X88612470Y-71413646D01*
X88613041Y-71414614D01*
X88686261Y-71553497D01*
X88686946Y-71555066D01*
X88715809Y-71637006D01*
X88716136Y-71638101D01*
X88737949Y-71726864D01*
X88736595Y-71735716D01*
X88729379Y-71741018D01*
X88728895Y-71741126D01*
X88301818Y-71827045D01*
X88297202Y-71827045D01*
X87870276Y-71741157D01*
X87862842Y-71736166D01*
X87861114Y-71727379D01*
X87861258Y-71726752D01*
X87890652Y-71613318D01*
X87891100Y-71611950D01*
X87929878Y-71514838D01*
X87930668Y-71513231D01*
X88017439Y-71366625D01*
X88085107Y-71255497D01*
X88131419Y-71124828D01*
X88144749Y-71039293D01*
X88148999Y-70946321D01*
X88152800Y-70938215D01*
X88160687Y-70935157D01*
X88438616Y-70935157D01*
X88446889Y-70938584D01*
G37*
%TD.AperFunction*%
%TD*%
%TA.AperFunction,Conductor*%
%TO.N,/GPIO25{slash}PWM_B*%
G36*
X122879259Y-49617891D02*
G01*
X122993529Y-49724192D01*
X123104669Y-49810298D01*
X123104674Y-49810301D01*
X123207528Y-49872541D01*
X123207530Y-49872542D01*
X123207532Y-49872543D01*
X123305232Y-49914942D01*
X123305236Y-49914943D01*
X123400880Y-49941513D01*
X123400883Y-49941513D01*
X123400885Y-49941514D01*
X123497605Y-49956278D01*
X123497612Y-49956278D01*
X123497620Y-49956279D01*
X123706696Y-49966450D01*
X123706697Y-49966450D01*
X123810524Y-49971339D01*
X123975218Y-49979096D01*
X123976293Y-49979197D01*
X124261349Y-50019888D01*
X124269055Y-50024450D01*
X124271279Y-50033124D01*
X124271173Y-50033743D01*
X124099640Y-50900279D01*
X124094672Y-50907729D01*
X124094653Y-50907742D01*
X123360034Y-51397442D01*
X123351249Y-51399180D01*
X123343809Y-51394197D01*
X123343421Y-51393573D01*
X123217022Y-51175427D01*
X123216298Y-51173944D01*
X123135997Y-50974905D01*
X123135513Y-50973430D01*
X123133069Y-50963885D01*
X123090047Y-50795843D01*
X123089850Y-50794915D01*
X123062240Y-50630887D01*
X123014578Y-50384544D01*
X122948799Y-50209101D01*
X122900638Y-50120905D01*
X122838419Y-50028323D01*
X122788709Y-49966450D01*
X122758342Y-49928652D01*
X122666597Y-49830601D01*
X122663446Y-49822218D01*
X122666866Y-49814335D01*
X122863018Y-49618183D01*
X122871290Y-49614757D01*
X122879259Y-49617891D01*
G37*
%TD.AperFunction*%
%TD*%
%TA.AperFunction,Conductor*%
%TO.N,/GPIO25{slash}PWM_B*%
G36*
X120662163Y-42035815D02*
G01*
X120669602Y-42040798D01*
X120671340Y-42049583D01*
X120671319Y-42049684D01*
X120594793Y-42415452D01*
X120594782Y-42415506D01*
X120565358Y-42552930D01*
X120512550Y-42866425D01*
X120512549Y-42866433D01*
X120494890Y-43114499D01*
X120489688Y-43450887D01*
X120486133Y-43459106D01*
X120477989Y-43462406D01*
X120200548Y-43462406D01*
X120192275Y-43458979D01*
X120188868Y-43451386D01*
X120181068Y-43317494D01*
X120181066Y-43317481D01*
X120156391Y-43200717D01*
X120156391Y-43200715D01*
X120116465Y-43107500D01*
X120062268Y-43033245D01*
X119994782Y-42973355D01*
X119983825Y-42966472D01*
X119914991Y-42923234D01*
X119828401Y-42883074D01*
X119722402Y-42833913D01*
X119722360Y-42833893D01*
X119510136Y-42737478D01*
X119509119Y-42736955D01*
X119301818Y-42617117D01*
X119296371Y-42610010D01*
X119297545Y-42601132D01*
X119297931Y-42600510D01*
X119786683Y-41868064D01*
X119794124Y-41863085D01*
X119798708Y-41863085D01*
X120662163Y-42035815D01*
G37*
%TD.AperFunction*%
%TD*%
%TA.AperFunction,Conductor*%
%TO.N,/GPIO65{slash}UART1_TX*%
G36*
X123919501Y-64025820D02*
G01*
X123924700Y-64033112D01*
X123924772Y-64033446D01*
X124098036Y-64899575D01*
X124096298Y-64908360D01*
X124096285Y-64908379D01*
X123604763Y-65642526D01*
X123597313Y-65647494D01*
X123588532Y-65645739D01*
X123588132Y-65645460D01*
X123444650Y-65540481D01*
X123443883Y-65539868D01*
X123405528Y-65506528D01*
X123319664Y-65431888D01*
X123318921Y-65431181D01*
X123127131Y-65231611D01*
X123127058Y-65231534D01*
X123026935Y-65123798D01*
X123010559Y-65109507D01*
X122898340Y-65011579D01*
X122898333Y-65011575D01*
X122760277Y-64935560D01*
X122760276Y-64935559D01*
X122760275Y-64935559D01*
X122760269Y-64935557D01*
X122760264Y-64935555D01*
X122676734Y-64907182D01*
X122676725Y-64907179D01*
X122676721Y-64907178D01*
X122628655Y-64896563D01*
X122580585Y-64885948D01*
X122460469Y-64871633D01*
X122460460Y-64871632D01*
X122331557Y-64867124D01*
X122323409Y-64863410D01*
X122320266Y-64855431D01*
X122320266Y-64578060D01*
X122323693Y-64569787D01*
X122331590Y-64566366D01*
X122482578Y-64561518D01*
X122584120Y-64550718D01*
X122622268Y-64546662D01*
X122622270Y-64546661D01*
X122622285Y-64546660D01*
X122742960Y-64523321D01*
X122848178Y-64492667D01*
X123026535Y-64414075D01*
X123185943Y-64320211D01*
X123410316Y-64191508D01*
X123411622Y-64190865D01*
X123637722Y-64096605D01*
X123638823Y-64096211D01*
X123769872Y-64056836D01*
X123770544Y-64056657D01*
X123910670Y-64024340D01*
X123919501Y-64025820D01*
G37*
%TD.AperFunction*%
%TD*%
%TA.AperFunction,Conductor*%
%TO.N,/GPIO65{slash}UART1_TX*%
G36*
X114715793Y-41862502D02*
G01*
X115581940Y-42035771D01*
X115589379Y-42040753D01*
X115591117Y-42049538D01*
X115591048Y-42049858D01*
X115515853Y-42377845D01*
X115515701Y-42378437D01*
X115445885Y-42623399D01*
X115445886Y-42623400D01*
X115384742Y-42841556D01*
X115384738Y-42841573D01*
X115338237Y-43109333D01*
X115338236Y-43109346D01*
X115324352Y-43295217D01*
X115324350Y-43295275D01*
X115319748Y-43516620D01*
X115316150Y-43524820D01*
X115308051Y-43528077D01*
X115030526Y-43528077D01*
X115022253Y-43524650D01*
X115018847Y-43517081D01*
X115010254Y-43374567D01*
X115010254Y-43374561D01*
X114983667Y-43249376D01*
X114941523Y-43148124D01*
X114941521Y-43148122D01*
X114941520Y-43148118D01*
X114885593Y-43066401D01*
X114817656Y-42999820D01*
X114817652Y-42999816D01*
X114739485Y-42943975D01*
X114739480Y-42943972D01*
X114739476Y-42943969D01*
X114739467Y-42943964D01*
X114559501Y-42846884D01*
X114430240Y-42780231D01*
X114429364Y-42779730D01*
X114251646Y-42667724D01*
X114250145Y-42666601D01*
X114099103Y-42533404D01*
X114097693Y-42531921D01*
X113970630Y-42372504D01*
X113968153Y-42363899D01*
X113972487Y-42356063D01*
X113973255Y-42355500D01*
X114706991Y-41864253D01*
X114715771Y-41862499D01*
X114715793Y-41862502D01*
G37*
%TD.AperFunction*%
%TD*%
%TA.AperFunction,Conductor*%
%TO.N,/GPIO64{slash}UART1_RX*%
G36*
X116380278Y-41689335D02*
G01*
X117244054Y-41860322D01*
X117251503Y-41865289D01*
X117253258Y-41869526D01*
X117424269Y-42733426D01*
X117422514Y-42742207D01*
X117415064Y-42747175D01*
X117414715Y-42747239D01*
X117170345Y-42787961D01*
X117169786Y-42788040D01*
X116962338Y-42812387D01*
X116962239Y-42812398D01*
X116890192Y-42820231D01*
X116890157Y-42820236D01*
X116678872Y-42853651D01*
X116513526Y-42910128D01*
X116427586Y-42955936D01*
X116336997Y-43016856D01*
X116223629Y-43109135D01*
X116104798Y-43221372D01*
X116096430Y-43224561D01*
X116088491Y-43221139D01*
X115892438Y-43025086D01*
X115889011Y-43016813D01*
X115892203Y-43008783D01*
X116005104Y-42889202D01*
X116097722Y-42775230D01*
X116166497Y-42670998D01*
X116215670Y-42572373D01*
X116249483Y-42475222D01*
X116272180Y-42375409D01*
X116301188Y-42151270D01*
X116314152Y-42034091D01*
X116314214Y-42033624D01*
X116366444Y-41699006D01*
X116371105Y-41691362D01*
X116379807Y-41689252D01*
X116380278Y-41689335D01*
G37*
%TD.AperFunction*%
%TD*%
%TA.AperFunction,Conductor*%
%TO.N,/GPIO64{slash}UART1_RX*%
G36*
X122859258Y-56637861D02*
G01*
X122972789Y-56743079D01*
X122972799Y-56743089D01*
X123083651Y-56827901D01*
X123083653Y-56827902D01*
X123157908Y-56871769D01*
X123186527Y-56888677D01*
X123247719Y-56914158D01*
X123284345Y-56929410D01*
X123284346Y-56929410D01*
X123284348Y-56929411D01*
X123380058Y-56954114D01*
X123476597Y-56966793D01*
X123683866Y-56972106D01*
X123683919Y-56972130D01*
X123683920Y-56972108D01*
X123984327Y-56981219D01*
X123985566Y-56981324D01*
X124261312Y-57019917D01*
X124269030Y-57024457D01*
X124271277Y-57033126D01*
X124271167Y-57033776D01*
X124099640Y-57900279D01*
X124094672Y-57907729D01*
X124094653Y-57907742D01*
X123359993Y-58397469D01*
X123351208Y-58399207D01*
X123343768Y-58394224D01*
X123343403Y-58393640D01*
X123305638Y-58329057D01*
X123217529Y-58178376D01*
X123216846Y-58177008D01*
X123134787Y-57981032D01*
X123134316Y-57979676D01*
X123085677Y-57805327D01*
X123085467Y-57804439D01*
X123054079Y-57643877D01*
X123004322Y-57413748D01*
X122935833Y-57235859D01*
X122886420Y-57146570D01*
X122822728Y-57052599D01*
X122740764Y-56951071D01*
X122646608Y-56850599D01*
X122643452Y-56842222D01*
X122646872Y-56834329D01*
X122843033Y-56638168D01*
X122851305Y-56634742D01*
X122859258Y-56637861D01*
G37*
%TD.AperFunction*%
%TD*%
%TA.AperFunction,Conductor*%
%TO.N,/LEDGNDCTL*%
G36*
X87907279Y-82687999D02*
G01*
X88005713Y-82769308D01*
X88099118Y-82810991D01*
X88099120Y-82810992D01*
X88188429Y-82821311D01*
X88282681Y-82815302D01*
X88282773Y-82815334D01*
X88282771Y-82815297D01*
X88417556Y-82807747D01*
X88419388Y-82807789D01*
X88576541Y-82823851D01*
X88584421Y-82828101D01*
X88586989Y-82836680D01*
X88586829Y-82837751D01*
X88503169Y-83262434D01*
X88498208Y-83269889D01*
X88498169Y-83269915D01*
X88136855Y-83510201D01*
X88128068Y-83511929D01*
X88120803Y-83507185D01*
X88033644Y-83383108D01*
X87958093Y-83290013D01*
X87937384Y-83269915D01*
X87813763Y-83149940D01*
X87625019Y-82972334D01*
X87621342Y-82964169D01*
X87624516Y-82955795D01*
X87624728Y-82955576D01*
X87891557Y-82688747D01*
X87899829Y-82685321D01*
X87907279Y-82687999D01*
G37*
%TD.AperFunction*%
%TD*%
%TA.AperFunction,Conductor*%
%TO.N,/LEDGNDCTL*%
G36*
X73501123Y-47928036D02*
G01*
X73609573Y-47954471D01*
X73610618Y-47954777D01*
X73705591Y-47987564D01*
X73706823Y-47988071D01*
X73852339Y-48057754D01*
X73852533Y-48057849D01*
X73942627Y-48103055D01*
X73942630Y-48103056D01*
X73942636Y-48103059D01*
X74015448Y-48126475D01*
X74084040Y-48148535D01*
X74084048Y-48148537D01*
X74177290Y-48161763D01*
X74281653Y-48166049D01*
X74289779Y-48169812D01*
X74292873Y-48177739D01*
X74292873Y-48555462D01*
X74289446Y-48563735D01*
X74281843Y-48567143D01*
X74140301Y-48575266D01*
X74025826Y-48598916D01*
X74025816Y-48598919D01*
X73934745Y-48633544D01*
X73852594Y-48675139D01*
X73852300Y-48675283D01*
X73693666Y-48750106D01*
X73692378Y-48750623D01*
X73602428Y-48780632D01*
X73601459Y-48780909D01*
X73501119Y-48805024D01*
X73492274Y-48803625D01*
X73487009Y-48796382D01*
X73486921Y-48795984D01*
X73400984Y-48368816D01*
X73400984Y-48364202D01*
X73440092Y-48169812D01*
X73486908Y-47937100D01*
X73491899Y-47929667D01*
X73500686Y-47927939D01*
X73501123Y-47928036D01*
G37*
%TD.AperFunction*%
%TD*%
M02*
