<?xml version="1.0" encoding="UTF-8" standalone="no"?>
<!-- Created with Inkscape (http://www.inkscape.org/) -->

<svg
   xmlns:dc="http://purl.org/dc/elements/1.1/"
   xmlns:cc="http://creativecommons.org/ns#"
   xmlns:rdf="http://www.w3.org/1999/02/22-rdf-syntax-ns#"
   xmlns:svg="http://www.w3.org/2000/svg"
   xmlns="http://www.w3.org/2000/svg"
   xmlns:xlink="http://www.w3.org/1999/xlink"
   xmlns:sodipodi="http://sodipodi.sourceforge.net/DTD/sodipodi-0.dtd"
   xmlns:inkscape="http://www.inkscape.org/namespaces/inkscape"
   id="svg2"
   version="1.1"
   inkscape:version="0.48.4 r9939"
   width="308.75"
   height="132.5"
   xml:space="preserve"
   sodipodi:docname="mistlogo.svg"><metadata
     id="metadata8"><rdf:RDF><cc:Work
         rdf:about=""><dc:format>image/svg+xml</dc:format><dc:type
           rdf:resource="http://purl.org/dc/dcmitype/StillImage" /><dc:title /></cc:Work></rdf:RDF></metadata><defs
     id="defs6"><clipPath
       clipPathUnits="userSpaceOnUse"
       id="clipPath16"><path
         d="m 0,0 255.11812,0 0,141.73228 L 0,141.73228 0,0 z"
         id="path18" /></clipPath><clipPath
       clipPathUnits="userSpaceOnUse"
       id="clipPath20"><path
         d="m 88.551,108.56 -15.36,-41.925 -15.472,41.925 -11.321,0 0,-79.816 12.555,0 0,49.215 10.649,-32.176 6.953,0 10.875,32.734 0,-49.773 12.554,0 0,79.816 -11.433,0 z"
         id="path22" /></clipPath><linearGradient
       x1="0"
       y1="0"
       x2="1"
       y2="0"
       gradientUnits="userSpaceOnUse"
       gradientTransform="matrix(0,79.81904,79.81904,0,73.190369,28.74339)"
       spreadMethod="pad"
       id="linearGradient24"><stop
         style="stop-opacity:1;stop-color:#dbe7f0"
         offset="0"
         id="stop26" /><stop
         style="stop-opacity:1;stop-color:#05507d"
         offset="1"
         id="stop28" /></linearGradient><clipPath
       clipPathUnits="userSpaceOnUse"
       id="clipPath30"><path
         d="m 143.816,104.416 c -4.371,-3.926 -6.5,-9.754 -6.5,-16.93 0,-12.332 3.028,-16.703 11.098,-20.066 l 9.527,-3.922 c 6.164,-2.469 7.512,-4.598 7.512,-13.117 0,-4.262 -0.449,-6.953 -2.129,-8.856 -1.234,-1.461 -3.14,-2.242 -6.054,-2.242 -2.805,0 -4.711,0.895 -5.832,2.129 -1.793,2.016 -2.243,4.707 -2.243,8.969 l -12.554,0 c 0,-8.41 1.347,-13.34 5.16,-17.153 3.359,-3.363 8.519,-5.269 15.469,-5.269 7.062,0 12.332,2.129 15.582,5.269 4.035,3.922 5.156,9.418 5.156,17.602 0,13.449 -2.578,18.496 -12.106,22.418 l -9.418,3.812 c -5.605,2.243 -6.613,4.262 -6.613,10.762 0,3.477 0.672,6.168 2.129,7.848 1.234,1.347 2.801,2.242 5.383,2.242 2.687,0 4.48,-0.895 5.601,-2.352 1.684,-2.132 1.907,-4.933 1.907,-8.523 l 12.558,0 c 0,7.625 -1.457,13.344 -5.605,17.379 -3.254,3.137 -7.961,4.82 -14.352,4.82 -5.715,0 -10.199,-1.793 -13.676,-4.82"
         id="path32" /></clipPath><linearGradient
       x1="0"
       y1="0"
       x2="1"
       y2="0"
       gradientUnits="userSpaceOnUse"
       gradientTransform="matrix(0,81.27617,81.27617,0,157.32565,27.958383)"
       spreadMethod="pad"
       id="linearGradient34"><stop
         style="stop-opacity:1;stop-color:#dbe7f0"
         offset="0"
         id="stop36" /><stop
         style="stop-opacity:1;stop-color:#05507d"
         offset="1"
         id="stop38" /></linearGradient><clipPath
       clipPathUnits="userSpaceOnUse"
       id="clipPath40"><path
         d="m 184.512,108.56 0,-11.32 13.34,0 0,-68.496 12.554,0 0,68.496 13.453,0 0,11.32 -39.347,0 z"
         id="path42" /></clipPath><linearGradient
       x1="0"
       y1="0"
       x2="1"
       y2="0"
       gradientUnits="userSpaceOnUse"
       gradientTransform="matrix(0,79.81904,79.81904,0,204.1854,28.74339)"
       spreadMethod="pad"
       id="linearGradient44"><stop
         style="stop-opacity:1;stop-color:#dbe7f0"
         offset="0"
         id="stop46" /><stop
         style="stop-opacity:1;stop-color:#05507d"
         offset="1"
         id="stop48" /></linearGradient><clipPath
       clipPathUnits="userSpaceOnUse"
       id="clipPath50"><path
         d="m 113.02,84.599 c 1.792,1.575 4.136,2.536 6.707,2.536 2.562,0 4.898,-0.965 6.683,-2.547 -1.262,8.918 -3.523,17.605 -6.695,26.008 -3.172,-8.399 -5.434,-17.082 -6.695,-25.997 m -0.68,-5.816 c -0.328,-3.594 -0.5,-7.223 -0.5,-10.883 0,-10 1.258,-19.777 3.652,-29.25 -4.308,-1.691 -7.363,-5.875 -7.363,-10.785 0,-0.914 0.117,-1.801 0.316,-2.656 0.985,4.187 4.235,7.5 8.387,8.562 0.859,-2.882 1.816,-5.742 2.883,-8.562 1.066,2.82 2.023,5.68 2.879,8.562 4.156,-1.062 7.406,-4.375 8.39,-8.562 0.2,0.855 0.317,1.742 0.317,2.656 0,4.91 -3.055,9.094 -7.363,10.785 2.39,9.473 3.648,19.25 3.648,29.25 0,3.61 -0.164,7.192 -0.488,10.739 -0.75,3.39 -3.77,5.933 -7.371,5.933 -3.575,0 -6.575,-2.473 -7.387,-5.789"
         id="path52" /></clipPath><linearGradient
       x1="0"
       y1="0"
       x2="1"
       y2="0"
       gradientUnits="userSpaceOnUse"
       gradientTransform="matrix(0,85.386103,85.386103,0,119.71406,25.208912)"
       spreadMethod="pad"
       id="linearGradient54"><stop
         style="stop-opacity:1;stop-color:#dbe7f0"
         offset="0"
         id="stop56" /><stop
         style="stop-opacity:1;stop-color:#05507d"
         offset="1"
         id="stop58" /></linearGradient><linearGradient
       inkscape:collect="always"
       xlink:href="#linearGradient24"
       id="linearGradient3131"
       gradientUnits="userSpaceOnUse"
       gradientTransform="matrix(0,79.81904,79.81904,0,73.190369,28.74339)"
       spreadMethod="pad"
       x1="0"
       y1="0"
       x2="1"
       y2="0" /><linearGradient
       inkscape:collect="always"
       xlink:href="#linearGradient34"
       id="linearGradient3133"
       gradientUnits="userSpaceOnUse"
       gradientTransform="matrix(0,81.27617,81.27617,0,157.32565,27.958383)"
       spreadMethod="pad"
       x1="0"
       y1="0"
       x2="1"
       y2="0" /><linearGradient
       inkscape:collect="always"
       xlink:href="#linearGradient44"
       id="linearGradient3135"
       gradientUnits="userSpaceOnUse"
       gradientTransform="matrix(0,79.81904,79.81904,0,204.1854,28.74339)"
       spreadMethod="pad"
       x1="0"
       y1="0"
       x2="1"
       y2="0" /><linearGradient
       inkscape:collect="always"
       xlink:href="#linearGradient54"
       id="linearGradient3137"
       gradientUnits="userSpaceOnUse"
       gradientTransform="matrix(0,85.386103,85.386103,0,119.71406,25.208912)"
       spreadMethod="pad"
       x1="0"
       y1="0"
       x2="1"
       y2="0" /><linearGradient
       inkscape:collect="always"
       xlink:href="#linearGradient24"
       id="linearGradient3195"
       gradientUnits="userSpaceOnUse"
       gradientTransform="matrix(0,79.81904,79.81904,0,73.190369,28.74339)"
       spreadMethod="pad"
       x1="0"
       y1="0"
       x2="1"
       y2="0" /><linearGradient
       inkscape:collect="always"
       xlink:href="#linearGradient34"
       id="linearGradient3197"
       gradientUnits="userSpaceOnUse"
       gradientTransform="matrix(0,81.27617,81.27617,0,157.32565,27.958383)"
       spreadMethod="pad"
       x1="0"
       y1="0"
       x2="1"
       y2="0" /><linearGradient
       inkscape:collect="always"
       xlink:href="#linearGradient44"
       id="linearGradient3199"
       gradientUnits="userSpaceOnUse"
       gradientTransform="matrix(0,79.81904,79.81904,0,204.1854,28.74339)"
       spreadMethod="pad"
       x1="0"
       y1="0"
       x2="1"
       y2="0" /><linearGradient
       inkscape:collect="always"
       xlink:href="#linearGradient54"
       id="linearGradient3201"
       gradientUnits="userSpaceOnUse"
       gradientTransform="matrix(0,85.386103,85.386103,0,119.71406,25.208912)"
       spreadMethod="pad"
       x1="0"
       y1="0"
       x2="1"
       y2="0" /></defs><sodipodi:namedview
     pagecolor="#ffffff"
     bordercolor="#666666"
     borderopacity="1"
     objecttolerance="10"
     gridtolerance="10"
     guidetolerance="10"
     inkscape:pageopacity="0"
     inkscape:pageshadow="2"
     inkscape:window-width="1918"
     inkscape:window-height="1030"
     id="namedview4"
     showgrid="false"
     inkscape:zoom="3.8089069"
     inkscape:cx="128.3415"
     inkscape:cy="57.804567"
     inkscape:window-x="0"
     inkscape:window-y="0"
     inkscape:window-maximized="1"
     inkscape:current-layer="g12" /><g
     id="g10"
     inkscape:groupmode="layer"
     inkscape:label="mistlogo"
     transform="matrix(1.25,0,0,-1.25,0,132.5)"><g
       id="g12"
       transform="translate(-6,-25)"><g
         id="g14" /><path
         style="fill:#d91920;fill-opacity:1;fill-rule:nonzero;stroke:none"
         d="M 154.15625 69.125 C 139.88707 69.125 125.87392 70.1684 112.15625 72.15625 L 112.15625 77.0625 C 125.90598 75.286369 139.92277 74.375 154.15625 74.375 C 209.36625 74.375 261.36875 88.17625 306.90625 112.46875 C 262.52125 85.0025 210.18625 69.125 154.15625 69.125 z M 59.5625 84.875 C 39.059248 91.934668 19.578986 101.24247 1.4375 112.46875 C 19.831725 102.65506 39.27448 94.542713 59.5625 88.375 L 59.5625 84.875 z "
         transform="matrix(0.8,0,0,-0.8,6,131)"
         id="path66" /><path
         style="fill:#d91920;fill-opacity:1;fill-rule:nonzero;stroke:none"
         d="M 154.15625 67.875 C 139.13089 67.875 124.20664 69.013775 109.5 71.28125 L 109.5 73.84375 C 124.20891 71.554975 139.12448 70.375 154.15625 70.375 C 193.2475 70.375 231.68375 78.215 267.25 93.3125 C 231.22 80.03625 192.78375 73.125 154.15625 73.125 C 139.19565 73.125 124.27246 74.208232 109.5 76.25 L 109.5 78.75 C 124.27181 76.692153 139.19188 75.625 154.15625 75.625 C 207.17875 75.625 259.79375 88.7475 306.3125 113.5625 L 307.5625 111.40625 C 261.54625 82.935 208.4925 67.875 154.15625 67.875 z M 56.90625 84.53125 C 37.376257 91.428457 18.545735 100.41378 0.78125 111.40625 L 2.03125 113.5625 C 19.561085 104.21037 37.948734 96.515291 56.90625 90.5625 L 56.90625 87.96875 C 51.593289 89.623077 46.313098 91.389287 41.09375 93.3125 C 46.303448 91.101349 51.581468 89.08607 56.90625 87.1875 L 56.90625 84.53125 z "
         transform="matrix(0.8,0,0,-0.8,6,131)"
         id="path68" /><path
         inkscape:connector-curvature="0"
         id="path70"
         style="fill:#ffffff;fill-opacity:1;fill-rule:nonzero;stroke:none"
         d="m 109.551,76.986 2.566,0 c 0,0.621 0.082,1.219 0.223,1.797 0.18,1.949 0.406,3.887 0.68,5.816 -2.122,-1.859 -3.469,-4.578 -3.469,-7.613" /><g
         id="g74"><g
           id="g76"
           clip-path="url(#clipPath20)"><g
             id="g78"><path
               inkscape:connector-curvature="0"
               id="path80"
               style="fill:url(#linearGradient3195);stroke:none"
               d="m 88.551,108.56 -15.36,-41.925 -15.472,41.925 -11.321,0 0,-79.816 12.555,0 0,49.215 10.649,-32.176 6.953,0 10.875,32.734 0,-49.773 12.554,0 0,79.816 -11.433,0 z" /></g></g></g><g
         id="g82"><g
           id="g84"
           clip-path="url(#clipPath30)"><g
             id="g86"><path
               inkscape:connector-curvature="0"
               id="path88"
               style="fill:url(#linearGradient3197);stroke:none"
               d="m 143.816,104.416 c -4.371,-3.926 -6.5,-9.754 -6.5,-16.93 0,-12.332 3.028,-16.703 11.098,-20.066 l 9.527,-3.922 c 6.164,-2.469 7.512,-4.598 7.512,-13.117 0,-4.262 -0.449,-6.953 -2.129,-8.856 -1.234,-1.461 -3.14,-2.242 -6.054,-2.242 -2.805,0 -4.711,0.895 -5.832,2.129 -1.793,2.016 -2.243,4.707 -2.243,8.969 l -12.554,0 c 0,-8.41 1.347,-13.34 5.16,-17.153 3.359,-3.363 8.519,-5.269 15.469,-5.269 7.062,0 12.332,2.129 15.582,5.269 4.035,3.922 5.156,9.418 5.156,17.602 0,13.449 -2.578,18.496 -12.106,22.418 l -9.418,3.812 c -5.605,2.243 -6.613,4.262 -6.613,10.762 0,3.477 0.672,6.168 2.129,7.848 1.234,1.347 2.801,2.242 5.383,2.242 2.687,0 4.48,-0.895 5.601,-2.352 1.684,-2.132 1.907,-4.933 1.907,-8.523 l 12.558,0 c 0,7.625 -1.457,13.344 -5.605,17.379 -3.254,3.137 -7.961,4.82 -14.352,4.82 -5.715,0 -10.199,-1.793 -13.676,-4.82" /></g></g></g><g
         id="g90"><g
           id="g92"
           clip-path="url(#clipPath40)"><g
             id="g94"><path
               inkscape:connector-curvature="0"
               id="path96"
               style="fill:url(#linearGradient3199);stroke:none"
               d="m 184.512,108.56 0,-11.32 13.34,0 0,-68.496 12.554,0 0,68.496 13.453,0 0,11.32 -39.347,0 z" /></g></g></g><g
         id="g98"><g
           id="g100"
           clip-path="url(#clipPath50)"><g
             id="g102"><path
               inkscape:connector-curvature="0"
               id="path104"
               style="fill:url(#linearGradient3201);stroke:none"
               d="m 113.02,84.599 c 1.792,1.575 4.136,2.536 6.707,2.536 2.562,0 4.898,-0.965 6.683,-2.547 -1.262,8.918 -3.523,17.605 -6.695,26.008 -3.172,-8.399 -5.434,-17.082 -6.695,-25.997 m -0.68,-5.816 c -0.328,-3.594 -0.5,-7.223 -0.5,-10.883 0,-10 1.258,-19.777 3.652,-29.25 -4.308,-1.691 -7.363,-5.875 -7.363,-10.785 0,-0.914 0.117,-1.801 0.316,-2.656 0.985,4.187 4.235,7.5 8.387,8.562 0.859,-2.882 1.816,-5.742 2.883,-8.562 1.066,2.82 2.023,5.68 2.879,8.562 4.156,-1.062 7.406,-4.375 8.39,-8.562 0.2,0.855 0.317,1.742 0.317,2.656 0,4.91 -3.055,9.094 -7.363,10.785 2.39,9.473 3.648,19.25 3.648,29.25 0,3.61 -0.164,7.192 -0.488,10.739 -0.75,3.39 -3.77,5.933 -7.371,5.933 -3.575,0 -6.575,-2.473 -7.387,-5.789" /></g></g></g><path
         inkscape:connector-curvature="0"
         id="path106"
         style="fill:#d91920;fill-opacity:1;fill-rule:nonzero;stroke:none"
         d="m 117.27,123.299 -7.903,0 6.395,-4.645 -2.446,-7.519 6.399,4.644 6.394,-4.644 -2.441,7.519 6.394,4.645 -7.906,0 -2.441,7.519 -2.445,-7.519 z" /></g></g></svg>